<?xml version="1.0" encoding="UTF-8" standalone="no"?>
<!DOCTYPE svg PUBLIC "-//W3C//DTD SVG 1.1//EN" "http://www.w3.org/Graphics/SVG/1.1/DTD/svg11.dtd">
<svg xmlns="http://www.w3.org/2000/svg" version="1.1" viewBox="0.00 0.00 600.00 79.00">
<g stroke-width="2.00" fill="none" stroke-linecap="butt">
<path stroke="#858585" vector-effect="non-scaling-stroke" d="
  M 34.67 0.00
  Q 32.49 0.58 30.28 0.94
  Q 19.73 2.70 11.89 9.89
  Q 2.83 18.20 0.63 30.73"
/>
<path stroke="#8e8e8e" vector-effect="non-scaling-stroke" d="
  M 0.63 30.73
  L 0.00 34.56"
/>
<path stroke="#858585" vector-effect="non-scaling-stroke" d="
  M 39.63 0.00
  Q 44.62 1.17 49.64 1.53
  Q 49.81 1.54 55.82 1.29
  Q 59.53 1.14 63.26 2.46"
/>
<path stroke="#141414" vector-effect="non-scaling-stroke" d="
  M 63.26 2.46
  Q 56.86 2.91 51.01 2.82
  C 45.10 2.73 38.78 0.41 31.81 1.66
  C 17.25 4.28 6.46 13.49 2.37 27.98
  Q 1.86 29.79 0.63 30.73"
/>
<path stroke="#8e8e8e" vector-effect="non-scaling-stroke" d="
  M 461.25 79.00
  L 461.21 57.48
  A 0.25 0.25 0.0 0 1 461.65 57.33
  C 466.33 63.28 473.74 64.91 480.71 62.76
  C 488.63 60.32 493.05 53.29 493.39 44.97
  C 493.91 32.29 487.26 23.40 474.23 23.30
  Q 466.86 23.25 461.60 29.57
  A 0.19 0.19 0.0 0 1 461.26 29.45
  L 461.26 24.15
  A 0.26 0.26 0.0 0 0 461.00 23.89
  L 455.43 23.89
  A 0.29 0.29 0.0 0 0 455.14 24.18
  L 455.19 79.00"
/>
<path stroke="#8e8e8e" vector-effect="non-scaling-stroke" d="
  M 0.00 38.99
  C 2.26 65.54 29.42 81.74 53.74 69.66
  C 65.87 63.62 74.21 50.94 74.14 37.51
  Q 74.12 32.53 72.71 25.52
  C 72.00 21.95 73.43 17.95 72.75 14.20
  Q 71.21 5.58 63.26 2.46"
/>
<path stroke="#858585" vector-effect="non-scaling-stroke" d="
  M 151.64 8.11
  A 0.35 0.35 0.0 0 0 151.29 7.76
  L 145.87 7.76
  A 0.35 0.35 0.0 0 0 145.52 8.11
  L 145.52 62.73
  A 0.35 0.35 0.0 0 0 145.87 63.08
  L 151.29 63.08
  A 0.35 0.35 0.0 0 0 151.64 62.73
  L 151.64 8.11"
/>
<path stroke="#8e8e8e" vector-effect="non-scaling-stroke" d="
  M 375.80 10.57
  L 375.79 61.70"
/>
<path stroke="#858585" vector-effect="non-scaling-stroke" d="
  M 375.79 61.70
  Q 375.64 63.90 381.88 63.10
  A 0.60 0.59 -3.9 0 0 382.40 62.51
  L 382.40 9.07
  A 0.42 0.41 90.0 0 0 381.99 8.65
  L 376.28 8.65
  A 0.44 0.43 -88.6 0 0 375.85 9.07
  L 375.80 10.57"
/>
<path stroke="#141414" vector-effect="non-scaling-stroke" d="
  M 375.79 61.70
  L 380.62 61.68
  A 0.44 0.44 0.0 0 0 381.06 61.24
  L 381.06 10.65
  A 0.43 0.43 0.0 0 0 380.72 10.23
  Q 378.23 9.67 375.80 10.57"
/>
<path stroke="#8e8e8e" vector-effect="non-scaling-stroke" d="
  M 101.90 9.26
  L 101.90 62.65
  A 0.45 0.45 0.0 0 0 102.33 63.10
  Q 110.80 63.32 124.74 63.04
  C 132.78 62.87 140.24 57.58 140.58 48.91
  C 140.85 41.78 138.80 36.25 131.59 33.61
  A 0.43 0.43 0.0 0 1 131.56 32.82
  C 136.28 30.71 138.69 26.10 138.17 20.93
  C 137.30 12.50 130.15 8.70 122.29 8.68
  Q 103.55 8.63 102.46 8.68
  A 0.58 0.58 0.0 0 0 101.90 9.26"
/>
<path stroke="#8e8e8e" vector-effect="non-scaling-stroke" d="
  M 282.55 29.23
  Q 278.87 12.36 262.11 9.46"
/>
<path stroke="#858585" vector-effect="non-scaling-stroke" d="
  M 262.11 9.46
  Q 259.36 8.70 255.75 8.70
  Q 241.82 8.68 240.27 8.67
  A 0.38 0.38 0.0 0 0 239.89 9.05
  L 239.89 62.59
  A 0.49 0.49 0.0 0 0 240.37 63.08
  Q 246.52 63.16 256.49 63.07
  C 275.20 62.91 286.47 47.13 282.55 29.23"
/>
<path stroke="#141414" vector-effect="non-scaling-stroke" d="
  M 262.11 9.46
  L 241.62 10.14
  A 0.56 0.56 0.0 0 0 241.08 10.70
  L 241.08 60.96
  A 0.90 0.90 0.0 0 0 241.99 61.86
  Q 246.96 61.83 253.62 61.92
  C 267.35 62.11 278.29 56.52 281.51 42.19
  Q 281.91 40.45 281.95 35.72
  Q 281.98 32.49 282.55 29.23"
/>
<path stroke="#8e8e8e" vector-effect="non-scaling-stroke" d="
  M 354.94 28.91
  L 354.94 24.48
  A 0.59 0.59 0.0 0 0 354.35 23.89
  L 343.23 23.89
  A 0.53 0.53 0.0 0 1 342.70 23.36
  L 342.70 11.67
  A 0.28 0.27 0.0 0 0 342.42 11.40
  L 336.87 11.40
  A 0.29 0.29 0.0 0 0 336.58 11.69
  L 336.58 23.41
  A 0.48 0.48 0.0 0 1 336.10 23.89
  L 328.83 23.89
  A 0.42 0.42 0.0 0 0 328.41 24.31
  L 328.41 28.96
  A 0.38 0.37 -0.0 0 0 328.79 29.33
  L 336.18 29.33
  A 0.38 0.38 0.0 0 1 336.56 29.70
  Q 336.66 32.39 336.55 47.04
  C 336.49 54.86 337.49 60.70 345.41 62.59
  Q 348.91 63.43 354.63 62.99
  A 0.29 0.29 0.0 0 0 354.90 62.70
  L 354.90 57.80
  A 0.26 0.25 88.9 0 0 354.64 57.54
  C 346.89 57.67 342.68 57.76 342.70 48.52
  Q 342.72 31.06 342.68 29.98
  A 0.64 0.64 0.0 0 1 343.32 29.31
  L 354.53 29.31
  A 0.41 0.40 -0.0 0 0 354.94 28.91"
/>
<path stroke="#858585" vector-effect="non-scaling-stroke" d="
  M 581.22 51.58
  Q 581.78 61.09 590.99 62.81
  Q 592.76 63.14 598.29 63.14
  A 1.15 1.15 0.0 0 0 599.44 61.99
  L 599.44 58.50
  A 1.02 1.02 0.0 0 0 598.29 57.49
  Q 597.53 57.59 595.01 57.60
  C 587.88 57.63 587.17 53.58 587.21 47.18
  Q 587.34 30.66 587.23 29.91
  A 0.54 0.53 -3.6 0 1 587.77 29.30
  L 598.93 29.34
  A 0.48 0.48 0.0 0 0 599.41 28.86
  L 599.41 24.56
  A 0.68 0.67 -86.1 0 0 598.83 23.89
  Q 598.36 23.83 597.69 23.97"
/>
<path stroke="#8e8e8e" vector-effect="non-scaling-stroke" d="
  M 597.69 23.97
  L 587.84 23.87
  A 0.58 0.57 0.5 0 1 587.27 23.30
  L 587.27 11.67
  A 0.26 0.25 90.0 0 0 587.02 11.41
  L 581.40 11.41
  A 0.32 0.31 90.0 0 0 581.09 11.73
  L 581.09 23.44
  A 0.45 0.44 -0.0 0 1 580.64 23.88
  L 573.12 23.88
  A 0.31 0.30 -90.0 0 0 572.82 24.19
  L 572.82 29.06
  A 0.26 0.25 -90.0 0 0 573.07 29.32
  L 580.40 29.32
  A 0.78 0.78 0.0 0 1 581.18 30.09
  L 581.22 51.58"
/>
<path stroke="#141414" vector-effect="non-scaling-stroke" d="
  M 597.69 23.97
  L 598.33 26.78
  A 0.98 0.97 -6.3 0 1 597.37 27.97
  L 587.68 27.97
  A 1.16 1.15 9.0 0 0 586.58 28.76
  Q 585.90 30.81 585.88 34.49
  Q 585.80 48.60 586.01 50.29
  C 586.90 57.65 591.30 58.41 597.53 58.85
  A 0.77 0.77 0.0 0 1 598.25 59.62
  L 598.25 61.01
  A 0.84 0.83 88.2 0 1 597.47 61.85
  C 590.91 62.31 584.54 61.10 582.86 53.81
  Q 582.28 51.30 581.22 51.58"
/>
<path stroke="#8e8e8e" vector-effect="non-scaling-stroke" d="
  M 218.79 58.40
  L 212.19 57.86"
/>
<path stroke="#858585" vector-effect="non-scaling-stroke" d="
  M 212.19 57.86
  Q 203.59 54.89 202.21 44.94
  A 0.65 0.64 -3.9 0 1 202.85 44.21
  L 232.59 44.21
  A 0.59 0.59 0.0 0 0 233.18 43.65
  C 233.87 33.46 228.23 24.12 217.35 23.36
  Q 204.88 22.49 199.15 31.63
  C 195.25 37.83 195.11 47.19 198.55 53.43
  Q 204.25 63.78 216.25 63.57
  C 224.53 63.42 231.84 59.34 233.58 50.86
  A 0.18 0.18 0.0 0 0 233.40 50.64
  L 227.74 50.64
  A 0.46 0.45 7.4 0 0 227.30 50.97
  Q 225.88 55.98 218.79 58.40"
/>
<path stroke="#141414" vector-effect="non-scaling-stroke" d="
  M 212.19 57.86
  C 205.53 57.59 202.11 50.81 201.09 44.94
  A 1.15 1.15 0.0 0 1 202.01 43.61
  Q 205.30 42.97 209.06 42.91
  Q 219.64 42.74 231.29 43.00
  A 0.52 0.52 0.0 0 0 231.82 42.48
  C 231.85 34.75 228.53 27.44 220.34 25.58
  C 192.60 19.25 190.02 59.23 212.86 61.56
  Q 218.21 62.11 220.50 61.78
  Q 228.34 60.64 231.63 53.34
  A 0.90 0.90 0.0 0 0 230.96 52.08
  Q 229.77 51.88 228.60 52.28
  A 1.23 1.21 -84.4 0 0 227.93 52.84
  Q 224.59 58.69 218.79 58.40"
/>
<path stroke="#858585" vector-effect="non-scaling-stroke" d="
  M 327.40 43.47
  A 20.34 20.34 0.0 0 0 307.06 23.13
  A 20.34 20.34 0.0 0 0 286.72 43.47
  A 20.34 20.34 0.0 0 0 307.06 63.81
  A 20.34 20.34 0.0 0 0 327.40 43.47"
/>
<path stroke="#8e8e8e" vector-effect="non-scaling-stroke" d="
  M 395.65 30.58
  Q 395.08 27.26 395.57 24.15
  A 0.26 0.26 0.0 0 0 395.31 23.85
  L 389.63 23.85
  A 0.26 0.25 90.0 0 0 389.38 24.11
  L 389.41 60.66"
/>
<path stroke="#858585" vector-effect="non-scaling-stroke" d="
  M 389.41 60.66
  Q 388.07 64.00 394.85 63.09
  A 0.61 0.60 -3.8 0 0 395.38 62.49
  Q 395.45 52.26 395.38 42.00
  C 395.34 37.26 396.00 32.89 400.00 30.27"
/>
<path stroke="#8e8e8e" vector-effect="non-scaling-stroke" d="
  M 400.00 30.27
  C 407.34 26.00 414.80 30.21 414.86 38.68
  Q 414.94 50.05 414.91 62.46"
/>
<path stroke="#858585" vector-effect="non-scaling-stroke" d="
  M 414.91 62.46
  Q 417.15 63.44 420.67 63.16
  A 0.55 0.54 87.8 0 0 421.17 62.61
  Q 421.21 50.93 421.21 39.25
  Q 421.21 31.39 429.27 28.59"
/>
<path stroke="#8e8e8e" vector-effect="non-scaling-stroke" d="
  M 429.27 28.59
  Q 436.23 28.01 439.03 32.72
  Q 441.02 36.08 440.89 43.62
  Q 440.73 52.81 440.85 62.64
  A 0.48 0.48 0.0 0 0 441.33 63.11
  L 446.48 63.11
  A 0.56 0.56 0.0 0 0 447.04 62.55
  Q 447.12 42.97 446.99 38.25
  Q 446.92 35.31 445.97 32.03
  Q 444.09 25.53 437.22 23.94
  Q 426.35 21.41 420.45 30.91"
/>
<path stroke="#858585" vector-effect="non-scaling-stroke" d="
  M 420.45 30.91
  Q 417.61 25.09 412.12 23.88
  Q 400.75 21.38 395.65 30.58"
/>
<path stroke="#141414" vector-effect="non-scaling-stroke" d="
  M 420.45 30.91
  Q 418.64 29.54 417.45 28.31
  Q 415.49 26.29 414.46 25.86
  C 409.03 23.58 402.13 23.76 398.25 28.80
  A 0.39 0.39 0.0 0 0 398.75 29.38
  Q 399.84 28.76 400.92 28.61
  A 0.33 0.33 0.0 0 1 401.18 29.18
  L 400.00 30.27"
/>
<path stroke="#141414" vector-effect="non-scaling-stroke" d="
  M 389.41 60.66
  Q 392.19 62.42 393.62 61.73
  A 0.80 0.78 -13.3 0 0 394.08 61.00
  L 393.93 41.78
  A 2.04 1.90 -43.0 0 1 393.95 41.50
  L 395.65 30.58"
/>
<path stroke="#141414" vector-effect="non-scaling-stroke" d="
  M 429.27 28.59
  Q 425.37 27.52 422.53 31.97
  Q 420.00 35.94 419.95 39.00
  Q 419.74 50.12 420.00 61.12
  A 0.82 0.82 0.0 0 1 418.96 61.93
  Q 416.40 61.22 414.91 62.46"
/>
<path stroke="#8e8e8e" vector-effect="non-scaling-stroke" d="
  M 498.00 47.29
  Q 494.41 59.58 505.76 62.97
  C 510.96 64.52 518.85 63.38 522.54 58.68
  Q 523.41 57.58 524.42 56.71"
/>
<path stroke="#858585" vector-effect="non-scaling-stroke" d="
  M 524.42 56.71
  L 524.37 62.81
  A 0.30 0.30 0.0 0 0 524.67 63.11
  L 530.17 63.11
  A 0.33 0.32 -0.0 0 0 530.50 62.79
  Q 530.42 55.20 530.50 40.40
  Q 530.53 34.08 529.33 31.63
  C 525.57 23.97 516.45 21.99 508.73 23.96
  Q 499.14 26.42 497.01 36.00
  A 0.25 0.25 0.0 0 0 497.25 36.30
  L 502.49 36.30
  A 0.40 0.39 -82.3 0 0 502.87 36.01
  Q 504.95 29.13 513.00 28.45
  C 519.23 27.93 523.99 31.28 524.34 37.62
  A 1.99 1.98 88.8 0 1 522.34 39.71
  C 515.95 39.64 507.78 38.86 502.11 42.59
  Q 499.76 44.14 498.00 47.29"
/>
<path stroke="#141414" vector-effect="non-scaling-stroke" d="
  M 524.42 56.71
  Q 525.32 57.19 525.60 57.70
  Q 525.63 57.76 525.77 59.24
  Q 525.91 60.68 525.85 61.29
  A 0.54 0.53 -87.1 0 0 526.38 61.88
  L 528.31 61.88
  A 0.71 0.71 0.0 0 0 529.02 61.18
  Q 529.20 42.02 528.79 35.70
  C 528.26 27.38 520.11 24.22 512.76 24.65
  C 505.83 25.06 501.42 27.89 499.01 34.13
  A 0.50 0.50 0.0 0 0 499.39 34.80
  Q 500.57 35.00 501.42 34.72
  A 1.43 1.40 6.5 0 0 502.18 34.13
  C 506.12 27.84 514.19 25.28 520.74 29.29
  C 525.48 32.19 527.90 40.54 519.77 41.22
  Q 517.97 41.37 511.51 41.32
  C 504.84 41.26 502.82 44.16 498.00 47.29"
/>
<path stroke="#8e8e8e" vector-effect="non-scaling-stroke" d="
  M 534.97 43.17
  C 534.76 57.44 546.38 66.47 560.15 62.84
  Q 569.62 60.35 571.97 50.63
  A 0.24 0.23 6.5 0 0 571.73 50.34
  L 566.20 50.34
  A 0.40 0.39 -80.6 0 0 565.83 50.61
  Q 564.12 55.83 559.03 57.27
  C 548.51 60.26 541.21 53.85 541.36 43.27
  C 541.52 32.68 549.01 26.49 559.44 29.79
  Q 564.48 31.38 566.04 36.65
  A 0.40 0.39 82.3 0 0 566.40 36.93
  L 571.93 37.09
  A 0.24 0.23 -4.8 0 0 572.17 36.81
  Q 570.11 27.03 560.72 24.25
  C 547.06 20.22 535.18 28.91 534.97 43.17"
/>
<path stroke="#8e8e8e" vector-effect="non-scaling-stroke" d="
  M 184.03 56.31
  L 184.51 62.57
  A 0.61 0.60 -2.6 0 0 185.12 63.12
  L 190.26 63.12
  A 0.33 0.33 0.0 0 0 190.59 62.79
  L 190.59 24.27
  A 0.39 0.38 -90.0 0 0 190.21 23.88
  L 184.82 23.88
  A 0.38 0.38 0.0 0 0 184.44 24.25
  Q 184.38 26.52 184.48 42.96
  C 184.51 48.83 183.32 53.71 178.50 56.47
  C 172.94 59.66 165.82 57.83 163.59 51.65
  Q 162.76 49.36 162.78 44.55
  Q 162.82 35.51 162.74 24.60
  A 0.61 0.60 -85.6 0 0 162.23 24.00
  Q 160.40 23.70 158.71 24.05"
/>
<path stroke="#858585" vector-effect="non-scaling-stroke" d="
  M 158.71 24.05
  Q 157.98 23.81 157.21 23.89
  A 0.59 0.58 -3.3 0 0 156.69 24.47
  Q 156.62 47.22 156.76 49.50
  C 157.18 56.16 161.20 62.22 167.93 63.27
  Q 172.54 63.99 175.98 63.07
  Q 180.91 61.74 184.03 56.31"
/>
<path stroke="#141414" vector-effect="non-scaling-stroke" d="
  M 158.71 24.05
  C 157.60 29.96 158.14 37.88 158.08 42.12
  Q 157.97 50.76 159.19 53.94
  Q 162.81 63.45 175.28 61.44
  Q 178.64 60.89 184.03 56.31"
/>
<path stroke="#8e8e8e" vector-effect="non-scaling-stroke" d="
  M 15.42 58.27
  C 30.45 73.39 55.62 68.68 64.61 49.73
  Q 68.28 41.97 67.25 33.02
  Q 66.84 29.45 64.02 30.52
  C 57.82 32.85 51.22 32.07 46.53 27.36
  C 41.85 22.64 41.11 16.03 43.49 9.84
  Q 44.57 7.04 41.00 6.60
  Q 32.06 5.51 24.28 9.14
  C 5.26 18.00 0.39 43.14 15.42 58.27"
/>
<path stroke="#8e8e8e" vector-effect="non-scaling-stroke" d="
  M 66.43 16.52
  A 8.83 8.83 0.0 0 0 57.60 7.69
  A 8.83 8.83 0.0 0 0 48.77 16.52
  A 8.83 8.83 0.0 0 0 57.60 25.35
  A 8.83 8.83 0.0 0 0 66.43 16.52"
/>
<path stroke="#141414" vector-effect="non-scaling-stroke" d="
  M 150.00 9.70
  A 0.58 0.58 0.0 0 0 149.42 9.12
  L 147.50 9.12
  A 0.58 0.58 0.0 0 0 146.92 9.70
  L 146.92 61.24
  A 0.58 0.58 0.0 0 0 147.50 61.82
  L 149.42 61.82
  A 0.58 0.58 0.0 0 0 150.00 61.24
  L 150.00 9.70"
/>
<path stroke="#8e8e8e" vector-effect="non-scaling-stroke" d="
  M 108.60 14.74
  L 108.60 30.80
  A 0.40 0.40 0.0 0 0 109.00 31.20
  L 122.81 31.20
  A 8.91 8.02 0.0 0 0 131.72 23.18
  L 131.72 22.36
  A 8.91 8.02 0.0 0 0 122.81 14.34
  L 109.00 14.34
  A 0.40 0.40 0.0 0 0 108.60 14.74"
/>
<path stroke="#8e8e8e" vector-effect="non-scaling-stroke" d="
  M 108.66 37.63
  L 108.56 56.41
  A 0.49 0.49 0.0 0 0 109.05 56.91
  L 123.85 56.98
  A 10.05 9.14 0.3 0 0 133.95 47.90
  L 133.95 46.42
  A 10.05 9.14 0.3 0 0 123.95 37.22
  L 109.15 37.15
  A 0.49 0.49 0.0 0 0 108.66 37.63"
/>
<path stroke="#8e8e8e" vector-effect="non-scaling-stroke" d="
  M 276.37 41.35
  Q 277.18 32.69 274.99 26.76
  Q 271.09 16.18 258.91 14.68"
/>
<path stroke="#141414" vector-effect="non-scaling-stroke" d="
  M 258.91 14.68
  Q 260.22 13.69 258.48 13.47
  Q 256.16 13.17 247.48 13.38
  Q 245.08 13.43 245.01 16.27
  Q 244.86 22.19 244.92 55.27
  C 244.92 57.12 246.38 58.16 248.23 58.03
  Q 250.53 57.88 258.83 58.02
  A 6.98 6.76 38.1 0 0 260.56 57.84
  Q 275.21 54.50 276.37 41.35"
/>
<path stroke="#858585" vector-effect="non-scaling-stroke" d="
  M 258.91 14.68
  L 246.88 14.66
  A 0.53 0.53 0.0 0 0 246.35 15.19
  L 246.35 56.70
  A 0.36 0.36 0.0 0 0 246.71 57.06
  C 252.27 57.04 258.45 57.65 263.65 55.83
  Q 273.15 52.50 276.37 41.35"
/>
<path stroke="#141414" vector-effect="non-scaling-stroke" d="
  M 325.5540 42.9542
  A 16.68 16.68 0.0 0 0 309.9542 25.2597
  L 306.3414 25.0324
  A 16.68 16.68 0.0 0 0 288.6470 40.6322
  L 288.4460 43.8258
  A 16.68 16.68 0.0 0 0 304.0458 61.5203
  L 307.6586 61.7476
  A 16.68 16.68 0.0 0 0 325.3530 46.1478
  L 325.5540 42.9542"
/>
<path stroke="#8e8e8e" vector-effect="non-scaling-stroke" d="
  M 473.7658 28.5504
  A 14.93 13.36 -90.4 0 0 460.5103 43.5733
  A 14.93 13.36 -90.4 0 0 473.9742 58.4096
  A 14.93 13.36 -90.4 0 0 487.2297 43.3867
  A 14.93 13.36 -90.4 0 0 473.7658 28.5504"
/>
<path stroke="#8e8e8e" vector-effect="non-scaling-stroke" d="
  M 303.71 57.85
  L 311.78 57.88"
/>
<path stroke="#141414" vector-effect="non-scaling-stroke" d="
  M 311.78 57.88
  Q 326.53 51.08 319.97 36.26
  Q 318.20 32.27 315.68 30.41
  Q 312.66 28.18 308.72 27.99
  Q 297.37 27.45 293.38 37.09
  C 291.06 42.69 292.02 48.52 295.52 53.49
  Q 298.71 58.03 303.71 57.85"
/>
<path stroke="#858585" vector-effect="non-scaling-stroke" d="
  M 311.78 57.88
  Q 316.51 55.40 318.67 51.89
  C 321.41 47.42 321.54 40.46 318.97 35.73
  Q 315.12 28.63 306.53 28.78
  C 290.14 29.04 288.48 53.93 303.71 57.85"
/>
<path stroke="#141414" vector-effect="non-scaling-stroke" d="
  M 525.52 46.11
  A 3.05 3.04 -86.7 0 0 522.64 42.88
  C 515.71 42.54 501.36 42.29 502.52 52.78
  Q 502.80 55.38 505.27 57.66
  Q 507.02 59.29 510.43 59.47
  C 519.74 59.97 524.95 55.40 525.52 46.11"
/>
<path stroke="#8e8e8e" vector-effect="non-scaling-stroke" d="
  M 202.97 39.43
  L 226.81 39.39
  A 0.13 0.13 0.0 0 0 226.94 39.26
  L 226.94 39.20
  A 11.97 10.81 -0.1 0 0 214.95 28.41
  L 214.79 28.41
  A 11.97 10.81 -0.1 0 0 202.84 39.24
  L 202.84 39.30
  A 0.13 0.13 0.0 0 0 202.97 39.43"
/>
<path stroke="#858585" vector-effect="non-scaling-stroke" d="
  M 523.67 44.32
  Q 516.11 44.24 511.26 44.44
  Q 508.70 44.54 506.40 46.17
  C 500.96 50.03 503.51 58.11 510.02 58.40
  Q 524.20 59.04 524.37 45.03
  A 0.70 0.70 0.0 0 0 523.67 44.32"
/>
</g>
<path fill="#ffffff" d="
  M 34.67 0.00
  Q 32.49 0.58 30.28 0.94
  Q 19.73 2.70 11.89 9.89
  Q 2.83 18.20 0.63 30.73
  L 0.00 34.56
  L 0.00 0.00
  L 34.67 0.00
  Z"
/>
<path fill="#0b0b0b" d="
  M 39.63 0.00
  Q 44.62 1.17 49.64 1.53
  Q 49.81 1.54 55.82 1.29
  Q 59.53 1.14 63.26 2.46
  Q 56.86 2.91 51.01 2.82
  C 45.10 2.73 38.78 0.41 31.81 1.66
  C 17.25 4.28 6.46 13.49 2.37 27.98
  Q 1.86 29.79 0.63 30.73
  Q 2.83 18.20 11.89 9.89
  Q 19.73 2.70 30.28 0.94
  Q 32.49 0.58 34.67 0.00
  L 39.63 0.00
  Z"
/>
<path fill="#ffffff" d="
  M 600.00 0.00
  L 600.00 79.00
  L 461.25 79.00
  L 461.21 57.48
  A 0.25 0.25 0.0 0 1 461.65 57.33
  C 466.33 63.28 473.74 64.91 480.71 62.76
  C 488.63 60.32 493.05 53.29 493.39 44.97
  C 493.91 32.29 487.26 23.40 474.23 23.30
  Q 466.86 23.25 461.60 29.57
  A 0.19 0.19 0.0 0 1 461.26 29.45
  L 461.26 24.15
  A 0.26 0.26 0.0 0 0 461.00 23.89
  L 455.43 23.89
  A 0.29 0.29 0.0 0 0 455.14 24.18
  L 455.19 79.00
  L 0.00 79.00
  L 0.00 38.99
  C 2.26 65.54 29.42 81.74 53.74 69.66
  C 65.87 63.62 74.21 50.94 74.14 37.51
  Q 74.12 32.53 72.71 25.52
  C 72.00 21.95 73.43 17.95 72.75 14.20
  Q 71.21 5.58 63.26 2.46
  Q 59.53 1.14 55.82 1.29
  Q 49.81 1.54 49.64 1.53
  Q 44.62 1.17 39.63 0.00
  L 600.00 0.00
  Z
  M 151.64 8.11
  A 0.35 0.35 0.0 0 0 151.29 7.76
  L 145.87 7.76
  A 0.35 0.35 0.0 0 0 145.52 8.11
  L 145.52 62.73
  A 0.35 0.35 0.0 0 0 145.87 63.08
  L 151.29 63.08
  A 0.35 0.35 0.0 0 0 151.64 62.73
  L 151.64 8.11
  Z
  M 375.80 10.57
  L 375.79 61.70
  Q 375.64 63.90 381.88 63.10
  A 0.60 0.59 -3.9 0 0 382.40 62.51
  L 382.40 9.07
  A 0.42 0.41 90.0 0 0 381.99 8.65
  L 376.28 8.65
  A 0.44 0.43 -88.6 0 0 375.85 9.07
  L 375.80 10.57
  Z
  M 101.90 9.26
  L 101.90 62.65
  A 0.45 0.45 0.0 0 0 102.33 63.10
  Q 110.80 63.32 124.74 63.04
  C 132.78 62.87 140.24 57.58 140.58 48.91
  C 140.85 41.78 138.80 36.25 131.59 33.61
  A 0.43 0.43 0.0 0 1 131.56 32.82
  C 136.28 30.71 138.69 26.10 138.17 20.93
  C 137.30 12.50 130.15 8.70 122.29 8.68
  Q 103.55 8.63 102.46 8.68
  A 0.58 0.58 0.0 0 0 101.90 9.26
  Z
  M 282.55 29.23
  Q 278.87 12.36 262.11 9.46
  Q 259.36 8.70 255.75 8.70
  Q 241.82 8.68 240.27 8.67
  A 0.38 0.38 0.0 0 0 239.89 9.05
  L 239.89 62.59
  A 0.49 0.49 0.0 0 0 240.37 63.08
  Q 246.52 63.16 256.49 63.07
  C 275.20 62.91 286.47 47.13 282.55 29.23
  Z
  M 354.94 28.91
  L 354.94 24.48
  A 0.59 0.59 0.0 0 0 354.35 23.89
  L 343.23 23.89
  A 0.53 0.53 0.0 0 1 342.70 23.36
  L 342.70 11.67
  A 0.28 0.27 0.0 0 0 342.42 11.40
  L 336.87 11.40
  A 0.29 0.29 0.0 0 0 336.58 11.69
  L 336.58 23.41
  A 0.48 0.48 0.0 0 1 336.10 23.89
  L 328.83 23.89
  A 0.42 0.42 0.0 0 0 328.41 24.31
  L 328.41 28.96
  A 0.38 0.37 -0.0 0 0 328.79 29.33
  L 336.18 29.33
  A 0.38 0.38 0.0 0 1 336.56 29.70
  Q 336.66 32.39 336.55 47.04
  C 336.49 54.86 337.49 60.70 345.41 62.59
  Q 348.91 63.43 354.63 62.99
  A 0.29 0.29 0.0 0 0 354.90 62.70
  L 354.90 57.80
  A 0.26 0.25 88.9 0 0 354.64 57.54
  C 346.89 57.67 342.68 57.76 342.70 48.52
  Q 342.72 31.06 342.68 29.98
  A 0.64 0.64 0.0 0 1 343.32 29.31
  L 354.53 29.31
  A 0.41 0.40 -0.0 0 0 354.94 28.91
  Z
  M 581.22 51.58
  Q 581.78 61.09 590.99 62.81
  Q 592.76 63.14 598.29 63.14
  A 1.15 1.15 0.0 0 0 599.44 61.99
  L 599.44 58.50
  A 1.02 1.02 0.0 0 0 598.29 57.49
  Q 597.53 57.59 595.01 57.60
  C 587.88 57.63 587.17 53.58 587.21 47.18
  Q 587.34 30.66 587.23 29.91
  A 0.54 0.53 -3.6 0 1 587.77 29.30
  L 598.93 29.34
  A 0.48 0.48 0.0 0 0 599.41 28.86
  L 599.41 24.56
  A 0.68 0.67 -86.1 0 0 598.83 23.89
  Q 598.36 23.83 597.69 23.97
  L 587.84 23.87
  A 0.58 0.57 0.5 0 1 587.27 23.30
  L 587.27 11.67
  A 0.26 0.25 90.0 0 0 587.02 11.41
  L 581.40 11.41
  A 0.32 0.31 90.0 0 0 581.09 11.73
  L 581.09 23.44
  A 0.45 0.44 -0.0 0 1 580.64 23.88
  L 573.12 23.88
  A 0.31 0.30 -90.0 0 0 572.82 24.19
  L 572.82 29.06
  A 0.26 0.25 -90.0 0 0 573.07 29.32
  L 580.40 29.32
  A 0.78 0.78 0.0 0 1 581.18 30.09
  L 581.22 51.58
  Z
  M 218.79 58.40
  L 212.19 57.86
  Q 203.59 54.89 202.21 44.94
  A 0.65 0.64 -3.9 0 1 202.85 44.21
  L 232.59 44.21
  A 0.59 0.59 0.0 0 0 233.18 43.65
  C 233.87 33.46 228.23 24.12 217.35 23.36
  Q 204.88 22.49 199.15 31.63
  C 195.25 37.83 195.11 47.19 198.55 53.43
  Q 204.25 63.78 216.25 63.57
  C 224.53 63.42 231.84 59.34 233.58 50.86
  A 0.18 0.18 0.0 0 0 233.40 50.64
  L 227.74 50.64
  A 0.46 0.45 7.4 0 0 227.30 50.97
  Q 225.88 55.98 218.79 58.40
  Z
  M 327.40 43.47
  A 20.34 20.34 0.0 0 0 307.06 23.13
  A 20.34 20.34 0.0 0 0 286.72 43.47
  A 20.34 20.34 0.0 0 0 307.06 63.81
  A 20.34 20.34 0.0 0 0 327.40 43.47
  Z
  M 395.65 30.58
  Q 395.08 27.26 395.57 24.15
  A 0.26 0.26 0.0 0 0 395.31 23.85
  L 389.63 23.85
  A 0.26 0.25 90.0 0 0 389.38 24.11
  L 389.41 60.66
  Q 388.07 64.00 394.85 63.09
  A 0.61 0.60 -3.8 0 0 395.38 62.49
  Q 395.45 52.26 395.38 42.00
  C 395.34 37.26 396.00 32.89 400.00 30.27
  C 407.34 26.00 414.80 30.21 414.86 38.68
  Q 414.94 50.05 414.91 62.46
  Q 417.15 63.44 420.67 63.16
  A 0.55 0.54 87.8 0 0 421.17 62.61
  Q 421.21 50.93 421.21 39.25
  Q 421.21 31.39 429.27 28.59
  Q 436.23 28.01 439.03 32.72
  Q 441.02 36.08 440.89 43.62
  Q 440.73 52.81 440.85 62.64
  A 0.48 0.48 0.0 0 0 441.33 63.11
  L 446.48 63.11
  A 0.56 0.56 0.0 0 0 447.04 62.55
  Q 447.12 42.97 446.99 38.25
  Q 446.92 35.31 445.97 32.03
  Q 444.09 25.53 437.22 23.94
  Q 426.35 21.41 420.45 30.91
  Q 417.61 25.09 412.12 23.88
  Q 400.75 21.38 395.65 30.58
  Z
  M 498.00 47.29
  Q 494.41 59.58 505.76 62.97
  C 510.96 64.52 518.85 63.38 522.54 58.68
  Q 523.41 57.58 524.42 56.71
  L 524.37 62.81
  A 0.30 0.30 0.0 0 0 524.67 63.11
  L 530.17 63.11
  A 0.33 0.32 -0.0 0 0 530.50 62.79
  Q 530.42 55.20 530.50 40.40
  Q 530.53 34.08 529.33 31.63
  C 525.57 23.97 516.45 21.99 508.73 23.96
  Q 499.14 26.42 497.01 36.00
  A 0.25 0.25 0.0 0 0 497.25 36.30
  L 502.49 36.30
  A 0.40 0.39 -82.3 0 0 502.87 36.01
  Q 504.95 29.13 513.00 28.45
  C 519.23 27.93 523.99 31.28 524.34 37.62
  A 1.99 1.98 88.8 0 1 522.34 39.71
  C 515.95 39.64 507.78 38.86 502.11 42.59
  Q 499.76 44.14 498.00 47.29
  Z
  M 534.97 43.17
  C 534.76 57.44 546.38 66.47 560.15 62.84
  Q 569.62 60.35 571.97 50.63
  A 0.24 0.23 6.5 0 0 571.73 50.34
  L 566.20 50.34
  A 0.40 0.39 -80.6 0 0 565.83 50.61
  Q 564.12 55.83 559.03 57.27
  C 548.51 60.26 541.21 53.85 541.36 43.27
  C 541.52 32.68 549.01 26.49 559.44 29.79
  Q 564.48 31.38 566.04 36.65
  A 0.40 0.39 82.3 0 0 566.40 36.93
  L 571.93 37.09
  A 0.24 0.23 -4.8 0 0 572.17 36.81
  Q 570.11 27.03 560.72 24.25
  C 547.06 20.22 535.18 28.91 534.97 43.17
  Z
  M 184.03 56.31
  L 184.51 62.57
  A 0.61 0.60 -2.6 0 0 185.12 63.12
  L 190.26 63.12
  A 0.33 0.33 0.0 0 0 190.59 62.79
  L 190.59 24.27
  A 0.39 0.38 -90.0 0 0 190.21 23.88
  L 184.82 23.88
  A 0.38 0.38 0.0 0 0 184.44 24.25
  Q 184.38 26.52 184.48 42.96
  C 184.51 48.83 183.32 53.71 178.50 56.47
  C 172.94 59.66 165.82 57.83 163.59 51.65
  Q 162.76 49.36 162.78 44.55
  Q 162.82 35.51 162.74 24.60
  A 0.61 0.60 -85.6 0 0 162.23 24.00
  Q 160.40 23.70 158.71 24.05
  Q 157.98 23.81 157.21 23.89
  A 0.59 0.58 -3.3 0 0 156.69 24.47
  Q 156.62 47.22 156.76 49.50
  C 157.18 56.16 161.20 62.22 167.93 63.27
  Q 172.54 63.99 175.98 63.07
  Q 180.91 61.74 184.03 56.31
  Z"
/>
<path fill="#1d1d1d" d="
  M 63.26 2.46
  Q 71.21 5.58 72.75 14.20
  C 73.43 17.95 72.00 21.95 72.71 25.52
  Q 74.12 32.53 74.14 37.51
  C 74.21 50.94 65.87 63.62 53.74 69.66
  C 29.42 81.74 2.26 65.54 0.00 38.99
  L 0.00 34.56
  L 0.63 30.73
  Q 1.86 29.79 2.37 27.98
  C 6.46 13.49 17.25 4.28 31.81 1.66
  C 38.78 0.41 45.10 2.73 51.01 2.82
  Q 56.86 2.91 63.26 2.46
  Z
  M 15.42 58.27
  C 30.45 73.39 55.62 68.68 64.61 49.73
  Q 68.28 41.97 67.25 33.02
  Q 66.84 29.45 64.02 30.52
  C 57.82 32.85 51.22 32.07 46.53 27.36
  C 41.85 22.64 41.11 16.03 43.49 9.84
  Q 44.57 7.04 41.00 6.60
  Q 32.06 5.51 24.28 9.14
  C 5.26 18.00 0.39 43.14 15.42 58.27
  Z
  M 66.43 16.52
  A 8.83 8.83 0.0 0 0 57.60 7.69
  A 8.83 8.83 0.0 0 0 48.77 16.52
  A 8.83 8.83 0.0 0 0 57.60 25.35
  A 8.83 8.83 0.0 0 0 66.43 16.52
  Z"
/>
<path fill="#ffffff" d="
  M 46.53 27.36
  C 51.22 32.07 57.82 32.85 64.02 30.52
  Q 66.84 29.45 67.25 33.02
  Q 68.28 41.97 64.61 49.73
  C 55.62 68.68 30.45 73.39 15.42 58.27
  C 0.39 43.14 5.26 18.00 24.28 9.14
  Q 32.06 5.51 41.00 6.60
  Q 44.57 7.04 43.49 9.84
  C 41.11 16.03 41.85 22.64 46.53 27.36
  Z"
/>
<circle fill="#ffffff" cx="57.60" cy="16.52" r="8.83"/>
<path fill="#0b0b0b" d="
  M 151.64 62.73
  A 0.35 0.35 0.0 0 1 151.29 63.08
  L 145.87 63.08
  A 0.35 0.35 0.0 0 1 145.52 62.73
  L 145.52 8.11
  A 0.35 0.35 0.0 0 1 145.87 7.76
  L 151.29 7.76
  A 0.35 0.35 0.0 0 1 151.64 8.11
  L 151.64 62.73
  Z
  M 150.00 9.70
  A 0.58 0.58 0.0 0 0 149.42 9.12
  L 147.50 9.12
  A 0.58 0.58 0.0 0 0 146.92 9.70
  L 146.92 61.24
  A 0.58 0.58 0.0 0 0 147.50 61.82
  L 149.42 61.82
  A 0.58 0.58 0.0 0 0 150.00 61.24
  L 150.00 9.70
  Z"
/>
<path fill="#0b0b0b" d="
  M 375.79 61.70
  L 380.62 61.68
  A 0.44 0.44 0.0 0 0 381.06 61.24
  L 381.06 10.65
  A 0.43 0.43 0.0 0 0 380.72 10.23
  Q 378.23 9.67 375.80 10.57
  L 375.85 9.07
  A 0.44 0.43 -88.6 0 1 376.28 8.65
  L 381.99 8.65
  A 0.42 0.41 90.0 0 1 382.40 9.07
  L 382.40 62.51
  A 0.60 0.59 -3.9 0 1 381.88 63.10
  Q 375.64 63.90 375.79 61.70
  Z"
/>
<path fill="#1d1d1d" d="
  M 102.46 8.68
  Q 103.55 8.63 122.29 8.68
  C 130.15 8.70 137.30 12.50 138.17 20.93
  C 138.69 26.10 136.28 30.71 131.56 32.82
  A 0.43 0.43 0.0 0 0 131.59 33.61
  C 138.80 36.25 140.85 41.78 140.58 48.91
  C 140.24 57.58 132.78 62.87 124.74 63.04
  Q 110.80 63.32 102.33 63.10
  A 0.45 0.45 0.0 0 1 101.90 62.65
  L 101.90 9.26
  A 0.58 0.58 0.0 0 1 102.46 8.68
  Z
  M 108.60 14.74
  L 108.60 30.80
  A 0.40 0.40 0.0 0 0 109.00 31.20
  L 122.81 31.20
  A 8.91 8.02 0.0 0 0 131.72 23.18
  L 131.72 22.36
  A 8.91 8.02 0.0 0 0 122.81 14.34
  L 109.00 14.34
  A 0.40 0.40 0.0 0 0 108.60 14.74
  Z
  M 108.66 37.63
  L 108.56 56.41
  A 0.49 0.49 0.0 0 0 109.05 56.91
  L 123.85 56.98
  A 10.05 9.14 0.3 0 0 133.95 47.90
  L 133.95 46.42
  A 10.05 9.14 0.3 0 0 123.95 37.22
  L 109.15 37.15
  A 0.49 0.49 0.0 0 0 108.66 37.63
  Z"
/>
<path fill="#0b0b0b" d="
  M 262.11 9.46
  L 241.62 10.14
  A 0.56 0.56 0.0 0 0 241.08 10.70
  L 241.08 60.96
  A 0.90 0.90 0.0 0 0 241.99 61.86
  Q 246.96 61.83 253.62 61.92
  C 267.35 62.11 278.29 56.52 281.51 42.19
  Q 281.91 40.45 281.95 35.72
  Q 281.98 32.49 282.55 29.23
  C 286.47 47.13 275.20 62.91 256.49 63.07
  Q 246.52 63.16 240.37 63.08
  A 0.49 0.49 0.0 0 1 239.89 62.59
  L 239.89 9.05
  A 0.38 0.38 0.0 0 1 240.27 8.67
  Q 241.82 8.68 255.75 8.70
  Q 259.36 8.70 262.11 9.46
  Z"
/>
<rect fill="#1d1d1d" x="146.92" y="9.12" width="3.08" height="52.70" rx="0.58"/>
<path fill="#1d1d1d" d="
  M 282.55 29.23
  Q 281.98 32.49 281.95 35.72
  Q 281.91 40.45 281.51 42.19
  C 278.29 56.52 267.35 62.11 253.62 61.92
  Q 246.96 61.83 241.99 61.86
  A 0.90 0.90 0.0 0 1 241.08 60.96
  L 241.08 10.70
  A 0.56 0.56 0.0 0 1 241.62 10.14
  L 262.11 9.46
  Q 278.87 12.36 282.55 29.23
  Z
  M 276.37 41.35
  Q 277.18 32.69 274.99 26.76
  Q 271.09 16.18 258.91 14.68
  Q 260.22 13.69 258.48 13.47
  Q 256.16 13.17 247.48 13.38
  Q 245.08 13.43 245.01 16.27
  Q 244.86 22.19 244.92 55.27
  C 244.92 57.12 246.38 58.16 248.23 58.03
  Q 250.53 57.88 258.83 58.02
  A 6.98 6.76 38.1 0 0 260.56 57.84
  Q 275.21 54.50 276.37 41.35
  Z"
/>
<path fill="#1d1d1d" d="
  M 375.79 61.70
  L 375.80 10.57
  Q 378.23 9.67 380.72 10.23
  A 0.43 0.43 0.0 0 1 381.06 10.65
  L 381.06 61.24
  A 0.44 0.44 0.0 0 1 380.62 61.68
  L 375.79 61.70
  Z"
/>
<path fill="#1d1d1d" d="
  M 354.94 28.91
  A 0.41 0.40 -0.0 0 1 354.53 29.31
  L 343.32 29.31
  A 0.64 0.64 0.0 0 0 342.68 29.98
  Q 342.72 31.06 342.70 48.52
  C 342.68 57.76 346.89 57.67 354.64 57.54
  A 0.26 0.25 88.9 0 1 354.90 57.80
  L 354.90 62.70
  A 0.29 0.29 0.0 0 1 354.63 62.99
  Q 348.91 63.43 345.41 62.59
  C 337.49 60.70 336.49 54.86 336.55 47.04
  Q 336.66 32.39 336.56 29.70
  A 0.38 0.38 0.0 0 0 336.18 29.33
  L 328.79 29.33
  A 0.38 0.37 -0.0 0 1 328.41 28.96
  L 328.41 24.31
  A 0.42 0.42 0.0 0 1 328.83 23.89
  L 336.10 23.89
  A 0.48 0.48 0.0 0 0 336.58 23.41
  L 336.58 11.69
  A 0.29 0.29 0.0 0 1 336.87 11.40
  L 342.42 11.40
  A 0.28 0.27 -0.0 0 1 342.70 11.67
  L 342.70 23.36
  A 0.53 0.53 0.0 0 0 343.23 23.89
  L 354.35 23.89
  A 0.59 0.59 0.0 0 1 354.94 24.48
  L 354.94 28.91
  Z"
/>
<path fill="#1d1d1d" d="
  M 597.69 23.97
  L 598.33 26.78
  A 0.98 0.97 -6.3 0 1 597.37 27.97
  L 587.68 27.97
  A 1.16 1.15 9.0 0 0 586.58 28.76
  Q 585.90 30.81 585.88 34.49
  Q 585.80 48.60 586.01 50.29
  C 586.90 57.65 591.30 58.41 597.53 58.85
  A 0.77 0.77 0.0 0 1 598.25 59.62
  L 598.25 61.01
  A 0.84 0.83 88.2 0 1 597.47 61.85
  C 590.91 62.31 584.54 61.10 582.86 53.81
  Q 582.28 51.30 581.22 51.58
  L 581.18 30.09
  A 0.78 0.78 0.0 0 0 580.40 29.32
  L 573.07 29.32
  A 0.26 0.25 -90.0 0 1 572.82 29.06
  L 572.82 24.19
  A 0.31 0.30 -90.0 0 1 573.12 23.88
  L 580.64 23.88
  A 0.45 0.44 0.0 0 0 581.09 23.44
  L 581.09 11.73
  A 0.32 0.31 -90.0 0 1 581.40 11.41
  L 587.02 11.41
  A 0.26 0.25 90.0 0 1 587.27 11.67
  L 587.27 23.30
  A 0.58 0.57 0.5 0 0 587.84 23.87
  L 597.69 23.97
  Z"
/>
<path fill="#0b0b0b" d="
  M 258.91 14.68
  L 246.88 14.66
  A 0.53 0.53 0.0 0 0 246.35 15.19
  L 246.35 56.70
  A 0.36 0.36 0.0 0 0 246.71 57.06
  C 252.27 57.04 258.45 57.65 263.65 55.83
  Q 273.15 52.50 276.37 41.35
  Q 275.21 54.50 260.56 57.84
  A 6.98 6.76 38.1 0 1 258.83 58.02
  Q 250.53 57.88 248.23 58.03
  C 246.38 58.16 244.92 57.12 244.92 55.27
  Q 244.86 22.19 245.01 16.27
  Q 245.08 13.43 247.48 13.38
  Q 256.16 13.17 258.48 13.47
  Q 260.22 13.69 258.91 14.68
  Z"
/>
<path fill="#ffffff" d="
  M 108.60 14.74
  A 0.40 0.40 0.0 0 1 109.00 14.34
  L 122.81 14.34
  A 8.91 8.02 -0.0 0 1 131.72 22.36
  L 131.72 23.18
  A 8.91 8.02 -0.0 0 1 122.81 31.20
  L 109.00 31.20
  A 0.40 0.40 0.0 0 1 108.60 30.80
  L 108.60 14.74
  Z"
/>
<path fill="#ffffff" d="
  M 258.91 14.68
  Q 271.09 16.18 274.99 26.76
  Q 277.18 32.69 276.37 41.35
  Q 273.15 52.50 263.65 55.83
  C 258.45 57.65 252.27 57.04 246.71 57.06
  A 0.36 0.36 0.0 0 1 246.35 56.70
  L 246.35 15.19
  A 0.53 0.53 0.0 0 1 246.88 14.66
  L 258.91 14.68
  Z"
/>
<path fill="#0b0b0b" d="
  M 212.19 57.86
  C 205.53 57.59 202.11 50.81 201.09 44.94
  A 1.15 1.15 0.0 0 1 202.01 43.61
  Q 205.30 42.97 209.06 42.91
  Q 219.64 42.74 231.29 43.00
  A 0.52 0.52 0.0 0 0 231.82 42.48
  C 231.85 34.75 228.53 27.44 220.34 25.58
  C 192.60 19.25 190.02 59.23 212.86 61.56
  Q 218.21 62.11 220.50 61.78
  Q 228.34 60.64 231.63 53.34
  A 0.90 0.90 0.0 0 0 230.96 52.08
  Q 229.77 51.88 228.60 52.28
  A 1.23 1.21 -84.4 0 0 227.93 52.84
  Q 224.59 58.69 218.79 58.40
  Q 225.88 55.98 227.30 50.97
  A 0.46 0.45 7.4 0 1 227.74 50.64
  L 233.40 50.64
  A 0.18 0.18 0.0 0 1 233.58 50.86
  C 231.84 59.34 224.53 63.42 216.25 63.57
  Q 204.25 63.78 198.55 53.43
  C 195.11 47.19 195.25 37.83 199.15 31.63
  Q 204.88 22.49 217.35 23.36
  C 228.23 24.12 233.87 33.46 233.18 43.65
  A 0.59 0.59 0.0 0 1 232.59 44.21
  L 202.85 44.21
  A 0.65 0.64 -3.9 0 0 202.21 44.94
  Q 203.59 54.89 212.19 57.86
  Z"
/>
<path fill="#0b0b0b" d="
  M 327.40 43.47
  A 20.34 20.34 0.0 0 1 307.06 63.81
  A 20.34 20.34 0.0 0 1 286.72 43.47
  A 20.34 20.34 0.0 0 1 307.06 23.13
  A 20.34 20.34 0.0 0 1 327.40 43.47
  Z
  M 325.5540 42.9542
  A 16.68 16.68 0.0 0 0 309.9542 25.2597
  L 306.3414 25.0324
  A 16.68 16.68 0.0 0 0 288.6470 40.6322
  L 288.4460 43.8258
  A 16.68 16.68 0.0 0 0 304.0458 61.5203
  L 307.6586 61.7476
  A 16.68 16.68 0.0 0 0 325.3530 46.1478
  L 325.5540 42.9542
  Z"
/>
<path fill="#0b0b0b" d="
  M 420.45 30.91
  Q 418.64 29.54 417.45 28.31
  Q 415.49 26.29 414.46 25.86
  C 409.03 23.58 402.13 23.76 398.25 28.80
  A 0.39 0.39 0.0 0 0 398.75 29.38
  Q 399.84 28.76 400.92 28.61
  A 0.33 0.33 0.0 0 1 401.18 29.18
  L 400.00 30.27
  C 396.00 32.89 395.34 37.26 395.38 42.00
  Q 395.45 52.26 395.38 62.49
  A 0.61 0.60 -3.8 0 1 394.85 63.09
  Q 388.07 64.00 389.41 60.66
  Q 392.19 62.42 393.62 61.73
  A 0.80 0.78 -13.3 0 0 394.08 61.00
  L 393.93 41.78
  A 2.04 1.90 -43.0 0 1 393.95 41.50
  L 395.65 30.58
  Q 400.75 21.38 412.12 23.88
  Q 417.61 25.09 420.45 30.91
  Z"
/>
<path fill="#1d1d1d" d="
  M 429.27 28.59
  Q 425.37 27.52 422.53 31.97
  Q 420.00 35.94 419.95 39.00
  Q 419.74 50.12 420.00 61.12
  A 0.82 0.82 0.0 0 1 418.96 61.93
  Q 416.40 61.22 414.91 62.46
  Q 414.94 50.05 414.86 38.68
  C 414.80 30.21 407.34 26.00 400.00 30.27
  L 401.18 29.18
  A 0.33 0.33 0.0 0 0 400.92 28.61
  Q 399.84 28.76 398.75 29.38
  A 0.39 0.39 0.0 0 1 398.25 28.80
  C 402.13 23.76 409.03 23.58 414.46 25.86
  Q 415.49 26.29 417.45 28.31
  Q 418.64 29.54 420.45 30.91
  Q 426.35 21.41 437.22 23.94
  Q 444.09 25.53 445.97 32.03
  Q 446.92 35.31 446.99 38.25
  Q 447.12 42.97 447.04 62.55
  A 0.56 0.56 0.0 0 1 446.48 63.11
  L 441.33 63.11
  A 0.48 0.48 0.0 0 1 440.85 62.64
  Q 440.73 52.81 440.89 43.62
  Q 441.02 36.08 439.03 32.72
  Q 436.23 28.01 429.27 28.59
  Z"
/>
<path fill="#1d1d1d" d="
  M 461.25 79.00
  L 455.19 79.00
  L 455.14 24.18
  A 0.29 0.29 0.0 0 1 455.43 23.89
  L 461.00 23.89
  A 0.26 0.26 0.0 0 1 461.26 24.15
  L 461.26 29.45
  A 0.19 0.19 0.0 0 0 461.60 29.57
  Q 466.86 23.25 474.23 23.30
  C 487.26 23.40 493.91 32.29 493.39 44.97
  C 493.05 53.29 488.63 60.32 480.71 62.76
  C 473.74 64.91 466.33 63.28 461.65 57.33
  A 0.25 0.25 0.0 0 0 461.21 57.48
  L 461.25 79.00
  Z
  M 473.7658 28.5504
  A 14.93 13.36 -90.4 0 0 460.5103 43.5733
  A 14.93 13.36 -90.4 0 0 473.9742 58.4096
  A 14.93 13.36 -90.4 0 0 487.2297 43.3867
  A 14.93 13.36 -90.4 0 0 473.7658 28.5504
  Z"
/>
<path fill="#0b0b0b" d="
  M 524.42 56.71
  Q 525.32 57.19 525.60 57.70
  Q 525.63 57.76 525.77 59.24
  Q 525.91 60.68 525.85 61.29
  A 0.54 0.53 -87.1 0 0 526.38 61.88
  L 528.31 61.88
  A 0.71 0.71 0.0 0 0 529.02 61.18
  Q 529.20 42.02 528.79 35.70
  C 528.26 27.38 520.11 24.22 512.76 24.65
  C 505.83 25.06 501.42 27.89 499.01 34.13
  A 0.50 0.50 0.0 0 0 499.39 34.80
  Q 500.57 35.00 501.42 34.72
  A 1.43 1.40 6.5 0 0 502.18 34.13
  C 506.12 27.84 514.19 25.28 520.74 29.29
  C 525.48 32.19 527.90 40.54 519.77 41.22
  Q 517.97 41.37 511.51 41.32
  C 504.84 41.26 502.82 44.16 498.00 47.29
  Q 499.76 44.14 502.11 42.59
  C 507.78 38.86 515.95 39.64 522.34 39.71
  A 1.99 1.98 88.8 0 0 524.34 37.62
  C 523.99 31.28 519.23 27.93 513.00 28.45
  Q 504.95 29.13 502.87 36.01
  A 0.40 0.39 -82.3 0 1 502.49 36.30
  L 497.25 36.30
  A 0.25 0.25 0.0 0 1 497.01 36.00
  Q 499.14 26.42 508.73 23.96
  C 516.45 21.99 525.57 23.97 529.33 31.63
  Q 530.53 34.08 530.50 40.40
  Q 530.42 55.20 530.50 62.79
  A 0.33 0.32 -0.0 0 1 530.17 63.11
  L 524.67 63.11
  A 0.30 0.30 0.0 0 1 524.37 62.81
  L 524.42 56.71
  Z"
/>
<path fill="#1d1d1d" d="
  M 541.36 43.27
  C 541.21 53.85 548.51 60.26 559.03 57.27
  Q 564.12 55.83 565.83 50.61
  A 0.40 0.39 -80.6 0 1 566.20 50.34
  L 571.73 50.34
  A 0.24 0.23 6.5 0 1 571.97 50.63
  Q 569.62 60.35 560.15 62.84
  C 546.38 66.47 534.76 57.44 534.97 43.17
  C 535.18 28.91 547.06 20.22 560.72 24.25
  Q 570.11 27.03 572.17 36.81
  A 0.24 0.23 -4.8 0 1 571.93 37.09
  L 566.40 36.93
  A 0.40 0.39 82.3 0 1 566.04 36.65
  Q 564.48 31.38 559.44 29.79
  C 549.01 26.49 541.52 32.68 541.36 43.27
  Z"
/>
<path fill="#0b0b0b" d="
  M 158.71 24.05
  C 157.60 29.96 158.14 37.88 158.08 42.12
  Q 157.97 50.76 159.19 53.94
  Q 162.81 63.45 175.28 61.44
  Q 178.64 60.89 184.03 56.31
  Q 180.91 61.74 175.98 63.07
  Q 172.54 63.99 167.93 63.27
  C 161.20 62.22 157.18 56.16 156.76 49.50
  Q 156.62 47.22 156.69 24.47
  A 0.59 0.58 -3.3 0 1 157.21 23.89
  Q 157.98 23.81 158.71 24.05
  Z"
/>
<path fill="#1d1d1d" d="
  M 184.03 56.31
  Q 178.64 60.89 175.28 61.44
  Q 162.81 63.45 159.19 53.94
  Q 157.97 50.76 158.08 42.12
  C 158.14 37.88 157.60 29.96 158.71 24.05
  Q 160.40 23.70 162.23 24.00
  A 0.61 0.60 -85.6 0 1 162.74 24.60
  Q 162.82 35.51 162.78 44.55
  Q 162.76 49.36 163.59 51.65
  C 165.82 57.83 172.94 59.66 178.50 56.47
  C 183.32 53.71 184.51 48.83 184.48 42.96
  Q 184.38 26.52 184.44 24.25
  A 0.38 0.38 0.0 0 1 184.82 23.88
  L 190.21 23.88
  A 0.39 0.38 90.0 0 1 190.59 24.27
  L 190.59 62.79
  A 0.33 0.33 0.0 0 1 190.26 63.12
  L 185.12 63.12
  A 0.61 0.60 -2.6 0 1 184.51 62.57
  L 184.03 56.31
  Z"
/>
<path fill="#1d1d1d" d="
  M 395.65 30.58
  L 393.95 41.50
  A 2.04 1.90 -43.0 0 0 393.93 41.78
  L 394.08 61.00
  A 0.80 0.78 -13.3 0 1 393.62 61.73
  Q 392.19 62.42 389.41 60.66
  L 389.38 24.11
  A 0.26 0.25 -90.0 0 1 389.63 23.85
  L 395.31 23.85
  A 0.26 0.26 0.0 0 1 395.57 24.15
  Q 395.08 27.26 395.65 30.58
  Z"
/>
<path fill="#0b0b0b" d="
  M 581.22 51.58
  Q 582.28 51.30 582.86 53.81
  C 584.54 61.10 590.91 62.31 597.47 61.85
  A 0.84 0.83 88.2 0 0 598.25 61.01
  L 598.25 59.62
  A 0.77 0.77 0.0 0 0 597.53 58.85
  C 591.30 58.41 586.90 57.65 586.01 50.29
  Q 585.80 48.60 585.88 34.49
  Q 585.90 30.81 586.58 28.76
  A 1.16 1.15 9.0 0 1 587.68 27.97
  L 597.37 27.97
  A 0.98 0.97 -6.3 0 0 598.33 26.78
  L 597.69 23.97
  Q 598.36 23.83 598.83 23.89
  A 0.68 0.67 -86.1 0 1 599.41 24.56
  L 599.41 28.86
  A 0.48 0.48 0.0 0 1 598.93 29.34
  L 587.77 29.30
  A 0.54 0.53 -3.6 0 0 587.23 29.91
  Q 587.34 30.66 587.21 47.18
  C 587.17 53.58 587.88 57.63 595.01 57.60
  Q 597.53 57.59 598.29 57.49
  A 1.02 1.02 0.0 0 1 599.44 58.50
  L 599.44 61.99
  A 1.15 1.15 0.0 0 1 598.29 63.14
  Q 592.76 63.14 590.99 62.81
  Q 581.78 61.09 581.22 51.58
  Z"
/>
<path fill="#1d1d1d" d="
  M 325.3530 46.1478
  A 16.68 16.68 0.0 0 1 307.6586 61.7476
  L 304.0458 61.5203
  A 16.68 16.68 0.0 0 1 288.4460 43.8258
  L 288.6470 40.6322
  A 16.68 16.68 0.0 0 1 306.3414 25.0324
  L 309.9542 25.2597
  A 16.68 16.68 0.0 0 1 325.5540 42.9542
  L 325.3530 46.1478
  Z
  M 303.71 57.85
  L 311.78 57.88
  Q 326.53 51.08 319.97 36.26
  Q 318.20 32.27 315.68 30.41
  Q 312.66 28.18 308.72 27.99
  Q 297.37 27.45 293.38 37.09
  C 291.06 42.69 292.02 48.52 295.52 53.49
  Q 298.71 58.03 303.71 57.85
  Z"
/>
<path fill="#1d1d1d" d="
  M 524.42 56.71
  Q 523.41 57.58 522.54 58.68
  C 518.85 63.38 510.96 64.52 505.76 62.97
  Q 494.41 59.58 498.00 47.29
  C 502.82 44.16 504.84 41.26 511.51 41.32
  Q 517.97 41.37 519.77 41.22
  C 527.90 40.54 525.48 32.19 520.74 29.29
  C 514.19 25.28 506.12 27.84 502.18 34.13
  A 1.43 1.40 6.5 0 1 501.42 34.72
  Q 500.57 35.00 499.39 34.80
  A 0.50 0.50 0.0 0 1 499.01 34.13
  C 501.42 27.89 505.83 25.06 512.76 24.65
  C 520.11 24.22 528.26 27.38 528.79 35.70
  Q 529.20 42.02 529.02 61.18
  A 0.71 0.71 0.0 0 1 528.31 61.88
  L 526.38 61.88
  A 0.54 0.53 -87.1 0 1 525.85 61.29
  Q 525.91 60.68 525.77 59.24
  Q 525.63 57.76 525.60 57.70
  Q 525.32 57.19 524.42 56.71
  Z
  M 525.52 46.11
  A 3.05 3.04 -86.7 0 0 522.64 42.88
  C 515.71 42.54 501.36 42.29 502.52 52.78
  Q 502.80 55.38 505.27 57.66
  Q 507.02 59.29 510.43 59.47
  C 519.74 59.97 524.95 55.40 525.52 46.11
  Z"
/>
<path fill="#1d1d1d" d="
  M 212.19 57.86
  L 218.79 58.40
  Q 224.59 58.69 227.93 52.84
  A 1.23 1.21 -84.4 0 1 228.60 52.28
  Q 229.77 51.88 230.96 52.08
  A 0.90 0.90 0.0 0 1 231.63 53.34
  Q 228.34 60.64 220.50 61.78
  Q 218.21 62.11 212.86 61.56
  C 190.02 59.23 192.60 19.25 220.34 25.58
  C 228.53 27.44 231.85 34.75 231.82 42.48
  A 0.52 0.52 0.0 0 1 231.29 43.00
  Q 219.64 42.74 209.06 42.91
  Q 205.30 42.97 202.01 43.61
  A 1.15 1.15 0.0 0 0 201.09 44.94
  C 202.11 50.81 205.53 57.59 212.19 57.86
  Z
  M 202.97 39.43
  L 226.81 39.39
  A 0.13 0.13 0.0 0 0 226.94 39.26
  L 226.94 39.20
  A 11.97 10.81 -0.1 0 0 214.95 28.41
  L 214.79 28.41
  A 11.97 10.81 -0.1 0 0 202.84 39.24
  L 202.84 39.30
  A 0.13 0.13 0.0 0 0 202.97 39.43
  Z"
/>
<path fill="#0b0b0b" d="
  M 311.78 57.88
  Q 316.51 55.40 318.67 51.89
  C 321.41 47.42 321.54 40.46 318.97 35.73
  Q 315.12 28.63 306.53 28.78
  C 290.14 29.04 288.48 53.93 303.71 57.85
  Q 298.71 58.03 295.52 53.49
  C 292.02 48.52 291.06 42.69 293.38 37.09
  Q 297.37 27.45 308.72 27.99
  Q 312.66 28.18 315.68 30.41
  Q 318.20 32.27 319.97 36.26
  Q 326.53 51.08 311.78 57.88
  Z"
/>
<path fill="#0b0b0b" d="
  M 429.27 28.59
  Q 421.21 31.39 421.21 39.25
  Q 421.21 50.93 421.17 62.61
  A 0.55 0.54 87.8 0 1 420.67 63.16
  Q 417.15 63.44 414.91 62.46
  Q 416.40 61.22 418.96 61.93
  A 0.82 0.82 0.0 0 0 420.00 61.12
  Q 419.74 50.12 419.95 39.00
  Q 420.00 35.94 422.53 31.97
  Q 425.37 27.52 429.27 28.59
  Z"
/>
<path fill="#ffffff" d="
  M 202.97 39.43
  A 0.13 0.13 0.0 0 1 202.84 39.30
  L 202.84 39.24
  A 11.97 10.81 -0.1 0 1 214.79 28.41
  L 214.95 28.41
  A 11.97 10.81 -0.1 0 1 226.94 39.20
  L 226.94 39.26
  A 0.13 0.13 0.0 0 1 226.81 39.39
  L 202.97 39.43
  Z"
/>
<path fill="#ffffff" d="
  M 311.78 57.88
  L 303.71 57.85
  C 288.48 53.93 290.14 29.04 306.53 28.78
  Q 315.12 28.63 318.97 35.73
  C 321.54 40.46 321.41 47.42 318.67 51.89
  Q 316.51 55.40 311.78 57.88
  Z"
/>
<ellipse fill="#ffffff" cx="0.00" cy="0.00" transform="translate(473.87,43.48) rotate(-90.4)" rx="14.93" ry="13.36"/>
<path fill="#ffffff" d="
  M 108.66 37.63
  A 0.49 0.49 0.0 0 1 109.15 37.15
  L 123.95 37.22
  A 10.05 9.14 0.3 0 1 133.95 46.42
  L 133.95 47.90
  A 10.05 9.14 0.3 0 1 123.85 56.98
  L 109.05 56.91
  A 0.49 0.49 0.0 0 1 108.56 56.41
  L 108.66 37.63
  Z"
/>
<path fill="#0b0b0b" d="
  M 525.52 46.11
  C 524.95 55.40 519.74 59.97 510.43 59.47
  Q 507.02 59.29 505.27 57.66
  Q 502.80 55.38 502.52 52.78
  C 501.36 42.29 515.71 42.54 522.64 42.88
  A 3.05 3.04 -86.7 0 1 525.52 46.11
  Z
  M 523.67 44.32
  Q 516.11 44.24 511.26 44.44
  Q 508.70 44.54 506.40 46.17
  C 500.96 50.03 503.51 58.11 510.02 58.40
  Q 524.20 59.04 524.37 45.03
  A 0.70 0.70 0.0 0 0 523.67 44.32
  Z"
/>
<path fill="#ffffff" d="
  M 524.37 45.03
  Q 524.20 59.04 510.02 58.40
  C 503.51 58.11 500.96 50.03 506.40 46.17
  Q 508.70 44.54 511.26 44.44
  Q 516.11 44.24 523.67 44.32
  A 0.70 0.70 0.0 0 1 524.37 45.03
  Z"
/>
</svg>
