<?xml version="1.0" encoding="UTF-8" standalone="no"?>
<!DOCTYPE svg PUBLIC "-//W3C//DTD SVG 1.1//EN" "http://www.w3.org/Graphics/SVG/1.1/DTD/svg11.dtd">
<svg xmlns="http://www.w3.org/2000/svg" version="1.1" viewBox="0.00 0.00 366.00 138.00">
<g stroke-width="2.00" fill="none" stroke-linecap="butt">
<path stroke="#808080" vector-effect="non-scaling-stroke" d="
  M 96.91 45.38
  Q 96.97 45.91 96.72 46.99
  Q 87.63 86.43 86.73 90.45
  A 0.46 0.45 6.1 0 0 87.18 91.00
  L 97.49 91.00
  A 0.60 0.60 0.0 0 0 98.09 90.40
  L 98.09 43.33
  A 0.40 0.40 0.0 0 0 97.42 43.03
  L 44.11 90.56
  A 0.25 0.24 -65.5 0 0 44.27 90.99
  L 58.10 91.03
  A 2.14 2.13 -57.0 0 0 58.98 90.84
  Q 59.95 90.41 61.28 88.77
  Q 70.88 76.85 96.50 45.26
  A 0.23 0.23 0.0 0 1 96.91 45.38"
/>
<path stroke="#808080" vector-effect="non-scaling-stroke" d="
  M 150.51 70.40
  A 0.34 0.34 0.0 0 0 150.83 70.19
  L 152.98 64.90
  A 0.34 0.34 0.0 0 0 152.66 64.43
  L 132.93 64.43
  A 0.34 0.34 0.0 0 1 132.59 64.09
  L 132.59 49.79
  A 0.34 0.34 0.0 0 1 132.93 49.45
  L 158.94 49.45
  A 0.34 0.34 0.0 0 0 159.26 49.24
  L 161.46 43.80
  A 0.34 0.34 0.0 0 0 161.15 43.33
  L 126.12 43.33
  A 0.34 0.34 0.0 0 0 125.78 43.67
  L 125.78 90.66
  A 0.34 0.34 0.0 0 0 126.12 91.00
  L 132.26 91.00
  A 0.34 0.34 0.0 0 0 132.60 90.66
  L 132.60 70.74
  A 0.34 0.34 0.0 0 1 132.94 70.40
  L 150.51 70.40"
/>
<path stroke="#808080" vector-effect="non-scaling-stroke" d="
  M 175.65 51.65
  L 190.82 90.68
  A 0.41 0.40 79.5 0 0 191.20 90.95
  L 198.16 90.97
  A 0.14 0.14 0.0 0 0 198.29 90.78
  L 179.36 43.92
  A 0.96 0.95 -10.8 0 0 178.47 43.32
  L 172.46 43.33
  A 1.09 1.08 -78.6 0 0 171.46 44.00
  L 152.45 90.80
  A 0.12 0.11 10.3 0 0 152.56 90.95
  L 159.49 90.97
  A 0.42 0.40 10.1 0 0 159.88 90.71
  L 164.33 79.29
  A 1.03 1.02 -78.9 0 1 165.28 78.65
  L 181.20 78.66
  A 0.19 0.19 0.0 0 0 181.38 78.40
  L 179.12 72.90
  A 0.45 0.43 -10.8 0 0 178.71 72.63
  L 167.52 72.65
  A 0.37 0.37 0.0 0 1 167.18 72.15
  L 175.18 51.65
  A 0.25 0.25 0.0 0 1 175.65 51.65"
/>
<path stroke="#808080" vector-effect="non-scaling-stroke" d="
  M 228.38 70.46
  Q 239.10 68.91 240.29 58.92
  C 241.41 49.60 234.83 43.37 225.73 43.35
  Q 204.71 43.32 204.50 43.32
  A 0.59 0.58 -89.5 0 0 203.91 43.91
  L 203.91 90.56
  A 0.44 0.43 90.0 0 0 204.34 91.00
  L 210.51 91.00
  A 0.35 0.35 0.0 0 0 210.86 90.65
  L 210.86 71.35
  A 0.59 0.59 0.0 0 1 211.45 70.76
  L 219.83 70.76
  A 0.76 0.74 -16.7 0 1 220.45 71.08
  L 234.43 90.85
  A 0.33 0.33 0.0 0 0 234.70 90.99
  L 242.25 90.99
  A 0.10 0.10 0.0 0 0 242.33 90.83
  L 228.21 70.86
  A 0.26 0.25 68.2 0 1 228.38 70.46"
/>
<path stroke="#808080" vector-effect="non-scaling-stroke" d="
  M 275.95 72.68
  A 0.35 0.35 0.0 0 1 275.63 72.20
  L 283.82 52.06
  A 0.35 0.35 0.0 0 1 284.47 52.06
  L 299.49 90.81
  A 0.35 0.35 0.0 0 0 299.82 91.03
  L 306.51 91.03
  A 0.35 0.35 0.0 0 0 306.84 90.55
  L 287.86 43.55
  A 0.35 0.35 0.0 0 0 287.53 43.33
  L 280.62 43.33
  A 0.35 0.35 0.0 0 0 280.29 43.55
  L 261.18 90.55
  A 0.35 0.35 0.0 0 0 261.50 91.03
  L 268.05 91.03
  A 0.35 0.35 0.0 0 0 268.38 90.81
  L 273.21 78.92
  A 0.35 0.35 0.0 0 1 273.54 78.70
  L 289.59 78.70
  A 0.35 0.35 0.0 0 0 289.92 78.22
  L 287.77 72.90
  A 0.35 0.35 0.0 0 0 287.44 72.68
  L 275.95 72.68"
/>
<path stroke="#808080" vector-effect="non-scaling-stroke" d="
  M 319.26 43.58
  A 0.28 0.28 0.0 0 0 318.98 43.30
  L 312.66 43.30
  A 0.28 0.28 0.0 0 0 312.38 43.58
  L 312.38 90.70
  A 0.28 0.28 0.0 0 0 312.66 90.98
  L 318.98 90.98
  A 0.28 0.28 0.0 0 0 319.26 90.70
  L 319.26 43.58"
/>
<path stroke="#808080" vector-effect="non-scaling-stroke" d="
  M 255.17 87.36
  A 3.61 3.61 0.0 0 0 251.56 83.75
  A 3.61 3.61 0.0 0 0 247.95 87.36
  A 3.61 3.61 0.0 0 0 251.56 90.97
  A 3.61 3.61 0.0 0 0 255.17 87.36"
/>
<path stroke="#808080" vector-effect="non-scaling-stroke" d="
  M 210.86 49.73
  L 210.84 64.37
  A 0.29 0.29 0.0 0 0 211.13 64.66
  L 225.45 64.69
  A 8.15 7.42 0.1 0 0 233.61 57.28
  L 233.61 56.90
  A 8.15 7.42 0.1 0 0 225.47 49.47
  L 211.15 49.44
  A 0.29 0.29 0.0 0 0 210.86 49.73"
/>
</g>
<path fill="#ffffff" d="
  M 366.00 0.00
  L 366.00 138.00
  L 0.00 138.00
  L 0.00 0.00
  L 366.00 0.00
  Z
  M 96.91 45.38
  Q 96.97 45.91 96.72 46.99
  Q 87.63 86.43 86.73 90.45
  A 0.46 0.45 6.1 0 0 87.18 91.00
  L 97.49 91.00
  A 0.60 0.60 0.0 0 0 98.09 90.40
  L 98.09 43.33
  A 0.40 0.40 0.0 0 0 97.42 43.03
  L 44.11 90.56
  A 0.25 0.24 -65.5 0 0 44.27 90.99
  L 58.10 91.03
  A 2.14 2.13 -57.0 0 0 58.98 90.84
  Q 59.95 90.41 61.28 88.77
  Q 70.88 76.85 96.50 45.26
  A 0.23 0.23 0.0 0 1 96.91 45.38
  Z
  M 150.51 70.40
  A 0.34 0.34 0.0 0 0 150.83 70.19
  L 152.98 64.90
  A 0.34 0.34 0.0 0 0 152.66 64.43
  L 132.93 64.43
  A 0.34 0.34 0.0 0 1 132.59 64.09
  L 132.59 49.79
  A 0.34 0.34 0.0 0 1 132.93 49.45
  L 158.94 49.45
  A 0.34 0.34 0.0 0 0 159.26 49.24
  L 161.46 43.80
  A 0.34 0.34 0.0 0 0 161.15 43.33
  L 126.12 43.33
  A 0.34 0.34 0.0 0 0 125.78 43.67
  L 125.78 90.66
  A 0.34 0.34 0.0 0 0 126.12 91.00
  L 132.26 91.00
  A 0.34 0.34 0.0 0 0 132.60 90.66
  L 132.60 70.74
  A 0.34 0.34 0.0 0 1 132.94 70.40
  L 150.51 70.40
  Z
  M 175.65 51.65
  L 190.82 90.68
  A 0.41 0.40 79.5 0 0 191.20 90.95
  L 198.16 90.97
  A 0.14 0.14 0.0 0 0 198.29 90.78
  L 179.36 43.92
  A 0.96 0.95 -10.8 0 0 178.47 43.32
  L 172.46 43.33
  A 1.09 1.08 -78.6 0 0 171.46 44.00
  L 152.45 90.80
  A 0.12 0.11 10.3 0 0 152.56 90.95
  L 159.49 90.97
  A 0.42 0.40 10.1 0 0 159.88 90.71
  L 164.33 79.29
  A 1.03 1.02 -78.9 0 1 165.28 78.65
  L 181.20 78.66
  A 0.19 0.19 0.0 0 0 181.38 78.40
  L 179.12 72.90
  A 0.45 0.43 -10.8 0 0 178.71 72.63
  L 167.52 72.65
  A 0.37 0.37 0.0 0 1 167.18 72.15
  L 175.18 51.65
  A 0.25 0.25 0.0 0 1 175.65 51.65
  Z
  M 228.38 70.46
  Q 239.10 68.91 240.29 58.92
  C 241.41 49.60 234.83 43.37 225.73 43.35
  Q 204.71 43.32 204.50 43.32
  A 0.59 0.58 -89.5 0 0 203.91 43.91
  L 203.91 90.56
  A 0.44 0.43 90.0 0 0 204.34 91.00
  L 210.51 91.00
  A 0.35 0.35 0.0 0 0 210.86 90.65
  L 210.86 71.35
  A 0.59 0.59 0.0 0 1 211.45 70.76
  L 219.83 70.76
  A 0.76 0.74 -16.7 0 1 220.45 71.08
  L 234.43 90.85
  A 0.33 0.33 0.0 0 0 234.70 90.99
  L 242.25 90.99
  A 0.10 0.10 0.0 0 0 242.33 90.83
  L 228.21 70.86
  A 0.26 0.25 68.2 0 1 228.38 70.46
  Z
  M 275.95 72.68
  A 0.35 0.35 0.0 0 1 275.63 72.20
  L 283.82 52.06
  A 0.35 0.35 0.0 0 1 284.47 52.06
  L 299.49 90.81
  A 0.35 0.35 0.0 0 0 299.82 91.03
  L 306.51 91.03
  A 0.35 0.35 0.0 0 0 306.84 90.55
  L 287.86 43.55
  A 0.35 0.35 0.0 0 0 287.53 43.33
  L 280.62 43.33
  A 0.35 0.35 0.0 0 0 280.29 43.55
  L 261.18 90.55
  A 0.35 0.35 0.0 0 0 261.50 91.03
  L 268.05 91.03
  A 0.35 0.35 0.0 0 0 268.38 90.81
  L 273.21 78.92
  A 0.35 0.35 0.0 0 1 273.54 78.70
  L 289.59 78.70
  A 0.35 0.35 0.0 0 0 289.92 78.22
  L 287.77 72.90
  A 0.35 0.35 0.0 0 0 287.44 72.68
  L 275.95 72.68
  Z
  M 319.26 43.58
  A 0.28 0.28 0.0 0 0 318.98 43.30
  L 312.66 43.30
  A 0.28 0.28 0.0 0 0 312.38 43.58
  L 312.38 90.70
  A 0.28 0.28 0.0 0 0 312.66 90.98
  L 318.98 90.98
  A 0.28 0.28 0.0 0 0 319.26 90.70
  L 319.26 43.58
  Z
  M 255.17 87.36
  A 3.61 3.61 0.0 0 0 251.56 83.75
  A 3.61 3.61 0.0 0 0 247.95 87.36
  A 3.61 3.61 0.0 0 0 251.56 90.97
  A 3.61 3.61 0.0 0 0 255.17 87.36
  Z"
/>
<path fill="#000000" d="
  M 96.91 45.38
  A 0.23 0.23 0.0 0 0 96.50 45.26
  Q 70.88 76.85 61.28 88.77
  Q 59.95 90.41 58.98 90.84
  A 2.14 2.13 -57.0 0 1 58.10 91.03
  L 44.27 90.99
  A 0.25 0.24 -65.5 0 1 44.11 90.56
  L 97.42 43.03
  A 0.40 0.40 0.0 0 1 98.09 43.33
  L 98.09 90.40
  A 0.60 0.60 0.0 0 1 97.49 91.00
  L 87.18 91.00
  A 0.46 0.45 6.1 0 1 86.73 90.45
  Q 87.63 86.43 96.72 46.99
  Q 96.97 45.91 96.91 45.38
  Z"
/>
<path fill="#000000" d="
  M 150.51 70.40
  L 132.94 70.40
  A 0.34 0.34 0.0 0 0 132.60 70.74
  L 132.60 90.66
  A 0.34 0.34 0.0 0 1 132.26 91.00
  L 126.12 91.00
  A 0.34 0.34 0.0 0 1 125.78 90.66
  L 125.78 43.67
  A 0.34 0.34 0.0 0 1 126.12 43.33
  L 161.15 43.33
  A 0.34 0.34 0.0 0 1 161.46 43.80
  L 159.26 49.24
  A 0.34 0.34 0.0 0 1 158.94 49.45
  L 132.93 49.45
  A 0.34 0.34 0.0 0 0 132.59 49.79
  L 132.59 64.09
  A 0.34 0.34 0.0 0 0 132.93 64.43
  L 152.66 64.43
  A 0.34 0.34 0.0 0 1 152.98 64.90
  L 150.83 70.19
  A 0.34 0.34 0.0 0 1 150.51 70.40
  Z"
/>
<path fill="#000000" d="
  M 175.65 51.65
  A 0.25 0.25 0.0 0 0 175.18 51.65
  L 167.18 72.15
  A 0.37 0.37 0.0 0 0 167.52 72.65
  L 178.71 72.63
  A 0.45 0.43 -10.8 0 1 179.12 72.90
  L 181.38 78.40
  A 0.19 0.19 0.0 0 1 181.20 78.66
  L 165.28 78.65
  A 1.03 1.02 -78.9 0 0 164.33 79.29
  L 159.88 90.71
  A 0.42 0.40 10.1 0 1 159.49 90.97
  L 152.56 90.95
  A 0.12 0.11 10.3 0 1 152.45 90.80
  L 171.46 44.00
  A 1.09 1.08 -78.6 0 1 172.46 43.33
  L 178.47 43.32
  A 0.96 0.95 -10.8 0 1 179.36 43.92
  L 198.29 90.78
  A 0.14 0.14 0.0 0 1 198.16 90.97
  L 191.20 90.95
  A 0.41 0.40 79.5 0 1 190.82 90.68
  L 175.65 51.65
  Z"
/>
<path fill="#000000" d="
  M 228.38 70.46
  A 0.26 0.25 68.2 0 0 228.21 70.86
  L 242.33 90.83
  A 0.10 0.10 0.0 0 1 242.25 90.99
  L 234.70 90.99
  A 0.33 0.33 0.0 0 1 234.43 90.85
  L 220.45 71.08
  A 0.76 0.74 -16.7 0 0 219.83 70.76
  L 211.45 70.76
  A 0.59 0.59 0.0 0 0 210.86 71.35
  L 210.86 90.65
  A 0.35 0.35 0.0 0 1 210.51 91.00
  L 204.34 91.00
  A 0.44 0.43 90.0 0 1 203.91 90.56
  L 203.91 43.91
  A 0.59 0.58 -89.5 0 1 204.50 43.32
  Q 204.71 43.32 225.73 43.35
  C 234.83 43.37 241.41 49.60 240.29 58.92
  Q 239.10 68.91 228.38 70.46
  Z
  M 210.86 49.73
  L 210.84 64.37
  A 0.29 0.29 0.0 0 0 211.13 64.66
  L 225.45 64.69
  A 8.15 7.42 0.1 0 0 233.61 57.28
  L 233.61 56.90
  A 8.15 7.42 0.1 0 0 225.47 49.47
  L 211.15 49.44
  A 0.29 0.29 0.0 0 0 210.86 49.73
  Z"
/>
<path fill="#000000" d="
  M 275.95 72.68
  L 287.44 72.68
  A 0.35 0.35 0.0 0 1 287.77 72.90
  L 289.92 78.22
  A 0.35 0.35 0.0 0 1 289.59 78.70
  L 273.54 78.70
  A 0.35 0.35 0.0 0 0 273.21 78.92
  L 268.38 90.81
  A 0.35 0.35 0.0 0 1 268.05 91.03
  L 261.50 91.03
  A 0.35 0.35 0.0 0 1 261.18 90.55
  L 280.29 43.55
  A 0.35 0.35 0.0 0 1 280.62 43.33
  L 287.53 43.33
  A 0.35 0.35 0.0 0 1 287.86 43.55
  L 306.84 90.55
  A 0.35 0.35 0.0 0 1 306.51 91.03
  L 299.82 91.03
  A 0.35 0.35 0.0 0 1 299.49 90.81
  L 284.47 52.06
  A 0.35 0.35 0.0 0 0 283.82 52.06
  L 275.63 72.20
  A 0.35 0.35 0.0 0 0 275.95 72.68
  Z"
/>
<rect fill="#000000" x="312.38" y="43.30" width="6.88" height="47.68" rx="0.28"/>
<path fill="#ffffff" d="
  M 210.86 49.73
  A 0.29 0.29 0.0 0 1 211.15 49.44
  L 225.47 49.47
  A 8.15 7.42 0.1 0 1 233.61 56.90
  L 233.61 57.28
  A 8.15 7.42 0.1 0 1 225.45 64.69
  L 211.13 64.66
  A 0.29 0.29 0.0 0 1 210.84 64.37
  L 210.86 49.73
  Z"
/>
<circle fill="#000000" cx="251.56" cy="87.36" r="3.61"/>
</svg>
