<?xml version="1.0" encoding="UTF-8" standalone="no"?>
<!DOCTYPE svg PUBLIC "-//W3C//DTD SVG 1.1//EN" "http://www.w3.org/Graphics/SVG/1.1/DTD/svg11.dtd">
<svg xmlns="http://www.w3.org/2000/svg" version="1.1" viewBox="0.00 0.00 300.00 168.00">
<g stroke-width="2.00" fill="none" stroke-linecap="butt">
<path stroke="#7f7b76" vector-effect="non-scaling-stroke" d="
  M 85.88 81.50
  Q 85.88 82.00 86.18 82.31
  Q 86.44 82.59 86.97 82.56
  Q 96.98 82.07 99.91 82.00
  A 0.28 0.27 30.2 0 1 100.05 82.52
  L 88.17 88.63
  A 0.69 0.69 0.0 0 0 87.89 89.59
  L 88.09 89.92
  A 1.14 1.14 0.0 0 0 89.69 90.30
  L 101.01 82.92
  A 0.20 0.20 0.0 0 1 101.29 83.20
  L 93.86 94.52
  A 1.07 1.07 0.0 0 0 94.27 96.06
  L 94.56 96.21
  A 0.89 0.88 -63.1 0 0 95.74 95.82
  L 101.47 84.53
  A 0.38 0.38 0.0 0 1 102.18 84.72
  L 101.54 97.45
  A 0.79 0.79 0.0 0 0 102.37 98.27
  L 103.17 98.22
  A 0.72 0.72 0.0 0 0 103.85 97.46
  L 103.10 85.41
  A 1.90 1.78 -61.5 0 0 102.91 84.68
  Q 102.56 83.94 102.56 83.93
  A 0.46 0.46 0.0 0 1 103.42 83.65
  L 109.68 95.82
  A 0.89 0.89 0.0 0 0 110.88 96.21
  L 111.15 96.07
  A 1.03 1.03 0.0 0 0 111.54 94.59
  L 104.23 83.38
  A 0.25 0.25 0.0 0 1 104.57 83.04
  L 115.77 90.40
  A 0.99 0.99 0.0 0 0 117.19 90.02
  L 117.34 89.72
  A 0.95 0.95 0.0 0 0 116.92 88.44
  L 105.14 82.45
  A 0.26 0.26 0.0 0 1 105.27 81.95
  L 118.57 82.62
  A 0.75 0.73 17.9 0 0 119.22 82.30
  Q 119.44 81.98 119.44 81.54
  Q 119.44 81.11 119.22 80.79
  A 0.75 0.73 -17.8 0 0 118.57 80.47
  L 105.27 81.10
  A 0.26 0.26 0.0 0 1 105.14 80.60
  L 116.94 74.64
  A 0.95 0.95 0.0 0 0 117.36 73.36
  L 117.21 73.06
  A 0.99 0.99 0.0 0 0 115.79 72.68
  L 104.57 80.01
  A 0.25 0.25 0.0 0 1 104.23 79.67
  L 111.57 68.48
  A 1.03 1.03 0.0 0 0 111.19 67.00
  L 110.92 66.86
  A 0.89 0.89 0.0 0 0 109.72 67.25
  L 103.43 79.40
  A 0.46 0.46 0.0 0 1 102.57 79.12
  Q 102.57 79.11 102.92 78.37
  A 1.90 1.78 61.7 0 0 103.11 77.64
  L 103.89 65.59
  A 0.72 0.72 0.0 0 0 103.21 64.83
  L 102.41 64.78
  A 0.79 0.79 0.0 0 0 101.58 65.59
  L 102.19 78.33
  A 0.38 0.38 0.0 0 1 101.48 78.51
  L 95.78 67.21
  A 0.89 0.88 63.3 0 0 94.60 66.82
  L 94.31 66.97
  A 1.07 1.07 0.0 0 0 93.89 68.51
  L 101.29 79.84
  A 0.20 0.20 0.0 0 1 101.01 80.12
  L 89.71 72.72
  A 1.14 1.14 0.0 0 0 88.11 73.09
  L 87.91 73.42
  A 0.69 0.69 0.0 0 0 88.19 74.38
  L 100.05 80.52
  A 0.28 0.27 -30.1 0 1 99.91 81.04
  Q 96.98 80.96 86.97 80.45
  Q 86.44 80.42 86.18 80.70
  Q 85.88 81.01 85.88 81.50"
/>
<path stroke="#7f7b76" vector-effect="non-scaling-stroke" d="
  M 131.85 65.29
  A 0.50 0.50 0.0 0 0 131.35 64.79
  L 130.39 64.79
  A 0.50 0.50 0.0 0 0 129.89 65.29
  L 129.89 79.35
  A 0.50 0.50 0.0 0 0 130.39 79.85
  L 131.35 79.85
  A 0.50 0.50 0.0 0 0 131.85 79.35
  L 131.85 65.29"
/>
<path stroke="#7f7b76" vector-effect="non-scaling-stroke" d="
  M 187.33 66.94
  A 0.67 0.66 0.0 0 0 186.66 67.60
  L 186.66 69.67
  A 0.52 0.52 0.0 0 1 186.14 70.19
  L 185.47 70.19
  A 0.50 0.50 0.0 0 0 184.97 70.69
  L 184.97 71.39
  A 0.58 0.58 0.0 0 0 185.55 71.97
  L 186.09 71.97
  A 0.58 0.58 0.0 0 1 186.67 72.55
  L 186.67 77.68
  A 2.13 2.12 9.1 0 0 188.14 79.70
  Q 190.48 80.46 191.04 79.01
  A 0.76 0.76 0.0 0 0 190.06 78.03
  Q 189.10 78.40 188.49 77.45
  A 1.06 0.99 29.9 0 1 188.32 76.89
  L 188.32 72.49
  A 0.51 0.50 -0.0 0 1 188.83 71.99
  L 190.43 71.99
  A 0.78 0.77 90.0 0 0 191.20 71.21
  L 191.20 70.85
  A 0.66 0.65 90.0 0 0 190.55 70.19
  L 188.75 70.19
  A 0.41 0.41 0.0 0 1 188.34 69.78
  L 188.34 67.64
  A 0.70 0.70 0.0 0 0 187.64 66.94
  L 187.33 66.94"
/>
<path stroke="#7f7b76" vector-effect="non-scaling-stroke" d="
  M 142.12 71.21
  Q 140.13 69.26 137.22 70.67
  A 0.71 0.70 -39.2 0 1 136.47 70.60
  Q 135.98 70.23 135.38 70.14
  A 0.45 0.45 0.0 0 0 134.86 70.58
  L 134.84 79.38
  A 0.48 0.47 0.1 0 0 135.32 79.86
  L 136.01 79.86
  A 0.54 0.54 0.0 0 0 136.55 79.32
  L 136.61 74.13
  A 2.41 2.40 88.2 0 1 138.83 71.76
  L 138.87 71.76
  A 2.08 2.08 0.0 0 1 141.17 73.81
  L 141.21 79.27
  A 0.62 0.61 -0.3 0 0 141.82 79.87
  L 142.38 79.87
  A 0.61 0.61 0.0 0 0 143.00 79.27
  L 143.02 74.20
  A 2.44 2.43 86.7 0 1 145.16 71.78
  L 145.19 71.78
  A 1.97 1.97 0.0 0 1 147.58 73.67
  L 147.73 79.34
  A 0.56 0.55 -0.4 0 0 148.29 79.88
  L 148.67 79.89
  A 0.72 0.71 -1.4 0 0 149.39 79.14
  C 149.23 75.76 150.65 68.25 144.13 70.44
  C 143.32 70.71 143.28 71.16 142.97 71.33
  A 0.71 0.70 -37.2 0 1 142.12 71.21"
/>
<path stroke="#7f7b76" vector-effect="non-scaling-stroke" d="
  M 154.22 78.77
  C 156.57 80.32 159.20 80.44 161.01 77.89
  C 164.08 73.54 159.27 68.08 154.57 70.85
  A 0.68 0.68 0.0 0 1 153.71 70.72
  Q 153.32 70.26 152.57 70.17
  A 0.49 0.49 0.0 0 0 152.02 70.65
  L 151.86 84.48
  A 0.66 0.66 0.0 0 0 152.52 85.15
  L 152.87 85.15
  A 0.69 0.69 0.0 0 0 153.57 84.47
  L 153.63 79.08
  A 0.39 0.38 17.1 0 1 154.22 78.77"
/>
<path stroke="#7f7b76" vector-effect="non-scaling-stroke" d="
  M 163.09 74.96
  C 163.08 78.71 167.33 81.33 170.77 79.04
  A 0.53 0.52 58.5 0 1 171.53 79.22
  Q 171.94 79.94 172.53 79.87
  A 0.73 0.72 88.3 0 0 173.16 79.19
  Q 173.19 78.54 173.20 74.99
  Q 173.21 71.44 173.19 70.79
  A 0.73 0.72 -88.0 0 0 172.56 70.10
  Q 171.96 70.03 171.55 70.75
  A 0.53 0.52 -58.2 0 1 170.80 70.93
  C 167.37 68.62 163.10 71.21 163.09 74.96"
/>
<path stroke="#7f7b76" vector-effect="non-scaling-stroke" d="
  M 174.98 75.02
  C 174.99 78.49 178.66 80.61 181.72 79.73
  Q 183.42 79.23 183.98 78.18
  A 0.81 0.80 -5.3 0 0 182.76 77.17
  C 180.39 79.07 176.99 78.38 176.99 75.01
  C 176.98 71.64 180.38 70.95 182.76 72.84
  A 0.81 0.80 5.2 0 0 183.97 71.83
  Q 183.41 70.78 181.71 70.29
  C 178.64 69.41 174.98 71.55 174.98 75.02"
/>
<path stroke="#7f7b76" vector-effect="non-scaling-stroke" d="
  M 135.33 94.40
  Q 137.68 94.41 138.19 94.42
  A 1.02 1.00 -10.5 0 1 139.10 95.03
  L 140.21 97.71
  A 0.79 0.79 0.0 0 0 140.94 98.20
  L 141.85 98.20
  A 0.42 0.41 78.6 0 0 142.23 97.62
  Q 138.72 89.09 136.78 84.06
  C 136.51 83.35 136.10 83.09 135.37 83.09
  C 134.63 83.09 134.22 83.35 133.95 84.05
  Q 131.98 89.07 128.42 97.58
  A 0.42 0.41 -78.3 0 0 128.80 98.16
  L 129.71 98.17
  A 0.79 0.79 0.0 0 0 130.44 97.68
  L 131.56 95.01
  A 1.02 1.00 10.8 0 1 132.48 94.40
  Q 132.99 94.40 135.33 94.40"
/>
<path stroke="#7f7b76" vector-effect="non-scaling-stroke" d="
  M 172.85 89.51
  C 170.46 87.97 167.80 87.88 166.01 90.47
  C 162.95 94.90 167.87 100.36 172.59 97.51
  A 0.68 0.68 0.0 0 1 173.46 97.64
  Q 173.86 98.10 174.62 98.18
  A 0.50 0.49 3.1 0 0 175.17 97.69
  L 175.17 83.72
  A 0.67 0.67 0.0 0 0 174.50 83.05
  L 174.15 83.05
  A 0.70 0.70 0.0 0 0 173.45 83.75
  L 173.45 89.19
  A 0.39 0.38 16.4 0 1 172.85 89.51"
/>
<path stroke="#7f7b76" vector-effect="non-scaling-stroke" d="
  M 142.91 93.37
  C 142.89 98.07 148.20 99.69 151.69 96.92
  A 0.60 0.59 54.5 0 0 151.82 96.13
  L 151.63 95.84
  A 0.82 0.81 56.7 0 0 150.50 95.60
  L 149.04 96.55
  A 0.62 0.58 -63.7 0 1 148.76 96.66
  C 146.59 96.93 144.79 95.73 144.80 93.38
  C 144.81 91.03 146.62 89.85 148.78 90.14
  A 0.62 0.58 64.2 0 1 149.07 90.24
  L 150.52 91.21
  A 0.82 0.81 -56.2 0 0 151.65 90.98
  L 151.84 90.69
  A 0.60 0.59 -54.0 0 0 151.72 89.89
  C 148.25 87.10 142.93 88.67 142.91 93.37"
/>
<path stroke="#7f7b76" vector-effect="non-scaling-stroke" d="
  M 153.02 93.35
  C 153.01 97.09 157.26 99.69 160.69 97.41
  A 0.53 0.52 58.5 0 1 161.44 97.59
  Q 161.85 98.31 162.44 98.24
  A 0.73 0.72 88.2 0 0 163.07 97.56
  Q 163.10 96.91 163.11 93.37
  Q 163.11 89.83 163.09 89.18
  A 0.73 0.72 -88.0 0 0 162.46 88.50
  Q 161.87 88.42 161.45 89.14
  A 0.53 0.52 -58.3 0 1 160.70 89.32
  C 157.28 87.02 153.03 89.61 153.02 93.35"
/>
<path stroke="#7f7b76" vector-effect="non-scaling-stroke" d="
  M 179.55 94.01
  L 186.05 94.01
  A 0.67 0.66 86.9 0 0 186.71 93.27
  Q 186.13 87.90 180.80 88.57
  Q 178.97 88.80 177.90 90.49
  C 174.45 95.92 181.22 101.00 185.76 96.91
  A 0.55 0.55 0.0 0 0 185.64 96.01
  L 185.45 95.91
  A 1.21 1.20 34.5 0 0 184.03 96.17
  Q 183.44 96.83 181.87 96.80
  A 3.17 3.16 73.8 0 1 179.28 95.37
  L 179.02 94.98
  A 0.63 0.63 0.0 0 1 179.55 94.01"
/>
<path stroke="#7f7b76" vector-effect="non-scaling-stroke" d="
  M 195.83 89.58
  Q 193.83 87.63 190.92 89.05
  A 0.71 0.70 -39.3 0 1 190.17 88.98
  Q 189.68 88.61 189.08 88.52
  A 0.45 0.45 0.0 0 0 188.56 88.96
  L 188.56 97.77
  A 0.48 0.47 -0.0 0 0 189.04 98.24
  L 189.73 98.24
  A 0.54 0.54 0.0 0 0 190.27 97.70
  L 190.32 92.51
  A 2.41 2.41 0.0 0 1 192.54 90.13
  L 192.58 90.13
  A 2.08 2.08 0.0 0 1 194.88 92.18
  L 194.93 97.64
  A 0.62 0.61 -0.5 0 0 195.55 98.24
  L 196.11 98.24
  A 0.61 0.61 0.0 0 0 196.72 97.64
  L 196.73 92.56
  A 2.44 2.43 86.5 0 1 198.87 90.14
  L 198.90 90.14
  A 1.97 1.97 0.0 0 1 201.29 92.02
  L 201.46 97.70
  A 0.56 0.55 -0.5 0 0 202.02 98.24
  L 202.40 98.24
  A 0.72 0.71 -1.5 0 0 203.12 97.49
  C 202.95 94.11 204.35 86.60 197.83 88.80
  C 197.03 89.07 196.99 89.52 196.68 89.69
  A 0.71 0.70 -37.4 0 1 195.83 89.58"
/>
<path stroke="#7f7b76" vector-effect="non-scaling-stroke" d="
  M 213.75 89.26
  A 0.33 0.33 0.0 0 0 213.58 88.83
  L 212.60 88.42
  A 0.33 0.33 0.0 0 0 212.16 88.60
  L 209.38 95.28
  A 0.33 0.33 0.0 0 1 208.78 95.28
  L 206.22 89.14
  A 0.33 0.33 0.0 0 0 206.04 88.96
  L 204.68 88.39
  A 0.33 0.33 0.0 0 0 204.25 88.83
  L 208.15 98.21
  A 0.33 0.33 0.0 0 1 208.15 98.47
  L 206.41 102.66
  A 0.33 0.33 0.0 0 0 206.58 103.09
  L 207.49 103.46
  A 0.33 0.33 0.0 0 0 207.92 103.29
  L 213.75 89.26"
/>
<path stroke="#7f7b76" vector-effect="non-scaling-stroke" d="
  M 160.12 74.99
  A 3.25 3.25 0.0 0 0 156.87 71.74
  A 3.25 3.25 0.0 0 0 153.62 74.99
  A 3.25 3.25 0.0 0 0 156.87 78.24
  A 3.25 3.25 0.0 0 0 160.12 74.99"
/>
<path stroke="#7f7b76" vector-effect="non-scaling-stroke" d="
  M 171.46 74.99
  A 3.25 3.25 0.0 0 0 168.21 71.74
  A 3.25 3.25 0.0 0 0 164.96 74.99
  A 3.25 3.25 0.0 0 0 168.21 78.24
  A 3.25 3.25 0.0 0 0 171.46 74.99"
/>
<path stroke="#7f7b76" vector-effect="non-scaling-stroke" d="
  M 132.91 92.75
  L 137.58 92.75
  A 0.48 0.47 -11.4 0 0 138.02 92.09
  L 135.63 86.33
  A 0.33 0.32 -58.8 0 0 135.03 86.33
  L 132.57 92.24
  A 0.37 0.37 0.0 0 0 132.91 92.75"
/>
<path stroke="#7f7b76" vector-effect="non-scaling-stroke" d="
  M 173.35 93.37
  A 3.26 3.26 0.0 0 0 170.09 90.11
  A 3.26 3.26 0.0 0 0 166.83 93.37
  A 3.26 3.26 0.0 0 0 170.09 96.63
  A 3.26 3.26 0.0 0 0 173.35 93.37"
/>
<path stroke="#7f7b76" vector-effect="non-scaling-stroke" d="
  M 161.41 93.37
  A 3.27 3.27 0.0 0 0 158.14 90.10
  A 3.27 3.27 0.0 0 0 154.87 93.37
  A 3.27 3.27 0.0 0 0 158.14 96.64
  A 3.27 3.27 0.0 0 0 161.41 93.37"
/>
<path stroke="#7f7b76" vector-effect="non-scaling-stroke" d="
  M 179.19 92.66
  L 184.67 92.64
  A 0.18 0.18 0.0 0 0 184.85 92.45
  L 184.85 92.34
  A 2.80 2.31 -0.3 0 0 182.03 90.05
  L 181.79 90.05
  A 2.80 2.31 -0.3 0 0 179.01 92.38
  L 179.01 92.49
  A 0.18 0.18 0.0 0 0 179.19 92.66"
/>
</g>
<path fill="#fdf6ec" d="
  M 300.00 0.00
  L 300.00 168.00
  L 0.00 168.00
  L 0.00 0.00
  L 300.00 0.00
  Z
  M 85.88 81.50
  Q 85.88 82.00 86.18 82.31
  Q 86.44 82.59 86.97 82.56
  Q 96.98 82.07 99.91 82.00
  A 0.28 0.27 30.2 0 1 100.05 82.52
  L 88.17 88.63
  A 0.69 0.69 0.0 0 0 87.89 89.59
  L 88.09 89.92
  A 1.14 1.14 0.0 0 0 89.69 90.30
  L 101.01 82.92
  A 0.20 0.20 0.0 0 1 101.29 83.20
  L 93.86 94.52
  A 1.07 1.07 0.0 0 0 94.27 96.06
  L 94.56 96.21
  A 0.89 0.88 -63.1 0 0 95.74 95.82
  L 101.47 84.53
  A 0.38 0.38 0.0 0 1 102.18 84.72
  L 101.54 97.45
  A 0.79 0.79 0.0 0 0 102.37 98.27
  L 103.17 98.22
  A 0.72 0.72 0.0 0 0 103.85 97.46
  L 103.10 85.41
  A 1.90 1.78 -61.5 0 0 102.91 84.68
  Q 102.56 83.94 102.56 83.93
  A 0.46 0.46 0.0 0 1 103.42 83.65
  L 109.68 95.82
  A 0.89 0.89 0.0 0 0 110.88 96.21
  L 111.15 96.07
  A 1.03 1.03 0.0 0 0 111.54 94.59
  L 104.23 83.38
  A 0.25 0.25 0.0 0 1 104.57 83.04
  L 115.77 90.40
  A 0.99 0.99 0.0 0 0 117.19 90.02
  L 117.34 89.72
  A 0.95 0.95 0.0 0 0 116.92 88.44
  L 105.14 82.45
  A 0.26 0.26 0.0 0 1 105.27 81.95
  L 118.57 82.62
  A 0.75 0.73 17.9 0 0 119.22 82.30
  Q 119.44 81.98 119.44 81.54
  Q 119.44 81.11 119.22 80.79
  A 0.75 0.73 -17.8 0 0 118.57 80.47
  L 105.27 81.10
  A 0.26 0.26 0.0 0 1 105.14 80.60
  L 116.94 74.64
  A 0.95 0.95 0.0 0 0 117.36 73.36
  L 117.21 73.06
  A 0.99 0.99 0.0 0 0 115.79 72.68
  L 104.57 80.01
  A 0.25 0.25 0.0 0 1 104.23 79.67
  L 111.57 68.48
  A 1.03 1.03 0.0 0 0 111.19 67.00
  L 110.92 66.86
  A 0.89 0.89 0.0 0 0 109.72 67.25
  L 103.43 79.40
  A 0.46 0.46 0.0 0 1 102.57 79.12
  Q 102.57 79.11 102.92 78.37
  A 1.90 1.78 61.7 0 0 103.11 77.64
  L 103.89 65.59
  A 0.72 0.72 0.0 0 0 103.21 64.83
  L 102.41 64.78
  A 0.79 0.79 0.0 0 0 101.58 65.59
  L 102.19 78.33
  A 0.38 0.38 0.0 0 1 101.48 78.51
  L 95.78 67.21
  A 0.89 0.88 63.3 0 0 94.60 66.82
  L 94.31 66.97
  A 1.07 1.07 0.0 0 0 93.89 68.51
  L 101.29 79.84
  A 0.20 0.20 0.0 0 1 101.01 80.12
  L 89.71 72.72
  A 1.14 1.14 0.0 0 0 88.11 73.09
  L 87.91 73.42
  A 0.69 0.69 0.0 0 0 88.19 74.38
  L 100.05 80.52
  A 0.28 0.27 -30.1 0 1 99.91 81.04
  Q 96.98 80.96 86.97 80.45
  Q 86.44 80.42 86.18 80.70
  Q 85.88 81.01 85.88 81.50
  Z
  M 131.85 65.29
  A 0.50 0.50 0.0 0 0 131.35 64.79
  L 130.39 64.79
  A 0.50 0.50 0.0 0 0 129.89 65.29
  L 129.89 79.35
  A 0.50 0.50 0.0 0 0 130.39 79.85
  L 131.35 79.85
  A 0.50 0.50 0.0 0 0 131.85 79.35
  L 131.85 65.29
  Z
  M 187.33 66.94
  A 0.67 0.66 0.0 0 0 186.66 67.60
  L 186.66 69.67
  A 0.52 0.52 0.0 0 1 186.14 70.19
  L 185.47 70.19
  A 0.50 0.50 0.0 0 0 184.97 70.69
  L 184.97 71.39
  A 0.58 0.58 0.0 0 0 185.55 71.97
  L 186.09 71.97
  A 0.58 0.58 0.0 0 1 186.67 72.55
  L 186.67 77.68
  A 2.13 2.12 9.1 0 0 188.14 79.70
  Q 190.48 80.46 191.04 79.01
  A 0.76 0.76 0.0 0 0 190.06 78.03
  Q 189.10 78.40 188.49 77.45
  A 1.06 0.99 29.9 0 1 188.32 76.89
  L 188.32 72.49
  A 0.51 0.50 -0.0 0 1 188.83 71.99
  L 190.43 71.99
  A 0.78 0.77 90.0 0 0 191.20 71.21
  L 191.20 70.85
  A 0.66 0.65 90.0 0 0 190.55 70.19
  L 188.75 70.19
  A 0.41 0.41 0.0 0 1 188.34 69.78
  L 188.34 67.64
  A 0.70 0.70 0.0 0 0 187.64 66.94
  L 187.33 66.94
  Z
  M 142.12 71.21
  Q 140.13 69.26 137.22 70.67
  A 0.71 0.70 -39.2 0 1 136.47 70.60
  Q 135.98 70.23 135.38 70.14
  A 0.45 0.45 0.0 0 0 134.86 70.58
  L 134.84 79.38
  A 0.48 0.47 0.1 0 0 135.32 79.86
  L 136.01 79.86
  A 0.54 0.54 0.0 0 0 136.55 79.32
  L 136.61 74.13
  A 2.41 2.40 88.2 0 1 138.83 71.76
  L 138.87 71.76
  A 2.08 2.08 0.0 0 1 141.17 73.81
  L 141.21 79.27
  A 0.62 0.61 -0.3 0 0 141.82 79.87
  L 142.38 79.87
  A 0.61 0.61 0.0 0 0 143.00 79.27
  L 143.02 74.20
  A 2.44 2.43 86.7 0 1 145.16 71.78
  L 145.19 71.78
  A 1.97 1.97 0.0 0 1 147.58 73.67
  L 147.73 79.34
  A 0.56 0.55 -0.4 0 0 148.29 79.88
  L 148.67 79.89
  A 0.72 0.71 -1.4 0 0 149.39 79.14
  C 149.23 75.76 150.65 68.25 144.13 70.44
  C 143.32 70.71 143.28 71.16 142.97 71.33
  A 0.71 0.70 -37.2 0 1 142.12 71.21
  Z
  M 154.22 78.77
  C 156.57 80.32 159.20 80.44 161.01 77.89
  C 164.08 73.54 159.27 68.08 154.57 70.85
  A 0.68 0.68 0.0 0 1 153.71 70.72
  Q 153.32 70.26 152.57 70.17
  A 0.49 0.49 0.0 0 0 152.02 70.65
  L 151.86 84.48
  A 0.66 0.66 0.0 0 0 152.52 85.15
  L 152.87 85.15
  A 0.69 0.69 0.0 0 0 153.57 84.47
  L 153.63 79.08
  A 0.39 0.38 17.1 0 1 154.22 78.77
  Z
  M 163.09 74.96
  C 163.08 78.71 167.33 81.33 170.77 79.04
  A 0.53 0.52 58.5 0 1 171.53 79.22
  Q 171.94 79.94 172.53 79.87
  A 0.73 0.72 88.3 0 0 173.16 79.19
  Q 173.19 78.54 173.20 74.99
  Q 173.21 71.44 173.19 70.79
  A 0.73 0.72 -88.0 0 0 172.56 70.10
  Q 171.96 70.03 171.55 70.75
  A 0.53 0.52 -58.2 0 1 170.80 70.93
  C 167.37 68.62 163.10 71.21 163.09 74.96
  Z
  M 174.98 75.02
  C 174.99 78.49 178.66 80.61 181.72 79.73
  Q 183.42 79.23 183.98 78.18
  A 0.81 0.80 -5.3 0 0 182.76 77.17
  C 180.39 79.07 176.99 78.38 176.99 75.01
  C 176.98 71.64 180.38 70.95 182.76 72.84
  A 0.81 0.80 5.2 0 0 183.97 71.83
  Q 183.41 70.78 181.71 70.29
  C 178.64 69.41 174.98 71.55 174.98 75.02
  Z
  M 135.33 94.40
  Q 137.68 94.41 138.19 94.42
  A 1.02 1.00 -10.5 0 1 139.10 95.03
  L 140.21 97.71
  A 0.79 0.79 0.0 0 0 140.94 98.20
  L 141.85 98.20
  A 0.42 0.41 78.6 0 0 142.23 97.62
  Q 138.72 89.09 136.78 84.06
  C 136.51 83.35 136.10 83.09 135.37 83.09
  C 134.63 83.09 134.22 83.35 133.95 84.05
  Q 131.98 89.07 128.42 97.58
  A 0.42 0.41 -78.3 0 0 128.80 98.16
  L 129.71 98.17
  A 0.79 0.79 0.0 0 0 130.44 97.68
  L 131.56 95.01
  A 1.02 1.00 10.8 0 1 132.48 94.40
  Q 132.99 94.40 135.33 94.40
  Z
  M 172.85 89.51
  C 170.46 87.97 167.80 87.88 166.01 90.47
  C 162.95 94.90 167.87 100.36 172.59 97.51
  A 0.68 0.68 0.0 0 1 173.46 97.64
  Q 173.86 98.10 174.62 98.18
  A 0.50 0.49 3.1 0 0 175.17 97.69
  L 175.17 83.72
  A 0.67 0.67 0.0 0 0 174.50 83.05
  L 174.15 83.05
  A 0.70 0.70 0.0 0 0 173.45 83.75
  L 173.45 89.19
  A 0.39 0.38 16.4 0 1 172.85 89.51
  Z
  M 142.91 93.37
  C 142.89 98.07 148.20 99.69 151.69 96.92
  A 0.60 0.59 54.5 0 0 151.82 96.13
  L 151.63 95.84
  A 0.82 0.81 56.7 0 0 150.50 95.60
  L 149.04 96.55
  A 0.62 0.58 -63.7 0 1 148.76 96.66
  C 146.59 96.93 144.79 95.73 144.80 93.38
  C 144.81 91.03 146.62 89.85 148.78 90.14
  A 0.62 0.58 64.2 0 1 149.07 90.24
  L 150.52 91.21
  A 0.82 0.81 -56.2 0 0 151.65 90.98
  L 151.84 90.69
  A 0.60 0.59 -54.0 0 0 151.72 89.89
  C 148.25 87.10 142.93 88.67 142.91 93.37
  Z
  M 153.02 93.35
  C 153.01 97.09 157.26 99.69 160.69 97.41
  A 0.53 0.52 58.5 0 1 161.44 97.59
  Q 161.85 98.31 162.44 98.24
  A 0.73 0.72 88.2 0 0 163.07 97.56
  Q 163.10 96.91 163.11 93.37
  Q 163.11 89.83 163.09 89.18
  A 0.73 0.72 -88.0 0 0 162.46 88.50
  Q 161.87 88.42 161.45 89.14
  A 0.53 0.52 -58.3 0 1 160.70 89.32
  C 157.28 87.02 153.03 89.61 153.02 93.35
  Z
  M 179.55 94.01
  L 186.05 94.01
  A 0.67 0.66 86.9 0 0 186.71 93.27
  Q 186.13 87.90 180.80 88.57
  Q 178.97 88.80 177.90 90.49
  C 174.45 95.92 181.22 101.00 185.76 96.91
  A 0.55 0.55 0.0 0 0 185.64 96.01
  L 185.45 95.91
  A 1.21 1.20 34.5 0 0 184.03 96.17
  Q 183.44 96.83 181.87 96.80
  A 3.17 3.16 73.8 0 1 179.28 95.37
  L 179.02 94.98
  A 0.63 0.63 0.0 0 1 179.55 94.01
  Z
  M 195.83 89.58
  Q 193.83 87.63 190.92 89.05
  A 0.71 0.70 -39.3 0 1 190.17 88.98
  Q 189.68 88.61 189.08 88.52
  A 0.45 0.45 0.0 0 0 188.56 88.96
  L 188.56 97.77
  A 0.48 0.47 -0.0 0 0 189.04 98.24
  L 189.73 98.24
  A 0.54 0.54 0.0 0 0 190.27 97.70
  L 190.32 92.51
  A 2.41 2.41 0.0 0 1 192.54 90.13
  L 192.58 90.13
  A 2.08 2.08 0.0 0 1 194.88 92.18
  L 194.93 97.64
  A 0.62 0.61 -0.5 0 0 195.55 98.24
  L 196.11 98.24
  A 0.61 0.61 0.0 0 0 196.72 97.64
  L 196.73 92.56
  A 2.44 2.43 86.5 0 1 198.87 90.14
  L 198.90 90.14
  A 1.97 1.97 0.0 0 1 201.29 92.02
  L 201.46 97.70
  A 0.56 0.55 -0.5 0 0 202.02 98.24
  L 202.40 98.24
  A 0.72 0.71 -1.5 0 0 203.12 97.49
  C 202.95 94.11 204.35 86.60 197.83 88.80
  C 197.03 89.07 196.99 89.52 196.68 89.69
  A 0.71 0.70 -37.4 0 1 195.83 89.58
  Z
  M 213.75 89.26
  A 0.33 0.33 0.0 0 0 213.58 88.83
  L 212.60 88.42
  A 0.33 0.33 0.0 0 0 212.16 88.60
  L 209.38 95.28
  A 0.33 0.33 0.0 0 1 208.78 95.28
  L 206.22 89.14
  A 0.33 0.33 0.0 0 0 206.04 88.96
  L 204.68 88.39
  A 0.33 0.33 0.0 0 0 204.25 88.83
  L 208.15 98.21
  A 0.33 0.33 0.0 0 1 208.15 98.47
  L 206.41 102.66
  A 0.33 0.33 0.0 0 0 206.58 103.09
  L 207.49 103.46
  A 0.33 0.33 0.0 0 0 207.92 103.29
  L 213.75 89.26
  Z"
/>
<path fill="#000000" d="
  M 119.44 81.54
  Q 119.44 81.98 119.22 82.30
  A 0.75 0.73 17.9 0 1 118.57 82.62
  L 105.27 81.95
  A 0.26 0.26 0.0 0 0 105.14 82.45
  L 116.92 88.44
  A 0.95 0.95 0.0 0 1 117.34 89.72
  L 117.19 90.02
  A 0.99 0.99 0.0 0 1 115.77 90.40
  L 104.57 83.04
  A 0.25 0.25 0.0 0 0 104.23 83.38
  L 111.54 94.59
  A 1.03 1.03 0.0 0 1 111.15 96.07
  L 110.88 96.21
  A 0.89 0.89 0.0 0 1 109.68 95.82
  L 103.42 83.65
  A 0.46 0.46 0.0 0 0 102.56 83.93
  Q 102.56 83.94 102.91 84.68
  A 1.90 1.78 -61.5 0 1 103.10 85.41
  L 103.85 97.46
  A 0.72 0.72 0.0 0 1 103.17 98.22
  L 102.37 98.27
  A 0.79 0.79 0.0 0 1 101.54 97.45
  L 102.18 84.72
  A 0.38 0.38 0.0 0 0 101.47 84.53
  L 95.74 95.82
  A 0.89 0.88 -63.1 0 1 94.56 96.21
  L 94.27 96.06
  A 1.07 1.07 0.0 0 1 93.86 94.52
  L 101.29 83.20
  A 0.20 0.20 0.0 0 0 101.01 82.92
  L 89.69 90.30
  A 1.14 1.14 0.0 0 1 88.09 89.92
  L 87.89 89.59
  A 0.69 0.69 0.0 0 1 88.17 88.63
  L 100.05 82.52
  A 0.28 0.27 30.2 0 0 99.91 82.00
  Q 96.98 82.07 86.97 82.56
  Q 86.44 82.59 86.18 82.31
  Q 85.88 82.00 85.88 81.50
  Q 85.88 81.01 86.18 80.70
  Q 86.44 80.42 86.97 80.45
  Q 96.98 80.96 99.91 81.04
  A 0.28 0.27 -30.1 0 0 100.05 80.52
  L 88.19 74.38
  A 0.69 0.69 0.0 0 1 87.91 73.42
  L 88.11 73.09
  A 1.14 1.14 0.0 0 1 89.71 72.72
  L 101.01 80.12
  A 0.20 0.20 0.0 0 0 101.29 79.84
  L 93.89 68.51
  A 1.07 1.07 0.0 0 1 94.31 66.97
  L 94.60 66.82
  A 0.89 0.88 63.3 0 1 95.78 67.21
  L 101.48 78.51
  A 0.38 0.38 0.0 0 0 102.19 78.33
  L 101.58 65.59
  A 0.79 0.79 0.0 0 1 102.41 64.78
  L 103.21 64.83
  A 0.72 0.72 0.0 0 1 103.89 65.59
  L 103.11 77.64
  A 1.90 1.78 61.7 0 1 102.92 78.37
  Q 102.57 79.11 102.57 79.12
  A 0.46 0.46 0.0 0 0 103.43 79.40
  L 109.72 67.25
  A 0.89 0.89 0.0 0 1 110.92 66.86
  L 111.19 67.00
  A 1.03 1.03 0.0 0 1 111.57 68.48
  L 104.23 79.67
  A 0.25 0.25 0.0 0 0 104.57 80.01
  L 115.79 72.68
  A 0.99 0.99 0.0 0 1 117.21 73.06
  L 117.36 73.36
  A 0.95 0.95 0.0 0 1 116.94 74.64
  L 105.14 80.60
  A 0.26 0.26 0.0 0 0 105.27 81.10
  L 118.57 80.47
  A 0.75 0.73 -17.8 0 1 119.22 80.79
  Q 119.44 81.11 119.44 81.54
  Z"
/>
<rect fill="#000000" x="129.89" y="64.79" width="1.96" height="15.06" rx="0.50"/>
<path fill="#000000" d="
  M 188.34 67.64
  L 188.34 69.78
  A 0.41 0.41 0.0 0 0 188.75 70.19
  L 190.55 70.19
  A 0.66 0.65 90.0 0 1 191.20 70.85
  L 191.20 71.21
  A 0.78 0.77 -90.0 0 1 190.43 71.99
  L 188.83 71.99
  A 0.51 0.50 -0.0 0 0 188.32 72.49
  L 188.32 76.89
  A 1.06 0.99 29.9 0 0 188.49 77.45
  Q 189.10 78.40 190.06 78.03
  A 0.76 0.76 0.0 0 1 191.04 79.01
  Q 190.48 80.46 188.14 79.70
  A 2.13 2.12 9.1 0 1 186.67 77.68
  L 186.67 72.55
  A 0.58 0.58 0.0 0 0 186.09 71.97
  L 185.55 71.97
  A 0.58 0.58 0.0 0 1 184.97 71.39
  L 184.97 70.69
  A 0.50 0.50 0.0 0 1 185.47 70.19
  L 186.14 70.19
  A 0.52 0.52 0.0 0 0 186.66 69.67
  L 186.66 67.60
  A 0.67 0.66 0.0 0 1 187.33 66.94
  L 187.64 66.94
  A 0.70 0.70 0.0 0 1 188.34 67.64
  Z"
/>
<path fill="#000000" d="
  M 142.12 71.21
  A 0.71 0.70 -37.2 0 0 142.97 71.33
  C 143.28 71.16 143.32 70.71 144.13 70.44
  C 150.65 68.25 149.23 75.76 149.39 79.14
  A 0.72 0.71 -1.4 0 1 148.67 79.89
  L 148.29 79.88
  A 0.56 0.55 -0.4 0 1 147.73 79.34
  L 147.58 73.67
  A 1.97 1.97 0.0 0 0 145.19 71.78
  L 145.16 71.78
  A 2.44 2.43 86.7 0 0 143.02 74.20
  L 143.00 79.27
  A 0.61 0.61 0.0 0 1 142.38 79.87
  L 141.82 79.87
  A 0.62 0.61 -0.3 0 1 141.21 79.27
  L 141.17 73.81
  A 2.08 2.08 0.0 0 0 138.87 71.76
  L 138.83 71.76
  A 2.41 2.40 88.2 0 0 136.61 74.13
  L 136.55 79.32
  A 0.54 0.54 0.0 0 1 136.01 79.86
  L 135.32 79.86
  A 0.48 0.47 0.1 0 1 134.84 79.38
  L 134.86 70.58
  A 0.45 0.45 0.0 0 1 135.38 70.14
  Q 135.98 70.23 136.47 70.60
  A 0.71 0.70 -39.2 0 0 137.22 70.67
  Q 140.13 69.26 142.12 71.21
  Z"
/>
<path fill="#000000" d="
  M 154.22 78.77
  A 0.39 0.38 17.1 0 0 153.63 79.08
  L 153.57 84.47
  A 0.69 0.69 0.0 0 1 152.87 85.15
  L 152.52 85.15
  A 0.66 0.66 0.0 0 1 151.86 84.48
  L 152.02 70.65
  A 0.49 0.49 0.0 0 1 152.57 70.17
  Q 153.32 70.26 153.71 70.72
  A 0.68 0.68 0.0 0 0 154.57 70.85
  C 159.27 68.08 164.08 73.54 161.01 77.89
  C 159.20 80.44 156.57 80.32 154.22 78.77
  Z
  M 160.12 74.99
  A 3.25 3.25 0.0 0 0 156.87 71.74
  A 3.25 3.25 0.0 0 0 153.62 74.99
  A 3.25 3.25 0.0 0 0 156.87 78.24
  A 3.25 3.25 0.0 0 0 160.12 74.99
  Z"
/>
<path fill="#000000" d="
  M 163.09 74.96
  C 163.10 71.21 167.37 68.62 170.80 70.93
  A 0.53 0.52 -58.2 0 0 171.55 70.75
  Q 171.96 70.03 172.56 70.10
  A 0.73 0.72 -88.0 0 1 173.19 70.79
  Q 173.21 71.44 173.20 74.99
  Q 173.19 78.54 173.16 79.19
  A 0.73 0.72 88.3 0 1 172.53 79.87
  Q 171.94 79.94 171.53 79.22
  A 0.53 0.52 58.5 0 0 170.77 79.04
  C 167.33 81.33 163.08 78.71 163.09 74.96
  Z
  M 171.46 74.99
  A 3.25 3.25 0.0 0 0 168.21 71.74
  A 3.25 3.25 0.0 0 0 164.96 74.99
  A 3.25 3.25 0.0 0 0 168.21 78.24
  A 3.25 3.25 0.0 0 0 171.46 74.99
  Z"
/>
<path fill="#000000" d="
  M 176.99 75.01
  C 176.99 78.38 180.39 79.07 182.76 77.17
  A 0.81 0.80 -5.3 0 1 183.98 78.18
  Q 183.42 79.23 181.72 79.73
  C 178.66 80.61 174.99 78.49 174.98 75.02
  C 174.98 71.55 178.64 69.41 181.71 70.29
  Q 183.41 70.78 183.97 71.83
  A 0.81 0.80 5.2 0 1 182.76 72.84
  C 180.38 70.95 176.98 71.64 176.99 75.01
  Z"
/>
<circle fill="#fdf6ec" cx="156.87" cy="74.99" r="3.25"/>
<circle fill="#fdf6ec" cx="168.21" cy="74.99" r="3.25"/>
<path fill="#000000" d="
  M 135.37 83.09
  C 136.10 83.09 136.51 83.35 136.78 84.06
  Q 138.72 89.09 142.23 97.62
  A 0.42 0.41 78.6 0 1 141.85 98.20
  L 140.94 98.20
  A 0.79 0.79 0.0 0 1 140.21 97.71
  L 139.10 95.03
  A 1.02 1.00 -10.5 0 0 138.19 94.42
  Q 137.68 94.41 135.33 94.40
  Q 132.99 94.40 132.48 94.40
  A 1.02 1.00 10.8 0 0 131.56 95.01
  L 130.44 97.68
  A 0.79 0.79 0.0 0 1 129.71 98.17
  L 128.80 98.16
  A 0.42 0.41 -78.3 0 1 128.42 97.58
  Q 131.98 89.07 133.95 84.05
  C 134.22 83.35 134.63 83.09 135.37 83.09
  Z
  M 132.91 92.75
  L 137.58 92.75
  A 0.48 0.47 -11.4 0 0 138.02 92.09
  L 135.63 86.33
  A 0.33 0.32 -58.8 0 0 135.03 86.33
  L 132.57 92.24
  A 0.37 0.37 0.0 0 0 132.91 92.75
  Z"
/>
<path fill="#000000" d="
  M 173.45 89.19
  L 173.45 83.75
  A 0.70 0.70 0.0 0 1 174.15 83.05
  L 174.50 83.05
  A 0.67 0.67 0.0 0 1 175.17 83.72
  L 175.17 97.69
  A 0.50 0.49 3.1 0 1 174.62 98.18
  Q 173.86 98.10 173.46 97.64
  A 0.68 0.68 0.0 0 0 172.59 97.51
  C 167.87 100.36 162.95 94.90 166.01 90.47
  C 167.80 87.88 170.46 87.97 172.85 89.51
  A 0.39 0.38 16.4 0 0 173.45 89.19
  Z
  M 173.35 93.37
  A 3.26 3.26 0.0 0 0 170.09 90.11
  A 3.26 3.26 0.0 0 0 166.83 93.37
  A 3.26 3.26 0.0 0 0 170.09 96.63
  A 3.26 3.26 0.0 0 0 173.35 93.37
  Z"
/>
<path fill="#fdf6ec" d="
  M 132.57 92.24
  L 135.03 86.33
  A 0.33 0.32 -12.4 0 1 135.63 86.33
  L 138.02 92.09
  A 0.48 0.47 -11.4 0 1 137.58 92.75
  L 132.91 92.75
  A 0.37 0.37 0.0 0 1 132.57 92.24
  Z"
/>
<path fill="#000000" d="
  M 144.80 93.38
  C 144.79 95.73 146.59 96.93 148.76 96.66
  A 0.62 0.58 -63.7 0 0 149.04 96.55
  L 150.50 95.60
  A 0.82 0.81 56.7 0 1 151.63 95.84
  L 151.82 96.13
  A 0.60 0.59 54.5 0 1 151.69 96.92
  C 148.20 99.69 142.89 98.07 142.91 93.37
  C 142.93 88.67 148.25 87.10 151.72 89.89
  A 0.60 0.59 -54.0 0 1 151.84 90.69
  L 151.65 90.98
  A 0.82 0.81 -56.2 0 1 150.52 91.21
  L 149.07 90.24
  A 0.62 0.58 64.2 0 0 148.78 90.14
  C 146.62 89.85 144.81 91.03 144.80 93.38
  Z"
/>
<path fill="#000000" d="
  M 163.11 93.37
  Q 163.10 96.91 163.07 97.56
  A 0.73 0.72 88.2 0 1 162.44 98.24
  Q 161.85 98.31 161.44 97.59
  A 0.53 0.52 58.5 0 0 160.69 97.41
  C 157.26 99.69 153.01 97.09 153.02 93.35
  C 153.03 89.61 157.28 87.02 160.70 89.32
  A 0.53 0.52 -58.3 0 0 161.45 89.14
  Q 161.87 88.42 162.46 88.50
  A 0.73 0.72 -88.0 0 1 163.09 89.18
  Q 163.11 89.83 163.11 93.37
  Z
  M 161.41 93.37
  A 3.27 3.27 0.0 0 0 158.14 90.10
  A 3.27 3.27 0.0 0 0 154.87 93.37
  A 3.27 3.27 0.0 0 0 158.14 96.64
  A 3.27 3.27 0.0 0 0 161.41 93.37
  Z"
/>
<path fill="#000000" d="
  M 179.55 94.01
  A 0.63 0.63 0.0 0 0 179.02 94.98
  L 179.28 95.37
  A 3.17 3.16 73.8 0 0 181.87 96.80
  Q 183.44 96.83 184.03 96.17
  A 1.21 1.20 34.5 0 1 185.45 95.91
  L 185.64 96.01
  A 0.55 0.55 0.0 0 1 185.76 96.91
  C 181.22 101.00 174.45 95.92 177.90 90.49
  Q 178.97 88.80 180.80 88.57
  Q 186.13 87.90 186.71 93.27
  A 0.67 0.66 86.9 0 1 186.05 94.01
  L 179.55 94.01
  Z
  M 179.19 92.66
  L 184.67 92.64
  A 0.18 0.18 0.0 0 0 184.85 92.45
  L 184.85 92.34
  A 2.80 2.31 -0.3 0 0 182.03 90.05
  L 181.79 90.05
  A 2.80 2.31 -0.3 0 0 179.01 92.38
  L 179.01 92.49
  A 0.18 0.18 0.0 0 0 179.19 92.66
  Z"
/>
<path fill="#000000" d="
  M 196.68 89.69
  C 196.99 89.52 197.03 89.07 197.83 88.80
  C 204.35 86.60 202.95 94.11 203.12 97.49
  A 0.72 0.71 -1.5 0 1 202.40 98.24
  L 202.02 98.24
  A 0.56 0.55 -0.5 0 1 201.46 97.70
  L 201.29 92.02
  A 1.97 1.97 0.0 0 0 198.90 90.14
  L 198.87 90.14
  A 2.44 2.43 86.5 0 0 196.73 92.56
  L 196.72 97.64
  A 0.61 0.61 0.0 0 1 196.11 98.24
  L 195.55 98.24
  A 0.62 0.61 -0.5 0 1 194.93 97.64
  L 194.88 92.18
  A 2.08 2.08 0.0 0 0 192.58 90.13
  L 192.54 90.13
  A 2.41 2.41 0.0 0 0 190.32 92.51
  L 190.27 97.70
  A 0.54 0.54 0.0 0 1 189.73 98.24
  L 189.04 98.24
  A 0.48 0.47 0.0 0 1 188.56 97.77
  L 188.56 88.96
  A 0.45 0.45 0.0 0 1 189.08 88.52
  Q 189.68 88.61 190.17 88.98
  A 0.71 0.70 -39.3 0 0 190.92 89.05
  Q 193.83 87.63 195.83 89.58
  A 0.71 0.70 -37.4 0 0 196.68 89.69
  Z"
/>
<path fill="#000000" d="
  M 213.75 89.26
  L 207.92 103.29
  A 0.33 0.33 0.0 0 1 207.49 103.46
  L 206.58 103.09
  A 0.33 0.33 0.0 0 1 206.41 102.66
  L 208.15 98.47
  A 0.33 0.33 0.0 0 0 208.15 98.21
  L 204.25 88.83
  A 0.33 0.33 0.0 0 1 204.68 88.39
  L 206.04 88.96
  A 0.33 0.33 0.0 0 1 206.22 89.14
  L 208.78 95.28
  A 0.33 0.33 0.0 0 0 209.38 95.28
  L 212.16 88.60
  A 0.33 0.33 0.0 0 1 212.60 88.42
  L 213.58 88.83
  A 0.33 0.33 0.0 0 1 213.75 89.26
  Z"
/>
<circle fill="#fdf6ec" cx="158.14" cy="93.37" r="3.27"/>
<circle fill="#fdf6ec" cx="170.09" cy="93.37" r="3.26"/>
<path fill="#fdf6ec" d="
  M 179.19 92.66
  A 0.18 0.18 0.0 0 1 179.01 92.49
  L 179.01 92.38
  A 2.80 2.31 -0.3 0 1 181.79 90.05
  L 182.03 90.05
  A 2.80 2.31 -0.3 0 1 184.85 92.34
  L 184.85 92.45
  A 0.18 0.18 0.0 0 1 184.67 92.64
  L 179.19 92.66
  Z"
/>
</svg>
