<?xml version="1.0" encoding="UTF-8" standalone="no"?>
<!DOCTYPE svg PUBLIC "-//W3C//DTD SVG 1.1//EN" "http://www.w3.org/Graphics/SVG/1.1/DTD/svg11.dtd">
<svg xmlns="http://www.w3.org/2000/svg" version="1.1" viewBox="0.00 0.00 518.00 97.00">
<g stroke-width="2.00" fill="none" stroke-linecap="butt">
<path stroke="#fed790" vector-effect="non-scaling-stroke" d="
  M 77.50 0.00
  Q 73.34 0.50 71.00 0.54
  Q 64.00 0.63 42.22 0.65"
/>
<path stroke="#898b95" vector-effect="non-scaling-stroke" d="
  M 42.22 0.65
  Q 35.26 0.29 30.25 0.65
  Q 22.31 1.22 15.73 5.44
  Q 1.24 14.73 4.12 31.70
  C 7.39 50.97 31.39 50.85 44.21 59.16
  C 57.38 67.70 51.13 83.34 38.12 86.86
  Q 29.25 89.26 19.96 86.79
  C 11.05 84.43 6.75 76.62 6.01 67.94
  A 0.47 0.46 80.4 0 0 5.44 67.53
  L 0.71 68.70
  A 0.53 0.53 0.0 0 0 0.31 69.32
  Q 2.52 79.73 2.13 90.63
  A 0.51 0.51 0.0 0 0 2.48 91.13
  Q 18.60 96.55 35.45 94.63"
/>
<path stroke="#fed790" vector-effect="non-scaling-stroke" d="
  M 35.45 94.63
  C 37.25 94.68 39.20 95.11 40.86 95.04
  Q 60.69 94.14 78.64 95.09
  A 0.96 0.96 0.0 0 0 79.65 94.13
  L 79.65 91.95
  A 0.93 0.93 0.0 0 0 78.69 91.02
  C 71.55 91.28 68.33 90.14 67.78 82.50
  Q 67.45 77.83 67.45 75.75
  Q 67.44 27.33 67.43 24.25
  Q 67.40 14.85 68.39 10.31
  C 69.36 5.85 74.49 5.09 78.25 5.45
  A 0.62 0.61 -83.3 0 0 78.92 4.91
  Q 79.26 2.34 78.72 0.00"
/>
<path stroke="#80818a" vector-effect="non-scaling-stroke" d="
  M 395.30 23.58
  L 395.30 40.85
  A 0.27 0.27 0.0 0 0 395.57 41.12
  L 398.02 41.12
  A 0.36 0.36 0.0 0 0 398.38 40.76
  L 398.38 23.54
  A 0.44 0.44 0.0 0 1 398.82 23.10
  L 403.82 23.10
  A 0.41 0.41 0.0 0 0 404.23 22.69
  L 404.23 21.05
  A 0.35 0.35 0.0 0 0 403.88 20.70
  L 399.05 20.70
  A 0.64 0.64 0.0 0 1 398.41 20.11
  C 398.06 16.09 399.72 11.88 404.72 13.87
  A 0.32 0.32 0.0 0 0 405.16 13.57
  L 405.16 11.38
  A 0.24 0.23 -83.9 0 0 404.98 11.15
  Q 396.35 9.39 395.29 16.86
  C 395.16 17.77 395.39 19.11 395.31 20.16
  A 0.57 0.56 1.6 0 1 394.74 20.69
  L 391.67 20.69
  A 0.64 0.64 0.0 0 0 391.03 21.33
  L 391.03 22.56
  A 0.51 0.51 0.0 0 0 391.54 23.07
  L 394.78 23.07
  A 0.52 0.51 0.0 0 1 395.30 23.58"
/>
<path stroke="#80818a" vector-effect="non-scaling-stroke" d="
  M 96.95 37.47
  A 0.88 0.87 29.3 0 0 97.25 38.53
  Q 102.03 41.83 109.00 41.43
  C 114.07 41.13 118.43 38.65 118.36 33.09
  Q 118.31 28.03 112.21 26.59
  Q 104.42 24.75 104.28 24.71
  C 100.28 23.59 99.15 19.65 101.99 16.71
  C 105.35 13.23 113.05 14.89 116.17 17.59
  A 0.57 0.56 -57.9 0 0 117.06 17.38
  L 117.66 15.98
  A 0.89 0.89 0.0 0 0 117.36 14.90
  Q 110.93 10.28 103.02 12.68
  C 95.98 14.83 94.72 24.47 102.27 27.25
  Q 104.06 27.91 110.75 29.23
  C 117.53 30.56 115.80 37.86 109.80 38.56
  Q 103.24 39.34 98.46 35.81
  A 0.59 0.59 0.0 0 0 97.56 36.05
  L 96.95 37.47"
/>
<path stroke="#80818a" vector-effect="non-scaling-stroke" d="
  M 127.2811 12.3139
  A 0.28 0.28 0.0 0 0 127.0030 12.0319
  L 123.6031 12.0082
  A 0.28 0.28 0.0 0 0 123.3211 12.2862
  L 123.2989 15.4661
  A 0.28 0.28 0.0 0 0 123.5770 15.7481
  L 126.9769 15.7718
  A 0.28 0.28 0.0 0 0 127.2589 15.4938
  L 127.2811 12.3139"
/>
<path stroke="#80818a" vector-effect="non-scaling-stroke" d="
  M 302.0052 12.4171
  A 0.37 0.37 0.0 0 0 301.6365 12.0458
  L 298.2965 12.0342
  A 0.37 0.37 0.0 0 0 297.9252 12.4029
  L 297.9148 15.4029
  A 0.37 0.37 0.0 0 0 298.2835 15.7742
  L 301.6235 15.7858
  A 0.37 0.37 0.0 0 0 301.9948 15.4171
  L 302.0052 12.4171"
/>
<path stroke="#80818a" vector-effect="non-scaling-stroke" d="
  M 232.18 12.54
  A 0.31 0.31 0.0 0 0 231.87 12.23
  L 229.23 12.23
  A 0.31 0.31 0.0 0 0 228.92 12.54
  L 228.92 40.80
  A 0.31 0.31 0.0 0 0 229.23 41.11
  L 231.87 41.11
  A 0.31 0.31 0.0 0 0 232.18 40.80
  L 232.18 12.54"
/>
<path stroke="#80818a" vector-effect="non-scaling-stroke" d="
  M 293.78 38.46
  C 289.06 39.90 287.99 37.28 288.08 33.01
  Q 288.12 31.00 288.09 23.52
  A 0.42 0.42 0.0 0 1 288.51 23.09
  L 293.59 23.08
  A 0.50 0.49 -0.1 0 0 294.09 22.59
  L 294.09 21.19
  A 0.51 0.51 0.0 0 0 293.58 20.68
  L 288.62 20.69
  A 0.51 0.51 0.0 0 1 288.11 20.18
  L 288.10 14.53
  A 0.32 0.32 0.0 0 0 287.70 14.22
  L 285.41 14.78
  A 0.71 0.71 0.0 0 0 284.88 15.48
  L 284.89 20.20
  A 0.49 0.48 -0.1 0 1 284.40 20.68
  L 281.29 20.68
  A 0.52 0.52 0.0 0 0 280.77 21.21
  L 280.77 22.57
  A 0.52 0.51 -0.1 0 0 281.29 23.08
  L 284.21 23.07
  A 0.63 0.62 89.4 0 1 284.83 23.69
  Q 284.88 29.85 284.93 34.75
  Q 285.02 42.94 293.82 41.11
  A 0.27 0.26 84.7 0 0 294.03 40.85
  L 294.02 38.64
  A 0.19 0.19 0.0 0 0 293.78 38.46"
/>
<path stroke="#80818a" vector-effect="non-scaling-stroke" d="
  M 356.62 38.48
  C 351.90 39.91 350.83 37.29 350.93 33.02
  Q 350.97 31.02 350.96 23.54
  A 0.42 0.42 0.0 0 1 351.38 23.11
  L 356.46 23.11
  A 0.50 0.49 -0.0 0 0 356.96 22.62
  L 356.96 21.22
  A 0.51 0.51 0.0 0 0 356.45 20.71
  L 351.49 20.71
  A 0.51 0.51 0.0 0 1 350.98 20.20
  L 350.98 14.55
  A 0.32 0.32 0.0 0 0 350.59 14.24
  L 348.29 14.80
  A 0.71 0.71 0.0 0 0 347.76 15.49
  L 347.76 20.21
  A 0.49 0.48 0.0 0 1 347.27 20.69
  L 344.16 20.69
  A 0.52 0.52 0.0 0 0 343.64 21.21
  L 343.64 22.57
  A 0.52 0.51 0.0 0 0 344.16 23.08
  L 347.08 23.08
  A 0.63 0.62 89.5 0 1 347.70 23.70
  Q 347.74 29.86 347.78 34.76
  Q 347.85 42.95 356.65 41.13
  A 0.27 0.26 84.8 0 0 356.86 40.87
  L 356.86 38.66
  A 0.19 0.19 0.0 0 0 356.62 38.48"
/>
<path stroke="#80818a" vector-effect="non-scaling-stroke" d="
  M 318.08 38.44
  C 313.36 39.89 312.28 37.27 312.37 33.00
  Q 312.40 31.00 312.37 23.53
  A 0.42 0.42 0.0 0 1 312.79 23.09
  L 317.87 23.08
  A 0.50 0.49 -0.2 0 0 318.37 22.59
  L 318.36 21.19
  A 0.51 0.51 0.0 0 0 317.85 20.68
  L 312.89 20.69
  A 0.51 0.51 0.0 0 1 312.38 20.19
  L 312.36 14.54
  A 0.32 0.32 0.0 0 0 311.97 14.23
  L 309.67 14.80
  A 0.71 0.71 0.0 0 0 309.15 15.49
  L 309.16 20.21
  A 0.49 0.48 -0.2 0 1 308.67 20.69
  L 305.56 20.70
  A 0.52 0.52 0.0 0 0 305.04 21.22
  L 305.05 22.58
  A 0.52 0.51 -0.2 0 0 305.57 23.09
  L 308.49 23.08
  A 0.63 0.62 89.3 0 1 309.11 23.70
  Q 309.17 29.85 309.23 34.75
  Q 309.32 42.94 318.12 41.09
  A 0.27 0.26 84.6 0 0 318.32 40.83
  L 318.32 38.62
  A 0.19 0.19 0.0 0 0 318.08 38.44"
/>
<path stroke="#80818a" vector-effect="non-scaling-stroke" d="
  M 136.39 23.45
  L 136.39 21.07
  A 0.38 0.37 -0.1 0 0 136.01 20.70
  L 133.62 20.70
  A 0.12 0.12 0.0 0 0 133.50 20.82
  L 133.54 40.83
  A 0.31 0.31 0.0 0 0 133.85 41.14
  L 136.43 41.13
  A 0.35 0.35 0.0 0 0 136.78 40.78
  L 136.75 28.38
  A 5.47 5.47 0.0 0 1 141.19 22.99
  L 141.75 22.89
  A 4.19 4.19 0.0 0 1 146.73 26.99
  L 146.76 40.67
  A 0.46 0.45 -0.1 0 0 147.22 41.12
  L 149.62 41.11
  A 0.42 0.41 -0.1 0 0 150.04 40.70
  L 150.01 28.42
  A 5.43 5.43 0.0 0 1 154.54 23.06
  L 155.28 22.93
  A 4.10 4.10 0.0 0 1 160.06 26.96
  L 160.10 40.73
  A 0.37 0.37 0.0 0 0 160.47 41.09
  L 162.92 41.09
  A 0.37 0.37 0.0 0 0 163.29 40.72
  Q 163.26 33.74 163.27 27.88
  C 163.26 25.26 162.57 22.08 159.99 21.03
  Q 153.89 18.55 149.76 23.69
  A 0.38 0.38 0.0 0 1 149.14 23.65
  C 146.25 18.82 140.15 19.27 136.95 23.64
  A 0.31 0.31 0.0 0 1 136.39 23.45"
/>
<path stroke="#80818a" vector-effect="non-scaling-stroke" d="
  M 187.9982 29.1625
  A 8.86 8.86 0.0 0 0 179.0766 20.3646
  L 177.4566 20.3759
  A 8.86 8.86 0.0 0 0 168.6587 29.2975
  L 168.6818 32.5975
  A 8.86 8.86 0.0 0 0 177.6034 41.3954
  L 179.2234 41.3841
  A 8.86 8.86 0.0 0 0 188.0213 32.4625
  L 187.9982 29.1625"
/>
<path stroke="#80818a" vector-effect="non-scaling-stroke" d="
  M 196.45 23.32
  L 196.44 21.13
  A 0.45 0.44 -0.0 0 0 196.00 20.69
  L 193.73 20.69
  A 0.21 0.20 -0.0 0 0 193.53 20.89
  L 193.53 40.75
  A 0.40 0.40 0.0 0 0 193.93 41.15
  L 196.38 41.15
  A 0.46 0.45 90.0 0 0 196.82 40.69
  Q 196.78 35.37 196.75 29.81
  Q 196.71 23.49 202.59 22.92
  Q 207.39 22.46 207.87 27.17
  Q 208.11 29.53 207.98 40.69
  A 0.39 0.38 -89.3 0 0 208.36 41.09
  L 210.82 41.09
  A 0.38 0.38 0.0 0 0 211.20 40.71
  Q 211.14 33.36 211.19 29.57
  C 211.26 23.70 209.65 20.02 203.32 20.31
  C 200.10 20.45 198.95 21.58 197.08 23.57
  A 0.37 0.37 0.0 0 1 196.45 23.32"
/>
<path stroke="#80818a" vector-effect="non-scaling-stroke" d="
  M 242.10 23.30
  L 242.10 21.09
  A 0.45 0.44 0.0 0 0 241.65 20.65
  L 239.37 20.65
  A 0.21 0.20 -0.0 0 0 239.16 20.85
  L 239.16 40.85
  A 0.40 0.40 0.0 0 0 239.56 41.25
  L 242.02 41.25
  A 0.46 0.45 90.0 0 0 242.47 40.79
  Q 242.43 35.43 242.40 29.84
  Q 242.37 23.47 248.29 22.90
  Q 253.12 22.44 253.60 27.18
  Q 253.84 29.56 253.71 40.80
  A 0.39 0.38 -89.3 0 0 254.09 41.20
  L 256.57 41.20
  A 0.38 0.38 0.0 0 0 256.95 40.82
  Q 256.89 33.42 256.94 29.60
  C 257.02 23.69 255.40 19.98 249.02 20.27
  C 245.78 20.41 244.62 21.55 242.74 23.55
  A 0.37 0.37 0.0 0 1 242.10 23.30"
/>
<path stroke="#80818a" vector-effect="non-scaling-stroke" d="
  M 262.62 38.12
  A 1.23 1.23 0.0 0 0 263.15 39.68
  C 267.10 41.84 276.30 43.03 278.21 37.32
  C 280.36 30.90 272.91 30.12 268.83 29.22
  C 266.08 28.61 265.17 26.26 266.81 24.01
  A 1.82 1.81 6.7 0 1 267.62 23.37
  Q 272.21 21.54 276.17 24.38
  A 1.07 1.06 -57.7 0 0 277.71 24.03
  L 277.85 23.78
  A 1.27 1.26 30.6 0 0 277.41 22.09
  Q 272.96 19.35 267.51 20.75
  C 261.27 22.35 261.29 30.56 268.07 31.73
  Q 272.39 32.47 274.08 33.27
  A 2.15 2.05 80.9 0 1 274.79 33.81
  Q 276.82 36.19 274.07 38.19
  C 271.74 39.89 266.03 38.89 264.02 37.13
  A 0.69 0.68 32.3 0 0 262.94 37.37
  L 262.62 38.12"
/>
<path stroke="#80818a" vector-effect="non-scaling-stroke" d="
  M 363.27 31.17
  L 377.49 31.17
  A 0.53 0.53 0.0 0 0 378.02 30.68
  C 379.29 14.52 355.42 17.99 360.09 34.66
  C 362.22 42.28 371.37 43.05 377.07 39.46
  A 1.00 0.99 -23.4 0 0 377.51 38.37
  L 377.27 37.36
  A 0.70 0.69 -25.2 0 0 376.18 36.97
  C 370.93 40.81 363.65 39.46 362.64 31.89
  A 0.64 0.63 -3.9 0 1 363.27 31.17"
/>
<path stroke="#80818a" vector-effect="non-scaling-stroke" d="
  M 425.68 29.24
  A 8.83 8.83 0.0 0 0 416.85 20.41
  L 415.17 20.41
  A 8.83 8.83 0.0 0 0 406.34 29.24
  L 406.34 32.54
  A 8.83 8.83 0.0 0 0 415.17 41.37
  L 416.85 41.37
  A 8.83 8.83 0.0 0 0 425.68 32.54
  L 425.68 29.24"
/>
<path stroke="#80818a" vector-effect="non-scaling-stroke" d="
  M 434.02 23.59
  L 434.03 21.08
  A 0.40 0.40 0.0 0 0 433.63 20.68
  L 431.22 20.68
  A 0.19 0.19 0.0 0 0 431.03 20.87
  L 431.00 40.68
  A 0.44 0.44 0.0 0 0 431.43 41.12
  L 433.80 41.12
  A 0.46 0.46 0.0 0 0 434.26 40.67
  Q 434.34 33.85 434.27 32.30
  C 434.01 26.41 435.72 21.95 442.21 23.21
  A 0.22 0.21 5.7 0 0 442.47 23.00
  L 442.47 20.72
  A 0.28 0.28 0.0 0 0 442.25 20.44
  Q 437.16 19.54 434.62 23.76
  A 0.32 0.32 0.0 0 1 434.02 23.59"
/>
<path stroke="#80818a" vector-effect="non-scaling-stroke" d="
  M 127.00 20.90
  A 0.29 0.29 0.0 0 0 126.71 20.61
  L 124.07 20.61
  A 0.29 0.29 0.0 0 0 123.78 20.90
  L 123.78 40.78
  A 0.29 0.29 0.0 0 0 124.07 41.07
  L 126.71 41.07
  A 0.29 0.29 0.0 0 0 127.00 40.78
  L 127.00 20.90"
/>
<path stroke="#80818a" vector-effect="non-scaling-stroke" d="
  M 301.53 20.87
  A 0.27 0.27 0.0 0 0 301.26 20.60
  L 298.66 20.60
  A 0.27 0.27 0.0 0 0 298.39 20.87
  L 298.39 40.81
  A 0.27 0.27 0.0 0 0 298.66 41.08
  L 301.26 41.08
  A 0.27 0.27 0.0 0 0 301.53 40.81
  L 301.53 20.87"
/>
<path stroke="#80818a" vector-effect="non-scaling-stroke" d="
  M 337.05 38.46
  L 337.03 40.63
  A 0.44 0.43 0.6 0 0 337.46 41.06
  L 339.70 41.09
  A 0.21 0.20 0.6 0 0 339.91 40.89
  L 340.13 21.26
  A 0.39 0.39 0.0 0 0 339.74 20.87
  L 337.32 20.84
  A 0.45 0.44 -89.4 0 0 336.88 21.29
  Q 336.86 26.55 336.83 32.04
  Q 336.79 38.29 330.97 38.78
  Q 326.22 39.18 325.81 34.52
  Q 325.60 32.19 325.85 21.16
  A 0.38 0.37 -88.6 0 0 325.48 20.76
  L 323.04 20.73
  A 0.37 0.37 0.0 0 0 322.67 21.10
  Q 322.64 28.36 322.55 32.11
  C 322.41 37.91 323.96 41.57 330.23 41.36
  C 333.41 41.25 334.56 40.15 336.42 38.21
  A 0.36 0.36 0.0 0 1 337.05 38.46"
/>
<path stroke="#80818a" vector-effect="non-scaling-stroke" d="
  M 314.87 70.78
  L 305.71 70.78
  A 0.41 0.40 0.0 0 0 305.30 71.18
  L 305.30 72.84
  A 0.38 0.37 0.0 0 0 305.68 73.21
  L 312.19 73.21
  A 0.59 0.59 0.0 0 1 312.78 73.80
  L 312.78 81.46
  A 0.87 0.87 0.0 0 1 312.17 82.29
  C 300.27 85.98 293.33 80.11 295.15 67.85
  C 296.49 58.76 307.38 57.06 313.36 62.31
  A 0.59 0.59 0.0 0 0 314.29 62.10
  L 314.88 60.74
  A 1.00 0.99 -58.5 0 0 314.61 59.59
  Q 310.73 56.31 304.77 56.59
  C 294.93 57.05 291.06 63.63 291.41 72.71
  C 291.93 86.42 304.00 87.99 314.77 84.56
  A 1.04 1.03 81.2 0 0 315.49 83.57
  L 315.49 71.41
  A 0.63 0.62 90.0 0 0 314.87 70.78"
/>
<path stroke="#80818a" vector-effect="non-scaling-stroke" d="
  M 115.97 85.75
  A 0.34 0.34 0.0 0 0 116.31 85.41
  L 116.31 83.28
  A 0.34 0.34 0.0 0 0 115.97 82.94
  L 101.89 82.94
  A 0.34 0.34 0.0 0 1 101.55 82.60
  L 101.55 57.22
  A 0.34 0.34 0.0 0 0 101.21 56.88
  L 98.69 56.88
  A 0.34 0.34 0.0 0 0 98.35 57.22
  L 98.35 85.41
  A 0.34 0.34 0.0 0 0 98.69 85.75
  L 115.97 85.75"
/>
<path stroke="#80818a" vector-effect="non-scaling-stroke" d="
  M 203.03 83.10
  C 198.30 84.55 197.21 81.93 197.30 77.64
  Q 197.33 75.64 197.30 68.13
  A 0.42 0.42 0.0 0 1 197.72 67.70
  L 202.82 67.68
  A 0.50 0.49 -0.2 0 0 203.32 67.19
  L 203.31 65.78
  A 0.51 0.51 0.0 0 0 202.80 65.27
  L 197.82 65.29
  A 0.51 0.51 0.0 0 1 197.31 64.78
  L 197.29 59.11
  A 0.32 0.32 0.0 0 0 196.90 58.80
  L 194.59 59.37
  A 0.72 0.71 82.4 0 0 194.06 60.07
  L 194.08 64.80
  A 0.49 0.48 -0.2 0 1 193.59 65.29
  L 190.47 65.30
  A 0.52 0.52 0.0 0 0 189.95 65.82
  L 189.95 67.18
  A 0.52 0.51 -0.2 0 0 190.47 67.69
  L 193.40 67.68
  A 0.63 0.62 89.3 0 1 194.03 68.30
  Q 194.09 74.48 194.15 79.40
  Q 194.24 87.62 203.07 85.76
  A 0.27 0.26 84.6 0 0 203.28 85.50
  L 203.27 83.28
  A 0.19 0.19 0.0 0 0 203.03 83.10"
/>
<path stroke="#80818a" vector-effect="non-scaling-stroke" d="
  M 138.40 73.80
  A 8.82 8.82 0.0 0 0 129.58 64.98
  L 127.92 64.98
  A 8.82 8.82 0.0 0 0 119.10 73.80
  L 119.10 77.24
  A 8.82 8.82 0.0 0 0 127.92 86.06
  L 129.58 86.06
  A 8.82 8.82 0.0 0 0 138.40 77.24
  L 138.40 73.80"
/>
<path stroke="#80818a" vector-effect="non-scaling-stroke" d="
  M 146.76 67.93
  L 146.77 65.73
  A 0.45 0.44 0.1 0 0 146.32 65.30
  L 144.05 65.29
  A 0.21 0.20 0.1 0 0 143.84 65.49
  L 143.81 85.39
  A 0.40 0.40 0.0 0 0 144.21 85.78
  L 146.65 85.79
  A 0.46 0.45 -89.9 0 0 147.10 85.33
  Q 147.07 80.00 147.05 74.44
  Q 147.03 68.10 152.92 67.55
  Q 157.73 67.10 158.20 71.81
  Q 158.43 74.18 158.28 85.36
  A 0.39 0.38 -89.2 0 0 158.66 85.76
  L 161.13 85.76
  A 0.38 0.38 0.0 0 0 161.51 85.38
  Q 161.46 78.02 161.52 74.22
  C 161.60 68.35 160.00 64.65 153.65 64.93
  C 150.43 65.06 149.27 66.20 147.40 68.18
  A 0.37 0.37 0.0 0 1 146.76 67.93"
/>
<path stroke="#80818a" vector-effect="non-scaling-stroke" d="
  M 183.38 82.13
  C 183.37 85.12 183.74 89.40 181.09 91.25
  C 177.92 93.46 172.42 92.34 169.58 90.12
  A 0.34 0.34 0.0 0 0 169.06 90.26
  L 168.31 91.99
  A 0.52 0.51 26.6 0 0 168.53 92.64
  C 175.32 96.56 186.68 96.50 186.39 85.74
  Q 186.20 78.71 186.55 65.49
  A 0.21 0.20 1.3 0 0 186.34 65.28
  L 183.86 65.28
  A 0.26 0.26 0.0 0 0 183.60 65.54
  L 183.60 68.08
  A 0.41 0.41 0.0 0 1 182.86 68.33
  C 177.69 61.64 167.85 64.99 166.91 73.21
  C 166.02 81.02 170.63 86.92 178.99 84.88
  Q 180.66 84.47 182.82 81.93
  A 0.32 0.31 -24.9 0 1 183.38 82.13"
/>
<path stroke="#80818a" vector-effect="non-scaling-stroke" d="
  M 209.72 75.80
  L 223.95 75.83
  A 0.53 0.53 0.0 0 0 224.48 75.34
  C 225.79 59.18 201.90 62.59 206.53 79.28
  C 208.65 86.91 217.80 87.70 223.51 84.12
  A 1.00 0.99 -23.3 0 0 223.95 83.03
  L 223.71 82.02
  A 0.70 0.69 -25.1 0 0 222.62 81.63
  C 217.36 85.46 210.08 84.09 209.09 76.52
  A 0.64 0.63 -3.8 0 1 209.72 75.80"
/>
<path stroke="#80818a" vector-effect="non-scaling-stroke" d="
  M 232.79 68.20
  L 232.79 65.69
  A 0.40 0.40 0.0 0 0 232.39 65.29
  L 229.98 65.29
  A 0.19 0.19 0.0 0 0 229.79 65.48
  L 229.79 85.34
  A 0.44 0.44 0.0 0 0 230.23 85.78
  L 232.60 85.78
  A 0.46 0.46 0.0 0 0 233.06 85.33
  Q 233.13 78.49 233.06 76.93
  C 232.78 71.03 234.49 66.55 241.00 67.80
  A 0.22 0.21 5.5 0 0 241.26 67.59
  L 241.26 65.31
  A 0.29 0.28 -85.2 0 0 241.03 65.03
  Q 235.93 64.14 233.39 68.37
  A 0.32 0.32 0.0 0 1 232.79 68.20"
/>
<path stroke="#80818a" vector-effect="non-scaling-stroke" d="
  M 247.76 68.04
  L 247.76 65.65
  A 0.38 0.37 -0.0 0 0 247.38 65.28
  L 244.98 65.28
  A 0.12 0.12 0.0 0 0 244.86 65.40
  L 244.86 85.46
  A 0.31 0.31 0.0 0 0 245.17 85.77
  L 247.75 85.77
  A 0.35 0.35 0.0 0 0 248.10 85.42
  L 248.10 72.98
  A 5.48 5.48 0.0 0 1 252.57 67.59
  L 253.13 67.49
  A 4.20 4.20 0.0 0 1 258.11 71.62
  L 258.11 85.33
  A 0.46 0.45 -0.0 0 0 258.57 85.78
  L 260.98 85.78
  A 0.42 0.41 0.0 0 0 261.40 85.37
  L 261.40 73.06
  A 5.45 5.44 -4.7 0 1 265.95 67.69
  L 266.70 67.57
  A 4.11 4.11 0.0 0 1 271.48 71.62
  L 271.48 85.42
  A 0.37 0.37 0.0 0 0 271.85 85.79
  L 274.31 85.79
  A 0.37 0.37 0.0 0 0 274.68 85.42
  Q 274.67 78.42 274.69 72.55
  C 274.69 69.92 274.01 66.73 271.42 65.67
  Q 265.31 63.17 261.16 68.31
  A 0.38 0.38 0.0 0 1 260.54 68.27
  C 257.65 63.42 251.54 63.86 248.32 68.23
  A 0.31 0.31 0.0 0 1 247.76 68.04"
/>
<path stroke="#80818a" vector-effect="non-scaling-stroke" d="
  M 340.38 73.79
  A 8.82 8.82 0.0 0 0 331.56 64.97
  L 329.90 64.97
  A 8.82 8.82 0.0 0 0 321.08 73.79
  L 321.08 77.23
  A 8.82 8.82 0.0 0 0 329.90 86.05
  L 331.56 86.05
  A 8.82 8.82 0.0 0 0 340.38 77.23
  L 340.38 73.79"
/>
<path stroke="#80818a" vector-effect="non-scaling-stroke" d="
  M 369.79 75.82
  L 384.02 75.81
  A 0.53 0.53 0.0 0 0 384.55 75.32
  C 385.81 59.15 361.94 62.63 366.61 79.31
  C 368.75 86.93 377.90 87.70 383.60 84.10
  A 1.00 0.99 -23.4 0 0 384.04 83.01
  L 383.80 82.00
  A 0.70 0.70 0.0 0 0 382.71 81.61
  C 377.46 85.46 370.18 84.11 369.16 76.54
  A 0.64 0.63 -4.0 0 1 369.79 75.82"
/>
<path stroke="#80818a" vector-effect="non-scaling-stroke" d="
  M 392.75 68.20
  L 392.75 65.69
  A 0.40 0.40 0.0 0 0 392.35 65.29
  L 389.94 65.29
  A 0.19 0.19 0.0 0 0 389.75 65.48
  L 389.76 85.35
  A 0.44 0.44 0.0 0 0 390.20 85.79
  L 392.57 85.79
  A 0.46 0.46 0.0 0 0 393.03 85.34
  Q 393.10 78.50 393.03 76.93
  C 392.74 71.03 394.45 66.55 400.96 67.80
  A 0.22 0.21 5.5 0 0 401.22 67.59
  L 401.22 65.31
  A 0.29 0.28 -85.2 0 0 400.99 65.03
  Q 395.89 64.14 393.35 68.37
  A 0.32 0.32 0.0 0 1 392.75 68.20"
/>
<path stroke="#80818a" vector-effect="non-scaling-stroke" d="
  M 407.77 67.92
  L 407.77 65.73
  A 0.45 0.44 0.2 0 0 407.33 65.29
  L 405.06 65.28
  A 0.21 0.20 0.2 0 0 404.85 65.48
  L 404.80 85.38
  A 0.40 0.40 0.0 0 0 405.19 85.78
  L 407.64 85.78
  A 0.46 0.45 -89.8 0 0 408.09 85.33
  Q 408.06 79.99 408.05 74.43
  Q 408.04 68.09 413.93 67.54
  Q 418.73 67.10 419.20 71.82
  Q 419.43 74.18 419.27 85.37
  A 0.39 0.38 -89.1 0 0 419.65 85.77
  L 422.12 85.77
  A 0.38 0.38 0.0 0 0 422.50 85.40
  Q 422.46 78.03 422.52 74.23
  C 422.61 68.35 421.01 64.66 414.66 64.93
  C 411.44 65.06 410.28 66.19 408.40 68.17
  A 0.37 0.37 0.0 0 1 407.77 67.92"
/>
<path stroke="#80818a" vector-effect="non-scaling-stroke" d="
  M 427.82 75.40
  C 427.76 80.71 429.97 85.36 435.74 86.07
  Q 440.75 86.69 443.53 82.83
  A 0.31 0.31 0.0 0 1 444.09 83.01
  L 444.09 85.38
  A 0.52 0.52 0.0 0 0 444.61 85.90
  L 446.86 85.90
  A 0.37 0.37 0.0 0 0 447.23 85.52
  Q 447.07 80.66 447.22 75.64
  Q 447.19 70.61 447.48 65.77
  A 0.37 0.37 0.0 0 0 447.11 65.37
  L 444.87 65.32
  A 0.52 0.52 0.0 0 0 444.33 65.83
  L 444.27 68.19
  A 0.31 0.31 0.0 0 1 443.71 68.36
  Q 441.03 64.43 436.00 64.92
  C 430.22 65.49 427.89 70.09 427.82 75.40"
/>
<path stroke="#80818a" vector-effect="non-scaling-stroke" d="
  M 456.89 67.92
  L 456.89 65.71
  A 0.45 0.44 0.1 0 0 456.44 65.27
  L 454.17 65.27
  A 0.21 0.20 0.1 0 0 453.96 65.47
  L 453.91 85.40
  A 0.40 0.40 0.0 0 0 454.31 85.80
  L 456.76 85.81
  A 0.46 0.45 -89.9 0 0 457.21 85.35
  Q 457.19 80.01 457.17 74.44
  Q 457.15 68.09 463.06 67.53
  Q 467.87 67.08 468.34 71.81
  Q 468.58 74.18 468.42 85.39
  A 0.39 0.38 -89.1 0 0 468.80 85.79
  L 471.27 85.80
  A 0.38 0.38 0.0 0 0 471.65 85.42
  Q 471.61 78.04 471.67 74.23
  C 471.76 68.34 470.15 64.64 463.79 64.91
  C 460.56 65.04 459.40 66.18 457.52 68.17
  A 0.37 0.37 0.0 0 1 456.89 67.92"
/>
<path stroke="#80818a" vector-effect="non-scaling-stroke" d="
  M 476.92 75.52
  C 476.93 81.36 480.03 85.84 486.28 86.11
  Q 490.35 86.29 493.31 83.90
  A 0.60 0.59 64.3 0 0 493.51 83.31
  L 493.12 81.76
  A 0.49 0.49 0.0 0 0 492.33 81.51
  Q 491.15 82.53 490.31 82.83
  C 484.21 84.99 480.23 81.68 480.21 75.51
  C 480.20 69.34 484.17 66.01 490.27 68.14
  Q 491.11 68.44 492.30 69.45
  A 0.49 0.49 0.0 0 0 493.09 69.20
  L 493.47 67.64
  A 0.60 0.59 -64.6 0 0 493.27 67.06
  Q 490.29 64.68 486.22 64.88
  C 479.97 65.18 476.90 69.68 476.92 75.52"
/>
<path stroke="#80818a" vector-effect="non-scaling-stroke" d="
  M 500.74 75.80
  L 514.96 75.84
  A 0.53 0.53 0.0 0 0 515.49 75.35
  C 516.81 59.19 492.93 62.59 497.55 79.28
  C 499.66 86.90 508.80 87.70 514.52 84.13
  A 1.00 0.99 -23.2 0 0 514.96 83.04
  L 514.72 82.03
  A 0.70 0.69 -25.0 0 0 513.63 81.64
  C 508.37 85.46 501.09 84.09 500.11 76.51
  A 0.64 0.63 -3.8 0 1 500.74 75.80"
/>
<path stroke="#80818a" vector-effect="non-scaling-stroke" d="
  M 353.26 85.83
  Q 354.35 85.83 354.49 85.75
  A 1.92 1.84 -5.4 0 0 355.23 84.89
  L 363.44 65.81
  A 0.38 0.37 -78.1 0 0 363.10 65.28
  L 360.86 65.28
  A 0.95 0.94 -78.8 0 0 359.99 65.87
  Q 357.02 72.99 353.98 80.49
  Q 353.53 81.60 353.26 81.60
  Q 353.00 81.60 352.55 80.49
  Q 349.52 72.98 346.56 65.86
  A 0.95 0.94 78.9 0 0 345.69 65.27
  L 343.45 65.27
  A 0.38 0.37 78.2 0 0 343.11 65.80
  L 351.30 84.89
  A 1.92 1.84 5.5 0 0 352.03 85.75
  Q 352.17 85.83 353.26 85.83"
/>
<path stroke="#886325" vector-effect="non-scaling-stroke" d="
  M 35.45 94.63
  C 50.03 91.54 61.90 82.96 62.42 67.13
  Q 62.61 61.49 60.75 57.17
  Q 58.71 52.42 54.67 49.11"
/>
<path stroke="#fed790" vector-effect="non-scaling-stroke" d="
  M 54.67 49.11
  L 54.60 23.14"
/>
<path stroke="#886325" vector-effect="non-scaling-stroke" d="
  M 54.60 23.14
  Q 54.75 17.56 54.34 12.36
  Q 53.89 6.60 48.46 5.86
  Q 45.87 5.51 43.20 5.40
  A 0.67 0.67 0.0 0 1 42.57 4.79
  L 42.22 0.65"
/>
<path stroke="#898b95" vector-effect="non-scaling-stroke" d="
  M 54.60 23.14
  C 52.88 13.79 47.36 9.07 38.10 7.82
  C 30.65 6.81 21.50 8.37 16.87 14.35
  C 12.57 19.90 13.26 26.75 18.49 31.45
  C 28.80 40.72 43.44 41.06 54.67 49.11"
/>
<path stroke="#0a0d20" vector-effect="non-scaling-stroke" d="
  M 300.32 13.60
  Q 300.14 13.30 299.92 13.42
  A 0.32 0.31 33.6 0 0 300.05 14.01
  Q 300.22 14.03 300.32 13.91
  Q 300.43 13.79 300.32 13.60"
/>
<path stroke="#0a0d20" vector-effect="non-scaling-stroke" d="
  M 311.99 37.79
  A 0.23 0.23 0.0 0 0 311.54 37.84
  Q 311.53 38.55 312.16 38.97
  A 0.07 0.06 11.1 0 0 312.26 38.91
  L 311.99 37.79"
/>
<path stroke="#80818a" vector-effect="non-scaling-stroke" d="
  M 178.2742 22.6804
  A 8.19 6.66 -90.6 0 0 171.7004 30.9397
  A 8.19 6.66 -90.6 0 0 178.4458 39.0596
  A 8.19 6.66 -90.6 0 0 185.0196 30.8003
  A 8.19 6.66 -90.6 0 0 178.2742 22.6804"
/>
<path stroke="#80818a" vector-effect="non-scaling-stroke" d="
  M 363.25 29.13
  L 375.09 29.17
  A 0.25 0.25 0.0 0 0 375.34 28.92
  L 375.34 28.63
  A 6.10 6.04 0.2 0 0 369.26 22.57
  L 369.12 22.57
  A 6.10 6.04 0.2 0 0 363.00 28.59
  L 363.00 28.88
  A 0.25 0.25 0.0 0 0 363.25 29.13"
/>
<path stroke="#80818a" vector-effect="non-scaling-stroke" d="
  M 415.9514 22.6700
  A 8.20 6.69 -90.2 0 0 409.2900 30.8934
  A 8.20 6.69 -90.2 0 0 416.0086 39.0700
  A 8.20 6.69 -90.2 0 0 422.6700 30.8466
  A 8.20 6.69 -90.2 0 0 415.9514 22.6700"
/>
<path stroke="#0a0d20" vector-effect="non-scaling-stroke" d="
  M 433.13 26.44
  Q 433.21 25.75 433.19 25.70
  A 0.24 0.23 46.2 0 0 432.74 25.69
  Q 432.56 26.26 432.63 26.49
  A 0.26 0.26 0.0 0 0 433.13 26.44"
/>
<path stroke="#0a0d20" vector-effect="non-scaling-stroke" d="
  M 337.19 35.48
  Q 337.19 35.50 337.80 36.28
  A 0.26 0.26 0.0 0 0 338.27 36.12
  L 338.29 35.53
  A 0.55 0.55 0.0 0 0 337.19 35.48"
/>
<path stroke="#0a0d20" vector-effect="non-scaling-stroke" d="
  M 324.7541 36.9977
  A 0.46 0.26 -123.8 0 0 324.7939 37.5246
  A 0.46 0.26 -123.8 0 0 325.2659 37.7623
  A 0.46 0.26 -123.8 0 0 325.2261 37.2354
  A 0.46 0.26 -123.8 0 0 324.7541 36.9977"
/>
<path stroke="#0a0d20" vector-effect="non-scaling-stroke" d="
  M 197.20 83.44
  Q 197.13 83.19 196.97 83.13
  A 0.11 0.11 0.0 0 0 196.83 83.26
  Q 196.90 83.47 197.01 83.57
  A 0.12 0.12 0.0 0 0 197.20 83.44"
/>
<path stroke="#80818a" vector-effect="non-scaling-stroke" d="
  M 128.6638 67.2605
  A 8.23 6.65 -90.6 0 0 122.1004 75.5596
  A 8.23 6.65 -90.6 0 0 128.8362 83.7195
  A 8.23 6.65 -90.6 0 0 135.3996 75.4204
  A 8.23 6.65 -90.6 0 0 128.6638 67.2605"
/>
<path stroke="#80818a" vector-effect="non-scaling-stroke" d="
  M 183.06 73.38
  A 5.91 5.91 0.0 0 0 177.15 67.47
  L 176.13 67.47
  A 5.91 5.91 0.0 0 0 170.22 73.38
  L 170.22 76.78
  A 5.91 5.91 0.0 0 0 176.13 82.69
  L 177.15 82.69
  A 5.91 5.91 0.0 0 0 183.06 76.78
  L 183.06 73.38"
/>
<path stroke="#0a0d20" vector-effect="non-scaling-stroke" d="
  M 184.41 70.73
  Q 184.56 70.39 184.51 70.22
  A 0.39 0.39 0.0 0 0 183.76 70.20
  Q 183.69 70.40 183.87 70.75
  A 0.30 0.30 0.0 0 0 184.41 70.73"
/>
<path stroke="#0a0d20" vector-effect="non-scaling-stroke" d="
  M 183.09 91.20
  A 0.25 0.22 -34.7 0 0 182.98 91.65
  Q 183.00 91.66 183.22 91.52
  A 0.08 0.07 75.1 0 0 183.25 91.46
  Q 183.27 91.20 183.09 91.20"
/>
<path stroke="#80818a" vector-effect="non-scaling-stroke" d="
  M 209.83 73.88
  L 221.45 73.80
  A 0.41 0.41 0.0 0 0 221.86 73.39
  L 221.86 73.25
  A 6.17 6.11 -0.4 0 0 215.65 67.18
  L 215.55 67.18
  A 6.17 6.11 -0.4 0 0 209.42 73.33
  L 209.42 73.47
  A 0.41 0.41 0.0 0 0 209.83 73.88"
/>
<path stroke="#0a0d20" vector-effect="non-scaling-stroke" d="
  M 259.7691 70.0709
  A 0.63 0.31 -104.8 0 0 259.6303 70.7592
  A 0.63 0.31 -104.8 0 0 260.0909 71.2891
  A 0.63 0.31 -104.8 0 0 260.2297 70.6008
  A 0.63 0.31 -104.8 0 0 259.7691 70.0709"
/>
<path stroke="#80818a" vector-effect="non-scaling-stroke" d="
  M 330.6051 67.2608
  A 8.23 6.65 -90.8 0 0 324.0706 75.5828
  A 8.23 6.65 -90.8 0 0 330.8349 83.7192
  A 8.23 6.65 -90.8 0 0 337.3694 75.3972
  A 8.23 6.65 -90.8 0 0 330.6051 67.2608"
/>
<path stroke="#80818a" vector-effect="non-scaling-stroke" d="
  M 369.86 73.87
  L 381.58 73.81
  A 0.32 0.32 0.0 0 0 381.90 73.49
  L 381.89 73.22
  A 6.12 6.09 -0.3 0 0 375.74 67.16
  L 375.62 67.16
  A 6.12 6.09 -0.3 0 0 369.53 73.28
  L 369.54 73.55
  A 0.32 0.32 0.0 0 0 369.86 73.87"
/>
<path stroke="#0a0d20" vector-effect="non-scaling-stroke" d="
  M 406.92 70.95
  L 407.07 70.60
  A 0.14 0.13 78.8 0 0 406.85 70.45
  Q 406.63 70.68 406.78 70.95
  A 0.08 0.07 43.1 0 0 406.92 70.95"
/>
<path stroke="#80818a" vector-effect="non-scaling-stroke" d="
  M 443.8825 73.3079
  A 5.85 5.85 0.0 0 0 438.0121 67.4784
  L 437.0521 67.4817
  A 5.85 5.85 0.0 0 0 431.2225 73.3521
  L 431.2375 77.6521
  A 5.85 5.85 0.0 0 0 437.1079 83.4816
  L 438.0679 83.4783
  A 5.85 5.85 0.0 0 0 443.8975 77.6079
  L 443.8825 73.3079"
/>
<path stroke="#0a0d20" vector-effect="non-scaling-stroke" d="
  M 445.1100 69.4000
  A 0.90 0.07 -90.0 0 0 445.0400 70.3000
  A 0.90 0.07 -90.0 0 0 445.1100 71.2000
  A 0.90 0.07 -90.0 0 0 445.1800 70.3000
  A 0.90 0.07 -90.0 0 0 445.1100 69.4000"
/>
<path stroke="#0a0d20" vector-effect="non-scaling-stroke" d="
  M 444.85 80.23
  Q 444.67 80.94 444.78 81.34
  A 0.28 0.28 0.0 0 0 445.33 81.26
  L 445.33 80.29
  A 0.24 0.24 0.0 0 0 444.85 80.23"
/>
<path stroke="#80818a" vector-effect="non-scaling-stroke" d="
  M 500.80 73.87
  L 512.52 73.81
  A 0.32 0.32 0.0 0 0 512.84 73.49
  L 512.83 73.23
  A 6.16 6.10 -0.3 0 0 506.64 67.16
  L 506.60 67.16
  A 6.16 6.10 -0.3 0 0 500.47 73.29
  L 500.48 73.55
  A 0.32 0.32 0.0 0 0 500.80 73.87"
/>
</g>
<path fill="#ffffff" d="
  M 77.50 0.00
  Q 73.34 0.50 71.00 0.54
  Q 64.00 0.63 42.22 0.65
  Q 35.26 0.29 30.25 0.65
  Q 22.31 1.22 15.73 5.44
  Q 1.24 14.73 4.12 31.70
  C 7.39 50.97 31.39 50.85 44.21 59.16
  C 57.38 67.70 51.13 83.34 38.12 86.86
  Q 29.25 89.26 19.96 86.79
  C 11.05 84.43 6.75 76.62 6.01 67.94
  A 0.47 0.46 80.4 0 0 5.44 67.53
  L 0.71 68.70
  A 0.53 0.53 0.0 0 0 0.31 69.32
  Q 2.52 79.73 2.13 90.63
  A 0.51 0.51 0.0 0 0 2.48 91.13
  Q 18.60 96.55 35.45 94.63
  C 37.25 94.68 39.20 95.11 40.86 95.04
  Q 60.69 94.14 78.64 95.09
  A 0.96 0.96 0.0 0 0 79.65 94.13
  L 79.65 91.95
  A 0.93 0.93 0.0 0 0 78.69 91.02
  C 71.55 91.28 68.33 90.14 67.78 82.50
  Q 67.45 77.83 67.45 75.75
  Q 67.44 27.33 67.43 24.25
  Q 67.40 14.85 68.39 10.31
  C 69.36 5.85 74.49 5.09 78.25 5.45
  A 0.62 0.61 -83.3 0 0 78.92 4.91
  Q 79.26 2.34 78.72 0.00
  L 518.00 0.00
  L 518.00 97.00
  L 0.00 97.00
  L 0.00 0.00
  L 77.50 0.00
  Z
  M 395.30 23.58
  L 395.30 40.85
  A 0.27 0.27 0.0 0 0 395.57 41.12
  L 398.02 41.12
  A 0.36 0.36 0.0 0 0 398.38 40.76
  L 398.38 23.54
  A 0.44 0.44 0.0 0 1 398.82 23.10
  L 403.82 23.10
  A 0.41 0.41 0.0 0 0 404.23 22.69
  L 404.23 21.05
  A 0.35 0.35 0.0 0 0 403.88 20.70
  L 399.05 20.70
  A 0.64 0.64 0.0 0 1 398.41 20.11
  C 398.06 16.09 399.72 11.88 404.72 13.87
  A 0.32 0.32 0.0 0 0 405.16 13.57
  L 405.16 11.38
  A 0.24 0.23 -83.9 0 0 404.98 11.15
  Q 396.35 9.39 395.29 16.86
  C 395.16 17.77 395.39 19.11 395.31 20.16
  A 0.57 0.56 1.6 0 1 394.74 20.69
  L 391.67 20.69
  A 0.64 0.64 0.0 0 0 391.03 21.33
  L 391.03 22.56
  A 0.51 0.51 0.0 0 0 391.54 23.07
  L 394.78 23.07
  A 0.52 0.51 0.0 0 1 395.30 23.58
  Z
  M 96.95 37.47
  A 0.88 0.87 29.3 0 0 97.25 38.53
  Q 102.03 41.83 109.00 41.43
  C 114.07 41.13 118.43 38.65 118.36 33.09
  Q 118.31 28.03 112.21 26.59
  Q 104.42 24.75 104.28 24.71
  C 100.28 23.59 99.15 19.65 101.99 16.71
  C 105.35 13.23 113.05 14.89 116.17 17.59
  A 0.57 0.56 -57.9 0 0 117.06 17.38
  L 117.66 15.98
  A 0.89 0.89 0.0 0 0 117.36 14.90
  Q 110.93 10.28 103.02 12.68
  C 95.98 14.83 94.72 24.47 102.27 27.25
  Q 104.06 27.91 110.75 29.23
  C 117.53 30.56 115.80 37.86 109.80 38.56
  Q 103.24 39.34 98.46 35.81
  A 0.59 0.59 0.0 0 0 97.56 36.05
  L 96.95 37.47
  Z
  M 127.2811 12.3139
  A 0.28 0.28 0.0 0 0 127.0030 12.0319
  L 123.6031 12.0082
  A 0.28 0.28 0.0 0 0 123.3211 12.2862
  L 123.2989 15.4661
  A 0.28 0.28 0.0 0 0 123.5770 15.7481
  L 126.9769 15.7718
  A 0.28 0.28 0.0 0 0 127.2589 15.4938
  L 127.2811 12.3139
  Z
  M 302.0052 12.4171
  A 0.37 0.37 0.0 0 0 301.6365 12.0458
  L 298.2965 12.0342
  A 0.37 0.37 0.0 0 0 297.9252 12.4029
  L 297.9148 15.4029
  A 0.37 0.37 0.0 0 0 298.2835 15.7742
  L 301.6235 15.7858
  A 0.37 0.37 0.0 0 0 301.9948 15.4171
  L 302.0052 12.4171
  Z
  M 232.18 12.54
  A 0.31 0.31 0.0 0 0 231.87 12.23
  L 229.23 12.23
  A 0.31 0.31 0.0 0 0 228.92 12.54
  L 228.92 40.80
  A 0.31 0.31 0.0 0 0 229.23 41.11
  L 231.87 41.11
  A 0.31 0.31 0.0 0 0 232.18 40.80
  L 232.18 12.54
  Z
  M 293.78 38.46
  C 289.06 39.90 287.99 37.28 288.08 33.01
  Q 288.12 31.00 288.09 23.52
  A 0.42 0.42 0.0 0 1 288.51 23.09
  L 293.59 23.08
  A 0.50 0.49 -0.1 0 0 294.09 22.59
  L 294.09 21.19
  A 0.51 0.51 0.0 0 0 293.58 20.68
  L 288.62 20.69
  A 0.51 0.51 0.0 0 1 288.11 20.18
  L 288.10 14.53
  A 0.32 0.32 0.0 0 0 287.70 14.22
  L 285.41 14.78
  A 0.71 0.71 0.0 0 0 284.88 15.48
  L 284.89 20.20
  A 0.49 0.48 -0.1 0 1 284.40 20.68
  L 281.29 20.68
  A 0.52 0.52 0.0 0 0 280.77 21.21
  L 280.77 22.57
  A 0.52 0.51 -0.1 0 0 281.29 23.08
  L 284.21 23.07
  A 0.63 0.62 89.4 0 1 284.83 23.69
  Q 284.88 29.85 284.93 34.75
  Q 285.02 42.94 293.82 41.11
  A 0.27 0.26 84.7 0 0 294.03 40.85
  L 294.02 38.64
  A 0.19 0.19 0.0 0 0 293.78 38.46
  Z
  M 356.62 38.48
  C 351.90 39.91 350.83 37.29 350.93 33.02
  Q 350.97 31.02 350.96 23.54
  A 0.42 0.42 0.0 0 1 351.38 23.11
  L 356.46 23.11
  A 0.50 0.49 -0.0 0 0 356.96 22.62
  L 356.96 21.22
  A 0.51 0.51 0.0 0 0 356.45 20.71
  L 351.49 20.71
  A 0.51 0.51 0.0 0 1 350.98 20.20
  L 350.98 14.55
  A 0.32 0.32 0.0 0 0 350.59 14.24
  L 348.29 14.80
  A 0.71 0.71 0.0 0 0 347.76 15.49
  L 347.76 20.21
  A 0.49 0.48 0.0 0 1 347.27 20.69
  L 344.16 20.69
  A 0.52 0.52 0.0 0 0 343.64 21.21
  L 343.64 22.57
  A 0.52 0.51 0.0 0 0 344.16 23.08
  L 347.08 23.08
  A 0.63 0.62 89.5 0 1 347.70 23.70
  Q 347.74 29.86 347.78 34.76
  Q 347.85 42.95 356.65 41.13
  A 0.27 0.26 84.8 0 0 356.86 40.87
  L 356.86 38.66
  A 0.19 0.19 0.0 0 0 356.62 38.48
  Z
  M 318.08 38.44
  C 313.36 39.89 312.28 37.27 312.37 33.00
  Q 312.40 31.00 312.37 23.53
  A 0.42 0.42 0.0 0 1 312.79 23.09
  L 317.87 23.08
  A 0.50 0.49 -0.2 0 0 318.37 22.59
  L 318.36 21.19
  A 0.51 0.51 0.0 0 0 317.85 20.68
  L 312.89 20.69
  A 0.51 0.51 0.0 0 1 312.38 20.19
  L 312.36 14.54
  A 0.32 0.32 0.0 0 0 311.97 14.23
  L 309.67 14.80
  A 0.71 0.71 0.0 0 0 309.15 15.49
  L 309.16 20.21
  A 0.49 0.48 -0.2 0 1 308.67 20.69
  L 305.56 20.70
  A 0.52 0.52 0.0 0 0 305.04 21.22
  L 305.05 22.58
  A 0.52 0.51 -0.2 0 0 305.57 23.09
  L 308.49 23.08
  A 0.63 0.62 89.3 0 1 309.11 23.70
  Q 309.17 29.85 309.23 34.75
  Q 309.32 42.94 318.12 41.09
  A 0.27 0.26 84.6 0 0 318.32 40.83
  L 318.32 38.62
  A 0.19 0.19 0.0 0 0 318.08 38.44
  Z
  M 136.39 23.45
  L 136.39 21.07
  A 0.38 0.37 -0.1 0 0 136.01 20.70
  L 133.62 20.70
  A 0.12 0.12 0.0 0 0 133.50 20.82
  L 133.54 40.83
  A 0.31 0.31 0.0 0 0 133.85 41.14
  L 136.43 41.13
  A 0.35 0.35 0.0 0 0 136.78 40.78
  L 136.75 28.38
  A 5.47 5.47 0.0 0 1 141.19 22.99
  L 141.75 22.89
  A 4.19 4.19 0.0 0 1 146.73 26.99
  L 146.76 40.67
  A 0.46 0.45 -0.1 0 0 147.22 41.12
  L 149.62 41.11
  A 0.42 0.41 -0.1 0 0 150.04 40.70
  L 150.01 28.42
  A 5.43 5.43 0.0 0 1 154.54 23.06
  L 155.28 22.93
  A 4.10 4.10 0.0 0 1 160.06 26.96
  L 160.10 40.73
  A 0.37 0.37 0.0 0 0 160.47 41.09
  L 162.92 41.09
  A 0.37 0.37 0.0 0 0 163.29 40.72
  Q 163.26 33.74 163.27 27.88
  C 163.26 25.26 162.57 22.08 159.99 21.03
  Q 153.89 18.55 149.76 23.69
  A 0.38 0.38 0.0 0 1 149.14 23.65
  C 146.25 18.82 140.15 19.27 136.95 23.64
  A 0.31 0.31 0.0 0 1 136.39 23.45
  Z
  M 187.9982 29.1625
  A 8.86 8.86 0.0 0 0 179.0766 20.3646
  L 177.4566 20.3759
  A 8.86 8.86 0.0 0 0 168.6587 29.2975
  L 168.6818 32.5975
  A 8.86 8.86 0.0 0 0 177.6034 41.3954
  L 179.2234 41.3841
  A 8.86 8.86 0.0 0 0 188.0213 32.4625
  L 187.9982 29.1625
  Z
  M 196.45 23.32
  L 196.44 21.13
  A 0.45 0.44 -0.0 0 0 196.00 20.69
  L 193.73 20.69
  A 0.21 0.20 -0.0 0 0 193.53 20.89
  L 193.53 40.75
  A 0.40 0.40 0.0 0 0 193.93 41.15
  L 196.38 41.15
  A 0.46 0.45 90.0 0 0 196.82 40.69
  Q 196.78 35.37 196.75 29.81
  Q 196.71 23.49 202.59 22.92
  Q 207.39 22.46 207.87 27.17
  Q 208.11 29.53 207.98 40.69
  A 0.39 0.38 -89.3 0 0 208.36 41.09
  L 210.82 41.09
  A 0.38 0.38 0.0 0 0 211.20 40.71
  Q 211.14 33.36 211.19 29.57
  C 211.26 23.70 209.65 20.02 203.32 20.31
  C 200.10 20.45 198.95 21.58 197.08 23.57
  A 0.37 0.37 0.0 0 1 196.45 23.32
  Z
  M 242.10 23.30
  L 242.10 21.09
  A 0.45 0.44 0.0 0 0 241.65 20.65
  L 239.37 20.65
  A 0.21 0.20 -0.0 0 0 239.16 20.85
  L 239.16 40.85
  A 0.40 0.40 0.0 0 0 239.56 41.25
  L 242.02 41.25
  A 0.46 0.45 90.0 0 0 242.47 40.79
  Q 242.43 35.43 242.40 29.84
  Q 242.37 23.47 248.29 22.90
  Q 253.12 22.44 253.60 27.18
  Q 253.84 29.56 253.71 40.80
  A 0.39 0.38 -89.3 0 0 254.09 41.20
  L 256.57 41.20
  A 0.38 0.38 0.0 0 0 256.95 40.82
  Q 256.89 33.42 256.94 29.60
  C 257.02 23.69 255.40 19.98 249.02 20.27
  C 245.78 20.41 244.62 21.55 242.74 23.55
  A 0.37 0.37 0.0 0 1 242.10 23.30
  Z
  M 262.62 38.12
  A 1.23 1.23 0.0 0 0 263.15 39.68
  C 267.10 41.84 276.30 43.03 278.21 37.32
  C 280.36 30.90 272.91 30.12 268.83 29.22
  C 266.08 28.61 265.17 26.26 266.81 24.01
  A 1.82 1.81 6.7 0 1 267.62 23.37
  Q 272.21 21.54 276.17 24.38
  A 1.07 1.06 -57.7 0 0 277.71 24.03
  L 277.85 23.78
  A 1.27 1.26 30.6 0 0 277.41 22.09
  Q 272.96 19.35 267.51 20.75
  C 261.27 22.35 261.29 30.56 268.07 31.73
  Q 272.39 32.47 274.08 33.27
  A 2.15 2.05 80.9 0 1 274.79 33.81
  Q 276.82 36.19 274.07 38.19
  C 271.74 39.89 266.03 38.89 264.02 37.13
  A 0.69 0.68 32.3 0 0 262.94 37.37
  L 262.62 38.12
  Z
  M 363.27 31.17
  L 377.49 31.17
  A 0.53 0.53 0.0 0 0 378.02 30.68
  C 379.29 14.52 355.42 17.99 360.09 34.66
  C 362.22 42.28 371.37 43.05 377.07 39.46
  A 1.00 0.99 -23.4 0 0 377.51 38.37
  L 377.27 37.36
  A 0.70 0.69 -25.2 0 0 376.18 36.97
  C 370.93 40.81 363.65 39.46 362.64 31.89
  A 0.64 0.63 -3.9 0 1 363.27 31.17
  Z
  M 425.68 29.24
  A 8.83 8.83 0.0 0 0 416.85 20.41
  L 415.17 20.41
  A 8.83 8.83 0.0 0 0 406.34 29.24
  L 406.34 32.54
  A 8.83 8.83 0.0 0 0 415.17 41.37
  L 416.85 41.37
  A 8.83 8.83 0.0 0 0 425.68 32.54
  L 425.68 29.24
  Z
  M 434.02 23.59
  L 434.03 21.08
  A 0.40 0.40 0.0 0 0 433.63 20.68
  L 431.22 20.68
  A 0.19 0.19 0.0 0 0 431.03 20.87
  L 431.00 40.68
  A 0.44 0.44 0.0 0 0 431.43 41.12
  L 433.80 41.12
  A 0.46 0.46 0.0 0 0 434.26 40.67
  Q 434.34 33.85 434.27 32.30
  C 434.01 26.41 435.72 21.95 442.21 23.21
  A 0.22 0.21 5.7 0 0 442.47 23.00
  L 442.47 20.72
  A 0.28 0.28 0.0 0 0 442.25 20.44
  Q 437.16 19.54 434.62 23.76
  A 0.32 0.32 0.0 0 1 434.02 23.59
  Z
  M 127.00 20.90
  A 0.29 0.29 0.0 0 0 126.71 20.61
  L 124.07 20.61
  A 0.29 0.29 0.0 0 0 123.78 20.90
  L 123.78 40.78
  A 0.29 0.29 0.0 0 0 124.07 41.07
  L 126.71 41.07
  A 0.29 0.29 0.0 0 0 127.00 40.78
  L 127.00 20.90
  Z
  M 301.53 20.87
  A 0.27 0.27 0.0 0 0 301.26 20.60
  L 298.66 20.60
  A 0.27 0.27 0.0 0 0 298.39 20.87
  L 298.39 40.81
  A 0.27 0.27 0.0 0 0 298.66 41.08
  L 301.26 41.08
  A 0.27 0.27 0.0 0 0 301.53 40.81
  L 301.53 20.87
  Z
  M 337.05 38.46
  L 337.03 40.63
  A 0.44 0.43 0.6 0 0 337.46 41.06
  L 339.70 41.09
  A 0.21 0.20 0.6 0 0 339.91 40.89
  L 340.13 21.26
  A 0.39 0.39 0.0 0 0 339.74 20.87
  L 337.32 20.84
  A 0.45 0.44 -89.4 0 0 336.88 21.29
  Q 336.86 26.55 336.83 32.04
  Q 336.79 38.29 330.97 38.78
  Q 326.22 39.18 325.81 34.52
  Q 325.60 32.19 325.85 21.16
  A 0.38 0.37 -88.6 0 0 325.48 20.76
  L 323.04 20.73
  A 0.37 0.37 0.0 0 0 322.67 21.10
  Q 322.64 28.36 322.55 32.11
  C 322.41 37.91 323.96 41.57 330.23 41.36
  C 333.41 41.25 334.56 40.15 336.42 38.21
  A 0.36 0.36 0.0 0 1 337.05 38.46
  Z
  M 314.87 70.78
  L 305.71 70.78
  A 0.41 0.40 0.0 0 0 305.30 71.18
  L 305.30 72.84
  A 0.38 0.37 0.0 0 0 305.68 73.21
  L 312.19 73.21
  A 0.59 0.59 0.0 0 1 312.78 73.80
  L 312.78 81.46
  A 0.87 0.87 0.0 0 1 312.17 82.29
  C 300.27 85.98 293.33 80.11 295.15 67.85
  C 296.49 58.76 307.38 57.06 313.36 62.31
  A 0.59 0.59 0.0 0 0 314.29 62.10
  L 314.88 60.74
  A 1.00 0.99 -58.5 0 0 314.61 59.59
  Q 310.73 56.31 304.77 56.59
  C 294.93 57.05 291.06 63.63 291.41 72.71
  C 291.93 86.42 304.00 87.99 314.77 84.56
  A 1.04 1.03 81.2 0 0 315.49 83.57
  L 315.49 71.41
  A 0.63 0.62 90.0 0 0 314.87 70.78
  Z
  M 115.97 85.75
  A 0.34 0.34 0.0 0 0 116.31 85.41
  L 116.31 83.28
  A 0.34 0.34 0.0 0 0 115.97 82.94
  L 101.89 82.94
  A 0.34 0.34 0.0 0 1 101.55 82.60
  L 101.55 57.22
  A 0.34 0.34 0.0 0 0 101.21 56.88
  L 98.69 56.88
  A 0.34 0.34 0.0 0 0 98.35 57.22
  L 98.35 85.41
  A 0.34 0.34 0.0 0 0 98.69 85.75
  L 115.97 85.75
  Z
  M 203.03 83.10
  C 198.30 84.55 197.21 81.93 197.30 77.64
  Q 197.33 75.64 197.30 68.13
  A 0.42 0.42 0.0 0 1 197.72 67.70
  L 202.82 67.68
  A 0.50 0.49 -0.2 0 0 203.32 67.19
  L 203.31 65.78
  A 0.51 0.51 0.0 0 0 202.80 65.27
  L 197.82 65.29
  A 0.51 0.51 0.0 0 1 197.31 64.78
  L 197.29 59.11
  A 0.32 0.32 0.0 0 0 196.90 58.80
  L 194.59 59.37
  A 0.72 0.71 82.4 0 0 194.06 60.07
  L 194.08 64.80
  A 0.49 0.48 -0.2 0 1 193.59 65.29
  L 190.47 65.30
  A 0.52 0.52 0.0 0 0 189.95 65.82
  L 189.95 67.18
  A 0.52 0.51 -0.2 0 0 190.47 67.69
  L 193.40 67.68
  A 0.63 0.62 89.3 0 1 194.03 68.30
  Q 194.09 74.48 194.15 79.40
  Q 194.24 87.62 203.07 85.76
  A 0.27 0.26 84.6 0 0 203.28 85.50
  L 203.27 83.28
  A 0.19 0.19 0.0 0 0 203.03 83.10
  Z
  M 138.40 73.80
  A 8.82 8.82 0.0 0 0 129.58 64.98
  L 127.92 64.98
  A 8.82 8.82 0.0 0 0 119.10 73.80
  L 119.10 77.24
  A 8.82 8.82 0.0 0 0 127.92 86.06
  L 129.58 86.06
  A 8.82 8.82 0.0 0 0 138.40 77.24
  L 138.40 73.80
  Z
  M 146.76 67.93
  L 146.77 65.73
  A 0.45 0.44 0.1 0 0 146.32 65.30
  L 144.05 65.29
  A 0.21 0.20 0.1 0 0 143.84 65.49
  L 143.81 85.39
  A 0.40 0.40 0.0 0 0 144.21 85.78
  L 146.65 85.79
  A 0.46 0.45 -89.9 0 0 147.10 85.33
  Q 147.07 80.00 147.05 74.44
  Q 147.03 68.10 152.92 67.55
  Q 157.73 67.10 158.20 71.81
  Q 158.43 74.18 158.28 85.36
  A 0.39 0.38 -89.2 0 0 158.66 85.76
  L 161.13 85.76
  A 0.38 0.38 0.0 0 0 161.51 85.38
  Q 161.46 78.02 161.52 74.22
  C 161.60 68.35 160.00 64.65 153.65 64.93
  C 150.43 65.06 149.27 66.20 147.40 68.18
  A 0.37 0.37 0.0 0 1 146.76 67.93
  Z
  M 183.38 82.13
  C 183.37 85.12 183.74 89.40 181.09 91.25
  C 177.92 93.46 172.42 92.34 169.58 90.12
  A 0.34 0.34 0.0 0 0 169.06 90.26
  L 168.31 91.99
  A 0.52 0.51 26.6 0 0 168.53 92.64
  C 175.32 96.56 186.68 96.50 186.39 85.74
  Q 186.20 78.71 186.55 65.49
  A 0.21 0.20 1.3 0 0 186.34 65.28
  L 183.86 65.28
  A 0.26 0.26 0.0 0 0 183.60 65.54
  L 183.60 68.08
  A 0.41 0.41 0.0 0 1 182.86 68.33
  C 177.69 61.64 167.85 64.99 166.91 73.21
  C 166.02 81.02 170.63 86.92 178.99 84.88
  Q 180.66 84.47 182.82 81.93
  A 0.32 0.31 -24.9 0 1 183.38 82.13
  Z
  M 209.72 75.80
  L 223.95 75.83
  A 0.53 0.53 0.0 0 0 224.48 75.34
  C 225.79 59.18 201.90 62.59 206.53 79.28
  C 208.65 86.91 217.80 87.70 223.51 84.12
  A 1.00 0.99 -23.3 0 0 223.95 83.03
  L 223.71 82.02
  A 0.70 0.69 -25.1 0 0 222.62 81.63
  C 217.36 85.46 210.08 84.09 209.09 76.52
  A 0.64 0.63 -3.8 0 1 209.72 75.80
  Z
  M 232.79 68.20
  L 232.79 65.69
  A 0.40 0.40 0.0 0 0 232.39 65.29
  L 229.98 65.29
  A 0.19 0.19 0.0 0 0 229.79 65.48
  L 229.79 85.34
  A 0.44 0.44 0.0 0 0 230.23 85.78
  L 232.60 85.78
  A 0.46 0.46 0.0 0 0 233.06 85.33
  Q 233.13 78.49 233.06 76.93
  C 232.78 71.03 234.49 66.55 241.00 67.80
  A 0.22 0.21 5.5 0 0 241.26 67.59
  L 241.26 65.31
  A 0.29 0.28 -85.2 0 0 241.03 65.03
  Q 235.93 64.14 233.39 68.37
  A 0.32 0.32 0.0 0 1 232.79 68.20
  Z
  M 247.76 68.04
  L 247.76 65.65
  A 0.38 0.37 -0.0 0 0 247.38 65.28
  L 244.98 65.28
  A 0.12 0.12 0.0 0 0 244.86 65.40
  L 244.86 85.46
  A 0.31 0.31 0.0 0 0 245.17 85.77
  L 247.75 85.77
  A 0.35 0.35 0.0 0 0 248.10 85.42
  L 248.10 72.98
  A 5.48 5.48 0.0 0 1 252.57 67.59
  L 253.13 67.49
  A 4.20 4.20 0.0 0 1 258.11 71.62
  L 258.11 85.33
  A 0.46 0.45 -0.0 0 0 258.57 85.78
  L 260.98 85.78
  A 0.42 0.41 0.0 0 0 261.40 85.37
  L 261.40 73.06
  A 5.45 5.44 -4.7 0 1 265.95 67.69
  L 266.70 67.57
  A 4.11 4.11 0.0 0 1 271.48 71.62
  L 271.48 85.42
  A 0.37 0.37 0.0 0 0 271.85 85.79
  L 274.31 85.79
  A 0.37 0.37 0.0 0 0 274.68 85.42
  Q 274.67 78.42 274.69 72.55
  C 274.69 69.92 274.01 66.73 271.42 65.67
  Q 265.31 63.17 261.16 68.31
  A 0.38 0.38 0.0 0 1 260.54 68.27
  C 257.65 63.42 251.54 63.86 248.32 68.23
  A 0.31 0.31 0.0 0 1 247.76 68.04
  Z
  M 340.38 73.79
  A 8.82 8.82 0.0 0 0 331.56 64.97
  L 329.90 64.97
  A 8.82 8.82 0.0 0 0 321.08 73.79
  L 321.08 77.23
  A 8.82 8.82 0.0 0 0 329.90 86.05
  L 331.56 86.05
  A 8.82 8.82 0.0 0 0 340.38 77.23
  L 340.38 73.79
  Z
  M 369.79 75.82
  L 384.02 75.81
  A 0.53 0.53 0.0 0 0 384.55 75.32
  C 385.81 59.15 361.94 62.63 366.61 79.31
  C 368.75 86.93 377.90 87.70 383.60 84.10
  A 1.00 0.99 -23.4 0 0 384.04 83.01
  L 383.80 82.00
  A 0.70 0.70 0.0 0 0 382.71 81.61
  C 377.46 85.46 370.18 84.11 369.16 76.54
  A 0.64 0.63 -4.0 0 1 369.79 75.82
  Z
  M 392.75 68.20
  L 392.75 65.69
  A 0.40 0.40 0.0 0 0 392.35 65.29
  L 389.94 65.29
  A 0.19 0.19 0.0 0 0 389.75 65.48
  L 389.76 85.35
  A 0.44 0.44 0.0 0 0 390.20 85.79
  L 392.57 85.79
  A 0.46 0.46 0.0 0 0 393.03 85.34
  Q 393.10 78.50 393.03 76.93
  C 392.74 71.03 394.45 66.55 400.96 67.80
  A 0.22 0.21 5.5 0 0 401.22 67.59
  L 401.22 65.31
  A 0.29 0.28 -85.2 0 0 400.99 65.03
  Q 395.89 64.14 393.35 68.37
  A 0.32 0.32 0.0 0 1 392.75 68.20
  Z
  M 407.77 67.92
  L 407.77 65.73
  A 0.45 0.44 0.2 0 0 407.33 65.29
  L 405.06 65.28
  A 0.21 0.20 0.2 0 0 404.85 65.48
  L 404.80 85.38
  A 0.40 0.40 0.0 0 0 405.19 85.78
  L 407.64 85.78
  A 0.46 0.45 -89.8 0 0 408.09 85.33
  Q 408.06 79.99 408.05 74.43
  Q 408.04 68.09 413.93 67.54
  Q 418.73 67.10 419.20 71.82
  Q 419.43 74.18 419.27 85.37
  A 0.39 0.38 -89.1 0 0 419.65 85.77
  L 422.12 85.77
  A 0.38 0.38 0.0 0 0 422.50 85.40
  Q 422.46 78.03 422.52 74.23
  C 422.61 68.35 421.01 64.66 414.66 64.93
  C 411.44 65.06 410.28 66.19 408.40 68.17
  A 0.37 0.37 0.0 0 1 407.77 67.92
  Z
  M 427.82 75.40
  C 427.76 80.71 429.97 85.36 435.74 86.07
  Q 440.75 86.69 443.53 82.83
  A 0.31 0.31 0.0 0 1 444.09 83.01
  L 444.09 85.38
  A 0.52 0.52 0.0 0 0 444.61 85.90
  L 446.86 85.90
  A 0.37 0.37 0.0 0 0 447.23 85.52
  Q 447.07 80.66 447.22 75.64
  Q 447.19 70.61 447.48 65.77
  A 0.37 0.37 0.0 0 0 447.11 65.37
  L 444.87 65.32
  A 0.52 0.52 0.0 0 0 444.33 65.83
  L 444.27 68.19
  A 0.31 0.31 0.0 0 1 443.71 68.36
  Q 441.03 64.43 436.00 64.92
  C 430.22 65.49 427.89 70.09 427.82 75.40
  Z
  M 456.89 67.92
  L 456.89 65.71
  A 0.45 0.44 0.1 0 0 456.44 65.27
  L 454.17 65.27
  A 0.21 0.20 0.1 0 0 453.96 65.47
  L 453.91 85.40
  A 0.40 0.40 0.0 0 0 454.31 85.80
  L 456.76 85.81
  A 0.46 0.45 -89.9 0 0 457.21 85.35
  Q 457.19 80.01 457.17 74.44
  Q 457.15 68.09 463.06 67.53
  Q 467.87 67.08 468.34 71.81
  Q 468.58 74.18 468.42 85.39
  A 0.39 0.38 -89.1 0 0 468.80 85.79
  L 471.27 85.80
  A 0.38 0.38 0.0 0 0 471.65 85.42
  Q 471.61 78.04 471.67 74.23
  C 471.76 68.34 470.15 64.64 463.79 64.91
  C 460.56 65.04 459.40 66.18 457.52 68.17
  A 0.37 0.37 0.0 0 1 456.89 67.92
  Z
  M 476.92 75.52
  C 476.93 81.36 480.03 85.84 486.28 86.11
  Q 490.35 86.29 493.31 83.90
  A 0.60 0.59 64.3 0 0 493.51 83.31
  L 493.12 81.76
  A 0.49 0.49 0.0 0 0 492.33 81.51
  Q 491.15 82.53 490.31 82.83
  C 484.21 84.99 480.23 81.68 480.21 75.51
  C 480.20 69.34 484.17 66.01 490.27 68.14
  Q 491.11 68.44 492.30 69.45
  A 0.49 0.49 0.0 0 0 493.09 69.20
  L 493.47 67.64
  A 0.60 0.59 -64.6 0 0 493.27 67.06
  Q 490.29 64.68 486.22 64.88
  C 479.97 65.18 476.90 69.68 476.92 75.52
  Z
  M 500.74 75.80
  L 514.96 75.84
  A 0.53 0.53 0.0 0 0 515.49 75.35
  C 516.81 59.19 492.93 62.59 497.55 79.28
  C 499.66 86.90 508.80 87.70 514.52 84.13
  A 1.00 0.99 -23.2 0 0 514.96 83.04
  L 514.72 82.03
  A 0.70 0.69 -25.0 0 0 513.63 81.64
  C 508.37 85.46 501.09 84.09 500.11 76.51
  A 0.64 0.63 -3.8 0 1 500.74 75.80
  Z
  M 353.26 85.83
  Q 354.35 85.83 354.49 85.75
  A 1.92 1.84 -5.4 0 0 355.23 84.89
  L 363.44 65.81
  A 0.38 0.37 -78.1 0 0 363.10 65.28
  L 360.86 65.28
  A 0.95 0.94 -78.8 0 0 359.99 65.87
  Q 357.02 72.99 353.98 80.49
  Q 353.53 81.60 353.26 81.60
  Q 353.00 81.60 352.55 80.49
  Q 349.52 72.98 346.56 65.86
  A 0.95 0.94 78.9 0 0 345.69 65.27
  L 343.45 65.27
  A 0.38 0.37 78.2 0 0 343.11 65.80
  L 351.30 84.89
  A 1.92 1.84 5.5 0 0 352.03 85.75
  Q 352.17 85.83 353.26 85.83
  Z"
/>
<path fill="#fcaf20" d="
  M 78.72 0.00
  Q 79.26 2.34 78.92 4.91
  A 0.62 0.61 -83.3 0 1 78.25 5.45
  C 74.49 5.09 69.36 5.85 68.39 10.31
  Q 67.40 14.85 67.43 24.25
  Q 67.44 27.33 67.45 75.75
  Q 67.45 77.83 67.78 82.50
  C 68.33 90.14 71.55 91.28 78.69 91.02
  A 0.93 0.93 0.0 0 1 79.65 91.95
  L 79.65 94.13
  A 0.96 0.96 0.0 0 1 78.64 95.09
  Q 60.69 94.14 40.86 95.04
  C 39.20 95.11 37.25 94.68 35.45 94.63
  C 50.03 91.54 61.90 82.96 62.42 67.13
  Q 62.61 61.49 60.75 57.17
  Q 58.71 52.42 54.67 49.11
  L 54.60 23.14
  Q 54.75 17.56 54.34 12.36
  Q 53.89 6.60 48.46 5.86
  Q 45.87 5.51 43.20 5.40
  A 0.67 0.67 0.0 0 1 42.57 4.79
  L 42.22 0.65
  Q 64.00 0.63 71.00 0.54
  Q 73.34 0.50 77.50 0.00
  L 78.72 0.00
  Z"
/>
<path fill="#13162a" d="
  M 42.22 0.65
  L 42.57 4.79
  A 0.67 0.67 0.0 0 0 43.20 5.40
  Q 45.87 5.51 48.46 5.86
  Q 53.89 6.60 54.34 12.36
  Q 54.75 17.56 54.60 23.14
  C 52.88 13.79 47.36 9.07 38.10 7.82
  C 30.65 6.81 21.50 8.37 16.87 14.35
  C 12.57 19.90 13.26 26.75 18.49 31.45
  C 28.80 40.72 43.44 41.06 54.67 49.11
  Q 58.71 52.42 60.75 57.17
  Q 62.61 61.49 62.42 67.13
  C 61.90 82.96 50.03 91.54 35.45 94.63
  Q 18.60 96.55 2.48 91.13
  A 0.51 0.51 0.0 0 1 2.13 90.63
  Q 2.52 79.73 0.31 69.32
  A 0.53 0.53 0.0 0 1 0.71 68.70
  L 5.44 67.53
  A 0.47 0.46 80.4 0 1 6.01 67.94
  C 6.75 76.62 11.05 84.43 19.96 86.79
  Q 29.25 89.26 38.12 86.86
  C 51.13 83.34 57.38 67.70 44.21 59.16
  C 31.39 50.85 7.39 50.97 4.12 31.70
  Q 1.24 14.73 15.73 5.44
  Q 22.31 1.22 30.25 0.65
  Q 35.26 0.29 42.22 0.65
  Z"
/>
<path fill="#ffffff" d="
  M 54.60 23.14
  L 54.67 49.11
  C 43.44 41.06 28.80 40.72 18.49 31.45
  C 13.26 26.75 12.57 19.90 16.87 14.35
  C 21.50 8.37 30.65 6.81 38.10 7.82
  C 47.36 9.07 52.88 13.79 54.60 23.14
  Z"
/>
<path fill="#010315" d="
  M 394.78 23.07
  L 391.54 23.07
  A 0.51 0.51 0.0 0 1 391.03 22.56
  L 391.03 21.33
  A 0.64 0.64 0.0 0 1 391.67 20.69
  L 394.74 20.69
  A 0.57 0.56 1.6 0 0 395.31 20.16
  C 395.39 19.11 395.16 17.77 395.29 16.86
  Q 396.35 9.39 404.98 11.15
  A 0.24 0.23 -83.9 0 1 405.16 11.38
  L 405.16 13.57
  A 0.32 0.32 0.0 0 1 404.72 13.87
  C 399.72 11.88 398.06 16.09 398.41 20.11
  A 0.64 0.64 0.0 0 0 399.05 20.70
  L 403.88 20.70
  A 0.35 0.35 0.0 0 1 404.23 21.05
  L 404.23 22.69
  A 0.41 0.41 0.0 0 1 403.82 23.10
  L 398.82 23.10
  A 0.44 0.44 0.0 0 0 398.38 23.54
  L 398.38 40.76
  A 0.36 0.36 0.0 0 1 398.02 41.12
  L 395.57 41.12
  A 0.27 0.27 0.0 0 1 395.30 40.85
  L 395.30 23.58
  A 0.52 0.51 -0.0 0 0 394.78 23.07
  Z"
/>
<path fill="#010315" d="
  M 98.46 35.81
  Q 103.24 39.34 109.80 38.56
  C 115.80 37.86 117.53 30.56 110.75 29.23
  Q 104.06 27.91 102.27 27.25
  C 94.72 24.47 95.98 14.83 103.02 12.68
  Q 110.93 10.28 117.36 14.90
  A 0.89 0.89 0.0 0 1 117.66 15.98
  L 117.06 17.38
  A 0.57 0.56 -57.9 0 1 116.17 17.59
  C 113.05 14.89 105.35 13.23 101.99 16.71
  C 99.15 19.65 100.28 23.59 104.28 24.71
  Q 104.42 24.75 112.21 26.59
  Q 118.31 28.03 118.36 33.09
  C 118.43 38.65 114.07 41.13 109.00 41.43
  Q 102.03 41.83 97.25 38.53
  A 0.88 0.87 29.3 0 1 96.95 37.47
  L 97.56 36.05
  A 0.59 0.59 0.0 0 1 98.46 35.81
  Z"
/>
<rect fill="#010315" x="-1.98" y="-1.87" transform="translate(125.29,13.89) rotate(0.4)" width="3.96" height="3.74" rx="0.28"/>
<path fill="#010315" d="
  M 301.9948 15.4171
  A 0.37 0.37 0.0 0 1 301.6235 15.7858
  L 298.2835 15.7742
  A 0.37 0.37 0.0 0 1 297.9148 15.4029
  L 297.9252 12.4029
  A 0.37 0.37 0.0 0 1 298.2965 12.0342
  L 301.6365 12.0458
  A 0.37 0.37 0.0 0 1 302.0052 12.4171
  L 301.9948 15.4171
  Z
  M 300.32 13.60
  Q 300.14 13.30 299.92 13.42
  A 0.32 0.31 33.6 0 0 300.05 14.01
  Q 300.22 14.03 300.32 13.91
  Q 300.43 13.79 300.32 13.60
  Z"
/>
<rect fill="#010315" x="228.92" y="12.23" width="3.26" height="28.88" rx="0.31"/>
<path fill="#13162a" d="
  M 300.32 13.91
  Q 300.22 14.03 300.05 14.01
  A 0.32 0.31 33.6 0 1 299.92 13.42
  Q 300.14 13.30 300.32 13.60
  Q 300.43 13.79 300.32 13.91
  Z"
/>
<path fill="#010315" d="
  M 293.78 38.46
  A 0.19 0.19 0.0 0 1 294.02 38.64
  L 294.03 40.85
  A 0.27 0.26 84.7 0 1 293.82 41.11
  Q 285.02 42.94 284.93 34.75
  Q 284.88 29.85 284.83 23.69
  A 0.63 0.62 89.4 0 0 284.21 23.07
  L 281.29 23.08
  A 0.52 0.51 -0.1 0 1 280.77 22.57
  L 280.77 21.21
  A 0.52 0.52 0.0 0 1 281.29 20.68
  L 284.40 20.68
  A 0.49 0.48 -0.1 0 0 284.89 20.20
  L 284.88 15.48
  A 0.71 0.71 0.0 0 1 285.41 14.78
  L 287.70 14.22
  A 0.32 0.32 0.0 0 1 288.10 14.53
  L 288.11 20.18
  A 0.51 0.51 0.0 0 0 288.62 20.69
  L 293.58 20.68
  A 0.51 0.51 0.0 0 1 294.09 21.19
  L 294.09 22.59
  A 0.50 0.49 -0.1 0 1 293.59 23.08
  L 288.51 23.09
  A 0.42 0.42 0.0 0 0 288.09 23.52
  Q 288.12 31.00 288.08 33.01
  C 287.99 37.28 289.06 39.90 293.78 38.46
  Z"
/>
<path fill="#010315" d="
  M 356.62 38.48
  A 0.19 0.19 0.0 0 1 356.86 38.66
  L 356.86 40.87
  A 0.27 0.26 84.8 0 1 356.65 41.13
  Q 347.85 42.95 347.78 34.76
  Q 347.74 29.86 347.70 23.70
  A 0.63 0.62 89.5 0 0 347.08 23.08
  L 344.16 23.08
  A 0.52 0.51 -0.0 0 1 343.64 22.57
  L 343.64 21.21
  A 0.52 0.52 0.0 0 1 344.16 20.69
  L 347.27 20.69
  A 0.49 0.48 -0.0 0 0 347.76 20.21
  L 347.76 15.49
  A 0.71 0.71 0.0 0 1 348.29 14.80
  L 350.59 14.24
  A 0.32 0.32 0.0 0 1 350.98 14.55
  L 350.98 20.20
  A 0.51 0.51 0.0 0 0 351.49 20.71
  L 356.45 20.71
  A 0.51 0.51 0.0 0 1 356.96 21.22
  L 356.96 22.62
  A 0.50 0.49 0.0 0 1 356.46 23.11
  L 351.38 23.11
  A 0.42 0.42 0.0 0 0 350.96 23.54
  Q 350.97 31.02 350.93 33.02
  C 350.83 37.29 351.90 39.91 356.62 38.48
  Z"
/>
<path fill="#010315" d="
  M 318.08 38.44
  A 0.19 0.19 0.0 0 1 318.32 38.62
  L 318.32 40.83
  A 0.27 0.26 84.6 0 1 318.12 41.09
  Q 309.32 42.94 309.23 34.75
  Q 309.17 29.85 309.11 23.70
  A 0.63 0.62 89.3 0 0 308.49 23.08
  L 305.57 23.09
  A 0.52 0.51 -0.2 0 1 305.05 22.58
  L 305.04 21.22
  A 0.52 0.52 0.0 0 1 305.56 20.70
  L 308.67 20.69
  A 0.49 0.48 -0.2 0 0 309.16 20.21
  L 309.15 15.49
  A 0.71 0.71 0.0 0 1 309.67 14.80
  L 311.97 14.23
  A 0.32 0.32 0.0 0 1 312.36 14.54
  L 312.38 20.19
  A 0.51 0.51 0.0 0 0 312.89 20.69
  L 317.85 20.68
  A 0.51 0.51 0.0 0 1 318.36 21.19
  L 318.37 22.59
  A 0.50 0.49 -0.2 0 1 317.87 23.08
  L 312.79 23.09
  A 0.42 0.42 0.0 0 0 312.37 23.53
  Q 312.40 31.00 312.37 33.00
  C 312.28 37.27 313.36 39.89 318.08 38.44
  Z
  M 311.99 37.79
  A 0.23 0.23 0.0 0 0 311.54 37.84
  Q 311.53 38.55 312.16 38.97
  A 0.07 0.06 11.1 0 0 312.26 38.91
  L 311.99 37.79
  Z"
/>
<path fill="#010315" d="
  M 136.39 23.45
  A 0.31 0.31 0.0 0 0 136.95 23.64
  C 140.15 19.27 146.25 18.82 149.14 23.65
  A 0.38 0.38 0.0 0 0 149.76 23.69
  Q 153.89 18.55 159.99 21.03
  C 162.57 22.08 163.26 25.26 163.27 27.88
  Q 163.26 33.74 163.29 40.72
  A 0.37 0.37 0.0 0 1 162.92 41.09
  L 160.47 41.09
  A 0.37 0.37 0.0 0 1 160.10 40.73
  L 160.06 26.96
  A 4.10 4.10 0.0 0 0 155.28 22.93
  L 154.54 23.06
  A 5.43 5.43 0.0 0 0 150.01 28.42
  L 150.04 40.70
  A 0.42 0.41 -0.1 0 1 149.62 41.11
  L 147.22 41.12
  A 0.46 0.45 -0.1 0 1 146.76 40.67
  L 146.73 26.99
  A 4.19 4.19 0.0 0 0 141.75 22.89
  L 141.19 22.99
  A 5.47 5.47 0.0 0 0 136.75 28.38
  L 136.78 40.78
  A 0.35 0.35 0.0 0 1 136.43 41.13
  L 133.85 41.14
  A 0.31 0.31 0.0 0 1 133.54 40.83
  L 133.50 20.82
  A 0.12 0.12 0.0 0 1 133.62 20.70
  L 136.01 20.70
  A 0.38 0.37 -0.1 0 1 136.39 21.07
  L 136.39 23.45
  Z"
/>
<path fill="#010315" d="
  M 188.0213 32.4625
  A 8.86 8.86 0.0 0 1 179.2234 41.3841
  L 177.6034 41.3954
  A 8.86 8.86 0.0 0 1 168.6818 32.5975
  L 168.6587 29.2975
  A 8.86 8.86 0.0 0 1 177.4566 20.3759
  L 179.0766 20.3646
  A 8.86 8.86 0.0 0 1 187.9982 29.1625
  L 188.0213 32.4625
  Z
  M 178.2742 22.6804
  A 8.19 6.66 -90.6 0 0 171.7004 30.9397
  A 8.19 6.66 -90.6 0 0 178.4458 39.0596
  A 8.19 6.66 -90.6 0 0 185.0196 30.8003
  A 8.19 6.66 -90.6 0 0 178.2742 22.6804
  Z"
/>
<path fill="#010315" d="
  M 196.45 23.32
  A 0.37 0.37 0.0 0 0 197.08 23.57
  C 198.95 21.58 200.10 20.45 203.32 20.31
  C 209.65 20.02 211.26 23.70 211.19 29.57
  Q 211.14 33.36 211.20 40.71
  A 0.38 0.38 0.0 0 1 210.82 41.09
  L 208.36 41.09
  A 0.39 0.38 -89.3 0 1 207.98 40.69
  Q 208.11 29.53 207.87 27.17
  Q 207.39 22.46 202.59 22.92
  Q 196.71 23.49 196.75 29.81
  Q 196.78 35.37 196.82 40.69
  A 0.46 0.45 90.0 0 1 196.38 41.15
  L 193.93 41.15
  A 0.40 0.40 0.0 0 1 193.53 40.75
  L 193.53 20.89
  A 0.21 0.20 -0.0 0 1 193.73 20.69
  L 196.00 20.69
  A 0.45 0.44 -0.0 0 1 196.44 21.13
  L 196.45 23.32
  Z"
/>
<path fill="#010315" d="
  M 242.74 23.55
  C 244.62 21.55 245.78 20.41 249.02 20.27
  C 255.40 19.98 257.02 23.69 256.94 29.60
  Q 256.89 33.42 256.95 40.82
  A 0.38 0.38 0.0 0 1 256.57 41.20
  L 254.09 41.20
  A 0.39 0.38 -89.3 0 1 253.71 40.80
  Q 253.84 29.56 253.60 27.18
  Q 253.12 22.44 248.29 22.90
  Q 242.37 23.47 242.40 29.84
  Q 242.43 35.43 242.47 40.79
  A 0.46 0.45 -90.0 0 1 242.02 41.25
  L 239.56 41.25
  A 0.40 0.40 0.0 0 1 239.16 40.85
  L 239.16 20.85
  A 0.21 0.20 -0.0 0 1 239.37 20.65
  L 241.65 20.65
  A 0.45 0.44 0.0 0 1 242.10 21.09
  L 242.10 23.30
  A 0.37 0.37 0.0 0 0 242.74 23.55
  Z"
/>
<path fill="#010315" d="
  M 264.02 37.13
  C 266.03 38.89 271.74 39.89 274.07 38.19
  Q 276.82 36.19 274.79 33.81
  A 2.15 2.05 80.9 0 0 274.08 33.27
  Q 272.39 32.47 268.07 31.73
  C 261.29 30.56 261.27 22.35 267.51 20.75
  Q 272.96 19.35 277.41 22.09
  A 1.27 1.26 30.6 0 1 277.85 23.78
  L 277.71 24.03
  A 1.07 1.06 -57.7 0 1 276.17 24.38
  Q 272.21 21.54 267.62 23.37
  A 1.82 1.81 6.7 0 0 266.81 24.01
  C 265.17 26.26 266.08 28.61 268.83 29.22
  C 272.91 30.12 280.36 30.90 278.21 37.32
  C 276.30 43.03 267.10 41.84 263.15 39.68
  A 1.23 1.23 0.0 0 1 262.62 38.12
  L 262.94 37.37
  A 0.69 0.68 32.3 0 1 264.02 37.13
  Z"
/>
<path fill="#010315" d="
  M 362.64 31.89
  C 363.65 39.46 370.93 40.81 376.18 36.97
  A 0.70 0.69 -25.2 0 1 377.27 37.36
  L 377.51 38.37
  A 1.00 0.99 -23.4 0 1 377.07 39.46
  C 371.37 43.05 362.22 42.28 360.09 34.66
  C 355.42 17.99 379.29 14.52 378.02 30.68
  A 0.53 0.53 0.0 0 1 377.49 31.17
  L 363.27 31.17
  A 0.64 0.63 -3.9 0 0 362.64 31.89
  Z
  M 363.25 29.13
  L 375.09 29.17
  A 0.25 0.25 0.0 0 0 375.34 28.92
  L 375.34 28.63
  A 6.10 6.04 0.2 0 0 369.26 22.57
  L 369.12 22.57
  A 6.10 6.04 0.2 0 0 363.00 28.59
  L 363.00 28.88
  A 0.25 0.25 0.0 0 0 363.25 29.13
  Z"
/>
<path fill="#010315" d="
  M 425.68 32.54
  A 8.83 8.83 0.0 0 1 416.85 41.37
  L 415.17 41.37
  A 8.83 8.83 0.0 0 1 406.34 32.54
  L 406.34 29.24
  A 8.83 8.83 0.0 0 1 415.17 20.41
  L 416.85 20.41
  A 8.83 8.83 0.0 0 1 425.68 29.24
  L 425.68 32.54
  Z
  M 415.9514 22.6700
  A 8.20 6.69 -90.2 0 0 409.2900 30.8934
  A 8.20 6.69 -90.2 0 0 416.0086 39.0700
  A 8.20 6.69 -90.2 0 0 422.6700 30.8466
  A 8.20 6.69 -90.2 0 0 415.9514 22.6700
  Z"
/>
<path fill="#010315" d="
  M 434.02 23.59
  A 0.32 0.32 0.0 0 0 434.62 23.76
  Q 437.16 19.54 442.25 20.44
  A 0.28 0.28 0.0 0 1 442.47 20.72
  L 442.47 23.00
  A 0.22 0.21 5.7 0 1 442.21 23.21
  C 435.72 21.95 434.01 26.41 434.27 32.30
  Q 434.34 33.85 434.26 40.67
  A 0.46 0.46 0.0 0 1 433.80 41.12
  L 431.43 41.12
  A 0.44 0.44 0.0 0 1 431.00 40.68
  L 431.03 20.87
  A 0.19 0.19 0.0 0 1 431.22 20.68
  L 433.63 20.68
  A 0.40 0.40 0.0 0 1 434.03 21.08
  L 434.02 23.59
  Z
  M 433.13 26.44
  Q 433.21 25.75 433.19 25.70
  A 0.24 0.23 46.2 0 0 432.74 25.69
  Q 432.56 26.26 432.63 26.49
  A 0.26 0.26 0.0 0 0 433.13 26.44
  Z"
/>
<rect fill="#010315" x="123.78" y="20.61" width="3.22" height="20.46" rx="0.29"/>
<rect fill="#010315" x="298.39" y="20.60" width="3.14" height="20.48" rx="0.27"/>
<path fill="#010315" d="
  M 337.05 38.46
  A 0.36 0.36 0.0 0 0 336.42 38.21
  C 334.56 40.15 333.41 41.25 330.23 41.36
  C 323.96 41.57 322.41 37.91 322.55 32.11
  Q 322.64 28.36 322.67 21.10
  A 0.37 0.37 0.0 0 1 323.04 20.73
  L 325.48 20.76
  A 0.38 0.37 -88.6 0 1 325.85 21.16
  Q 325.60 32.19 325.81 34.52
  Q 326.22 39.18 330.97 38.78
  Q 336.79 38.29 336.83 32.04
  Q 336.86 26.55 336.88 21.29
  A 0.45 0.44 -89.4 0 1 337.32 20.84
  L 339.74 20.87
  A 0.39 0.39 0.0 0 1 340.13 21.26
  L 339.91 40.89
  A 0.21 0.20 0.6 0 1 339.70 41.09
  L 337.46 41.06
  A 0.44 0.43 0.6 0 1 337.03 40.63
  L 337.05 38.46
  Z
  M 337.19 35.48
  Q 337.19 35.50 337.80 36.28
  A 0.26 0.26 0.0 0 0 338.27 36.12
  L 338.29 35.53
  A 0.55 0.55 0.0 0 0 337.19 35.48
  Z
  M 324.7541 36.9977
  A 0.46 0.26 -123.8 0 0 324.7939 37.5246
  A 0.46 0.26 -123.8 0 0 325.2659 37.7623
  A 0.46 0.26 -123.8 0 0 325.2261 37.2354
  A 0.46 0.26 -123.8 0 0 324.7541 36.9977
  Z"
/>
<path fill="#ffffff" d="
  M 363.25 29.13
  A 0.25 0.25 0.0 0 1 363.00 28.88
  L 363.00 28.59
  A 6.10 6.04 0.2 0 1 369.12 22.57
  L 369.26 22.57
  A 6.10 6.04 0.2 0 1 375.34 28.63
  L 375.34 28.92
  A 0.25 0.25 0.0 0 1 375.09 29.17
  L 363.25 29.13
  Z"
/>
<ellipse fill="#ffffff" cx="0.00" cy="0.00" transform="translate(415.98,30.87) rotate(-90.2)" rx="8.20" ry="6.69"/>
<ellipse fill="#ffffff" cx="0.00" cy="0.00" transform="translate(178.36,30.87) rotate(-90.6)" rx="8.19" ry="6.66"/>
<path fill="#13162a" d="
  M 432.63 26.49
  Q 432.56 26.26 432.74 25.69
  A 0.24 0.23 46.2 0 1 433.19 25.70
  Q 433.21 25.75 433.13 26.44
  A 0.26 0.26 0.0 0 1 432.63 26.49
  Z"
/>
<path fill="#13162a" d="
  M 338.29 35.53
  L 338.27 36.12
  A 0.26 0.26 0.0 0 1 337.80 36.28
  Q 337.19 35.50 337.19 35.48
  A 0.55 0.55 0.0 0 1 338.29 35.53
  Z"
/>
<ellipse fill="#13162a" cx="0.00" cy="0.00" transform="translate(325.01,37.38) rotate(-123.8)" rx="0.46" ry="0.26"/>
<path fill="#13162a" d="
  M 311.99 37.79
  L 312.26 38.91
  A 0.07 0.06 11.1 0 1 312.16 38.97
  Q 311.53 38.55 311.54 37.84
  A 0.23 0.23 0.0 0 1 311.99 37.79
  Z"
/>
<path fill="#010315" d="
  M 315.49 71.41
  L 315.49 83.57
  A 1.04 1.03 81.2 0 1 314.77 84.56
  C 304.00 87.99 291.93 86.42 291.41 72.71
  C 291.06 63.63 294.93 57.05 304.77 56.59
  Q 310.73 56.31 314.61 59.59
  A 1.00 0.99 -58.5 0 1 314.88 60.74
  L 314.29 62.10
  A 0.59 0.59 0.0 0 1 313.36 62.31
  C 307.38 57.06 296.49 58.76 295.15 67.85
  C 293.33 80.11 300.27 85.98 312.17 82.29
  A 0.87 0.87 0.0 0 0 312.78 81.46
  L 312.78 73.80
  A 0.59 0.59 0.0 0 0 312.19 73.21
  L 305.68 73.21
  A 0.38 0.37 0.0 0 1 305.30 72.84
  L 305.30 71.18
  A 0.41 0.40 -0.0 0 1 305.71 70.78
  L 314.87 70.78
  A 0.63 0.62 -90.0 0 1 315.49 71.41
  Z"
/>
<path fill="#010315" d="
  M 115.97 85.75
  L 98.69 85.75
  A 0.34 0.34 0.0 0 1 98.35 85.41
  L 98.35 57.22
  A 0.34 0.34 0.0 0 1 98.69 56.88
  L 101.21 56.88
  A 0.34 0.34 0.0 0 1 101.55 57.22
  L 101.55 82.60
  A 0.34 0.34 0.0 0 0 101.89 82.94
  L 115.97 82.94
  A 0.34 0.34 0.0 0 1 116.31 83.28
  L 116.31 85.41
  A 0.34 0.34 0.0 0 1 115.97 85.75
  Z"
/>
<path fill="#010315" d="
  M 203.03 83.10
  A 0.19 0.19 0.0 0 1 203.27 83.28
  L 203.28 85.50
  A 0.27 0.26 84.6 0 1 203.07 85.76
  Q 194.24 87.62 194.15 79.40
  Q 194.09 74.48 194.03 68.30
  A 0.63 0.62 89.3 0 0 193.40 67.68
  L 190.47 67.69
  A 0.52 0.51 -0.2 0 1 189.95 67.18
  L 189.95 65.82
  A 0.52 0.52 0.0 0 1 190.47 65.30
  L 193.59 65.29
  A 0.49 0.48 -0.2 0 0 194.08 64.80
  L 194.06 60.07
  A 0.72 0.71 82.4 0 1 194.59 59.37
  L 196.90 58.80
  A 0.32 0.32 0.0 0 1 197.29 59.11
  L 197.31 64.78
  A 0.51 0.51 0.0 0 0 197.82 65.29
  L 202.80 65.27
  A 0.51 0.51 0.0 0 1 203.31 65.78
  L 203.32 67.19
  A 0.50 0.49 -0.2 0 1 202.82 67.68
  L 197.72 67.70
  A 0.42 0.42 0.0 0 0 197.30 68.13
  Q 197.33 75.64 197.30 77.64
  C 197.21 81.93 198.30 84.55 203.03 83.10
  Z
  M 197.20 83.44
  Q 197.13 83.19 196.97 83.13
  A 0.11 0.11 0.0 0 0 196.83 83.26
  Q 196.90 83.47 197.01 83.57
  A 0.12 0.12 0.0 0 0 197.20 83.44
  Z"
/>
<path fill="#010315" d="
  M 138.40 77.24
  A 8.82 8.82 0.0 0 1 129.58 86.06
  L 127.92 86.06
  A 8.82 8.82 0.0 0 1 119.10 77.24
  L 119.10 73.80
  A 8.82 8.82 0.0 0 1 127.92 64.98
  L 129.58 64.98
  A 8.82 8.82 0.0 0 1 138.40 73.80
  L 138.40 77.24
  Z
  M 128.6638 67.2605
  A 8.23 6.65 -90.6 0 0 122.1004 75.5596
  A 8.23 6.65 -90.6 0 0 128.8362 83.7195
  A 8.23 6.65 -90.6 0 0 135.3996 75.4204
  A 8.23 6.65 -90.6 0 0 128.6638 67.2605
  Z"
/>
<path fill="#010315" d="
  M 146.76 67.93
  A 0.37 0.37 0.0 0 0 147.40 68.18
  C 149.27 66.20 150.43 65.06 153.65 64.93
  C 160.00 64.65 161.60 68.35 161.52 74.22
  Q 161.46 78.02 161.51 85.38
  A 0.38 0.38 0.0 0 1 161.13 85.76
  L 158.66 85.76
  A 0.39 0.38 -89.2 0 1 158.28 85.36
  Q 158.43 74.18 158.20 71.81
  Q 157.73 67.10 152.92 67.55
  Q 147.03 68.10 147.05 74.44
  Q 147.07 80.00 147.10 85.33
  A 0.46 0.45 -89.9 0 1 146.65 85.79
  L 144.21 85.78
  A 0.40 0.40 0.0 0 1 143.81 85.39
  L 143.84 65.49
  A 0.21 0.20 0.1 0 1 144.05 65.29
  L 146.32 65.30
  A 0.45 0.44 0.1 0 1 146.77 65.73
  L 146.76 67.93
  Z"
/>
<path fill="#010315" d="
  M 182.82 81.93
  Q 180.66 84.47 178.99 84.88
  C 170.63 86.92 166.02 81.02 166.91 73.21
  C 167.85 64.99 177.69 61.64 182.86 68.33
  A 0.41 0.41 0.0 0 0 183.60 68.08
  L 183.60 65.54
  A 0.26 0.26 0.0 0 1 183.86 65.28
  L 186.34 65.28
  A 0.21 0.20 1.3 0 1 186.55 65.49
  Q 186.20 78.71 186.39 85.74
  C 186.68 96.50 175.32 96.56 168.53 92.64
  A 0.52 0.51 26.6 0 1 168.31 91.99
  L 169.06 90.26
  A 0.34 0.34 0.0 0 1 169.58 90.12
  C 172.42 92.34 177.92 93.46 181.09 91.25
  C 183.74 89.40 183.37 85.12 183.38 82.13
  A 0.32 0.31 -24.9 0 0 182.82 81.93
  Z
  M 183.06 73.38
  A 5.91 5.91 0.0 0 0 177.15 67.47
  L 176.13 67.47
  A 5.91 5.91 0.0 0 0 170.22 73.38
  L 170.22 76.78
  A 5.91 5.91 0.0 0 0 176.13 82.69
  L 177.15 82.69
  A 5.91 5.91 0.0 0 0 183.06 76.78
  L 183.06 73.38
  Z
  M 184.41 70.73
  Q 184.56 70.39 184.51 70.22
  A 0.39 0.39 0.0 0 0 183.76 70.20
  Q 183.69 70.40 183.87 70.75
  A 0.30 0.30 0.0 0 0 184.41 70.73
  Z
  M 183.09 91.20
  A 0.25 0.22 -34.7 0 0 182.98 91.65
  Q 183.00 91.66 183.22 91.52
  A 0.08 0.07 75.1 0 0 183.25 91.46
  Q 183.27 91.20 183.09 91.20
  Z"
/>
<path fill="#010315" d="
  M 209.72 75.80
  A 0.64 0.63 -3.8 0 0 209.09 76.52
  C 210.08 84.09 217.36 85.46 222.62 81.63
  A 0.70 0.69 -25.1 0 1 223.71 82.02
  L 223.95 83.03
  A 1.00 0.99 -23.3 0 1 223.51 84.12
  C 217.80 87.70 208.65 86.91 206.53 79.28
  C 201.90 62.59 225.79 59.18 224.48 75.34
  A 0.53 0.53 0.0 0 1 223.95 75.83
  L 209.72 75.80
  Z
  M 209.83 73.88
  L 221.45 73.80
  A 0.41 0.41 0.0 0 0 221.86 73.39
  L 221.86 73.25
  A 6.17 6.11 -0.4 0 0 215.65 67.18
  L 215.55 67.18
  A 6.17 6.11 -0.4 0 0 209.42 73.33
  L 209.42 73.47
  A 0.41 0.41 0.0 0 0 209.83 73.88
  Z"
/>
<path fill="#010315" d="
  M 233.39 68.37
  Q 235.93 64.14 241.03 65.03
  A 0.29 0.28 -85.2 0 1 241.26 65.31
  L 241.26 67.59
  A 0.22 0.21 5.5 0 1 241.00 67.80
  C 234.49 66.55 232.78 71.03 233.06 76.93
  Q 233.13 78.49 233.06 85.33
  A 0.46 0.46 0.0 0 1 232.60 85.78
  L 230.23 85.78
  A 0.44 0.44 0.0 0 1 229.79 85.34
  L 229.79 65.48
  A 0.19 0.19 0.0 0 1 229.98 65.29
  L 232.39 65.29
  A 0.40 0.40 0.0 0 1 232.79 65.69
  L 232.79 68.20
  A 0.32 0.32 0.0 0 0 233.39 68.37
  Z"
/>
<path fill="#010315" d="
  M 248.32 68.23
  C 251.54 63.86 257.65 63.42 260.54 68.27
  A 0.38 0.38 0.0 0 0 261.16 68.31
  Q 265.31 63.17 271.42 65.67
  C 274.01 66.73 274.69 69.92 274.69 72.55
  Q 274.67 78.42 274.68 85.42
  A 0.37 0.37 0.0 0 1 274.31 85.79
  L 271.85 85.79
  A 0.37 0.37 0.0 0 1 271.48 85.42
  L 271.48 71.62
  A 4.11 4.11 0.0 0 0 266.70 67.57
  L 265.95 67.69
  A 5.45 5.44 -4.7 0 0 261.40 73.06
  L 261.40 85.37
  A 0.42 0.41 0.0 0 1 260.98 85.78
  L 258.57 85.78
  A 0.46 0.45 0.0 0 1 258.11 85.33
  L 258.11 71.62
  A 4.20 4.20 0.0 0 0 253.13 67.49
  L 252.57 67.59
  A 5.48 5.48 0.0 0 0 248.10 72.98
  L 248.10 85.42
  A 0.35 0.35 0.0 0 1 247.75 85.77
  L 245.17 85.77
  A 0.31 0.31 0.0 0 1 244.86 85.46
  L 244.86 65.40
  A 0.12 0.12 0.0 0 1 244.98 65.28
  L 247.38 65.28
  A 0.38 0.37 0.0 0 1 247.76 65.65
  L 247.76 68.04
  A 0.31 0.31 0.0 0 0 248.32 68.23
  Z
  M 259.7691 70.0709
  A 0.63 0.31 -104.8 0 0 259.6303 70.7592
  A 0.63 0.31 -104.8 0 0 260.0909 71.2891
  A 0.63 0.31 -104.8 0 0 260.2297 70.6008
  A 0.63 0.31 -104.8 0 0 259.7691 70.0709
  Z"
/>
<path fill="#010315" d="
  M 340.38 77.23
  A 8.82 8.82 0.0 0 1 331.56 86.05
  L 329.90 86.05
  A 8.82 8.82 0.0 0 1 321.08 77.23
  L 321.08 73.79
  A 8.82 8.82 0.0 0 1 329.90 64.97
  L 331.56 64.97
  A 8.82 8.82 0.0 0 1 340.38 73.79
  L 340.38 77.23
  Z
  M 330.6051 67.2608
  A 8.23 6.65 -90.8 0 0 324.0706 75.5828
  A 8.23 6.65 -90.8 0 0 330.8349 83.7192
  A 8.23 6.65 -90.8 0 0 337.3694 75.3972
  A 8.23 6.65 -90.8 0 0 330.6051 67.2608
  Z"
/>
<path fill="#010315" d="
  M 369.79 75.82
  A 0.64 0.63 -4.0 0 0 369.16 76.54
  C 370.18 84.11 377.46 85.46 382.71 81.61
  A 0.70 0.70 0.0 0 1 383.80 82.00
  L 384.04 83.01
  A 1.00 0.99 -23.4 0 1 383.60 84.10
  C 377.90 87.70 368.75 86.93 366.61 79.31
  C 361.94 62.63 385.81 59.15 384.55 75.32
  A 0.53 0.53 0.0 0 1 384.02 75.81
  L 369.79 75.82
  Z
  M 369.86 73.87
  L 381.58 73.81
  A 0.32 0.32 0.0 0 0 381.90 73.49
  L 381.89 73.22
  A 6.12 6.09 -0.3 0 0 375.74 67.16
  L 375.62 67.16
  A 6.12 6.09 -0.3 0 0 369.53 73.28
  L 369.54 73.55
  A 0.32 0.32 0.0 0 0 369.86 73.87
  Z"
/>
<path fill="#010315" d="
  M 392.75 68.20
  A 0.32 0.32 0.0 0 0 393.35 68.37
  Q 395.89 64.14 400.99 65.03
  A 0.29 0.28 -85.2 0 1 401.22 65.31
  L 401.22 67.59
  A 0.22 0.21 5.5 0 1 400.96 67.80
  C 394.45 66.55 392.74 71.03 393.03 76.93
  Q 393.10 78.50 393.03 85.34
  A 0.46 0.46 0.0 0 1 392.57 85.79
  L 390.20 85.79
  A 0.44 0.44 0.0 0 1 389.76 85.35
  L 389.75 65.48
  A 0.19 0.19 0.0 0 1 389.94 65.29
  L 392.35 65.29
  A 0.40 0.40 0.0 0 1 392.75 65.69
  L 392.75 68.20
  Z"
/>
<path fill="#010315" d="
  M 407.77 67.92
  A 0.37 0.37 0.0 0 0 408.40 68.17
  C 410.28 66.19 411.44 65.06 414.66 64.93
  C 421.01 64.66 422.61 68.35 422.52 74.23
  Q 422.46 78.03 422.50 85.40
  A 0.38 0.38 0.0 0 1 422.12 85.77
  L 419.65 85.77
  A 0.39 0.38 -89.1 0 1 419.27 85.37
  Q 419.43 74.18 419.20 71.82
  Q 418.73 67.10 413.93 67.54
  Q 408.04 68.09 408.05 74.43
  Q 408.06 79.99 408.09 85.33
  A 0.46 0.45 -89.8 0 1 407.64 85.78
  L 405.19 85.78
  A 0.40 0.40 0.0 0 1 404.80 85.38
  L 404.85 65.48
  A 0.21 0.20 0.2 0 1 405.06 65.28
  L 407.33 65.29
  A 0.45 0.44 0.2 0 1 407.77 65.73
  L 407.77 67.92
  Z
  M 406.92 70.95
  L 407.07 70.60
  A 0.14 0.13 78.8 0 0 406.85 70.45
  Q 406.63 70.68 406.78 70.95
  A 0.08 0.07 43.1 0 0 406.92 70.95
  Z"
/>
<path fill="#010315" d="
  M 447.22 75.64
  Q 447.07 80.66 447.23 85.52
  A 0.37 0.37 0.0 0 1 446.86 85.90
  L 444.61 85.90
  A 0.52 0.52 0.0 0 1 444.09 85.38
  L 444.09 83.01
  A 0.31 0.31 0.0 0 0 443.53 82.83
  Q 440.75 86.69 435.74 86.07
  C 429.97 85.36 427.76 80.71 427.82 75.40
  C 427.89 70.09 430.22 65.49 436.00 64.92
  Q 441.03 64.43 443.71 68.36
  A 0.31 0.31 0.0 0 0 444.27 68.19
  L 444.33 65.83
  A 0.52 0.52 0.0 0 1 444.87 65.32
  L 447.11 65.37
  A 0.37 0.37 0.0 0 1 447.48 65.77
  Q 447.19 70.61 447.22 75.64
  Z
  M 443.8825 73.3079
  A 5.85 5.85 0.0 0 0 438.0121 67.4784
  L 437.0521 67.4817
  A 5.85 5.85 0.0 0 0 431.2225 73.3521
  L 431.2375 77.6521
  A 5.85 5.85 0.0 0 0 437.1079 83.4816
  L 438.0679 83.4783
  A 5.85 5.85 0.0 0 0 443.8975 77.6079
  L 443.8825 73.3079
  Z
  M 445.1100 69.4000
  A 0.90 0.07 -90.0 0 0 445.0400 70.3000
  A 0.90 0.07 -90.0 0 0 445.1100 71.2000
  A 0.90 0.07 -90.0 0 0 445.1800 70.3000
  A 0.90 0.07 -90.0 0 0 445.1100 69.4000
  Z
  M 444.85 80.23
  Q 444.67 80.94 444.78 81.34
  A 0.28 0.28 0.0 0 0 445.33 81.26
  L 445.33 80.29
  A 0.24 0.24 0.0 0 0 444.85 80.23
  Z"
/>
<path fill="#010315" d="
  M 456.89 67.92
  A 0.37 0.37 0.0 0 0 457.52 68.17
  C 459.40 66.18 460.56 65.04 463.79 64.91
  C 470.15 64.64 471.76 68.34 471.67 74.23
  Q 471.61 78.04 471.65 85.42
  A 0.38 0.38 0.0 0 1 471.27 85.80
  L 468.80 85.79
  A 0.39 0.38 -89.1 0 1 468.42 85.39
  Q 468.58 74.18 468.34 71.81
  Q 467.87 67.08 463.06 67.53
  Q 457.15 68.09 457.17 74.44
  Q 457.19 80.01 457.21 85.35
  A 0.46 0.45 -89.9 0 1 456.76 85.81
  L 454.31 85.80
  A 0.40 0.40 0.0 0 1 453.91 85.40
  L 453.96 65.47
  A 0.21 0.20 0.1 0 1 454.17 65.27
  L 456.44 65.27
  A 0.45 0.44 0.1 0 1 456.89 65.71
  L 456.89 67.92
  Z"
/>
<path fill="#010315" d="
  M 480.21 75.51
  C 480.23 81.68 484.21 84.99 490.31 82.83
  Q 491.15 82.53 492.33 81.51
  A 0.49 0.49 0.0 0 1 493.12 81.76
  L 493.51 83.31
  A 0.60 0.59 64.3 0 1 493.31 83.90
  Q 490.35 86.29 486.28 86.11
  C 480.03 85.84 476.93 81.36 476.92 75.52
  C 476.90 69.68 479.97 65.18 486.22 64.88
  Q 490.29 64.68 493.27 67.06
  A 0.60 0.59 -64.6 0 1 493.47 67.64
  L 493.09 69.20
  A 0.49 0.49 0.0 0 1 492.30 69.45
  Q 491.11 68.44 490.27 68.14
  C 484.17 66.01 480.20 69.34 480.21 75.51
  Z"
/>
<path fill="#010315" d="
  M 500.74 75.80
  A 0.64 0.63 -3.8 0 0 500.11 76.51
  C 501.09 84.09 508.37 85.46 513.63 81.64
  A 0.70 0.69 -25.0 0 1 514.72 82.03
  L 514.96 83.04
  A 1.00 0.99 -23.2 0 1 514.52 84.13
  C 508.80 87.70 499.66 86.90 497.55 79.28
  C 492.93 62.59 516.81 59.19 515.49 75.35
  A 0.53 0.53 0.0 0 1 514.96 75.84
  L 500.74 75.80
  Z
  M 500.80 73.87
  L 512.52 73.81
  A 0.32 0.32 0.0 0 0 512.84 73.49
  L 512.83 73.23
  A 6.16 6.10 -0.3 0 0 506.64 67.16
  L 506.60 67.16
  A 6.16 6.10 -0.3 0 0 500.47 73.29
  L 500.48 73.55
  A 0.32 0.32 0.0 0 0 500.80 73.87
  Z"
/>
<path fill="#010315" d="
  M 353.26 81.60
  Q 353.53 81.60 353.98 80.49
  Q 357.02 72.99 359.99 65.87
  A 0.95 0.94 -78.8 0 1 360.86 65.28
  L 363.10 65.28
  A 0.38 0.37 -78.1 0 1 363.44 65.81
  L 355.23 84.89
  A 1.92 1.84 -5.4 0 1 354.49 85.75
  Q 354.35 85.83 353.26 85.83
  Q 352.17 85.83 352.03 85.75
  A 1.92 1.84 5.5 0 1 351.30 84.89
  L 343.11 65.80
  A 0.38 0.37 78.2 0 1 343.45 65.27
  L 345.69 65.27
  A 0.95 0.94 78.9 0 1 346.56 65.86
  Q 349.52 72.98 352.55 80.49
  Q 353.00 81.60 353.26 81.60
  Z"
/>
<ellipse fill="#ffffff" cx="0.00" cy="0.00" transform="translate(128.75,75.49) rotate(-90.6)" rx="8.23" ry="6.65"/>
<rect fill="#ffffff" x="170.22" y="67.47" width="12.84" height="15.22" rx="5.91"/>
<path fill="#ffffff" d="
  M 209.83 73.88
  A 0.41 0.41 0.0 0 1 209.42 73.47
  L 209.42 73.33
  A 6.17 6.11 -0.4 0 1 215.55 67.18
  L 215.65 67.18
  A 6.17 6.11 -0.4 0 1 221.86 73.25
  L 221.86 73.39
  A 0.41 0.41 0.0 0 1 221.45 73.80
  L 209.83 73.88
  Z"
/>
<ellipse fill="#ffffff" cx="0.00" cy="0.00" transform="translate(330.72,75.49) rotate(-90.8)" rx="8.23" ry="6.65"/>
<path fill="#ffffff" d="
  M 369.86 73.87
  A 0.32 0.32 0.0 0 1 369.54 73.55
  L 369.53 73.28
  A 6.12 6.09 -0.3 0 1 375.62 67.16
  L 375.74 67.16
  A 6.12 6.09 -0.3 0 1 381.89 73.22
  L 381.90 73.49
  A 0.32 0.32 0.0 0 1 381.58 73.81
  L 369.86 73.87
  Z"
/>
<rect fill="#ffffff" x="-6.33" y="-8.00" transform="translate(437.56,75.48) rotate(-0.2)" width="12.66" height="16.00" rx="5.85"/>
<path fill="#ffffff" d="
  M 500.80 73.87
  A 0.32 0.32 0.0 0 1 500.48 73.55
  L 500.47 73.29
  A 6.16 6.10 -0.3 0 1 506.60 67.16
  L 506.64 67.16
  A 6.16 6.10 -0.3 0 1 512.83 73.23
  L 512.84 73.49
  A 0.32 0.32 0.0 0 1 512.52 73.81
  L 500.80 73.87
  Z"
/>
<ellipse fill="#13162a" cx="0.00" cy="0.00" transform="translate(445.11,70.30) rotate(-90.0)" rx="0.90" ry="0.07"/>
<path fill="#13162a" d="
  M 183.87 70.75
  Q 183.69 70.40 183.76 70.20
  A 0.39 0.39 0.0 0 1 184.51 70.22
  Q 184.56 70.39 184.41 70.73
  A 0.30 0.30 0.0 0 1 183.87 70.75
  Z"
/>
<ellipse fill="#13162a" cx="0.00" cy="0.00" transform="translate(259.93,70.68) rotate(-104.8)" rx="0.63" ry="0.31"/>
<path fill="#13162a" d="
  M 406.92 70.95
  A 0.08 0.07 43.1 0 1 406.78 70.95
  Q 406.63 70.68 406.85 70.45
  A 0.14 0.13 78.8 0 1 407.07 70.60
  L 406.92 70.95
  Z"
/>
<path fill="#13162a" d="
  M 445.33 80.29
  L 445.33 81.26
  A 0.28 0.28 0.0 0 1 444.78 81.34
  Q 444.67 80.94 444.85 80.23
  A 0.24 0.24 0.0 0 1 445.33 80.29
  Z"
/>
<path fill="#13162a" d="
  M 197.20 83.44
  A 0.12 0.12 0.0 0 1 197.01 83.57
  Q 196.90 83.47 196.83 83.26
  A 0.11 0.11 0.0 0 1 196.97 83.13
  Q 197.13 83.19 197.20 83.44
  Z"
/>
<path fill="#13162a" d="
  M 183.09 91.20
  Q 183.27 91.20 183.25 91.46
  A 0.08 0.07 75.1 0 1 183.22 91.52
  Q 183.00 91.66 182.98 91.65
  A 0.25 0.22 -34.7 0 1 183.09 91.20
  Z"
/>
</svg>
