<?xml version="1.0" encoding="UTF-8" standalone="no"?>
<!DOCTYPE svg PUBLIC "-//W3C//DTD SVG 1.1//EN" "http://www.w3.org/Graphics/SVG/1.1/DTD/svg11.dtd">
<svg xmlns="http://www.w3.org/2000/svg" version="1.1" viewBox="0.00 0.00 3781.00 830.00">
<g stroke-width="2.00" fill="none" stroke-linecap="butt">
<path stroke="#619fca" vector-effect="non-scaling-stroke" d="
  M 382.56 312.06
  Q 382.54 312.12 382.34 312.03"
/>
<path stroke="#3e65c5" vector-effect="non-scaling-stroke" d="
  M 382.34 312.03
  Q 360.56 299.16 342.00 292.75
  Q 305.63 280.19 272.76 301.53
  Q 270.09 303.26 267.65 305.41
  C 265.42 307.37 262.54 309.05 260.68 311.72
  A 2.00 1.93 2.7 0 1 259.95 312.36
  Q 258.78 312.98 254.91 317.43
  Q 244.22 329.73 237.63 344.38
  Q 225.00 372.51 226.04 403.27
  Q 226.09 404.87 227.10 417.22
  Q 231.66 473.26 196.59 517.53
  A 0.30 0.29 -68.1 0 1 196.37 517.63
  Q 196.15 517.62 195.98 517.79"
/>
<path stroke="#47949e" vector-effect="non-scaling-stroke" d="
  M 382.34 312.03
  Q 382.28 312.29 382.22 312.43
  Q 382.21 312.44 381.96 312.76
  Q 350.46 352.42 351.05 402.89
  C 351.15 411.03 352.62 420.57 352.75 429.21
  Q 353.25 462.01 338.56 490.80
  C 318.27 530.56 277.28 553.06 233.79 536.01
  Q 227.87 533.69 226.38 533.01
  Q 224.77 532.27 219.10 529.71
  Q 207.50 524.46 197.56 518.64
  A 2.37 2.27 62.6 0 0 196.71 518.35
  L 196.02 518.25"
/>
</g>
<path fill="#5870f0" d="
  M 345.13 0.00
  Q 401.52 2.14 451.81 25.16
  Q 513.47 53.39 556.85 108.91
  Q 565.27 119.68 570.63 130.28
  C 589.71 167.98 573.26 209.13 541.57 234.31
  Q 517.71 253.27 488.14 259.76
  C 479.31 261.70 467.97 262.58 458.45 264.85
  Q 412.96 275.68 382.56 312.06
  Q 382.54 312.12 382.34 312.03
  Q 360.56 299.16 342.00 292.75
  Q 305.63 280.19 272.76 301.53
  Q 270.09 303.26 267.65 305.41
  C 265.42 307.37 262.54 309.05 260.68 311.72
  A 2.00 1.93 2.7 0 1 259.95 312.36
  Q 258.78 312.98 254.91 317.43
  Q 244.22 329.73 237.63 344.38
  Q 225.00 372.51 226.04 403.27
  Q 226.09 404.87 227.10 417.22
  Q 231.66 473.26 196.59 517.53
  A 0.30 0.29 -68.1 0 1 196.37 517.63
  Q 196.15 517.62 195.98 517.79
  C 126.41 476.70 78.47 408.85 63.34 329.89
  C 48.77 253.84 67.04 174.61 112.85 112.67
  Q 142.49 72.60 184.85 44.91
  Q 247.84 3.74 327.00 0.00
  L 345.13 0.00
  Z"
/>
<path fill="#494b50" d="
  M 3781.00 151.16
  L 3781.00 157.41
  C 3780.03 169.26 3773.72 180.95 3762.70 185.89
  Q 3754.97 189.36 3746.61 186.41
  Q 3739.44 183.87 3730.94 179.82
  C 3720.73 174.96 3706.05 166.78 3692.49 161.74
  Q 3683.73 158.49 3678.17 157.55
  Q 3654.30 153.54 3633.15 163.17
  C 3618.57 169.82 3607.87 183.30 3602.24 198.48
  C 3596.20 214.75 3593.39 231.96 3591.66 249.63
  C 3588.76 279.40 3589.07 309.88 3590.32 341.32
  A 0.72 0.71 -0.8 0 0 3591.04 342.01
  C 3618.80 341.91 3641.11 342.33 3664.38 341.34
  Q 3675.29 340.87 3695.57 340.03
  A 0.39 0.39 0.0 0 1 3695.97 340.44
  L 3694.40 380.05
  A 0.54 0.54 0.0 0 1 3693.81 380.57
  Q 3689.55 380.22 3664.00 379.01
  Q 3627.28 377.29 3592.43 377.41
  A 0.58 0.58 0.0 0 0 3591.85 377.99
  Q 3591.69 406.06 3591.29 455.74
  Q 3590.58 544.57 3591.98 608.25
  C 3592.42 628.40 3592.85 647.84 3595.94 667.00
  C 3597.92 679.25 3604.77 690.13 3617.04 693.71
  Q 3621.72 695.08 3627.39 695.86
  Q 3639.63 697.54 3652.79 697.67
  Q 3657.64 697.72 3660.46 697.83
  A 0.67 0.67 0.0 0 1 3661.10 698.50
  L 3661.10 724.29
  A 0.61 0.61 0.0 0 1 3660.44 724.90
  Q 3654.96 724.39 3611.75 722.16
  Q 3570.16 720.00 3532.25 721.70
  Q 3506.02 722.87 3469.35 724.85
  A 0.60 0.59 88.2 0 1 3468.72 724.25
  L 3468.72 698.47
  A 0.60 0.60 0.0 0 1 3469.32 697.87
  C 3486.28 697.90 3504.07 698.23 3514.91 683.00
  Q 3518.40 678.10 3520.58 669.20
  Q 3523.08 659.00 3524.02 648.49
  C 3526.62 619.42 3525.60 587.40 3525.28 560.41
  Q 3524.92 530.48 3524.89 517.09
  Q 3524.78 470.27 3524.14 379.73
  A 0.71 0.71 0.0 0 0 3523.42 379.02
  C 3510.18 379.16 3500.97 378.68 3489.21 379.65
  Q 3483.61 380.12 3469.23 380.61
  A 0.49 0.48 88.9 0 1 3468.73 380.12
  L 3468.73 351.77
  A 0.69 0.69 0.0 0 1 3469.39 351.08
  C 3488.68 350.31 3507.29 345.83 3523.54 335.24
  A 1.40 1.39 -16.9 0 0 3524.18 334.05
  C 3523.05 265.75 3538.59 192.76 3592.51 146.02
  C 3627.88 115.34 3673.79 104.76 3720.24 108.96
  C 3744.87 111.18 3778.15 121.47 3781.00 151.16
  Z"
/>
<circle fill="#5870f0" cx="3368.70" cy="190.31" r="67.61"/>
<path fill="#494b50" d="
  M 877.24 571.02
  A 0.32 0.31 -13.4 0 1 877.48 570.64
  L 912.57 562.43
  A 0.47 0.47 0.0 0 1 913.14 562.84
  C 915.19 582.47 919.20 600.98 926.72 618.79
  Q 945.19 662.55 988.88 678.09
  Q 1006.10 684.22 1025.50 686.51
  Q 1050.97 689.51 1076.24 687.26
  C 1130.34 682.42 1182.01 650.46 1188.18 593.23
  Q 1190.54 571.35 1182.59 553.42
  C 1174.84 535.95 1160.03 522.01 1144.21 511.53
  C 1123.20 497.63 1098.08 487.35 1073.27 479.49
  Q 1056.55 474.19 1033.87 466.41
  Q 1003.32 455.93 975.00 440.07
  Q 955.95 429.40 940.42 415.11
  Q 912.10 389.05 902.94 351.59
  Q 895.28 320.32 900.22 287.70
  Q 905.43 253.33 926.24 225.46
  C 960.26 179.91 1014.47 155.82 1070.51 152.52
  C 1112.43 150.05 1154.18 155.99 1196.14 166.36
  Q 1209.94 169.78 1223.09 173.32
  A 0.83 0.82 -83.1 0 1 1223.70 174.11
  Q 1223.80 187.67 1224.45 201.25
  Q 1226.51 244.91 1237.58 287.69
  A 0.50 0.50 0.0 0 1 1237.19 288.30
  L 1207.26 294.09
  A 0.60 0.60 0.0 0 1 1206.55 293.58
  C 1203.82 273.26 1196.82 252.30 1184.13 236.40
  C 1166.70 214.53 1141.15 203.39 1113.69 199.35
  C 1077.31 194.01 1036.34 196.22 1004.20 215.95
  C 977.19 232.52 961.07 258.17 962.20 290.52
  C 963.60 330.84 1004.78 358.62 1037.06 374.70
  Q 1065.26 388.74 1093.26 398.22
  Q 1095.09 398.85 1130.49 410.77
  Q 1146.79 416.26 1165.33 424.95
  C 1188.92 436.01 1211.84 451.46 1228.34 471.89
  C 1253.56 503.13 1259.41 542.75 1253.57 582.25
  Q 1249.72 608.30 1238.58 630.18
  C 1216.04 674.43 1173.54 705.14 1126.27 719.57
  C 1086.83 731.62 1045.46 733.97 1004.74 730.96
  Q 945.80 726.61 889.96 706.88
  A 0.99 0.98 11.6 0 1 889.31 705.90
  Q 892.84 637.31 877.24 571.02
  Z"
/>
<path fill="#245a99" d="
  M 382.34 312.03
  Q 382.28 312.29 382.22 312.43
  Q 382.21 312.44 381.96 312.76
  Q 350.46 352.42 351.05 402.89
  C 351.15 411.03 352.62 420.57 352.75 429.21
  Q 353.25 462.01 338.56 490.80
  C 318.27 530.56 277.28 553.06 233.79 536.01
  Q 227.87 533.69 226.38 533.01
  Q 224.77 532.27 219.10 529.71
  Q 207.50 524.46 197.56 518.64
  A 2.37 2.27 62.6 0 0 196.71 518.35
  L 196.02 518.25
  L 195.98 517.79
  Q 196.15 517.62 196.37 517.63
  A 0.30 0.29 -68.1 0 0 196.59 517.53
  Q 231.66 473.26 227.10 417.22
  Q 226.09 404.87 226.04 403.27
  Q 225.00 372.51 237.63 344.38
  Q 244.22 329.73 254.91 317.43
  Q 258.78 312.98 259.95 312.36
  A 2.00 1.93 2.7 0 0 260.68 311.72
  C 262.54 309.05 265.42 307.37 267.65 305.41
  Q 270.09 303.26 272.76 301.53
  Q 305.63 280.19 342.00 292.75
  Q 360.56 299.16 382.34 312.03
  Z"
/>
<path fill="#69cda3" d="
  M 382.56 312.06
  C 389.41 316.23 396.59 320.59 402.80 325.06
  Q 464.74 369.62 495.39 437.16
  C 520.35 492.15 526.67 553.25 513.79 611.94
  C 495.42 695.69 439.26 765.90 361.86 803.16
  Q 311.03 827.62 251.52 830.00
  L 233.88 830.00
  C 158.71 827.18 88.90 795.24 38.15 740.35
  Q 22.51 723.44 12.11 707.13
  Q 1.72 690.86 0.00 670.34
  L 0.00 661.75
  Q 2.26 634.90 19.38 613.61
  C 37.74 590.77 63.70 575.82 92.18 569.88
  Q 92.19 569.87 108.35 567.41
  Q 161.09 559.39 196.02 518.25
  L 196.71 518.35
  A 2.37 2.27 62.6 0 1 197.56 518.64
  Q 207.50 524.46 219.10 529.71
  Q 224.77 532.27 226.38 533.01
  Q 227.87 533.69 233.79 536.01
  C 277.28 553.06 318.27 530.56 338.56 490.80
  Q 353.25 462.01 352.75 429.21
  C 352.62 420.57 351.15 411.03 351.05 402.89
  Q 350.46 352.42 381.96 312.76
  Q 382.21 312.44 382.22 312.43
  Q 382.28 312.29 382.34 312.03
  Q 382.54 312.12 382.56 312.06
  Z"
/>
<path fill="#494b50" d="
  M 3282.10 354.84
  A 0.48 0.48 0.0 0 1 3282.48 354.30
  Q 3346.32 341.79 3406.67 317.95
  A 0.62 0.61 -9.8 0 1 3407.51 318.54
  Q 3403.62 449.16 3403.28 460.50
  Q 3400.89 541.89 3401.11 632.25
  C 3401.14 646.37 3401.99 660.34 3404.88 674.45
  Q 3408.71 693.16 3427.34 696.85
  Q 3438.10 698.98 3445.54 698.50
  Q 3453.30 698.01 3455.86 697.82
  A 0.59 0.59 0.0 0 1 3456.50 698.41
  L 3456.50 724.33
  A 0.56 0.56 0.0 0 1 3455.89 724.89
  Q 3450.03 724.30 3415.50 722.34
  Q 3373.22 719.93 3334.25 721.69
  Q 3311.57 722.72 3275.93 724.85
  A 0.60 0.59 -1.4 0 1 3275.30 724.26
  L 3275.30 697.53
  A 0.61 0.61 0.0 0 1 3275.92 696.92
  C 3280.96 697.01 3288.34 697.34 3293.34 696.30
  C 3308.65 693.11 3318.33 682.64 3324.20 668.69
  C 3331.07 652.38 3333.63 633.88 3334.54 616.25
  C 3335.33 601.03 3334.85 586.51 3335.13 568.91
  Q 3336.80 465.23 3337.39 428.50
  Q 3337.52 420.45 3336.52 409.50
  C 3335.43 397.59 3333.09 383.82 3320.71 379.37
  Q 3313.70 376.85 3304.94 377.67
  Q 3292.01 378.88 3286.41 379.39
  A 0.48 0.47 82.9 0 1 3285.90 378.99
  L 3282.10 354.84
  Z"
/>
<path fill="#494b50" d="
  M 1993.77 646.77
  A 0.62 0.62 0.0 0 1 1994.65 646.94
  L 2013.91 676.21
  A 0.58 0.57 55.0 0 1 2013.78 676.98
  C 1987.57 697.03 1959.70 713.55 1928.84 724.86
  Q 1882.98 741.67 1836.52 734.12
  C 1803.64 728.77 1775.17 715.07 1751.13 692.37
  C 1704.33 648.17 1687.04 585.04 1690.87 522.17
  C 1693.24 483.24 1704.85 447.37 1726.54 415.83
  C 1760.06 367.08 1811.08 332.98 1870.26 324.21
  Q 1891.49 321.06 1917.23 321.86
  C 1944.14 322.70 1997.81 330.39 2001.53 366.01
  Q 2003.73 387.09 1989.04 402.56
  Q 1983.15 408.75 1974.77 411.09
  Q 1968.61 412.80 1962.92 409.87
  C 1948.00 402.17 1932.41 392.10 1921.15 385.89
  Q 1900.35 374.41 1878.76 371.99
  Q 1863.09 370.23 1844.47 373.99
  Q 1814.77 379.97 1793.44 401.96
  C 1766.83 429.38 1757.65 467.32 1756.98 504.51
  C 1756.21 546.72 1762.75 592.33 1787.18 627.80
  Q 1814.90 668.04 1862.78 678.15
  Q 1890.86 684.08 1919.55 679.43
  C 1946.80 675.02 1970.95 662.40 1993.77 646.77
  Z"
/>
<path fill="#494b50" d="
  M 2305.55 646.77
  A 0.62 0.62 0.0 0 1 2306.43 646.94
  L 2325.69 676.21
  A 0.58 0.57 55.0 0 1 2325.56 676.98
  C 2299.35 697.03 2271.48 713.55 2240.62 724.86
  Q 2194.76 741.67 2148.30 734.13
  C 2115.42 728.78 2086.95 715.08 2062.91 692.38
  C 2016.11 648.18 1998.82 585.05 2002.65 522.18
  C 2005.02 483.25 2016.63 447.38 2038.32 415.84
  C 2071.84 367.09 2122.86 332.99 2182.04 324.22
  Q 2203.27 321.07 2229.01 321.87
  C 2255.92 322.71 2309.59 330.40 2313.31 366.02
  Q 2315.51 387.10 2300.82 402.57
  Q 2294.93 408.76 2286.55 411.10
  Q 2280.39 412.81 2274.70 409.88
  C 2259.78 402.18 2244.19 392.11 2232.93 385.90
  Q 2212.13 374.42 2190.54 372.00
  Q 2174.87 370.24 2156.25 374.00
  Q 2126.55 379.98 2105.22 401.97
  C 2078.61 429.39 2069.43 467.33 2068.76 504.52
  C 2067.99 546.73 2074.53 592.34 2098.96 627.81
  Q 2126.68 668.05 2174.56 678.16
  Q 2202.64 684.09 2231.33 679.43
  C 2258.58 675.02 2282.73 662.40 2305.55 646.77
  Z"
/>
<path fill="#494b50" d="
  M 1562.19 673.93
  A 0.25 0.25 0.0 0 0 1561.79 673.73
  Q 1534.09 695.16 1505.37 711.59
  C 1480.22 725.99 1452.25 737.37 1422.59 736.40
  C 1404.18 735.80 1385.50 732.55 1368.82 724.18
  C 1332.18 705.82 1315.14 671.04 1312.16 631.03
  Q 1311.48 621.92 1311.83 604.95
  Q 1313.09 543.83 1314.34 483.00
  Q 1314.90 456.17 1315.29 431.75
  Q 1315.61 412.40 1312.62 394.72
  Q 1312.03 391.24 1309.82 386.18
  C 1304.90 374.93 1293.94 373.11 1282.80 374.13
  Q 1273.69 374.96 1264.46 376.25
  A 0.55 0.55 0.0 0 1 1263.84 375.76
  L 1261.17 351.05
  A 0.78 0.76 82.6 0 1 1261.81 350.20
  Q 1305.92 342.97 1349.51 331.50
  Q 1365.26 327.36 1383.22 322.33
  A 0.42 0.42 0.0 0 1 1383.75 322.75
  Q 1381.30 393.57 1380.02 437.24
  Q 1378.08 503.35 1377.78 539.50
  C 1377.54 568.14 1379.07 601.37 1386.04 630.90
  Q 1388.83 642.70 1394.84 653.39
  C 1403.43 668.65 1418.96 677.84 1436.27 680.98
  C 1449.70 683.43 1464.02 683.37 1478.10 680.00
  Q 1492.89 676.46 1504.14 671.63
  Q 1533.11 659.23 1560.86 641.08
  A 1.23 1.22 74.1 0 0 1561.40 640.10
  C 1562.28 597.99 1562.70 558.68 1563.40 517.73
  Q 1564.09 476.86 1563.72 446.01
  C 1563.55 431.47 1562.91 416.66 1559.70 402.06
  Q 1558.51 396.69 1556.26 392.50
  C 1550.69 382.15 1538.10 378.64 1526.72 378.39
  Q 1517.23 378.17 1505.83 379.08
  A 0.42 0.42 0.0 0 1 1505.38 378.71
  L 1502.71 354.00
  A 0.39 0.39 0.0 0 1 1503.07 353.56
  Q 1568.84 348.78 1633.42 333.34
  A 0.39 0.38 -6.4 0 1 1633.90 333.72
  C 1631.20 408.15 1628.96 484.31 1629.10 558.77
  C 1629.15 585.80 1627.79 613.38 1628.78 640.25
  Q 1629.26 653.12 1632.85 665.59
  Q 1634.97 672.95 1641.37 677.07
  C 1652.58 684.31 1668.05 681.36 1681.59 677.56
  A 0.67 0.66 78.9 0 1 1682.43 678.13
  L 1685.00 701.95
  A 0.34 0.33 79.5 0 1 1684.75 702.32
  L 1564.36 732.72
  A 0.47 0.46 -7.5 0 1 1563.78 732.28
  L 1562.19 673.93
  Z"
/>
<path fill="#494b50" d="
  M 2658.02 501.92
  A 0.25 0.24 -2.1 0 1 2657.77 502.18
  Q 2473.00 502.11 2452.50 502.25
  Q 2417.27 502.48 2387.07 505.26
  A 0.66 0.65 -2.5 0 0 2386.48 505.90
  C 2385.73 551.89 2390.40 600.68 2419.92 637.83
  C 2441.48 664.96 2471.42 679.04 2505.51 682.51
  Q 2535.52 685.57 2564.93 678.69
  C 2591.98 672.36 2617.81 658.61 2641.31 643.56
  A 0.57 0.57 0.0 0 1 2642.10 643.75
  L 2657.01 668.20
  A 0.62 0.62 0.0 0 1 2656.87 669.00
  C 2626.67 693.88 2592.93 714.36 2556.01 726.47
  C 2502.91 743.89 2442.14 739.37 2396.05 706.83
  C 2352.99 676.45 2326.86 629.16 2319.67 576.57
  Q 2313.29 529.84 2322.68 483.40
  Q 2336.26 416.29 2384.95 368.69
  C 2413.28 341.00 2448.98 324.70 2489.00 322.72
  Q 2510.50 321.66 2530.27 325.20
  Q 2584.77 334.95 2617.95 378.83
  C 2644.32 413.70 2655.47 458.94 2658.02 501.92
  Z
  M 2388.94 472.23
  A 0.35 0.34 -85.7 0 0 2389.28 472.63
  Q 2433.16 472.81 2477.00 471.50
  Q 2502.95 470.73 2525.74 468.99
  C 2546.11 467.43 2564.99 465.33 2583.87 460.45
  A 0.54 0.53 -13.8 0 0 2584.26 459.81
  C 2573.02 413.46 2546.14 359.68 2490.74 359.14
  C 2467.56 358.92 2447.04 367.54 2430.35 383.63
  C 2406.15 406.95 2394.13 439.54 2388.94 472.23
  Z"
/>
<path fill="#494b50" d="
  M 2936.66 437.74
  L 2907.52 442.33
  A 0.66 0.66 0.0 0 1 2906.76 441.74
  Q 2904.72 420.81 2896.33 402.70
  C 2884.96 378.15 2864.01 365.19 2837.76 361.49
  C 2813.96 358.14 2788.30 361.37 2769.24 375.74
  C 2752.60 388.28 2743.64 404.73 2744.10 425.51
  C 2744.65 449.98 2767.77 466.65 2787.78 476.25
  Q 2809.26 486.55 2831.14 492.59
  C 2863.15 501.43 2882.50 505.55 2905.95 518.53
  C 2930.02 531.84 2946.55 552.70 2951.58 580.40
  C 2958.22 616.96 2948.67 655.28 2924.05 682.85
  C 2895.71 714.58 2857.06 731.46 2814.79 735.34
  Q 2771.88 739.28 2729.08 728.89
  Q 2706.66 723.44 2683.34 714.40
  A 0.89 0.89 0.0 0 1 2682.77 713.49
  Q 2684.15 695.94 2683.08 677.07
  Q 2681.07 641.61 2674.80 607.78
  A 0.56 0.56 0.0 0 1 2675.22 607.13
  L 2704.09 600.38
  A 0.55 0.55 0.0 0 1 2704.76 600.84
  C 2709.08 636.24 2722.95 672.87 2756.87 689.09
  C 2776.82 698.63 2801.36 700.27 2823.75 697.30
  C 2856.92 692.89 2889.79 673.01 2894.21 636.97
  Q 2896.93 614.76 2881.90 598.55
  Q 2873.24 589.21 2861.47 582.26
  C 2838.34 568.58 2814.43 562.07 2787.15 553.33
  Q 2765.91 546.52 2746.69 536.58
  C 2734.76 530.40 2722.02 521.99 2713.06 512.21
  C 2694.89 492.40 2688.07 466.84 2688.28 440.23
  Q 2688.66 393.64 2722.27 362.19
  Q 2750.34 335.93 2788.31 327.31
  C 2834.96 316.72 2881.66 325.47 2926.70 338.67
  A 0.78 0.77 -82.1 0 1 2927.26 339.42
  Q 2927.32 388.31 2937.23 436.92
  A 0.69 0.69 0.0 0 1 2936.66 437.74
  Z"
/>
<path fill="#494b50" d="
  M 3245.26 437.73
  L 3216.12 442.32
  A 0.66 0.66 0.0 0 1 3215.36 441.73
  Q 3213.32 420.80 3204.93 402.69
  C 3193.55 378.15 3172.60 365.19 3146.35 361.49
  C 3122.56 358.14 3096.90 361.38 3077.84 375.75
  C 3061.20 388.29 3052.24 404.74 3052.70 425.52
  C 3053.26 449.99 3076.38 466.65 3096.39 476.25
  Q 3117.87 486.55 3139.75 492.59
  C 3171.76 501.42 3191.11 505.54 3214.56 518.52
  C 3238.63 531.83 3255.16 552.68 3260.19 580.38
  C 3266.83 616.94 3257.29 655.26 3232.67 682.83
  C 3204.33 714.56 3165.69 731.44 3123.42 735.33
  Q 3080.51 739.27 3037.71 728.89
  Q 3015.29 723.44 2991.97 714.40
  A 0.89 0.89 0.0 0 1 2991.40 713.49
  Q 2992.78 695.94 2991.71 677.07
  Q 2989.70 641.61 2983.42 607.79
  A 0.56 0.56 0.0 0 1 2983.84 607.14
  L 3012.71 600.38
  A 0.55 0.55 0.0 0 1 3013.38 600.84
  C 3017.70 636.24 3031.58 672.87 3065.50 689.08
  C 3085.45 698.62 3109.99 700.26 3132.37 697.29
  C 3165.54 692.88 3198.41 672.99 3202.83 636.95
  Q 3205.54 614.75 3190.51 598.54
  Q 3181.85 589.20 3170.08 582.25
  C 3146.95 568.57 3123.04 562.06 3095.76 553.33
  Q 3074.52 546.52 3055.30 536.58
  C 3043.37 530.40 3030.63 521.99 3021.67 512.22
  C 3003.50 492.41 2996.68 466.85 2996.89 440.24
  Q 2997.26 393.65 3030.87 362.20
  Q 3058.94 335.94 3096.90 327.32
  C 3143.55 316.72 3190.25 325.47 3235.29 338.66
  A 0.78 0.77 -82.1 0 1 3235.85 339.41
  Q 3235.91 388.30 3245.83 436.91
  A 0.69 0.69 0.0 0 1 3245.26 437.73
  Z"
/>
</svg>
