<?xml version="1.0" encoding="UTF-8" standalone="no"?>
<!DOCTYPE svg PUBLIC "-//W3C//DTD SVG 1.1//EN" "http://www.w3.org/Graphics/SVG/1.1/DTD/svg11.dtd">
<svg xmlns="http://www.w3.org/2000/svg" version="1.1" viewBox="0.00 0.00 339.00 149.00">
<g stroke-width="2.00" fill="none" stroke-linecap="butt">
<path stroke="#939ba3" vector-effect="non-scaling-stroke" d="
  M 44.75 47.62
  C 44.83 47.74 44.82 47.71 44.82 47.80
  Q 44.97 60.14 44.89 82.40
  A 1.12 1.11 -75.3 0 0 45.45 83.37
  L 70.22 97.68
  A 0.49 0.49 0.0 0 0 70.95 97.26
  L 70.89 32.90
  A 0.27 0.11 61.8 0 0 70.88 32.83
  Q 70.83 32.69 70.75 32.56
  Q 70.68 32.43 70.58 32.32
  A 0.27 0.11 58.1 0 0 70.53 32.28
  L 14.73 0.21
  A 0.49 0.49 0.0 0 0 14.00 0.63
  L 14.09 29.24
  A 1.12 1.11 15.1 0 0 14.65 30.21
  Q 34.00 41.21 44.63 47.47
  C 44.72 47.52 44.69 47.50 44.75 47.62"
/>
<path stroke="#939ba3" vector-effect="non-scaling-stroke" d="
  M 191.10 32.06
  A 0.36 0.36 0.0 0 0 190.74 31.70
  L 183.50 31.70
  A 0.36 0.36 0.0 0 0 183.14 32.06
  L 183.14 87.06
  A 0.36 0.36 0.0 0 0 183.50 87.42
  L 190.74 87.42
  A 0.36 0.36 0.0 0 0 191.10 87.06
  L 191.10 32.06"
/>
<path stroke="#939ba3" vector-effect="non-scaling-stroke" d="
  M 127.08 87.45
  Q 129.77 87.45 130.37 87.38
  A 0.59 0.59 0.0 0 0 130.89 86.80
  L 130.89 45.62
  A 0.65 0.65 0.0 0 1 131.54 44.97
  L 141.46 44.97
  A 0.51 0.51 0.0 0 0 141.97 44.46
  L 141.97 38.36
  A 0.52 0.52 0.0 0 0 141.46 37.84
  Q 134.51 37.79 127.11 37.79
  Q 119.72 37.78 112.77 37.83
  A 0.52 0.52 0.0 0 0 112.25 38.34
  L 112.25 44.44
  A 0.51 0.51 0.0 0 0 112.76 44.95
  L 122.68 44.97
  A 0.65 0.65 0.0 0 1 123.32 45.62
  L 123.28 86.80
  A 0.59 0.59 0.0 0 0 123.79 87.38
  Q 124.40 87.45 127.08 87.45"
/>
<path stroke="#939ba3" vector-effect="non-scaling-stroke" d="
  M 26.42 101.25
  C 26.34 101.13 26.35 101.16 26.35 101.07
  Q 26.20 88.74 26.28 66.50
  A 1.12 1.11 -75.3 0 0 25.72 65.53
  L 0.97 51.23
  A 0.49 0.49 0.0 0 0 0.24 51.65
  L 0.30 115.96
  A 0.27 0.11 61.8 0 0 0.31 116.02
  Q 0.37 116.16 0.45 116.30
  Q 0.52 116.42 0.61 116.54
  A 0.27 0.11 58.1 0 0 0.67 116.58
  L 56.42 148.62
  A 0.49 0.49 0.0 0 0 57.15 148.20
  L 57.05 119.62
  A 1.12 1.11 15.1 0 0 56.49 118.65
  Q 37.16 107.65 26.54 101.40
  C 26.46 101.35 26.48 101.37 26.42 101.25"
/>
<path stroke="#939ba3" vector-effect="non-scaling-stroke" d="
  M 142.96 71.32
  Q 142.96 77.99 146.55 82.74
  Q 153.30 91.68 165.32 86.83
  A 1.29 0.92 -65.8 0 0 165.61 86.66
  L 167.63 85.02
  A 0.33 0.32 -19.6 0 1 168.16 85.27
  L 168.16 86.84
  A 0.60 0.59 0.0 0 0 168.76 87.43
  L 175.33 87.43
  A 0.62 0.62 0.0 0 0 175.95 86.80
  Q 175.88 79.28 175.91 71.31
  Q 175.88 63.34 175.95 55.82
  A 0.62 0.62 0.0 0 0 175.32 55.19
  L 168.75 55.20
  A 0.60 0.59 -0.0 0 0 168.15 55.79
  L 168.15 57.36
  A 0.33 0.32 19.6 0 1 167.62 57.61
  L 165.60 55.97
  A 1.29 0.92 65.8 0 0 165.31 55.80
  Q 153.29 50.96 146.54 59.90
  Q 142.95 64.65 142.96 71.32"
/>
<path stroke="#939ba3" vector-effect="non-scaling-stroke" d="
  M 211.3921 54.0130
  A 17.40 17.16 -95.6 0 0 196.0119 73.0045
  A 17.40 17.16 -95.6 0 0 214.7879 88.6470
  A 17.40 17.16 -95.6 0 0 230.1681 69.6555
  A 17.40 17.16 -95.6 0 0 211.3921 54.0130"
/>
<path stroke="#939ba3" vector-effect="non-scaling-stroke" d="
  M 232.76 82.77
  A 0.57 0.57 0.0 0 0 232.77 83.52
  Q 236.42 87.64 241.85 88.36
  C 250.06 89.44 257.95 83.91 256.17 75.00
  Q 255.39 71.11 251.54 69.44
  Q 245.53 66.84 244.10 66.15
  Q 240.62 64.45 242.44 61.07
  C 244.13 57.95 249.38 59.52 251.33 61.52
  A 0.32 0.31 42.1 0 0 251.80 61.50
  L 254.76 57.91
  A 0.50 0.50 0.0 0 0 254.67 57.19
  C 249.09 53.16 238.63 52.16 235.37 59.88
  C 231.85 68.18 238.50 71.11 244.61 73.65
  Q 247.59 74.89 248.22 76.21
  C 249.33 78.50 248.38 81.67 245.69 82.52
  Q 241.28 83.90 236.40 79.07
  A 0.42 0.42 0.0 0 0 235.78 79.10
  L 232.76 82.77"
/>
<path stroke="#939ba3" vector-effect="non-scaling-stroke" d="
  M 328.33 114.29
  A 0.32 0.32 0.0 0 0 328.08 114.41
  L 318.45 126.11
  A 0.32 0.32 0.0 0 1 317.88 125.91
  L 317.88 93.08
  A 0.32 0.32 0.0 0 0 317.56 92.76
  L 310.97 92.76
  A 0.32 0.32 0.0 0 0 310.65 93.08
  L 310.65 143.49
  A 0.32 0.32 0.0 0 0 310.97 143.81
  L 317.64 143.81
  A 0.32 0.32 0.0 0 0 317.96 143.49
  L 317.96 130.66
  A 0.32 0.32 0.0 0 1 318.53 130.46
  L 329.26 143.68
  A 0.32 0.32 0.0 0 0 329.51 143.80
  L 338.18 143.80
  A 0.32 0.32 0.0 0 0 338.43 143.28
  L 325.50 127.37
  A 0.32 0.32 0.0 0 1 325.52 126.95
  L 337.63 114.84
  A 0.32 0.32 0.0 0 0 337.41 114.29
  L 328.33 114.29"
/>
<path stroke="#939ba3" vector-effect="non-scaling-stroke" d="
  M 132.46 122.82
  Q 144.33 138.72 148.76 144.31
  A 1.13 1.11 -18.7 0 0 149.64 144.74
  L 154.25 144.74
  A 0.52 0.52 0.0 0 0 154.77 144.22
  L 154.77 98.60
  A 0.31 0.31 0.0 0 0 154.46 98.29
  L 147.44 98.29
  A 0.36 0.36 0.0 0 0 147.08 98.65
  L 147.08 130.76
  A 0.23 0.22 26.5 0 1 146.68 130.89
  Q 141.43 124.03 137.81 119.19
  Q 125.95 103.29 121.52 97.70
  A 1.13 1.11 -18.7 0 0 120.64 97.27
  L 116.03 97.27
  A 0.52 0.52 0.0 0 0 115.51 97.79
  L 115.51 143.41
  A 0.31 0.31 0.0 0 0 115.82 143.72
  L 122.84 143.72
  A 0.36 0.36 0.0 0 0 123.20 143.36
  L 123.20 111.25
  A 0.23 0.22 26.5 0 1 123.60 111.11
  Q 128.85 117.97 132.46 122.82"
/>
<path stroke="#939ba3" vector-effect="non-scaling-stroke" d="
  M 228.91 125.94
  L 235.57 143.81
  A 0.93 0.93 0.0 0 0 236.44 144.41
  L 238.55 144.41
  A 1.20 1.20 0.0 0 0 239.64 143.71
  L 252.94 114.46
  A 0.12 0.12 0.0 0 0 252.83 114.29
  L 245.42 114.29
  A 0.40 0.40 0.0 0 0 245.05 114.54
  L 238.00 132.78
  A 0.31 0.31 0.0 0 1 237.42 132.78
  L 229.85 114.25
  A 1.79 1.79 0.0 0 0 226.53 114.28
  L 219.23 133.15
  A 0.25 0.25 0.0 0 1 218.77 133.15
  L 211.76 114.34
  A 0.28 0.28 0.0 0 0 211.47 114.15
  L 200.90 114.81
  A 0.72 0.72 0.0 0 1 200.13 114.09
  L 200.13 104.78
  A 0.51 0.51 0.0 0 0 199.62 104.27
  L 193.46 104.27
  A 0.55 0.54 -0.0 0 0 192.91 104.81
  L 192.91 114.22
  A 0.66 0.65 90.0 0 1 192.26 114.88
  L 190.00 114.88
  A 0.58 0.57 -90.0 0 0 189.43 115.46
  L 189.43 120.13
  A 0.66 0.65 88.0 0 0 190.13 120.79
  L 192.30 120.65
  A 0.57 0.57 0.0 0 1 192.90 121.22
  L 192.90 143.37
  A 0.40 0.40 0.0 0 0 193.30 143.77
  L 199.73 143.77
  A 0.41 0.41 0.0 0 0 200.14 143.36
  L 200.14 121.32
  A 0.68 0.68 0.0 0 1 200.82 120.64
  L 206.27 120.64
  A 0.60 0.59 77.6 0 1 206.81 120.99
  L 217.05 143.77
  A 1.07 1.07 0.0 0 0 218.03 144.41
  L 220.47 144.41
  A 1.10 1.10 0.0 0 0 221.50 143.70
  L 228.37 125.94
  A 0.29 0.29 0.0 0 1 228.91 125.94"
/>
<path stroke="#939ba3" vector-effect="non-scaling-stroke" d="
  M 167.98 129.66
  L 186.93 129.66
  A 0.35 0.35 0.0 0 0 187.28 129.32
  C 187.46 122.07 183.81 114.01 175.55 113.44
  Q 160.95 112.43 159.10 126.76
  C 157.92 135.84 162.63 143.98 172.21 144.70
  Q 183.21 145.53 187.09 135.88
  A 0.20 0.20 0.0 0 0 186.93 135.61
  L 180.52 134.55
  A 0.27 0.26 13.7 0 0 180.22 134.73
  Q 178.36 140.40 172.39 139.41
  A 5.60 5.58 -6.4 0 1 168.13 136.02
  L 166.46 131.92
  A 1.64 1.64 0.0 0 1 167.98 129.66"
/>
<path stroke="#939ba3" vector-effect="non-scaling-stroke" d="
  M 295.03 116.60
  L 295.31 114.90
  A 0.52 0.52 0.0 0 0 294.80 114.29
  L 288.58 114.29
  A 0.57 0.56 -0.0 0 0 288.01 114.85
  L 288.01 143.55
  A 0.27 0.27 0.0 0 0 288.28 143.82
  L 294.94 143.82
  A 0.32 0.32 0.0 0 0 295.26 143.50
  Q 295.22 131.08 295.28 129.25
  C 295.49 122.84 298.81 117.48 306.30 120.36
  A 0.12 0.12 0.0 0 0 306.47 120.27
  L 307.45 114.33
  A 0.40 0.39 13.3 0 0 307.17 113.89
  Q 300.38 111.97 295.52 116.84
  A 0.29 0.28 -18.4 0 1 295.03 116.60"
/>
<path stroke="#939ba3" vector-effect="non-scaling-stroke" d="
  M 267.1410 113.1981
  A 15.91 15.68 -94.9 0 0 252.8773 130.3893
  A 15.91 15.68 -94.9 0 0 269.8590 144.9019
  A 15.91 15.68 -94.9 0 0 284.1227 127.7107
  A 15.91 15.68 -94.9 0 0 267.1410 113.1981"
/>
<path stroke="#939ba3" vector-effect="non-scaling-stroke" d="
  M 159.5420 60.8900
  A 10.50 9.17 -92.5 0 0 150.8387 71.7800
  A 10.50 9.17 -92.5 0 0 160.4580 81.8700
  A 10.50 9.17 -92.5 0 0 169.1613 70.9800
  A 10.50 9.17 -92.5 0 0 159.5420 60.8900"
/>
<path stroke="#939ba3" vector-effect="non-scaling-stroke" d="
  M 213.0866 60.8901
  A 10.48 9.05 -89.8 0 0 204.0001 71.3384
  A 10.48 9.05 -89.8 0 0 213.0134 81.8499
  A 10.48 9.05 -89.8 0 0 222.0999 71.4016
  A 10.48 9.05 -89.8 0 0 213.0866 60.8901"
/>
<path stroke="#939ba3" vector-effect="non-scaling-stroke" d="
  M 167.16 125.76
  L 180.30 125.74
  A 0.22 0.22 0.0 0 0 180.52 125.52
  L 180.52 125.19
  A 7.15 6.77 89.9 0 0 173.73 118.05
  L 173.69 118.05
  A 7.15 6.77 89.9 0 0 166.94 125.21
  L 166.94 125.54
  A 0.22 0.22 0.0 0 0 167.16 125.76"
/>
<path stroke="#939ba3" vector-effect="non-scaling-stroke" d="
  M 268.4868 119.4700
  A 9.60 8.32 -89.9 0 0 260.1500 129.0555
  A 9.60 8.32 -89.9 0 0 268.4532 138.6700
  A 9.60 8.32 -89.9 0 0 276.7900 129.0845
  A 9.60 8.32 -89.9 0 0 268.4868 119.4700"
/>
</g>
<path fill="#ffffff" d="
  M 339.00 0.00
  L 339.00 149.00
  L 0.00 149.00
  L 0.00 0.00
  L 339.00 0.00
  Z
  M 44.75 47.62
  C 44.83 47.74 44.82 47.71 44.82 47.80
  Q 44.97 60.14 44.89 82.40
  A 1.12 1.11 -75.3 0 0 45.45 83.37
  L 70.22 97.68
  A 0.49 0.49 0.0 0 0 70.95 97.26
  L 70.89 32.90
  A 0.27 0.11 61.8 0 0 70.88 32.83
  Q 70.83 32.69 70.75 32.56
  Q 70.68 32.43 70.58 32.32
  A 0.27 0.11 58.1 0 0 70.53 32.28
  L 14.73 0.21
  A 0.49 0.49 0.0 0 0 14.00 0.63
  L 14.09 29.24
  A 1.12 1.11 15.1 0 0 14.65 30.21
  Q 34.00 41.21 44.63 47.47
  C 44.72 47.52 44.69 47.50 44.75 47.62
  Z
  M 191.10 32.06
  A 0.36 0.36 0.0 0 0 190.74 31.70
  L 183.50 31.70
  A 0.36 0.36 0.0 0 0 183.14 32.06
  L 183.14 87.06
  A 0.36 0.36 0.0 0 0 183.50 87.42
  L 190.74 87.42
  A 0.36 0.36 0.0 0 0 191.10 87.06
  L 191.10 32.06
  Z
  M 127.08 87.45
  Q 129.77 87.45 130.37 87.38
  A 0.59 0.59 0.0 0 0 130.89 86.80
  L 130.89 45.62
  A 0.65 0.65 0.0 0 1 131.54 44.97
  L 141.46 44.97
  A 0.51 0.51 0.0 0 0 141.97 44.46
  L 141.97 38.36
  A 0.52 0.52 0.0 0 0 141.46 37.84
  Q 134.51 37.79 127.11 37.79
  Q 119.72 37.78 112.77 37.83
  A 0.52 0.52 0.0 0 0 112.25 38.34
  L 112.25 44.44
  A 0.51 0.51 0.0 0 0 112.76 44.95
  L 122.68 44.97
  A 0.65 0.65 0.0 0 1 123.32 45.62
  L 123.28 86.80
  A 0.59 0.59 0.0 0 0 123.79 87.38
  Q 124.40 87.45 127.08 87.45
  Z
  M 26.42 101.25
  C 26.34 101.13 26.35 101.16 26.35 101.07
  Q 26.20 88.74 26.28 66.50
  A 1.12 1.11 -75.3 0 0 25.72 65.53
  L 0.97 51.23
  A 0.49 0.49 0.0 0 0 0.24 51.65
  L 0.30 115.96
  A 0.27 0.11 61.8 0 0 0.31 116.02
  Q 0.37 116.16 0.45 116.30
  Q 0.52 116.42 0.61 116.54
  A 0.27 0.11 58.1 0 0 0.67 116.58
  L 56.42 148.62
  A 0.49 0.49 0.0 0 0 57.15 148.20
  L 57.05 119.62
  A 1.12 1.11 15.1 0 0 56.49 118.65
  Q 37.16 107.65 26.54 101.40
  C 26.46 101.35 26.48 101.37 26.42 101.25
  Z
  M 142.96 71.32
  Q 142.96 77.99 146.55 82.74
  Q 153.30 91.68 165.32 86.83
  A 1.29 0.92 -65.8 0 0 165.61 86.66
  L 167.63 85.02
  A 0.33 0.32 -19.6 0 1 168.16 85.27
  L 168.16 86.84
  A 0.60 0.59 0.0 0 0 168.76 87.43
  L 175.33 87.43
  A 0.62 0.62 0.0 0 0 175.95 86.80
  Q 175.88 79.28 175.91 71.31
  Q 175.88 63.34 175.95 55.82
  A 0.62 0.62 0.0 0 0 175.32 55.19
  L 168.75 55.20
  A 0.60 0.59 -0.0 0 0 168.15 55.79
  L 168.15 57.36
  A 0.33 0.32 19.6 0 1 167.62 57.61
  L 165.60 55.97
  A 1.29 0.92 65.8 0 0 165.31 55.80
  Q 153.29 50.96 146.54 59.90
  Q 142.95 64.65 142.96 71.32
  Z
  M 211.3921 54.0130
  A 17.40 17.16 -95.6 0 0 196.0119 73.0045
  A 17.40 17.16 -95.6 0 0 214.7879 88.6470
  A 17.40 17.16 -95.6 0 0 230.1681 69.6555
  A 17.40 17.16 -95.6 0 0 211.3921 54.0130
  Z
  M 232.76 82.77
  A 0.57 0.57 0.0 0 0 232.77 83.52
  Q 236.42 87.64 241.85 88.36
  C 250.06 89.44 257.95 83.91 256.17 75.00
  Q 255.39 71.11 251.54 69.44
  Q 245.53 66.84 244.10 66.15
  Q 240.62 64.45 242.44 61.07
  C 244.13 57.95 249.38 59.52 251.33 61.52
  A 0.32 0.31 42.1 0 0 251.80 61.50
  L 254.76 57.91
  A 0.50 0.50 0.0 0 0 254.67 57.19
  C 249.09 53.16 238.63 52.16 235.37 59.88
  C 231.85 68.18 238.50 71.11 244.61 73.65
  Q 247.59 74.89 248.22 76.21
  C 249.33 78.50 248.38 81.67 245.69 82.52
  Q 241.28 83.90 236.40 79.07
  A 0.42 0.42 0.0 0 0 235.78 79.10
  L 232.76 82.77
  Z
  M 328.33 114.29
  A 0.32 0.32 0.0 0 0 328.08 114.41
  L 318.45 126.11
  A 0.32 0.32 0.0 0 1 317.88 125.91
  L 317.88 93.08
  A 0.32 0.32 0.0 0 0 317.56 92.76
  L 310.97 92.76
  A 0.32 0.32 0.0 0 0 310.65 93.08
  L 310.65 143.49
  A 0.32 0.32 0.0 0 0 310.97 143.81
  L 317.64 143.81
  A 0.32 0.32 0.0 0 0 317.96 143.49
  L 317.96 130.66
  A 0.32 0.32 0.0 0 1 318.53 130.46
  L 329.26 143.68
  A 0.32 0.32 0.0 0 0 329.51 143.80
  L 338.18 143.80
  A 0.32 0.32 0.0 0 0 338.43 143.28
  L 325.50 127.37
  A 0.32 0.32 0.0 0 1 325.52 126.95
  L 337.63 114.84
  A 0.32 0.32 0.0 0 0 337.41 114.29
  L 328.33 114.29
  Z
  M 132.46 122.82
  Q 144.33 138.72 148.76 144.31
  A 1.13 1.11 -18.7 0 0 149.64 144.74
  L 154.25 144.74
  A 0.52 0.52 0.0 0 0 154.77 144.22
  L 154.77 98.60
  A 0.31 0.31 0.0 0 0 154.46 98.29
  L 147.44 98.29
  A 0.36 0.36 0.0 0 0 147.08 98.65
  L 147.08 130.76
  A 0.23 0.22 26.5 0 1 146.68 130.89
  Q 141.43 124.03 137.81 119.19
  Q 125.95 103.29 121.52 97.70
  A 1.13 1.11 -18.7 0 0 120.64 97.27
  L 116.03 97.27
  A 0.52 0.52 0.0 0 0 115.51 97.79
  L 115.51 143.41
  A 0.31 0.31 0.0 0 0 115.82 143.72
  L 122.84 143.72
  A 0.36 0.36 0.0 0 0 123.20 143.36
  L 123.20 111.25
  A 0.23 0.22 26.5 0 1 123.60 111.11
  Q 128.85 117.97 132.46 122.82
  Z
  M 228.91 125.94
  L 235.57 143.81
  A 0.93 0.93 0.0 0 0 236.44 144.41
  L 238.55 144.41
  A 1.20 1.20 0.0 0 0 239.64 143.71
  L 252.94 114.46
  A 0.12 0.12 0.0 0 0 252.83 114.29
  L 245.42 114.29
  A 0.40 0.40 0.0 0 0 245.05 114.54
  L 238.00 132.78
  A 0.31 0.31 0.0 0 1 237.42 132.78
  L 229.85 114.25
  A 1.79 1.79 0.0 0 0 226.53 114.28
  L 219.23 133.15
  A 0.25 0.25 0.0 0 1 218.77 133.15
  L 211.76 114.34
  A 0.28 0.28 0.0 0 0 211.47 114.15
  L 200.90 114.81
  A 0.72 0.72 0.0 0 1 200.13 114.09
  L 200.13 104.78
  A 0.51 0.51 0.0 0 0 199.62 104.27
  L 193.46 104.27
  A 0.55 0.54 -0.0 0 0 192.91 104.81
  L 192.91 114.22
  A 0.66 0.65 90.0 0 1 192.26 114.88
  L 190.00 114.88
  A 0.58 0.57 -90.0 0 0 189.43 115.46
  L 189.43 120.13
  A 0.66 0.65 88.0 0 0 190.13 120.79
  L 192.30 120.65
  A 0.57 0.57 0.0 0 1 192.90 121.22
  L 192.90 143.37
  A 0.40 0.40 0.0 0 0 193.30 143.77
  L 199.73 143.77
  A 0.41 0.41 0.0 0 0 200.14 143.36
  L 200.14 121.32
  A 0.68 0.68 0.0 0 1 200.82 120.64
  L 206.27 120.64
  A 0.60 0.59 77.6 0 1 206.81 120.99
  L 217.05 143.77
  A 1.07 1.07 0.0 0 0 218.03 144.41
  L 220.47 144.41
  A 1.10 1.10 0.0 0 0 221.50 143.70
  L 228.37 125.94
  A 0.29 0.29 0.0 0 1 228.91 125.94
  Z
  M 167.98 129.66
  L 186.93 129.66
  A 0.35 0.35 0.0 0 0 187.28 129.32
  C 187.46 122.07 183.81 114.01 175.55 113.44
  Q 160.95 112.43 159.10 126.76
  C 157.92 135.84 162.63 143.98 172.21 144.70
  Q 183.21 145.53 187.09 135.88
  A 0.20 0.20 0.0 0 0 186.93 135.61
  L 180.52 134.55
  A 0.27 0.26 13.7 0 0 180.22 134.73
  Q 178.36 140.40 172.39 139.41
  A 5.60 5.58 -6.4 0 1 168.13 136.02
  L 166.46 131.92
  A 1.64 1.64 0.0 0 1 167.98 129.66
  Z
  M 295.03 116.60
  L 295.31 114.90
  A 0.52 0.52 0.0 0 0 294.80 114.29
  L 288.58 114.29
  A 0.57 0.56 -0.0 0 0 288.01 114.85
  L 288.01 143.55
  A 0.27 0.27 0.0 0 0 288.28 143.82
  L 294.94 143.82
  A 0.32 0.32 0.0 0 0 295.26 143.50
  Q 295.22 131.08 295.28 129.25
  C 295.49 122.84 298.81 117.48 306.30 120.36
  A 0.12 0.12 0.0 0 0 306.47 120.27
  L 307.45 114.33
  A 0.40 0.39 13.3 0 0 307.17 113.89
  Q 300.38 111.97 295.52 116.84
  A 0.29 0.28 -18.4 0 1 295.03 116.60
  Z
  M 267.1410 113.1981
  A 15.91 15.68 -94.9 0 0 252.8773 130.3893
  A 15.91 15.68 -94.9 0 0 269.8590 144.9019
  A 15.91 15.68 -94.9 0 0 284.1227 127.7107
  A 15.91 15.68 -94.9 0 0 267.1410 113.1981
  Z"
/>
<path fill="#273746" d="
  M 70.75 32.56
  Q 70.83 32.69 70.88 32.83
  A 0.27 0.11 61.8 0 1 70.89 32.90
  L 70.95 97.26
  A 0.49 0.49 0.0 0 1 70.22 97.68
  L 45.45 83.37
  A 1.12 1.11 -75.3 0 1 44.89 82.40
  Q 44.97 60.14 44.82 47.80
  C 44.82 47.71 44.83 47.74 44.75 47.62
  C 44.69 47.50 44.72 47.52 44.63 47.47
  Q 34.00 41.21 14.65 30.21
  A 1.12 1.11 15.1 0 1 14.09 29.24
  L 14.00 0.63
  A 0.49 0.49 0.0 0 1 14.73 0.21
  L 70.53 32.28
  A 0.27 0.11 58.1 0 1 70.58 32.32
  Q 70.68 32.43 70.75 32.56
  Z"
/>
<rect fill="#273746" x="183.14" y="31.70" width="7.96" height="55.72" rx="0.36"/>
<path fill="#273746" d="
  M 127.11 37.79
  Q 134.51 37.79 141.46 37.84
  A 0.52 0.52 0.0 0 1 141.97 38.36
  L 141.97 44.46
  A 0.51 0.51 0.0 0 1 141.46 44.97
  L 131.54 44.97
  A 0.65 0.65 0.0 0 0 130.89 45.62
  L 130.89 86.80
  A 0.59 0.59 0.0 0 1 130.37 87.38
  Q 129.77 87.45 127.08 87.45
  Q 124.40 87.45 123.79 87.38
  A 0.59 0.59 0.0 0 1 123.28 86.80
  L 123.32 45.62
  A 0.65 0.65 0.0 0 0 122.68 44.97
  L 112.76 44.95
  A 0.51 0.51 0.0 0 1 112.25 44.44
  L 112.25 38.34
  A 0.52 0.52 0.0 0 1 112.77 37.83
  Q 119.72 37.78 127.11 37.79
  Z"
/>
<path fill="#273746" d="
  M 26.42 101.25
  C 26.48 101.37 26.46 101.35 26.54 101.40
  Q 37.16 107.65 56.49 118.65
  A 1.12 1.11 15.1 0 1 57.05 119.62
  L 57.15 148.20
  A 0.49 0.49 0.0 0 1 56.42 148.62
  L 0.67 116.58
  A 0.27 0.11 58.1 0 1 0.61 116.54
  Q 0.52 116.42 0.45 116.30
  Q 0.37 116.16 0.31 116.02
  A 0.27 0.11 61.8 0 1 0.30 115.96
  L 0.24 51.65
  A 0.49 0.49 0.0 0 1 0.97 51.23
  L 25.72 65.53
  A 1.12 1.11 -75.3 0 1 26.28 66.50
  Q 26.20 88.74 26.35 101.07
  C 26.35 101.16 26.34 101.13 26.42 101.25
  Z"
/>
<path fill="#273746" d="
  M 175.91 71.31
  Q 175.88 79.28 175.95 86.80
  A 0.62 0.62 0.0 0 1 175.33 87.43
  L 168.76 87.43
  A 0.60 0.59 -0.0 0 1 168.16 86.84
  L 168.16 85.27
  A 0.33 0.32 -19.6 0 0 167.63 85.02
  L 165.61 86.66
  A 1.29 0.92 -65.8 0 1 165.32 86.83
  Q 153.30 91.68 146.55 82.74
  Q 142.96 77.99 142.96 71.32
  Q 142.95 64.65 146.54 59.90
  Q 153.29 50.96 165.31 55.80
  A 1.29 0.92 65.8 0 1 165.60 55.97
  L 167.62 57.61
  A 0.33 0.32 19.6 0 0 168.15 57.36
  L 168.15 55.79
  A 0.60 0.59 -0.0 0 1 168.75 55.20
  L 175.32 55.19
  A 0.62 0.62 0.0 0 1 175.95 55.82
  Q 175.88 63.34 175.91 71.31
  Z
  M 159.5420 60.8900
  A 10.50 9.17 -92.5 0 0 150.8387 71.7800
  A 10.50 9.17 -92.5 0 0 160.4580 81.8700
  A 10.50 9.17 -92.5 0 0 169.1613 70.9800
  A 10.50 9.17 -92.5 0 0 159.5420 60.8900
  Z"
/>
<path fill="#273746" d="
  M 211.3921 54.0130
  A 17.40 17.16 -95.6 0 1 230.1681 69.6555
  A 17.40 17.16 -95.6 0 1 214.7879 88.6470
  A 17.40 17.16 -95.6 0 1 196.0119 73.0045
  A 17.40 17.16 -95.6 0 1 211.3921 54.0130
  Z
  M 213.0866 60.8901
  A 10.48 9.05 -89.8 0 0 204.0001 71.3384
  A 10.48 9.05 -89.8 0 0 213.0134 81.8499
  A 10.48 9.05 -89.8 0 0 222.0999 71.4016
  A 10.48 9.05 -89.8 0 0 213.0866 60.8901
  Z"
/>
<path fill="#273746" d="
  M 232.76 82.77
  L 235.78 79.10
  A 0.42 0.42 0.0 0 1 236.40 79.07
  Q 241.28 83.90 245.69 82.52
  C 248.38 81.67 249.33 78.50 248.22 76.21
  Q 247.59 74.89 244.61 73.65
  C 238.50 71.11 231.85 68.18 235.37 59.88
  C 238.63 52.16 249.09 53.16 254.67 57.19
  A 0.50 0.50 0.0 0 1 254.76 57.91
  L 251.80 61.50
  A 0.32 0.31 42.1 0 1 251.33 61.52
  C 249.38 59.52 244.13 57.95 242.44 61.07
  Q 240.62 64.45 244.10 66.15
  Q 245.53 66.84 251.54 69.44
  Q 255.39 71.11 256.17 75.00
  C 257.95 83.91 250.06 89.44 241.85 88.36
  Q 236.42 87.64 232.77 83.52
  A 0.57 0.57 0.0 0 1 232.76 82.77
  Z"
/>
<ellipse fill="#ffffff" cx="0.00" cy="0.00" transform="translate(160.00,71.38) rotate(-92.5)" rx="10.50" ry="9.17"/>
<ellipse fill="#ffffff" cx="0.00" cy="0.00" transform="translate(213.05,71.37) rotate(-89.8)" rx="10.48" ry="9.05"/>
<path fill="#273746" d="
  M 328.33 114.29
  L 337.41 114.29
  A 0.32 0.32 0.0 0 1 337.63 114.84
  L 325.52 126.95
  A 0.32 0.32 0.0 0 0 325.50 127.37
  L 338.43 143.28
  A 0.32 0.32 0.0 0 1 338.18 143.80
  L 329.51 143.80
  A 0.32 0.32 0.0 0 1 329.26 143.68
  L 318.53 130.46
  A 0.32 0.32 0.0 0 0 317.96 130.66
  L 317.96 143.49
  A 0.32 0.32 0.0 0 1 317.64 143.81
  L 310.97 143.81
  A 0.32 0.32 0.0 0 1 310.65 143.49
  L 310.65 93.08
  A 0.32 0.32 0.0 0 1 310.97 92.76
  L 317.56 92.76
  A 0.32 0.32 0.0 0 1 317.88 93.08
  L 317.88 125.91
  A 0.32 0.32 0.0 0 0 318.45 126.11
  L 328.08 114.41
  A 0.32 0.32 0.0 0 1 328.33 114.29
  Z"
/>
<path fill="#273746" d="
  M 137.81 119.19
  Q 141.43 124.03 146.68 130.89
  A 0.23 0.22 26.5 0 0 147.08 130.76
  L 147.08 98.65
  A 0.36 0.36 0.0 0 1 147.44 98.29
  L 154.46 98.29
  A 0.31 0.31 0.0 0 1 154.77 98.60
  L 154.77 144.22
  A 0.52 0.52 0.0 0 1 154.25 144.74
  L 149.64 144.74
  A 1.13 1.11 -18.7 0 1 148.76 144.31
  Q 144.33 138.72 132.46 122.82
  Q 128.85 117.97 123.60 111.11
  A 0.23 0.22 26.5 0 0 123.20 111.25
  L 123.20 143.36
  A 0.36 0.36 0.0 0 1 122.84 143.72
  L 115.82 143.72
  A 0.31 0.31 0.0 0 1 115.51 143.41
  L 115.51 97.79
  A 0.52 0.52 0.0 0 1 116.03 97.27
  L 120.64 97.27
  A 1.13 1.11 -18.7 0 1 121.52 97.70
  Q 125.95 103.29 137.81 119.19
  Z"
/>
<path fill="#273746" d="
  M 228.91 125.94
  A 0.29 0.29 0.0 0 0 228.37 125.94
  L 221.50 143.70
  A 1.10 1.10 0.0 0 1 220.47 144.41
  L 218.03 144.41
  A 1.07 1.07 0.0 0 1 217.05 143.77
  L 206.81 120.99
  A 0.60 0.59 77.6 0 0 206.27 120.64
  L 200.82 120.64
  A 0.68 0.68 0.0 0 0 200.14 121.32
  L 200.14 143.36
  A 0.41 0.41 0.0 0 1 199.73 143.77
  L 193.30 143.77
  A 0.40 0.40 0.0 0 1 192.90 143.37
  L 192.90 121.22
  A 0.57 0.57 0.0 0 0 192.30 120.65
  L 190.13 120.79
  A 0.66 0.65 88.0 0 1 189.43 120.13
  L 189.43 115.46
  A 0.58 0.57 90.0 0 1 190.00 114.88
  L 192.26 114.88
  A 0.66 0.65 90.0 0 0 192.91 114.22
  L 192.91 104.81
  A 0.55 0.54 0.0 0 1 193.46 104.27
  L 199.62 104.27
  A 0.51 0.51 0.0 0 1 200.13 104.78
  L 200.13 114.09
  A 0.72 0.72 0.0 0 0 200.90 114.81
  L 211.47 114.15
  A 0.28 0.28 0.0 0 1 211.76 114.34
  L 218.77 133.15
  A 0.25 0.25 0.0 0 0 219.23 133.15
  L 226.53 114.28
  A 1.79 1.79 0.0 0 1 229.85 114.25
  L 237.42 132.78
  A 0.31 0.31 0.0 0 0 238.00 132.78
  L 245.05 114.54
  A 0.40 0.40 0.0 0 1 245.42 114.29
  L 252.83 114.29
  A 0.12 0.12 0.0 0 1 252.94 114.46
  L 239.64 143.71
  A 1.20 1.20 0.0 0 1 238.55 144.41
  L 236.44 144.41
  A 0.93 0.93 0.0 0 1 235.57 143.81
  L 228.91 125.94
  Z"
/>
<path fill="#273746" d="
  M 167.98 129.66
  A 1.64 1.64 0.0 0 0 166.46 131.92
  L 168.13 136.02
  A 5.60 5.58 -6.4 0 0 172.39 139.41
  Q 178.36 140.40 180.22 134.73
  A 0.27 0.26 13.7 0 1 180.52 134.55
  L 186.93 135.61
  A 0.20 0.20 0.0 0 1 187.09 135.88
  Q 183.21 145.53 172.21 144.70
  C 162.63 143.98 157.92 135.84 159.10 126.76
  Q 160.95 112.43 175.55 113.44
  C 183.81 114.01 187.46 122.07 187.28 129.32
  A 0.35 0.35 0.0 0 1 186.93 129.66
  L 167.98 129.66
  Z
  M 167.16 125.76
  L 180.30 125.74
  A 0.22 0.22 0.0 0 0 180.52 125.52
  L 180.52 125.19
  A 7.15 6.77 89.9 0 0 173.73 118.05
  L 173.69 118.05
  A 7.15 6.77 89.9 0 0 166.94 125.21
  L 166.94 125.54
  A 0.22 0.22 0.0 0 0 167.16 125.76
  Z"
/>
<path fill="#273746" d="
  M 295.03 116.60
  A 0.29 0.28 -18.4 0 0 295.52 116.84
  Q 300.38 111.97 307.17 113.89
  A 0.40 0.39 13.3 0 1 307.45 114.33
  L 306.47 120.27
  A 0.12 0.12 0.0 0 1 306.30 120.36
  C 298.81 117.48 295.49 122.84 295.28 129.25
  Q 295.22 131.08 295.26 143.50
  A 0.32 0.32 0.0 0 1 294.94 143.82
  L 288.28 143.82
  A 0.27 0.27 0.0 0 1 288.01 143.55
  L 288.01 114.85
  A 0.57 0.56 -0.0 0 1 288.58 114.29
  L 294.80 114.29
  A 0.52 0.52 0.0 0 1 295.31 114.90
  L 295.03 116.60
  Z"
/>
<path fill="#273746" d="
  M 267.1410 113.1981
  A 15.91 15.68 -94.9 0 1 284.1227 127.7107
  A 15.91 15.68 -94.9 0 1 269.8590 144.9019
  A 15.91 15.68 -94.9 0 1 252.8773 130.3893
  A 15.91 15.68 -94.9 0 1 267.1410 113.1981
  Z
  M 268.4868 119.4700
  A 9.60 8.32 -89.9 0 0 260.1500 129.0555
  A 9.60 8.32 -89.9 0 0 268.4532 138.6700
  A 9.60 8.32 -89.9 0 0 276.7900 129.0845
  A 9.60 8.32 -89.9 0 0 268.4868 119.4700
  Z"
/>
<path fill="#ffffff" d="
  M 167.16 125.76
  A 0.22 0.22 0.0 0 1 166.94 125.54
  L 166.94 125.21
  A 7.15 6.77 89.9 0 1 173.69 118.05
  L 173.73 118.05
  A 7.15 6.77 89.9 0 1 180.52 125.19
  L 180.52 125.52
  A 0.22 0.22 0.0 0 1 180.30 125.74
  L 167.16 125.76
  Z"
/>
<ellipse fill="#ffffff" cx="0.00" cy="0.00" transform="translate(268.47,129.07) rotate(-89.9)" rx="9.60" ry="8.32"/>
</svg>
