<?xml version="1.0" encoding="UTF-8" standalone="no"?>
<!DOCTYPE svg PUBLIC "-//W3C//DTD SVG 1.1//EN" "http://www.w3.org/Graphics/SVG/1.1/DTD/svg11.dtd">
<svg xmlns="http://www.w3.org/2000/svg" version="1.1" viewBox="0.00 0.00 355.00 142.00">
<g stroke-width="2.00" fill="none" stroke-linecap="butt">
<path stroke="#fd8694" vector-effect="non-scaling-stroke" d="
  M 106.82 74.28
  C 112.36 74.28 116.87 74.63 119.35 80.34
  C 122.06 86.57 117.64 94.05 110.70 94.14
  Q 100.59 94.26 86.04 94.17
  A 0.42 0.42 0.0 0 0 85.61 94.59
  L 85.61 101.86
  A 0.42 0.42 0.0 0 0 86.03 102.28
  Q 99.06 102.13 103.43 102.26
  Q 113.36 102.54 116.95 101.02
  C 125.47 97.41 129.95 88.70 127.68 79.74
  Q 125.17 69.86 114.30 66.61
  Q 113.05 66.24 107.00 66.23
  C 101.47 66.23 96.96 65.89 94.47 60.18
  C 91.76 53.94 96.18 46.46 103.12 46.37
  Q 113.23 46.25 127.78 46.34
  A 0.42 0.42 0.0 0 0 128.21 45.92
  L 128.21 38.65
  A 0.42 0.42 0.0 0 0 127.79 38.23
  Q 114.76 38.38 110.39 38.25
  Q 100.46 37.97 96.87 39.49
  C 88.35 43.10 83.87 51.81 86.14 60.77
  Q 88.65 70.65 99.52 73.90
  Q 100.77 74.28 106.82 74.28"
/>
<path stroke="#808080" vector-effect="non-scaling-stroke" d="
  M 169.34 38.85
  A 0.43 0.43 0.0 0 0 168.91 38.42
  L 168.27 38.42
  A 0.43 0.43 0.0 0 0 167.84 38.85
  L 167.84 101.93
  A 0.43 0.43 0.0 0 0 168.27 102.36
  L 168.91 102.36
  A 0.43 0.43 0.0 0 0 169.34 101.93
  L 169.34 38.85"
/>
<path stroke="#808080" vector-effect="non-scaling-stroke" d="
  M 227.70 63.28
  A 0.83 0.82 -81.4 0 0 228.28 64.07
  C 233.64 65.70 243.59 65.91 244.01 58.25
  C 244.56 48.50 229.40 51.62 231.07 44.10
  C 232.10 39.48 238.91 40.82 242.02 42.01
  A 0.68 0.68 0.0 0 0 242.94 41.37
  L 242.94 39.85
  A 0.65 0.64 -81.5 0 0 242.49 39.23
  C 236.42 37.36 226.58 37.60 228.21 46.58
  C 229.53 53.83 243.23 51.83 240.76 59.49
  C 239.36 63.84 231.25 62.37 228.28 61.13
  A 0.42 0.42 0.0 0 0 227.70 61.52
  L 227.70 63.28"
/>
<path stroke="#fd8694" vector-effect="non-scaling-stroke" d="
  M 29.84 50.24
  Q 30.09 50.24 30.38 51.05
  Q 38.07 72.56 48.97 102.14
  A 0.37 0.36 -10.5 0 0 49.31 102.37
  L 57.40 102.37
  A 0.15 0.15 0.0 0 0 57.54 102.17
  L 34.56 39.01
  A 0.84 0.82 -8.8 0 0 33.81 38.47
  Q 32.20 38.42 29.84 38.42
  Q 27.47 38.42 25.86 38.47
  A 0.84 0.82 8.8 0 0 25.11 39.01
  L 2.14 102.18
  A 0.15 0.15 0.0 0 0 2.28 102.38
  L 10.37 102.37
  A 0.37 0.36 10.5 0 0 10.71 102.14
  Q 21.61 72.56 29.29 51.05
  Q 29.58 50.24 29.84 50.24"
/>
<path stroke="#fd8694" vector-effect="non-scaling-stroke" d="
  M 74.52 38.92
  A 0.50 0.50 0.0 0 0 74.02 38.42
  L 67.06 38.42
  A 0.50 0.50 0.0 0 0 66.56 38.92
  L 66.56 101.90
  A 0.50 0.50 0.0 0 0 67.06 102.40
  L 74.02 102.40
  A 0.50 0.50 0.0 0 0 74.52 101.90
  L 74.52 38.92"
/>
<path stroke="#fd8694" vector-effect="non-scaling-stroke" d="
  M 146.96 38.83
  A 0.41 0.41 0.0 0 0 146.55 38.42
  L 139.29 38.42
  A 0.41 0.41 0.0 0 0 138.88 38.83
  L 138.88 101.95
  A 0.41 0.41 0.0 0 0 139.29 102.36
  L 146.55 102.36
  A 0.41 0.41 0.0 0 0 146.96 101.95
  L 146.96 38.83"
/>
<path stroke="#808080" vector-effect="non-scaling-stroke" d="
  M 189.12 56.25
  Q 193.14 56.25 193.79 56.29
  A 0.90 0.89 80.7 0 1 194.57 56.86
  L 197.40 64.12
  A 0.82 0.82 0.0 0 0 198.17 64.65
  L 200.13 64.65
  A 0.33 0.33 0.0 0 0 200.44 64.20
  L 190.66 39.16
  A 0.97 0.97 0.0 0 0 189.88 38.55
  Q 189.51 38.50 189.13 38.50
  Q 188.76 38.50 188.38 38.55
  A 0.97 0.97 0.0 0 0 187.61 39.15
  L 177.78 64.18
  A 0.33 0.33 0.0 0 0 178.09 64.63
  L 180.05 64.64
  A 0.82 0.82 0.0 0 0 180.82 64.11
  L 183.67 56.85
  A 0.90 0.89 -80.6 0 1 184.45 56.28
  Q 185.10 56.25 189.12 56.25"
/>
<path stroke="#808080" vector-effect="non-scaling-stroke" d="
  M 209.09 38.93
  A 0.27 0.27 0.0 0 0 208.82 38.66
  L 206.32 38.66
  A 0.27 0.27 0.0 0 0 206.05 38.93
  L 206.05 64.35
  A 0.27 0.27 0.0 0 0 206.32 64.62
  L 208.82 64.62
  A 0.27 0.27 0.0 0 0 209.09 64.35
  L 209.09 38.93"
/>
<path stroke="#808080" vector-effect="non-scaling-stroke" d="
  M 258.22 56.25
  Q 262.24 56.26 262.89 56.30
  A 0.90 0.89 80.8 0 1 263.67 56.87
  L 266.50 64.14
  A 0.82 0.82 0.0 0 0 267.27 64.67
  L 269.23 64.67
  A 0.33 0.33 0.0 0 0 269.54 64.22
  L 259.77 39.15
  A 0.98 0.97 83.0 0 0 259.00 38.54
  Q 258.62 38.50 258.24 38.49
  Q 257.87 38.49 257.50 38.54
  A 0.98 0.97 -82.8 0 0 256.72 39.14
  L 246.86 64.18
  A 0.33 0.33 0.0 0 0 247.17 64.63
  L 249.13 64.64
  A 0.82 0.82 0.0 0 0 249.90 64.11
  L 252.76 56.85
  A 0.90 0.89 -80.6 0 1 253.55 56.28
  Q 254.19 56.25 258.22 56.25"
/>
<path stroke="#808080" vector-effect="non-scaling-stroke" d="
  M 288.74 38.98
  A 0.32 0.32 0.0 0 0 288.42 38.66
  L 274.60 38.66
  A 0.32 0.32 0.0 0 0 274.28 38.98
  L 274.28 64.31
  A 0.32 0.32 0.0 0 0 274.60 64.63
  L 276.86 64.63
  A 0.32 0.32 0.0 0 0 277.18 64.31
  L 277.18 53.75
  A 0.32 0.32 0.0 0 1 277.50 53.43
  L 287.70 53.43
  A 0.32 0.32 0.0 0 0 288.02 53.11
  L 288.02 51.15
  A 0.32 0.32 0.0 0 0 287.70 50.83
  L 277.51 50.83
  A 0.32 0.32 0.0 0 1 277.19 50.51
  L 277.19 41.48
  A 0.32 0.32 0.0 0 1 277.51 41.16
  L 288.42 41.16
  A 0.32 0.32 0.0 0 0 288.74 40.84
  L 288.74 38.98"
/>
<path stroke="#808080" vector-effect="non-scaling-stroke" d="
  M 308.06 41.19
  A 0.36 0.36 0.0 0 0 308.42 40.83
  L 308.42 39.00
  A 0.36 0.36 0.0 0 0 308.06 38.64
  L 294.27 38.64
  A 0.36 0.36 0.0 0 0 293.91 39.00
  L 293.91 64.22
  A 0.36 0.36 0.0 0 0 294.27 64.58
  L 308.02 64.58
  A 0.36 0.36 0.0 0 0 308.38 64.22
  L 308.38 62.36
  A 0.36 0.36 0.0 0 0 308.02 62.00
  L 297.22 62.00
  A 0.36 0.36 0.0 0 1 296.86 61.64
  L 296.86 52.62
  A 0.36 0.36 0.0 0 1 297.22 52.26
  L 307.38 52.26
  A 0.36 0.36 0.0 0 0 307.74 51.90
  L 307.74 50.14
  A 0.36 0.36 0.0 0 0 307.38 49.78
  L 297.21 49.78
  A 0.36 0.36 0.0 0 1 296.85 49.42
  L 296.85 41.55
  A 0.36 0.36 0.0 0 1 297.21 41.19
  L 308.06 41.19"
/>
<path stroke="#808080" vector-effect="non-scaling-stroke" d="
  M 321.49 64.61
  Q 322.07 64.61 322.39 64.60
  A 0.57 0.57 0.0 0 0 322.95 64.03
  L 322.95 41.77
  A 0.56 0.56 0.0 0 1 323.51 41.21
  L 330.82 41.21
  A 0.50 0.50 0.0 0 0 331.32 40.71
  L 331.32 39.13
  A 0.52 0.52 0.0 0 0 330.78 38.61
  Q 329.25 38.67 321.51 38.63
  Q 313.76 38.66 312.23 38.60
  A 0.52 0.52 0.0 0 0 311.69 39.12
  L 311.69 40.70
  A 0.50 0.50 0.0 0 0 312.19 41.20
  L 319.50 41.21
  A 0.56 0.56 0.0 0 1 320.06 41.77
  L 320.04 64.03
  A 0.57 0.57 0.0 0 0 320.60 64.60
  Q 320.92 64.61 321.49 64.61"
/>
<path stroke="#808080" vector-effect="non-scaling-stroke" d="
  M 342.69 51.27
  Q 342.63 51.27 342.58 51.25
  A 0.31 0.13 8.2 0 1 342.40 51.14
  L 336.06 39.23
  A 1.08 1.07 -13.7 0 0 335.11 38.66
  L 333.13 38.66
  A 0.36 0.35 -13.9 0 0 332.81 39.18
  L 341.00 54.24
  A 1.72 1.67 -60.2 0 1 341.21 55.06
  L 341.21 63.92
  A 0.63 0.63 0.0 0 0 341.76 64.55
  Q 342.22 64.60 342.69 64.60
  Q 343.16 64.60 343.62 64.55
  A 0.63 0.63 0.0 0 0 344.17 63.92
  L 344.16 55.06
  A 1.72 1.67 60.1 0 1 344.37 54.24
  L 352.55 39.17
  A 0.36 0.35 13.9 0 0 352.23 38.65
  L 350.25 38.65
  A 1.08 1.07 13.7 0 0 349.30 39.22
  L 342.97 51.14
  A 0.31 0.13 -8.2 0 1 342.79 51.25
  Q 342.74 51.27 342.69 51.27"
/>
<path stroke="#808080" vector-effect="non-scaling-stroke" d="
  M 216.03 101.00
  A 0.83 0.82 -81.3 0 0 216.61 101.79
  C 221.96 103.44 231.91 103.67 232.35 96.01
  C 232.93 86.27 217.76 89.34 219.45 81.83
  C 220.50 77.21 227.30 78.57 230.41 79.77
  A 0.68 0.68 0.0 0 0 231.33 79.13
  L 231.33 77.61
  A 0.65 0.64 -81.4 0 0 230.89 76.99
  C 224.82 75.10 214.98 75.32 216.59 84.30
  C 217.89 91.56 231.59 89.59 229.10 97.25
  C 227.69 101.59 219.58 100.10 216.62 98.85
  A 0.42 0.42 0.0 0 0 216.04 99.24
  L 216.03 101.00"
/>
<path stroke="#808080" vector-effect="non-scaling-stroke" d="
  M 182.00 76.77
  A 0.35 0.35 0.0 0 0 181.65 76.42
  L 179.27 76.42
  A 0.35 0.35 0.0 0 0 178.92 76.77
  L 178.92 102.01
  A 0.35 0.35 0.0 0 0 179.27 102.36
  L 181.65 102.36
  A 0.35 0.35 0.0 0 0 182.00 102.01
  L 182.00 76.77"
/>
<path stroke="#808080" vector-effect="non-scaling-stroke" d="
  M 198.68 90.22
  Q 206.03 101.42 206.18 101.79
  A 0.84 0.83 79.4 0 0 206.94 102.32
  L 209.51 102.34
  A 0.52 0.52 0.0 0 0 210.04 101.82
  L 210.04 76.70
  A 0.30 0.30 0.0 0 0 209.74 76.40
  L 207.61 76.40
  A 0.28 0.28 0.0 0 0 207.33 76.68
  L 207.33 97.81
  A 0.12 0.11 -61.9 0 1 207.12 97.88
  Q 203.27 91.95 201.01 88.50
  Q 193.65 77.30 193.51 76.92
  A 0.84 0.83 79.4 0 0 192.75 76.40
  L 190.18 76.38
  A 0.52 0.52 0.0 0 0 189.65 76.90
  L 189.65 102.02
  A 0.30 0.30 0.0 0 0 189.95 102.32
  L 192.08 102.32
  A 0.28 0.28 0.0 0 0 192.36 102.04
  L 192.36 80.91
  A 0.12 0.11 -61.9 0 1 192.57 80.84
  Q 196.42 86.77 198.68 90.22"
/>
<path stroke="#808080" vector-effect="non-scaling-stroke" d="
  M 276.23 102.34
  Q 276.82 102.34 277.14 102.33
  A 0.57 0.57 0.0 0 0 277.69 101.76
  L 277.72 79.55
  A 0.56 0.56 0.0 0 1 278.28 79.00
  L 285.57 79.00
  A 0.50 0.50 0.0 0 0 286.07 78.51
  L 286.07 76.93
  A 0.52 0.52 0.0 0 0 285.53 76.41
  Q 284.00 76.47 276.28 76.43
  Q 268.56 76.44 267.03 76.38
  A 0.52 0.52 0.0 0 0 266.49 76.90
  L 266.49 78.48
  A 0.50 0.50 0.0 0 0 266.98 78.98
  L 274.28 78.99
  A 0.56 0.56 0.0 0 1 274.83 79.55
  L 274.79 101.76
  A 0.57 0.57 0.0 0 0 275.35 102.33
  Q 275.67 102.34 276.23 102.34"
/>
<path stroke="#808080" vector-effect="non-scaling-stroke" d="
  M 300.20 102.75
  C 305.69 102.75 309.94 99.70 310.06 93.99
  Q 310.07 93.23 310.11 76.70
  A 0.30 0.30 0.0 0 0 309.81 76.40
  L 307.48 76.40
  A 0.33 0.33 0.0 0 0 307.15 76.74
  Q 307.22 88.86 307.14 94.10
  C 307.08 98.12 304.01 100.14 300.20 100.14
  C 296.39 100.14 293.32 98.12 293.25 94.10
  Q 293.17 88.86 293.23 76.74
  A 0.33 0.33 0.0 0 0 292.90 76.40
  L 290.57 76.41
  A 0.30 0.30 0.0 0 0 290.27 76.71
  Q 290.32 93.24 290.34 93.99
  C 290.46 99.71 294.71 102.75 300.20 102.75"
/>
<path stroke="#808080" vector-effect="non-scaling-stroke" d="
  M 324.16 102.35
  Q 324.74 102.35 325.06 102.34
  A 0.57 0.57 0.0 0 0 325.62 101.77
  L 325.63 79.55
  A 0.56 0.56 0.0 0 1 326.19 78.99
  L 333.48 78.99
  A 0.50 0.50 0.0 0 0 333.98 78.49
  L 333.98 76.92
  A 0.52 0.52 0.0 0 0 333.45 76.40
  Q 331.91 76.45 324.19 76.42
  Q 316.46 76.44 314.93 76.39
  A 0.52 0.52 0.0 0 0 314.39 76.90
  L 314.39 78.48
  A 0.50 0.50 0.0 0 0 314.89 78.98
  L 322.18 78.99
  A 0.56 0.56 0.0 0 1 322.74 79.55
  L 322.72 101.76
  A 0.57 0.57 0.0 0 0 323.27 102.34
  Q 323.60 102.34 324.16 102.35"
/>
<path stroke="#808080" vector-effect="non-scaling-stroke" d="
  M 244.79 102.31
  Q 245.37 102.31 245.69 102.30
  A 0.57 0.57 0.0 0 0 246.25 101.73
  L 246.24 79.55
  A 0.56 0.56 0.0 0 1 246.80 78.99
  L 254.09 78.99
  A 0.50 0.50 0.0 0 0 254.58 78.49
  L 254.58 76.91
  A 0.52 0.52 0.0 0 0 254.05 76.40
  Q 252.52 76.45 244.80 76.42
  Q 237.09 76.45 235.56 76.39
  A 0.52 0.52 0.0 0 0 235.02 76.91
  L 235.02 78.49
  A 0.50 0.50 0.0 0 0 235.52 78.98
  L 242.81 78.99
  A 0.56 0.56 0.0 0 1 243.36 79.55
  L 243.35 101.73
  A 0.57 0.57 0.0 0 0 243.91 102.30
  Q 244.23 102.31 244.79 102.31"
/>
<path stroke="#808080" vector-effect="non-scaling-stroke" d="
  M 262.11 76.69
  A 0.26 0.26 0.0 0 0 261.85 76.43
  L 259.37 76.43
  A 0.26 0.26 0.0 0 0 259.11 76.69
  L 259.11 102.05
  A 0.26 0.26 0.0 0 0 259.37 102.31
  L 261.85 102.31
  A 0.26 0.26 0.0 0 0 262.11 102.05
  L 262.11 76.69"
/>
<path stroke="#808080" vector-effect="non-scaling-stroke" d="
  M 352.45 76.44
  L 339.01 76.43
  A 0.61 0.61 0.0 0 0 338.40 77.04
  L 338.39 101.78
  A 0.56 0.56 0.0 0 0 338.95 102.34
  L 352.34 102.21
  A 0.49 0.48 -90.0 0 0 352.82 101.72
  L 352.79 100.23
  A 0.53 0.52 0.6 0 0 352.28 99.72
  L 341.62 99.68
  A 0.30 0.30 0.0 0 1 341.32 99.38
  L 341.32 90.30
  A 0.30 0.30 0.0 0 1 341.62 90.00
  L 351.67 90.01
  A 0.51 0.51 0.0 0 0 352.17 89.51
  L 352.19 88.01
  A 0.49 0.48 -90.0 0 0 351.71 87.53
  L 341.64 87.54
  A 0.31 0.31 0.0 0 1 341.33 87.23
  L 341.33 79.29
  A 0.32 0.31 -90.0 0 1 341.63 78.97
  L 352.52 78.97
  A 0.37 0.37 0.0 0 0 352.89 78.59
  L 352.81 76.78
  A 0.36 0.36 0.0 0 0 352.45 76.44"
/>
<path stroke="#808080" vector-effect="non-scaling-stroke" d="
  M 189.13 53.75
  Q 192.51 53.75 192.95 53.70
  A 0.39 0.39 0.0 0 0 193.27 53.18
  L 189.34 42.33
  A 0.19 0.05 24.7 0 0 189.22 42.23
  Q 189.16 42.20 189.14 42.20
  Q 189.10 42.20 189.03 42.23
  A 0.19 0.05 -24.7 0 0 188.92 42.33
  L 184.99 53.18
  A 0.39 0.39 0.0 0 0 185.31 53.70
  Q 185.75 53.75 189.13 53.75"
/>
<path stroke="#808080" vector-effect="non-scaling-stroke" d="
  M 258.23 53.75
  Q 261.59 53.74 262.02 53.70
  A 0.39 0.39 0.0 0 0 262.35 53.18
  L 258.42 42.38
  A 0.19 0.05 24.6 0 0 258.30 42.28
  Q 258.24 42.25 258.22 42.25
  Q 258.18 42.25 258.12 42.28
  A 0.19 0.05 -24.7 0 0 258.00 42.38
  L 254.10 53.19
  A 0.39 0.39 0.0 0 0 254.43 53.71
  Q 254.86 53.75 258.23 53.75"
/>
</g>
<path fill="#ffffff" d="
  M 355.00 0.00
  L 355.00 142.00
  L 0.00 142.00
  L 0.00 0.00
  L 355.00 0.00
  Z
  M 106.82 74.28
  C 112.36 74.28 116.87 74.63 119.35 80.34
  C 122.06 86.57 117.64 94.05 110.70 94.14
  Q 100.59 94.26 86.04 94.17
  A 0.42 0.42 0.0 0 0 85.61 94.59
  L 85.61 101.86
  A 0.42 0.42 0.0 0 0 86.03 102.28
  Q 99.06 102.13 103.43 102.26
  Q 113.36 102.54 116.95 101.02
  C 125.47 97.41 129.95 88.70 127.68 79.74
  Q 125.17 69.86 114.30 66.61
  Q 113.05 66.24 107.00 66.23
  C 101.47 66.23 96.96 65.89 94.47 60.18
  C 91.76 53.94 96.18 46.46 103.12 46.37
  Q 113.23 46.25 127.78 46.34
  A 0.42 0.42 0.0 0 0 128.21 45.92
  L 128.21 38.65
  A 0.42 0.42 0.0 0 0 127.79 38.23
  Q 114.76 38.38 110.39 38.25
  Q 100.46 37.97 96.87 39.49
  C 88.35 43.10 83.87 51.81 86.14 60.77
  Q 88.65 70.65 99.52 73.90
  Q 100.77 74.28 106.82 74.28
  Z
  M 169.34 38.85
  A 0.43 0.43 0.0 0 0 168.91 38.42
  L 168.27 38.42
  A 0.43 0.43 0.0 0 0 167.84 38.85
  L 167.84 101.93
  A 0.43 0.43 0.0 0 0 168.27 102.36
  L 168.91 102.36
  A 0.43 0.43 0.0 0 0 169.34 101.93
  L 169.34 38.85
  Z
  M 227.70 63.28
  A 0.83 0.82 -81.4 0 0 228.28 64.07
  C 233.64 65.70 243.59 65.91 244.01 58.25
  C 244.56 48.50 229.40 51.62 231.07 44.10
  C 232.10 39.48 238.91 40.82 242.02 42.01
  A 0.68 0.68 0.0 0 0 242.94 41.37
  L 242.94 39.85
  A 0.65 0.64 -81.5 0 0 242.49 39.23
  C 236.42 37.36 226.58 37.60 228.21 46.58
  C 229.53 53.83 243.23 51.83 240.76 59.49
  C 239.36 63.84 231.25 62.37 228.28 61.13
  A 0.42 0.42 0.0 0 0 227.70 61.52
  L 227.70 63.28
  Z
  M 29.84 50.24
  Q 30.09 50.24 30.38 51.05
  Q 38.07 72.56 48.97 102.14
  A 0.37 0.36 -10.5 0 0 49.31 102.37
  L 57.40 102.37
  A 0.15 0.15 0.0 0 0 57.54 102.17
  L 34.56 39.01
  A 0.84 0.82 -8.8 0 0 33.81 38.47
  Q 32.20 38.42 29.84 38.42
  Q 27.47 38.42 25.86 38.47
  A 0.84 0.82 8.8 0 0 25.11 39.01
  L 2.14 102.18
  A 0.15 0.15 0.0 0 0 2.28 102.38
  L 10.37 102.37
  A 0.37 0.36 10.5 0 0 10.71 102.14
  Q 21.61 72.56 29.29 51.05
  Q 29.58 50.24 29.84 50.24
  Z
  M 74.52 38.92
  A 0.50 0.50 0.0 0 0 74.02 38.42
  L 67.06 38.42
  A 0.50 0.50 0.0 0 0 66.56 38.92
  L 66.56 101.90
  A 0.50 0.50 0.0 0 0 67.06 102.40
  L 74.02 102.40
  A 0.50 0.50 0.0 0 0 74.52 101.90
  L 74.52 38.92
  Z
  M 146.96 38.83
  A 0.41 0.41 0.0 0 0 146.55 38.42
  L 139.29 38.42
  A 0.41 0.41 0.0 0 0 138.88 38.83
  L 138.88 101.95
  A 0.41 0.41 0.0 0 0 139.29 102.36
  L 146.55 102.36
  A 0.41 0.41 0.0 0 0 146.96 101.95
  L 146.96 38.83
  Z
  M 189.12 56.25
  Q 193.14 56.25 193.79 56.29
  A 0.90 0.89 80.7 0 1 194.57 56.86
  L 197.40 64.12
  A 0.82 0.82 0.0 0 0 198.17 64.65
  L 200.13 64.65
  A 0.33 0.33 0.0 0 0 200.44 64.20
  L 190.66 39.16
  A 0.97 0.97 0.0 0 0 189.88 38.55
  Q 189.51 38.50 189.13 38.50
  Q 188.76 38.50 188.38 38.55
  A 0.97 0.97 0.0 0 0 187.61 39.15
  L 177.78 64.18
  A 0.33 0.33 0.0 0 0 178.09 64.63
  L 180.05 64.64
  A 0.82 0.82 0.0 0 0 180.82 64.11
  L 183.67 56.85
  A 0.90 0.89 -80.6 0 1 184.45 56.28
  Q 185.10 56.25 189.12 56.25
  Z
  M 209.09 38.93
  A 0.27 0.27 0.0 0 0 208.82 38.66
  L 206.32 38.66
  A 0.27 0.27 0.0 0 0 206.05 38.93
  L 206.05 64.35
  A 0.27 0.27 0.0 0 0 206.32 64.62
  L 208.82 64.62
  A 0.27 0.27 0.0 0 0 209.09 64.35
  L 209.09 38.93
  Z
  M 258.22 56.25
  Q 262.24 56.26 262.89 56.30
  A 0.90 0.89 80.8 0 1 263.67 56.87
  L 266.50 64.14
  A 0.82 0.82 0.0 0 0 267.27 64.67
  L 269.23 64.67
  A 0.33 0.33 0.0 0 0 269.54 64.22
  L 259.77 39.15
  A 0.98 0.97 83.0 0 0 259.00 38.54
  Q 258.62 38.50 258.24 38.49
  Q 257.87 38.49 257.50 38.54
  A 0.98 0.97 -82.8 0 0 256.72 39.14
  L 246.86 64.18
  A 0.33 0.33 0.0 0 0 247.17 64.63
  L 249.13 64.64
  A 0.82 0.82 0.0 0 0 249.90 64.11
  L 252.76 56.85
  A 0.90 0.89 -80.6 0 1 253.55 56.28
  Q 254.19 56.25 258.22 56.25
  Z
  M 288.74 38.98
  A 0.32 0.32 0.0 0 0 288.42 38.66
  L 274.60 38.66
  A 0.32 0.32 0.0 0 0 274.28 38.98
  L 274.28 64.31
  A 0.32 0.32 0.0 0 0 274.60 64.63
  L 276.86 64.63
  A 0.32 0.32 0.0 0 0 277.18 64.31
  L 277.18 53.75
  A 0.32 0.32 0.0 0 1 277.50 53.43
  L 287.70 53.43
  A 0.32 0.32 0.0 0 0 288.02 53.11
  L 288.02 51.15
  A 0.32 0.32 0.0 0 0 287.70 50.83
  L 277.51 50.83
  A 0.32 0.32 0.0 0 1 277.19 50.51
  L 277.19 41.48
  A 0.32 0.32 0.0 0 1 277.51 41.16
  L 288.42 41.16
  A 0.32 0.32 0.0 0 0 288.74 40.84
  L 288.74 38.98
  Z
  M 308.06 41.19
  A 0.36 0.36 0.0 0 0 308.42 40.83
  L 308.42 39.00
  A 0.36 0.36 0.0 0 0 308.06 38.64
  L 294.27 38.64
  A 0.36 0.36 0.0 0 0 293.91 39.00
  L 293.91 64.22
  A 0.36 0.36 0.0 0 0 294.27 64.58
  L 308.02 64.58
  A 0.36 0.36 0.0 0 0 308.38 64.22
  L 308.38 62.36
  A 0.36 0.36 0.0 0 0 308.02 62.00
  L 297.22 62.00
  A 0.36 0.36 0.0 0 1 296.86 61.64
  L 296.86 52.62
  A 0.36 0.36 0.0 0 1 297.22 52.26
  L 307.38 52.26
  A 0.36 0.36 0.0 0 0 307.74 51.90
  L 307.74 50.14
  A 0.36 0.36 0.0 0 0 307.38 49.78
  L 297.21 49.78
  A 0.36 0.36 0.0 0 1 296.85 49.42
  L 296.85 41.55
  A 0.36 0.36 0.0 0 1 297.21 41.19
  L 308.06 41.19
  Z
  M 321.49 64.61
  Q 322.07 64.61 322.39 64.60
  A 0.57 0.57 0.0 0 0 322.95 64.03
  L 322.95 41.77
  A 0.56 0.56 0.0 0 1 323.51 41.21
  L 330.82 41.21
  A 0.50 0.50 0.0 0 0 331.32 40.71
  L 331.32 39.13
  A 0.52 0.52 0.0 0 0 330.78 38.61
  Q 329.25 38.67 321.51 38.63
  Q 313.76 38.66 312.23 38.60
  A 0.52 0.52 0.0 0 0 311.69 39.12
  L 311.69 40.70
  A 0.50 0.50 0.0 0 0 312.19 41.20
  L 319.50 41.21
  A 0.56 0.56 0.0 0 1 320.06 41.77
  L 320.04 64.03
  A 0.57 0.57 0.0 0 0 320.60 64.60
  Q 320.92 64.61 321.49 64.61
  Z
  M 342.69 51.27
  Q 342.63 51.27 342.58 51.25
  A 0.31 0.13 8.2 0 1 342.40 51.14
  L 336.06 39.23
  A 1.08 1.07 -13.7 0 0 335.11 38.66
  L 333.13 38.66
  A 0.36 0.35 -13.9 0 0 332.81 39.18
  L 341.00 54.24
  A 1.72 1.67 -60.2 0 1 341.21 55.06
  L 341.21 63.92
  A 0.63 0.63 0.0 0 0 341.76 64.55
  Q 342.22 64.60 342.69 64.60
  Q 343.16 64.60 343.62 64.55
  A 0.63 0.63 0.0 0 0 344.17 63.92
  L 344.16 55.06
  A 1.72 1.67 60.1 0 1 344.37 54.24
  L 352.55 39.17
  A 0.36 0.35 13.9 0 0 352.23 38.65
  L 350.25 38.65
  A 1.08 1.07 13.7 0 0 349.30 39.22
  L 342.97 51.14
  A 0.31 0.13 -8.2 0 1 342.79 51.25
  Q 342.74 51.27 342.69 51.27
  Z
  M 216.03 101.00
  A 0.83 0.82 -81.3 0 0 216.61 101.79
  C 221.96 103.44 231.91 103.67 232.35 96.01
  C 232.93 86.27 217.76 89.34 219.45 81.83
  C 220.50 77.21 227.30 78.57 230.41 79.77
  A 0.68 0.68 0.0 0 0 231.33 79.13
  L 231.33 77.61
  A 0.65 0.64 -81.4 0 0 230.89 76.99
  C 224.82 75.10 214.98 75.32 216.59 84.30
  C 217.89 91.56 231.59 89.59 229.10 97.25
  C 227.69 101.59 219.58 100.10 216.62 98.85
  A 0.42 0.42 0.0 0 0 216.04 99.24
  L 216.03 101.00
  Z
  M 182.00 76.77
  A 0.35 0.35 0.0 0 0 181.65 76.42
  L 179.27 76.42
  A 0.35 0.35 0.0 0 0 178.92 76.77
  L 178.92 102.01
  A 0.35 0.35 0.0 0 0 179.27 102.36
  L 181.65 102.36
  A 0.35 0.35 0.0 0 0 182.00 102.01
  L 182.00 76.77
  Z
  M 198.68 90.22
  Q 206.03 101.42 206.18 101.79
  A 0.84 0.83 79.4 0 0 206.94 102.32
  L 209.51 102.34
  A 0.52 0.52 0.0 0 0 210.04 101.82
  L 210.04 76.70
  A 0.30 0.30 0.0 0 0 209.74 76.40
  L 207.61 76.40
  A 0.28 0.28 0.0 0 0 207.33 76.68
  L 207.33 97.81
  A 0.12 0.11 -61.9 0 1 207.12 97.88
  Q 203.27 91.95 201.01 88.50
  Q 193.65 77.30 193.51 76.92
  A 0.84 0.83 79.4 0 0 192.75 76.40
  L 190.18 76.38
  A 0.52 0.52 0.0 0 0 189.65 76.90
  L 189.65 102.02
  A 0.30 0.30 0.0 0 0 189.95 102.32
  L 192.08 102.32
  A 0.28 0.28 0.0 0 0 192.36 102.04
  L 192.36 80.91
  A 0.12 0.11 -61.9 0 1 192.57 80.84
  Q 196.42 86.77 198.68 90.22
  Z
  M 276.23 102.34
  Q 276.82 102.34 277.14 102.33
  A 0.57 0.57 0.0 0 0 277.69 101.76
  L 277.72 79.55
  A 0.56 0.56 0.0 0 1 278.28 79.00
  L 285.57 79.00
  A 0.50 0.50 0.0 0 0 286.07 78.51
  L 286.07 76.93
  A 0.52 0.52 0.0 0 0 285.53 76.41
  Q 284.00 76.47 276.28 76.43
  Q 268.56 76.44 267.03 76.38
  A 0.52 0.52 0.0 0 0 266.49 76.90
  L 266.49 78.48
  A 0.50 0.50 0.0 0 0 266.98 78.98
  L 274.28 78.99
  A 0.56 0.56 0.0 0 1 274.83 79.55
  L 274.79 101.76
  A 0.57 0.57 0.0 0 0 275.35 102.33
  Q 275.67 102.34 276.23 102.34
  Z
  M 300.20 102.75
  C 305.69 102.75 309.94 99.70 310.06 93.99
  Q 310.07 93.23 310.11 76.70
  A 0.30 0.30 0.0 0 0 309.81 76.40
  L 307.48 76.40
  A 0.33 0.33 0.0 0 0 307.15 76.74
  Q 307.22 88.86 307.14 94.10
  C 307.08 98.12 304.01 100.14 300.20 100.14
  C 296.39 100.14 293.32 98.12 293.25 94.10
  Q 293.17 88.86 293.23 76.74
  A 0.33 0.33 0.0 0 0 292.90 76.40
  L 290.57 76.41
  A 0.30 0.30 0.0 0 0 290.27 76.71
  Q 290.32 93.24 290.34 93.99
  C 290.46 99.71 294.71 102.75 300.20 102.75
  Z
  M 324.16 102.35
  Q 324.74 102.35 325.06 102.34
  A 0.57 0.57 0.0 0 0 325.62 101.77
  L 325.63 79.55
  A 0.56 0.56 0.0 0 1 326.19 78.99
  L 333.48 78.99
  A 0.50 0.50 0.0 0 0 333.98 78.49
  L 333.98 76.92
  A 0.52 0.52 0.0 0 0 333.45 76.40
  Q 331.91 76.45 324.19 76.42
  Q 316.46 76.44 314.93 76.39
  A 0.52 0.52 0.0 0 0 314.39 76.90
  L 314.39 78.48
  A 0.50 0.50 0.0 0 0 314.89 78.98
  L 322.18 78.99
  A 0.56 0.56 0.0 0 1 322.74 79.55
  L 322.72 101.76
  A 0.57 0.57 0.0 0 0 323.27 102.34
  Q 323.60 102.34 324.16 102.35
  Z
  M 244.79 102.31
  Q 245.37 102.31 245.69 102.30
  A 0.57 0.57 0.0 0 0 246.25 101.73
  L 246.24 79.55
  A 0.56 0.56 0.0 0 1 246.80 78.99
  L 254.09 78.99
  A 0.50 0.50 0.0 0 0 254.58 78.49
  L 254.58 76.91
  A 0.52 0.52 0.0 0 0 254.05 76.40
  Q 252.52 76.45 244.80 76.42
  Q 237.09 76.45 235.56 76.39
  A 0.52 0.52 0.0 0 0 235.02 76.91
  L 235.02 78.49
  A 0.50 0.50 0.0 0 0 235.52 78.98
  L 242.81 78.99
  A 0.56 0.56 0.0 0 1 243.36 79.55
  L 243.35 101.73
  A 0.57 0.57 0.0 0 0 243.91 102.30
  Q 244.23 102.31 244.79 102.31
  Z
  M 262.11 76.69
  A 0.26 0.26 0.0 0 0 261.85 76.43
  L 259.37 76.43
  A 0.26 0.26 0.0 0 0 259.11 76.69
  L 259.11 102.05
  A 0.26 0.26 0.0 0 0 259.37 102.31
  L 261.85 102.31
  A 0.26 0.26 0.0 0 0 262.11 102.05
  L 262.11 76.69
  Z
  M 352.45 76.44
  L 339.01 76.43
  A 0.61 0.61 0.0 0 0 338.40 77.04
  L 338.39 101.78
  A 0.56 0.56 0.0 0 0 338.95 102.34
  L 352.34 102.21
  A 0.49 0.48 -90.0 0 0 352.82 101.72
  L 352.79 100.23
  A 0.53 0.52 0.6 0 0 352.28 99.72
  L 341.62 99.68
  A 0.30 0.30 0.0 0 1 341.32 99.38
  L 341.32 90.30
  A 0.30 0.30 0.0 0 1 341.62 90.00
  L 351.67 90.01
  A 0.51 0.51 0.0 0 0 352.17 89.51
  L 352.19 88.01
  A 0.49 0.48 -90.0 0 0 351.71 87.53
  L 341.64 87.54
  A 0.31 0.31 0.0 0 1 341.33 87.23
  L 341.33 79.29
  A 0.32 0.31 -90.0 0 1 341.63 78.97
  L 352.52 78.97
  A 0.37 0.37 0.0 0 0 352.89 78.59
  L 352.81 76.78
  A 0.36 0.36 0.0 0 0 352.45 76.44
  Z"
/>
<path fill="#fa0c28" d="
  M 107.00 66.23
  Q 113.05 66.24 114.30 66.61
  Q 125.17 69.86 127.68 79.74
  C 129.95 88.70 125.47 97.41 116.95 101.02
  Q 113.36 102.54 103.43 102.26
  Q 99.06 102.13 86.03 102.28
  A 0.42 0.42 0.0 0 1 85.61 101.86
  L 85.61 94.59
  A 0.42 0.42 0.0 0 1 86.04 94.17
  Q 100.59 94.26 110.70 94.14
  C 117.64 94.05 122.06 86.57 119.35 80.34
  C 116.87 74.63 112.36 74.28 106.82 74.28
  Q 100.77 74.28 99.52 73.90
  Q 88.65 70.65 86.14 60.77
  C 83.87 51.81 88.35 43.10 96.87 39.49
  Q 100.46 37.97 110.39 38.25
  Q 114.76 38.38 127.79 38.23
  A 0.42 0.42 0.0 0 1 128.21 38.65
  L 128.21 45.92
  A 0.42 0.42 0.0 0 1 127.78 46.34
  Q 113.23 46.25 103.12 46.37
  C 96.18 46.46 91.76 53.94 94.47 60.18
  C 96.96 65.89 101.47 66.23 107.00 66.23
  Z"
/>
<rect fill="#000000" x="167.84" y="38.42" width="1.50" height="63.94" rx="0.43"/>
<path fill="#000000" d="
  M 228.28 61.13
  C 231.25 62.37 239.36 63.84 240.76 59.49
  C 243.23 51.83 229.53 53.83 228.21 46.58
  C 226.58 37.60 236.42 37.36 242.49 39.23
  A 0.65 0.64 -81.5 0 1 242.94 39.85
  L 242.94 41.37
  A 0.68 0.68 0.0 0 1 242.02 42.01
  C 238.91 40.82 232.10 39.48 231.07 44.10
  C 229.40 51.62 244.56 48.50 244.01 58.25
  C 243.59 65.91 233.64 65.70 228.28 64.07
  A 0.83 0.82 -81.4 0 1 227.70 63.28
  L 227.70 61.52
  A 0.42 0.42 0.0 0 1 228.28 61.13
  Z"
/>
<path fill="#fa0c28" d="
  M 29.84 38.42
  Q 32.20 38.42 33.81 38.47
  A 0.84 0.82 -8.8 0 1 34.56 39.01
  L 57.54 102.17
  A 0.15 0.15 0.0 0 1 57.40 102.37
  L 49.31 102.37
  A 0.37 0.36 -10.5 0 1 48.97 102.14
  Q 38.07 72.56 30.38 51.05
  Q 30.09 50.24 29.84 50.24
  Q 29.58 50.24 29.29 51.05
  Q 21.61 72.56 10.71 102.14
  A 0.37 0.36 10.5 0 1 10.37 102.37
  L 2.28 102.38
  A 0.15 0.15 0.0 0 1 2.14 102.18
  L 25.11 39.01
  A 0.84 0.82 8.8 0 1 25.86 38.47
  Q 27.47 38.42 29.84 38.42
  Z"
/>
<rect fill="#fa0c28" x="66.56" y="38.42" width="7.96" height="63.98" rx="0.50"/>
<rect fill="#fa0c28" x="138.88" y="38.42" width="8.08" height="63.94" rx="0.41"/>
<path fill="#000000" d="
  M 189.12 56.25
  Q 185.10 56.25 184.45 56.28
  A 0.90 0.89 -80.6 0 0 183.67 56.85
  L 180.82 64.11
  A 0.82 0.82 0.0 0 1 180.05 64.64
  L 178.09 64.63
  A 0.33 0.33 0.0 0 1 177.78 64.18
  L 187.61 39.15
  A 0.97 0.97 0.0 0 1 188.38 38.55
  Q 188.76 38.50 189.13 38.50
  Q 189.51 38.50 189.88 38.55
  A 0.97 0.97 0.0 0 1 190.66 39.16
  L 200.44 64.20
  A 0.33 0.33 0.0 0 1 200.13 64.65
  L 198.17 64.65
  A 0.82 0.82 0.0 0 1 197.40 64.12
  L 194.57 56.86
  A 0.90 0.89 80.7 0 0 193.79 56.29
  Q 193.14 56.25 189.12 56.25
  Z
  M 189.13 53.75
  Q 192.51 53.75 192.95 53.70
  A 0.39 0.39 0.0 0 0 193.27 53.18
  L 189.34 42.33
  A 0.19 0.05 24.7 0 0 189.22 42.23
  Q 189.16 42.20 189.14 42.20
  Q 189.10 42.20 189.03 42.23
  A 0.19 0.05 -24.7 0 0 188.92 42.33
  L 184.99 53.18
  A 0.39 0.39 0.0 0 0 185.31 53.70
  Q 185.75 53.75 189.13 53.75
  Z"
/>
<rect fill="#000000" x="206.05" y="38.66" width="3.04" height="25.96" rx="0.27"/>
<path fill="#000000" d="
  M 258.24 38.49
  Q 258.62 38.50 259.00 38.54
  A 0.98 0.97 83.0 0 1 259.77 39.15
  L 269.54 64.22
  A 0.33 0.33 0.0 0 1 269.23 64.67
  L 267.27 64.67
  A 0.82 0.82 0.0 0 1 266.50 64.14
  L 263.67 56.87
  A 0.90 0.89 80.8 0 0 262.89 56.30
  Q 262.24 56.26 258.22 56.25
  Q 254.19 56.25 253.55 56.28
  A 0.90 0.89 -80.6 0 0 252.76 56.85
  L 249.90 64.11
  A 0.82 0.82 0.0 0 1 249.13 64.64
  L 247.17 64.63
  A 0.33 0.33 0.0 0 1 246.86 64.18
  L 256.72 39.14
  A 0.98 0.97 -82.8 0 1 257.50 38.54
  Q 257.87 38.49 258.24 38.49
  Z
  M 258.23 53.75
  Q 261.59 53.74 262.02 53.70
  A 0.39 0.39 0.0 0 0 262.35 53.18
  L 258.42 42.38
  A 0.19 0.05 24.6 0 0 258.30 42.28
  Q 258.24 42.25 258.22 42.25
  Q 258.18 42.25 258.12 42.28
  A 0.19 0.05 -24.7 0 0 258.00 42.38
  L 254.10 53.19
  A 0.39 0.39 0.0 0 0 254.43 53.71
  Q 254.86 53.75 258.23 53.75
  Z"
/>
<path fill="#000000" d="
  M 288.74 38.98
  L 288.74 40.84
  A 0.32 0.32 0.0 0 1 288.42 41.16
  L 277.51 41.16
  A 0.32 0.32 0.0 0 0 277.19 41.48
  L 277.19 50.51
  A 0.32 0.32 0.0 0 0 277.51 50.83
  L 287.70 50.83
  A 0.32 0.32 0.0 0 1 288.02 51.15
  L 288.02 53.11
  A 0.32 0.32 0.0 0 1 287.70 53.43
  L 277.50 53.43
  A 0.32 0.32 0.0 0 0 277.18 53.75
  L 277.18 64.31
  A 0.32 0.32 0.0 0 1 276.86 64.63
  L 274.60 64.63
  A 0.32 0.32 0.0 0 1 274.28 64.31
  L 274.28 38.98
  A 0.32 0.32 0.0 0 1 274.60 38.66
  L 288.42 38.66
  A 0.32 0.32 0.0 0 1 288.74 38.98
  Z"
/>
<path fill="#000000" d="
  M 308.06 41.19
  L 297.21 41.19
  A 0.36 0.36 0.0 0 0 296.85 41.55
  L 296.85 49.42
  A 0.36 0.36 0.0 0 0 297.21 49.78
  L 307.38 49.78
  A 0.36 0.36 0.0 0 1 307.74 50.14
  L 307.74 51.90
  A 0.36 0.36 0.0 0 1 307.38 52.26
  L 297.22 52.26
  A 0.36 0.36 0.0 0 0 296.86 52.62
  L 296.86 61.64
  A 0.36 0.36 0.0 0 0 297.22 62.00
  L 308.02 62.00
  A 0.36 0.36 0.0 0 1 308.38 62.36
  L 308.38 64.22
  A 0.36 0.36 0.0 0 1 308.02 64.58
  L 294.27 64.58
  A 0.36 0.36 0.0 0 1 293.91 64.22
  L 293.91 39.00
  A 0.36 0.36 0.0 0 1 294.27 38.64
  L 308.06 38.64
  A 0.36 0.36 0.0 0 1 308.42 39.00
  L 308.42 40.83
  A 0.36 0.36 0.0 0 1 308.06 41.19
  Z"
/>
<path fill="#000000" d="
  M 321.51 38.63
  Q 329.25 38.67 330.78 38.61
  A 0.52 0.52 0.0 0 1 331.32 39.13
  L 331.32 40.71
  A 0.50 0.50 0.0 0 1 330.82 41.21
  L 323.51 41.21
  A 0.56 0.56 0.0 0 0 322.95 41.77
  L 322.95 64.03
  A 0.57 0.57 0.0 0 1 322.39 64.60
  Q 322.07 64.61 321.49 64.61
  Q 320.92 64.61 320.60 64.60
  A 0.57 0.57 0.0 0 1 320.04 64.03
  L 320.06 41.77
  A 0.56 0.56 0.0 0 0 319.50 41.21
  L 312.19 41.20
  A 0.50 0.50 0.0 0 1 311.69 40.70
  L 311.69 39.12
  A 0.52 0.52 0.0 0 1 312.23 38.60
  Q 313.76 38.66 321.51 38.63
  Z"
/>
<path fill="#000000" d="
  M 342.69 64.60
  Q 342.22 64.60 341.76 64.55
  A 0.63 0.63 0.0 0 1 341.21 63.92
  L 341.21 55.06
  A 1.72 1.67 -60.2 0 0 341.00 54.24
  L 332.81 39.18
  A 0.36 0.35 -13.9 0 1 333.13 38.66
  L 335.11 38.66
  A 1.08 1.07 -13.7 0 1 336.06 39.23
  L 342.40 51.14
  A 0.31 0.13 8.2 0 0 342.58 51.25
  Q 342.63 51.27 342.69 51.27
  Q 342.74 51.27 342.79 51.25
  A 0.31 0.13 -8.2 0 0 342.97 51.14
  L 349.30 39.22
  A 1.08 1.07 13.7 0 1 350.25 38.65
  L 352.23 38.65
  A 0.36 0.35 13.9 0 1 352.55 39.17
  L 344.37 54.24
  A 1.72 1.67 60.1 0 0 344.16 55.06
  L 344.17 63.92
  A 0.63 0.63 0.0 0 1 343.62 64.55
  Q 343.16 64.60 342.69 64.60
  Z"
/>
<path fill="#ffffff" d="
  M 189.14 42.20
  Q 189.16 42.20 189.22 42.23
  A 0.19 0.05 24.7 0 1 189.34 42.33
  L 193.27 53.18
  A 0.39 0.39 0.0 0 1 192.95 53.70
  Q 192.51 53.75 189.13 53.75
  Q 185.75 53.75 185.31 53.70
  A 0.39 0.39 0.0 0 1 184.99 53.18
  L 188.92 42.33
  A 0.19 0.05 -24.7 0 1 189.03 42.23
  Q 189.10 42.20 189.14 42.20
  Z"
/>
<path fill="#ffffff" d="
  M 258.23 53.75
  Q 254.86 53.75 254.43 53.71
  A 0.39 0.39 0.0 0 1 254.10 53.19
  L 258.00 42.38
  A 0.19 0.05 -24.7 0 1 258.12 42.28
  Q 258.18 42.25 258.22 42.25
  Q 258.24 42.25 258.30 42.28
  A 0.19 0.05 24.6 0 1 258.42 42.38
  L 262.35 53.18
  A 0.39 0.39 0.0 0 1 262.02 53.70
  Q 261.59 53.74 258.23 53.75
  Z"
/>
<path fill="#000000" d="
  M 216.03 101.00
  L 216.04 99.24
  A 0.42 0.42 0.0 0 1 216.62 98.85
  C 219.58 100.10 227.69 101.59 229.10 97.25
  C 231.59 89.59 217.89 91.56 216.59 84.30
  C 214.98 75.32 224.82 75.10 230.89 76.99
  A 0.65 0.64 -81.4 0 1 231.33 77.61
  L 231.33 79.13
  A 0.68 0.68 0.0 0 1 230.41 79.77
  C 227.30 78.57 220.50 77.21 219.45 81.83
  C 217.76 89.34 232.93 86.27 232.35 96.01
  C 231.91 103.67 221.96 103.44 216.61 101.79
  A 0.83 0.82 -81.3 0 1 216.03 101.00
  Z"
/>
<rect fill="#000000" x="178.92" y="76.42" width="3.08" height="25.94" rx="0.35"/>
<path fill="#000000" d="
  M 201.01 88.50
  Q 203.27 91.95 207.12 97.88
  A 0.12 0.11 -61.9 0 0 207.33 97.81
  L 207.33 76.68
  A 0.28 0.28 0.0 0 1 207.61 76.40
  L 209.74 76.40
  A 0.30 0.30 0.0 0 1 210.04 76.70
  L 210.04 101.82
  A 0.52 0.52 0.0 0 1 209.51 102.34
  L 206.94 102.32
  A 0.84 0.83 79.4 0 1 206.18 101.79
  Q 206.03 101.42 198.68 90.22
  Q 196.42 86.77 192.57 80.84
  A 0.12 0.11 -61.9 0 0 192.36 80.91
  L 192.36 102.04
  A 0.28 0.28 0.0 0 1 192.08 102.32
  L 189.95 102.32
  A 0.30 0.30 0.0 0 1 189.65 102.02
  L 189.65 76.90
  A 0.52 0.52 0.0 0 1 190.18 76.38
  L 192.75 76.40
  A 0.84 0.83 79.4 0 1 193.51 76.92
  Q 193.65 77.30 201.01 88.50
  Z"
/>
<path fill="#000000" d="
  M 276.23 102.34
  Q 275.67 102.34 275.35 102.33
  A 0.57 0.57 0.0 0 1 274.79 101.76
  L 274.83 79.55
  A 0.56 0.56 0.0 0 0 274.28 78.99
  L 266.98 78.98
  A 0.50 0.50 0.0 0 1 266.49 78.48
  L 266.49 76.90
  A 0.52 0.52 0.0 0 1 267.03 76.38
  Q 268.56 76.44 276.28 76.43
  Q 284.00 76.47 285.53 76.41
  A 0.52 0.52 0.0 0 1 286.07 76.93
  L 286.07 78.51
  A 0.50 0.50 0.0 0 1 285.57 79.00
  L 278.28 79.00
  A 0.56 0.56 0.0 0 0 277.72 79.55
  L 277.69 101.76
  A 0.57 0.57 0.0 0 1 277.14 102.33
  Q 276.82 102.34 276.23 102.34
  Z"
/>
<path fill="#000000" d="
  M 300.20 100.14
  C 304.01 100.14 307.08 98.12 307.14 94.10
  Q 307.22 88.86 307.15 76.74
  A 0.33 0.33 0.0 0 1 307.48 76.40
  L 309.81 76.40
  A 0.30 0.30 0.0 0 1 310.11 76.70
  Q 310.07 93.23 310.06 93.99
  C 309.94 99.70 305.69 102.75 300.20 102.75
  C 294.71 102.75 290.46 99.71 290.34 93.99
  Q 290.32 93.24 290.27 76.71
  A 0.30 0.30 0.0 0 1 290.57 76.41
  L 292.90 76.40
  A 0.33 0.33 0.0 0 1 293.23 76.74
  Q 293.17 88.86 293.25 94.10
  C 293.32 98.12 296.39 100.14 300.20 100.14
  Z"
/>
<path fill="#000000" d="
  M 324.16 102.35
  Q 323.60 102.34 323.27 102.34
  A 0.57 0.57 0.0 0 1 322.72 101.76
  L 322.74 79.55
  A 0.56 0.56 0.0 0 0 322.18 78.99
  L 314.89 78.98
  A 0.50 0.50 0.0 0 1 314.39 78.48
  L 314.39 76.90
  A 0.52 0.52 0.0 0 1 314.93 76.39
  Q 316.46 76.44 324.19 76.42
  Q 331.91 76.45 333.45 76.40
  A 0.52 0.52 0.0 0 1 333.98 76.92
  L 333.98 78.49
  A 0.50 0.50 0.0 0 1 333.48 78.99
  L 326.19 78.99
  A 0.56 0.56 0.0 0 0 325.63 79.55
  L 325.62 101.77
  A 0.57 0.57 0.0 0 1 325.06 102.34
  Q 324.74 102.35 324.16 102.35
  Z"
/>
<path fill="#000000" d="
  M 244.79 102.31
  Q 244.23 102.31 243.91 102.30
  A 0.57 0.57 0.0 0 1 243.35 101.73
  L 243.36 79.55
  A 0.56 0.56 0.0 0 0 242.81 78.99
  L 235.52 78.98
  A 0.50 0.50 0.0 0 1 235.02 78.49
  L 235.02 76.91
  A 0.52 0.52 0.0 0 1 235.56 76.39
  Q 237.09 76.45 244.80 76.42
  Q 252.52 76.45 254.05 76.40
  A 0.52 0.52 0.0 0 1 254.58 76.91
  L 254.58 78.49
  A 0.50 0.50 0.0 0 1 254.09 78.99
  L 246.80 78.99
  A 0.56 0.56 0.0 0 0 246.24 79.55
  L 246.25 101.73
  A 0.57 0.57 0.0 0 1 245.69 102.30
  Q 245.37 102.31 244.79 102.31
  Z"
/>
<rect fill="#000000" x="259.11" y="76.43" width="3.00" height="25.88" rx="0.26"/>
<path fill="#000000" d="
  M 352.45 76.44
  A 0.36 0.36 0.0 0 1 352.81 76.78
  L 352.89 78.59
  A 0.37 0.37 0.0 0 1 352.52 78.97
  L 341.63 78.97
  A 0.32 0.31 -90.0 0 0 341.33 79.29
  L 341.33 87.23
  A 0.31 0.31 0.0 0 0 341.64 87.54
  L 351.71 87.53
  A 0.49 0.48 -90.0 0 1 352.19 88.01
  L 352.17 89.51
  A 0.51 0.51 0.0 0 1 351.67 90.01
  L 341.62 90.00
  A 0.30 0.30 0.0 0 0 341.32 90.30
  L 341.32 99.38
  A 0.30 0.30 0.0 0 0 341.62 99.68
  L 352.28 99.72
  A 0.53 0.52 0.6 0 1 352.79 100.23
  L 352.82 101.72
  A 0.49 0.48 -90.0 0 1 352.34 102.21
  L 338.95 102.34
  A 0.56 0.56 0.0 0 1 338.39 101.78
  L 338.40 77.04
  A 0.61 0.61 0.0 0 1 339.01 76.43
  L 352.45 76.44
  Z"
/>
</svg>
