<svg xmlns="http://www.w3.org/2000/svg" width="227.887" height="76" viewBox="0 0 227.887 76">
  <g id="Group_162" data-name="Group 162" transform="translate(-583 -41)">
    <g id="Group_161" data-name="Group 161" transform="translate(586 44)">
      <rect id="Rectangle_164" data-name="Rectangle 164" width="76" height="76" rx="38" transform="translate(-3 -3)"/>
      <g id="Group_159" data-name="Group 159" transform="translate(9.422 10.777)">
        <path id="Path_167" data-name="Path 167" d="M2424.785-3096.248l-.447-16.382h11.918l-.344,16.382,14.981-7.176,4.8,10.122-17.05,7.129,12.929,14.636-9.6,6.958-11.7-16.031-11.977,16.031-9.781-6.958,13.2-14.636-17.15-7.129,5.288-10.122Z" transform="translate(-2404.563 3112.63)" fill="#23ef89"/>
      </g>
    </g>
    <path id="Path_222" data-name="Path 222" d="M8.253,0H1.222L14.034-36.364h8.125L34.972,0H27.94l-9.7-28.906h-.284ZM8.48-14.261H27.656v5.3H8.48ZM39.489,10.227v-37.5H45.81v4.5h.383a12.1,12.1,0,0,1,1.4-2.111,7.6,7.6,0,0,1,2.45-1.939,8.489,8.489,0,0,1,3.951-.808,10.472,10.472,0,0,1,5.7,1.609,11.064,11.064,0,0,1,4.052,4.741,17.72,17.72,0,0,1,1.5,7.685,17.93,17.93,0,0,1-1.47,7.633,11.175,11.175,0,0,1-4.013,4.794A10.339,10.339,0,0,1,54.006.483,8.621,8.621,0,0,1,50.114-.3a7.7,7.7,0,0,1-2.482-1.893A11.177,11.177,0,0,1,46.193-4.3h-.27V10.227ZM45.8-13.636A13.082,13.082,0,0,0,46.549-9a6.893,6.893,0,0,0,2.184,3.1,5.514,5.514,0,0,0,3.484,1.11,5.534,5.534,0,0,0,3.556-1.145,7.019,7.019,0,0,0,2.18-3.146,13.076,13.076,0,0,0,.74-4.558,12.91,12.91,0,0,0-.73-4.5,6.814,6.814,0,0,0-2.17-3.093,5.638,5.638,0,0,0-3.578-1.124,5.646,5.646,0,0,0-3.5,1.081,6.644,6.644,0,0,0-2.173,3.04A12.962,12.962,0,0,0,45.8-13.636ZM78.58.554a11.192,11.192,0,0,1-4.666-.936,7.536,7.536,0,0,1-3.267-2.763,8.044,8.044,0,0,1-1.2-4.512,7.651,7.651,0,0,1,.859-3.816,6.64,6.64,0,0,1,2.333-2.42,11.758,11.758,0,0,1,3.326-1.369,28.19,28.19,0,0,1,3.837-.676q2.408-.263,3.9-.467a5.625,5.625,0,0,0,2.17-.637,1.489,1.489,0,0,0,.68-1.353v-.114a4.028,4.028,0,0,0-1.184-3.1,4.864,4.864,0,0,0-3.432-1.1A6.08,6.08,0,0,0,78.2-21.68a5.164,5.164,0,0,0-1.861,2.433L70.341-20.1a9.64,9.64,0,0,1,2.346-4.164,10.349,10.349,0,0,1,4-2.521,15.424,15.424,0,0,1,5.222-.843,17.091,17.091,0,0,1,3.919.46A11.07,11.07,0,0,1,89.4-25.646,7.84,7.84,0,0,1,92-22.773a9.385,9.385,0,0,1,.984,4.52V0H86.8V-3.75h-.213a7.632,7.632,0,0,1-1.644,2.127A7.976,7.976,0,0,1,82.3-.043,10.543,10.543,0,0,1,78.58.554Zm1.662-4.73A6.954,6.954,0,0,0,83.6-4.947a5.667,5.667,0,0,0,2.2-2.045,5.275,5.275,0,0,0,.776-2.795V-13a3.075,3.075,0,0,1-1.028.467,15.171,15.171,0,0,1-1.605.373q-.893.162-1.765.284l-1.511.211a11.378,11.378,0,0,0-2.569.641,4.288,4.288,0,0,0-1.79,1.232,3.079,3.079,0,0,0-.655,2.033,3.054,3.054,0,0,0,1.294,2.672A5.606,5.606,0,0,0,80.242-4.176ZM99.46,0V-27.273H105.7v4.545h.284a6.835,6.835,0,0,1,2.567-3.654,7.031,7.031,0,0,1,4.165-1.289q.533,0,1.2.05a8.943,8.943,0,0,1,1.115.142v5.9a8.554,8.554,0,0,0-1.3-.251,12.566,12.566,0,0,0-1.685-.119,6.514,6.514,0,0,0-3.159.755A5.651,5.651,0,0,0,106.7-19.1a5.839,5.839,0,0,0-.8,3.066V0Zm34.929-27.273V-22.3H118.722v-4.972Zm-11.8-6.534h6.435V-8.2a4.007,4.007,0,0,0,.392,1.973,2.038,2.038,0,0,0,1.051.93,4.1,4.1,0,0,0,1.468.25,6.217,6.217,0,0,0,1.1-.091q.5-.091.778-.151L134.887-.27q-.518.174-1.463.389a12.037,12.037,0,0,1-2.315.25,10.356,10.356,0,0,1-4.348-.739A6.686,6.686,0,0,1,123.7-2.876a7.48,7.48,0,0,1-1.113-4.269Z" transform="translate(676 97)"/>
  </g>
</svg>
