<?xml version="1.0" encoding="UTF-8" standalone="no"?>
<!DOCTYPE svg PUBLIC "-//W3C//DTD SVG 1.1//EN" "http://www.w3.org/Graphics/SVG/1.1/DTD/svg11.dtd">
<svg xmlns="http://www.w3.org/2000/svg" version="1.1" viewBox="0.00 0.00 225.00 225.00">
<g stroke-width="2.00" fill="none" stroke-linecap="butt">
<path stroke="#9a9a9a" vector-effect="non-scaling-stroke" d="
  M 203.26 95.99
  Q 205.93 100.74 203.95 106.01
  A 0.39 0.38 32.6 0 0 204.05 106.43
  L 205.76 108.15
  A 0.81 0.81 0.0 0 0 207.10 107.83
  Q 209.61 100.26 206.27 94.30
  Q 202.93 88.35 195.16 86.54
  A 0.81 0.81 0.0 0 0 194.19 87.52
  L 194.77 89.87
  A 0.39 0.38 88.8 0 0 195.07 90.18
  Q 200.60 91.24 203.26 95.99"
/>
<path stroke="#9a9a9a" vector-effect="non-scaling-stroke" d="
  M 183.06 96.03
  Q 185.71 91.27 191.24 90.18
  A 0.39 0.38 -89.0 0 0 191.54 89.88
  L 192.11 87.52
  A 0.81 0.81 0.0 0 0 191.14 86.55
  Q 183.36 88.38 180.04 94.35
  Q 176.72 100.32 179.25 107.90
  A 0.81 0.81 0.0 0 0 180.60 108.21
  L 182.30 106.49
  A 0.39 0.38 -32.8 0 0 182.40 106.07
  Q 180.40 100.80 183.06 96.03"
/>
<path stroke="#9a9a9a" vector-effect="non-scaling-stroke" d="
  M 116.93 102.29
  A 15.08 15.08 0.0 0 0 101.85 87.21
  A 15.08 15.08 0.0 0 0 86.77 102.29
  A 15.08 15.08 0.0 0 0 101.85 117.37
  A 15.08 15.08 0.0 0 0 116.93 102.29"
/>
<path stroke="#9a9a9a" vector-effect="non-scaling-stroke" d="
  M 33.40 105.65
  Q 38.71 105.64 39.52 105.69
  A 0.73 0.72 -12.4 0 1 40.10 106.06
  L 45.79 115.90
  A 1.70 1.70 0.0 0 0 47.27 116.76
  L 48.78 116.76
  A 0.69 0.69 0.0 0 0 49.38 115.73
  L 33.74 87.72
  A 0.17 0.08 72.5 0 0 33.70 87.67
  Q 33.56 87.58 33.39 87.58
  Q 33.21 87.58 33.07 87.68
  A 0.17 0.08 -72.6 0 0 33.03 87.72
  L 17.42 115.75
  A 0.69 0.69 0.0 0 0 18.02 116.78
  L 19.53 116.78
  A 1.70 1.70 0.0 0 0 21.01 115.91
  L 26.69 106.07
  A 0.73 0.72 12.3 0 1 27.28 105.70
  Q 28.08 105.65 33.40 105.65"
/>
<path stroke="#9a9a9a" vector-effect="non-scaling-stroke" d="
  M 61.27 105.44
  Q 63.44 105.41 73.44 105.45
  C 80.14 105.47 84.56 99.51 81.64 93.29
  C 79.77 89.33 76.14 88.57 71.51 88.66
  Q 68.74 88.71 57.84 88.63
  A 0.53 0.53 0.0 0 0 57.30 89.16
  L 57.30 115.97
  A 0.89 0.88 -90.0 0 0 58.18 116.86
  L 59.93 116.86
  A 0.72 0.72 0.0 0 0 60.65 116.14
  L 60.65 106.07
  A 0.63 0.62 -90.0 0 1 61.27 105.44"
/>
<path stroke="#9a9a9a" vector-effect="non-scaling-stroke" d="
  M 145.67 113.64
  L 128.08 113.69
  A 0.49 0.48 90.0 0 1 127.60 113.20
  L 127.57 89.41
  A 0.75 0.75 0.0 0 0 126.83 88.66
  L 125.16 88.64
  A 0.81 0.80 0.3 0 0 124.34 89.44
  L 124.28 116.73
  A 0.42 0.42 0.0 0 0 124.70 117.15
  L 142.37 117.16
  A 2.57 2.56 -68.2 0 0 144.23 116.36
  L 146.02 114.45
  A 0.48 0.48 0.0 0 0 145.67 113.64"
/>
<path stroke="#9a9a9a" vector-effect="non-scaling-stroke" d="
  M 172.95 117.19
  A 0.48 0.48 0.0 0 0 173.29 117.05
  L 175.83 114.52
  A 0.48 0.48 0.0 0 0 175.49 113.70
  L 157.81 113.70
  A 0.48 0.48 0.0 0 1 157.33 113.22
  L 157.33 89.16
  A 0.48 0.48 0.0 0 0 156.85 88.68
  L 154.54 88.68
  A 0.48 0.48 0.0 0 0 154.06 89.16
  L 154.06 116.71
  A 0.48 0.48 0.0 0 0 154.54 117.19
  L 172.95 117.19"
/>
<path stroke="#9a9a9a" vector-effect="non-scaling-stroke" d="
  M 193.19 113.44
  Q 187.89 113.46 184.35 109.30
  A 0.38 0.37 -28.4 0 0 183.95 109.18
  L 181.68 109.82
  A 0.79 0.79 0.0 0 0 181.32 111.11
  Q 186.57 116.81 193.20 116.78
  Q 199.83 116.75 205.03 111.01
  A 0.79 0.79 0.0 0 0 204.65 109.73
  L 202.38 109.10
  A 0.38 0.37 27.9 0 0 201.98 109.22
  Q 198.47 113.41 193.19 113.44"
/>
<path stroke="#9a9a9a" vector-effect="non-scaling-stroke" d="
  M 75.54 127.93
  A 0.47 0.46 -9.5 0 0 76.08 127.18
  C 70.86 122.31 64.05 129.55 70.05 131.90
  Q 70.52 132.09 73.70 132.98
  A 2.24 1.98 14.9 0 1 75.33 135.43
  C 74.65 138.18 70.01 136.84 68.36 135.59
  A 0.32 0.32 0.0 0 0 67.93 135.62
  L 67.66 135.88
  A 0.57 0.57 0.0 0 0 67.74 136.75
  C 70.48 138.66 75.42 139.42 76.64 135.44
  C 77.74 131.85 72.31 131.29 70.23 130.49
  A 1.72 1.51 24.8 0 1 69.23 128.24
  C 70.59 125.87 73.55 126.90 75.54 127.93"
/>
<path stroke="#9a9a9a" vector-effect="non-scaling-stroke" d="
  M 171.45 132.06
  C 171.52 137.37 177.41 140.28 181.87 136.92
  A 0.58 0.58 0.0 0 0 181.96 136.07
  L 181.94 136.04
  A 0.51 0.51 0.0 0 0 181.27 135.96
  C 177.59 138.48 172.69 136.60 172.63 132.05
  C 172.58 127.50 177.43 125.50 181.17 127.92
  A 0.51 0.51 0.0 0 0 181.84 127.83
  L 181.86 127.80
  A 0.58 0.58 0.0 0 0 181.75 126.95
  C 177.20 123.70 171.39 126.76 171.45 132.06"
/>
<path stroke="#9a9a9a" vector-effect="non-scaling-stroke" d="
  M 42.72 131.93
  Q 42.69 137.12 42.72 137.52
  A 0.58 0.58 0.0 0 0 43.30 138.06
  L 50.91 138.08
  A 0.51 0.51 0.0 0 0 51.42 137.57
  L 51.42 137.28
  A 0.44 0.44 0.0 0 0 50.99 136.84
  L 44.65 136.83
  A 0.71 0.71 0.0 0 1 43.94 136.12
  L 43.95 133.22
  A 0.71 0.71 0.0 0 1 44.65 132.51
  Q 46.70 132.48 49.35 132.57
  Q 50.85 132.62 50.85 131.96
  Q 50.86 131.32 49.36 131.35
  Q 46.70 131.42 44.65 131.37
  A 0.71 0.71 0.0 0 1 43.96 130.65
  L 43.98 127.75
  A 0.71 0.71 0.0 0 1 44.69 127.05
  L 51.03 127.10
  A 0.44 0.44 0.0 0 0 51.47 126.66
  L 51.47 126.37
  A 0.51 0.51 0.0 0 0 50.97 125.86
  L 43.35 125.80
  A 0.58 0.58 0.0 0 0 42.77 126.34
  Q 42.74 126.74 42.72 131.93"
/>
<path stroke="#9a9a9a" vector-effect="non-scaling-stroke" d="
  M 153.02 133.39
  C 156.98 131.29 156.63 127.07 152.23 125.91
  A 1.04 0.92 48.6 0 0 151.99 125.88
  L 146.58 125.88
  A 0.65 0.65 0.0 0 0 145.93 126.53
  L 145.93 137.84
  A 0.39 0.39 0.0 0 0 146.32 138.23
  L 146.66 138.23
  A 0.58 0.58 0.0 0 0 147.24 137.65
  L 147.24 134.33
  A 0.69 0.68 -0.0 0 1 147.93 133.65
  L 150.23 133.65
  A 1.09 1.07 -17.4 0 1 151.11 134.10
  L 154.11 138.20
  A 0.44 0.44 0.0 0 0 154.73 138.29
  L 154.96 138.13
  A 0.46 0.46 0.0 0 0 155.06 137.49
  L 152.79 134.38
  A 0.68 0.67 58.3 0 1 153.02 133.39"
/>
<path stroke="#9a9a9a" vector-effect="non-scaling-stroke" d="
  M 23.75 133.31
  C 27.66 131.23 27.31 127.07 22.97 125.93
  A 1.03 0.91 48.5 0 0 22.73 125.90
  L 17.39 125.90
  A 0.64 0.64 0.0 0 0 16.75 126.54
  L 16.76 137.70
  A 0.38 0.38 0.0 0 0 17.14 138.09
  L 17.48 138.09
  A 0.57 0.57 0.0 0 0 18.05 137.51
  L 18.05 134.24
  A 0.68 0.67 -0.0 0 1 18.73 133.57
  L 21.00 133.57
  A 1.07 1.05 -17.4 0 1 21.87 134.01
  L 24.83 138.05
  A 0.44 0.43 -36.4 0 0 25.44 138.14
  L 25.67 137.98
  A 0.45 0.45 0.0 0 0 25.77 137.35
  L 23.53 134.29
  A 0.67 0.66 58.2 0 1 23.75 133.31"
/>
<path stroke="#9a9a9a" vector-effect="non-scaling-stroke" d="
  M 93.09 131.95
  Q 93.07 137.15 93.10 137.56
  A 0.58 0.58 0.0 0 0 93.68 138.10
  L 101.32 138.10
  A 0.51 0.51 0.0 0 0 101.83 137.59
  L 101.83 137.30
  A 0.44 0.44 0.0 0 0 101.39 136.86
  L 95.03 136.86
  A 0.71 0.71 0.0 0 1 94.32 136.15
  L 94.32 133.24
  A 0.71 0.71 0.0 0 1 95.02 132.53
  Q 97.08 132.49 99.74 132.58
  Q 101.24 132.62 101.25 131.96
  Q 101.25 131.32 99.75 131.36
  Q 97.08 131.43 95.02 131.38
  A 0.71 0.71 0.0 0 1 94.33 130.67
  L 94.34 127.76
  A 0.71 0.71 0.0 0 1 95.05 127.05
  L 101.41 127.08
  A 0.44 0.44 0.0 0 0 101.86 126.64
  L 101.86 126.35
  A 0.51 0.51 0.0 0 0 101.35 125.84
  L 93.71 125.80
  A 0.58 0.58 0.0 0 0 93.13 126.34
  Q 93.10 126.75 93.09 131.95"
/>
<path stroke="#9a9a9a" vector-effect="non-scaling-stroke" d="
  M 123.75 135.17
  Q 125.80 135.17 126.37 135.19
  A 1.28 1.27 75.6 0 1 127.44 135.83
  L 128.71 138.04
  A 0.24 0.24 0.0 0 0 128.92 138.16
  L 129.21 138.16
  A 0.49 0.49 0.0 0 0 129.65 137.47
  C 127.52 132.80 124.92 126.43 124.30 126.05
  Q 124.05 125.90 123.74 125.90
  Q 123.44 125.90 123.19 126.05
  C 122.57 126.43 119.97 132.80 117.85 137.48
  A 0.49 0.49 0.0 0 0 118.29 138.16
  L 118.58 138.16
  A 0.24 0.24 0.0 0 0 118.79 138.04
  L 120.05 135.83
  A 1.28 1.27 -75.6 0 1 121.13 135.19
  Q 121.69 135.17 123.75 135.17"
/>
<path stroke="#9a9a9a" vector-effect="non-scaling-stroke" d="
  M 198.34 131.89
  Q 198.34 137.48 198.35 137.54
  A 0.61 0.58 16.0 0 0 198.57 137.92
  Q 198.90 138.16 199.35 137.85
  A 0.38 0.37 73.3 0 0 199.51 137.54
  L 199.51 133.18
  A 0.74 0.74 0.0 0 1 200.24 132.45
  Q 200.56 132.42 203.29 132.43
  Q 206.02 132.43 206.34 132.46
  A 0.74 0.74 0.0 0 1 207.07 133.18
  L 207.07 137.54
  A 0.38 0.37 -73.3 0 0 207.23 137.85
  Q 207.68 138.17 208.01 137.93
  A 0.61 0.58 -15.9 0 0 208.23 137.54
  Q 208.24 137.49 208.24 131.90
  Q 208.24 126.31 208.24 126.25
  A 0.61 0.58 16.0 0 0 208.01 125.87
  Q 207.68 125.63 207.23 125.94
  A 0.38 0.37 73.3 0 0 207.07 126.25
  L 207.07 130.61
  A 0.74 0.74 0.0 0 1 206.34 131.34
  Q 206.02 131.37 203.29 131.37
  Q 200.57 131.36 200.24 131.33
  A 0.74 0.74 0.0 0 1 199.51 130.61
  L 199.52 126.25
  A 0.38 0.37 -73.3 0 0 199.36 125.94
  Q 198.91 125.63 198.58 125.87
  A 0.61 0.58 -15.9 0 0 198.35 126.25
  Q 198.35 126.30 198.34 131.89"
/>
<path stroke="#9a9a9a" vector-effect="non-scaling-stroke" d="
  M 113.49 102.30
  A 11.64 11.64 0.0 0 0 101.85 90.66
  A 11.64 11.64 0.0 0 0 90.21 102.30
  A 11.64 11.64 0.0 0 0 101.85 113.94
  A 11.64 11.64 0.0 0 0 113.49 102.30"
/>
<path stroke="#9a9a9a" vector-effect="non-scaling-stroke" d="
  M 28.74 102.17
  A 0.33 0.33 0.0 0 0 29.03 102.66
  L 37.74 102.67
  A 0.33 0.33 0.0 0 0 38.03 102.18
  L 33.69 94.43
  A 0.33 0.33 0.0 0 0 33.11 94.43
  L 28.74 102.17"
/>
<path stroke="#9a9a9a" vector-effect="non-scaling-stroke" d="
  M 60.63 92.65
  L 60.65 101.59
  A 0.54 0.54 0.0 0 0 61.19 102.13
  L 73.94 102.10
  A 5.25 4.96 -0.1 0 0 79.18 97.13
  L 79.18 97.03
  A 5.25 4.96 -0.1 0 0 73.92 92.08
  L 61.17 92.11
  A 0.54 0.54 0.0 0 0 60.63 92.65"
/>
<path stroke="#9a9a9a" vector-effect="non-scaling-stroke" d="
  M 147.22 127.92
  L 147.30 131.74
  A 0.70 0.70 0.0 0 0 148.02 132.43
  L 151.34 132.36
  A 3.07 2.39 -1.2 0 0 154.36 129.91
  L 154.35 129.47
  A 3.07 2.39 -1.2 0 0 151.24 127.14
  L 147.91 127.21
  A 0.70 0.70 0.0 0 0 147.22 127.92"
/>
<path stroke="#9a9a9a" vector-effect="non-scaling-stroke" d="
  M 17.97 127.55
  L 18.07 132.13
  A 0.44 0.44 0.0 0 0 18.52 132.56
  L 21.55 132.49
  A 3.85 2.50 -1.2 0 0 25.34 129.91
  L 25.33 129.45
  A 3.85 2.50 -1.2 0 0 21.43 127.03
  L 18.40 127.10
  A 0.44 0.44 0.0 0 0 17.97 127.55"
/>
<path stroke="#9a9a9a" vector-effect="non-scaling-stroke" d="
  M 123.76 133.99
  Q 125.96 133.99 126.11 133.98
  A 0.46 0.45 75.7 0 0 126.50 133.32
  Q 125.35 131.11 124.34 128.44
  Q 124.13 127.88 123.76 127.88
  Q 123.38 127.88 123.18 128.44
  Q 122.17 131.11 121.03 133.33
  A 0.46 0.45 -75.8 0 0 121.41 133.99
  Q 121.57 133.99 123.76 133.99"
/>
</g>
<path fill="#ffffff" d="
  M 225.00 0.00
  L 225.00 225.00
  L 0.00 225.00
  L 0.00 0.00
  L 225.00 0.00
  Z
  M 203.26 95.99
  Q 205.93 100.74 203.95 106.01
  A 0.39 0.38 32.6 0 0 204.05 106.43
  L 205.76 108.15
  A 0.81 0.81 0.0 0 0 207.10 107.83
  Q 209.61 100.26 206.27 94.30
  Q 202.93 88.35 195.16 86.54
  A 0.81 0.81 0.0 0 0 194.19 87.52
  L 194.77 89.87
  A 0.39 0.38 88.8 0 0 195.07 90.18
  Q 200.60 91.24 203.26 95.99
  Z
  M 183.06 96.03
  Q 185.71 91.27 191.24 90.18
  A 0.39 0.38 -89.0 0 0 191.54 89.88
  L 192.11 87.52
  A 0.81 0.81 0.0 0 0 191.14 86.55
  Q 183.36 88.38 180.04 94.35
  Q 176.72 100.32 179.25 107.90
  A 0.81 0.81 0.0 0 0 180.60 108.21
  L 182.30 106.49
  A 0.39 0.38 -32.8 0 0 182.40 106.07
  Q 180.40 100.80 183.06 96.03
  Z
  M 116.93 102.29
  A 15.08 15.08 0.0 0 0 101.85 87.21
  A 15.08 15.08 0.0 0 0 86.77 102.29
  A 15.08 15.08 0.0 0 0 101.85 117.37
  A 15.08 15.08 0.0 0 0 116.93 102.29
  Z
  M 33.40 105.65
  Q 38.71 105.64 39.52 105.69
  A 0.73 0.72 -12.4 0 1 40.10 106.06
  L 45.79 115.90
  A 1.70 1.70 0.0 0 0 47.27 116.76
  L 48.78 116.76
  A 0.69 0.69 0.0 0 0 49.38 115.73
  L 33.74 87.72
  A 0.17 0.08 72.5 0 0 33.70 87.67
  Q 33.56 87.58 33.39 87.58
  Q 33.21 87.58 33.07 87.68
  A 0.17 0.08 -72.6 0 0 33.03 87.72
  L 17.42 115.75
  A 0.69 0.69 0.0 0 0 18.02 116.78
  L 19.53 116.78
  A 1.70 1.70 0.0 0 0 21.01 115.91
  L 26.69 106.07
  A 0.73 0.72 12.3 0 1 27.28 105.70
  Q 28.08 105.65 33.40 105.65
  Z
  M 61.27 105.44
  Q 63.44 105.41 73.44 105.45
  C 80.14 105.47 84.56 99.51 81.64 93.29
  C 79.77 89.33 76.14 88.57 71.51 88.66
  Q 68.74 88.71 57.84 88.63
  A 0.53 0.53 0.0 0 0 57.30 89.16
  L 57.30 115.97
  A 0.89 0.88 -90.0 0 0 58.18 116.86
  L 59.93 116.86
  A 0.72 0.72 0.0 0 0 60.65 116.14
  L 60.65 106.07
  A 0.63 0.62 -90.0 0 1 61.27 105.44
  Z
  M 145.67 113.64
  L 128.08 113.69
  A 0.49 0.48 90.0 0 1 127.60 113.20
  L 127.57 89.41
  A 0.75 0.75 0.0 0 0 126.83 88.66
  L 125.16 88.64
  A 0.81 0.80 0.3 0 0 124.34 89.44
  L 124.28 116.73
  A 0.42 0.42 0.0 0 0 124.70 117.15
  L 142.37 117.16
  A 2.57 2.56 -68.2 0 0 144.23 116.36
  L 146.02 114.45
  A 0.48 0.48 0.0 0 0 145.67 113.64
  Z
  M 172.95 117.19
  A 0.48 0.48 0.0 0 0 173.29 117.05
  L 175.83 114.52
  A 0.48 0.48 0.0 0 0 175.49 113.70
  L 157.81 113.70
  A 0.48 0.48 0.0 0 1 157.33 113.22
  L 157.33 89.16
  A 0.48 0.48 0.0 0 0 156.85 88.68
  L 154.54 88.68
  A 0.48 0.48 0.0 0 0 154.06 89.16
  L 154.06 116.71
  A 0.48 0.48 0.0 0 0 154.54 117.19
  L 172.95 117.19
  Z
  M 193.19 113.44
  Q 187.89 113.46 184.35 109.30
  A 0.38 0.37 -28.4 0 0 183.95 109.18
  L 181.68 109.82
  A 0.79 0.79 0.0 0 0 181.32 111.11
  Q 186.57 116.81 193.20 116.78
  Q 199.83 116.75 205.03 111.01
  A 0.79 0.79 0.0 0 0 204.65 109.73
  L 202.38 109.10
  A 0.38 0.37 27.9 0 0 201.98 109.22
  Q 198.47 113.41 193.19 113.44
  Z
  M 75.54 127.93
  A 0.47 0.46 -9.5 0 0 76.08 127.18
  C 70.86 122.31 64.05 129.55 70.05 131.90
  Q 70.52 132.09 73.70 132.98
  A 2.24 1.98 14.9 0 1 75.33 135.43
  C 74.65 138.18 70.01 136.84 68.36 135.59
  A 0.32 0.32 0.0 0 0 67.93 135.62
  L 67.66 135.88
  A 0.57 0.57 0.0 0 0 67.74 136.75
  C 70.48 138.66 75.42 139.42 76.64 135.44
  C 77.74 131.85 72.31 131.29 70.23 130.49
  A 1.72 1.51 24.8 0 1 69.23 128.24
  C 70.59 125.87 73.55 126.90 75.54 127.93
  Z
  M 171.45 132.06
  C 171.52 137.37 177.41 140.28 181.87 136.92
  A 0.58 0.58 0.0 0 0 181.96 136.07
  L 181.94 136.04
  A 0.51 0.51 0.0 0 0 181.27 135.96
  C 177.59 138.48 172.69 136.60 172.63 132.05
  C 172.58 127.50 177.43 125.50 181.17 127.92
  A 0.51 0.51 0.0 0 0 181.84 127.83
  L 181.86 127.80
  A 0.58 0.58 0.0 0 0 181.75 126.95
  C 177.20 123.70 171.39 126.76 171.45 132.06
  Z
  M 42.72 131.93
  Q 42.69 137.12 42.72 137.52
  A 0.58 0.58 0.0 0 0 43.30 138.06
  L 50.91 138.08
  A 0.51 0.51 0.0 0 0 51.42 137.57
  L 51.42 137.28
  A 0.44 0.44 0.0 0 0 50.99 136.84
  L 44.65 136.83
  A 0.71 0.71 0.0 0 1 43.94 136.12
  L 43.95 133.22
  A 0.71 0.71 0.0 0 1 44.65 132.51
  Q 46.70 132.48 49.35 132.57
  Q 50.85 132.62 50.85 131.96
  Q 50.86 131.32 49.36 131.35
  Q 46.70 131.42 44.65 131.37
  A 0.71 0.71 0.0 0 1 43.96 130.65
  L 43.98 127.75
  A 0.71 0.71 0.0 0 1 44.69 127.05
  L 51.03 127.10
  A 0.44 0.44 0.0 0 0 51.47 126.66
  L 51.47 126.37
  A 0.51 0.51 0.0 0 0 50.97 125.86
  L 43.35 125.80
  A 0.58 0.58 0.0 0 0 42.77 126.34
  Q 42.74 126.74 42.72 131.93
  Z
  M 153.02 133.39
  C 156.98 131.29 156.63 127.07 152.23 125.91
  A 1.04 0.92 48.6 0 0 151.99 125.88
  L 146.58 125.88
  A 0.65 0.65 0.0 0 0 145.93 126.53
  L 145.93 137.84
  A 0.39 0.39 0.0 0 0 146.32 138.23
  L 146.66 138.23
  A 0.58 0.58 0.0 0 0 147.24 137.65
  L 147.24 134.33
  A 0.69 0.68 -0.0 0 1 147.93 133.65
  L 150.23 133.65
  A 1.09 1.07 -17.4 0 1 151.11 134.10
  L 154.11 138.20
  A 0.44 0.44 0.0 0 0 154.73 138.29
  L 154.96 138.13
  A 0.46 0.46 0.0 0 0 155.06 137.49
  L 152.79 134.38
  A 0.68 0.67 58.3 0 1 153.02 133.39
  Z
  M 23.75 133.31
  C 27.66 131.23 27.31 127.07 22.97 125.93
  A 1.03 0.91 48.5 0 0 22.73 125.90
  L 17.39 125.90
  A 0.64 0.64 0.0 0 0 16.75 126.54
  L 16.76 137.70
  A 0.38 0.38 0.0 0 0 17.14 138.09
  L 17.48 138.09
  A 0.57 0.57 0.0 0 0 18.05 137.51
  L 18.05 134.24
  A 0.68 0.67 -0.0 0 1 18.73 133.57
  L 21.00 133.57
  A 1.07 1.05 -17.4 0 1 21.87 134.01
  L 24.83 138.05
  A 0.44 0.43 -36.4 0 0 25.44 138.14
  L 25.67 137.98
  A 0.45 0.45 0.0 0 0 25.77 137.35
  L 23.53 134.29
  A 0.67 0.66 58.2 0 1 23.75 133.31
  Z
  M 93.09 131.95
  Q 93.07 137.15 93.10 137.56
  A 0.58 0.58 0.0 0 0 93.68 138.10
  L 101.32 138.10
  A 0.51 0.51 0.0 0 0 101.83 137.59
  L 101.83 137.30
  A 0.44 0.44 0.0 0 0 101.39 136.86
  L 95.03 136.86
  A 0.71 0.71 0.0 0 1 94.32 136.15
  L 94.32 133.24
  A 0.71 0.71 0.0 0 1 95.02 132.53
  Q 97.08 132.49 99.74 132.58
  Q 101.24 132.62 101.25 131.96
  Q 101.25 131.32 99.75 131.36
  Q 97.08 131.43 95.02 131.38
  A 0.71 0.71 0.0 0 1 94.33 130.67
  L 94.34 127.76
  A 0.71 0.71 0.0 0 1 95.05 127.05
  L 101.41 127.08
  A 0.44 0.44 0.0 0 0 101.86 126.64
  L 101.86 126.35
  A 0.51 0.51 0.0 0 0 101.35 125.84
  L 93.71 125.80
  A 0.58 0.58 0.0 0 0 93.13 126.34
  Q 93.10 126.75 93.09 131.95
  Z
  M 123.75 135.17
  Q 125.80 135.17 126.37 135.19
  A 1.28 1.27 75.6 0 1 127.44 135.83
  L 128.71 138.04
  A 0.24 0.24 0.0 0 0 128.92 138.16
  L 129.21 138.16
  A 0.49 0.49 0.0 0 0 129.65 137.47
  C 127.52 132.80 124.92 126.43 124.30 126.05
  Q 124.05 125.90 123.74 125.90
  Q 123.44 125.90 123.19 126.05
  C 122.57 126.43 119.97 132.80 117.85 137.48
  A 0.49 0.49 0.0 0 0 118.29 138.16
  L 118.58 138.16
  A 0.24 0.24 0.0 0 0 118.79 138.04
  L 120.05 135.83
  A 1.28 1.27 -75.6 0 1 121.13 135.19
  Q 121.69 135.17 123.75 135.17
  Z
  M 198.34 131.89
  Q 198.34 137.48 198.35 137.54
  A 0.61 0.58 16.0 0 0 198.57 137.92
  Q 198.90 138.16 199.35 137.85
  A 0.38 0.37 73.3 0 0 199.51 137.54
  L 199.51 133.18
  A 0.74 0.74 0.0 0 1 200.24 132.45
  Q 200.56 132.42 203.29 132.43
  Q 206.02 132.43 206.34 132.46
  A 0.74 0.74 0.0 0 1 207.07 133.18
  L 207.07 137.54
  A 0.38 0.37 -73.3 0 0 207.23 137.85
  Q 207.68 138.17 208.01 137.93
  A 0.61 0.58 -15.9 0 0 208.23 137.54
  Q 208.24 137.49 208.24 131.90
  Q 208.24 126.31 208.24 126.25
  A 0.61 0.58 16.0 0 0 208.01 125.87
  Q 207.68 125.63 207.23 125.94
  A 0.38 0.37 73.3 0 0 207.07 126.25
  L 207.07 130.61
  A 0.74 0.74 0.0 0 1 206.34 131.34
  Q 206.02 131.37 203.29 131.37
  Q 200.57 131.36 200.24 131.33
  A 0.74 0.74 0.0 0 1 199.51 130.61
  L 199.52 126.25
  A 0.38 0.37 -73.3 0 0 199.36 125.94
  Q 198.91 125.63 198.58 125.87
  A 0.61 0.58 -15.9 0 0 198.35 126.25
  Q 198.35 126.30 198.34 131.89
  Z"
/>
<path fill="#353535" d="
  M 206.27 94.30
  Q 209.61 100.26 207.10 107.83
  A 0.81 0.81 0.0 0 1 205.76 108.15
  L 204.05 106.43
  A 0.39 0.38 32.6 0 1 203.95 106.01
  Q 205.93 100.74 203.26 95.99
  Q 200.60 91.24 195.07 90.18
  A 0.39 0.38 88.8 0 1 194.77 89.87
  L 194.19 87.52
  A 0.81 0.81 0.0 0 1 195.16 86.54
  Q 202.93 88.35 206.27 94.30
  Z"
/>
<path fill="#353535" d="
  M 183.06 96.03
  Q 180.40 100.80 182.40 106.07
  A 0.39 0.38 -32.8 0 1 182.30 106.49
  L 180.60 108.21
  A 0.81 0.81 0.0 0 1 179.25 107.90
  Q 176.72 100.32 180.04 94.35
  Q 183.36 88.38 191.14 86.55
  A 0.81 0.81 0.0 0 1 192.11 87.52
  L 191.54 89.88
  A 0.39 0.38 -89.0 0 1 191.24 90.18
  Q 185.71 91.27 183.06 96.03
  Z"
/>
<path fill="#353535" d="
  M 116.93 102.29
  A 15.08 15.08 0.0 0 1 101.85 117.37
  A 15.08 15.08 0.0 0 1 86.77 102.29
  A 15.08 15.08 0.0 0 1 101.85 87.21
  A 15.08 15.08 0.0 0 1 116.93 102.29
  Z
  M 113.49 102.30
  A 11.64 11.64 0.0 0 0 101.85 90.66
  A 11.64 11.64 0.0 0 0 90.21 102.30
  A 11.64 11.64 0.0 0 0 101.85 113.94
  A 11.64 11.64 0.0 0 0 113.49 102.30
  Z"
/>
<path fill="#353535" d="
  M 33.39 87.58
  Q 33.56 87.58 33.70 87.67
  A 0.17 0.08 72.5 0 1 33.74 87.72
  L 49.38 115.73
  A 0.69 0.69 0.0 0 1 48.78 116.76
  L 47.27 116.76
  A 1.70 1.70 0.0 0 1 45.79 115.90
  L 40.10 106.06
  A 0.73 0.72 -12.4 0 0 39.52 105.69
  Q 38.71 105.64 33.40 105.65
  Q 28.08 105.65 27.28 105.70
  A 0.73 0.72 12.3 0 0 26.69 106.07
  L 21.01 115.91
  A 1.70 1.70 0.0 0 1 19.53 116.78
  L 18.02 116.78
  A 0.69 0.69 0.0 0 1 17.42 115.75
  L 33.03 87.72
  A 0.17 0.08 -72.6 0 1 33.07 87.68
  Q 33.21 87.58 33.39 87.58
  Z
  M 28.74 102.17
  A 0.33 0.33 0.0 0 0 29.03 102.66
  L 37.74 102.67
  A 0.33 0.33 0.0 0 0 38.03 102.18
  L 33.69 94.43
  A 0.33 0.33 0.0 0 0 33.11 94.43
  L 28.74 102.17
  Z"
/>
<path fill="#353535" d="
  M 61.27 105.44
  A 0.63 0.62 90.0 0 0 60.65 106.07
  L 60.65 116.14
  A 0.72 0.72 0.0 0 1 59.93 116.86
  L 58.18 116.86
  A 0.89 0.88 -90.0 0 1 57.30 115.97
  L 57.30 89.16
  A 0.53 0.53 0.0 0 1 57.84 88.63
  Q 68.74 88.71 71.51 88.66
  C 76.14 88.57 79.77 89.33 81.64 93.29
  C 84.56 99.51 80.14 105.47 73.44 105.45
  Q 63.44 105.41 61.27 105.44
  Z
  M 60.63 92.65
  L 60.65 101.59
  A 0.54 0.54 0.0 0 0 61.19 102.13
  L 73.94 102.10
  A 5.25 4.96 -0.1 0 0 79.18 97.13
  L 79.18 97.03
  A 5.25 4.96 -0.1 0 0 73.92 92.08
  L 61.17 92.11
  A 0.54 0.54 0.0 0 0 60.63 92.65
  Z"
/>
<path fill="#353535" d="
  M 145.67 113.64
  A 0.48 0.48 0.0 0 1 146.02 114.45
  L 144.23 116.36
  A 2.57 2.56 -68.2 0 1 142.37 117.16
  L 124.70 117.15
  A 0.42 0.42 0.0 0 1 124.28 116.73
  L 124.34 89.44
  A 0.81 0.80 0.3 0 1 125.16 88.64
  L 126.83 88.66
  A 0.75 0.75 0.0 0 1 127.57 89.41
  L 127.60 113.20
  A 0.49 0.48 90.0 0 0 128.08 113.69
  L 145.67 113.64
  Z"
/>
<path fill="#353535" d="
  M 172.95 117.19
  L 154.54 117.19
  A 0.48 0.48 0.0 0 1 154.06 116.71
  L 154.06 89.16
  A 0.48 0.48 0.0 0 1 154.54 88.68
  L 156.85 88.68
  A 0.48 0.48 0.0 0 1 157.33 89.16
  L 157.33 113.22
  A 0.48 0.48 0.0 0 0 157.81 113.70
  L 175.49 113.70
  A 0.48 0.48 0.0 0 1 175.83 114.52
  L 173.29 117.05
  A 0.48 0.48 0.0 0 1 172.95 117.19
  Z"
/>
<circle fill="#ffffff" cx="101.85" cy="102.30" r="11.64"/>
<path fill="#ffffff" d="
  M 60.63 92.65
  A 0.54 0.54 0.0 0 1 61.17 92.11
  L 73.92 92.08
  A 5.25 4.96 -0.1 0 1 79.18 97.03
  L 79.18 97.13
  A 5.25 4.96 -0.1 0 1 73.94 102.10
  L 61.19 102.13
  A 0.54 0.54 0.0 0 1 60.65 101.59
  L 60.63 92.65
  Z"
/>
<path fill="#ffffff" d="
  M 28.74 102.17
  L 33.11 94.43
  A 0.33 0.33 0.0 0 1 33.69 94.43
  L 38.03 102.18
  A 0.33 0.33 0.0 0 1 37.74 102.67
  L 29.03 102.66
  A 0.33 0.33 0.0 0 1 28.74 102.17
  Z"
/>
<path fill="#353535" d="
  M 193.19 113.44
  Q 198.47 113.41 201.98 109.22
  A 0.38 0.37 27.9 0 1 202.38 109.10
  L 204.65 109.73
  A 0.79 0.79 0.0 0 1 205.03 111.01
  Q 199.83 116.75 193.20 116.78
  Q 186.57 116.81 181.32 111.11
  A 0.79 0.79 0.0 0 1 181.68 109.82
  L 183.95 109.18
  A 0.38 0.37 -28.4 0 1 184.35 109.30
  Q 187.89 113.46 193.19 113.44
  Z"
/>
<path fill="#353535" d="
  M 75.54 127.93
  C 73.55 126.90 70.59 125.87 69.23 128.24
  A 1.72 1.51 24.8 0 0 70.23 130.49
  C 72.31 131.29 77.74 131.85 76.64 135.44
  C 75.42 139.42 70.48 138.66 67.74 136.75
  A 0.57 0.57 0.0 0 1 67.66 135.88
  L 67.93 135.62
  A 0.32 0.32 0.0 0 1 68.36 135.59
  C 70.01 136.84 74.65 138.18 75.33 135.43
  A 2.24 1.98 14.9 0 0 73.70 132.98
  Q 70.52 132.09 70.05 131.90
  C 64.05 129.55 70.86 122.31 76.08 127.18
  A 0.47 0.46 -9.5 0 1 75.54 127.93
  Z"
/>
<path fill="#353535" d="
  M 172.63 132.05
  C 172.69 136.60 177.59 138.48 181.27 135.96
  A 0.51 0.51 0.0 0 1 181.94 136.04
  L 181.96 136.07
  A 0.58 0.58 0.0 0 1 181.87 136.92
  C 177.41 140.28 171.52 137.37 171.45 132.06
  C 171.39 126.76 177.20 123.70 181.75 126.95
  A 0.58 0.58 0.0 0 1 181.86 127.80
  L 181.84 127.83
  A 0.51 0.51 0.0 0 1 181.17 127.92
  C 177.43 125.50 172.58 127.50 172.63 132.05
  Z"
/>
<path fill="#353535" d="
  M 42.72 131.93
  Q 42.74 126.74 42.77 126.34
  A 0.58 0.58 0.0 0 1 43.35 125.80
  L 50.97 125.86
  A 0.51 0.51 0.0 0 1 51.47 126.37
  L 51.47 126.66
  A 0.44 0.44 0.0 0 1 51.03 127.10
  L 44.69 127.05
  A 0.71 0.71 0.0 0 0 43.98 127.75
  L 43.96 130.65
  A 0.71 0.71 0.0 0 0 44.65 131.37
  Q 46.70 131.42 49.36 131.35
  Q 50.86 131.32 50.85 131.96
  Q 50.85 132.62 49.35 132.57
  Q 46.70 132.48 44.65 132.51
  A 0.71 0.71 0.0 0 0 43.95 133.22
  L 43.94 136.12
  A 0.71 0.71 0.0 0 0 44.65 136.83
  L 50.99 136.84
  A 0.44 0.44 0.0 0 1 51.42 137.28
  L 51.42 137.57
  A 0.51 0.51 0.0 0 1 50.91 138.08
  L 43.30 138.06
  A 0.58 0.58 0.0 0 1 42.72 137.52
  Q 42.69 137.12 42.72 131.93
  Z"
/>
<path fill="#353535" d="
  M 152.79 134.38
  L 155.06 137.49
  A 0.46 0.46 0.0 0 1 154.96 138.13
  L 154.73 138.29
  A 0.44 0.44 0.0 0 1 154.11 138.20
  L 151.11 134.10
  A 1.09 1.07 -17.4 0 0 150.23 133.65
  L 147.93 133.65
  A 0.69 0.68 -0.0 0 0 147.24 134.33
  L 147.24 137.65
  A 0.58 0.58 0.0 0 1 146.66 138.23
  L 146.32 138.23
  A 0.39 0.39 0.0 0 1 145.93 137.84
  L 145.93 126.53
  A 0.65 0.65 0.0 0 1 146.58 125.88
  L 151.99 125.88
  A 1.04 0.92 48.6 0 1 152.23 125.91
  C 156.63 127.07 156.98 131.29 153.02 133.39
  A 0.68 0.67 58.3 0 0 152.79 134.38
  Z
  M 147.22 127.92
  L 147.30 131.74
  A 0.70 0.70 0.0 0 0 148.02 132.43
  L 151.34 132.36
  A 3.07 2.39 -1.2 0 0 154.36 129.91
  L 154.35 129.47
  A 3.07 2.39 -1.2 0 0 151.24 127.14
  L 147.91 127.21
  A 0.70 0.70 0.0 0 0 147.22 127.92
  Z"
/>
<path fill="#353535" d="
  M 23.75 133.31
  A 0.67 0.66 58.2 0 0 23.53 134.29
  L 25.77 137.35
  A 0.45 0.45 0.0 0 1 25.67 137.98
  L 25.44 138.14
  A 0.44 0.43 -36.4 0 1 24.83 138.05
  L 21.87 134.01
  A 1.07 1.05 -17.4 0 0 21.00 133.57
  L 18.73 133.57
  A 0.68 0.67 -0.0 0 0 18.05 134.24
  L 18.05 137.51
  A 0.57 0.57 0.0 0 1 17.48 138.09
  L 17.14 138.09
  A 0.38 0.38 0.0 0 1 16.76 137.70
  L 16.75 126.54
  A 0.64 0.64 0.0 0 1 17.39 125.90
  L 22.73 125.90
  A 1.03 0.91 48.5 0 1 22.97 125.93
  C 27.31 127.07 27.66 131.23 23.75 133.31
  Z
  M 17.97 127.55
  L 18.07 132.13
  A 0.44 0.44 0.0 0 0 18.52 132.56
  L 21.55 132.49
  A 3.85 2.50 -1.2 0 0 25.34 129.91
  L 25.33 129.45
  A 3.85 2.50 -1.2 0 0 21.43 127.03
  L 18.40 127.10
  A 0.44 0.44 0.0 0 0 17.97 127.55
  Z"
/>
<path fill="#353535" d="
  M 101.25 131.96
  Q 101.24 132.62 99.74 132.58
  Q 97.08 132.49 95.02 132.53
  A 0.71 0.71 0.0 0 0 94.32 133.24
  L 94.32 136.15
  A 0.71 0.71 0.0 0 0 95.03 136.86
  L 101.39 136.86
  A 0.44 0.44 0.0 0 1 101.83 137.30
  L 101.83 137.59
  A 0.51 0.51 0.0 0 1 101.32 138.10
  L 93.68 138.10
  A 0.58 0.58 0.0 0 1 93.10 137.56
  Q 93.07 137.15 93.09 131.95
  Q 93.10 126.75 93.13 126.34
  A 0.58 0.58 0.0 0 1 93.71 125.80
  L 101.35 125.84
  A 0.51 0.51 0.0 0 1 101.86 126.35
  L 101.86 126.64
  A 0.44 0.44 0.0 0 1 101.41 127.08
  L 95.05 127.05
  A 0.71 0.71 0.0 0 0 94.34 127.76
  L 94.33 130.67
  A 0.71 0.71 0.0 0 0 95.02 131.38
  Q 97.08 131.43 99.75 131.36
  Q 101.25 131.32 101.25 131.96
  Z"
/>
<path fill="#353535" d="
  M 123.74 125.90
  Q 124.05 125.90 124.30 126.05
  C 124.92 126.43 127.52 132.80 129.65 137.47
  A 0.49 0.49 0.0 0 1 129.21 138.16
  L 128.92 138.16
  A 0.24 0.24 0.0 0 1 128.71 138.04
  L 127.44 135.83
  A 1.28 1.27 75.6 0 0 126.37 135.19
  Q 125.80 135.17 123.75 135.17
  Q 121.69 135.17 121.13 135.19
  A 1.28 1.27 -75.6 0 0 120.05 135.83
  L 118.79 138.04
  A 0.24 0.24 0.0 0 1 118.58 138.16
  L 118.29 138.16
  A 0.49 0.49 0.0 0 1 117.85 137.48
  C 119.97 132.80 122.57 126.43 123.19 126.05
  Q 123.44 125.90 123.74 125.90
  Z
  M 123.76 133.99
  Q 125.96 133.99 126.11 133.98
  A 0.46 0.45 75.7 0 0 126.50 133.32
  Q 125.35 131.11 124.34 128.44
  Q 124.13 127.88 123.76 127.88
  Q 123.38 127.88 123.18 128.44
  Q 122.17 131.11 121.03 133.33
  A 0.46 0.45 -75.8 0 0 121.41 133.99
  Q 121.57 133.99 123.76 133.99
  Z"
/>
<path fill="#353535" d="
  M 203.29 131.37
  Q 206.02 131.37 206.34 131.34
  A 0.74 0.74 0.0 0 0 207.07 130.61
  L 207.07 126.25
  A 0.38 0.37 73.3 0 1 207.23 125.94
  Q 207.68 125.63 208.01 125.87
  A 0.61 0.58 16.0 0 1 208.24 126.25
  Q 208.24 126.31 208.24 131.90
  Q 208.24 137.49 208.23 137.54
  A 0.61 0.58 -15.9 0 1 208.01 137.93
  Q 207.68 138.17 207.23 137.85
  A 0.38 0.37 -73.3 0 1 207.07 137.54
  L 207.07 133.18
  A 0.74 0.74 0.0 0 0 206.34 132.46
  Q 206.02 132.43 203.29 132.43
  Q 200.56 132.42 200.24 132.45
  A 0.74 0.74 0.0 0 0 199.51 133.18
  L 199.51 137.54
  A 0.38 0.37 73.3 0 1 199.35 137.85
  Q 198.90 138.16 198.57 137.92
  A 0.61 0.58 16.0 0 1 198.35 137.54
  Q 198.34 137.48 198.34 131.89
  Q 198.35 126.30 198.35 126.25
  A 0.61 0.58 -15.9 0 1 198.58 125.87
  Q 198.91 125.63 199.36 125.94
  A 0.38 0.37 -73.3 0 1 199.52 126.25
  L 199.51 130.61
  A 0.74 0.74 0.0 0 0 200.24 131.33
  Q 200.57 131.36 203.29 131.37
  Z"
/>
<path fill="#ffffff" d="
  M 17.97 127.55
  A 0.44 0.44 0.0 0 1 18.40 127.10
  L 21.43 127.03
  A 3.85 2.50 -1.2 0 1 25.33 129.45
  L 25.34 129.91
  A 3.85 2.50 -1.2 0 1 21.55 132.49
  L 18.52 132.56
  A 0.44 0.44 0.0 0 1 18.07 132.13
  L 17.97 127.55
  Z"
/>
<path fill="#ffffff" d="
  M 147.22 127.92
  A 0.70 0.70 0.0 0 1 147.91 127.21
  L 151.24 127.14
  A 3.07 2.39 -1.2 0 1 154.35 129.47
  L 154.36 129.91
  A 3.07 2.39 -1.2 0 1 151.34 132.36
  L 148.02 132.43
  A 0.70 0.70 0.0 0 1 147.30 131.74
  L 147.22 127.92
  Z"
/>
<path fill="#ffffff" d="
  M 123.76 127.88
  Q 124.13 127.88 124.34 128.44
  Q 125.35 131.11 126.50 133.32
  A 0.46 0.45 75.7 0 1 126.11 133.98
  Q 125.96 133.99 123.76 133.99
  Q 121.57 133.99 121.41 133.99
  A 0.46 0.45 -75.8 0 1 121.03 133.33
  Q 122.17 131.11 123.18 128.44
  Q 123.38 127.88 123.76 127.88
  Z"
/>
</svg>
