<?xml version="1.0" encoding="UTF-8" standalone="no"?>
<!DOCTYPE svg PUBLIC "-//W3C//DTD SVG 1.1//EN" "http://www.w3.org/Graphics/SVG/1.1/DTD/svg11.dtd">
<svg xmlns="http://www.w3.org/2000/svg" version="1.1" viewBox="0.00 0.00 225.00 225.00">
<g stroke-width="2.00" fill="none" stroke-linecap="butt">
<path stroke="#8e9893" vector-effect="non-scaling-stroke" d="
  M 157.47 49.94
  C 158.92 50.49 159.63 51.27 159.63 53.04
  Q 159.67 67.02 159.68 67.57
  A 0.43 0.42 -76.4 0 1 159.06 67.95
  Q 153.49 65.09 148.23 66.94
  C 130.72 73.13 135.93 102.74 155.98 96.50
  A 2.10 1.87 16.3 0 0 156.53 96.24
  L 159.22 94.46
  A 0.54 0.53 -28.5 0 1 159.99 94.68
  Q 161.86 98.73 166.66 96.62
  Q 168.43 95.84 168.57 95.27
  A 0.37 0.37 0.0 0 0 168.06 94.84
  Q 166.47 95.54 165.18 95.33
  A 1.22 1.20 82.2 0 1 164.26 94.62
  Q 163.72 93.43 163.73 90.24
  Q 163.76 76.56 163.75 49.45
  A 0.71 0.71 0.0 0 0 162.94 48.75
  L 157.50 49.58
  A 0.19 0.18 50.3 0 0 157.47 49.94"
/>
<path stroke="#8e9893" vector-effect="non-scaling-stroke" d="
  M 28.21 96.33
  C 25.00 94.76 26.76 90.89 27.72 88.49
  Q 28.58 86.35 31.05 79.52
  A 0.84 0.84 0.0 0 1 31.84 78.96
  L 44.48 78.96
  A 1.14 1.12 -8.2 0 1 45.57 79.76
  Q 49.47 92.41 49.49 92.46
  C 50.02 94.13 49.82 95.43 48.06 96.49
  A 0.13 0.12 28.8 0 0 48.13 96.72
  L 56.84 96.72
  A 0.22 0.22 0.0 0 0 56.98 96.33
  Q 55.49 95.11 55.30 94.51
  Q 46.06 65.48 41.16 49.91
  A 0.47 0.47 0.0 0 0 40.28 49.89
  Q 28.24 81.98 24.72 91.19
  Q 23.31 94.90 19.97 96.24
  A 0.24 0.24 0.0 0 0 20.06 96.71
  L 28.12 96.71
  A 0.20 0.20 0.0 0 0 28.21 96.33"
/>
<path stroke="#8e9893" vector-effect="non-scaling-stroke" d="
  M 178.38 59.30
  A 2.20 2.20 0.0 0 0 176.18 57.10
  A 2.20 2.20 0.0 0 0 173.98 59.30
  A 2.20 2.20 0.0 0 0 176.18 61.50
  A 2.20 2.20 0.0 0 0 178.38 59.30"
/>
<path stroke="#8e9893" vector-effect="non-scaling-stroke" d="
  M 61.55 96.68
  L 69.38 96.68
  A 0.19 0.19 0.0 0 0 69.47 96.33
  L 68.57 95.81
  A 2.22 2.22 0.0 0 1 67.45 93.88
  L 67.45 70.93
  A 1.36 1.34 67.4 0 1 67.83 69.99
  C 69.01 68.76 72.22 66.94 73.22 69.40
  Q 73.23 69.42 73.66 70.82
  A 0.95 0.93 -3.8 0 0 74.42 71.47
  Q 76.07 71.73 77.49 71.38
  A 0.43 0.43 0.0 0 0 77.81 70.94
  C 77.38 64.58 71.71 65.64 68.23 68.36
  A 0.45 0.44 70.9 0 1 67.51 68.01
  L 67.51 67.41
  A 0.64 0.64 0.0 0 0 66.77 66.78
  L 61.84 67.53
  A 0.35 0.35 0.0 0 0 61.73 68.18
  L 62.73 68.73
  A 1.10 1.09 16.9 0 1 63.27 69.74
  Q 63.27 70.60 63.27 92.50
  Q 63.27 95.56 61.47 96.30
  A 0.20 0.20 0.0 0 0 61.55 96.68"
/>
<path stroke="#8e9893" vector-effect="non-scaling-stroke" d="
  M 104.20 93.00
  Q 98.29 97.63 91.69 94.75
  C 84.91 91.78 84.07 81.47 85.65 75.47
  Q 87.96 66.70 96.17 67.17
  Q 99.89 67.39 101.33 71.73
  A 1.05 1.04 0.6 0 0 101.99 72.40
  Q 103.18 72.80 105.62 72.48
  A 0.47 0.47 0.0 0 0 105.98 71.81
  C 104.07 67.95 100.48 66.37 96.29 66.18
  C 75.78 65.25 73.32 95.53 93.68 97.31
  Q 99.50 97.82 104.53 93.34
  A 0.22 0.22 0.0 0 0 104.55 93.04
  L 104.54 93.03
  A 0.25 0.24 49.3 0 0 104.20 93.00"
/>
<path stroke="#8e9893" vector-effect="non-scaling-stroke" d="
  M 134.24 94.42
  L 132.97 94.62
  A 1.69 1.68 85.6 0 1 131.04 92.96
  Q 131.02 83.45 130.99 74.24
  Q 130.98 68.69 126.12 66.90
  C 119.88 64.59 112.46 67.59 110.70 74.42
  A 0.69 0.69 0.0 0 0 111.27 75.27
  L 112.79 75.49
  A 0.78 0.77 8.7 0 0 113.67 74.85
  Q 114.68 68.75 119.55 67.63
  C 123.65 66.69 126.82 68.45 126.87 73.01
  Q 126.94 78.64 126.90 83.49
  A 0.49 0.49 0.0 0 1 126.19 83.92
  C 120.80 81.16 111.44 81.59 109.59 88.54
  C 108.53 92.55 110.81 96.04 114.93 97.05
  C 118.92 98.03 122.85 96.63 126.18 94.14
  A 0.56 0.55 -26.4 0 1 127.05 94.43
  C 128.30 98.76 132.24 97.68 134.57 95.01
  A 0.36 0.36 0.0 0 0 134.24 94.42"
/>
<path stroke="#8e9893" vector-effect="non-scaling-stroke" d="
  M 209.08 94.36
  L 207.82 94.56
  A 1.68 1.68 0.0 0 1 205.89 92.90
  Q 205.86 83.41 205.82 74.22
  Q 205.81 68.68 200.95 66.90
  C 194.72 64.60 187.32 67.60 185.57 74.42
  A 0.69 0.68 11.3 0 0 186.14 75.27
  L 187.66 75.48
  A 0.78 0.77 8.6 0 0 188.54 74.84
  Q 189.54 68.76 194.40 67.63
  C 198.49 66.69 201.65 68.45 201.71 73.00
  Q 201.78 78.62 201.75 83.46
  A 0.49 0.49 0.0 0 1 201.04 83.89
  C 195.66 81.14 186.32 81.57 184.48 88.51
  C 183.42 92.52 185.70 96.00 189.81 97.00
  C 193.80 97.98 197.72 96.58 201.04 94.09
  A 0.56 0.55 -26.5 0 1 201.91 94.38
  C 203.16 98.70 207.09 97.61 209.41 94.95
  A 0.36 0.36 0.0 0 0 209.08 94.36"
/>
<path stroke="#8e9893" vector-effect="non-scaling-stroke" d="
  M 171.92 96.39
  A 0.18 0.17 28.7 0 0 172.02 96.71
  L 179.29 96.71
  A 0.24 0.24 0.0 0 0 179.47 96.30
  Q 177.87 94.56 177.86 93.58
  Q 177.75 82.83 177.83 67.24
  A 0.24 0.23 -4.3 0 0 177.56 67.01
  L 172.64 67.76
  A 0.47 0.47 0.0 0 0 172.47 68.63
  L 172.90 68.87
  A 1.51 1.50 14.9 0 1 173.65 70.15
  Q 173.79 87.53 173.61 93.53
  Q 173.55 95.40 171.92 96.39"
/>
<path stroke="#8e9893" vector-effect="non-scaling-stroke" d="
  M 39.90 148.87
  Q 39.91 164.67 39.82 166.51
  Q 39.78 167.38 38.51 168.68
  A 0.23 0.23 0.0 0 0 38.65 169.07
  Q 38.71 169.08 42.01 169.08
  Q 45.30 169.08 45.36 169.07
  A 0.23 0.23 0.0 0 0 45.50 168.68
  Q 44.23 167.38 44.19 166.51
  Q 44.10 164.67 44.09 148.87
  Q 44.08 133.07 44.17 131.23
  Q 44.21 130.36 45.48 129.06
  A 0.23 0.23 0.0 0 0 45.34 128.67
  Q 45.28 128.66 41.99 128.66
  Q 38.69 128.66 38.63 128.67
  A 0.23 0.23 0.0 0 0 38.49 129.06
  Q 39.76 130.36 39.80 131.23
  Q 39.89 133.07 39.90 148.87"
/>
<path stroke="#8e9893" vector-effect="non-scaling-stroke" d="
  M 190.22 166.55
  C 187.27 169.24 182.67 168.47 182.69 163.75
  Q 182.76 150.08 182.66 144.24
  A 0.51 0.51 0.0 0 1 183.17 143.72
  L 188.50 143.72
  A 0.67 0.67 0.0 0 1 189.17 144.39
  L 189.17 144.76
  A 0.44 0.43 60.1 0 0 189.98 144.98
  L 191.60 142.16
  A 0.19 0.18 -3.0 0 0 191.33 141.92
  C 190.00 142.88 186.84 142.61 183.22 142.60
  A 0.63 0.62 4.4 0 1 182.60 141.89
  L 183.36 136.69
  A 0.21 0.18 31.7 0 0 183.31 136.54
  L 183.26 136.52
  A 0.30 0.29 -66.1 0 0 182.88 136.67
  C 181.61 139.34 180.42 142.16 177.15 142.57
  A 0.33 0.33 0.0 0 0 177.13 143.22
  Q 178.14 143.41 178.75 143.99
  A 1.33 1.32 -68.2 0 1 179.17 144.98
  Q 179.00 157.74 179.19 164.22
  C 179.40 171.13 187.16 170.98 190.50 166.81
  A 0.19 0.19 0.0 0 0 190.48 166.56
  L 190.47 166.56
  A 0.19 0.18 -42.6 0 0 190.22 166.55"
/>
<path stroke="#8e9893" vector-effect="non-scaling-stroke" d="
  M 74.97 168.52
  Q 73.79 166.69 73.87 164.50
  Q 74.26 153.88 73.30 147.00
  A 1.09 1.07 66.2 0 1 73.67 146.03
  Q 76.05 144.02 79.78 143.55
  C 85.09 142.89 86.64 146.43 86.88 151.28
  Q 87.33 160.07 86.67 167.39
  Q 86.62 167.97 86.41 168.12
  Q 86.25 168.23 85.76 168.66
  A 0.27 0.27 0.0 0 0 85.94 169.14
  L 91.69 169.14
  A 0.33 0.33 0.0 0 0 91.92 168.58
  Q 90.46 167.12 90.52 164.30
  Q 90.72 155.23 90.34 149.70
  C 89.67 139.81 78.50 141.55 72.94 145.39
  A 0.37 0.36 -39.5 0 1 72.48 145.35
  Q 68.32 141.29 62.73 142.55
  Q 59.41 143.30 58.65 143.89
  A 0.63 0.63 0.0 0 1 57.77 143.79
  Q 57.46 143.42 57.36 143.00
  A 0.33 0.32 -10.9 0 0 57.00 142.76
  L 53.16 143.35
  A 0.27 0.27 0.0 0 0 52.97 143.75
  L 53.75 145.11
  A 1.48 1.44 -60.9 0 1 53.95 145.85
  Q 54.02 154.36 53.92 165.26
  Q 53.90 167.81 52.41 168.73
  A 0.23 0.23 0.0 0 0 52.53 169.15
  L 58.31 169.15
  A 0.32 0.31 -19.2 0 0 58.56 168.64
  Q 57.49 167.33 57.49 165.27
  Q 57.49 158.15 57.51 145.88
  A 0.75 0.74 75.7 0 1 57.89 145.23
  Q 61.39 143.32 65.01 143.52
  C 70.50 143.84 70.34 150.48 70.35 154.34
  Q 70.38 164.94 70.30 166.00
  Q 70.16 167.69 68.75 168.86
  A 0.16 0.16 0.0 0 0 68.85 169.14
  L 74.63 169.14
  A 0.40 0.40 0.0 0 0 74.97 168.52"
/>
<path stroke="#8e9893" vector-effect="non-scaling-stroke" d="
  M 96.70 143.69
  Q 98.30 145.24 98.30 146.24
  Q 98.28 174.30 98.29 177.01
  Q 98.30 179.90 96.85 181.17
  A 0.29 0.29 0.0 0 0 97.04 181.68
  L 102.84 181.68
  A 0.26 0.26 0.0 0 0 103.06 181.29
  L 101.92 179.32
  A 1.20 1.19 -59.7 0 1 101.77 178.74
  L 101.77 168.17
  A 0.58 0.58 0.0 0 1 102.53 167.62
  C 103.48 167.93 104.29 168.55 105.39 168.85
  C 113.70 171.09 121.62 166.34 122.63 157.52
  C 123.24 152.24 120.52 145.87 115.47 143.53
  Q 109.25 140.64 102.58 144.45
  A 0.52 0.51 75.2 0 1 101.81 144.00
  L 101.81 143.23
  A 0.66 0.65 72.6 0 0 100.78 142.69
  Q 99.68 143.47 96.92 143.21
  A 0.28 0.28 0.0 0 0 96.70 143.69"
/>
<path stroke="#8e9893" vector-effect="non-scaling-stroke" d="
  M 147.92 167.09
  L 146.80 167.27
  A 1.48 1.47 85.6 0 1 145.11 165.81
  Q 145.10 157.46 145.08 149.38
  Q 145.07 144.51 140.81 142.94
  C 135.34 140.91 128.82 143.54 127.28 149.53
  A 0.60 0.60 0.0 0 0 127.77 150.27
  L 129.11 150.47
  A 0.68 0.68 0.0 0 0 129.88 149.91
  Q 130.77 144.55 135.05 143.58
  C 138.64 142.75 141.42 144.30 141.46 148.30
  Q 141.52 153.24 141.48 157.50
  A 0.43 0.43 0.0 0 1 140.86 157.87
  C 136.13 155.45 127.92 155.82 126.29 161.92
  C 125.36 165.44 127.36 168.50 130.97 169.39
  C 134.47 170.25 137.92 169.02 140.85 166.84
  A 0.49 0.49 0.0 0 1 141.61 167.10
  C 142.70 170.90 146.16 169.95 148.21 167.61
  A 0.32 0.32 0.0 0 0 147.92 167.09"
/>
<path stroke="#8e9893" vector-effect="non-scaling-stroke" d="
  M 172.47 165.78
  Q 167.32 169.89 161.51 167.42
  C 155.53 164.87 154.70 155.83 156.04 150.55
  Q 157.99 142.83 165.20 143.18
  Q 168.47 143.34 169.77 147.13
  A 0.92 0.91 0.1 0 0 170.35 147.72
  Q 171.40 148.06 173.54 147.75
  A 0.41 0.41 0.0 0 0 173.85 147.16
  C 172.14 143.79 168.98 142.44 165.30 142.31
  C 147.29 141.67 145.39 168.26 163.28 169.65
  Q 168.39 170.05 172.76 166.07
  A 0.19 0.19 0.0 0 0 172.78 165.81
  L 172.77 165.80
  A 0.22 0.21 48.7 0 0 172.47 165.78"
/>
<path stroke="#8e9893" vector-effect="non-scaling-stroke" d="
  M 159.57 91.20
  Q 159.68 85.64 159.61 74.83
  C 159.60 73.31 159.92 71.89 158.94 70.63
  C 154.66 65.12 146.38 67.37 144.28 73.65
  C 141.95 80.65 142.03 93.50 151.92 95.04
  Q 156.72 95.79 159.22 92.25
  A 1.96 1.92 64.0 0 0 159.57 91.20"
/>
<path stroke="#8e9893" vector-effect="non-scaling-stroke" d="
  M 32.19 76.53
  A 0.48 0.48 0.0 0 0 32.63 77.17
  L 44.20 77.44
  A 0.48 0.48 0.0 0 0 44.67 76.81
  L 39.27 59.65
  A 0.48 0.48 0.0 0 0 38.36 59.63
  L 32.19 76.53"
/>
<path stroke="#8e9893" vector-effect="non-scaling-stroke" d="
  M 126.27 84.85
  C 122.56 83.37 118.04 82.69 115.39 85.80
  Q 113.46 88.07 113.98 90.97
  C 115.14 97.43 122.83 95.96 126.57 92.51
  A 0.94 0.94 0.0 0 0 126.87 91.82
  L 126.87 85.73
  A 0.95 0.94 11.0 0 0 126.27 84.85"
/>
<path stroke="#8e9893" vector-effect="non-scaling-stroke" d="
  M 201.14 84.80
  C 197.41 83.33 192.87 82.66 190.23 85.79
  Q 188.30 88.08 188.84 90.99
  C 190.03 97.46 197.74 95.96 201.47 92.48
  A 0.95 0.95 0.0 0 0 201.77 91.79
  L 201.74 85.68
  A 0.96 0.95 10.8 0 0 201.14 84.80"
/>
<path stroke="#8e9893" vector-effect="non-scaling-stroke" d="
  M 101.68 147.97
  L 101.96 164.41
  A 3.86 3.86 0.0 0 0 105.89 168.20
  L 108.78 168.15
  A 10.53 9.35 89.0 0 0 117.95 157.46
  L 117.89 154.36
  A 10.53 9.35 89.0 0 0 108.36 143.99
  L 105.47 144.04
  A 3.86 3.86 0.0 0 0 101.68 147.97"
/>
<path stroke="#8e9893" vector-effect="non-scaling-stroke" d="
  M 140.94 158.66
  C 137.69 157.37 133.73 156.77 131.41 159.50
  Q 129.72 161.49 130.18 164.03
  C 131.19 169.68 137.93 168.40 141.20 165.37
  A 0.83 0.83 0.0 0 0 141.47 164.77
  L 141.47 159.44
  A 0.84 0.83 11.0 0 0 140.94 158.66"
/>
</g>
<path fill="#24332c" d="
  M 225.00 0.00
  L 225.00 225.00
  L 0.00 225.00
  L 0.00 0.00
  L 225.00 0.00
  Z
  M 157.47 49.94
  C 158.92 50.49 159.63 51.27 159.63 53.04
  Q 159.67 67.02 159.68 67.57
  A 0.43 0.42 -76.4 0 1 159.06 67.95
  Q 153.49 65.09 148.23 66.94
  C 130.72 73.13 135.93 102.74 155.98 96.50
  A 2.10 1.87 16.3 0 0 156.53 96.24
  L 159.22 94.46
  A 0.54 0.53 -28.5 0 1 159.99 94.68
  Q 161.86 98.73 166.66 96.62
  Q 168.43 95.84 168.57 95.27
  A 0.37 0.37 0.0 0 0 168.06 94.84
  Q 166.47 95.54 165.18 95.33
  A 1.22 1.20 82.2 0 1 164.26 94.62
  Q 163.72 93.43 163.73 90.24
  Q 163.76 76.56 163.75 49.45
  A 0.71 0.71 0.0 0 0 162.94 48.75
  L 157.50 49.58
  A 0.19 0.18 50.3 0 0 157.47 49.94
  Z
  M 28.21 96.33
  C 25.00 94.76 26.76 90.89 27.72 88.49
  Q 28.58 86.35 31.05 79.52
  A 0.84 0.84 0.0 0 1 31.84 78.96
  L 44.48 78.96
  A 1.14 1.12 -8.2 0 1 45.57 79.76
  Q 49.47 92.41 49.49 92.46
  C 50.02 94.13 49.82 95.43 48.06 96.49
  A 0.13 0.12 28.8 0 0 48.13 96.72
  L 56.84 96.72
  A 0.22 0.22 0.0 0 0 56.98 96.33
  Q 55.49 95.11 55.30 94.51
  Q 46.06 65.48 41.16 49.91
  A 0.47 0.47 0.0 0 0 40.28 49.89
  Q 28.24 81.98 24.72 91.19
  Q 23.31 94.90 19.97 96.24
  A 0.24 0.24 0.0 0 0 20.06 96.71
  L 28.12 96.71
  A 0.20 0.20 0.0 0 0 28.21 96.33
  Z
  M 178.38 59.30
  A 2.20 2.20 0.0 0 0 176.18 57.10
  A 2.20 2.20 0.0 0 0 173.98 59.30
  A 2.20 2.20 0.0 0 0 176.18 61.50
  A 2.20 2.20 0.0 0 0 178.38 59.30
  Z
  M 61.55 96.68
  L 69.38 96.68
  A 0.19 0.19 0.0 0 0 69.47 96.33
  L 68.57 95.81
  A 2.22 2.22 0.0 0 1 67.45 93.88
  L 67.45 70.93
  A 1.36 1.34 67.4 0 1 67.83 69.99
  C 69.01 68.76 72.22 66.94 73.22 69.40
  Q 73.23 69.42 73.66 70.82
  A 0.95 0.93 -3.8 0 0 74.42 71.47
  Q 76.07 71.73 77.49 71.38
  A 0.43 0.43 0.0 0 0 77.81 70.94
  C 77.38 64.58 71.71 65.64 68.23 68.36
  A 0.45 0.44 70.9 0 1 67.51 68.01
  L 67.51 67.41
  A 0.64 0.64 0.0 0 0 66.77 66.78
  L 61.84 67.53
  A 0.35 0.35 0.0 0 0 61.73 68.18
  L 62.73 68.73
  A 1.10 1.09 16.9 0 1 63.27 69.74
  Q 63.27 70.60 63.27 92.50
  Q 63.27 95.56 61.47 96.30
  A 0.20 0.20 0.0 0 0 61.55 96.68
  Z
  M 104.20 93.00
  Q 98.29 97.63 91.69 94.75
  C 84.91 91.78 84.07 81.47 85.65 75.47
  Q 87.96 66.70 96.17 67.17
  Q 99.89 67.39 101.33 71.73
  A 1.05 1.04 0.6 0 0 101.99 72.40
  Q 103.18 72.80 105.62 72.48
  A 0.47 0.47 0.0 0 0 105.98 71.81
  C 104.07 67.95 100.48 66.37 96.29 66.18
  C 75.78 65.25 73.32 95.53 93.68 97.31
  Q 99.50 97.82 104.53 93.34
  A 0.22 0.22 0.0 0 0 104.55 93.04
  L 104.54 93.03
  A 0.25 0.24 49.3 0 0 104.20 93.00
  Z
  M 134.24 94.42
  L 132.97 94.62
  A 1.69 1.68 85.6 0 1 131.04 92.96
  Q 131.02 83.45 130.99 74.24
  Q 130.98 68.69 126.12 66.90
  C 119.88 64.59 112.46 67.59 110.70 74.42
  A 0.69 0.69 0.0 0 0 111.27 75.27
  L 112.79 75.49
  A 0.78 0.77 8.7 0 0 113.67 74.85
  Q 114.68 68.75 119.55 67.63
  C 123.65 66.69 126.82 68.45 126.87 73.01
  Q 126.94 78.64 126.90 83.49
  A 0.49 0.49 0.0 0 1 126.19 83.92
  C 120.80 81.16 111.44 81.59 109.59 88.54
  C 108.53 92.55 110.81 96.04 114.93 97.05
  C 118.92 98.03 122.85 96.63 126.18 94.14
  A 0.56 0.55 -26.4 0 1 127.05 94.43
  C 128.30 98.76 132.24 97.68 134.57 95.01
  A 0.36 0.36 0.0 0 0 134.24 94.42
  Z
  M 209.08 94.36
  L 207.82 94.56
  A 1.68 1.68 0.0 0 1 205.89 92.90
  Q 205.86 83.41 205.82 74.22
  Q 205.81 68.68 200.95 66.90
  C 194.72 64.60 187.32 67.60 185.57 74.42
  A 0.69 0.68 11.3 0 0 186.14 75.27
  L 187.66 75.48
  A 0.78 0.77 8.6 0 0 188.54 74.84
  Q 189.54 68.76 194.40 67.63
  C 198.49 66.69 201.65 68.45 201.71 73.00
  Q 201.78 78.62 201.75 83.46
  A 0.49 0.49 0.0 0 1 201.04 83.89
  C 195.66 81.14 186.32 81.57 184.48 88.51
  C 183.42 92.52 185.70 96.00 189.81 97.00
  C 193.80 97.98 197.72 96.58 201.04 94.09
  A 0.56 0.55 -26.5 0 1 201.91 94.38
  C 203.16 98.70 207.09 97.61 209.41 94.95
  A 0.36 0.36 0.0 0 0 209.08 94.36
  Z
  M 171.92 96.39
  A 0.18 0.17 28.7 0 0 172.02 96.71
  L 179.29 96.71
  A 0.24 0.24 0.0 0 0 179.47 96.30
  Q 177.87 94.56 177.86 93.58
  Q 177.75 82.83 177.83 67.24
  A 0.24 0.23 -4.3 0 0 177.56 67.01
  L 172.64 67.76
  A 0.47 0.47 0.0 0 0 172.47 68.63
  L 172.90 68.87
  A 1.51 1.50 14.9 0 1 173.65 70.15
  Q 173.79 87.53 173.61 93.53
  Q 173.55 95.40 171.92 96.39
  Z
  M 39.90 148.87
  Q 39.91 164.67 39.82 166.51
  Q 39.78 167.38 38.51 168.68
  A 0.23 0.23 0.0 0 0 38.65 169.07
  Q 38.71 169.08 42.01 169.08
  Q 45.30 169.08 45.36 169.07
  A 0.23 0.23 0.0 0 0 45.50 168.68
  Q 44.23 167.38 44.19 166.51
  Q 44.10 164.67 44.09 148.87
  Q 44.08 133.07 44.17 131.23
  Q 44.21 130.36 45.48 129.06
  A 0.23 0.23 0.0 0 0 45.34 128.67
  Q 45.28 128.66 41.99 128.66
  Q 38.69 128.66 38.63 128.67
  A 0.23 0.23 0.0 0 0 38.49 129.06
  Q 39.76 130.36 39.80 131.23
  Q 39.89 133.07 39.90 148.87
  Z
  M 190.22 166.55
  C 187.27 169.24 182.67 168.47 182.69 163.75
  Q 182.76 150.08 182.66 144.24
  A 0.51 0.51 0.0 0 1 183.17 143.72
  L 188.50 143.72
  A 0.67 0.67 0.0 0 1 189.17 144.39
  L 189.17 144.76
  A 0.44 0.43 60.1 0 0 189.98 144.98
  L 191.60 142.16
  A 0.19 0.18 -3.0 0 0 191.33 141.92
  C 190.00 142.88 186.84 142.61 183.22 142.60
  A 0.63 0.62 4.4 0 1 182.60 141.89
  L 183.36 136.69
  A 0.21 0.18 31.7 0 0 183.31 136.54
  L 183.26 136.52
  A 0.30 0.29 -66.1 0 0 182.88 136.67
  C 181.61 139.34 180.42 142.16 177.15 142.57
  A 0.33 0.33 0.0 0 0 177.13 143.22
  Q 178.14 143.41 178.75 143.99
  A 1.33 1.32 -68.2 0 1 179.17 144.98
  Q 179.00 157.74 179.19 164.22
  C 179.40 171.13 187.16 170.98 190.50 166.81
  A 0.19 0.19 0.0 0 0 190.48 166.56
  L 190.47 166.56
  A 0.19 0.18 -42.6 0 0 190.22 166.55
  Z
  M 74.97 168.52
  Q 73.79 166.69 73.87 164.50
  Q 74.26 153.88 73.30 147.00
  A 1.09 1.07 66.2 0 1 73.67 146.03
  Q 76.05 144.02 79.78 143.55
  C 85.09 142.89 86.64 146.43 86.88 151.28
  Q 87.33 160.07 86.67 167.39
  Q 86.62 167.97 86.41 168.12
  Q 86.25 168.23 85.76 168.66
  A 0.27 0.27 0.0 0 0 85.94 169.14
  L 91.69 169.14
  A 0.33 0.33 0.0 0 0 91.92 168.58
  Q 90.46 167.12 90.52 164.30
  Q 90.72 155.23 90.34 149.70
  C 89.67 139.81 78.50 141.55 72.94 145.39
  A 0.37 0.36 -39.5 0 1 72.48 145.35
  Q 68.32 141.29 62.73 142.55
  Q 59.41 143.30 58.65 143.89
  A 0.63 0.63 0.0 0 1 57.77 143.79
  Q 57.46 143.42 57.36 143.00
  A 0.33 0.32 -10.9 0 0 57.00 142.76
  L 53.16 143.35
  A 0.27 0.27 0.0 0 0 52.97 143.75
  L 53.75 145.11
  A 1.48 1.44 -60.9 0 1 53.95 145.85
  Q 54.02 154.36 53.92 165.26
  Q 53.90 167.81 52.41 168.73
  A 0.23 0.23 0.0 0 0 52.53 169.15
  L 58.31 169.15
  A 0.32 0.31 -19.2 0 0 58.56 168.64
  Q 57.49 167.33 57.49 165.27
  Q 57.49 158.15 57.51 145.88
  A 0.75 0.74 75.7 0 1 57.89 145.23
  Q 61.39 143.32 65.01 143.52
  C 70.50 143.84 70.34 150.48 70.35 154.34
  Q 70.38 164.94 70.30 166.00
  Q 70.16 167.69 68.75 168.86
  A 0.16 0.16 0.0 0 0 68.85 169.14
  L 74.63 169.14
  A 0.40 0.40 0.0 0 0 74.97 168.52
  Z
  M 96.70 143.69
  Q 98.30 145.24 98.30 146.24
  Q 98.28 174.30 98.29 177.01
  Q 98.30 179.90 96.85 181.17
  A 0.29 0.29 0.0 0 0 97.04 181.68
  L 102.84 181.68
  A 0.26 0.26 0.0 0 0 103.06 181.29
  L 101.92 179.32
  A 1.20 1.19 -59.7 0 1 101.77 178.74
  L 101.77 168.17
  A 0.58 0.58 0.0 0 1 102.53 167.62
  C 103.48 167.93 104.29 168.55 105.39 168.85
  C 113.70 171.09 121.62 166.34 122.63 157.52
  C 123.24 152.24 120.52 145.87 115.47 143.53
  Q 109.25 140.64 102.58 144.45
  A 0.52 0.51 75.2 0 1 101.81 144.00
  L 101.81 143.23
  A 0.66 0.65 72.6 0 0 100.78 142.69
  Q 99.68 143.47 96.92 143.21
  A 0.28 0.28 0.0 0 0 96.70 143.69
  Z
  M 147.92 167.09
  L 146.80 167.27
  A 1.48 1.47 85.6 0 1 145.11 165.81
  Q 145.10 157.46 145.08 149.38
  Q 145.07 144.51 140.81 142.94
  C 135.34 140.91 128.82 143.54 127.28 149.53
  A 0.60 0.60 0.0 0 0 127.77 150.27
  L 129.11 150.47
  A 0.68 0.68 0.0 0 0 129.88 149.91
  Q 130.77 144.55 135.05 143.58
  C 138.64 142.75 141.42 144.30 141.46 148.30
  Q 141.52 153.24 141.48 157.50
  A 0.43 0.43 0.0 0 1 140.86 157.87
  C 136.13 155.45 127.92 155.82 126.29 161.92
  C 125.36 165.44 127.36 168.50 130.97 169.39
  C 134.47 170.25 137.92 169.02 140.85 166.84
  A 0.49 0.49 0.0 0 1 141.61 167.10
  C 142.70 170.90 146.16 169.95 148.21 167.61
  A 0.32 0.32 0.0 0 0 147.92 167.09
  Z
  M 172.47 165.78
  Q 167.32 169.89 161.51 167.42
  C 155.53 164.87 154.70 155.83 156.04 150.55
  Q 157.99 142.83 165.20 143.18
  Q 168.47 143.34 169.77 147.13
  A 0.92 0.91 0.1 0 0 170.35 147.72
  Q 171.40 148.06 173.54 147.75
  A 0.41 0.41 0.0 0 0 173.85 147.16
  C 172.14 143.79 168.98 142.44 165.30 142.31
  C 147.29 141.67 145.39 168.26 163.28 169.65
  Q 168.39 170.05 172.76 166.07
  A 0.19 0.19 0.0 0 0 172.78 165.81
  L 172.77 165.80
  A 0.22 0.21 48.7 0 0 172.47 165.78
  Z"
/>
<path fill="#f8fdfa" d="
  M 157.47 49.94
  A 0.19 0.18 50.3 0 1 157.50 49.58
  L 162.94 48.75
  A 0.71 0.71 0.0 0 1 163.75 49.45
  Q 163.76 76.56 163.73 90.24
  Q 163.72 93.43 164.26 94.62
  A 1.22 1.20 82.2 0 0 165.18 95.33
  Q 166.47 95.54 168.06 94.84
  A 0.37 0.37 0.0 0 1 168.57 95.27
  Q 168.43 95.84 166.66 96.62
  Q 161.86 98.73 159.99 94.68
  A 0.54 0.53 -28.5 0 0 159.22 94.46
  L 156.53 96.24
  A 2.10 1.87 16.3 0 1 155.98 96.50
  C 135.93 102.74 130.72 73.13 148.23 66.94
  Q 153.49 65.09 159.06 67.95
  A 0.43 0.42 -76.4 0 0 159.68 67.57
  Q 159.67 67.02 159.63 53.04
  C 159.63 51.27 158.92 50.49 157.47 49.94
  Z
  M 159.57 91.20
  Q 159.68 85.64 159.61 74.83
  C 159.60 73.31 159.92 71.89 158.94 70.63
  C 154.66 65.12 146.38 67.37 144.28 73.65
  C 141.95 80.65 142.03 93.50 151.92 95.04
  Q 156.72 95.79 159.22 92.25
  A 1.96 1.92 64.0 0 0 159.57 91.20
  Z"
/>
<path fill="#f8fdfa" d="
  M 28.12 96.71
  L 20.06 96.71
  A 0.24 0.24 0.0 0 1 19.97 96.24
  Q 23.31 94.90 24.72 91.19
  Q 28.24 81.98 40.28 49.89
  A 0.47 0.47 0.0 0 1 41.16 49.91
  Q 46.06 65.48 55.30 94.51
  Q 55.49 95.11 56.98 96.33
  A 0.22 0.22 0.0 0 1 56.84 96.72
  L 48.13 96.72
  A 0.13 0.12 28.8 0 1 48.06 96.49
  C 49.82 95.43 50.02 94.13 49.49 92.46
  Q 49.47 92.41 45.57 79.76
  A 1.14 1.12 -8.2 0 0 44.48 78.96
  L 31.84 78.96
  A 0.84 0.84 0.0 0 0 31.05 79.52
  Q 28.58 86.35 27.72 88.49
  C 26.76 90.89 25.00 94.76 28.21 96.33
  A 0.20 0.20 0.0 0 1 28.12 96.71
  Z
  M 32.19 76.53
  A 0.48 0.48 0.0 0 0 32.63 77.17
  L 44.20 77.44
  A 0.48 0.48 0.0 0 0 44.67 76.81
  L 39.27 59.65
  A 0.48 0.48 0.0 0 0 38.36 59.63
  L 32.19 76.53
  Z"
/>
<circle fill="#f8fdfa" cx="176.18" cy="59.30" r="2.20"/>
<path fill="#24332c" d="
  M 32.19 76.53
  L 38.36 59.63
  A 0.48 0.48 0.0 0 1 39.27 59.65
  L 44.67 76.81
  A 0.48 0.48 0.0 0 1 44.20 77.44
  L 32.63 77.17
  A 0.48 0.48 0.0 0 1 32.19 76.53
  Z"
/>
<path fill="#f8fdfa" d="
  M 61.47 96.30
  Q 63.27 95.56 63.27 92.50
  Q 63.27 70.60 63.27 69.74
  A 1.10 1.09 16.9 0 0 62.73 68.73
  L 61.73 68.18
  A 0.35 0.35 0.0 0 1 61.84 67.53
  L 66.77 66.78
  A 0.64 0.64 0.0 0 1 67.51 67.41
  L 67.51 68.01
  A 0.45 0.44 70.9 0 0 68.23 68.36
  C 71.71 65.64 77.38 64.58 77.81 70.94
  A 0.43 0.43 0.0 0 1 77.49 71.38
  Q 76.07 71.73 74.42 71.47
  A 0.95 0.93 -3.8 0 1 73.66 70.82
  Q 73.23 69.42 73.22 69.40
  C 72.22 66.94 69.01 68.76 67.83 69.99
  A 1.36 1.34 67.4 0 0 67.45 70.93
  L 67.45 93.88
  A 2.22 2.22 0.0 0 0 68.57 95.81
  L 69.47 96.33
  A 0.19 0.19 0.0 0 1 69.38 96.68
  L 61.55 96.68
  A 0.20 0.20 0.0 0 1 61.47 96.30
  Z"
/>
<path fill="#f8fdfa" d="
  M 104.20 93.00
  A 0.25 0.24 49.3 0 1 104.54 93.03
  L 104.55 93.04
  A 0.22 0.22 0.0 0 1 104.53 93.34
  Q 99.50 97.82 93.68 97.31
  C 73.32 95.53 75.78 65.25 96.29 66.18
  C 100.48 66.37 104.07 67.95 105.98 71.81
  A 0.47 0.47 0.0 0 1 105.62 72.48
  Q 103.18 72.80 101.99 72.40
  A 1.05 1.04 0.6 0 1 101.33 71.73
  Q 99.89 67.39 96.17 67.17
  Q 87.96 66.70 85.65 75.47
  C 84.07 81.47 84.91 91.78 91.69 94.75
  Q 98.29 97.63 104.20 93.00
  Z"
/>
<path fill="#f8fdfa" d="
  M 134.57 95.01
  C 132.24 97.68 128.30 98.76 127.05 94.43
  A 0.56 0.55 -26.4 0 0 126.18 94.14
  C 122.85 96.63 118.92 98.03 114.93 97.05
  C 110.81 96.04 108.53 92.55 109.59 88.54
  C 111.44 81.59 120.80 81.16 126.19 83.92
  A 0.49 0.49 0.0 0 0 126.90 83.49
  Q 126.94 78.64 126.87 73.01
  C 126.82 68.45 123.65 66.69 119.55 67.63
  Q 114.68 68.75 113.67 74.85
  A 0.78 0.77 8.7 0 1 112.79 75.49
  L 111.27 75.27
  A 0.69 0.69 0.0 0 1 110.70 74.42
  C 112.46 67.59 119.88 64.59 126.12 66.90
  Q 130.98 68.69 130.99 74.24
  Q 131.02 83.45 131.04 92.96
  A 1.69 1.68 85.6 0 0 132.97 94.62
  L 134.24 94.42
  A 0.36 0.36 0.0 0 1 134.57 95.01
  Z
  M 126.27 84.85
  C 122.56 83.37 118.04 82.69 115.39 85.80
  Q 113.46 88.07 113.98 90.97
  C 115.14 97.43 122.83 95.96 126.57 92.51
  A 0.94 0.94 0.0 0 0 126.87 91.82
  L 126.87 85.73
  A 0.95 0.94 11.0 0 0 126.27 84.85
  Z"
/>
<path fill="#f8fdfa" d="
  M 209.08 94.36
  A 0.36 0.36 0.0 0 1 209.41 94.95
  C 207.09 97.61 203.16 98.70 201.91 94.38
  A 0.56 0.55 -26.5 0 0 201.04 94.09
  C 197.72 96.58 193.80 97.98 189.81 97.00
  C 185.70 96.00 183.42 92.52 184.48 88.51
  C 186.32 81.57 195.66 81.14 201.04 83.89
  A 0.49 0.49 0.0 0 0 201.75 83.46
  Q 201.78 78.62 201.71 73.00
  C 201.65 68.45 198.49 66.69 194.40 67.63
  Q 189.54 68.76 188.54 74.84
  A 0.78 0.77 8.6 0 1 187.66 75.48
  L 186.14 75.27
  A 0.69 0.68 11.3 0 1 185.57 74.42
  C 187.32 67.60 194.72 64.60 200.95 66.90
  Q 205.81 68.68 205.82 74.22
  Q 205.86 83.41 205.89 92.90
  A 1.68 1.68 0.0 0 0 207.82 94.56
  L 209.08 94.36
  Z
  M 201.14 84.80
  C 197.41 83.33 192.87 82.66 190.23 85.79
  Q 188.30 88.08 188.84 90.99
  C 190.03 97.46 197.74 95.96 201.47 92.48
  A 0.95 0.95 0.0 0 0 201.77 91.79
  L 201.74 85.68
  A 0.96 0.95 10.8 0 0 201.14 84.80
  Z"
/>
<path fill="#f8fdfa" d="
  M 171.92 96.39
  Q 173.55 95.40 173.61 93.53
  Q 173.79 87.53 173.65 70.15
  A 1.51 1.50 14.9 0 0 172.90 68.87
  L 172.47 68.63
  A 0.47 0.47 0.0 0 1 172.64 67.76
  L 177.56 67.01
  A 0.24 0.23 -4.3 0 1 177.83 67.24
  Q 177.75 82.83 177.86 93.58
  Q 177.87 94.56 179.47 96.30
  A 0.24 0.24 0.0 0 1 179.29 96.71
  L 172.02 96.71
  A 0.18 0.17 28.7 0 1 171.92 96.39
  Z"
/>
<path fill="#24332c" d="
  M 159.22 92.25
  Q 156.72 95.79 151.92 95.04
  C 142.03 93.50 141.95 80.65 144.28 73.65
  C 146.38 67.37 154.66 65.12 158.94 70.63
  C 159.92 71.89 159.60 73.31 159.61 74.83
  Q 159.68 85.64 159.57 91.20
  A 1.96 1.92 64.0 0 1 159.22 92.25
  Z"
/>
<path fill="#24332c" d="
  M 126.87 85.73
  L 126.87 91.82
  A 0.94 0.94 0.0 0 1 126.57 92.51
  C 122.83 95.96 115.14 97.43 113.98 90.97
  Q 113.46 88.07 115.39 85.80
  C 118.04 82.69 122.56 83.37 126.27 84.85
  A 0.95 0.94 11.0 0 1 126.87 85.73
  Z"
/>
<path fill="#24332c" d="
  M 201.14 84.80
  A 0.96 0.95 10.8 0 1 201.74 85.68
  L 201.77 91.79
  A 0.95 0.95 0.0 0 1 201.47 92.48
  C 197.74 95.96 190.03 97.46 188.84 90.99
  Q 188.30 88.08 190.23 85.79
  C 192.87 82.66 197.41 83.33 201.14 84.80
  Z"
/>
<path fill="#f8fdfa" d="
  M 41.99 128.66
  Q 45.28 128.66 45.34 128.67
  A 0.23 0.23 0.0 0 1 45.48 129.06
  Q 44.21 130.36 44.17 131.23
  Q 44.08 133.07 44.09 148.87
  Q 44.10 164.67 44.19 166.51
  Q 44.23 167.38 45.50 168.68
  A 0.23 0.23 0.0 0 1 45.36 169.07
  Q 45.30 169.08 42.01 169.08
  Q 38.71 169.08 38.65 169.07
  A 0.23 0.23 0.0 0 1 38.51 168.68
  Q 39.78 167.38 39.82 166.51
  Q 39.91 164.67 39.90 148.87
  Q 39.89 133.07 39.80 131.23
  Q 39.76 130.36 38.49 129.06
  A 0.23 0.23 0.0 0 1 38.63 128.67
  Q 38.69 128.66 41.99 128.66
  Z"
/>
<path fill="#f8fdfa" d="
  M 190.22 166.55
  A 0.19 0.18 -42.6 0 1 190.47 166.56
  L 190.48 166.56
  A 0.19 0.19 0.0 0 1 190.50 166.81
  C 187.16 170.98 179.40 171.13 179.19 164.22
  Q 179.00 157.74 179.17 144.98
  A 1.33 1.32 -68.2 0 0 178.75 143.99
  Q 178.14 143.41 177.13 143.22
  A 0.33 0.33 0.0 0 1 177.15 142.57
  C 180.42 142.16 181.61 139.34 182.88 136.67
  A 0.30 0.29 -66.1 0 1 183.26 136.52
  L 183.31 136.54
  A 0.21 0.18 31.7 0 1 183.36 136.69
  L 182.60 141.89
  A 0.63 0.62 4.4 0 0 183.22 142.60
  C 186.84 142.61 190.00 142.88 191.33 141.92
  A 0.19 0.18 -3.0 0 1 191.60 142.16
  L 189.98 144.98
  A 0.44 0.43 60.1 0 1 189.17 144.76
  L 189.17 144.39
  A 0.67 0.67 0.0 0 0 188.50 143.72
  L 183.17 143.72
  A 0.51 0.51 0.0 0 0 182.66 144.24
  Q 182.76 150.08 182.69 163.75
  C 182.67 168.47 187.27 169.24 190.22 166.55
  Z"
/>
<path fill="#f8fdfa" d="
  M 74.63 169.14
  L 68.85 169.14
  A 0.16 0.16 0.0 0 1 68.75 168.86
  Q 70.16 167.69 70.30 166.00
  Q 70.38 164.94 70.35 154.34
  C 70.34 150.48 70.50 143.84 65.01 143.52
  Q 61.39 143.32 57.89 145.23
  A 0.75 0.74 75.7 0 0 57.51 145.88
  Q 57.49 158.15 57.49 165.27
  Q 57.49 167.33 58.56 168.64
  A 0.32 0.31 -19.2 0 1 58.31 169.15
  L 52.53 169.15
  A 0.23 0.23 0.0 0 1 52.41 168.73
  Q 53.90 167.81 53.92 165.26
  Q 54.02 154.36 53.95 145.85
  A 1.48 1.44 -60.9 0 0 53.75 145.11
  L 52.97 143.75
  A 0.27 0.27 0.0 0 1 53.16 143.35
  L 57.00 142.76
  A 0.33 0.32 -10.9 0 1 57.36 143.00
  Q 57.46 143.42 57.77 143.79
  A 0.63 0.63 0.0 0 0 58.65 143.89
  Q 59.41 143.30 62.73 142.55
  Q 68.32 141.29 72.48 145.35
  A 0.37 0.36 -39.5 0 0 72.94 145.39
  C 78.50 141.55 89.67 139.81 90.34 149.70
  Q 90.72 155.23 90.52 164.30
  Q 90.46 167.12 91.92 168.58
  A 0.33 0.33 0.0 0 1 91.69 169.14
  L 85.94 169.14
  A 0.27 0.27 0.0 0 1 85.76 168.66
  Q 86.25 168.23 86.41 168.12
  Q 86.62 167.97 86.67 167.39
  Q 87.33 160.07 86.88 151.28
  C 86.64 146.43 85.09 142.89 79.78 143.55
  Q 76.05 144.02 73.67 146.03
  A 1.09 1.07 66.2 0 0 73.30 147.00
  Q 74.26 153.88 73.87 164.50
  Q 73.79 166.69 74.97 168.52
  A 0.40 0.40 0.0 0 1 74.63 169.14
  Z"
/>
<path fill="#f8fdfa" d="
  M 96.92 143.21
  Q 99.68 143.47 100.78 142.69
  A 0.66 0.65 72.6 0 1 101.81 143.23
  L 101.81 144.00
  A 0.52 0.51 75.2 0 0 102.58 144.45
  Q 109.25 140.64 115.47 143.53
  C 120.52 145.87 123.24 152.24 122.63 157.52
  C 121.62 166.34 113.70 171.09 105.39 168.85
  C 104.29 168.55 103.48 167.93 102.53 167.62
  A 0.58 0.58 0.0 0 0 101.77 168.17
  L 101.77 178.74
  A 1.20 1.19 -59.7 0 0 101.92 179.32
  L 103.06 181.29
  A 0.26 0.26 0.0 0 1 102.84 181.68
  L 97.04 181.68
  A 0.29 0.29 0.0 0 1 96.85 181.17
  Q 98.30 179.90 98.29 177.01
  Q 98.28 174.30 98.30 146.24
  Q 98.30 145.24 96.70 143.69
  A 0.28 0.28 0.0 0 1 96.92 143.21
  Z
  M 101.68 147.97
  L 101.96 164.41
  A 3.86 3.86 0.0 0 0 105.89 168.20
  L 108.78 168.15
  A 10.53 9.35 89.0 0 0 117.95 157.46
  L 117.89 154.36
  A 10.53 9.35 89.0 0 0 108.36 143.99
  L 105.47 144.04
  A 3.86 3.86 0.0 0 0 101.68 147.97
  Z"
/>
<path fill="#f8fdfa" d="
  M 147.92 167.09
  A 0.32 0.32 0.0 0 1 148.21 167.61
  C 146.16 169.95 142.70 170.90 141.61 167.10
  A 0.49 0.49 0.0 0 0 140.85 166.84
  C 137.92 169.02 134.47 170.25 130.97 169.39
  C 127.36 168.50 125.36 165.44 126.29 161.92
  C 127.92 155.82 136.13 155.45 140.86 157.87
  A 0.43 0.43 0.0 0 0 141.48 157.50
  Q 141.52 153.24 141.46 148.30
  C 141.42 144.30 138.64 142.75 135.05 143.58
  Q 130.77 144.55 129.88 149.91
  A 0.68 0.68 0.0 0 1 129.11 150.47
  L 127.77 150.27
  A 0.60 0.60 0.0 0 1 127.28 149.53
  C 128.82 143.54 135.34 140.91 140.81 142.94
  Q 145.07 144.51 145.08 149.38
  Q 145.10 157.46 145.11 165.81
  A 1.48 1.47 85.6 0 0 146.80 167.27
  L 147.92 167.09
  Z
  M 140.94 158.66
  C 137.69 157.37 133.73 156.77 131.41 159.50
  Q 129.72 161.49 130.18 164.03
  C 131.19 169.68 137.93 168.40 141.20 165.37
  A 0.83 0.83 0.0 0 0 141.47 164.77
  L 141.47 159.44
  A 0.84 0.83 11.0 0 0 140.94 158.66
  Z"
/>
<path fill="#f8fdfa" d="
  M 172.47 165.78
  A 0.22 0.21 48.7 0 1 172.77 165.80
  L 172.78 165.81
  A 0.19 0.19 0.0 0 1 172.76 166.07
  Q 168.39 170.05 163.28 169.65
  C 145.39 168.26 147.29 141.67 165.30 142.31
  C 168.98 142.44 172.14 143.79 173.85 147.16
  A 0.41 0.41 0.0 0 1 173.54 147.75
  Q 171.40 148.06 170.35 147.72
  A 0.92 0.91 0.1 0 1 169.77 147.13
  Q 168.47 143.34 165.20 143.18
  Q 157.99 142.83 156.04 150.55
  C 154.70 155.83 155.53 164.87 161.51 167.42
  Q 167.32 169.89 172.47 165.78
  Z"
/>
<path fill="#24332c" d="
  M 101.68 147.97
  A 3.86 3.86 0.0 0 1 105.47 144.04
  L 108.36 143.99
  A 10.53 9.35 89.0 0 1 117.89 154.36
  L 117.95 157.46
  A 10.53 9.35 89.0 0 1 108.78 168.15
  L 105.89 168.20
  A 3.86 3.86 0.0 0 1 101.96 164.41
  L 101.68 147.97
  Z"
/>
<path fill="#24332c" d="
  M 140.94 158.66
  A 0.84 0.83 11.0 0 1 141.47 159.44
  L 141.47 164.77
  A 0.83 0.83 0.0 0 1 141.20 165.37
  C 137.93 168.40 131.19 169.68 130.18 164.03
  Q 129.72 161.49 131.41 159.50
  C 133.73 156.77 137.69 157.37 140.94 158.66
  Z"
/>
</svg>
