<?xml version="1.0" encoding="UTF-8" standalone="no"?>
<!DOCTYPE svg PUBLIC "-//W3C//DTD SVG 1.1//EN" "http://www.w3.org/Graphics/SVG/1.1/DTD/svg11.dtd">
<svg xmlns="http://www.w3.org/2000/svg" version="1.1" viewBox="0.00 0.00 1177.00 208.00">
<path fill="#2c3532" d="
  M 439.43 10.53
  A 0.33 0.32 78.6 0 1 439.88 10.83
  Q 439.89 16.32 439.90 131.75
  Q 439.90 140.68 441.30 145.71
  C 442.86 151.32 450.64 148.75 454.08 146.33
  A 0.44 0.43 -22.3 0 1 454.76 146.61
  Q 454.85 147.17 454.51 147.76
  C 451.25 153.26 443.91 155.79 438.00 154.83
  C 432.30 153.92 429.41 150.80 428.68 145.54
  A 0.63 0.62 -27.2 0 0 427.61 145.20
  Q 421.77 151.31 413.35 153.54
  Q 406.16 155.43 399.77 154.91
  Q 392.23 154.28 386.41 151.66
  C 369.36 143.98 361.15 125.05 362.90 106.78
  Q 364.71 87.82 377.24 75.56
  C 390.85 62.24 409.94 59.04 426.91 68.53
  A 0.60 0.60 0.0 0 0 427.81 68.00
  Q 427.74 47.89 427.80 24.77
  C 427.81 21.49 427.37 17.64 423.86 16.61
  Q 420.95 15.76 419.72 15.22
  A 0.32 0.32 0.0 0 1 419.67 14.66
  Q 420.09 14.39 420.39 14.36
  C 428.19 13.49 433.50 13.04 439.43 10.53
  Z
  M 427.76 80.51
  A 2.85 2.83 29.2 0 0 427.33 79.01
  C 420.27 67.51 404.87 63.34 393.32 70.83
  C 382.16 78.07 379.73 93.75 378.92 106.24
  Q 378.47 113.08 380.43 122.61
  Q 382.46 132.51 389.29 139.92
  C 396.02 147.22 408.03 150.62 417.87 146.89
  Q 427.81 143.13 427.81 132.52
  Q 427.81 96.39 427.76 80.51
  Z"
/>
<path fill="#2c3532" d="
  M 96.55 152.81
  L 96.55 152.55
  A 0.15 0.15 0.0 0 1 96.68 152.40
  Q 99.98 151.91 101.72 150.97
  C 105.39 149.00 104.51 143.61 103.48 140.31
  Q 97.42 120.84 91.46 101.90
  A 1.38 1.38 0.0 0 0 90.14 100.93
  L 50.89 100.93
  A 1.07 1.06 -79.7 0 0 49.89 101.63
  Q 44.06 117.12 37.45 135.20
  C 35.08 141.67 33.48 151.42 43.41 152.19
  A 0.52 0.52 0.0 0 1 43.89 152.71
  L 43.89 152.99
  A 0.16 0.16 0.0 0 1 43.73 153.15
  L 14.30 153.15
  A 0.36 0.35 0.0 0 1 13.94 152.80
  L 13.94 152.54
  A 0.21 0.20 -5.1 0 1 14.11 152.34
  Q 23.14 150.69 27.30 142.84
  Q 30.85 136.14 34.20 127.22
  Q 69.00 34.62 76.46 14.82
  A 1.12 1.11 2.6 0 1 77.21 14.14
  Q 78.02 13.91 78.65 14.33
  Q 79.01 14.56 79.34 15.60
  Q 93.70 61.06 119.77 143.46
  Q 121.04 147.47 122.69 149.59
  C 124.33 151.70 126.66 151.82 128.86 152.50
  A 0.33 0.33 0.0 0 1 128.76 153.14
  L 96.88 153.14
  A 0.33 0.33 0.0 0 1 96.55 152.81
  Z
  M 72.67 41.47
  A 0.36 0.36 0.0 0 0 71.99 41.45
  L 52.24 94.91
  A 0.36 0.36 0.0 0 0 52.58 95.39
  L 88.91 95.39
  A 0.36 0.36 0.0 0 0 89.26 94.92
  L 72.67 41.47
  Z"
/>
<path fill="#2c3532" d="
  M 658.01 85.09
  C 658.01 115.02 657.95 130.03 658.22 142.72
  Q 658.40 151.06 666.57 152.35
  Q 667.12 152.44 667.19 152.83
  A 0.37 0.37 0.0 0 1 666.82 153.26
  Q 658.49 153.15 650.88 153.15
  Q 643.28 153.15 634.95 153.26
  A 0.37 0.37 0.0 0 1 634.58 152.83
  Q 634.65 152.44 635.20 152.35
  Q 643.37 151.06 643.55 142.72
  C 643.82 130.03 643.77 115.02 643.77 85.09
  C 643.77 55.16 643.82 40.15 643.56 27.46
  Q 643.38 19.12 635.21 17.83
  Q 634.66 17.74 634.59 17.35
  A 0.37 0.37 0.0 0 1 634.96 16.92
  Q 643.29 17.03 650.89 17.03
  Q 658.50 17.03 666.82 16.92
  A 0.37 0.37 0.0 0 1 667.20 17.35
  Q 667.13 17.74 666.58 17.83
  Q 658.41 19.12 658.23 27.46
  C 657.96 40.15 658.01 55.16 658.01 85.09
  Z"
/>
<circle fill="#2c3532" cx="476.38" cy="42.72" r="6.66"/>
<path fill="#2c3532" d="
  M 1151.90 139.90
  A 0.28 0.28 0.0 0 1 1152.38 140.16
  Q 1151.62 142.75 1150.30 144.76
  C 1144.19 154.07 1134.01 156.60 1123.46 154.21
  C 1113.55 151.97 1111.58 141.76 1111.60 133.01
  Q 1111.64 107.17 1111.58 73.01
  C 1111.57 66.77 1107.30 66.48 1102.56 65.15
  A 0.40 0.40 0.0 0 1 1102.63 64.37
  Q 1113.88 63.32 1119.85 53.27
  Q 1123.81 46.61 1125.09 40.25
  A 0.78 0.77 8.3 0 1 1125.92 39.64
  L 1125.94 39.64
  A 0.58 0.58 0.0 0 1 1126.46 40.33
  Q 1124.16 52.24 1123.73 63.45
  A 0.58 0.58 0.0 0 0 1124.30 64.05
  Q 1140.71 64.25 1146.22 63.86
  Q 1150.84 63.52 1153.47 59.81
  A 0.56 0.55 -42.4 0 1 1154.40 59.85
  L 1154.63 60.26
  A 1.16 1.15 -41.5 0 1 1154.55 61.53
  Q 1150.16 67.33 1147.29 73.65
  A 0.64 0.64 0.0 0 1 1146.07 73.31
  C 1146.62 68.82 1143.67 68.22 1139.82 68.20
  Q 1130.42 68.17 1124.41 68.11
  A 0.63 0.63 0.0 0 0 1123.77 68.74
  Q 1123.81 104.20 1123.77 132.24
  C 1123.76 142.09 1125.90 149.78 1137.48 149.59
  Q 1145.65 149.45 1149.72 142.99
  Q 1151.06 140.87 1151.90 139.90
  Z"
/>
<path fill="#2c3532" d="
  M 174.58 77.90
  C 174.64 74.35 173.58 70.09 169.64 69.40
  C 164.40 68.48 159.85 71.76 156.70 75.61
  A 1.43 1.41 65.1 0 0 156.38 76.51
  Q 156.36 112.49 156.38 141.00
  C 156.38 144.65 157.12 150.11 161.14 151.51
  Q 163.01 152.16 163.66 152.50
  A 0.36 0.36 0.0 0 1 163.49 153.18
  L 136.40 153.18
  A 0.34 0.33 -90.0 0 1 136.07 152.84
  L 136.07 152.55
  A 0.23 0.22 -4.5 0 1 136.26 152.33
  C 142.82 151.43 143.84 146.14 143.92 140.50
  Q 144.09 127.88 143.96 78.99
  C 143.95 73.68 144.48 70.01 139.05 68.59
  A 0.85 0.85 0.0 0 1 139.22 66.91
  Q 147.40 66.45 155.50 63.28
  A 0.62 0.62 0.0 0 1 156.35 63.86
  L 156.35 70.10
  A 0.64 0.64 0.0 0 0 157.41 70.58
  C 162.93 65.67 169.38 62.47 176.78 63.18
  C 184.67 63.92 187.06 71.05 186.75 77.93
  A 0.83 0.83 0.0 0 1 185.92 78.72
  L 175.39 78.72
  A 0.81 0.81 0.0 0 1 174.58 77.90
  Z"
/>
<path fill="#2c3532" d="
  M 266.56 139.85
  A 0.44 0.44 0.0 0 1 267.26 139.93
  L 267.41 140.19
  A 0.74 0.73 49.9 0 1 267.34 141.02
  C 257.20 153.03 242.08 157.21 226.73 154.02
  Q 202.22 148.94 194.56 124.97
  Q 190.21 111.39 193.84 97.02
  Q 199.78 73.51 221.73 65.75
  C 236.06 60.68 263.83 61.05 270.17 80.61
  A 1.14 1.14 0.0 0 1 269.09 82.10
  L 258.26 82.10
  A 1.85 1.85 0.0 0 1 256.45 80.63
  C 254.46 71.17 248.04 65.86 238.15 65.78
  C 214.67 65.59 207.41 90.37 208.09 109.26
  C 208.74 127.37 216.20 145.10 234.85 149.78
  C 246.75 152.76 258.37 148.70 266.56 139.85
  Z"
/>
<path fill="#2c3532" d="
  M 330.75 116.04
  A 0.39 0.39 0.0 0 0 331.34 115.70
  Q 331.29 102.59 331.31 83.02
  Q 331.31 79.07 329.85 75.30
  C 327.56 69.38 322.83 67.52 317.01 66.62
  Q 314.71 66.26 311.83 66.78
  C 299.88 68.90 294.23 77.29 292.85 89.00
  A 1.48 1.47 -86.7 0 1 291.39 90.32
  L 284.63 90.32
  A 1.17 1.16 3.1 0 1 283.47 89.03
  Q 283.68 87.07 284.16 85.49
  C 290.19 65.95 311.51 58.87 329.67 65.13
  C 339.60 68.56 343.52 77.06 343.64 87.06
  Q 343.78 99.30 343.67 141.42
  Q 343.67 141.78 344.56 144.21
  C 346.22 148.73 351.68 147.22 354.50 144.83
  A 0.61 0.61 0.0 0 1 355.42 145.61
  Q 354.12 147.80 351.50 150.79
  C 349.08 153.55 343.89 155.72 340.04 154.89
  Q 332.47 153.25 331.52 144.70
  A 0.65 0.65 0.0 0 0 330.44 144.29
  Q 318.90 154.73 303.16 155.10
  Q 300.64 155.16 295.07 153.79
  C 285.00 151.30 278.80 142.68 279.68 132.33
  C 280.53 122.15 288.35 114.81 297.94 112.09
  Q 315.22 107.18 330.75 116.04
  Z
  M 331.35 120.76
  A 1.77 1.75 -72.9 0 0 330.59 119.31
  C 320.02 112.01 301.70 111.43 295.20 124.84
  Q 291.43 132.62 294.73 140.31
  C 298.41 148.88 308.46 151.11 317.05 148.55
  Q 325.13 146.14 330.98 139.69
  A 1.27 1.26 -24.1 0 0 331.30 138.85
  L 331.35 120.76
  Z"
/>
<path fill="#2c3532" d="
  M 551.11 116.01
  A 0.39 0.39 0.0 0 0 551.70 115.67
  Q 551.63 102.57 551.64 83.01
  Q 551.63 79.06 550.17 75.29
  C 547.87 69.37 543.14 67.52 537.32 66.63
  Q 535.02 66.27 532.14 66.79
  C 520.20 68.93 514.57 77.32 513.20 89.03
  A 1.48 1.47 -86.8 0 1 511.74 90.34
  L 504.98 90.35
  A 1.17 1.16 3.0 0 1 503.82 89.06
  Q 504.03 87.10 504.51 85.52
  C 510.51 65.99 531.82 58.89 549.98 65.13
  C 559.91 68.55 563.84 77.03 563.96 87.03
  Q 564.12 99.27 564.06 141.38
  Q 564.06 141.74 564.95 144.16
  C 566.62 148.68 572.07 147.17 574.88 144.77
  A 0.61 0.61 0.0 0 1 575.80 145.55
  Q 574.51 147.74 571.89 150.74
  C 569.47 153.50 564.30 155.66 560.45 154.84
  Q 552.87 153.21 551.91 144.67
  A 0.65 0.65 0.0 0 0 550.83 144.26
  Q 539.31 154.71 523.58 155.09
  Q 521.06 155.16 515.49 153.79
  C 505.42 151.32 499.21 142.71 500.07 132.36
  C 500.92 122.18 508.72 114.84 518.31 112.10
  Q 535.58 107.17 551.11 116.01
  Z
  M 551.63 120.72
  A 1.76 1.74 -73.1 0 0 550.87 119.27
  C 540.29 112.02 521.99 111.50 515.55 124.91
  Q 511.81 132.69 515.13 140.36
  C 518.83 148.92 528.88 151.11 537.44 148.52
  Q 545.50 146.08 551.33 139.62
  A 1.27 1.26 -24.3 0 0 551.64 138.78
  L 551.63 120.72
  Z"
/>
<path fill="#2c3532" d="
  M 738.13 153.18
  A 0.26 0.26 0.0 0 1 738.04 152.67
  Q 738.77 152.38 741.71 151.23
  C 745.13 149.89 745.79 143.77 745.84 140.25
  Q 746.03 125.17 745.92 94.41
  C 745.87 81.94 742.05 67.22 726.45 67.10
  Q 714.44 67.01 703.87 73.60
  A 1.58 1.57 -16.5 0 0 703.13 74.95
  Q 703.14 75.82 703.13 141.25
  C 703.13 146.39 704.45 151.41 710.22 152.22
  A 0.46 0.46 0.0 0 1 710.62 152.68
  L 710.62 152.96
  A 0.18 0.18 0.0 0 1 710.44 153.14
  L 682.95 153.14
  A 0.06 0.06 0.0 0 1 682.89 153.07
  L 682.89 152.82
  A 0.64 0.63 88.4 0 1 683.45 152.22
  C 690.00 151.44 690.80 144.12 690.81 139.01
  Q 690.84 88.77 690.76 75.01
  Q 690.73 69.84 685.92 68.63
  A 0.88 0.88 0.0 0 1 686.09 66.89
  Q 693.93 66.50 702.20 63.31
  A 0.66 0.66 0.0 0 1 703.10 63.93
  L 703.10 69.13
  A 0.66 0.66 0.0 0 0 704.10 69.70
  C 713.13 64.27 725.30 62.11 735.59 63.40
  C 743.41 64.38 748.70 67.30 752.96 73.40
  A 0.95 0.95 0.0 0 0 754.29 73.63
  C 766.33 65.00 783.63 60.02 798.10 64.90
  C 806.16 67.63 811.27 75.27 812.96 83.54
  Q 814.14 89.28 814.16 91.74
  Q 814.21 96.12 814.18 137.00
  Q 814.17 142.14 815.41 147.11
  C 816.34 150.85 818.73 151.31 821.84 152.43
  A 0.38 0.38 0.0 0 1 821.71 153.17
  L 794.90 153.17
  A 0.40 0.40 0.0 0 1 794.81 152.38
  C 801.16 150.79 801.84 146.22 801.94 140.09
  Q 802.27 118.31 801.95 95.24
  C 801.85 87.65 800.74 79.98 796.72 74.33
  C 792.10 67.86 786.44 66.90 779.01 67.24
  C 770.80 67.62 762.37 71.66 755.64 76.28
  A 1.04 1.03 -27.1 0 0 755.25 77.47
  Q 758.20 85.98 758.23 95.76
  Q 758.33 129.05 758.25 140.25
  Q 758.24 141.20 758.95 145.79
  Q 759.83 151.50 765.54 152.23
  A 0.59 0.58 3.9 0 1 766.05 152.81
  L 766.05 153.11
  A 0.07 0.07 0.0 0 1 765.98 153.18
  L 738.13 153.18
  Z"
/>
<path fill="#2c3532" d="
  M 859.13 194.29
  A 0.83 0.83 0.0 0 1 859.80 194.91
  L 859.87 195.20
  A 0.38 0.37 -5.1 0 1 859.48 195.66
  Q 848.50 195.00 833.91 195.61
  Q 832.65 195.67 831.92 195.30
  A 0.31 0.31 0.0 0 1 831.93 194.74
  L 836.08 192.86
  A 2.62 2.58 5.0 0 0 837.11 192.01
  Q 839.41 188.75 839.52 185.07
  C 840.20 162.90 839.88 130.61 839.78 80.00
  Q 839.77 78.70 839.53 74.75
  Q 839.32 71.46 836.94 69.81
  A 1.05 0.90 -15.8 0 0 836.70 69.70
  L 832.32 68.45
  A 0.78 0.77 -38.1 0 1 832.51 66.93
  Q 843.76 66.47 851.41 63.26
  A 0.33 0.33 0.0 0 1 851.87 63.57
  L 851.87 71.16
  A 0.44 0.43 -17.3 0 0 852.55 71.51
  Q 870.06 59.64 890.81 64.41
  C 901.21 66.80 910.64 74.55 915.90 84.35
  C 926.66 104.38 924.14 131.38 904.70 145.50
  C 889.89 156.26 868.58 157.33 852.71 147.16
  A 0.52 0.52 0.0 0 0 851.91 147.59
  Q 851.85 167.87 851.92 180.25
  Q 851.95 186.10 853.24 189.86
  Q 854.50 193.56 859.13 194.29
  Z
  M 852.25 76.60
  A 0.87 0.86 -18.1 0 0 851.89 77.30
  L 851.89 140.72
  A 2.22 2.20 -71.8 0 0 852.77 142.49
  C 866.07 152.57 887.56 153.66 898.35 139.03
  Q 903.66 131.83 905.29 120.77
  C 907.70 104.36 904.82 86.96 892.71 75.34
  Q 885.97 68.88 876.27 68.17
  C 866.13 67.42 859.87 70.86 852.25 76.60
  Z"
/>
<path fill="#2c3532" d="
  M 984.59 116.03
  A 0.39 0.39 0.0 0 0 985.18 115.69
  Q 985.13 102.59 985.16 83.02
  Q 985.16 79.07 983.70 75.30
  C 981.41 69.38 976.68 67.52 970.86 66.62
  Q 968.56 66.26 965.68 66.78
  C 953.74 68.90 948.09 77.29 946.71 89.00
  A 1.48 1.47 -86.7 0 1 945.25 90.31
  L 938.49 90.31
  A 1.17 1.16 3.1 0 1 937.33 89.02
  Q 937.54 87.06 938.02 85.48
  C 944.05 65.95 965.37 58.88 983.52 65.14
  C 993.45 68.57 997.37 77.06 997.48 87.06
  Q 997.62 99.30 997.51 141.41
  Q 997.51 141.77 998.40 144.20
  C 1000.06 148.72 1005.51 147.21 1008.33 144.82
  A 0.61 0.61 0.0 0 1 1009.25 145.60
  Q 1007.95 147.79 1005.33 150.78
  C 1002.91 153.54 997.73 155.70 993.88 154.87
  Q 986.31 153.23 985.36 144.69
  A 0.65 0.65 0.0 0 0 984.28 144.28
  Q 972.74 154.71 957.01 155.08
  Q 954.49 155.14 948.92 153.77
  C 938.85 151.28 932.65 142.66 933.53 132.31
  C 934.39 122.14 942.20 114.80 951.79 112.08
  Q 969.07 107.17 984.59 116.03
  Z
  M 985.14 120.72
  A 1.76 1.74 -73.0 0 0 984.38 119.27
  C 973.80 112.01 955.49 111.47 949.03 124.89
  Q 945.28 132.67 948.60 140.35
  C 952.30 148.91 962.35 151.11 970.92 148.53
  Q 978.99 146.10 984.82 139.64
  A 1.27 1.26 -24.3 0 0 985.14 138.80
  L 985.14 120.72
  Z"
/>
<path fill="#2c3532" d="
  M 1090.83 139.84
  A 0.44 0.44 0.0 0 1 1091.53 139.91
  L 1091.68 140.17
  A 0.74 0.73 49.9 0 1 1091.61 141.00
  C 1081.48 153.02 1066.36 157.22 1051.01 154.04
  Q 1026.49 148.98 1018.81 125.01
  Q 1014.45 111.43 1018.07 97.06
  Q 1023.99 73.54 1045.94 65.76
  C 1060.27 60.68 1088.04 61.03 1094.40 80.59
  A 1.14 1.14 0.0 0 1 1093.32 82.08
  L 1082.49 82.09
  A 1.85 1.85 0.0 0 1 1080.67 80.62
  C 1078.68 71.16 1072.25 65.85 1062.36 65.78
  C 1038.88 65.61 1031.64 90.40 1032.33 109.29
  C 1033.00 127.40 1040.47 145.13 1059.13 149.79
  C 1071.03 152.76 1082.65 148.69 1090.83 139.84
  Z"
/>
<path fill="#2c3532" d="
  M 481.03 64.18
  A 0.40 0.40 0.0 0 1 481.57 64.56
  Q 481.63 82.72 481.57 140.01
  C 481.57 143.55 482.12 149.86 485.75 151.25
  Q 487.85 152.05 488.97 152.52
  A 0.36 0.36 0.0 0 1 488.84 153.21
  L 461.51 153.21
  A 0.21 0.21 0.0 0 1 461.30 153.00
  L 461.30 152.71
  A 0.54 0.53 -3.0 0 1 461.78 152.18
  C 468.34 151.50 469.19 144.88 469.19 139.77
  Q 469.18 90.00 469.21 76.28
  Q 469.22 70.62 464.38 69.62
  A 0.83 0.83 0.0 0 1 464.47 67.99
  Q 472.38 67.27 481.03 64.18
  Z"
/>
</svg>
