<?xml version="1.0" encoding="UTF-8" standalone="no"?>
<!DOCTYPE svg PUBLIC "-//W3C//DTD SVG 1.1//EN" "http://www.w3.org/Graphics/SVG/1.1/DTD/svg11.dtd">
<svg xmlns="http://www.w3.org/2000/svg" version="1.1" viewBox="0.00 0.00 1610.00 600.00">
<path fill="#0e0705" d="
  M 772.60 5.58
  L 772.60 30.56
  A 0.37 0.37 0.0 0 0 772.97 30.93
  L 801.42 30.93
  A 0.52 0.52 0.0 0 1 801.94 31.45
  L 801.94 54.80
  A 0.63 0.63 0.0 0 1 801.31 55.43
  L 773.25 55.43
  A 0.65 0.65 0.0 0 0 772.60 56.08
  Q 772.62 85.54 772.59 104.00
  C 772.59 108.44 773.34 112.40 777.63 113.89
  C 782.82 115.69 787.57 112.13 788.03 106.95
  Q 788.36 103.19 788.14 95.65
  A 0.45 0.45 0.0 0 1 788.59 95.18
  L 813.29 95.18
  A 0.61 0.61 0.0 0 1 813.90 95.75
  Q 814.18 100.04 813.84 109.95
  C 812.83 139.33 779.48 145.14 758.11 135.99
  Q 751.23 133.05 746.52 125.21
  C 742.15 117.93 741.39 109.35 741.41 99.95
  Q 741.45 76.18 741.41 56.05
  A 0.62 0.61 90.0 0 0 740.80 55.43
  L 725.94 55.43
  A 0.51 0.50 -0.0 0 1 725.43 54.93
  L 725.43 31.31
  A 0.46 0.46 0.0 0 1 725.73 30.88
  Q 732.64 28.33 739.25 23.73
  C 744.77 19.89 747.52 11.98 748.36 5.53
  A 0.78 0.77 3.3 0 1 749.13 4.85
  L 771.87 4.85
  A 0.73 0.73 0.0 0 1 772.60 5.58
  Z"
/>
<path fill="#0e0705" d="
  M 389.76 84.16
  C 389.76 106.66 411.27 115.08 430.24 110.19
  Q 439.79 107.73 447.27 101.20
  A 0.41 0.40 54.0 0 1 447.88 101.30
  L 461.71 123.46
  A 0.42 0.42 0.0 0 1 461.61 124.01
  C 450.75 132.13 437.99 138.20 424.57 139.31
  Q 409.88 140.53 397.27 136.72
  C 373.23 129.47 358.50 109.45 358.50 84.16
  C 358.50 58.87 373.22 38.85 397.27 31.59
  Q 409.87 27.78 424.56 29.00
  C 437.98 30.11 450.74 36.18 461.60 44.30
  A 0.42 0.42 0.0 0 1 461.70 44.85
  L 447.88 67.01
  A 0.41 0.40 -54.0 0 1 447.27 67.11
  Q 439.79 60.58 430.24 58.12
  C 411.27 53.24 389.76 61.65 389.76 84.16
  Z"
/>
<path fill="#0e0705" d="
  M 582.31 118.32
  A 0.67 0.65 43.8 0 1 582.34 119.25
  Q 568.93 133.44 550.36 137.71
  C 515.86 145.63 476.36 131.10 472.29 91.37
  C 469.25 61.68 487.58 35.92 517.17 30.04
  C 545.83 24.33 574.04 36.99 584.16 65.19
  Q 588.74 77.97 588.39 91.22
  A 0.31 0.30 -89.0 0 1 588.09 91.52
  L 503.51 91.46
  A 0.60 0.59 87.4 0 0 502.92 92.11
  C 504.78 112.59 531.95 117.72 547.09 112.25
  Q 556.94 108.70 564.35 101.85
  A 0.52 0.51 45.5 0 1 565.05 101.87
  L 582.31 118.32
  Z
  M 504.29 72.74
  L 556.07 72.74
  A 0.40 0.39 -4.9 0 0 556.46 72.28
  C 554.71 62.34 545.89 56.33 536.33 54.62
  C 522.57 52.15 507.95 57.92 503.72 71.97
  A 0.60 0.59 8.6 0 0 504.29 72.74
  Z"
/>
<path fill="#0e0705" d="
  M 638.41 44.06
  A 0.31 0.31 0.0 0 0 638.96 44.26
  Q 641.33 41.53 642.30 40.48
  C 653.08 28.83 670.15 26.13 684.82 30.67
  C 704.96 36.91 709.31 60.40 709.31 78.48
  Q 709.31 113.97 709.33 136.77
  A 0.67 0.67 0.0 0 1 708.66 137.44
  L 678.51 137.46
  A 0.35 0.34 -0.0 0 1 678.16 137.12
  Q 678.21 129.61 678.15 78.48
  C 678.13 68.57 674.23 56.89 663.15 54.96
  C 645.64 51.91 638.54 64.95 638.45 80.00
  Q 638.42 86.06 638.45 137.01
  A 0.45 0.45 0.0 0 1 638.00 137.46
  L 607.71 137.47
  A 0.40 0.39 -0.0 0 1 607.31 137.08
  L 607.25 31.32
  A 0.34 0.34 0.0 0 1 607.59 30.98
  L 637.88 30.97
  A 0.52 0.52 0.0 0 1 638.40 31.49
  L 638.41 44.06
  Z"
/>
<path fill="#0e0705" d="
  M 860.42 51.06
  A 0.27 0.26 -37.1 0 0 860.94 51.13
  C 865.71 34.54 880.90 26.15 897.21 29.46
  A 0.46 0.46 0.0 0 1 897.59 29.91
  L 897.58 59.75
  A 0.46 0.46 0.0 0 1 897.02 60.20
  C 885.91 57.78 873.90 57.67 866.13 66.24
  C 862.23 70.56 861.28 75.35 861.29 81.62
  Q 861.33 117.27 861.31 137.11
  A 0.32 0.31 -90.0 0 1 861.00 137.42
  L 830.59 137.42
  A 0.39 0.39 0.0 0 1 830.20 137.03
  L 830.23 31.34
  A 0.32 0.32 0.0 0 1 830.55 31.02
  L 859.84 31.03
  A 0.59 0.59 0.0 0 1 860.43 31.61
  L 860.42 51.06
  Z"
/>
<path fill="#0e0705" d="
  M 1016.79 118.33
  A 0.67 0.65 43.8 0 1 1016.82 119.26
  Q 1003.42 133.45 984.84 137.71
  C 950.34 145.63 910.84 131.09 906.78 91.36
  C 903.74 61.67 922.08 35.91 951.68 30.03
  C 980.33 24.33 1008.54 37.00 1018.66 65.20
  Q 1023.23 77.99 1022.88 91.24
  A 0.31 0.30 -89.0 0 1 1022.58 91.54
  L 938.00 91.45
  A 0.60 0.59 87.4 0 0 937.41 92.10
  C 939.26 112.58 966.43 117.72 981.58 112.26
  Q 991.43 108.71 998.84 101.86
  A 0.52 0.51 45.5 0 1 999.54 101.87
  L 1016.79 118.33
  Z
  M 938.80 72.75
  L 990.55 72.73
  A 0.40 0.39 -4.9 0 0 990.94 72.27
  C 989.19 62.34 980.37 56.33 970.82 54.63
  C 957.06 52.16 942.45 57.93 938.23 71.98
  A 0.60 0.59 8.6 0 0 938.80 72.75
  Z"
/>
<path fill="#0e0705" d="
  M 76.81 263.67
  L 76.81 286.42
  A 0.35 0.34 90.0 0 1 76.47 286.77
  L 53.32 286.77
  A 0.39 0.39 0.0 0 0 52.93 287.16
  L 52.93 351.41
  A 0.38 0.38 0.0 0 1 52.55 351.79
  L 22.14 351.79
  A 0.35 0.35 0.0 0 1 21.79 351.44
  L 21.79 287.36
  A 0.58 0.58 0.0 0 0 21.21 286.78
  L 7.31 286.78
  A 0.53 0.52 90.0 0 1 6.79 286.25
  L 6.79 263.41
  A 0.41 0.40 -0.0 0 1 7.20 263.01
  L 21.17 263.01
  A 0.64 0.64 0.0 0 0 21.81 262.36
  Q 21.75 250.98 21.82 236.29
  C 21.91 216.94 32.00 202.12 52.28 199.74
  C 71.69 197.45 89.41 204.50 92.58 225.70
  Q 93.14 229.40 92.89 237.66
  A 0.62 0.62 0.0 0 1 92.27 238.26
  L 69.31 238.26
  A 0.61 0.59 -87.4 0 1 68.72 237.60
  Q 68.94 235.17 68.35 231.15
  Q 67.44 224.88 61.71 224.34
  C 55.15 223.72 52.90 229.16 52.92 234.76
  Q 52.96 243.76 52.91 262.25
  A 0.76 0.75 0.0 0 0 53.67 263.00
  L 76.14 263.00
  A 0.67 0.67 0.0 0 1 76.81 263.67
  Z"
/>
<path fill="#0e0705" d="
  M 427.78 262.99
  A 0.67 0.67 0.0 0 1 428.45 263.66
  L 428.45 286.40
  A 0.35 0.34 -90.0 0 1 428.11 286.75
  L 404.97 286.75
  A 0.39 0.39 0.0 0 0 404.58 287.14
  L 404.57 351.36
  A 0.38 0.38 0.0 0 1 404.19 351.74
  L 373.79 351.74
  A 0.35 0.35 0.0 0 1 373.44 351.39
  L 373.45 287.33
  A 0.58 0.58 0.0 0 0 372.87 286.75
  L 358.98 286.75
  A 0.53 0.52 -90.0 0 1 358.46 286.22
  L 358.46 263.39
  A 0.41 0.40 0.0 0 1 358.87 262.99
  L 372.83 262.99
  A 0.64 0.64 0.0 0 0 373.47 262.35
  Q 373.41 250.97 373.48 236.29
  C 373.58 216.94 383.66 202.13 403.94 199.75
  C 423.34 197.47 441.05 204.52 444.22 225.71
  Q 444.78 229.41 444.52 237.66
  A 0.62 0.62 0.0 0 1 443.90 238.26
  L 420.95 238.26
  A 0.60 0.59 -87.3 0 1 420.36 237.60
  Q 420.58 235.17 420.00 231.15
  Q 419.09 224.89 413.36 224.35
  C 406.80 223.72 404.55 229.16 404.57 234.76
  Q 404.61 243.76 404.56 262.24
  A 0.76 0.75 0.0 0 0 405.32 262.99
  L 427.78 262.99
  Z"
/>
<path fill="#0e0705" d="
  M 615.96 219.46
  A 0.73 0.73 0.0 0 1 616.69 220.19
  L 616.70 245.16
  A 0.37 0.37 0.0 0 0 617.07 245.53
  L 645.51 245.53
  A 0.52 0.52 0.0 0 1 646.03 246.05
  L 646.03 269.40
  A 0.63 0.63 0.0 0 1 645.40 270.03
  L 617.35 270.03
  A 0.65 0.65 0.0 0 0 616.70 270.68
  Q 616.72 300.14 616.69 318.60
  C 616.69 323.03 617.44 326.99 621.73 328.48
  C 626.92 330.28 631.67 326.72 632.13 321.54
  Q 632.46 317.78 632.24 310.24
  A 0.45 0.45 0.0 0 1 632.69 309.77
  L 657.39 309.77
  A 0.61 0.61 0.0 0 1 658.00 310.34
  Q 658.28 314.63 657.94 324.54
  C 656.93 353.92 623.58 359.73 602.22 350.58
  Q 595.34 347.64 590.63 339.80
  C 586.26 332.53 585.50 323.95 585.52 314.55
  Q 585.55 290.78 585.51 270.65
  A 0.62 0.61 90.0 0 0 584.90 270.03
  L 570.04 270.03
  A 0.51 0.50 -0.0 0 1 569.53 269.53
  L 569.53 245.92
  A 0.46 0.46 0.0 0 1 569.83 245.49
  Q 576.74 242.94 583.35 238.34
  C 588.87 234.50 591.62 226.59 592.46 220.14
  A 0.78 0.77 3.3 0 1 593.23 219.46
  L 615.96 219.46
  Z"
/>
<path fill="#0e0705" d="
  M 87.90 298.45
  C 87.91 265.68 114.72 242.89 146.49 242.90
  C 178.26 242.92 205.05 265.73 205.04 298.49
  C 205.02 331.26 178.21 354.05 146.44 354.04
  C 114.68 354.02 87.88 331.21 87.90 298.45
  Z
  M 146.5704 269.6902
  A 28.77 28.28 -89.8 0 0 118.1902 298.3613
  A 28.77 28.28 -89.8 0 0 146.3696 327.2298
  A 28.77 28.28 -89.8 0 0 174.7498 298.5587
  A 28.77 28.28 -89.8 0 0 146.5704 269.6902
  Z"
/>
<path fill="#0e0705" d="
  M 256.01 265.29
  A 0.27 0.26 -37.2 0 0 256.53 265.36
  C 261.29 248.74 276.51 240.33 292.84 243.64
  A 0.46 0.46 0.0 0 1 293.22 244.09
  L 293.23 273.98
  A 0.46 0.46 0.0 0 1 292.67 274.43
  C 281.54 272.01 269.51 271.91 261.73 280.49
  C 257.83 284.81 256.88 289.61 256.89 295.90
  Q 256.95 331.60 256.93 351.46
  A 0.32 0.31 90.0 0 1 256.62 351.78
  L 226.17 351.79
  A 0.39 0.39 0.0 0 1 225.78 351.40
  L 225.76 245.55
  A 0.32 0.32 0.0 0 1 226.08 245.23
  L 255.41 245.23
  A 0.59 0.59 0.0 0 1 256.00 245.82
  L 256.01 265.29
  Z"
/>
<path fill="#0e0705" d="
  M 833.30 265.36
  C 838.07 248.74 853.29 240.33 869.63 243.64
  A 0.46 0.46 0.0 0 1 870.01 244.09
  L 870.01 273.99
  A 0.46 0.46 0.0 0 1 869.45 274.44
  C 858.32 272.02 846.29 271.91 838.50 280.50
  C 834.60 284.82 833.65 289.62 833.66 295.91
  Q 833.71 331.62 833.69 351.49
  A 0.32 0.31 -90.0 0 1 833.38 351.81
  L 802.92 351.81
  A 0.39 0.39 0.0 0 1 802.53 351.42
  L 802.53 245.54
  A 0.32 0.32 0.0 0 1 802.85 245.22
  L 832.19 245.22
  A 0.59 0.59 0.0 0 1 832.78 245.81
  L 832.78 265.29
  A 0.27 0.26 -37.2 0 0 833.30 265.36
  Z"
/>
<path fill="#0e0705" d="
  M 989.20 332.59
  A 0.67 0.65 43.9 0 1 989.23 333.52
  Q 975.81 347.70 957.23 351.95
  C 922.73 359.85 883.23 345.29 879.19 305.56
  C 876.17 275.86 894.52 250.12 924.12 244.25
  C 952.78 238.56 980.99 251.25 991.09 279.45
  Q 995.66 292.24 995.30 305.49
  A 0.31 0.30 -88.9 0 1 995.00 305.79
  L 910.42 305.67
  A 0.60 0.59 87.4 0 0 909.83 306.32
  C 911.67 326.80 938.83 331.95 953.98 326.49
  Q 963.84 322.95 971.25 316.11
  A 0.52 0.51 45.5 0 1 971.95 316.12
  L 989.20 332.59
  Z
  M 911.36 286.78
  L 962.85 286.79
  A 0.39 0.39 0.0 0 0 963.24 286.33
  C 961.50 276.45 952.73 270.47 943.22 268.77
  C 929.54 266.31 915.00 272.04 910.79 286.02
  A 0.59 0.59 0.0 0 0 911.36 286.78
  Z"
/>
<path fill="#0e0705" d="
  M 519.60 338.66
  A 0.31 0.31 0.0 0 0 519.05 338.46
  Q 516.68 341.19 515.71 342.25
  C 504.93 353.89 487.86 356.59 473.19 352.05
  C 453.05 345.81 448.71 322.33 448.71 304.25
  Q 448.70 268.77 448.68 245.97
  A 0.67 0.67 0.0 0 1 449.34 245.30
  L 479.49 245.28
  A 0.35 0.34 -0.0 0 1 479.84 245.62
  Q 479.79 253.13 479.86 304.25
  C 479.88 314.16 483.79 325.84 494.85 327.76
  C 512.36 330.81 519.46 317.78 519.56 302.73
  Q 519.58 296.67 519.55 245.73
  A 0.45 0.45 0.0 0 1 520.00 245.28
  L 550.29 245.26
  A 0.40 0.39 -0.0 0 1 550.69 245.65
  L 550.75 351.39
  A 0.34 0.34 0.0 0 1 550.41 351.73
  L 520.12 351.75
  A 0.52 0.52 0.0 0 1 519.60 351.23
  L 519.60 338.66
  Z"
/>
<path fill="#0e0705" d="
  M 743.36 338.48
  Q 740.99 341.21 740.02 342.26
  C 729.23 353.90 712.16 356.59 697.49 352.04
  C 677.35 345.79 673.02 322.30 673.03 304.22
  Q 673.04 268.73 673.03 245.93
  A 0.67 0.67 0.0 0 1 673.70 245.26
  L 703.85 245.26
  A 0.35 0.34 -0.0 0 1 704.20 245.60
  Q 704.15 253.11 704.19 304.24
  C 704.20 314.15 708.10 325.83 719.17 327.76
  C 736.68 330.82 743.79 317.79 743.89 302.74
  Q 743.92 296.68 743.92 245.73
  A 0.45 0.45 0.0 0 1 744.37 245.28
  L 774.66 245.28
  A 0.40 0.39 0.0 0 1 775.06 245.67
  L 775.06 351.43
  A 0.34 0.34 0.0 0 1 774.72 351.77
  L 744.43 351.77
  A 0.52 0.52 0.0 0 1 743.91 351.25
  L 743.91 338.68
  A 0.31 0.31 0.0 0 0 743.36 338.48
  Z"
/>
<ellipse fill="#0e0705" cx="0.00" cy="0.00" transform="translate(1221.07,409.54) rotate(-179.9)" rx="19.89" ry="17.70"/>
<path fill="#0e0705" d="
  M 1146.48 411.46
  A 0.73 0.73 0.0 0 1 1147.21 412.19
  L 1147.20 437.16
  A 0.37 0.37 0.0 0 0 1147.57 437.53
  L 1176.02 437.54
  A 0.52 0.52 0.0 0 1 1176.54 438.06
  L 1176.53 461.41
  A 0.63 0.63 0.0 0 1 1175.90 462.04
  L 1147.85 462.03
  A 0.65 0.65 0.0 0 0 1147.20 462.68
  Q 1147.21 492.13 1147.17 510.59
  C 1147.17 515.03 1147.92 518.99 1152.21 520.48
  C 1157.40 522.28 1162.15 518.73 1162.61 513.55
  Q 1162.94 509.79 1162.72 502.25
  A 0.45 0.45 0.0 0 1 1163.17 501.78
  L 1187.87 501.79
  A 0.61 0.61 0.0 0 1 1188.48 502.36
  Q 1188.76 506.65 1188.41 516.55
  C 1187.39 545.93 1154.05 551.73 1132.68 542.57
  Q 1125.81 539.63 1121.10 531.79
  C 1116.73 524.51 1115.97 515.93 1116.00 506.53
  Q 1116.04 482.77 1116.01 462.64
  A 0.62 0.61 -90.0 0 0 1115.40 462.02
  L 1100.54 462.01
  A 0.51 0.50 0.0 0 1 1100.03 461.51
  L 1100.04 437.90
  A 0.46 0.46 0.0 0 1 1100.34 437.47
  Q 1107.25 434.92 1113.86 430.32
  C 1119.38 426.49 1122.13 418.58 1122.98 412.13
  A 0.78 0.77 3.3 0 1 1123.75 411.45
  L 1146.48 411.46
  Z"
/>
<path fill="#0e0705" d="
  M 443.71 529.96
  A 0.30 0.30 0.0 0 0 443.17 529.80
  C 433.12 544.31 418.23 548.57 401.06 545.90
  C 379.98 542.63 365.29 527.22 360.33 506.57
  C 356.81 491.91 358.21 474.36 365.40 461.01
  Q 376.48 440.46 399.73 436.32
  C 416.47 433.34 432.39 438.16 443.21 451.27
  A 0.31 0.31 0.0 0 0 443.76 451.08
  L 443.76 438.26
  A 0.51 0.50 -90.0 0 1 444.26 437.75
  L 474.42 437.75
  A 0.32 0.31 90.0 0 1 474.73 438.07
  Q 474.84 501.31 474.66 540.73
  Q 474.58 558.18 465.59 572.33
  C 457.80 584.58 443.94 592.04 429.24 594.21
  Q 409.97 597.05 389.65 591.82
  Q 376.96 588.55 366.76 580.59
  A 0.39 0.38 -58.6 0 1 366.65 580.11
  L 378.64 556.53
  A 0.43 0.42 -58.1 0 1 379.27 556.38
  Q 393.08 566.82 410.21 568.25
  Q 412.10 568.41 419.19 567.61
  Q 427.26 566.70 433.17 562.90
  C 444.82 555.38 443.96 542.01 443.71 529.96
  Z
  M 414.42 460.96
  C 397.04 462.51 388.30 477.17 389.76 493.56
  C 391.22 509.94 402.42 522.83 419.79 521.28
  C 437.17 519.73 445.92 505.07 444.46 488.68
  C 443.00 472.30 431.79 459.41 414.42 460.96
  Z"
/>
<path fill="#0e0705" d="
  M 606.19 525.08
  A 0.67 0.65 43.8 0 1 606.22 526.01
  Q 592.83 540.21 574.26 544.50
  C 539.77 552.46 500.25 537.97 496.14 498.25
  C 493.06 468.56 511.37 442.78 540.96 436.86
  C 569.61 431.12 597.83 443.76 607.98 471.95
  Q 612.58 484.72 612.24 497.98
  A 0.31 0.30 -89.0 0 1 611.94 498.28
  L 527.36 498.30
  A 0.60 0.59 87.3 0 0 526.77 498.95
  C 528.65 519.43 555.82 524.53 570.96 519.05
  Q 580.81 515.49 588.21 508.63
  A 0.52 0.51 45.4 0 1 588.91 508.64
  L 606.19 525.08
  Z
  M 528.20 479.48
  L 579.86 479.52
  A 0.39 0.39 0.0 0 0 580.25 479.06
  C 578.51 469.14 569.72 463.14 560.18 461.42
  C 546.45 458.95 531.86 464.69 527.63 478.71
  A 0.59 0.59 0.0 0 0 528.20 479.48
  Z"
/>
<path fill="#0e0705" d="
  M 662.20 450.85
  A 0.31 0.31 0.0 0 0 662.76 451.05
  Q 665.13 448.32 666.10 447.26
  C 676.89 435.61 693.98 432.91 708.66 437.46
  C 728.83 443.70 733.17 467.21 733.17 485.31
  Q 733.18 520.84 733.20 543.66
  A 0.67 0.67 0.0 0 1 732.53 544.33
  L 702.35 544.34
  A 0.35 0.34 -0.0 0 1 702.00 544.00
  Q 702.04 536.49 701.98 485.31
  C 701.96 475.39 698.06 463.70 686.97 461.77
  C 669.45 458.71 662.33 471.76 662.24 486.82
  Q 662.21 492.89 662.24 543.89
  A 0.45 0.45 0.0 0 1 661.79 544.34
  L 631.47 544.36
  A 0.40 0.39 -0.0 0 1 631.07 543.97
  L 631.02 438.10
  A 0.34 0.34 0.0 0 1 631.36 437.76
  L 661.68 437.75
  A 0.52 0.52 0.0 0 1 662.20 438.27
  L 662.20 450.85
  Z"
/>
<path fill="#0e0705" d="
  M 863.00 525.09
  A 0.67 0.65 43.8 0 1 863.03 526.02
  Q 849.64 540.22 831.07 544.50
  C 796.58 552.45 757.07 537.95 752.97 498.23
  C 749.90 468.54 768.21 442.77 797.80 436.86
  C 826.45 431.13 854.67 443.77 864.81 471.96
  Q 869.40 484.74 869.06 497.99
  A 0.31 0.30 -89.0 0 1 868.76 498.29
  L 784.19 498.29
  A 0.60 0.59 87.4 0 0 783.60 498.94
  C 785.47 519.42 812.64 524.53 827.78 519.05
  Q 837.63 515.49 845.03 508.64
  A 0.52 0.51 45.4 0 1 845.73 508.65
  L 863.00 525.09
  Z
  M 785.02 479.50
  L 836.69 479.50
  A 0.39 0.39 0.0 0 0 837.08 479.04
  C 835.33 469.12 826.53 463.13 816.99 461.42
  C 803.26 458.96 788.67 464.72 784.45 478.74
  A 0.59 0.59 0.0 0 0 785.02 479.50
  Z"
/>
<path fill="#0e0705" d="
  M 918.25 457.85
  A 0.27 0.26 -37.1 0 0 918.77 457.92
  C 923.56 441.32 938.78 432.94 955.10 436.27
  A 0.46 0.46 0.0 0 1 955.48 436.72
  L 955.43 466.59
  A 0.46 0.46 0.0 0 1 954.87 467.04
  C 943.76 464.61 931.74 464.48 923.94 473.05
  C 920.04 477.36 919.08 482.16 919.08 488.44
  Q 919.08 524.12 919.04 543.97
  A 0.32 0.31 -89.9 0 1 918.73 544.29
  L 888.29 544.25
  A 0.39 0.39 0.0 0 1 887.90 543.86
  L 888.05 438.07
  A 0.32 0.32 0.0 0 1 888.37 437.75
  L 917.69 437.79
  A 0.59 0.59 0.0 0 1 918.28 438.38
  L 918.25 457.85
  Z"
/>
<path fill="#0e0705" d="
  M 1050.25 451.00
  L 1050.25 438.23
  A 0.47 0.47 0.0 0 1 1050.72 437.76
  L 1081.20 437.76
  A 0.32 0.32 0.0 0 1 1081.52 438.08
  L 1081.52 543.74
  A 0.51 0.51 0.0 0 1 1081.01 544.25
  L 1050.67 544.25
  A 0.42 0.41 0.0 0 1 1050.25 543.84
  L 1050.25 530.13
  A 0.24 0.24 0.0 0 0 1049.82 529.98
  Q 1047.21 533.22 1045.39 535.11
  Q 1035.89 544.95 1022.65 546.30
  C 983.49 550.29 960.79 517.41 965.73 480.91
  C 969.27 454.75 987.00 436.59 1014.21 435.54
  Q 1035.41 434.72 1049.76 451.18
  A 0.28 0.28 0.0 0 0 1050.25 451.00
  Z
  M 1020.87 460.96
  C 1003.50 462.57 994.81 477.26 996.32 493.64
  C 997.84 510.02 1009.09 522.86 1026.45 521.25
  C 1043.82 519.64 1052.51 504.95 1051.00 488.57
  C 1049.48 472.19 1038.23 459.35 1020.87 460.96
  Z"
/>
<path fill="#0e0705" d="
  M 1315.97 435.50
  C 1347.73 435.51 1374.52 458.33 1374.51 491.09
  C 1374.50 523.85 1347.68 546.65 1315.92 546.63
  C 1284.15 546.62 1257.36 523.80 1257.37 491.04
  C 1257.39 458.28 1284.20 435.49 1315.97 435.50
  Z
  M 1315.5483 462.2928
  A 28.77 28.28 -90.8 0 0 1287.6728 491.4549
  A 28.77 28.28 -90.8 0 0 1316.3517 519.8272
  A 28.77 28.28 -90.8 0 0 1344.2272 490.6651
  A 28.77 28.28 -90.8 0 0 1315.5483 462.2928
  Z"
/>
<path fill="#0e0705" d="
  M 1426.34 450.86
  A 0.31 0.31 0.0 0 0 1426.89 451.06
  Q 1429.26 448.33 1430.23 447.28
  C 1441.02 435.63 1458.09 432.95 1472.77 437.50
  C 1492.91 443.75 1497.24 467.24 1497.23 485.33
  Q 1497.21 520.82 1497.22 543.62
  A 0.67 0.67 0.0 0 1 1496.55 544.29
  L 1466.40 544.29
  A 0.35 0.34 0.0 0 1 1466.05 543.95
  Q 1466.10 536.44 1466.06 485.30
  C 1466.05 475.39 1462.15 463.71 1451.08 461.78
  C 1433.57 458.72 1426.46 471.75 1426.36 486.80
  Q 1426.33 492.86 1426.32 543.82
  A 0.45 0.45 0.0 0 1 1425.87 544.27
  L 1395.58 544.27
  A 0.40 0.39 0.0 0 1 1395.18 543.88
  L 1395.19 438.10
  A 0.34 0.34 0.0 0 1 1395.53 437.76
  L 1425.82 437.76
  A 0.52 0.52 0.0 0 1 1426.34 438.28
  L 1426.34 450.86
  Z"
/>
<path fill="#0e0705" d="
  M 1537.74 507.14
  C 1541.71 519.54 1553.77 524.58 1565.62 521.87
  C 1569.45 520.99 1574.86 518.12 1573.53 513.26
  Q 1572.51 509.53 1569.12 508.07
  Q 1550.77 500.20 1544.32 497.67
  C 1532.44 492.99 1521.54 483.72 1520.76 470.14
  C 1519.27 444.24 1544.05 434.20 1566.27 435.61
  C 1581.58 436.58 1593.42 443.66 1600.69 457.50
  A 0.65 0.64 -25.8 0 1 1600.38 458.38
  L 1577.53 468.91
  A 0.62 0.61 -23.3 0 1 1576.71 468.59
  Q 1572.59 458.60 1560.92 459.03
  Q 1556.96 459.18 1553.64 461.46
  C 1550.11 463.89 1548.80 468.32 1551.80 471.70
  Q 1553.76 473.90 1557.17 475.32
  Q 1569.21 480.31 1581.03 484.48
  C 1595.67 489.65 1604.85 501.48 1603.15 517.48
  C 1600.48 542.49 1570.79 548.70 1550.51 546.07
  C 1533.96 543.93 1520.27 535.70 1515.10 519.62
  A 0.30 0.30 0.0 0 1 1515.24 519.27
  L 1536.84 506.80
  A 0.62 0.61 -23.9 0 1 1537.74 507.14
  Z"
/>
<rect fill="#0e0705" x="1205.25" y="437.75" width="31.00" height="106.50" rx="0.39"/>
</svg>
