<?xml version="1.0" encoding="UTF-8" standalone="no"?>
<!DOCTYPE svg PUBLIC "-//W3C//DTD SVG 1.1//EN" "http://www.w3.org/Graphics/SVG/1.1/DTD/svg11.dtd">
<svg xmlns="http://www.w3.org/2000/svg" version="1.1" viewBox="0.00 0.00 426.00 242.00">
<g stroke-width="2.00" fill="none" stroke-linecap="butt">
<path stroke="#c6828e" vector-effect="non-scaling-stroke" d="
  M 176.59 37.79
  Q 210.27 49.81 238.32 73.86
  A 0.53 0.52 62.7 0 1 238.03 74.78
  Q 232.85 75.27 227.27 77.83
  A 0.30 0.30 0.0 0 0 227.27 78.38
  L 231.67 80.40
  A 3.22 2.87 59.5 0 0 232.20 80.57
  L 243.28 82.84
  A 2.66 2.66 0.0 0 1 245.37 85.06
  Q 246.57 93.03 249.81 99.15
  A 0.42 0.41 -43.3 0 0 250.53 99.17
  Q 253.20 94.80 254.05 89.16
  A 0.32 0.32 0.0 0 1 254.59 88.98
  Q 283.76 117.96 298.77 155.02
  C 301.33 161.33 306.99 174.08 309.38 184.86
  Q 308.30 171.73 307.56 166.79
  Q 306.34 158.64 303.91 151.35
  Q 292.89 118.39 271.26 92.50
  Q 267.94 88.52 262.39 82.55
  A 0.41 0.41 0.0 0 1 262.60 81.87
  L 269.34 80.39
  A 1.98 1.72 22.3 0 0 269.81 80.23
  L 273.64 78.31
  A 0.24 0.24 0.0 0 0 273.63 77.87
  Q 267.03 75.01 258.50 74.04
  C 256.50 73.82 255.25 72.94 254.85 70.79
  C 253.95 65.89 253.02 60.69 250.28 56.80
  A 0.26 0.26 0.0 0 0 249.84 56.82
  Q 247.05 61.72 246.31 67.06
  A 0.43 0.43 0.0 0 1 245.61 67.34
  Q 215.80 43.19 178.57 33.67"
/>
<path stroke="#fac0cc" vector-effect="non-scaling-stroke" d="
  M 178.57 33.67
  Q 166.98 30.53 154.79 30.77
  A 0.10 0.10 0.0 0 0 154.76 30.97
  L 176.59 37.79"
/>
<path stroke="#c0435a" vector-effect="non-scaling-stroke" d="
  M 178.57 33.67
  L 176.59 37.79"
/>
<path stroke="#c6828e" vector-effect="non-scaling-stroke" d="
  M 180.54 136.88
  A 0.49 0.49 0.0 0 0 180.05 136.39
  L 134.52 136.39
  A 0.49 0.49 0.0 0 0 134.03 136.88
  L 134.03 206.06
  A 0.49 0.49 0.0 0 0 134.52 206.55
  L 180.05 206.55
  A 0.49 0.49 0.0 0 0 180.54 206.06
  L 180.54 196.81
  A 0.49 0.49 0.0 0 0 180.05 196.32
  L 144.92 196.32
  A 0.49 0.49 0.0 0 1 144.43 195.83
  L 144.43 179.44
  A 0.49 0.49 0.0 0 1 144.92 178.95
  L 173.97 178.95
  A 0.49 0.49 0.0 0 0 174.46 178.46
  L 174.46 169.15
  A 0.49 0.49 0.0 0 0 173.97 168.66
  L 144.91 168.66
  A 0.49 0.49 0.0 0 1 144.42 168.17
  L 144.42 146.98
  A 0.49 0.49 0.0 0 1 144.91 146.49
  L 180.05 146.49
  A 0.49 0.49 0.0 0 0 180.54 146.00
  L 180.54 136.88"
/>
<path stroke="#c6828e" vector-effect="non-scaling-stroke" d="
  M 240.79 205.73
  L 227.25 178.67
  A 0.54 0.54 0.0 0 1 227.47 177.96
  Q 228.11 177.61 230.61 176.60
  C 240.34 172.67 243.45 162.58 241.79 152.53
  C 240.46 144.41 234.64 138.99 226.90 137.09
  Q 223.80 136.32 217.53 136.34
  Q 209.87 136.37 189.37 136.39
  A 0.37 0.36 0.0 0 0 189.00 136.75
  L 189.00 205.90
  A 0.64 0.64 0.0 0 0 189.64 206.54
  L 198.77 206.54
  A 0.53 0.53 0.0 0 0 199.30 206.01
  L 199.30 179.30
  A 0.51 0.51 0.0 0 1 199.81 178.79
  L 214.57 178.79
  A 0.87 0.87 0.0 0 1 215.35 179.27
  L 228.81 206.18
  A 0.66 0.64 -13.4 0 0 229.39 206.53
  L 240.29 206.53
  A 0.56 0.55 -13.2 0 0 240.79 205.73"
/>
<path stroke="#e18293" vector-effect="non-scaling-stroke" d="
  M 283.02 170.76
  A 0.45 0.45 0.0 0 0 282.92 169.92
  Q 277.20 168.54 270.84 168.79
  A 0.65 0.64 8.5 0 1 270.20 167.93
  L 281.32 136.99
  A 0.38 0.38 0.0 0 0 280.96 136.48
  L 271.22 136.48
  A 0.20 0.20 0.0 0 0 271.03 136.61
  L 246.14 205.87
  A 0.51 0.51 0.0 0 0 246.62 206.55
  L 255.91 206.55
  A 1.14 1.13 9.9 0 0 256.98 205.80
  L 266.69 178.76
  A 0.77 0.76 11.2 0 1 267.45 178.26
  C 272.67 178.48 278.38 178.65 283.00 176.64
  A 0.80 0.80 0.0 0 0 282.95 175.16
  L 281.01 174.46
  A 1.42 1.42 0.0 0 1 280.85 171.85
  L 283.02 170.76"
/>
<path stroke="#c6828e" vector-effect="non-scaling-stroke" d="
  M 199.28 147.02
  L 199.32 168.12
  A 0.69 0.69 0.0 0 0 200.01 168.81
  L 220.66 168.77
  A 10.96 10.41 -0.1 0 0 231.60 158.34
  L 231.60 156.68
  A 10.96 10.41 -0.1 0 0 220.62 146.29
  L 199.97 146.33
  A 0.69 0.69 0.0 0 0 199.28 147.02"
/>
</g>
<path fill="#ffffff" d="
  M 426.00 0.00
  L 426.00 242.00
  L 0.00 242.00
  L 0.00 0.00
  L 426.00 0.00
  Z
  M 176.59 37.79
  Q 210.27 49.81 238.32 73.86
  A 0.53 0.52 62.7 0 1 238.03 74.78
  Q 232.85 75.27 227.27 77.83
  A 0.30 0.30 0.0 0 0 227.27 78.38
  L 231.67 80.40
  A 3.22 2.87 59.5 0 0 232.20 80.57
  L 243.28 82.84
  A 2.66 2.66 0.0 0 1 245.37 85.06
  Q 246.57 93.03 249.81 99.15
  A 0.42 0.41 -43.3 0 0 250.53 99.17
  Q 253.20 94.80 254.05 89.16
  A 0.32 0.32 0.0 0 1 254.59 88.98
  Q 283.76 117.96 298.77 155.02
  C 301.33 161.33 306.99 174.08 309.38 184.86
  Q 308.30 171.73 307.56 166.79
  Q 306.34 158.64 303.91 151.35
  Q 292.89 118.39 271.26 92.50
  Q 267.94 88.52 262.39 82.55
  A 0.41 0.41 0.0 0 1 262.60 81.87
  L 269.34 80.39
  A 1.98 1.72 22.3 0 0 269.81 80.23
  L 273.64 78.31
  A 0.24 0.24 0.0 0 0 273.63 77.87
  Q 267.03 75.01 258.50 74.04
  C 256.50 73.82 255.25 72.94 254.85 70.79
  C 253.95 65.89 253.02 60.69 250.28 56.80
  A 0.26 0.26 0.0 0 0 249.84 56.82
  Q 247.05 61.72 246.31 67.06
  A 0.43 0.43 0.0 0 1 245.61 67.34
  Q 215.80 43.19 178.57 33.67
  Q 166.98 30.53 154.79 30.77
  A 0.10 0.10 0.0 0 0 154.76 30.97
  L 176.59 37.79
  Z
  M 180.54 136.88
  A 0.49 0.49 0.0 0 0 180.05 136.39
  L 134.52 136.39
  A 0.49 0.49 0.0 0 0 134.03 136.88
  L 134.03 206.06
  A 0.49 0.49 0.0 0 0 134.52 206.55
  L 180.05 206.55
  A 0.49 0.49 0.0 0 0 180.54 206.06
  L 180.54 196.81
  A 0.49 0.49 0.0 0 0 180.05 196.32
  L 144.92 196.32
  A 0.49 0.49 0.0 0 1 144.43 195.83
  L 144.43 179.44
  A 0.49 0.49 0.0 0 1 144.92 178.95
  L 173.97 178.95
  A 0.49 0.49 0.0 0 0 174.46 178.46
  L 174.46 169.15
  A 0.49 0.49 0.0 0 0 173.97 168.66
  L 144.91 168.66
  A 0.49 0.49 0.0 0 1 144.42 168.17
  L 144.42 146.98
  A 0.49 0.49 0.0 0 1 144.91 146.49
  L 180.05 146.49
  A 0.49 0.49 0.0 0 0 180.54 146.00
  L 180.54 136.88
  Z
  M 240.79 205.73
  L 227.25 178.67
  A 0.54 0.54 0.0 0 1 227.47 177.96
  Q 228.11 177.61 230.61 176.60
  C 240.34 172.67 243.45 162.58 241.79 152.53
  C 240.46 144.41 234.64 138.99 226.90 137.09
  Q 223.80 136.32 217.53 136.34
  Q 209.87 136.37 189.37 136.39
  A 0.37 0.36 0.0 0 0 189.00 136.75
  L 189.00 205.90
  A 0.64 0.64 0.0 0 0 189.64 206.54
  L 198.77 206.54
  A 0.53 0.53 0.0 0 0 199.30 206.01
  L 199.30 179.30
  A 0.51 0.51 0.0 0 1 199.81 178.79
  L 214.57 178.79
  A 0.87 0.87 0.0 0 1 215.35 179.27
  L 228.81 206.18
  A 0.66 0.64 -13.4 0 0 229.39 206.53
  L 240.29 206.53
  A 0.56 0.55 -13.2 0 0 240.79 205.73
  Z
  M 283.02 170.76
  A 0.45 0.45 0.0 0 0 282.92 169.92
  Q 277.20 168.54 270.84 168.79
  A 0.65 0.64 8.5 0 1 270.20 167.93
  L 281.32 136.99
  A 0.38 0.38 0.0 0 0 280.96 136.48
  L 271.22 136.48
  A 0.20 0.20 0.0 0 0 271.03 136.61
  L 246.14 205.87
  A 0.51 0.51 0.0 0 0 246.62 206.55
  L 255.91 206.55
  A 1.14 1.13 9.9 0 0 256.98 205.80
  L 266.69 178.76
  A 0.77 0.76 11.2 0 1 267.45 178.26
  C 272.67 178.48 278.38 178.65 283.00 176.64
  A 0.80 0.80 0.0 0 0 282.95 175.16
  L 281.01 174.46
  A 1.42 1.42 0.0 0 1 280.85 171.85
  L 283.02 170.76
  Z"
/>
<path fill="#f48198" d="
  M 178.57 33.67
  L 176.59 37.79
  L 154.76 30.97
  A 0.10 0.10 0.0 0 1 154.79 30.77
  Q 166.98 30.53 178.57 33.67
  Z"
/>
<path fill="#8c051c" d="
  M 178.57 33.67
  Q 215.80 43.19 245.61 67.34
  A 0.43 0.43 0.0 0 0 246.31 67.06
  Q 247.05 61.72 249.84 56.82
  A 0.26 0.26 0.0 0 1 250.28 56.80
  C 253.02 60.69 253.95 65.89 254.85 70.79
  C 255.25 72.94 256.50 73.82 258.50 74.04
  Q 267.03 75.01 273.63 77.87
  A 0.24 0.24 0.0 0 1 273.64 78.31
  L 269.81 80.23
  A 1.98 1.72 22.3 0 1 269.34 80.39
  L 262.60 81.87
  A 0.41 0.41 0.0 0 0 262.39 82.55
  Q 267.94 88.52 271.26 92.50
  Q 292.89 118.39 303.91 151.35
  Q 306.34 158.64 307.56 166.79
  Q 308.30 171.73 309.38 184.86
  C 306.99 174.08 301.33 161.33 298.77 155.02
  Q 283.76 117.96 254.59 88.98
  A 0.32 0.32 0.0 0 0 254.05 89.16
  Q 253.20 94.80 250.53 99.17
  A 0.42 0.41 -43.3 0 1 249.81 99.15
  Q 246.57 93.03 245.37 85.06
  A 2.66 2.66 0.0 0 0 243.28 82.84
  L 232.20 80.57
  A 3.22 2.87 59.5 0 1 231.67 80.40
  L 227.27 78.38
  A 0.30 0.30 0.0 0 1 227.27 77.83
  Q 232.85 75.27 238.03 74.78
  A 0.53 0.52 62.7 0 0 238.32 73.86
  Q 210.27 49.81 176.59 37.79
  L 178.57 33.67
  Z"
/>
<path fill="#8c051c" d="
  M 180.54 136.88
  L 180.54 146.00
  A 0.49 0.49 0.0 0 1 180.05 146.49
  L 144.91 146.49
  A 0.49 0.49 0.0 0 0 144.42 146.98
  L 144.42 168.17
  A 0.49 0.49 0.0 0 0 144.91 168.66
  L 173.97 168.66
  A 0.49 0.49 0.0 0 1 174.46 169.15
  L 174.46 178.46
  A 0.49 0.49 0.0 0 1 173.97 178.95
  L 144.92 178.95
  A 0.49 0.49 0.0 0 0 144.43 179.44
  L 144.43 195.83
  A 0.49 0.49 0.0 0 0 144.92 196.32
  L 180.05 196.32
  A 0.49 0.49 0.0 0 1 180.54 196.81
  L 180.54 206.06
  A 0.49 0.49 0.0 0 1 180.05 206.55
  L 134.52 206.55
  A 0.49 0.49 0.0 0 1 134.03 206.06
  L 134.03 136.88
  A 0.49 0.49 0.0 0 1 134.52 136.39
  L 180.05 136.39
  A 0.49 0.49 0.0 0 1 180.54 136.88
  Z"
/>
<path fill="#8c051c" d="
  M 240.29 206.53
  L 229.39 206.53
  A 0.66 0.64 -13.4 0 1 228.81 206.18
  L 215.35 179.27
  A 0.87 0.87 0.0 0 0 214.57 178.79
  L 199.81 178.79
  A 0.51 0.51 0.0 0 0 199.30 179.30
  L 199.30 206.01
  A 0.53 0.53 0.0 0 1 198.77 206.54
  L 189.64 206.54
  A 0.64 0.64 0.0 0 1 189.00 205.90
  L 189.00 136.75
  A 0.37 0.36 0.0 0 1 189.37 136.39
  Q 209.87 136.37 217.53 136.34
  Q 223.80 136.32 226.90 137.09
  C 234.64 138.99 240.46 144.41 241.79 152.53
  C 243.45 162.58 240.34 172.67 230.61 176.60
  Q 228.11 177.61 227.47 177.96
  A 0.54 0.54 0.0 0 0 227.25 178.67
  L 240.79 205.73
  A 0.56 0.55 -13.2 0 1 240.29 206.53
  Z
  M 199.28 147.02
  L 199.32 168.12
  A 0.69 0.69 0.0 0 0 200.01 168.81
  L 220.66 168.77
  A 10.96 10.41 -0.1 0 0 231.60 158.34
  L 231.60 156.68
  A 10.96 10.41 -0.1 0 0 220.62 146.29
  L 199.97 146.33
  A 0.69 0.69 0.0 0 0 199.28 147.02
  Z"
/>
<path fill="#c20427" d="
  M 283.02 170.76
  L 280.85 171.85
  A 1.42 1.42 0.0 0 0 281.01 174.46
  L 282.95 175.16
  A 0.80 0.80 0.0 0 1 283.00 176.64
  C 278.38 178.65 272.67 178.48 267.45 178.26
  A 0.77 0.76 11.2 0 0 266.69 178.76
  L 256.98 205.80
  A 1.14 1.13 9.9 0 1 255.91 206.55
  L 246.62 206.55
  A 0.51 0.51 0.0 0 1 246.14 205.87
  L 271.03 136.61
  A 0.20 0.20 0.0 0 1 271.22 136.48
  L 280.96 136.48
  A 0.38 0.38 0.0 0 1 281.32 136.99
  L 270.20 167.93
  A 0.65 0.64 8.5 0 0 270.84 168.79
  Q 277.20 168.54 282.92 169.92
  A 0.45 0.45 0.0 0 1 283.02 170.76
  Z"
/>
<path fill="#ffffff" d="
  M 199.28 147.02
  A 0.69 0.69 0.0 0 1 199.97 146.33
  L 220.62 146.29
  A 10.96 10.41 -0.1 0 1 231.60 156.68
  L 231.60 158.34
  A 10.96 10.41 -0.1 0 1 220.66 168.77
  L 200.01 168.81
  A 0.69 0.69 0.0 0 1 199.32 168.12
  L 199.28 147.02
  Z"
/>
</svg>
