<svg xmlns="http://www.w3.org/2000/svg" viewBox="0 0 32 32">
  <!-- Blue gradient background circle -->
  <defs>
    <linearGradient id="bgGradient" x1="0%" y1="0%" x2="100%" y2="100%">
      <stop offset="0%" style="stop-color:#3498DB;stop-opacity:0.1" />
      <stop offset="100%" style="stop-color:#2980B9;stop-opacity:0.1" />
    </linearGradient>
  </defs>
  <circle cx="16" cy="16" r="15" fill="url(#bgGradient)"/>
  
  <!-- Center node -->
  <circle cx="16" cy="16" r="4" fill="white" stroke="#3498DB" stroke-width="0.5"/>
  
  <!-- Connections drawn FIRST so they go under the balls -->
  <!-- All lines same length, from radius 4.3 to radius 6.5 -->
  <line x1="16" y1="11.7" x2="16" y2="9.5" stroke="#3498DB" stroke-width="0.8" opacity="0.4"/>
  <line x1="19.75" y1="13.85" x2="21.45" y2="12.875" stroke="#3498DB" stroke-width="0.8" opacity="0.4"/>
  <line x1="19.75" y1="18.15" x2="21.45" y2="19.125" stroke="#3498DB" stroke-width="0.8" opacity="0.4"/>
  <line x1="16" y1="20.3" x2="16" y2="22.5" stroke="#3498DB" stroke-width="0.8" opacity="0.4"/>
  <line x1="12.25" y1="18.15" x2="10.55" y2="19.125" stroke="#3498DB" stroke-width="0.8" opacity="0.4"/>
  <line x1="12.25" y1="13.85" x2="10.55" y2="12.875" stroke="#3498DB" stroke-width="0.8" opacity="0.4"/>
  
  <!-- Surrounding nodes drawn ON TOP of lines, at radius 6.5 -->
  <circle cx="16" cy="9.5" r="1.8" fill="#2980B9"/>
  <circle cx="21.625" cy="12.75" r="1.8" fill="#2980B9"/>
  <circle cx="21.625" cy="19.25" r="1.8" fill="#2980B9"/>
  <circle cx="16" cy="22.5" r="1.8" fill="#2980B9"/>
  <circle cx="10.375" cy="19.25" r="1.8" fill="#2980B9"/>
  <circle cx="10.375" cy="12.75" r="1.8" fill="#2980B9"/>
  
  <!-- Zurich flag triangle in center - fills bottom left completely -->
  <clipPath id="centerClip">
    <circle cx="16" cy="16" r="4"/>
  </clipPath>
  <g clip-path="url(#centerClip)">
    <path d="M 8 8 L 24 24 L 8 24 Z" fill="#3498DB"/>
  </g>
  
  <!-- Center circle outline -->
  <circle cx="16" cy="16" r="4" fill="none" stroke="#3498DB" stroke-width="0.8"/>
</svg>