<?xml version="1.0" encoding="UTF-8" standalone="no"?>
<!DOCTYPE svg PUBLIC "-//W3C//DTD SVG 1.1//EN" "http://www.w3.org/Graphics/SVG/1.1/DTD/svg11.dtd">
<svg xmlns="http://www.w3.org/2000/svg" version="1.1" viewBox="0.00 0.00 1920.00 1311.00">
<g stroke-width="2.00" fill="none" stroke-linecap="butt">
<path stroke="#f69144" vector-effect="non-scaling-stroke" d="
  M 1168.86 362.86
  Q 1124.16 342.25 1080.24 320.22"
/>
<path stroke="#f16c3f" vector-effect="non-scaling-stroke" d="
  M 1083.01 569.70
  L 1016.81 537.50"
/>
<path stroke="#ac3729" vector-effect="non-scaling-stroke" d="
  M 1091.37 588.59
  Q 1098.78 599.57 1101.12 602.13
  C 1123.54 626.69 1158.55 630.96 1189.21 622.66
  Q 1206.80 617.90 1223.04 608.98"
/>
<path stroke="#952c22" vector-effect="non-scaling-stroke" d="
  M 1261.09 572.38
  C 1233.19 561.93 1205.60 551.07 1177.24 541.72"
/>
<path stroke="#d74a35" vector-effect="non-scaling-stroke" d="
  M 1284.36 535.53
  L 1196.84 501.41"
/>
</g>
<path fill="#181c29" d="
  M 266.65 0.00
  Q 271.44 0.61 276.23 1.18
  Q 287.75 2.54 297.72 6.29
  C 312.04 11.69 325.82 23.61 330.22 37.95
  Q 332.47 45.28 332.01 54.69
  C 331.13 72.22 322.15 90.51 303.73 94.94
  Q 290.95 98.02 278.18 95.04
  C 268.89 92.88 259.86 86.70 253.23 80.26
  Q 243.86 71.17 236.24 59.25
  Q 227.94 46.25 221.97 36.94
  A 2.56 2.55 -19.9 0 0 219.50 35.79
  Q 202.31 38.01 191.41 51.13
  C 181.81 62.67 175.67 77.52 171.97 92.00
  Q 168.32 106.27 166.37 120.87
  Q 164.43 135.47 164.03 142.26
  Q 163.57 149.89 163.45 150.76
  C 162.50 157.64 162.88 163.21 162.34 171.76
  Q 161.98 177.53 161.97 184.25
  Q 161.92 206.38 161.93 239.67
  A 0.41 0.41 0.0 0 0 162.34 240.08
  L 269.34 240.08
  A 0.52 0.51 -90.0 0 1 269.85 240.60
  L 269.85 280.39
  A 0.61 0.60 -90.0 0 1 269.25 281.00
  L 162.29 281.00
  A 0.36 0.36 0.0 0 0 161.93 281.36
  Q 161.94 552.88 161.93 582.25
  C 161.92 599.63 168.63 613.55 185.84 619.68
  Q 191.65 621.75 197.49 623.03
  Q 208.85 625.52 222.84 627.01
  C 226.54 627.40 229.09 628.03 232.51 628.07
  C 235.47 628.10 237.54 628.49 241.47 629.03
  A 0.62 0.61 -86.3 0 1 242.00 629.64
  L 242.00 656.94
  A 0.30 0.30 0.0 0 1 241.70 657.24
  L 21.45 657.24
  A 0.38 0.37 0.0 0 1 21.07 656.87
  L 21.07 629.65
  A 0.61 0.60 -3.2 0 1 21.61 629.05
  Q 26.39 628.52 43.50 627.02
  Q 51.06 626.35 58.75 624.05
  Q 75.61 619.02 80.53 602.06
  Q 82.61 594.88 82.62 587.75
  Q 82.65 515.13 82.63 281.53
  A 0.58 0.58 0.0 0 0 82.05 280.95
  L 0.00 280.90
  L 0.00 240.13
  L 82.08 240.04
  A 0.61 0.61 0.0 0 0 82.69 239.42
  Q 82.35 210.85 83.37 190.78
  Q 83.85 181.44 86.11 165.78
  Q 89.44 142.76 97.44 120.16
  C 110.21 84.08 133.42 51.11 164.53 28.55
  Q 191.88 8.72 225.53 2.52
  Q 232.07 1.32 245.14 0.00
  L 266.65 0.00
  Z"
/>
<path fill="#f79f45" d="
  M 1168.86 362.86
  Q 1124.16 342.25 1080.24 320.22
  Q 1096.75 287.85 1113.23 255.47
  C 1133.62 215.43 1145.37 170.30 1142.97 125.50
  Q 1142.36 114.15 1140.09 103.33
  A 0.26 0.26 0.0 0 1 1140.51 103.08
  C 1181.62 140.21 1202.79 189.55 1202.97 244.41
  C 1203.04 265.84 1200.15 287.19 1194.31 307.60
  Q 1192.63 313.47 1188.77 321.53
  Q 1178.86 342.22 1168.86 362.86
  Z"
/>
<path fill="#181c29" d="
  M 847.24 140.93
  A 0.57 0.57 0.0 0 1 847.81 140.36
  L 918.64 140.36
  A 0.64 0.64 0.0 0 1 919.28 141.01
  Q 918.81 511.21 919.02 964.75
  Q 919.03 982.05 919.37 995.63
  Q 919.48 999.81 922.92 1008.87
  Q 924.45 1012.90 928.49 1020.49
  Q 932.18 1027.42 935.72 1031.09
  C 944.12 1039.80 954.82 1043.62 966.73 1045.12
  Q 977.03 1046.40 986.25 1045.95
  Q 1006.15 1044.97 1023.20 1042.70
  Q 1028.49 1042.00 1035.81 1039.97
  A 0.63 0.63 0.0 0 1 1036.60 1040.58
  L 1036.60 1067.52
  A 1.04 1.03 -11.7 0 1 1035.97 1068.47
  Q 1015.25 1077.05 993.44 1084.44
  Q 981.19 1088.59 969.22 1090.43
  Q 947.48 1093.76 925.74 1092.80
  C 911.98 1092.20 898.20 1089.65 885.62 1083.64
  C 863.20 1072.91 852.78 1049.01 849.08 1025.75
  Q 847.18 1013.85 847.18 1002.50
  Q 847.06 300.09 847.24 140.93
  Z"
/>
<path fill="#ee543b" d="
  M 1284.36 535.53
  L 1196.84 501.41
  Q 1213.85 466.58 1230.73 431.70
  Q 1244.68 402.88 1249.33 390.45
  C 1260.89 359.50 1267.46 327.27 1267.99 294.75
  Q 1268.13 286.05 1267.08 272.75
  Q 1264.96 245.80 1256.37 221.68
  A 0.09 0.09 0.0 0 1 1256.53 221.60
  Q 1265.46 234.56 1268.32 238.68
  Q 1283.90 261.15 1295.27 285.72
  Q 1334.36 370.22 1312.94 460.18
  Q 1303.82 498.51 1284.36 535.53
  Z"
/>
<path fill="#181c29" d="
  M 1540.11 714.77
  A 0.33 0.33 0.0 0 1 1540.44 715.10
  L 1540.44 751.46
  A 0.52 0.52 0.0 0 1 1539.92 751.98
  L 1442.99 751.98
  A 0.42 0.41 -0.0 0 0 1442.57 752.39
  Q 1442.54 1001.92 1442.61 1028.00
  Q 1442.62 1033.01 1444.32 1038.95
  Q 1448.41 1053.30 1463.05 1058.98
  C 1474.76 1063.53 1488.69 1065.09 1501.87 1066.66
  C 1506.08 1067.16 1510.65 1067.02 1514.81 1067.97
  A 0.74 0.73 -83.6 0 1 1515.38 1068.69
  L 1515.38 1093.29
  A 0.50 0.50 0.0 0 1 1514.88 1093.79
  L 1315.24 1093.79
  A 0.75 0.75 0.0 0 1 1314.49 1093.04
  L 1314.49 1068.65
  A 0.78 0.77 -2.4 0 1 1315.20 1067.88
  Q 1331.82 1066.44 1336.25 1065.99
  C 1349.66 1064.62 1362.35 1060.06 1367.51 1046.49
  Q 1370.33 1039.06 1370.33 1031.00
  Q 1370.38 804.72 1370.34 752.36
  A 0.39 0.38 -0.0 0 0 1369.95 751.98
  L 1295.62 751.98
  A 0.48 0.48 0.0 0 1 1295.14 751.50
  L 1295.14 715.22
  A 0.46 0.45 -0.0 0 1 1295.60 714.77
  L 1369.88 714.77
  A 0.48 0.48 0.0 0 0 1370.36 714.28
  Q 1370.15 696.45 1370.82 612.25
  Q 1371.08 579.38 1371.84 544.01
  Q 1372.43 516.94 1372.70 512.59
  C 1373.13 505.77 1372.86 497.66 1373.25 492.25
  Q 1373.67 486.52 1374.35 469.51
  Q 1375.39 443.70 1378.06 412.50
  Q 1379.83 391.81 1383.03 370.25
  Q 1385.65 352.61 1390.12 336.07
  C 1395.22 317.17 1402.83 301.90 1415.47 286.93
  C 1438.83 259.28 1467.93 240.79 1503.82 235.14
  Q 1517.88 232.93 1531.87 233.29
  Q 1546.59 233.66 1559.60 237.08
  C 1575.66 241.31 1590.60 252.62 1595.56 268.91
  Q 1597.33 274.71 1596.99 282.75
  C 1596.33 298.21 1588.42 315.17 1572.17 319.38
  Q 1557.16 323.27 1544.10 318.52
  C 1530.26 313.50 1518.74 300.85 1510.63 288.17
  Q 1510.10 287.35 1496.67 266.60
  A 1.43 1.43 0.0 0 0 1495.34 265.96
  Q 1481.21 267.25 1471.35 277.63
  C 1462.49 286.96 1456.45 299.97 1452.98 312.00
  C 1448.16 328.74 1445.83 345.74 1444.36 363.26
  Q 1442.57 384.75 1442.57 412.75
  Q 1442.60 593.86 1442.55 714.26
  A 0.51 0.50 90.0 0 0 1443.05 714.77
  L 1540.11 714.77
  Z"
/>
<path fill="#181c29" d="
  M 1658.85 435.78
  A 0.64 0.63 0.0 0 0 1658.21 436.41
  Q 1657.89 471.55 1665.44 504.34
  C 1671.32 529.87 1683.44 556.67 1702.68 574.93
  Q 1720.92 592.25 1744.28 599.66
  C 1760.17 604.71 1777.19 606.02 1794.19 605.04
  Q 1809.38 604.15 1823.73 599.15
  C 1842.04 592.78 1856.05 581.68 1868.19 566.87
  Q 1880.79 551.51 1891.50 531.94
  A 0.69 0.69 0.0 0 1 1892.47 531.69
  L 1918.77 547.87
  A 0.40 0.39 29.0 0 1 1918.92 548.39
  C 1893.87 596.75 1849.76 635.13 1795.48 644.89
  Q 1770.07 649.46 1743.45 647.00
  Q 1725.45 645.34 1711.83 641.94
  C 1671.93 631.97 1637.25 607.78 1614.95 573.08
  Q 1604.79 557.25 1598.44 541.08
  C 1585.27 507.54 1579.84 470.33 1581.22 435.03
  C 1582.91 392.33 1596.70 349.55 1621.86 314.71
  Q 1642.97 285.44 1674.64 267.26
  Q 1699.32 253.08 1727.49 248.60
  Q 1740.03 246.61 1752.77 246.52
  C 1780.24 246.31 1807.83 250.21 1832.51 262.45
  Q 1861.65 276.93 1879.12 301.15
  C 1898.78 328.43 1907.99 362.66 1909.41 395.66
  Q 1910.19 413.60 1909.79 435.16
  A 0.69 0.68 0.4 0 1 1909.10 435.83
  L 1658.85 435.78
  Z
  M 1658.16 402.78
  A 0.29 0.29 0.0 0 0 1658.45 403.08
  L 1833.15 403.08
  A 0.42 0.41 -0.7 0 0 1833.57 402.66
  Q 1833.42 380.60 1829.71 355.76
  Q 1826.84 336.57 1819.90 319.82
  Q 1814.95 307.90 1804.50 296.49
  Q 1789.28 279.87 1767.22 277.02
  Q 1721.30 271.10 1691.03 305.12
  C 1667.40 331.68 1659.32 368.15 1658.16 402.78
  Z"
/>
<path fill="#181c29" d="
  M 754.97 605.73
  L 754.97 630.20
  A 0.76 0.76 0.0 0 1 754.26 630.96
  L 630.89 639.18
  A 1.07 1.04 65.1 0 1 630.05 638.86
  L 625.07 633.89
  A 0.73 0.72 51.6 0 1 624.87 633.39
  L 624.87 586.88
  A 1.38 1.38 0.0 0 0 622.51 585.91
  C 612.86 595.72 602.64 606.45 593.11 613.95
  Q 575.97 627.42 554.32 637.10
  Q 544.43 641.51 535.52 643.77
  Q 528.03 645.68 513.24 646.87
  Q 511.48 647.01 496.28 647.30
  Q 482.01 647.56 468.26 644.47
  C 424.25 634.57 402.53 599.41 395.64 557.33
  Q 392.71 539.42 392.70 521.00
  Q 392.70 393.36 392.62 334.02
  Q 392.61 325.67 389.06 317.13
  C 383.50 303.74 370.69 293.98 356.52 290.96
  Q 344.39 288.38 332.97 287.76
  A 0.55 0.55 0.0 0 1 332.45 287.21
  L 332.45 262.51
  A 0.62 0.62 0.0 0 1 333.03 261.89
  L 459.04 252.72
  A 1.69 1.68 65.1 0 1 460.36 253.21
  L 465.21 258.06
  A 1.21 1.19 -67.8 0 1 465.56 258.91
  Q 465.54 497.47 465.57 522.00
  Q 465.58 527.89 465.98 534.75
  Q 466.86 550.24 472.15 564.38
  C 478.88 582.35 493.47 597.22 512.05 602.81
  Q 520.93 605.48 532.10 605.07
  Q 562.07 603.95 586.28 588.20
  Q 609.35 573.19 623.76 549.86
  A 1.99 1.93 61.5 0 0 624.05 548.83
  Q 623.97 354.83 624.09 343.89
  Q 624.26 328.01 622.58 321.71
  Q 619.10 308.67 608.35 298.66
  C 599.82 290.73 589.39 289.68 578.01 289.08
  C 567.78 288.54 562.13 287.89 552.96 287.85
  A 0.78 0.77 90.0 0 1 552.19 287.07
  L 552.19 262.46
  A 0.55 0.55 0.0 0 1 552.70 261.91
  L 690.32 252.74
  A 1.89 1.86 65.2 0 1 691.78 253.29
  L 696.44 257.95
  A 1.50 1.46 -68.1 0 1 696.87 259.00
  Q 696.89 442.75 696.85 547.18
  Q 696.84 566.51 697.76 570.56
  C 701.31 586.16 714.28 599.76 730.47 602.75
  Q 739.33 604.39 754.34 605.07
  A 0.66 0.66 0.0 0 1 754.97 605.73
  Z"
/>
<rect fill="#181c29" x="942.13" y="259.00" width="86.46" height="37.04" rx="0.36"/>
<path fill="#f48342" d="
  M 1168.86 362.86
  Q 1130.89 441.75 1092.91 520.64
  C 1085.47 536.11 1081.13 552.75 1083.01 569.70
  L 1016.81 537.50
  Q 1016.15 534.84 1015.47 531.89
  Q 1011.14 513.08 1012.08 494.00
  Q 1012.85 478.40 1016.17 462.93
  C 1022.11 435.23 1033.24 407.67 1047.50 383.03
  Q 1053.77 372.19 1057.90 364.09
  Q 1069.08 342.16 1080.24 320.22
  Q 1124.16 342.25 1168.86 362.86
  Z"
/>
<path fill="#bf3f2e" d="
  M 1196.84 501.41
  L 1284.36 535.53
  Q 1274.29 555.04 1261.09 572.38
  C 1233.19 561.93 1205.60 551.07 1177.24 541.72
  L 1196.84 501.41
  Z"
/>
<path fill="#ee543b" d="
  M 1083.01 569.70
  Q 1084.18 576.30 1087.23 582.24
  Q 1087.94 583.63 1091.37 588.59
  Q 1098.78 599.57 1101.12 602.13
  C 1123.54 626.69 1158.55 630.96 1189.21 622.66
  Q 1206.80 617.90 1223.04 608.98
  Q 1190.09 631.80 1151.25 631.52
  Q 1120.71 631.30 1093.00 618.72
  Q 1071.92 609.16 1054.17 594.33
  Q 1026.96 571.60 1016.81 537.50
  L 1083.01 569.70
  Z"
/>
<path fill="#6a1916" d="
  M 1261.09 572.38
  Q 1253.59 582.15 1244.79 590.79
  Q 1240.00 595.49 1235.15 600.16
  Q 1230.85 604.29 1223.04 608.98
  Q 1206.80 617.90 1189.21 622.66
  C 1158.55 630.96 1123.54 626.69 1101.12 602.13
  Q 1098.78 599.57 1091.37 588.59
  Q 1094.62 590.76 1099.08 594.66
  Q 1108.80 603.15 1122.30 601.81
  C 1136.71 600.39 1149.69 589.81 1158.41 577.88
  Q 1162.00 572.98 1167.44 561.85
  Q 1172.35 551.78 1177.24 541.72
  C 1205.60 551.07 1233.19 561.93 1261.09 572.38
  Z"
/>
<path fill="#181c29" d="
  M 648.84 846.37
  A 0.22 0.22 0.0 0 0 649.06 846.64
  L 711.85 846.64
  A 0.48 0.47 -83.6 0 1 712.31 847.22
  L 707.29 869.20
  A 0.93 0.93 0.0 0 1 706.38 869.93
  L 644.59 869.93
  A 0.66 0.65 6.0 0 0 643.95 870.44
  Q 612.30 1019.15 598.88 1081.66
  Q 595.94 1095.39 590.10 1110.09
  Q 569.27 1162.56 520.94 1191.67
  C 502.58 1202.73 480.18 1207.87 458.28 1204.95
  C 444.40 1203.10 431.42 1195.87 428.40 1181.72
  C 426.74 1173.99 428.33 1165.46 432.80 1158.63
  Q 439.46 1148.47 452.49 1148.11
  C 466.29 1147.73 476.05 1156.77 482.96 1167.79
  Q 487.25 1174.63 493.15 1184.30
  A 0.79 0.78 -18.6 0 0 493.92 1184.68
  Q 500.42 1183.86 505.14 1181.38
  Q 513.71 1176.86 519.92 1168.39
  Q 528.87 1156.17 535.16 1139.60
  C 541.96 1121.66 546.76 1104.06 550.59 1086.10
  Q 583.53 931.81 596.61 870.44
  A 0.43 0.43 0.0 0 0 596.19 869.92
  L 547.89 869.93
  A 0.36 0.35 -83.4 0 1 547.55 869.49
  L 552.63 847.23
  A 0.77 0.77 0.0 0 1 553.38 846.64
  L 600.61 846.64
  A 1.03 1.03 0.0 0 0 601.62 845.79
  Q 603.58 834.84 607.13 820.57
  Q 617.43 779.26 645.46 746.24
  C 668.93 718.58 706.19 698.30 743.24 703.11
  Q 750.47 704.05 756.19 706.29
  C 773.16 712.96 779.34 730.77 771.45 746.96
  C 768.21 753.60 763.25 757.86 755.91 759.36
  C 739.48 762.71 728.46 754.05 720.11 741.16
  Q 717.33 736.88 709.85 724.29
  A 1.48 1.47 -16.7 0 0 708.52 723.58
  C 699.28 724.09 691.34 729.61 685.52 736.53
  C 675.90 747.98 669.97 762.55 665.42 776.90
  C 658.29 799.44 653.59 823.40 648.84 846.37
  Z"
/>
<path fill="#181c29" d="
  M 1647.72 892.32
  Q 1647.41 927.46 1654.97 960.25
  C 1660.85 985.78 1672.98 1012.58 1692.22 1030.84
  Q 1710.47 1048.16 1733.83 1055.56
  C 1749.73 1060.61 1766.75 1061.92 1783.75 1060.93
  Q 1798.94 1060.04 1813.29 1055.04
  C 1831.60 1048.66 1845.61 1037.56 1857.75 1022.75
  Q 1870.35 1007.38 1881.05 987.81
  A 0.69 0.69 0.0 0 1 1882.02 987.56
  L 1908.33 1003.73
  A 0.40 0.39 29.0 0 1 1908.48 1004.25
  C 1883.44 1052.62 1839.33 1091.02 1785.05 1100.79
  Q 1759.64 1105.36 1733.01 1102.91
  Q 1715.01 1101.25 1701.39 1097.85
  C 1661.48 1087.89 1626.80 1063.71 1604.49 1029.01
  Q 1594.32 1013.18 1587.97 997.01
  C 1574.79 963.47 1569.35 926.26 1570.73 890.95
  C 1572.41 848.25 1586.19 805.46 1611.34 770.61
  Q 1632.45 741.34 1664.12 723.15
  Q 1688.80 708.96 1716.97 704.48
  Q 1729.51 702.48 1742.25 702.39
  C 1769.72 702.18 1797.32 706.07 1822.00 718.31
  Q 1851.15 732.78 1868.62 757.00
  C 1888.29 784.28 1897.51 818.51 1898.94 851.51
  Q 1899.72 869.45 1899.32 891.02
  A 0.69 0.68 0.4 0 1 1898.63 891.69
  L 1648.36 891.69
  A 0.64 0.63 0.0 0 0 1647.72 892.32
  Z
  M 1647.68 858.66
  A 0.29 0.29 0.0 0 0 1647.97 858.96
  L 1822.69 858.98
  A 0.42 0.41 -0.7 0 0 1823.11 858.56
  Q 1822.96 836.49 1819.25 811.65
  Q 1816.38 792.46 1809.44 775.71
  Q 1804.50 763.78 1794.04 752.37
  Q 1778.82 735.75 1756.76 732.90
  Q 1710.84 726.97 1680.56 760.99
  C 1656.93 787.56 1648.84 824.03 1647.68 858.66
  Z"
/>
<path fill="#181c29" d="
  M 1083.59 1068.03
  Q 1087.52 1067.38 1088.35 1067.35
  Q 1092.89 1067.18 1104.00 1066.08
  C 1122.88 1064.21 1135.90 1057.04 1138.60 1036.83
  Q 1139.08 1033.26 1139.08 1026.15
  Q 1139.05 810.77 1139.08 807.79
  Q 1139.31 789.35 1138.28 784.78
  Q 1135.68 773.25 1128.32 764.17
  C 1121.75 756.06 1114.06 751.72 1103.41 748.63
  Q 1087.47 744.01 1071.69 742.80
  A 0.59 0.59 0.0 0 1 1071.14 742.21
  L 1071.14 717.52
  A 0.24 0.23 88.8 0 1 1071.36 717.28
  L 1204.63 708.40
  A 1.76 1.75 65.2 0 1 1206.00 708.91
  L 1210.53 713.44
  A 1.57 1.57 0.0 0 1 1210.99 714.55
  Q 1211.00 903.64 1210.99 1026.25
  Q 1210.99 1026.96 1211.88 1033.35
  Q 1214.50 1052.22 1232.19 1059.31
  C 1242.34 1063.38 1251.86 1066.35 1261.33 1067.26
  Q 1264.82 1067.60 1266.46 1067.97
  A 0.66 0.64 6.8 0 1 1266.97 1068.60
  L 1266.97 1093.28
  A 0.51 0.51 0.0 0 1 1266.46 1093.79
  L 1083.85 1093.79
  A 0.73 0.73 0.0 0 1 1083.12 1093.06
  L 1083.12 1068.59
  A 0.57 0.56 85.2 0 1 1083.59 1068.03
  Z"
/>
<path fill="#181c29" d="
  M 280.98 913.24
  C 294.77 888.50 314.76 868.67 339.35 855.06
  Q 366.72 839.92 399.27 838.47
  C 412.46 837.89 424.75 838.68 437.03 842.02
  C 476.63 852.77 499.27 887.52 501.88 927.21
  C 504.14 961.61 496.25 995.84 479.32 1026.21
  C 465.52 1050.94 445.53 1070.77 420.94 1084.38
  Q 393.57 1099.52 361.02 1100.97
  C 347.83 1101.55 335.54 1100.76 323.26 1097.42
  C 283.66 1086.67 261.02 1051.92 258.41 1012.24
  C 256.15 977.83 264.04 943.61 280.98 913.24
  Z
  M 376.64 1080.83
  C 398.04 1074.76 415.29 1056.71 425.66 1037.42
  Q 439.34 1011.98 445.13 982.03
  Q 452.24 945.23 449.85 914.00
  Q 448.95 902.14 445.91 891.80
  C 442.03 878.59 434.39 866.92 422.05 860.94
  Q 410.79 855.48 395.31 856.86
  Q 376.13 858.57 360.08 870.66
  Q 348.63 879.29 340.45 892.03
  C 326.38 913.95 318.13 938.54 313.94 964.50
  Q 311.03 982.55 310.13 999.25
  Q 309.23 1016.00 311.23 1031.55
  C 314.21 1054.71 324.08 1077.48 349.76 1082.07
  Q 357.55 1083.47 363.98 1082.85
  Q 372.39 1082.03 376.64 1080.83
  Z"
/>
<path fill="#181c29" d="
  M 987.95 1304.67
  L 986.80 1265.74
  A 0.62 0.61 89.1 0 1 987.41 1265.10
  L 993.08 1265.10
  A 0.81 0.80 81.0 0 1 993.84 1265.66
  Q 995.85 1272.11 996.98 1274.98
  Q 1001.63 1286.84 1010.06 1293.73
  Q 1018.64 1300.76 1031.00 1300.13
  C 1041.79 1299.59 1049.46 1294.10 1050.37 1282.92
  Q 1051.45 1269.71 1041.96 1261.86
  Q 1038.52 1259.01 1028.37 1255.29
  Q 1019.53 1252.06 1011.79 1248.70
  C 1003.50 1245.11 996.06 1239.57 992.33 1230.97
  Q 990.59 1226.93 990.08 1219.89
  C 989.11 1206.50 997.64 1194.60 1009.49 1189.41
  C 1023.23 1183.38 1038.53 1185.64 1050.78 1193.85
  A 0.58 0.58 0.0 0 0 1051.60 1193.67
  L 1054.35 1189.19
  A 1.35 1.33 15.7 0 1 1055.49 1188.56
  L 1061.04 1188.56
  A 0.81 0.80 -0.0 0 1 1061.85 1189.36
  L 1061.85 1227.24
  A 0.41 0.40 0.0 0 1 1061.44 1227.64
  L 1055.95 1227.64
  A 0.90 0.89 -8.2 0 1 1055.09 1227.00
  C 1051.99 1216.37 1048.65 1204.78 1039.56 1198.08
  C 1029.97 1191.00 1013.42 1191.42 1007.38 1203.37
  C 1005.87 1206.34 1005.72 1208.83 1005.87 1212.28
  C 1006.30 1222.38 1012.80 1228.24 1021.57 1232.02
  C 1029.87 1235.60 1044.09 1240.10 1054.30 1246.92
  Q 1065.93 1254.70 1066.93 1268.96
  Q 1068.20 1286.99 1054.95 1298.14
  Q 1047.80 1304.16 1038.80 1306.29
  C 1025.09 1309.53 1010.85 1306.64 998.90 1299.76
  A 0.70 0.69 -58.9 0 0 997.96 1300.00
  L 994.96 1304.88
  A 1.01 0.99 15.3 0 1 994.10 1305.36
  L 988.66 1305.36
  A 0.71 0.71 0.0 0 1 987.95 1304.67
  Z"
/>
<path fill="#181c29" d="
  M 724.66 1299.09
  Q 730.57 1298.97 735.44 1297.90
  C 741.87 1296.49 741.53 1291.87 741.53 1285.66
  Q 741.53 1210.88 741.52 1209.71
  C 741.50 1202.78 742.13 1199.24 735.02 1197.05
  Q 728.90 1195.17 724.79 1194.85
  A 0.69 0.68 -87.8 0 1 724.16 1194.16
  L 724.16 1189.14
  A 0.60 0.59 0.0 0 1 724.76 1188.55
  L 776.09 1188.55
  A 0.83 0.83 0.0 0 1 776.92 1189.38
  L 776.92 1193.95
  A 0.92 0.91 -0.6 0 1 776.02 1194.86
  Q 770.06 1194.95 763.77 1196.99
  C 760.20 1198.15 759.37 1201.97 759.34 1205.50
  Q 759.26 1220.86 759.35 1289.68
  Q 759.35 1294.68 764.83 1296.86
  Q 769.16 1298.59 776.26 1299.11
  A 0.72 0.71 -87.9 0 1 776.92 1299.83
  L 776.92 1304.65
  A 0.60 0.59 -90.0 0 1 776.33 1305.25
  L 724.60 1305.25
  A 0.44 0.43 90.0 0 1 724.17 1304.81
  L 724.17 1299.60
  A 0.51 0.50 89.4 0 1 724.66 1299.09
  Z"
/>
<path fill="#181c29" d="
  M 917.20 1275.89
  Q 917.17 1270.86 917.16 1224.33
  C 917.16 1216.20 917.22 1211.58 915.59 1205.19
  Q 914.11 1199.39 908.62 1197.59
  Q 901.57 1195.29 897.14 1194.76
  A 0.30 0.29 -86.8 0 1 896.88 1194.46
  L 896.88 1188.83
  A 0.28 0.27 -90.0 0 1 897.15 1188.55
  L 943.77 1188.55
  A 0.68 0.67 90.0 0 1 944.44 1189.23
  L 944.44 1194.22
  A 0.67 0.66 -88.8 0 1 943.75 1194.89
  Q 941.99 1194.81 938.00 1195.88
  C 932.24 1197.44 928.03 1198.40 926.89 1205.16
  Q 926.60 1206.90 926.03 1209.07
  A 6.02 5.48 54.8 0 0 925.85 1210.51
  L 925.56 1305.70
  A 0.76 0.76 0.0 0 1 924.80 1306.45
  L 918.86 1306.45
  A 1.30 1.30 0.0 0 1 917.82 1305.93
  L 848.22 1211.99
  A 0.18 0.17 -63.6 0 0 847.91 1212.10
  Q 847.92 1248.68 847.91 1272.75
  C 847.91 1278.97 848.35 1284.87 850.09 1289.63
  C 852.24 1295.53 857.14 1296.57 862.53 1297.96
  Q 865.46 1298.72 868.14 1299.15
  A 0.69 0.68 -85.6 0 1 868.71 1299.83
  L 868.71 1304.66
  A 0.58 0.58 0.0 0 1 868.13 1305.24
  L 821.03 1305.24
  A 0.46 0.45 -0.0 0 1 820.57 1304.79
  L 820.57 1299.96
  A 0.58 0.57 82.9 0 1 821.00 1299.40
  L 832.03 1296.42
  A 5.69 5.63 -69.5 0 0 833.74 1295.63
  C 839.29 1291.80 839.38 1284.00 839.48 1277.49
  Q 839.67 1265.12 839.62 1220.22
  C 839.61 1208.84 838.82 1201.56 828.00 1197.30
  Q 822.40 1195.10 819.21 1194.78
  A 0.68 0.67 2.8 0 1 818.60 1194.11
  L 818.60 1189.17
  A 0.62 0.62 0.0 0 1 819.22 1188.55
  L 851.28 1188.55
  A 1.26 1.23 -17.7 0 1 852.29 1189.06
  L 916.74 1276.04
  A 0.26 0.25 26.6 0 0 917.20 1275.89
  Z"
/>
<path fill="#181c29" d="
  M 1131.63 1299.14
  Q 1139.67 1298.47 1143.29 1297.72
  Q 1150.13 1296.30 1150.13 1288.75
  Q 1150.14 1266.77 1150.12 1195.59
  A 0.48 0.48 0.0 0 0 1149.62 1195.11
  L 1131.53 1195.90
  A 0.93 0.83 29.7 0 0 1131.30 1195.95
  C 1123.30 1199.11 1116.71 1212.36 1114.32 1219.93
  A 0.94 0.93 9.0 0 1 1113.43 1220.57
  L 1108.84 1220.57
  A 0.69 0.69 0.0 0 1 1108.15 1219.88
  L 1108.15 1188.97
  A 0.43 0.42 0.0 0 1 1108.58 1188.55
  L 1209.21 1188.55
  A 0.70 0.70 0.0 0 1 1209.91 1189.25
  L 1209.91 1219.89
  A 0.66 0.66 0.0 0 1 1209.25 1220.55
  L 1204.56 1220.55
  A 0.79 0.79 0.0 0 1 1203.81 1220.01
  C 1201.04 1211.64 1195.11 1199.97 1187.23 1196.25
  A 2.63 2.53 -30.1 0 0 1186.21 1196.00
  L 1168.78 1195.05
  A 0.80 0.80 0.0 0 0 1167.93 1195.85
  Q 1167.93 1201.99 1167.95 1286.35
  C 1167.95 1295.26 1170.96 1296.33 1179.22 1298.08
  Q 1183.05 1298.89 1186.30 1299.15
  A 0.27 0.26 -87.7 0 1 1186.54 1299.42
  L 1186.54 1305.00
  A 0.23 0.23 0.0 0 1 1186.31 1305.23
  L 1131.59 1305.23
  A 0.25 0.24 0.0 0 1 1131.34 1304.99
  L 1131.34 1299.45
  A 0.31 0.31 0.0 0 1 1131.63 1299.14
  Z"
/>
<path fill="#181c29" d="
  M 1250.91 1304.80
  L 1250.91 1299.59
  A 0.51 0.50 89.4 0 1 1251.40 1299.08
  Q 1257.31 1298.96 1262.18 1297.89
  C 1268.61 1296.48 1268.27 1291.86 1268.27 1285.65
  Q 1268.28 1210.88 1268.27 1209.71
  C 1268.25 1202.78 1268.88 1199.24 1261.77 1197.05
  Q 1255.65 1195.17 1251.54 1194.85
  A 0.69 0.68 -87.8 0 1 1250.91 1194.16
  L 1250.91 1189.14
  A 0.60 0.59 0.0 0 1 1251.51 1188.55
  L 1302.83 1188.56
  A 0.83 0.83 0.0 0 1 1303.66 1189.39
  L 1303.66 1193.96
  A 0.92 0.91 -0.6 0 1 1302.76 1194.87
  Q 1296.80 1194.96 1290.51 1197.00
  C 1286.94 1198.16 1286.11 1201.98 1286.08 1205.51
  Q 1286.00 1220.86 1286.08 1289.67
  Q 1286.08 1294.67 1291.56 1296.85
  Q 1295.89 1298.58 1302.99 1299.10
  A 0.72 0.71 -87.9 0 1 1303.65 1299.82
  L 1303.65 1304.64
  A 0.60 0.59 -90.0 0 1 1303.06 1305.24
  L 1251.34 1305.24
  A 0.44 0.43 -90.0 0 1 1250.91 1304.80
  Z"
/>
<path fill="#181c29" d="
  M 1367.89 1305.00
  L 1367.89 1299.46
  A 0.31 0.31 0.0 0 1 1368.18 1299.15
  Q 1376.22 1298.48 1379.84 1297.73
  Q 1386.69 1296.31 1386.69 1288.76
  Q 1386.70 1266.77 1386.69 1195.58
  A 0.48 0.48 0.0 0 0 1386.19 1195.10
  L 1368.10 1195.89
  A 0.93 0.84 29.7 0 0 1367.87 1195.94
  C 1359.86 1199.10 1353.27 1212.35 1350.88 1219.92
  A 0.94 0.93 9.0 0 1 1349.99 1220.56
  L 1345.40 1220.56
  A 0.69 0.69 0.0 0 1 1344.71 1219.87
  L 1344.71 1188.96
  A 0.43 0.42 0.0 0 1 1345.14 1188.54
  L 1445.79 1188.55
  A 0.70 0.70 0.0 0 1 1446.49 1189.25
  L 1446.49 1219.89
  A 0.66 0.66 0.0 0 1 1445.83 1220.55
  L 1441.13 1220.55
  A 0.79 0.79 0.0 0 1 1440.38 1220.01
  C 1437.62 1211.64 1431.69 1199.97 1423.80 1196.25
  A 2.63 2.53 -30.1 0 0 1422.78 1196.00
  L 1405.35 1195.05
  A 0.80 0.80 0.0 0 0 1404.50 1195.85
  Q 1404.50 1201.99 1404.51 1286.36
  C 1404.51 1295.27 1407.52 1296.34 1415.78 1298.09
  Q 1419.61 1298.90 1422.86 1299.17
  A 0.27 0.26 -87.7 0 1 1423.10 1299.44
  L 1423.10 1305.02
  A 0.23 0.23 0.0 0 1 1422.87 1305.25
  L 1368.14 1305.24
  A 0.25 0.24 0.0 0 1 1367.89 1305.00
  Z"
/>
<path fill="#181c29" d="
  M 1487.04 1189.14
  A 0.59 0.59 0.0 0 1 1487.63 1188.55
  L 1535.10 1188.55
  A 0.78 0.78 0.0 0 1 1535.88 1189.33
  L 1535.88 1193.98
  A 0.87 0.87 0.0 0 1 1535.05 1194.85
  Q 1529.42 1195.10 1524.08 1197.04
  C 1520.79 1198.24 1520.13 1202.96 1520.13 1206.00
  Q 1520.13 1213.77 1520.13 1265.99
  C 1520.13 1269.83 1520.48 1272.57 1520.83 1276.01
  C 1522.03 1287.87 1529.82 1295.82 1541.51 1297.97
  Q 1544.43 1298.51 1551.79 1298.30
  C 1564.12 1297.96 1574.22 1291.34 1578.15 1279.55
  Q 1579.78 1274.65 1579.74 1262.75
  Q 1579.66 1242.17 1579.68 1221.25
  Q 1579.69 1212.04 1577.80 1204.59
  Q 1576.35 1198.86 1570.04 1196.97
  Q 1564.43 1195.29 1559.71 1194.80
  A 0.72 0.71 3.1 0 1 1559.07 1194.09
  L 1559.07 1189.17
  A 0.63 0.62 -0.0 0 1 1559.70 1188.55
  L 1606.36 1188.55
  A 0.61 0.60 90.0 0 1 1606.96 1189.16
  L 1606.96 1194.21
  A 0.60 0.60 0.0 0 1 1606.40 1194.81
  Q 1602.34 1195.05 1597.23 1196.45
  Q 1591.87 1197.91 1590.17 1202.38
  C 1589.77 1203.44 1589.09 1206.07 1588.91 1207.93
  Q 1588.03 1217.36 1588.03 1219.50
  Q 1587.94 1253.20 1588.02 1260.19
  Q 1588.22 1275.99 1587.23 1279.76
  C 1583.52 1294.00 1572.24 1303.19 1558.23 1306.51
  Q 1543.40 1310.02 1528.50 1305.68
  C 1517.06 1302.34 1507.41 1294.85 1503.59 1283.45
  Q 1502.08 1278.91 1502.12 1265.40
  Q 1502.23 1228.43 1502.18 1210.48
  Q 1502.17 1203.16 1501.80 1202.07
  Q 1500.55 1198.35 1495.63 1196.59
  Q 1491.16 1194.99 1487.70 1194.86
  A 0.69 0.69 0.0 0 1 1487.04 1194.17
  L 1487.04 1189.14
  Z"
/>
<path fill="#181c29" d="
  M 1666.06 1304.99
  L 1666.07 1299.45
  A 0.31 0.31 0.0 0 1 1666.36 1299.14
  Q 1674.40 1298.47 1678.02 1297.72
  Q 1684.86 1296.31 1684.86 1288.76
  Q 1684.88 1266.78 1684.88 1195.60
  A 0.48 0.48 0.0 0 0 1684.38 1195.12
  L 1666.29 1195.90
  A 0.93 0.83 29.7 0 0 1666.06 1195.95
  C 1658.06 1199.11 1651.47 1212.36 1649.08 1219.93
  A 0.94 0.93 9.0 0 1 1648.19 1220.57
  L 1643.60 1220.56
  A 0.69 0.69 0.0 0 1 1642.91 1219.87
  L 1642.92 1188.97
  A 0.43 0.42 0.0 0 1 1643.35 1188.55
  L 1743.97 1188.58
  A 0.70 0.70 0.0 0 1 1744.67 1189.28
  L 1744.66 1219.92
  A 0.66 0.66 0.0 0 1 1744.00 1220.58
  L 1739.31 1220.58
  A 0.79 0.79 0.0 0 1 1738.56 1220.04
  C 1735.80 1211.67 1729.87 1200.00 1721.99 1196.27
  A 2.63 2.53 -30.1 0 0 1720.97 1196.02
  L 1703.54 1195.07
  A 0.80 0.80 0.0 0 0 1702.69 1195.87
  Q 1702.69 1202.01 1702.68 1286.36
  C 1702.68 1295.27 1705.69 1296.34 1713.95 1298.10
  Q 1717.78 1298.91 1721.03 1299.17
  A 0.27 0.26 -87.7 0 1 1721.27 1299.44
  L 1721.26 1305.02
  A 0.23 0.23 0.0 0 1 1721.03 1305.25
  L 1666.31 1305.23
  A 0.25 0.24 0.0 0 1 1666.06 1304.99
  Z"
/>
<path fill="#181c29" d="
  M 1882.41 1305.24
  L 1786.35 1305.24
  A 0.26 0.25 -0.0 0 1 1786.09 1304.99
  L 1786.09 1299.48
  A 0.30 0.30 0.0 0 1 1786.37 1299.18
  Q 1791.17 1298.75 1795.78 1297.98
  Q 1802.72 1296.83 1802.72 1289.08
  Q 1802.77 1224.41 1802.69 1205.09
  Q 1802.66 1199.24 1797.31 1197.25
  Q 1792.51 1195.47 1786.73 1194.80
  A 0.74 0.73 3.5 0 1 1786.08 1194.07
  L 1786.08 1189.17
  A 0.63 0.62 -0.0 0 1 1786.71 1188.55
  L 1875.85 1188.55
  A 0.74 0.73 0.0 0 1 1876.59 1189.28
  L 1876.59 1216.52
  A 0.44 0.43 0.0 0 1 1876.15 1216.95
  L 1870.74 1216.95
  A 0.85 0.83 -9.1 0 1 1869.94 1216.38
  C 1867.26 1208.55 1861.63 1199.57 1853.78 1196.19
  A 5.02 4.98 -32.7 0 0 1851.92 1195.79
  L 1821.07 1195.32
  A 0.48 0.47 0.6 0 0 1820.58 1195.79
  L 1820.58 1240.74
  A 0.49 0.48 89.4 0 0 1821.07 1241.23
  L 1838.30 1241.14
  A 8.76 8.50 37.3 0 0 1840.15 1240.92
  Q 1847.57 1239.14 1850.24 1231.23
  Q 1852.06 1225.82 1852.22 1223.20
  A 1.06 1.06 0.0 0 1 1853.28 1222.20
  L 1858.00 1222.20
  A 0.92 0.91 90.0 0 1 1858.91 1223.12
  L 1858.91 1267.55
  A 0.58 0.57 90.0 0 1 1858.34 1268.13
  L 1852.91 1268.13
  A 0.68 0.67 87.2 0 1 1852.24 1267.52
  Q 1851.73 1261.53 1849.09 1255.90
  C 1846.79 1251.00 1842.83 1248.91 1837.35 1248.61
  Q 1830.30 1248.22 1821.20 1248.38
  A 0.63 0.62 -1.0 0 0 1820.59 1249.00
  Q 1820.53 1263.64 1820.63 1283.98
  C 1820.65 1289.04 1820.63 1294.46 1825.74 1296.76
  C 1827.15 1297.40 1830.04 1297.99 1832.14 1298.04
  Q 1842.51 1298.26 1853.54 1298.05
  C 1855.60 1298.02 1857.22 1297.50 1859.32 1297.13
  C 1863.65 1296.35 1865.69 1295.20 1868.22 1291.66
  C 1872.47 1285.73 1876.33 1278.01 1878.92 1271.41
  A 1.02 1.01 10.5 0 1 1879.87 1270.76
  L 1884.66 1270.76
  A 0.59 0.59 0.0 0 1 1885.25 1271.39
  L 1883.06 1304.64
  A 0.65 0.64 1.9 0 1 1882.41 1305.24
  Z"
/>
</svg>
