<?xml version="1.0" encoding="UTF-8" standalone="no"?>
<!DOCTYPE svg PUBLIC "-//W3C//DTD SVG 1.1//EN" "http://www.w3.org/Graphics/SVG/1.1/DTD/svg11.dtd">
<svg xmlns="http://www.w3.org/2000/svg" version="1.1" viewBox="0.00 0.00 407.00 124.00">
<g stroke-width="2.00" fill="none" stroke-linecap="butt">
<path stroke="#e08595" vector-effect="non-scaling-stroke" d="
  M 43.36 31.89
  L 43.38 35.47
  A 0.44 0.44 0.0 0 0 43.82 35.90
  L 43.96 35.90
  A 2.54 2.21 -0.2 0 0 46.49 33.68
  L 46.49 33.64
  A 2.54 2.21 -0.2 0 0 43.94 31.44
  L 43.80 31.44
  A 0.44 0.44 0.0 0 0 43.36 31.89"
/>
<path stroke="#e08595" vector-effect="non-scaling-stroke" d="
  M 55.68 32.38
  A 1.02 1.02 0.0 0 0 53.93 31.66
  Q 39.54 46.16 38.21 47.41
  Q 30.20 54.95 28.30 59.32
  C 22.82 71.92 28.38 87.56 42.10 91.78
  C 66.66 99.33 82.83 70.03 65.49 52.12
  A 1.10 1.10 0.0 0 0 63.93 52.10
  L 62.81 53.23
  A 1.20 1.19 45.9 0 0 62.79 54.90
  C 71.70 64.27 71.28 78.01 60.76 85.58
  C 54.38 90.17 45.29 90.33 38.59 85.89
  C 28.03 78.89 26.88 64.22 35.78 55.28
  Q 43.89 47.13 54.66 36.44
  A 3.48 3.48 0.0 0 0 55.68 33.98
  L 55.68 32.38"
/>
<path stroke="#e9ad86" vector-effect="non-scaling-stroke" d="
  M 38.13 38.82
  Q 38.10 40.13 38.53 40.97
  A 0.61 0.61 0.0 0 0 39.45 41.17
  Q 40.08 40.67 41.57 39.09
  C 41.64 39.02 41.63 39.04 41.63 38.88
  C 41.64 38.73 41.64 38.75 41.58 38.67
  Q 40.15 37.04 39.53 36.52
  A 0.61 0.61 0.0 0 0 38.61 36.69
  Q 38.15 37.51 38.13 38.82"
/>
<path stroke="#e9ad86" vector-effect="non-scaling-stroke" d="
  M 58.92 36.85
  Q 42.58 53.40 40.14 55.70
  Q 35.55 60.03 34.35 63.48
  Q 32.32 69.37 34.11 74.79
  C 37.51 85.05 49.74 88.74 58.47 83.03
  C 67.50 77.13 67.59 65.16 60.82 57.60
  A 1.61 1.61 0.0 0 0 58.54 57.48
  L 57.86 58.10
  A 1.38 1.38 0.0 0 0 57.84 60.13
  C 66.04 67.81 61.05 81.05 50.18 81.88
  C 44.99 82.27 39.71 79.17 38.03 74.47
  Q 35.03 66.02 41.43 59.66
  Q 55.04 46.12 59.65 41.57
  A 3.79 3.76 -22.7 0 0 60.76 38.90
  L 60.76 37.60
  A 1.07 1.07 0.0 0 0 58.92 36.85"
/>
<path stroke="#fad68c" vector-effect="non-scaling-stroke" d="
  M 33.09 43.85
  Q 33.12 44.82 33.64 45.76
  A 0.71 0.71 0.0 0 0 34.76 45.91
  Q 36.30 44.35 36.28 43.76
  Q 36.27 43.16 34.64 41.69
  A 0.71 0.71 0.0 0 0 33.53 41.91
  Q 33.07 42.88 33.09 43.85"
/>
<path stroke="#fad68c" vector-effect="non-scaling-stroke" d="
  M 54.76 67.69
  C 56.32 74.39 47.52 77.83 44.62 71.98
  C 43.15 69.02 44.49 66.68 46.88 64.32
  Q 55.04 56.29 64.90 46.15
  A 2.59 2.57 67.2 0 0 65.63 44.35
  L 65.63 42.64
  A 0.93 0.93 0.0 0 0 64.03 42.00
  Q 57.67 48.67 43.61 62.61
  C 34.80 71.34 46.84 84.17 55.74 75.77
  C 59.64 72.09 58.99 65.78 54.88 62.20
  A 0.57 0.56 43.1 0 0 54.11 62.22
  L 49.08 67.25
  A 1.10 1.10 0.0 0 0 49.79 69.13
  Q 52.19 69.28 53.88 67.45
  A 0.52 0.51 60.1 0 1 54.76 67.69"
/>
<path stroke="#97928d" vector-effect="non-scaling-stroke" d="
  M 167.60 61.57
  A 15.57 15.57 0.0 0 0 152.03 46.00
  A 15.57 15.57 0.0 0 0 136.46 61.57
  A 15.57 15.57 0.0 0 0 152.03 77.14
  A 15.57 15.57 0.0 0 0 167.60 61.57"
/>
<path stroke="#97928d" vector-effect="non-scaling-stroke" d="
  M 210.34 61.58
  A 15.58 15.58 0.0 0 0 194.76 46.00
  A 15.58 15.58 0.0 0 0 179.18 61.58
  A 15.58 15.58 0.0 0 0 194.76 77.16
  A 15.58 15.58 0.0 0 0 210.34 61.58"
/>
<path stroke="#97928d" vector-effect="non-scaling-stroke" d="
  M 112.90 62.00
  Q 113.73 66.47 117.57 65.92
  A 0.91 0.91 0.0 0 1 118.60 66.82
  L 118.60 69.77
  A 1.04 1.03 79.8 0 1 117.93 70.74
  Q 112.87 72.62 108.81 70.42
  C 102.39 66.93 101.83 57.62 108.06 53.49
  Q 113.51 49.88 119.02 53.35
  A 2.07 2.07 0.0 0 0 121.92 52.64
  L 122.76 51.18
  A 2.16 2.16 0.0 0 0 121.89 48.19
  C 116.60 45.44 109.62 45.26 104.77 48.66
  C 93.08 56.84 97.24 75.58 112.01 76.97
  Q 117.74 77.51 123.27 74.55
  A 1.73 1.72 -14.2 0 0 124.18 73.03
  L 124.18 62.14
  A 0.99 0.98 0.0 0 0 123.19 61.16
  L 113.59 61.16
  A 0.71 0.70 84.6 0 0 112.90 62.00"
/>
<path stroke="#97928d" vector-effect="non-scaling-stroke" d="
  M 223.66 47.13
  L 223.76 76.03
  A 0.64 0.64 0.0 0 0 224.40 76.66
  L 235.84 76.62
  A 14.98 14.12 -0.2 0 0 250.77 62.45
  L 250.77 60.51
  A 14.98 14.12 -0.2 0 0 235.74 46.45
  L 224.30 46.49
  A 0.64 0.64 0.0 0 0 223.66 47.13"
/>
<path stroke="#97928d" vector-effect="non-scaling-stroke" d="
  M 304.42 47.24
  A 0.84 0.84 0.0 0 0 303.58 46.40
  L 299.54 46.40
  A 0.84 0.84 0.0 0 0 298.70 47.24
  L 298.70 75.70
  A 0.84 0.84 0.0 0 0 299.54 76.54
  L 303.58 76.54
  A 0.84 0.84 0.0 0 0 304.42 75.70
  L 304.42 47.24"
/>
<path stroke="#97928d" vector-effect="non-scaling-stroke" d="
  M 320.42 76.65
  L 324.39 76.65
  A 0.97 0.96 0.0 0 0 325.36 75.69
  L 325.36 70.25
  A 0.53 0.52 -90.0 0 1 325.88 69.72
  L 332.86 69.72
  A 0.63 0.61 75.0 0 1 333.40 70.04
  L 336.56 75.50
  A 2.39 2.38 74.9 0 0 338.62 76.69
  L 341.86 76.69
  A 0.96 0.95 -14.9 0 0 342.69 75.26
  L 338.81 68.54
  A 0.87 0.87 0.0 0 1 339.02 67.42
  C 344.52 63.06 345.17 55.01 340.52 50.15
  Q 337.11 46.59 331.47 46.48
  Q 327.06 46.39 320.19 46.49
  A 0.58 0.58 0.0 0 0 319.61 47.07
  L 319.61 75.85
  A 0.81 0.80 0.0 0 0 320.42 76.65"
/>
<path stroke="#97928d" vector-effect="non-scaling-stroke" d="
  M 373.88 65.25
  A 0.98 0.98 0.0 0 0 374.73 64.76
  L 376.61 61.50
  A 0.98 0.98 0.0 0 0 375.76 60.03
  L 364.21 60.03
  A 0.98 0.98 0.0 0 1 363.23 59.05
  L 363.23 52.77
  A 0.98 0.98 0.0 0 1 364.21 51.79
  L 377.22 51.79
  A 0.98 0.98 0.0 0 0 378.07 51.30
  L 380.02 47.92
  A 0.98 0.98 0.0 0 0 379.17 46.45
  L 358.53 46.45
  A 0.98 0.98 0.0 0 0 357.55 47.43
  L 357.55 75.67
  A 0.98 0.98 0.0 0 0 358.53 76.65
  L 379.67 76.65
  A 0.98 0.98 0.0 0 0 380.65 75.67
  L 380.65 72.23
  A 0.98 0.98 0.0 0 0 379.67 71.25
  L 364.21 71.25
  A 0.98 0.98 0.0 0 1 363.23 70.27
  L 363.23 66.23
  A 0.98 0.98 0.0 0 1 364.21 65.25
  L 373.88 65.25"
/>
<path stroke="#97928d" vector-effect="non-scaling-stroke" d="
  M 268.14 77.14
  A 1.11 1.11 0.0 0 0 269.25 76.03
  L 269.25 68.50
  A 1.11 1.11 0.0 0 1 270.36 67.39
  L 279.35 67.39
  A 1.11 1.11 0.0 0 0 280.31 66.83
  L 282.01 63.88
  A 1.11 1.11 0.0 0 0 281.05 62.22
  L 270.34 62.22
  A 1.11 1.11 0.0 0 1 269.23 61.11
  L 269.23 53.42
  A 1.11 1.11 0.0 0 1 270.34 52.31
  L 281.91 52.31
  A 1.11 1.11 0.0 0 0 282.87 51.76
  L 284.68 48.63
  A 1.11 1.11 0.0 0 0 283.72 46.96
  L 264.62 46.96
  A 1.11 1.11 0.0 0 0 263.51 48.07
  L 263.51 76.03
  A 1.11 1.11 0.0 0 0 264.62 77.14
  L 268.14 77.14"
/>
<path stroke="#97928d" vector-effect="non-scaling-stroke" d="
  M 161.90 61.57
  A 9.87 9.87 0.0 0 0 152.03 51.70
  A 9.87 9.87 0.0 0 0 142.16 61.57
  A 9.87 9.87 0.0 0 0 152.03 71.44
  A 9.87 9.87 0.0 0 0 161.90 61.57"
/>
<path stroke="#97928d" vector-effect="non-scaling-stroke" d="
  M 204.63 61.56
  A 9.88 9.88 0.0 0 0 194.75 51.68
  A 9.88 9.88 0.0 0 0 184.87 61.56
  A 9.88 9.88 0.0 0 0 194.75 71.44
  A 9.88 9.88 0.0 0 0 204.63 61.56"
/>
<path stroke="#97928d" vector-effect="non-scaling-stroke" d="
  M 229.34 52.18
  L 229.28 70.82
  A 0.42 0.42 0.0 0 0 229.70 71.24
  L 235.34 71.26
  A 9.82 9.60 0.2 0 0 245.19 61.70
  L 245.19 61.42
  A 9.82 9.60 0.2 0 0 235.40 51.78
  L 229.76 51.76
  A 0.42 0.42 0.0 0 0 229.34 52.18"
/>
<path stroke="#97928d" vector-effect="non-scaling-stroke" d="
  M 325.36 52.08
  L 325.36 64.26
  A 0.62 0.62 0.0 0 0 325.98 64.88
  L 331.06 64.88
  A 6.76 6.25 0.0 0 0 337.82 58.63
  L 337.82 57.71
  A 6.76 6.25 0.0 0 0 331.06 51.46
  L 325.98 51.46
  A 0.62 0.62 0.0 0 0 325.36 52.08"
/>
</g>
<path fill="#ffffff" d="
  M 407.00 0.00
  L 407.00 124.00
  L 0.00 124.00
  L 0.00 0.00
  L 407.00 0.00
  Z
  M 43.36 31.89
  L 43.38 35.47
  A 0.44 0.44 0.0 0 0 43.82 35.90
  L 43.96 35.90
  A 2.54 2.21 -0.2 0 0 46.49 33.68
  L 46.49 33.64
  A 2.54 2.21 -0.2 0 0 43.94 31.44
  L 43.80 31.44
  A 0.44 0.44 0.0 0 0 43.36 31.89
  Z
  M 55.68 32.38
  A 1.02 1.02 0.0 0 0 53.93 31.66
  Q 39.54 46.16 38.21 47.41
  Q 30.20 54.95 28.30 59.32
  C 22.82 71.92 28.38 87.56 42.10 91.78
  C 66.66 99.33 82.83 70.03 65.49 52.12
  A 1.10 1.10 0.0 0 0 63.93 52.10
  L 62.81 53.23
  A 1.20 1.19 45.9 0 0 62.79 54.90
  C 71.70 64.27 71.28 78.01 60.76 85.58
  C 54.38 90.17 45.29 90.33 38.59 85.89
  C 28.03 78.89 26.88 64.22 35.78 55.28
  Q 43.89 47.13 54.66 36.44
  A 3.48 3.48 0.0 0 0 55.68 33.98
  L 55.68 32.38
  Z
  M 38.13 38.82
  Q 38.10 40.13 38.53 40.97
  A 0.61 0.61 0.0 0 0 39.45 41.17
  Q 40.08 40.67 41.57 39.09
  C 41.64 39.02 41.63 39.04 41.63 38.88
  C 41.64 38.73 41.64 38.75 41.58 38.67
  Q 40.15 37.04 39.53 36.52
  A 0.61 0.61 0.0 0 0 38.61 36.69
  Q 38.15 37.51 38.13 38.82
  Z
  M 58.92 36.85
  Q 42.58 53.40 40.14 55.70
  Q 35.55 60.03 34.35 63.48
  Q 32.32 69.37 34.11 74.79
  C 37.51 85.05 49.74 88.74 58.47 83.03
  C 67.50 77.13 67.59 65.16 60.82 57.60
  A 1.61 1.61 0.0 0 0 58.54 57.48
  L 57.86 58.10
  A 1.38 1.38 0.0 0 0 57.84 60.13
  C 66.04 67.81 61.05 81.05 50.18 81.88
  C 44.99 82.27 39.71 79.17 38.03 74.47
  Q 35.03 66.02 41.43 59.66
  Q 55.04 46.12 59.65 41.57
  A 3.79 3.76 -22.7 0 0 60.76 38.90
  L 60.76 37.60
  A 1.07 1.07 0.0 0 0 58.92 36.85
  Z
  M 33.09 43.85
  Q 33.12 44.82 33.64 45.76
  A 0.71 0.71 0.0 0 0 34.76 45.91
  Q 36.30 44.35 36.28 43.76
  Q 36.27 43.16 34.64 41.69
  A 0.71 0.71 0.0 0 0 33.53 41.91
  Q 33.07 42.88 33.09 43.85
  Z
  M 54.76 67.69
  C 56.32 74.39 47.52 77.83 44.62 71.98
  C 43.15 69.02 44.49 66.68 46.88 64.32
  Q 55.04 56.29 64.90 46.15
  A 2.59 2.57 67.2 0 0 65.63 44.35
  L 65.63 42.64
  A 0.93 0.93 0.0 0 0 64.03 42.00
  Q 57.67 48.67 43.61 62.61
  C 34.80 71.34 46.84 84.17 55.74 75.77
  C 59.64 72.09 58.99 65.78 54.88 62.20
  A 0.57 0.56 43.1 0 0 54.11 62.22
  L 49.08 67.25
  A 1.10 1.10 0.0 0 0 49.79 69.13
  Q 52.19 69.28 53.88 67.45
  A 0.52 0.51 60.1 0 1 54.76 67.69
  Z
  M 167.60 61.57
  A 15.57 15.57 0.0 0 0 152.03 46.00
  A 15.57 15.57 0.0 0 0 136.46 61.57
  A 15.57 15.57 0.0 0 0 152.03 77.14
  A 15.57 15.57 0.0 0 0 167.60 61.57
  Z
  M 210.34 61.58
  A 15.58 15.58 0.0 0 0 194.76 46.00
  A 15.58 15.58 0.0 0 0 179.18 61.58
  A 15.58 15.58 0.0 0 0 194.76 77.16
  A 15.58 15.58 0.0 0 0 210.34 61.58
  Z
  M 112.90 62.00
  Q 113.73 66.47 117.57 65.92
  A 0.91 0.91 0.0 0 1 118.60 66.82
  L 118.60 69.77
  A 1.04 1.03 79.8 0 1 117.93 70.74
  Q 112.87 72.62 108.81 70.42
  C 102.39 66.93 101.83 57.62 108.06 53.49
  Q 113.51 49.88 119.02 53.35
  A 2.07 2.07 0.0 0 0 121.92 52.64
  L 122.76 51.18
  A 2.16 2.16 0.0 0 0 121.89 48.19
  C 116.60 45.44 109.62 45.26 104.77 48.66
  C 93.08 56.84 97.24 75.58 112.01 76.97
  Q 117.74 77.51 123.27 74.55
  A 1.73 1.72 -14.2 0 0 124.18 73.03
  L 124.18 62.14
  A 0.99 0.98 0.0 0 0 123.19 61.16
  L 113.59 61.16
  A 0.71 0.70 84.6 0 0 112.90 62.00
  Z
  M 223.66 47.13
  L 223.76 76.03
  A 0.64 0.64 0.0 0 0 224.40 76.66
  L 235.84 76.62
  A 14.98 14.12 -0.2 0 0 250.77 62.45
  L 250.77 60.51
  A 14.98 14.12 -0.2 0 0 235.74 46.45
  L 224.30 46.49
  A 0.64 0.64 0.0 0 0 223.66 47.13
  Z
  M 304.42 47.24
  A 0.84 0.84 0.0 0 0 303.58 46.40
  L 299.54 46.40
  A 0.84 0.84 0.0 0 0 298.70 47.24
  L 298.70 75.70
  A 0.84 0.84 0.0 0 0 299.54 76.54
  L 303.58 76.54
  A 0.84 0.84 0.0 0 0 304.42 75.70
  L 304.42 47.24
  Z
  M 320.42 76.65
  L 324.39 76.65
  A 0.97 0.96 0.0 0 0 325.36 75.69
  L 325.36 70.25
  A 0.53 0.52 -90.0 0 1 325.88 69.72
  L 332.86 69.72
  A 0.63 0.61 75.0 0 1 333.40 70.04
  L 336.56 75.50
  A 2.39 2.38 74.9 0 0 338.62 76.69
  L 341.86 76.69
  A 0.96 0.95 -14.9 0 0 342.69 75.26
  L 338.81 68.54
  A 0.87 0.87 0.0 0 1 339.02 67.42
  C 344.52 63.06 345.17 55.01 340.52 50.15
  Q 337.11 46.59 331.47 46.48
  Q 327.06 46.39 320.19 46.49
  A 0.58 0.58 0.0 0 0 319.61 47.07
  L 319.61 75.85
  A 0.81 0.80 0.0 0 0 320.42 76.65
  Z
  M 373.88 65.25
  A 0.98 0.98 0.0 0 0 374.73 64.76
  L 376.61 61.50
  A 0.98 0.98 0.0 0 0 375.76 60.03
  L 364.21 60.03
  A 0.98 0.98 0.0 0 1 363.23 59.05
  L 363.23 52.77
  A 0.98 0.98 0.0 0 1 364.21 51.79
  L 377.22 51.79
  A 0.98 0.98 0.0 0 0 378.07 51.30
  L 380.02 47.92
  A 0.98 0.98 0.0 0 0 379.17 46.45
  L 358.53 46.45
  A 0.98 0.98 0.0 0 0 357.55 47.43
  L 357.55 75.67
  A 0.98 0.98 0.0 0 0 358.53 76.65
  L 379.67 76.65
  A 0.98 0.98 0.0 0 0 380.65 75.67
  L 380.65 72.23
  A 0.98 0.98 0.0 0 0 379.67 71.25
  L 364.21 71.25
  A 0.98 0.98 0.0 0 1 363.23 70.27
  L 363.23 66.23
  A 0.98 0.98 0.0 0 1 364.21 65.25
  L 373.88 65.25
  Z
  M 268.14 77.14
  A 1.11 1.11 0.0 0 0 269.25 76.03
  L 269.25 68.50
  A 1.11 1.11 0.0 0 1 270.36 67.39
  L 279.35 67.39
  A 1.11 1.11 0.0 0 0 280.31 66.83
  L 282.01 63.88
  A 1.11 1.11 0.0 0 0 281.05 62.22
  L 270.34 62.22
  A 1.11 1.11 0.0 0 1 269.23 61.11
  L 269.23 53.42
  A 1.11 1.11 0.0 0 1 270.34 52.31
  L 281.91 52.31
  A 1.11 1.11 0.0 0 0 282.87 51.76
  L 284.68 48.63
  A 1.11 1.11 0.0 0 0 283.72 46.96
  L 264.62 46.96
  A 1.11 1.11 0.0 0 0 263.51 48.07
  L 263.51 76.03
  A 1.11 1.11 0.0 0 0 264.62 77.14
  L 268.14 77.14
  Z"
/>
<path fill="#c10b2a" d="
  M 43.36 31.89
  A 0.44 0.44 0.0 0 1 43.80 31.44
  L 43.94 31.44
  A 2.54 2.21 -0.2 0 1 46.49 33.64
  L 46.49 33.68
  A 2.54 2.21 -0.2 0 1 43.96 35.90
  L 43.82 35.90
  A 0.44 0.44 0.0 0 1 43.38 35.47
  L 43.36 31.89
  Z"
/>
<path fill="#c10b2a" d="
  M 55.68 32.38
  L 55.68 33.98
  A 3.48 3.48 0.0 0 1 54.66 36.44
  Q 43.89 47.13 35.78 55.28
  C 26.88 64.22 28.03 78.89 38.59 85.89
  C 45.29 90.33 54.38 90.17 60.76 85.58
  C 71.28 78.01 71.70 64.27 62.79 54.90
  A 1.20 1.19 45.9 0 1 62.81 53.23
  L 63.93 52.10
  A 1.10 1.10 0.0 0 1 65.49 52.12
  C 82.83 70.03 66.66 99.33 42.10 91.78
  C 28.38 87.56 22.82 71.92 28.30 59.32
  Q 30.20 54.95 38.21 47.41
  Q 39.54 46.16 53.93 31.66
  A 1.02 1.02 0.0 0 1 55.68 32.38
  Z"
/>
<path fill="#d35a0c" d="
  M 41.63 38.88
  C 41.63 39.04 41.64 39.02 41.57 39.09
  Q 40.08 40.67 39.45 41.17
  A 0.61 0.61 0.0 0 1 38.53 40.97
  Q 38.10 40.13 38.13 38.82
  Q 38.15 37.51 38.61 36.69
  A 0.61 0.61 0.0 0 1 39.53 36.52
  Q 40.15 37.04 41.58 38.67
  C 41.64 38.75 41.64 38.73 41.63 38.88
  Z"
/>
<path fill="#d35a0c" d="
  M 58.92 36.85
  A 1.07 1.07 0.0 0 1 60.76 37.60
  L 60.76 38.90
  A 3.79 3.76 -22.7 0 1 59.65 41.57
  Q 55.04 46.12 41.43 59.66
  Q 35.03 66.02 38.03 74.47
  C 39.71 79.17 44.99 82.27 50.18 81.88
  C 61.05 81.05 66.04 67.81 57.84 60.13
  A 1.38 1.38 0.0 0 1 57.86 58.10
  L 58.54 57.48
  A 1.61 1.61 0.0 0 1 60.82 57.60
  C 67.59 65.16 67.50 77.13 58.47 83.03
  C 49.74 88.74 37.51 85.05 34.11 74.79
  Q 32.32 69.37 34.35 63.48
  Q 35.55 60.03 40.14 55.70
  Q 42.58 53.40 58.92 36.85
  Z"
/>
<path fill="#f5ac18" d="
  M 36.28 43.76
  Q 36.30 44.35 34.76 45.91
  A 0.71 0.71 0.0 0 1 33.64 45.76
  Q 33.12 44.82 33.09 43.85
  Q 33.07 42.88 33.53 41.91
  A 0.71 0.71 0.0 0 1 34.64 41.69
  Q 36.27 43.16 36.28 43.76
  Z"
/>
<path fill="#f5ac18" d="
  M 54.76 67.69
  A 0.52 0.51 60.1 0 0 53.88 67.45
  Q 52.19 69.28 49.79 69.13
  A 1.10 1.10 0.0 0 1 49.08 67.25
  L 54.11 62.22
  A 0.57 0.56 43.1 0 1 54.88 62.20
  C 58.99 65.78 59.64 72.09 55.74 75.77
  C 46.84 84.17 34.80 71.34 43.61 62.61
  Q 57.67 48.67 64.03 42.00
  A 0.93 0.93 0.0 0 1 65.63 42.64
  L 65.63 44.35
  A 2.59 2.57 67.2 0 1 64.90 46.15
  Q 55.04 56.29 46.88 64.32
  C 44.49 66.68 43.15 69.02 44.62 71.98
  C 47.52 77.83 56.32 74.39 54.76 67.69
  Z"
/>
<path fill="#2f241b" d="
  M 167.60 61.57
  A 15.57 15.57 0.0 0 1 152.03 77.14
  A 15.57 15.57 0.0 0 1 136.46 61.57
  A 15.57 15.57 0.0 0 1 152.03 46.00
  A 15.57 15.57 0.0 0 1 167.60 61.57
  Z
  M 161.90 61.57
  A 9.87 9.87 0.0 0 0 152.03 51.70
  A 9.87 9.87 0.0 0 0 142.16 61.57
  A 9.87 9.87 0.0 0 0 152.03 71.44
  A 9.87 9.87 0.0 0 0 161.90 61.57
  Z"
/>
<path fill="#2f241b" d="
  M 210.34 61.58
  A 15.58 15.58 0.0 0 1 194.76 77.16
  A 15.58 15.58 0.0 0 1 179.18 61.58
  A 15.58 15.58 0.0 0 1 194.76 46.00
  A 15.58 15.58 0.0 0 1 210.34 61.58
  Z
  M 204.63 61.56
  A 9.88 9.88 0.0 0 0 194.75 51.68
  A 9.88 9.88 0.0 0 0 184.87 61.56
  A 9.88 9.88 0.0 0 0 194.75 71.44
  A 9.88 9.88 0.0 0 0 204.63 61.56
  Z"
/>
<path fill="#2f241b" d="
  M 113.59 61.16
  L 123.19 61.16
  A 0.99 0.98 0.0 0 1 124.18 62.14
  L 124.18 73.03
  A 1.73 1.72 -14.2 0 1 123.27 74.55
  Q 117.74 77.51 112.01 76.97
  C 97.24 75.58 93.08 56.84 104.77 48.66
  C 109.62 45.26 116.60 45.44 121.89 48.19
  A 2.16 2.16 0.0 0 1 122.76 51.18
  L 121.92 52.64
  A 2.07 2.07 0.0 0 1 119.02 53.35
  Q 113.51 49.88 108.06 53.49
  C 101.83 57.62 102.39 66.93 108.81 70.42
  Q 112.87 72.62 117.93 70.74
  A 1.04 1.03 79.8 0 0 118.60 69.77
  L 118.60 66.82
  A 0.91 0.91 0.0 0 0 117.57 65.92
  Q 113.73 66.47 112.90 62.00
  A 0.71 0.70 84.6 0 1 113.59 61.16
  Z"
/>
<path fill="#2f241b" d="
  M 223.66 47.13
  A 0.64 0.64 0.0 0 1 224.30 46.49
  L 235.74 46.45
  A 14.98 14.12 -0.2 0 1 250.77 60.51
  L 250.77 62.45
  A 14.98 14.12 -0.2 0 1 235.84 76.62
  L 224.40 76.66
  A 0.64 0.64 0.0 0 1 223.76 76.03
  L 223.66 47.13
  Z
  M 229.34 52.18
  L 229.28 70.82
  A 0.42 0.42 0.0 0 0 229.70 71.24
  L 235.34 71.26
  A 9.82 9.60 0.2 0 0 245.19 61.70
  L 245.19 61.42
  A 9.82 9.60 0.2 0 0 235.40 51.78
  L 229.76 51.76
  A 0.42 0.42 0.0 0 0 229.34 52.18
  Z"
/>
<rect fill="#2f241b" x="298.70" y="46.40" width="5.72" height="30.14" rx="0.84"/>
<path fill="#2f241b" d="
  M 320.42 76.65
  A 0.81 0.80 -0.0 0 1 319.61 75.85
  L 319.61 47.07
  A 0.58 0.58 0.0 0 1 320.19 46.49
  Q 327.06 46.39 331.47 46.48
  Q 337.11 46.59 340.52 50.15
  C 345.17 55.01 344.52 63.06 339.02 67.42
  A 0.87 0.87 0.0 0 0 338.81 68.54
  L 342.69 75.26
  A 0.96 0.95 -14.9 0 1 341.86 76.69
  L 338.62 76.69
  A 2.39 2.38 74.9 0 1 336.56 75.50
  L 333.40 70.04
  A 0.63 0.61 75.0 0 0 332.86 69.72
  L 325.88 69.72
  A 0.53 0.52 -90.0 0 0 325.36 70.25
  L 325.36 75.69
  A 0.97 0.96 -0.0 0 1 324.39 76.65
  L 320.42 76.65
  Z
  M 325.36 52.08
  L 325.36 64.26
  A 0.62 0.62 0.0 0 0 325.98 64.88
  L 331.06 64.88
  A 6.76 6.25 0.0 0 0 337.82 58.63
  L 337.82 57.71
  A 6.76 6.25 0.0 0 0 331.06 51.46
  L 325.98 51.46
  A 0.62 0.62 0.0 0 0 325.36 52.08
  Z"
/>
<path fill="#2f241b" d="
  M 373.88 65.25
  L 364.21 65.25
  A 0.98 0.98 0.0 0 0 363.23 66.23
  L 363.23 70.27
  A 0.98 0.98 0.0 0 0 364.21 71.25
  L 379.67 71.25
  A 0.98 0.98 0.0 0 1 380.65 72.23
  L 380.65 75.67
  A 0.98 0.98 0.0 0 1 379.67 76.65
  L 358.53 76.65
  A 0.98 0.98 0.0 0 1 357.55 75.67
  L 357.55 47.43
  A 0.98 0.98 0.0 0 1 358.53 46.45
  L 379.17 46.45
  A 0.98 0.98 0.0 0 1 380.02 47.92
  L 378.07 51.30
  A 0.98 0.98 0.0 0 1 377.22 51.79
  L 364.21 51.79
  A 0.98 0.98 0.0 0 0 363.23 52.77
  L 363.23 59.05
  A 0.98 0.98 0.0 0 0 364.21 60.03
  L 375.76 60.03
  A 0.98 0.98 0.0 0 1 376.61 61.50
  L 374.73 64.76
  A 0.98 0.98 0.0 0 1 373.88 65.25
  Z"
/>
<path fill="#2f241b" d="
  M 268.14 77.14
  L 264.62 77.14
  A 1.11 1.11 0.0 0 1 263.51 76.03
  L 263.51 48.07
  A 1.11 1.11 0.0 0 1 264.62 46.96
  L 283.72 46.96
  A 1.11 1.11 0.0 0 1 284.68 48.63
  L 282.87 51.76
  A 1.11 1.11 0.0 0 1 281.91 52.31
  L 270.34 52.31
  A 1.11 1.11 0.0 0 0 269.23 53.42
  L 269.23 61.11
  A 1.11 1.11 0.0 0 0 270.34 62.22
  L 281.05 62.22
  A 1.11 1.11 0.0 0 1 282.01 63.88
  L 280.31 66.83
  A 1.11 1.11 0.0 0 1 279.35 67.39
  L 270.36 67.39
  A 1.11 1.11 0.0 0 0 269.25 68.50
  L 269.25 76.03
  A 1.11 1.11 0.0 0 1 268.14 77.14
  Z"
/>
<path fill="#ffffff" d="
  M 325.36 52.08
  A 0.62 0.62 0.0 0 1 325.98 51.46
  L 331.06 51.46
  A 6.76 6.25 0.0 0 1 337.82 57.71
  L 337.82 58.63
  A 6.76 6.25 -0.0 0 1 331.06 64.88
  L 325.98 64.88
  A 0.62 0.62 0.0 0 1 325.36 64.26
  L 325.36 52.08
  Z"
/>
<circle fill="#ffffff" cx="152.03" cy="61.57" r="9.87"/>
<circle fill="#ffffff" cx="194.75" cy="61.56" r="9.88"/>
<path fill="#ffffff" d="
  M 229.34 52.18
  A 0.42 0.42 0.0 0 1 229.76 51.76
  L 235.40 51.78
  A 9.82 9.60 0.2 0 1 245.19 61.42
  L 245.19 61.70
  A 9.82 9.60 0.2 0 1 235.34 71.26
  L 229.70 71.24
  A 0.42 0.42 0.0 0 1 229.28 70.82
  L 229.34 52.18
  Z"
/>
</svg>
