<?xml version="1.0" encoding="UTF-8" standalone="no"?>
<!DOCTYPE svg PUBLIC "-//W3C//DTD SVG 1.1//EN" "http://www.w3.org/Graphics/SVG/1.1/DTD/svg11.dtd">
<svg xmlns="http://www.w3.org/2000/svg" version="1.1" viewBox="0.00 0.00 730.00 152.00">
<g stroke-width="2.00" fill="none" stroke-linecap="butt">
<path stroke="#839bb1" vector-effect="non-scaling-stroke" d="
  M 226.81 11.58
  A 0.44 0.44 0.0 0 0 226.37 11.14
  L 11.55 11.14
  A 0.44 0.44 0.0 0 0 11.11 11.58
  L 11.11 140.42
  A 0.44 0.44 0.0 0 0 11.55 140.86
  L 226.37 140.86
  A 0.44 0.44 0.0 0 0 226.81 140.42
  L 226.81 11.58"
/>
<path stroke="#839bb1" vector-effect="non-scaling-stroke" d="
  M 374.06 41.36
  A 0.37 0.37 0.0 0 0 373.69 40.99
  L 356.99 40.99
  A 0.42 0.42 0.0 0 0 356.57 41.41
  L 356.57 48.15
  A 0.39 0.38 0.0 0 0 356.96 48.53
  L 362.87 48.53
  A 0.55 0.55 0.0 0 1 363.42 49.08
  L 363.42 56.42
  A 0.91 0.91 0.0 0 1 362.66 57.32
  C 354.73 58.76 347.05 57.28 344.78 48.94
  C 342.66 41.13 344.87 30.77 354.42 29.39
  Q 363.55 28.07 372.30 33.10
  A 0.09 0.09 0.0 0 0 372.44 33.02
  L 372.44 24.44
  A 0.43 0.42 11.6 0 0 372.18 24.05
  C 359.34 18.45 337.88 19.16 333.42 36.13
  C 328.98 53.01 339.27 66.91 357.06 65.95
  Q 367.67 65.38 373.68 61.93
  A 0.78 0.76 75.4 0 0 374.06 61.26
  L 374.06 41.36"
/>
<path stroke="#839bb1" vector-effect="non-scaling-stroke" d="
  M 618.18 43.45
  C 618.17 51.05 620.88 57.90 627.34 62.15
  C 635.07 67.24 646.79 67.11 654.92 62.86
  A 0.46 0.45 -14.4 0 0 655.16 62.46
  L 655.16 53.87
  A 0.08 0.08 0.0 0 0 655.03 53.80
  C 644.54 61.28 629.80 58.96 629.81 43.46
  C 629.81 27.95 644.55 25.63 655.04 33.12
  A 0.08 0.08 0.0 0 0 655.16 33.05
  L 655.17 24.46
  A 0.46 0.45 14.4 0 0 654.93 24.06
  C 646.80 19.81 635.08 19.67 627.34 24.76
  C 620.89 29.01 618.18 35.85 618.18 43.45"
/>
<path stroke="#839bb1" vector-effect="non-scaling-stroke" d="
  M 282.30 46.73
  Q 289.78 46.73 290.17 46.74
  A 0.42 0.41 0.8 0 1 290.58 47.15
  L 290.58 64.64
  A 0.57 0.57 0.0 0 0 291.15 65.21
  L 301.20 65.21
  A 0.61 0.60 -90.0 0 0 301.80 64.60
  L 301.80 22.28
  A 0.62 0.61 90.0 0 0 301.19 21.66
  L 291.19 21.66
  A 0.61 0.61 0.0 0 0 290.58 22.27
  L 290.58 37.58
  A 0.69 0.69 0.0 0 1 289.89 38.27
  Q 289.29 38.28 282.30 38.28
  Q 275.32 38.28 274.72 38.27
  A 0.69 0.69 0.0 0 1 274.03 37.58
  L 274.03 22.27
  A 0.61 0.61 0.0 0 0 273.42 21.66
  L 263.42 21.66
  A 0.62 0.61 -90.0 0 0 262.81 22.28
  L 262.80 64.60
  A 0.61 0.60 -90.0 0 0 263.40 65.21
  L 273.45 65.21
  A 0.57 0.57 0.0 0 0 274.02 64.64
  L 274.03 47.15
  A 0.42 0.41 -0.8 0 1 274.43 46.74
  Q 274.83 46.73 282.30 46.73"
/>
<path stroke="#839bb1" vector-effect="non-scaling-stroke" d="
  M 323.95 21.98
  A 0.31 0.31 0.0 0 0 323.64 21.67
  L 313.06 21.67
  A 0.31 0.31 0.0 0 0 312.75 21.98
  L 312.75 64.88
  A 0.31 0.31 0.0 0 0 313.06 65.19
  L 323.64 65.19
  A 0.31 0.31 0.0 0 0 323.95 64.88
  L 323.95 21.98"
/>
<path stroke="#839bb1" vector-effect="non-scaling-stroke" d="
  M 501.05 56.81
  Q 503.97 56.81 504.18 56.76
  A 1.06 1.03 3.9 0 0 504.89 56.15
  L 514.27 34.23
  A 0.19 0.19 0.0 0 1 514.63 34.30
  L 514.63 64.61
  A 0.59 0.59 0.0 0 0 515.22 65.20
  L 524.69 65.20
  A 0.56 0.56 0.0 0 0 525.25 64.64
  L 525.25 22.24
  A 0.58 0.58 0.0 0 0 524.67 21.66
  L 511.38 21.66
  A 0.59 0.59 0.0 0 0 510.83 22.03
  Q 506.41 32.49 501.21 44.54
  Q 501.18 44.61 501.05 44.61
  Q 500.92 44.61 500.90 44.54
  Q 495.70 32.49 491.28 22.03
  A 0.59 0.59 0.0 0 0 490.73 21.66
  L 477.44 21.66
  A 0.58 0.58 0.0 0 0 476.86 22.24
  L 476.86 64.64
  A 0.56 0.56 0.0 0 0 477.42 65.20
  L 486.89 65.20
  A 0.59 0.59 0.0 0 0 487.48 64.61
  L 487.48 34.30
  A 0.19 0.19 0.0 0 1 487.84 34.23
  L 497.22 56.15
  A 1.06 1.03 -3.9 0 0 497.93 56.76
  Q 498.14 56.81 501.05 56.81"
/>
<path stroke="#839bb1" vector-effect="non-scaling-stroke" d="
  M 403.42 46.72
  Q 410.89 46.73 411.28 46.73
  A 0.42 0.41 0.9 0 1 411.69 47.15
  L 411.68 64.63
  A 0.57 0.57 0.0 0 0 412.25 65.19
  L 422.30 65.20
  A 0.61 0.60 -90.0 0 0 422.90 64.59
  L 422.90 22.29
  A 0.62 0.61 -90.0 0 0 422.29 21.67
  L 412.30 21.67
  A 0.61 0.61 0.0 0 0 411.69 22.28
  L 411.69 37.58
  A 0.69 0.69 0.0 0 1 411.00 38.28
  Q 410.40 38.28 403.42 38.28
  Q 396.44 38.28 395.83 38.27
  A 0.69 0.69 0.0 0 1 395.15 37.58
  L 395.15 22.28
  A 0.61 0.61 0.0 0 0 394.54 21.67
  L 384.55 21.67
  A 0.62 0.61 -90.0 0 0 383.94 22.29
  L 383.93 64.58
  A 0.61 0.60 -90.0 0 0 384.53 65.19
  L 394.57 65.19
  A 0.57 0.57 0.0 0 0 395.14 64.62
  L 395.14 47.14
  A 0.42 0.41 -0.8 0 1 395.55 46.73
  Q 395.95 46.72 403.42 46.72"
/>
<path stroke="#839bb1" vector-effect="non-scaling-stroke" d="
  M 465.87 22.06
  A 0.38 0.38 0.0 0 0 465.49 21.68
  L 455.03 21.68
  A 0.38 0.38 0.0 0 0 454.65 22.06
  L 454.65 64.82
  A 0.38 0.38 0.0 0 0 455.03 65.20
  L 465.49 65.20
  A 0.38 0.38 0.0 0 0 465.87 64.82
  L 465.87 22.06"
/>
<path stroke="#839bb1" vector-effect="non-scaling-stroke" d="
  M 547.45 64.62
  L 547.45 50.68
  A 0.60 0.59 -0.0 0 1 548.05 50.09
  Q 557.35 50.06 559.03 49.80
  Q 572.08 47.81 571.98 35.59
  C 571.92 27.49 566.32 22.47 558.49 21.92
  Q 552.79 21.51 536.82 21.70
  A 0.61 0.61 0.0 0 0 536.22 22.31
  L 536.22 64.63
  A 0.57 0.57 0.0 0 0 536.79 65.20
  L 546.87 65.20
  A 0.58 0.58 0.0 0 0 547.45 64.62"
/>
<path stroke="#839bb1" vector-effect="non-scaling-stroke" d="
  M 592.10 57.27
  Q 599.38 57.27 600.17 57.27
  A 0.93 0.92 -9.7 0 1 601.02 57.87
  L 603.56 64.73
  A 0.70 0.70 0.0 0 0 604.22 65.19
  L 614.20 65.19
  A 0.50 0.50 0.0 0 0 614.67 64.52
  L 599.04 22.37
  A 0.93 0.92 -8.6 0 0 598.20 21.76
  Q 595.54 21.66 592.10 21.67
  Q 588.67 21.67 586.01 21.76
  A 0.93 0.92 8.6 0 0 585.17 22.37
  L 569.54 64.52
  A 0.50 0.50 0.0 0 0 570.01 65.19
  L 579.99 65.19
  A 0.70 0.70 0.0 0 0 580.65 64.73
  L 583.19 57.87
  A 0.93 0.92 9.7 0 1 584.04 57.27
  Q 584.83 57.27 592.10 57.27"
/>
<path stroke="#839bb1" vector-effect="non-scaling-stroke" d="
  M 679.33 65.19
  Q 683.62 65.19 684.28 65.18
  A 0.67 0.67 0.0 0 0 684.94 64.51
  L 684.94 30.55
  A 0.42 0.42 0.0 0 1 685.36 30.13
  L 699.08 30.13
  A 0.30 0.30 0.0 0 0 699.38 29.83
  L 699.38 21.98
  A 0.31 0.30 0.4 0 0 699.08 21.68
  Q 692.45 21.66 679.33 21.67
  Q 666.22 21.66 659.59 21.68
  A 0.31 0.30 -0.4 0 0 659.29 21.98
  L 659.29 29.83
  A 0.30 0.30 0.0 0 0 659.59 30.13
  L 673.31 30.13
  A 0.42 0.42 0.0 0 1 673.73 30.55
  L 673.73 64.51
  A 0.67 0.67 0.0 0 0 674.39 65.18
  Q 675.05 65.19 679.33 65.19"
/>
<path stroke="#839bb1" vector-effect="non-scaling-stroke" d="
  M 366.68 111.30
  A 16.07 16.07 0.0 0 0 350.61 95.23
  L 347.25 95.23
  A 16.07 16.07 0.0 0 0 331.18 111.30
  L 331.18 114.94
  A 16.07 16.07 0.0 0 0 347.25 131.01
  L 350.61 131.01
  A 16.07 16.07 0.0 0 0 366.68 114.94
  L 366.68 111.30"
/>
<path stroke="#839bb1" vector-effect="non-scaling-stroke" d="
  M 437.84 128.27
  A 0.41 0.40 10.5 0 0 438.11 128.65
  C 445.69 131.57 462.67 134.12 464.61 122.47
  Q 466.23 112.75 457.32 110.35
  Q 451.90 108.89 448.20 108.13
  Q 445.44 107.55 445.74 104.58
  C 445.93 102.74 448.03 101.95 449.63 101.78
  Q 455.92 101.15 462.43 104.17
  A 0.13 0.13 0.0 0 0 462.61 104.05
  L 462.61 97.19
  A 0.28 0.28 0.0 0 0 462.41 96.92
  C 454.71 94.59 439.87 92.77 437.86 103.34
  Q 436.10 112.57 445.18 115.34
  C 448.24 116.28 452.41 116.59 455.26 118.44
  A 1.63 1.59 8.6 0 1 455.92 119.31
  Q 457.04 122.98 453.79 124.03
  Q 447.78 125.99 438.13 121.23
  A 0.20 0.19 13.4 0 0 437.84 121.40
  L 437.84 128.27"
/>
<path stroke="#839bb1" vector-effect="non-scaling-stroke" d="
  M 469.94 128.26
  A 0.41 0.40 10.5 0 0 470.21 128.64
  C 477.78 131.56 494.76 134.13 496.71 122.48
  Q 498.34 112.76 489.43 110.36
  Q 484.01 108.89 480.31 108.13
  Q 477.56 107.55 477.86 104.58
  C 478.05 102.74 480.15 101.95 481.75 101.78
  Q 488.04 101.16 494.55 104.18
  A 0.13 0.13 0.0 0 0 494.73 104.06
  L 494.73 97.20
  A 0.28 0.28 0.0 0 0 494.53 96.93
  C 486.84 94.59 472.00 92.76 469.98 103.33
  Q 468.21 112.56 477.29 115.33
  C 480.35 116.28 484.52 116.59 487.37 118.44
  A 1.63 1.59 8.6 0 1 488.02 119.31
  Q 489.14 122.98 485.89 124.03
  Q 479.88 125.99 470.23 121.22
  A 0.20 0.19 13.5 0 0 469.94 121.39
  L 469.94 128.26"
/>
<path stroke="#839bb1" vector-effect="non-scaling-stroke" d="
  M 556.1353 111.4449
  A 16.06 16.06 0.0 0 0 540.2161 95.2453
  L 536.8562 95.2160
  A 16.06 16.06 0.0 0 0 520.6566 111.1353
  L 520.6247 114.7951
  A 16.06 16.06 0.0 0 0 536.5439 130.9947
  L 539.9038 131.0240
  A 16.06 16.06 0.0 0 0 556.1034 115.1047
  L 556.1353 111.4449"
/>
<path stroke="#839bb1" vector-effect="non-scaling-stroke" d="
  M 669.23 128.28
  A 0.41 0.40 10.4 0 0 669.50 128.66
  C 677.08 131.57 694.06 134.11 695.99 122.46
  Q 697.61 112.74 688.70 110.35
  Q 683.28 108.89 679.58 108.13
  Q 676.82 107.56 677.12 104.59
  C 677.31 102.75 679.41 101.95 681.01 101.78
  Q 687.29 101.15 693.81 104.17
  A 0.13 0.13 0.0 0 0 693.98 104.05
  L 693.98 97.19
  A 0.28 0.28 0.0 0 0 693.78 96.92
  C 686.08 94.59 671.24 92.78 669.24 103.35
  Q 667.48 112.58 676.56 115.34
  C 679.62 116.28 683.79 116.59 686.64 118.44
  A 1.63 1.59 8.5 0 1 687.30 119.31
  Q 688.43 122.98 685.18 124.03
  Q 679.17 125.99 669.52 121.24
  A 0.20 0.19 13.4 0 0 669.23 121.41
  L 669.23 128.28"
/>
<path stroke="#839bb1" vector-effect="non-scaling-stroke" d="
  M 261.63 96.53
  L 261.63 130.08
  A 0.32 0.32 0.0 0 0 261.95 130.40
  L 270.30 130.40
  A 0.27 0.27 0.0 0 0 270.57 130.13
  L 270.57 118.97
  A 0.62 0.62 0.0 0 1 271.21 118.35
  C 279.70 118.66 290.17 118.23 290.12 107.06
  C 290.07 97.73 282.43 95.54 274.23 95.77
  Q 270.85 95.87 262.41 95.76
  A 0.77 0.77 0.0 0 0 261.63 96.53"
/>
<path stroke="#839bb1" vector-effect="non-scaling-stroke" d="
  M 317.35 114.00
  Q 323.10 111.88 323.34 105.82
  C 323.61 99.11 319.12 96.29 313.01 95.92
  Q 310.17 95.75 297.09 95.81
  A 0.62 0.62 0.0 0 0 296.48 96.43
  L 296.48 130.10
  A 0.30 0.30 0.0 0 0 296.78 130.40
  L 305.16 130.40
  A 0.26 0.26 0.0 0 0 305.42 130.14
  L 305.42 118.06
  A 0.65 0.64 85.3 0 1 305.95 117.42
  Q 311.33 116.48 313.63 121.06
  Q 316.42 126.62 318.13 130.17
  A 0.41 0.40 -12.5 0 0 318.50 130.40
  L 327.53 130.40
  A 0.13 0.13 0.0 0 0 327.65 130.21
  Q 325.61 125.83 322.04 118.98
  Q 320.40 115.82 317.34 114.49
  A 0.27 0.26 46.8 0 1 317.35 114.00"
/>
<path stroke="#839bb1" vector-effect="non-scaling-stroke" d="
  M 397.65 96.12
  A 0.32 0.32 0.0 0 0 397.33 95.80
  L 373.85 95.80
  A 0.32 0.32 0.0 0 0 373.53 96.12
  L 373.53 130.08
  A 0.32 0.32 0.0 0 0 373.85 130.40
  L 382.15 130.40
  A 0.32 0.32 0.0 0 0 382.47 130.08
  L 382.47 116.05
  A 0.32 0.32 0.0 0 1 382.79 115.73
  L 396.42 115.73
  A 0.32 0.32 0.0 0 0 396.74 115.41
  L 396.74 109.31
  A 0.32 0.32 0.0 0 0 396.42 108.99
  L 382.78 108.99
  A 0.32 0.32 0.0 0 1 382.46 108.67
  L 382.46 102.86
  A 0.32 0.32 0.0 0 1 382.78 102.54
  L 397.33 102.54
  A 0.32 0.32 0.0 0 0 397.65 102.22
  L 397.65 96.12"
/>
<path stroke="#839bb1" vector-effect="non-scaling-stroke" d="
  M 428.89 115.73
  A 0.33 0.33 0.0 0 0 429.22 115.40
  L 429.22 109.32
  A 0.33 0.33 0.0 0 0 428.89 108.99
  L 415.27 108.99
  A 0.33 0.33 0.0 0 1 414.94 108.66
  L 414.94 102.87
  A 0.33 0.33 0.0 0 1 415.27 102.54
  L 429.81 102.54
  A 0.33 0.33 0.0 0 0 430.14 102.21
  L 430.14 96.13
  A 0.33 0.33 0.0 0 0 429.81 95.80
  L 406.34 95.80
  A 0.33 0.33 0.0 0 0 406.01 96.13
  L 406.01 130.07
  A 0.33 0.33 0.0 0 0 406.34 130.40
  L 430.31 130.40
  A 0.33 0.33 0.0 0 0 430.64 130.07
  L 430.64 124.00
  A 0.33 0.33 0.0 0 0 430.31 123.67
  L 415.27 123.67
  A 0.33 0.33 0.0 0 1 414.94 123.34
  L 414.94 116.06
  A 0.33 0.33 0.0 0 1 415.27 115.73
  L 428.89 115.73"
/>
<path stroke="#839bb1" vector-effect="non-scaling-stroke" d="
  M 513.80 96.10
  A 0.30 0.30 0.0 0 0 513.50 95.80
  L 505.16 95.80
  A 0.30 0.30 0.0 0 0 504.86 96.10
  L 504.86 130.10
  A 0.30 0.30 0.0 0 0 505.16 130.40
  L 513.50 130.40
  A 0.30 0.30 0.0 0 0 513.80 130.10
  L 513.80 96.10"
/>
<path stroke="#839bb1" vector-effect="non-scaling-stroke" d="
  M 575.66 114.60
  Q 583.41 129.13 583.79 129.82
  A 1.14 1.12 -14.3 0 0 584.78 130.40
  L 593.44 130.40
  A 0.61 0.61 0.0 0 0 594.05 129.79
  L 594.05 96.12
  A 0.32 0.32 0.0 0 0 593.73 95.80
  L 585.87 95.80
  A 0.31 0.30 -90.0 0 0 585.57 96.11
  L 585.57 118.74
  A 0.19 0.19 0.0 0 1 585.22 118.83
  Q 583.38 115.40 581.35 111.61
  Q 573.60 97.07 573.22 96.38
  A 1.14 1.12 -14.3 0 0 572.23 95.80
  L 563.57 95.80
  A 0.61 0.61 0.0 0 0 562.96 96.41
  L 562.96 130.08
  A 0.32 0.32 0.0 0 0 563.28 130.40
  L 571.14 130.40
  A 0.31 0.30 -90.0 0 0 571.44 130.09
  L 571.44 107.46
  A 0.19 0.19 0.0 0 1 571.79 107.37
  Q 573.63 110.80 575.66 114.60"
/>
<path stroke="#839bb1" vector-effect="non-scaling-stroke" d="
  M 616.80 124.13
  Q 622.28 124.13 623.13 124.15
  A 0.90 0.89 -9.3 0 1 623.95 124.73
  L 625.62 129.23
  A 1.79 1.79 0.0 0 0 627.30 130.40
  L 633.90 130.40
  A 0.75 0.74 -10.1 0 0 634.60 129.40
  L 622.37 96.42
  A 0.85 0.85 0.0 0 0 621.62 95.86
  Q 620.80 95.81 616.80 95.81
  Q 612.81 95.81 611.99 95.86
  A 0.85 0.85 0.0 0 0 611.24 96.42
  L 599.01 129.40
  A 0.75 0.74 10.1 0 0 599.71 130.40
  L 606.31 130.40
  A 1.79 1.79 0.0 0 0 607.99 129.23
  L 609.66 124.73
  A 0.90 0.89 9.3 0 1 610.47 124.15
  Q 611.33 124.13 616.80 124.13"
/>
<path stroke="#839bb1" vector-effect="non-scaling-stroke" d="
  M 648.52 96.11
  A 0.31 0.31 0.0 0 0 648.21 95.80
  L 639.88 95.80
  A 0.31 0.31 0.0 0 0 639.57 96.11
  L 639.57 130.09
  A 0.31 0.31 0.0 0 0 639.88 130.40
  L 663.89 130.40
  A 0.31 0.31 0.0 0 0 664.20 130.09
  L 664.20 123.98
  A 0.31 0.31 0.0 0 0 663.89 123.67
  L 648.83 123.67
  A 0.31 0.31 0.0 0 1 648.52 123.36
  L 648.52 96.11"
/>
<path stroke="#839bb1" vector-effect="non-scaling-stroke" d="
  M 66.45 76.61
  Q 78.57 76.61 78.92 76.63
  A 0.68 0.67 -88.2 0 1 79.55 77.31
  L 79.55 105.38
  A 0.43 0.42 0.0 0 0 79.98 105.80
  L 96.98 105.80
  A 0.34 0.33 -90.0 0 0 97.31 105.46
  L 97.31 37.65
  A 0.65 0.64 90.0 0 0 96.67 37.00
  L 80.14 37.00
  A 0.58 0.58 0.0 0 0 79.56 37.58
  L 79.56 62.52
  A 0.65 0.64 -0.5 0 1 78.92 63.16
  Q 77.44 63.19 66.45 63.19
  Q 55.47 63.19 53.98 63.16
  A 0.65 0.64 0.5 0 1 53.34 62.52
  L 53.35 37.58
  A 0.58 0.58 0.0 0 0 52.77 37.00
  L 36.24 37.00
  A 0.65 0.64 -90.0 0 0 35.60 37.65
  L 35.59 105.46
  A 0.34 0.33 -90.0 0 0 35.92 105.80
  L 52.92 105.80
  A 0.43 0.42 0.0 0 0 53.35 105.38
  L 53.35 77.31
  A 0.68 0.67 88.2 0 1 53.98 76.63
  Q 54.33 76.60 66.45 76.61"
/>
<path stroke="#839bb1" vector-effect="non-scaling-stroke" d="
  M 132.40 37.36
  A 0.37 0.37 0.0 0 0 132.03 36.99
  L 115.01 36.99
  A 0.37 0.37 0.0 0 0 114.64 37.36
  L 114.64 105.42
  A 0.37 0.37 0.0 0 0 115.01 105.79
  L 132.03 105.79
  A 0.37 0.37 0.0 0 0 132.40 105.42
  L 132.40 37.36"
/>
<path stroke="#839bb1" vector-effect="non-scaling-stroke" d="
  M 167.55 105.18
  L 167.55 82.53
  A 0.63 0.62 -0.0 0 1 168.18 81.91
  C 182.14 82.02 202.27 83.24 205.91 64.96
  C 209.24 48.27 198.49 37.40 182.24 37.12
  Q 169.51 36.90 150.03 37.05
  A 0.24 0.23 90.0 0 0 149.80 37.29
  L 149.80 105.48
  A 0.33 0.32 90.0 0 0 150.12 105.81
  L 166.92 105.81
  A 0.63 0.63 0.0 0 0 167.55 105.18"
/>
<path stroke="#839bb1" vector-effect="non-scaling-stroke" d="
  M 547.45 30.30
  L 547.45 41.44
  A 0.48 0.48 0.0 0 0 547.93 41.92
  L 554.39 41.92
  A 6.04 5.51 0.0 0 0 560.43 36.41
  L 560.43 35.33
  A 6.04 5.51 0.0 0 0 554.39 29.82
  L 547.93 29.82
  A 0.48 0.48 0.0 0 0 547.45 30.30"
/>
<path stroke="#839bb1" vector-effect="non-scaling-stroke" d="
  M 586.29 48.79
  A 0.31 0.31 0.0 0 0 586.58 49.20
  L 597.64 49.20
  A 0.31 0.31 0.0 0 0 597.93 48.79
  L 592.40 32.75
  A 0.31 0.31 0.0 0 0 591.82 32.75
  L 586.29 48.79"
/>
<path stroke="#839bb1" vector-effect="non-scaling-stroke" d="
  M 167.59 50.13
  L 167.53 68.71
  A 0.29 0.29 0.0 0 0 167.82 69.01
  L 178.62 69.04
  A 9.47 8.84 0.2 0 0 188.12 60.24
  L 188.12 58.76
  A 9.47 8.84 0.2 0 0 178.68 49.88
  L 167.88 49.85
  A 0.29 0.29 0.0 0 0 167.59 50.13"
/>
<path stroke="#839bb1" vector-effect="non-scaling-stroke" d="
  M 340.37 113.11
  C 340.37 118.63 342.34 124.58 348.94 124.59
  C 355.53 124.59 357.52 118.65 357.52 113.13
  C 357.52 107.61 355.55 101.66 348.95 101.65
  C 342.36 101.65 340.38 107.60 340.37 113.11"
/>
<path stroke="#839bb1" vector-effect="non-scaling-stroke" d="
  M 529.82 113.12
  C 529.82 118.63 531.79 124.58 538.39 124.58
  C 544.98 124.59 546.96 118.64 546.96 113.12
  C 546.96 107.60 544.99 101.65 538.39 101.65
  C 531.80 101.65 529.82 107.60 529.82 113.12"
/>
<path stroke="#839bb1" vector-effect="non-scaling-stroke" d="
  M 270.55 102.63
  L 270.59 111.59
  A 0.34 0.34 0.0 0 0 270.93 111.93
  L 276.21 111.91
  A 4.74 4.49 -0.2 0 0 280.93 107.40
  L 280.93 106.74
  A 4.74 4.49 -0.2 0 0 276.17 102.27
  L 270.89 102.29
  A 0.34 0.34 0.0 0 0 270.55 102.63"
/>
<path stroke="#839bb1" vector-effect="non-scaling-stroke" d="
  M 305.41 102.69
  L 305.43 110.75
  A 0.38 0.38 0.0 0 0 305.82 111.12
  L 310.33 111.11
  A 4.09 3.81 -0.2 0 0 314.40 107.28
  L 314.40 106.08
  A 4.09 3.81 -0.2 0 0 310.29 102.29
  L 305.78 102.30
  A 0.38 0.38 0.0 0 0 305.41 102.69"
/>
<path stroke="#839bb1" vector-effect="non-scaling-stroke" d="
  M 612.22 117.24
  A 0.32 0.32 0.0 0 0 612.52 117.67
  L 621.10 117.67
  A 0.32 0.32 0.0 0 0 621.40 117.24
  L 617.11 104.78
  A 0.32 0.32 0.0 0 0 616.51 104.78
  L 612.22 117.24"
/>
</g>
<path fill="#073763" d="
  M 233.39 0.00
  Q 234.94 0.32 236.47 0.00
  L 724.75 0.00
  Q 728.77 0.90 730.00 5.19
  L 730.00 146.68
  Q 728.89 151.04 724.77 152.00
  L 236.59 152.00
  Q 235.02 151.68 233.49 152.00
  L 4.54 152.00
  Q 1.09 150.84 0.00 147.56
  L 0.00 4.76
  Q 0.78 1.32 4.54 0.00
  L 233.39 0.00
  Z
  M 226.81 11.58
  A 0.44 0.44 0.0 0 0 226.37 11.14
  L 11.55 11.14
  A 0.44 0.44 0.0 0 0 11.11 11.58
  L 11.11 140.42
  A 0.44 0.44 0.0 0 0 11.55 140.86
  L 226.37 140.86
  A 0.44 0.44 0.0 0 0 226.81 140.42
  L 226.81 11.58
  Z
  M 374.06 41.36
  A 0.37 0.37 0.0 0 0 373.69 40.99
  L 356.99 40.99
  A 0.42 0.42 0.0 0 0 356.57 41.41
  L 356.57 48.15
  A 0.39 0.38 0.0 0 0 356.96 48.53
  L 362.87 48.53
  A 0.55 0.55 0.0 0 1 363.42 49.08
  L 363.42 56.42
  A 0.91 0.91 0.0 0 1 362.66 57.32
  C 354.73 58.76 347.05 57.28 344.78 48.94
  C 342.66 41.13 344.87 30.77 354.42 29.39
  Q 363.55 28.07 372.30 33.10
  A 0.09 0.09 0.0 0 0 372.44 33.02
  L 372.44 24.44
  A 0.43 0.42 11.6 0 0 372.18 24.05
  C 359.34 18.45 337.88 19.16 333.42 36.13
  C 328.98 53.01 339.27 66.91 357.06 65.95
  Q 367.67 65.38 373.68 61.93
  A 0.78 0.76 75.4 0 0 374.06 61.26
  L 374.06 41.36
  Z
  M 618.18 43.45
  C 618.17 51.05 620.88 57.90 627.34 62.15
  C 635.07 67.24 646.79 67.11 654.92 62.86
  A 0.46 0.45 -14.4 0 0 655.16 62.46
  L 655.16 53.87
  A 0.08 0.08 0.0 0 0 655.03 53.80
  C 644.54 61.28 629.80 58.96 629.81 43.46
  C 629.81 27.95 644.55 25.63 655.04 33.12
  A 0.08 0.08 0.0 0 0 655.16 33.05
  L 655.17 24.46
  A 0.46 0.45 14.4 0 0 654.93 24.06
  C 646.80 19.81 635.08 19.67 627.34 24.76
  C 620.89 29.01 618.18 35.85 618.18 43.45
  Z
  M 282.30 46.73
  Q 289.78 46.73 290.17 46.74
  A 0.42 0.41 0.8 0 1 290.58 47.15
  L 290.58 64.64
  A 0.57 0.57 0.0 0 0 291.15 65.21
  L 301.20 65.21
  A 0.61 0.60 -90.0 0 0 301.80 64.60
  L 301.80 22.28
  A 0.62 0.61 90.0 0 0 301.19 21.66
  L 291.19 21.66
  A 0.61 0.61 0.0 0 0 290.58 22.27
  L 290.58 37.58
  A 0.69 0.69 0.0 0 1 289.89 38.27
  Q 289.29 38.28 282.30 38.28
  Q 275.32 38.28 274.72 38.27
  A 0.69 0.69 0.0 0 1 274.03 37.58
  L 274.03 22.27
  A 0.61 0.61 0.0 0 0 273.42 21.66
  L 263.42 21.66
  A 0.62 0.61 -90.0 0 0 262.81 22.28
  L 262.80 64.60
  A 0.61 0.60 -90.0 0 0 263.40 65.21
  L 273.45 65.21
  A 0.57 0.57 0.0 0 0 274.02 64.64
  L 274.03 47.15
  A 0.42 0.41 -0.8 0 1 274.43 46.74
  Q 274.83 46.73 282.30 46.73
  Z
  M 323.95 21.98
  A 0.31 0.31 0.0 0 0 323.64 21.67
  L 313.06 21.67
  A 0.31 0.31 0.0 0 0 312.75 21.98
  L 312.75 64.88
  A 0.31 0.31 0.0 0 0 313.06 65.19
  L 323.64 65.19
  A 0.31 0.31 0.0 0 0 323.95 64.88
  L 323.95 21.98
  Z
  M 501.05 56.81
  Q 503.97 56.81 504.18 56.76
  A 1.06 1.03 3.9 0 0 504.89 56.15
  L 514.27 34.23
  A 0.19 0.19 0.0 0 1 514.63 34.30
  L 514.63 64.61
  A 0.59 0.59 0.0 0 0 515.22 65.20
  L 524.69 65.20
  A 0.56 0.56 0.0 0 0 525.25 64.64
  L 525.25 22.24
  A 0.58 0.58 0.0 0 0 524.67 21.66
  L 511.38 21.66
  A 0.59 0.59 0.0 0 0 510.83 22.03
  Q 506.41 32.49 501.21 44.54
  Q 501.18 44.61 501.05 44.61
  Q 500.92 44.61 500.90 44.54
  Q 495.70 32.49 491.28 22.03
  A 0.59 0.59 0.0 0 0 490.73 21.66
  L 477.44 21.66
  A 0.58 0.58 0.0 0 0 476.86 22.24
  L 476.86 64.64
  A 0.56 0.56 0.0 0 0 477.42 65.20
  L 486.89 65.20
  A 0.59 0.59 0.0 0 0 487.48 64.61
  L 487.48 34.30
  A 0.19 0.19 0.0 0 1 487.84 34.23
  L 497.22 56.15
  A 1.06 1.03 -3.9 0 0 497.93 56.76
  Q 498.14 56.81 501.05 56.81
  Z
  M 403.42 46.72
  Q 410.89 46.73 411.28 46.73
  A 0.42 0.41 0.9 0 1 411.69 47.15
  L 411.68 64.63
  A 0.57 0.57 0.0 0 0 412.25 65.19
  L 422.30 65.20
  A 0.61 0.60 -90.0 0 0 422.90 64.59
  L 422.90 22.29
  A 0.62 0.61 -90.0 0 0 422.29 21.67
  L 412.30 21.67
  A 0.61 0.61 0.0 0 0 411.69 22.28
  L 411.69 37.58
  A 0.69 0.69 0.0 0 1 411.00 38.28
  Q 410.40 38.28 403.42 38.28
  Q 396.44 38.28 395.83 38.27
  A 0.69 0.69 0.0 0 1 395.15 37.58
  L 395.15 22.28
  A 0.61 0.61 0.0 0 0 394.54 21.67
  L 384.55 21.67
  A 0.62 0.61 -90.0 0 0 383.94 22.29
  L 383.93 64.58
  A 0.61 0.60 -90.0 0 0 384.53 65.19
  L 394.57 65.19
  A 0.57 0.57 0.0 0 0 395.14 64.62
  L 395.14 47.14
  A 0.42 0.41 -0.8 0 1 395.55 46.73
  Q 395.95 46.72 403.42 46.72
  Z
  M 465.87 22.06
  A 0.38 0.38 0.0 0 0 465.49 21.68
  L 455.03 21.68
  A 0.38 0.38 0.0 0 0 454.65 22.06
  L 454.65 64.82
  A 0.38 0.38 0.0 0 0 455.03 65.20
  L 465.49 65.20
  A 0.38 0.38 0.0 0 0 465.87 64.82
  L 465.87 22.06
  Z
  M 547.45 64.62
  L 547.45 50.68
  A 0.60 0.59 -0.0 0 1 548.05 50.09
  Q 557.35 50.06 559.03 49.80
  Q 572.08 47.81 571.98 35.59
  C 571.92 27.49 566.32 22.47 558.49 21.92
  Q 552.79 21.51 536.82 21.70
  A 0.61 0.61 0.0 0 0 536.22 22.31
  L 536.22 64.63
  A 0.57 0.57 0.0 0 0 536.79 65.20
  L 546.87 65.20
  A 0.58 0.58 0.0 0 0 547.45 64.62
  Z
  M 592.10 57.27
  Q 599.38 57.27 600.17 57.27
  A 0.93 0.92 -9.7 0 1 601.02 57.87
  L 603.56 64.73
  A 0.70 0.70 0.0 0 0 604.22 65.19
  L 614.20 65.19
  A 0.50 0.50 0.0 0 0 614.67 64.52
  L 599.04 22.37
  A 0.93 0.92 -8.6 0 0 598.20 21.76
  Q 595.54 21.66 592.10 21.67
  Q 588.67 21.67 586.01 21.76
  A 0.93 0.92 8.6 0 0 585.17 22.37
  L 569.54 64.52
  A 0.50 0.50 0.0 0 0 570.01 65.19
  L 579.99 65.19
  A 0.70 0.70 0.0 0 0 580.65 64.73
  L 583.19 57.87
  A 0.93 0.92 9.7 0 1 584.04 57.27
  Q 584.83 57.27 592.10 57.27
  Z
  M 679.33 65.19
  Q 683.62 65.19 684.28 65.18
  A 0.67 0.67 0.0 0 0 684.94 64.51
  L 684.94 30.55
  A 0.42 0.42 0.0 0 1 685.36 30.13
  L 699.08 30.13
  A 0.30 0.30 0.0 0 0 699.38 29.83
  L 699.38 21.98
  A 0.31 0.30 0.4 0 0 699.08 21.68
  Q 692.45 21.66 679.33 21.67
  Q 666.22 21.66 659.59 21.68
  A 0.31 0.30 -0.4 0 0 659.29 21.98
  L 659.29 29.83
  A 0.30 0.30 0.0 0 0 659.59 30.13
  L 673.31 30.13
  A 0.42 0.42 0.0 0 1 673.73 30.55
  L 673.73 64.51
  A 0.67 0.67 0.0 0 0 674.39 65.18
  Q 675.05 65.19 679.33 65.19
  Z
  M 366.68 111.30
  A 16.07 16.07 0.0 0 0 350.61 95.23
  L 347.25 95.23
  A 16.07 16.07 0.0 0 0 331.18 111.30
  L 331.18 114.94
  A 16.07 16.07 0.0 0 0 347.25 131.01
  L 350.61 131.01
  A 16.07 16.07 0.0 0 0 366.68 114.94
  L 366.68 111.30
  Z
  M 437.84 128.27
  A 0.41 0.40 10.5 0 0 438.11 128.65
  C 445.69 131.57 462.67 134.12 464.61 122.47
  Q 466.23 112.75 457.32 110.35
  Q 451.90 108.89 448.20 108.13
  Q 445.44 107.55 445.74 104.58
  C 445.93 102.74 448.03 101.95 449.63 101.78
  Q 455.92 101.15 462.43 104.17
  A 0.13 0.13 0.0 0 0 462.61 104.05
  L 462.61 97.19
  A 0.28 0.28 0.0 0 0 462.41 96.92
  C 454.71 94.59 439.87 92.77 437.86 103.34
  Q 436.10 112.57 445.18 115.34
  C 448.24 116.28 452.41 116.59 455.26 118.44
  A 1.63 1.59 8.6 0 1 455.92 119.31
  Q 457.04 122.98 453.79 124.03
  Q 447.78 125.99 438.13 121.23
  A 0.20 0.19 13.4 0 0 437.84 121.40
  L 437.84 128.27
  Z
  M 469.94 128.26
  A 0.41 0.40 10.5 0 0 470.21 128.64
  C 477.78 131.56 494.76 134.13 496.71 122.48
  Q 498.34 112.76 489.43 110.36
  Q 484.01 108.89 480.31 108.13
  Q 477.56 107.55 477.86 104.58
  C 478.05 102.74 480.15 101.95 481.75 101.78
  Q 488.04 101.16 494.55 104.18
  A 0.13 0.13 0.0 0 0 494.73 104.06
  L 494.73 97.20
  A 0.28 0.28 0.0 0 0 494.53 96.93
  C 486.84 94.59 472.00 92.76 469.98 103.33
  Q 468.21 112.56 477.29 115.33
  C 480.35 116.28 484.52 116.59 487.37 118.44
  A 1.63 1.59 8.6 0 1 488.02 119.31
  Q 489.14 122.98 485.89 124.03
  Q 479.88 125.99 470.23 121.22
  A 0.20 0.19 13.5 0 0 469.94 121.39
  L 469.94 128.26
  Z
  M 556.1353 111.4449
  A 16.06 16.06 0.0 0 0 540.2161 95.2453
  L 536.8562 95.2160
  A 16.06 16.06 0.0 0 0 520.6566 111.1353
  L 520.6247 114.7951
  A 16.06 16.06 0.0 0 0 536.5439 130.9947
  L 539.9038 131.0240
  A 16.06 16.06 0.0 0 0 556.1034 115.1047
  L 556.1353 111.4449
  Z
  M 669.23 128.28
  A 0.41 0.40 10.4 0 0 669.50 128.66
  C 677.08 131.57 694.06 134.11 695.99 122.46
  Q 697.61 112.74 688.70 110.35
  Q 683.28 108.89 679.58 108.13
  Q 676.82 107.56 677.12 104.59
  C 677.31 102.75 679.41 101.95 681.01 101.78
  Q 687.29 101.15 693.81 104.17
  A 0.13 0.13 0.0 0 0 693.98 104.05
  L 693.98 97.19
  A 0.28 0.28 0.0 0 0 693.78 96.92
  C 686.08 94.59 671.24 92.78 669.24 103.35
  Q 667.48 112.58 676.56 115.34
  C 679.62 116.28 683.79 116.59 686.64 118.44
  A 1.63 1.59 8.5 0 1 687.30 119.31
  Q 688.43 122.98 685.18 124.03
  Q 679.17 125.99 669.52 121.24
  A 0.20 0.19 13.4 0 0 669.23 121.41
  L 669.23 128.28
  Z
  M 261.63 96.53
  L 261.63 130.08
  A 0.32 0.32 0.0 0 0 261.95 130.40
  L 270.30 130.40
  A 0.27 0.27 0.0 0 0 270.57 130.13
  L 270.57 118.97
  A 0.62 0.62 0.0 0 1 271.21 118.35
  C 279.70 118.66 290.17 118.23 290.12 107.06
  C 290.07 97.73 282.43 95.54 274.23 95.77
  Q 270.85 95.87 262.41 95.76
  A 0.77 0.77 0.0 0 0 261.63 96.53
  Z
  M 317.35 114.00
  Q 323.10 111.88 323.34 105.82
  C 323.61 99.11 319.12 96.29 313.01 95.92
  Q 310.17 95.75 297.09 95.81
  A 0.62 0.62 0.0 0 0 296.48 96.43
  L 296.48 130.10
  A 0.30 0.30 0.0 0 0 296.78 130.40
  L 305.16 130.40
  A 0.26 0.26 0.0 0 0 305.42 130.14
  L 305.42 118.06
  A 0.65 0.64 85.3 0 1 305.95 117.42
  Q 311.33 116.48 313.63 121.06
  Q 316.42 126.62 318.13 130.17
  A 0.41 0.40 -12.5 0 0 318.50 130.40
  L 327.53 130.40
  A 0.13 0.13 0.0 0 0 327.65 130.21
  Q 325.61 125.83 322.04 118.98
  Q 320.40 115.82 317.34 114.49
  A 0.27 0.26 46.8 0 1 317.35 114.00
  Z
  M 397.65 96.12
  A 0.32 0.32 0.0 0 0 397.33 95.80
  L 373.85 95.80
  A 0.32 0.32 0.0 0 0 373.53 96.12
  L 373.53 130.08
  A 0.32 0.32 0.0 0 0 373.85 130.40
  L 382.15 130.40
  A 0.32 0.32 0.0 0 0 382.47 130.08
  L 382.47 116.05
  A 0.32 0.32 0.0 0 1 382.79 115.73
  L 396.42 115.73
  A 0.32 0.32 0.0 0 0 396.74 115.41
  L 396.74 109.31
  A 0.32 0.32 0.0 0 0 396.42 108.99
  L 382.78 108.99
  A 0.32 0.32 0.0 0 1 382.46 108.67
  L 382.46 102.86
  A 0.32 0.32 0.0 0 1 382.78 102.54
  L 397.33 102.54
  A 0.32 0.32 0.0 0 0 397.65 102.22
  L 397.65 96.12
  Z
  M 428.89 115.73
  A 0.33 0.33 0.0 0 0 429.22 115.40
  L 429.22 109.32
  A 0.33 0.33 0.0 0 0 428.89 108.99
  L 415.27 108.99
  A 0.33 0.33 0.0 0 1 414.94 108.66
  L 414.94 102.87
  A 0.33 0.33 0.0 0 1 415.27 102.54
  L 429.81 102.54
  A 0.33 0.33 0.0 0 0 430.14 102.21
  L 430.14 96.13
  A 0.33 0.33 0.0 0 0 429.81 95.80
  L 406.34 95.80
  A 0.33 0.33 0.0 0 0 406.01 96.13
  L 406.01 130.07
  A 0.33 0.33 0.0 0 0 406.34 130.40
  L 430.31 130.40
  A 0.33 0.33 0.0 0 0 430.64 130.07
  L 430.64 124.00
  A 0.33 0.33 0.0 0 0 430.31 123.67
  L 415.27 123.67
  A 0.33 0.33 0.0 0 1 414.94 123.34
  L 414.94 116.06
  A 0.33 0.33 0.0 0 1 415.27 115.73
  L 428.89 115.73
  Z
  M 513.80 96.10
  A 0.30 0.30 0.0 0 0 513.50 95.80
  L 505.16 95.80
  A 0.30 0.30 0.0 0 0 504.86 96.10
  L 504.86 130.10
  A 0.30 0.30 0.0 0 0 505.16 130.40
  L 513.50 130.40
  A 0.30 0.30 0.0 0 0 513.80 130.10
  L 513.80 96.10
  Z
  M 575.66 114.60
  Q 583.41 129.13 583.79 129.82
  A 1.14 1.12 -14.3 0 0 584.78 130.40
  L 593.44 130.40
  A 0.61 0.61 0.0 0 0 594.05 129.79
  L 594.05 96.12
  A 0.32 0.32 0.0 0 0 593.73 95.80
  L 585.87 95.80
  A 0.31 0.30 -90.0 0 0 585.57 96.11
  L 585.57 118.74
  A 0.19 0.19 0.0 0 1 585.22 118.83
  Q 583.38 115.40 581.35 111.61
  Q 573.60 97.07 573.22 96.38
  A 1.14 1.12 -14.3 0 0 572.23 95.80
  L 563.57 95.80
  A 0.61 0.61 0.0 0 0 562.96 96.41
  L 562.96 130.08
  A 0.32 0.32 0.0 0 0 563.28 130.40
  L 571.14 130.40
  A 0.31 0.30 -90.0 0 0 571.44 130.09
  L 571.44 107.46
  A 0.19 0.19 0.0 0 1 571.79 107.37
  Q 573.63 110.80 575.66 114.60
  Z
  M 616.80 124.13
  Q 622.28 124.13 623.13 124.15
  A 0.90 0.89 -9.3 0 1 623.95 124.73
  L 625.62 129.23
  A 1.79 1.79 0.0 0 0 627.30 130.40
  L 633.90 130.40
  A 0.75 0.74 -10.1 0 0 634.60 129.40
  L 622.37 96.42
  A 0.85 0.85 0.0 0 0 621.62 95.86
  Q 620.80 95.81 616.80 95.81
  Q 612.81 95.81 611.99 95.86
  A 0.85 0.85 0.0 0 0 611.24 96.42
  L 599.01 129.40
  A 0.75 0.74 10.1 0 0 599.71 130.40
  L 606.31 130.40
  A 1.79 1.79 0.0 0 0 607.99 129.23
  L 609.66 124.73
  A 0.90 0.89 9.3 0 1 610.47 124.15
  Q 611.33 124.13 616.80 124.13
  Z
  M 648.52 96.11
  A 0.31 0.31 0.0 0 0 648.21 95.80
  L 639.88 95.80
  A 0.31 0.31 0.0 0 0 639.57 96.11
  L 639.57 130.09
  A 0.31 0.31 0.0 0 0 639.88 130.40
  L 663.89 130.40
  A 0.31 0.31 0.0 0 0 664.20 130.09
  L 664.20 123.98
  A 0.31 0.31 0.0 0 0 663.89 123.67
  L 648.83 123.67
  A 0.31 0.31 0.0 0 1 648.52 123.36
  L 648.52 96.11
  Z"
/>
<path fill="#ffffff" d="
  M 226.81 140.42
  A 0.44 0.44 0.0 0 1 226.37 140.86
  L 11.55 140.86
  A 0.44 0.44 0.0 0 1 11.11 140.42
  L 11.11 11.58
  A 0.44 0.44 0.0 0 1 11.55 11.14
  L 226.37 11.14
  A 0.44 0.44 0.0 0 1 226.81 11.58
  L 226.81 140.42
  Z
  M 66.45 76.61
  Q 78.57 76.61 78.92 76.63
  A 0.68 0.67 -88.2 0 1 79.55 77.31
  L 79.55 105.38
  A 0.43 0.42 0.0 0 0 79.98 105.80
  L 96.98 105.80
  A 0.34 0.33 -90.0 0 0 97.31 105.46
  L 97.31 37.65
  A 0.65 0.64 90.0 0 0 96.67 37.00
  L 80.14 37.00
  A 0.58 0.58 0.0 0 0 79.56 37.58
  L 79.56 62.52
  A 0.65 0.64 -0.5 0 1 78.92 63.16
  Q 77.44 63.19 66.45 63.19
  Q 55.47 63.19 53.98 63.16
  A 0.65 0.64 0.5 0 1 53.34 62.52
  L 53.35 37.58
  A 0.58 0.58 0.0 0 0 52.77 37.00
  L 36.24 37.00
  A 0.65 0.64 -90.0 0 0 35.60 37.65
  L 35.59 105.46
  A 0.34 0.33 -90.0 0 0 35.92 105.80
  L 52.92 105.80
  A 0.43 0.42 0.0 0 0 53.35 105.38
  L 53.35 77.31
  A 0.68 0.67 88.2 0 1 53.98 76.63
  Q 54.33 76.60 66.45 76.61
  Z
  M 132.40 37.36
  A 0.37 0.37 0.0 0 0 132.03 36.99
  L 115.01 36.99
  A 0.37 0.37 0.0 0 0 114.64 37.36
  L 114.64 105.42
  A 0.37 0.37 0.0 0 0 115.01 105.79
  L 132.03 105.79
  A 0.37 0.37 0.0 0 0 132.40 105.42
  L 132.40 37.36
  Z
  M 167.55 105.18
  L 167.55 82.53
  A 0.63 0.62 -0.0 0 1 168.18 81.91
  C 182.14 82.02 202.27 83.24 205.91 64.96
  C 209.24 48.27 198.49 37.40 182.24 37.12
  Q 169.51 36.90 150.03 37.05
  A 0.24 0.23 90.0 0 0 149.80 37.29
  L 149.80 105.48
  A 0.33 0.32 90.0 0 0 150.12 105.81
  L 166.92 105.81
  A 0.63 0.63 0.0 0 0 167.55 105.18
  Z"
/>
<path fill="#ffffff" d="
  M 374.06 41.36
  L 374.06 61.26
  A 0.78 0.76 75.4 0 1 373.68 61.93
  Q 367.67 65.38 357.06 65.95
  C 339.27 66.91 328.98 53.01 333.42 36.13
  C 337.88 19.16 359.34 18.45 372.18 24.05
  A 0.43 0.42 11.6 0 1 372.44 24.44
  L 372.44 33.02
  A 0.09 0.09 0.0 0 1 372.30 33.10
  Q 363.55 28.07 354.42 29.39
  C 344.87 30.77 342.66 41.13 344.78 48.94
  C 347.05 57.28 354.73 58.76 362.66 57.32
  A 0.91 0.91 0.0 0 0 363.42 56.42
  L 363.42 49.08
  A 0.55 0.55 0.0 0 0 362.87 48.53
  L 356.96 48.53
  A 0.39 0.38 0.0 0 1 356.57 48.15
  L 356.57 41.41
  A 0.42 0.42 0.0 0 1 356.99 40.99
  L 373.69 40.99
  A 0.37 0.37 0.0 0 1 374.06 41.36
  Z"
/>
<path fill="#ffffff" d="
  M 629.81 43.46
  C 629.80 58.96 644.54 61.28 655.03 53.80
  A 0.08 0.08 0.0 0 1 655.16 53.87
  L 655.16 62.46
  A 0.46 0.45 -14.4 0 1 654.92 62.86
  C 646.79 67.11 635.07 67.24 627.34 62.15
  C 620.88 57.90 618.17 51.05 618.18 43.45
  C 618.18 35.85 620.89 29.01 627.34 24.76
  C 635.08 19.67 646.80 19.81 654.93 24.06
  A 0.46 0.45 14.4 0 1 655.17 24.46
  L 655.16 33.05
  A 0.08 0.08 0.0 0 1 655.04 33.12
  C 644.55 25.63 629.81 27.95 629.81 43.46
  Z"
/>
<path fill="#ffffff" d="
  M 282.30 38.28
  Q 289.29 38.28 289.89 38.27
  A 0.69 0.69 0.0 0 0 290.58 37.58
  L 290.58 22.27
  A 0.61 0.61 0.0 0 1 291.19 21.66
  L 301.19 21.66
  A 0.62 0.61 90.0 0 1 301.80 22.28
  L 301.80 64.60
  A 0.61 0.60 90.0 0 1 301.20 65.21
  L 291.15 65.21
  A 0.57 0.57 0.0 0 1 290.58 64.64
  L 290.58 47.15
  A 0.42 0.41 0.8 0 0 290.17 46.74
  Q 289.78 46.73 282.30 46.73
  Q 274.83 46.73 274.43 46.74
  A 0.42 0.41 -0.8 0 0 274.03 47.15
  L 274.02 64.64
  A 0.57 0.57 0.0 0 1 273.45 65.21
  L 263.40 65.21
  A 0.61 0.60 -90.0 0 1 262.80 64.60
  L 262.81 22.28
  A 0.62 0.61 -90.0 0 1 263.42 21.66
  L 273.42 21.66
  A 0.61 0.61 0.0 0 1 274.03 22.27
  L 274.03 37.58
  A 0.69 0.69 0.0 0 0 274.72 38.27
  Q 275.32 38.28 282.30 38.28
  Z"
/>
<rect fill="#ffffff" x="312.75" y="21.67" width="11.20" height="43.52" rx="0.31"/>
<path fill="#ffffff" d="
  M 501.05 44.61
  Q 501.18 44.61 501.21 44.54
  Q 506.41 32.49 510.83 22.03
  A 0.59 0.59 0.0 0 1 511.38 21.66
  L 524.67 21.66
  A 0.58 0.58 0.0 0 1 525.25 22.24
  L 525.25 64.64
  A 0.56 0.56 0.0 0 1 524.69 65.20
  L 515.22 65.20
  A 0.59 0.59 0.0 0 1 514.63 64.61
  L 514.63 34.30
  A 0.19 0.19 0.0 0 0 514.27 34.23
  L 504.89 56.15
  A 1.06 1.03 3.9 0 1 504.18 56.76
  Q 503.97 56.81 501.05 56.81
  Q 498.14 56.81 497.93 56.76
  A 1.06 1.03 -3.9 0 1 497.22 56.15
  L 487.84 34.23
  A 0.19 0.19 0.0 0 0 487.48 34.30
  L 487.48 64.61
  A 0.59 0.59 0.0 0 1 486.89 65.20
  L 477.42 65.20
  A 0.56 0.56 0.0 0 1 476.86 64.64
  L 476.86 22.24
  A 0.58 0.58 0.0 0 1 477.44 21.66
  L 490.73 21.66
  A 0.59 0.59 0.0 0 1 491.28 22.03
  Q 495.70 32.49 500.90 44.54
  Q 500.92 44.61 501.05 44.61
  Z"
/>
<path fill="#ffffff" d="
  M 403.42 46.72
  Q 395.95 46.72 395.55 46.73
  A 0.42 0.41 -0.8 0 0 395.14 47.14
  L 395.14 64.62
  A 0.57 0.57 0.0 0 1 394.57 65.19
  L 384.53 65.19
  A 0.61 0.60 -90.0 0 1 383.93 64.58
  L 383.94 22.29
  A 0.62 0.61 -90.0 0 1 384.55 21.67
  L 394.54 21.67
  A 0.61 0.61 0.0 0 1 395.15 22.28
  L 395.15 37.58
  A 0.69 0.69 0.0 0 0 395.83 38.27
  Q 396.44 38.28 403.42 38.28
  Q 410.40 38.28 411.00 38.28
  A 0.69 0.69 0.0 0 0 411.69 37.58
  L 411.69 22.28
  A 0.61 0.61 0.0 0 1 412.30 21.67
  L 422.29 21.67
  A 0.62 0.61 -90.0 0 1 422.90 22.29
  L 422.90 64.59
  A 0.61 0.60 -90.0 0 1 422.30 65.20
  L 412.25 65.19
  A 0.57 0.57 0.0 0 1 411.68 64.63
  L 411.69 47.15
  A 0.42 0.41 0.9 0 0 411.28 46.73
  Q 410.89 46.73 403.42 46.72
  Z"
/>
<rect fill="#ffffff" x="454.65" y="21.68" width="11.22" height="43.52" rx="0.38"/>
<path fill="#ffffff" d="
  M 546.87 65.20
  L 536.79 65.20
  A 0.57 0.57 0.0 0 1 536.22 64.63
  L 536.22 22.31
  A 0.61 0.61 0.0 0 1 536.82 21.70
  Q 552.79 21.51 558.49 21.92
  C 566.32 22.47 571.92 27.49 571.98 35.59
  Q 572.08 47.81 559.03 49.80
  Q 557.35 50.06 548.05 50.09
  A 0.60 0.59 0.0 0 0 547.45 50.68
  L 547.45 64.62
  A 0.58 0.58 0.0 0 1 546.87 65.20
  Z
  M 547.45 30.30
  L 547.45 41.44
  A 0.48 0.48 0.0 0 0 547.93 41.92
  L 554.39 41.92
  A 6.04 5.51 0.0 0 0 560.43 36.41
  L 560.43 35.33
  A 6.04 5.51 0.0 0 0 554.39 29.82
  L 547.93 29.82
  A 0.48 0.48 0.0 0 0 547.45 30.30
  Z"
/>
<path fill="#ffffff" d="
  M 592.10 21.67
  Q 595.54 21.66 598.20 21.76
  A 0.93 0.92 -8.6 0 1 599.04 22.37
  L 614.67 64.52
  A 0.50 0.50 0.0 0 1 614.20 65.19
  L 604.22 65.19
  A 0.70 0.70 0.0 0 1 603.56 64.73
  L 601.02 57.87
  A 0.93 0.92 -9.7 0 0 600.17 57.27
  Q 599.38 57.27 592.10 57.27
  Q 584.83 57.27 584.04 57.27
  A 0.93 0.92 9.7 0 0 583.19 57.87
  L 580.65 64.73
  A 0.70 0.70 0.0 0 1 579.99 65.19
  L 570.01 65.19
  A 0.50 0.50 0.0 0 1 569.54 64.52
  L 585.17 22.37
  A 0.93 0.92 8.6 0 1 586.01 21.76
  Q 588.67 21.67 592.10 21.67
  Z
  M 586.29 48.79
  A 0.31 0.31 0.0 0 0 586.58 49.20
  L 597.64 49.20
  A 0.31 0.31 0.0 0 0 597.93 48.79
  L 592.40 32.75
  A 0.31 0.31 0.0 0 0 591.82 32.75
  L 586.29 48.79
  Z"
/>
<path fill="#ffffff" d="
  M 679.33 21.67
  Q 692.45 21.66 699.08 21.68
  A 0.31 0.30 0.4 0 1 699.38 21.98
  L 699.38 29.83
  A 0.30 0.30 0.0 0 1 699.08 30.13
  L 685.36 30.13
  A 0.42 0.42 0.0 0 0 684.94 30.55
  L 684.94 64.51
  A 0.67 0.67 0.0 0 1 684.28 65.18
  Q 683.62 65.19 679.33 65.19
  Q 675.05 65.19 674.39 65.18
  A 0.67 0.67 0.0 0 1 673.73 64.51
  L 673.73 30.55
  A 0.42 0.42 0.0 0 0 673.31 30.13
  L 659.59 30.13
  A 0.30 0.30 0.0 0 1 659.29 29.83
  L 659.29 21.98
  A 0.31 0.30 -0.4 0 1 659.59 21.68
  Q 666.22 21.66 679.33 21.67
  Z"
/>
<path fill="#073763" d="
  M 547.45 30.30
  A 0.48 0.48 0.0 0 1 547.93 29.82
  L 554.39 29.82
  A 6.04 5.51 0.0 0 1 560.43 35.33
  L 560.43 36.41
  A 6.04 5.51 -0.0 0 1 554.39 41.92
  L 547.93 41.92
  A 0.48 0.48 0.0 0 1 547.45 41.44
  L 547.45 30.30
  Z"
/>
<path fill="#073763" d="
  M 586.29 48.79
  L 591.82 32.75
  A 0.31 0.31 0.0 0 1 592.40 32.75
  L 597.93 48.79
  A 0.31 0.31 0.0 0 1 597.64 49.20
  L 586.58 49.20
  A 0.31 0.31 0.0 0 1 586.29 48.79
  Z"
/>
<path fill="#073763" d="
  M 66.45 63.19
  Q 77.44 63.19 78.92 63.16
  A 0.65 0.64 -0.5 0 0 79.56 62.52
  L 79.56 37.58
  A 0.58 0.58 0.0 0 1 80.14 37.00
  L 96.67 37.00
  A 0.65 0.64 -90.0 0 1 97.31 37.65
  L 97.31 105.46
  A 0.34 0.33 -90.0 0 1 96.98 105.80
  L 79.98 105.80
  A 0.43 0.42 0.0 0 1 79.55 105.38
  L 79.55 77.31
  A 0.68 0.67 -88.2 0 0 78.92 76.63
  Q 78.57 76.61 66.45 76.61
  Q 54.33 76.60 53.98 76.63
  A 0.68 0.67 88.2 0 0 53.35 77.31
  L 53.35 105.38
  A 0.43 0.42 0.0 0 1 52.92 105.80
  L 35.92 105.80
  A 0.34 0.33 -90.0 0 1 35.59 105.46
  L 35.60 37.65
  A 0.65 0.64 -90.0 0 1 36.24 37.00
  L 52.77 37.00
  A 0.58 0.58 0.0 0 1 53.35 37.58
  L 53.34 62.52
  A 0.65 0.64 0.5 0 0 53.98 63.16
  Q 55.47 63.19 66.45 63.19
  Z"
/>
<rect fill="#073763" x="114.64" y="36.99" width="17.76" height="68.80" rx="0.37"/>
<path fill="#073763" d="
  M 166.92 105.81
  L 150.12 105.81
  A 0.33 0.32 90.0 0 1 149.80 105.48
  L 149.80 37.29
  A 0.24 0.23 90.0 0 1 150.03 37.05
  Q 169.51 36.90 182.24 37.12
  C 198.49 37.40 209.24 48.27 205.91 64.96
  C 202.27 83.24 182.14 82.02 168.18 81.91
  A 0.63 0.62 0.0 0 0 167.55 82.53
  L 167.55 105.18
  A 0.63 0.63 0.0 0 1 166.92 105.81
  Z
  M 167.59 50.13
  L 167.53 68.71
  A 0.29 0.29 0.0 0 0 167.82 69.01
  L 178.62 69.04
  A 9.47 8.84 0.2 0 0 188.12 60.24
  L 188.12 58.76
  A 9.47 8.84 0.2 0 0 178.68 49.88
  L 167.88 49.85
  A 0.29 0.29 0.0 0 0 167.59 50.13
  Z"
/>
<path fill="#ffffff" d="
  M 167.59 50.13
  A 0.29 0.29 0.0 0 1 167.88 49.85
  L 178.68 49.88
  A 9.47 8.84 0.2 0 1 188.12 58.76
  L 188.12 60.24
  A 9.47 8.84 0.2 0 1 178.62 69.04
  L 167.82 69.01
  A 0.29 0.29 0.0 0 1 167.53 68.71
  L 167.59 50.13
  Z"
/>
<path fill="#ffffff" d="
  M 366.68 114.94
  A 16.07 16.07 0.0 0 1 350.61 131.01
  L 347.25 131.01
  A 16.07 16.07 0.0 0 1 331.18 114.94
  L 331.18 111.30
  A 16.07 16.07 0.0 0 1 347.25 95.23
  L 350.61 95.23
  A 16.07 16.07 0.0 0 1 366.68 111.30
  L 366.68 114.94
  Z
  M 340.37 113.11
  C 340.37 118.63 342.34 124.58 348.94 124.59
  C 355.53 124.59 357.52 118.65 357.52 113.13
  C 357.52 107.61 355.55 101.66 348.95 101.65
  C 342.36 101.65 340.38 107.60 340.37 113.11
  Z"
/>
<path fill="#ffffff" d="
  M 437.84 128.27
  L 437.84 121.40
  A 0.20 0.19 13.4 0 1 438.13 121.23
  Q 447.78 125.99 453.79 124.03
  Q 457.04 122.98 455.92 119.31
  A 1.63 1.59 8.6 0 0 455.26 118.44
  C 452.41 116.59 448.24 116.28 445.18 115.34
  Q 436.10 112.57 437.86 103.34
  C 439.87 92.77 454.71 94.59 462.41 96.92
  A 0.28 0.28 0.0 0 1 462.61 97.19
  L 462.61 104.05
  A 0.13 0.13 0.0 0 1 462.43 104.17
  Q 455.92 101.15 449.63 101.78
  C 448.03 101.95 445.93 102.74 445.74 104.58
  Q 445.44 107.55 448.20 108.13
  Q 451.90 108.89 457.32 110.35
  Q 466.23 112.75 464.61 122.47
  C 462.67 134.12 445.69 131.57 438.11 128.65
  A 0.41 0.40 10.5 0 1 437.84 128.27
  Z"
/>
<path fill="#ffffff" d="
  M 469.94 128.26
  L 469.94 121.39
  A 0.20 0.19 13.5 0 1 470.23 121.22
  Q 479.88 125.99 485.89 124.03
  Q 489.14 122.98 488.02 119.31
  A 1.63 1.59 8.6 0 0 487.37 118.44
  C 484.52 116.59 480.35 116.28 477.29 115.33
  Q 468.21 112.56 469.98 103.33
  C 472.00 92.76 486.84 94.59 494.53 96.93
  A 0.28 0.28 0.0 0 1 494.73 97.20
  L 494.73 104.06
  A 0.13 0.13 0.0 0 1 494.55 104.18
  Q 488.04 101.16 481.75 101.78
  C 480.15 101.95 478.05 102.74 477.86 104.58
  Q 477.56 107.55 480.31 108.13
  Q 484.01 108.89 489.43 110.36
  Q 498.34 112.76 496.71 122.48
  C 494.76 134.13 477.78 131.56 470.21 128.64
  A 0.41 0.40 10.5 0 1 469.94 128.26
  Z"
/>
<path fill="#ffffff" d="
  M 556.1034 115.1047
  A 16.06 16.06 0.0 0 1 539.9038 131.0240
  L 536.5439 130.9947
  A 16.06 16.06 0.0 0 1 520.6247 114.7951
  L 520.6566 111.1353
  A 16.06 16.06 0.0 0 1 536.8562 95.2160
  L 540.2161 95.2453
  A 16.06 16.06 0.0 0 1 556.1353 111.4449
  L 556.1034 115.1047
  Z
  M 529.82 113.12
  C 529.82 118.63 531.79 124.58 538.39 124.58
  C 544.98 124.59 546.96 118.64 546.96 113.12
  C 546.96 107.60 544.99 101.65 538.39 101.65
  C 531.80 101.65 529.82 107.60 529.82 113.12
  Z"
/>
<path fill="#ffffff" d="
  M 669.23 128.28
  L 669.23 121.41
  A 0.20 0.19 13.4 0 1 669.52 121.24
  Q 679.17 125.99 685.18 124.03
  Q 688.43 122.98 687.30 119.31
  A 1.63 1.59 8.5 0 0 686.64 118.44
  C 683.79 116.59 679.62 116.28 676.56 115.34
  Q 667.48 112.58 669.24 103.35
  C 671.24 92.78 686.08 94.59 693.78 96.92
  A 0.28 0.28 0.0 0 1 693.98 97.19
  L 693.98 104.05
  A 0.13 0.13 0.0 0 1 693.81 104.17
  Q 687.29 101.15 681.01 101.78
  C 679.41 101.95 677.31 102.75 677.12 104.59
  Q 676.82 107.56 679.58 108.13
  Q 683.28 108.89 688.70 110.35
  Q 697.61 112.74 695.99 122.46
  C 694.06 134.11 677.08 131.57 669.50 128.66
  A 0.41 0.40 10.4 0 1 669.23 128.28
  Z"
/>
<path fill="#ffffff" d="
  M 262.41 95.76
  Q 270.85 95.87 274.23 95.77
  C 282.43 95.54 290.07 97.73 290.12 107.06
  C 290.17 118.23 279.70 118.66 271.21 118.35
  A 0.62 0.62 0.0 0 0 270.57 118.97
  L 270.57 130.13
  A 0.27 0.27 0.0 0 1 270.30 130.40
  L 261.95 130.40
  A 0.32 0.32 0.0 0 1 261.63 130.08
  L 261.63 96.53
  A 0.77 0.77 0.0 0 1 262.41 95.76
  Z
  M 270.55 102.63
  L 270.59 111.59
  A 0.34 0.34 0.0 0 0 270.93 111.93
  L 276.21 111.91
  A 4.74 4.49 -0.2 0 0 280.93 107.40
  L 280.93 106.74
  A 4.74 4.49 -0.2 0 0 276.17 102.27
  L 270.89 102.29
  A 0.34 0.34 0.0 0 0 270.55 102.63
  Z"
/>
<path fill="#ffffff" d="
  M 317.35 114.00
  A 0.27 0.26 46.8 0 0 317.34 114.49
  Q 320.40 115.82 322.04 118.98
  Q 325.61 125.83 327.65 130.21
  A 0.13 0.13 0.0 0 1 327.53 130.40
  L 318.50 130.40
  A 0.41 0.40 -12.5 0 1 318.13 130.17
  Q 316.42 126.62 313.63 121.06
  Q 311.33 116.48 305.95 117.42
  A 0.65 0.64 85.3 0 0 305.42 118.06
  L 305.42 130.14
  A 0.26 0.26 0.0 0 1 305.16 130.40
  L 296.78 130.40
  A 0.30 0.30 0.0 0 1 296.48 130.10
  L 296.48 96.43
  A 0.62 0.62 0.0 0 1 297.09 95.81
  Q 310.17 95.75 313.01 95.92
  C 319.12 96.29 323.61 99.11 323.34 105.82
  Q 323.10 111.88 317.35 114.00
  Z
  M 305.41 102.69
  L 305.43 110.75
  A 0.38 0.38 0.0 0 0 305.82 111.12
  L 310.33 111.11
  A 4.09 3.81 -0.2 0 0 314.40 107.28
  L 314.40 106.08
  A 4.09 3.81 -0.2 0 0 310.29 102.29
  L 305.78 102.30
  A 0.38 0.38 0.0 0 0 305.41 102.69
  Z"
/>
<path fill="#ffffff" d="
  M 397.65 96.12
  L 397.65 102.22
  A 0.32 0.32 0.0 0 1 397.33 102.54
  L 382.78 102.54
  A 0.32 0.32 0.0 0 0 382.46 102.86
  L 382.46 108.67
  A 0.32 0.32 0.0 0 0 382.78 108.99
  L 396.42 108.99
  A 0.32 0.32 0.0 0 1 396.74 109.31
  L 396.74 115.41
  A 0.32 0.32 0.0 0 1 396.42 115.73
  L 382.79 115.73
  A 0.32 0.32 0.0 0 0 382.47 116.05
  L 382.47 130.08
  A 0.32 0.32 0.0 0 1 382.15 130.40
  L 373.85 130.40
  A 0.32 0.32 0.0 0 1 373.53 130.08
  L 373.53 96.12
  A 0.32 0.32 0.0 0 1 373.85 95.80
  L 397.33 95.80
  A 0.32 0.32 0.0 0 1 397.65 96.12
  Z"
/>
<path fill="#ffffff" d="
  M 428.89 115.73
  L 415.27 115.73
  A 0.33 0.33 0.0 0 0 414.94 116.06
  L 414.94 123.34
  A 0.33 0.33 0.0 0 0 415.27 123.67
  L 430.31 123.67
  A 0.33 0.33 0.0 0 1 430.64 124.00
  L 430.64 130.07
  A 0.33 0.33 0.0 0 1 430.31 130.40
  L 406.34 130.40
  A 0.33 0.33 0.0 0 1 406.01 130.07
  L 406.01 96.13
  A 0.33 0.33 0.0 0 1 406.34 95.80
  L 429.81 95.80
  A 0.33 0.33 0.0 0 1 430.14 96.13
  L 430.14 102.21
  A 0.33 0.33 0.0 0 1 429.81 102.54
  L 415.27 102.54
  A 0.33 0.33 0.0 0 0 414.94 102.87
  L 414.94 108.66
  A 0.33 0.33 0.0 0 0 415.27 108.99
  L 428.89 108.99
  A 0.33 0.33 0.0 0 1 429.22 109.32
  L 429.22 115.40
  A 0.33 0.33 0.0 0 1 428.89 115.73
  Z"
/>
<rect fill="#ffffff" x="504.86" y="95.80" width="8.94" height="34.60" rx="0.30"/>
<path fill="#ffffff" d="
  M 575.66 114.60
  Q 573.63 110.80 571.79 107.37
  A 0.19 0.19 0.0 0 0 571.44 107.46
  L 571.44 130.09
  A 0.31 0.30 -90.0 0 1 571.14 130.40
  L 563.28 130.40
  A 0.32 0.32 0.0 0 1 562.96 130.08
  L 562.96 96.41
  A 0.61 0.61 0.0 0 1 563.57 95.80
  L 572.23 95.80
  A 1.14 1.12 -14.3 0 1 573.22 96.38
  Q 573.60 97.07 581.35 111.61
  Q 583.38 115.40 585.22 118.83
  A 0.19 0.19 0.0 0 0 585.57 118.74
  L 585.57 96.11
  A 0.31 0.30 -90.0 0 1 585.87 95.80
  L 593.73 95.80
  A 0.32 0.32 0.0 0 1 594.05 96.12
  L 594.05 129.79
  A 0.61 0.61 0.0 0 1 593.44 130.40
  L 584.78 130.40
  A 1.14 1.12 -14.3 0 1 583.79 129.82
  Q 583.41 129.13 575.66 114.60
  Z"
/>
<path fill="#ffffff" d="
  M 616.80 95.81
  Q 620.80 95.81 621.62 95.86
  A 0.85 0.85 0.0 0 1 622.37 96.42
  L 634.60 129.40
  A 0.75 0.74 -10.1 0 1 633.90 130.40
  L 627.30 130.40
  A 1.79 1.79 0.0 0 1 625.62 129.23
  L 623.95 124.73
  A 0.90 0.89 -9.3 0 0 623.13 124.15
  Q 622.28 124.13 616.80 124.13
  Q 611.33 124.13 610.47 124.15
  A 0.90 0.89 9.3 0 0 609.66 124.73
  L 607.99 129.23
  A 1.79 1.79 0.0 0 1 606.31 130.40
  L 599.71 130.40
  A 0.75 0.74 10.1 0 1 599.01 129.40
  L 611.24 96.42
  A 0.85 0.85 0.0 0 1 611.99 95.86
  Q 612.81 95.81 616.80 95.81
  Z
  M 612.22 117.24
  A 0.32 0.32 0.0 0 0 612.52 117.67
  L 621.10 117.67
  A 0.32 0.32 0.0 0 0 621.40 117.24
  L 617.11 104.78
  A 0.32 0.32 0.0 0 0 616.51 104.78
  L 612.22 117.24
  Z"
/>
<path fill="#ffffff" d="
  M 648.52 96.11
  L 648.52 123.36
  A 0.31 0.31 0.0 0 0 648.83 123.67
  L 663.89 123.67
  A 0.31 0.31 0.0 0 1 664.20 123.98
  L 664.20 130.09
  A 0.31 0.31 0.0 0 1 663.89 130.40
  L 639.88 130.40
  A 0.31 0.31 0.0 0 1 639.57 130.09
  L 639.57 96.11
  A 0.31 0.31 0.0 0 1 639.88 95.80
  L 648.21 95.80
  A 0.31 0.31 0.0 0 1 648.52 96.11
  Z"
/>
<path fill="#073763" d="
  M 348.95 101.65
  C 355.55 101.66 357.52 107.61 357.52 113.13
  C 357.52 118.65 355.53 124.59 348.94 124.59
  C 342.34 124.58 340.37 118.63 340.37 113.11
  C 340.38 107.60 342.36 101.65 348.95 101.65
  Z"
/>
<path fill="#073763" d="
  M 529.82 113.12
  C 529.82 107.60 531.80 101.65 538.39 101.65
  C 544.99 101.65 546.96 107.60 546.96 113.12
  C 546.96 118.64 544.98 124.59 538.39 124.58
  C 531.79 124.58 529.82 118.63 529.82 113.12
  Z"
/>
<path fill="#073763" d="
  M 270.55 102.63
  A 0.34 0.34 0.0 0 1 270.89 102.29
  L 276.17 102.27
  A 4.74 4.49 -0.2 0 1 280.93 106.74
  L 280.93 107.40
  A 4.74 4.49 -0.2 0 1 276.21 111.91
  L 270.93 111.93
  A 0.34 0.34 0.0 0 1 270.59 111.59
  L 270.55 102.63
  Z"
/>
<path fill="#073763" d="
  M 305.41 102.69
  A 0.38 0.38 0.0 0 1 305.78 102.30
  L 310.29 102.29
  A 4.09 3.81 -0.2 0 1 314.40 106.08
  L 314.40 107.28
  A 4.09 3.81 -0.2 0 1 310.33 111.11
  L 305.82 111.12
  A 0.38 0.38 0.0 0 1 305.43 110.75
  L 305.41 102.69
  Z"
/>
<path fill="#073763" d="
  M 612.22 117.24
  L 616.51 104.78
  A 0.32 0.32 0.0 0 1 617.11 104.78
  L 621.40 117.24
  A 0.32 0.32 0.0 0 1 621.10 117.67
  L 612.52 117.67
  A 0.32 0.32 0.0 0 1 612.22 117.24
  Z"
/>
</svg>
