<?xml version="1.0" encoding="UTF-8" standalone="no"?>
<!DOCTYPE svg PUBLIC "-//W3C//DTD SVG 1.1//EN" "http://www.w3.org/Graphics/SVG/1.1/DTD/svg11.dtd">
<svg xmlns="http://www.w3.org/2000/svg" version="1.1" viewBox="0.00 0.00 432.00 88.00">
<g stroke-width="2.00" fill="none" stroke-linecap="butt">
<path stroke="#808080" vector-effect="non-scaling-stroke" d="
  M 134.79 6.38
  A 0.27 0.27 0.0 0 0 134.52 6.11
  L 6.92 6.11
  A 0.27 0.27 0.0 0 0 6.65 6.38
  L 6.65 82.58
  A 0.27 0.27 0.0 0 0 6.92 82.85
  L 134.52 82.85
  A 0.27 0.27 0.0 0 0 134.79 82.58
  L 134.79 6.38"
/>
<path stroke="#808080" vector-effect="non-scaling-stroke" d="
  M 221.86 23.80
  L 212.76 23.80
  A 0.80 0.80 0.0 0 0 211.96 24.60
  L 211.96 27.38
  A 0.80 0.80 0.0 0 0 212.76 28.18
  L 215.44 28.18
  A 0.67 0.67 0.0 0 1 216.11 28.85
  L 216.11 32.79
  A 0.71 0.70 88.3 0 1 215.45 33.50
  Q 211.01 33.83 210.00 33.49
  Q 205.02 31.81 204.60 26.71
  C 203.68 15.38 213.61 14.82 221.11 18.98
  A 0.19 0.19 0.0 0 0 221.39 18.82
  L 221.39 13.98
  A 0.40 0.40 0.0 0 0 221.14 13.61
  C 215.38 11.31 207.03 10.74 202.03 14.98
  Q 198.78 17.72 198.11 21.36
  C 195.09 37.64 209.78 41.48 221.89 36.39
  A 0.79 0.79 0.0 0 0 222.38 35.66
  L 222.38 24.32
  A 0.52 0.52 0.0 0 0 221.86 23.80"
/>
<path stroke="#808080" vector-effect="non-scaling-stroke" d="
  M 367.55 25.12
  C 367.51 37.27 378.77 40.64 388.60 37.07
  A 1.31 1.31 0.0 0 0 389.46 35.84
  L 389.46 32.37
  A 0.60 0.60 0.0 0 0 388.53 31.86
  C 382.25 35.97 374.31 33.60 374.34 25.14
  C 374.37 16.67 382.32 14.35 388.57 18.50
  A 0.60 0.60 0.0 0 0 389.51 18.00
  L 389.53 14.53
  A 1.31 1.31 0.0 0 0 388.67 13.29
  C 378.87 9.66 367.59 12.96 367.55 25.12"
/>
<path stroke="#808080" vector-effect="non-scaling-stroke" d="
  M 167.81 27.07
  Q 169.04 27.07 172.01 26.97
  A 0.76 0.76 0.0 0 1 172.79 27.73
  L 172.79 37.29
  A 0.84 0.84 0.0 0 0 173.63 38.13
  L 178.48 38.13
  A 0.86 0.86 0.0 0 0 179.34 37.27
  L 179.34 12.98
  A 0.67 0.67 0.0 0 0 178.67 12.31
  L 173.44 12.31
  A 0.68 0.68 0.0 0 0 172.76 12.99
  L 172.76 21.69
  A 0.49 0.48 88.4 0 1 172.31 22.18
  Q 171.52 22.22 167.81 22.22
  Q 164.11 22.22 163.32 22.18
  A 0.49 0.48 -88.4 0 1 162.87 21.69
  L 162.87 12.99
  A 0.68 0.68 0.0 0 0 162.19 12.31
  L 156.96 12.31
  A 0.67 0.67 0.0 0 0 156.29 12.98
  L 156.29 37.27
  A 0.86 0.86 0.0 0 0 157.15 38.13
  L 162.00 38.13
  A 0.84 0.84 0.0 0 0 162.84 37.29
  L 162.84 27.73
  A 0.76 0.76 0.0 0 1 163.62 26.97
  Q 166.59 27.07 167.81 27.07"
/>
<path stroke="#808080" vector-effect="non-scaling-stroke" d="
  M 192.56 12.83
  A 0.54 0.54 0.0 0 0 192.02 12.29
  L 186.48 12.29
  A 0.54 0.54 0.0 0 0 185.94 12.83
  L 185.94 37.59
  A 0.54 0.54 0.0 0 0 186.48 38.13
  L 192.02 38.13
  A 0.54 0.54 0.0 0 0 192.56 37.59
  L 192.56 12.83"
/>
<path stroke="#808080" vector-effect="non-scaling-stroke" d="
  M 239.82 27.06
  Q 241.05 27.06 244.02 26.96
  A 0.76 0.76 0.0 0 1 244.80 27.72
  L 244.80 37.28
  A 0.84 0.84 0.0 0 0 245.64 38.12
  L 250.49 38.12
  A 0.86 0.86 0.0 0 0 251.35 37.26
  L 251.35 12.97
  A 0.67 0.67 0.0 0 0 250.68 12.30
  L 245.45 12.30
  A 0.68 0.68 0.0 0 0 244.77 12.98
  L 244.77 21.68
  A 0.49 0.48 88.4 0 1 244.32 22.17
  Q 243.53 22.21 239.82 22.21
  Q 236.12 22.21 235.33 22.17
  A 0.49 0.48 -88.4 0 1 234.88 21.68
  L 234.88 12.98
  A 0.68 0.68 0.0 0 0 234.20 12.30
  L 228.97 12.30
  A 0.67 0.67 0.0 0 0 228.30 12.97
  L 228.30 37.26
  A 0.86 0.86 0.0 0 0 229.16 38.12
  L 234.01 38.12
  A 0.84 0.84 0.0 0 0 234.85 37.28
  L 234.85 27.72
  A 0.76 0.76 0.0 0 1 235.63 26.96
  Q 238.60 27.06 239.82 27.06"
/>
<path stroke="#808080" vector-effect="non-scaling-stroke" d="
  M 276.8217 12.7456
  A 0.45 0.45 0.0 0 0 276.3725 12.2949
  L 270.8325 12.2852
  A 0.45 0.45 0.0 0 0 270.3817 12.7344
  L 270.3383 37.6344
  A 0.45 0.45 0.0 0 0 270.7875 38.0851
  L 276.3275 38.0948
  A 0.45 0.45 0.0 0 0 276.7783 37.6456
  L 276.8217 12.7456"
/>
<path stroke="#808080" vector-effect="non-scaling-stroke" d="
  M 297.87 33.12
  Q 298.78 33.12 299.46 33.01
  A 1.04 1.03 -82.2 0 0 300.24 32.41
  Q 302.17 28.09 304.76 21.75
  Q 305.21 20.64 305.62 20.35
  A 0.27 0.27 0.0 0 1 306.05 20.57
  L 306.05 37.31
  A 0.80 0.79 -0.0 0 0 306.85 38.10
  L 311.44 38.10
  A 0.76 0.76 0.0 0 0 312.20 37.34
  L 312.20 12.87
  A 0.57 0.57 0.0 0 0 311.63 12.30
  L 304.46 12.30
  A 1.04 1.03 11.7 0 0 303.51 12.92
  L 298.27 25.17
  A 0.32 0.27 -11.0 0 1 298.17 25.29
  Q 298.05 25.40 297.87 25.40
  Q 297.68 25.40 297.56 25.29
  A 0.32 0.27 10.9 0 1 297.46 25.17
  L 292.21 12.92
  A 1.04 1.03 -11.7 0 0 291.26 12.31
  L 284.09 12.31
  A 0.57 0.57 0.0 0 0 283.52 12.88
  L 283.54 37.35
  A 0.76 0.76 0.0 0 0 284.30 38.11
  L 288.89 38.11
  A 0.80 0.79 -0.0 0 0 289.69 37.32
  L 289.68 20.58
  A 0.27 0.27 0.0 0 1 290.11 20.36
  Q 290.52 20.65 290.97 21.76
  Q 293.56 28.09 295.50 32.41
  A 1.04 1.03 82.2 0 0 296.27 33.01
  Q 296.96 33.12 297.87 33.12"
/>
<path stroke="#808080" vector-effect="non-scaling-stroke" d="
  M 326.02 28.87
  C 333.05 29.59 341.52 28.23 339.76 18.80
  Q 338.74 13.36 332.66 12.57
  Q 329.77 12.19 319.30 12.34
  A 0.58 0.58 0.0 0 0 318.73 12.92
  L 318.73 37.22
  A 0.86 0.85 0.0 0 0 319.59 38.07
  L 324.55 38.07
  A 0.84 0.83 -0.0 0 0 325.39 37.24
  L 325.39 29.44
  A 0.57 0.57 0.0 0 1 326.02 28.87"
/>
<path stroke="#808080" vector-effect="non-scaling-stroke" d="
  M 351.98 33.32
  Q 355.60 33.33 356.36 33.34
  A 1.24 1.24 0.0 0 1 357.50 34.16
  L 358.69 37.37
  A 1.16 1.16 0.0 0 0 359.78 38.13
  L 364.59 38.13
  A 0.66 0.65 79.9 0 0 365.20 37.25
  L 356.16 12.84
  A 0.74 0.73 -7.3 0 0 355.54 12.37
  Q 355.07 12.33 352.00 12.32
  Q 348.93 12.32 348.47 12.36
  A 0.74 0.73 7.5 0 0 347.84 12.83
  L 338.74 37.22
  A 0.66 0.65 -79.8 0 0 339.35 38.10
  L 344.16 38.11
  A 1.16 1.16 0.0 0 0 345.25 37.35
  L 346.45 34.15
  A 1.24 1.24 0.0 0 1 347.59 33.33
  Q 348.35 33.32 351.98 33.32"
/>
<path stroke="#808080" vector-effect="non-scaling-stroke" d="
  M 403.83 38.09
  Q 406.26 38.09 406.63 38.03
  A 0.51 0.50 -4.3 0 0 407.07 37.54
  L 407.07 17.93
  A 0.69 0.69 0.0 0 1 407.76 17.24
  L 415.04 17.24
  A 0.68 0.68 0.0 0 0 415.72 16.56
  L 415.72 12.97
  A 0.68 0.67 -0.6 0 0 415.03 12.30
  Q 412.38 12.37 403.80 12.33
  Q 395.23 12.38 392.57 12.32
  A 0.68 0.67 0.5 0 0 391.88 12.99
  L 391.89 16.58
  A 0.68 0.68 0.0 0 0 392.57 17.26
  L 399.85 17.25
  A 0.69 0.69 0.0 0 1 400.54 17.94
  L 400.58 37.55
  A 0.51 0.50 4.2 0 0 401.02 38.04
  Q 401.39 38.09 403.83 38.09"
/>
<path stroke="#808080" vector-effect="non-scaling-stroke" d="
  M 217.9682 65.4616
  A 9.53 9.53 0.0 0 0 208.4216 55.9483
  L 206.4016 55.9518
  A 9.53 9.53 0.0 0 0 196.8882 65.4984
  L 196.8918 67.5784
  A 9.53 9.53 0.0 0 0 206.4384 77.0917
  L 208.4584 77.0882
  A 9.53 9.53 0.0 0 0 217.9718 67.5416
  L 217.9682 65.4616"
/>
<path stroke="#808080" vector-effect="non-scaling-stroke" d="
  M 260.34 75.49
  A 0.25 0.24 9.9 0 0 260.50 75.72
  C 265.68 77.47 275.43 78.88 276.22 71.39
  C 276.91 64.88 271.08 64.64 266.26 63.53
  A 1.82 1.81 15.6 0 1 264.94 61.19
  C 265.83 58.55 271.89 59.98 273.91 60.78
  A 0.81 0.81 0.0 0 0 275.02 60.03
  L 275.01 57.84
  A 1.33 1.33 0.0 0 0 273.95 56.56
  C 270.20 55.76 262.09 54.66 260.50 59.96
  Q 259.29 63.97 261.92 66.39
  C 264.18 68.47 269.88 68.15 271.02 70.13
  Q 271.72 71.33 270.62 72.41
  Q 268.32 74.71 260.61 71.51
  A 0.21 0.21 0.0 0 0 260.31 71.70
  L 260.34 75.49"
/>
<path stroke="#808080" vector-effect="non-scaling-stroke" d="
  M 279.39 75.47
  A 0.25 0.25 0.0 0 0 279.55 75.70
  C 284.73 77.50 294.50 78.98 295.34 71.47
  C 296.08 64.95 290.24 64.67 285.41 63.52
  A 1.82 1.82 0.0 0 1 284.10 61.16
  C 285.01 58.52 291.08 60.00 293.10 60.82
  A 0.81 0.81 0.0 0 0 294.22 60.07
  L 294.22 57.88
  A 1.34 1.33 6.2 0 0 293.17 56.58
  C 289.41 55.76 281.29 54.60 279.66 59.90
  Q 278.42 63.91 281.04 66.36
  C 283.29 68.46 289.01 68.18 290.14 70.17
  Q 290.83 71.38 289.72 72.46
  Q 287.40 74.75 279.69 71.48
  A 0.21 0.21 0.0 0 0 279.39 71.67
  L 279.39 75.47"
/>
<path stroke="#808080" vector-effect="non-scaling-stroke" d="
  M 330.5488 65.5620
  A 9.54 9.54 0.0 0 0 321.0924 55.9391
  L 319.0925 55.9217
  A 9.54 9.54 0.0 0 0 309.4696 65.3781
  L 309.4512 67.4780
  A 9.54 9.54 0.0 0 0 318.9076 77.1009
  L 320.9075 77.1183
  A 9.54 9.54 0.0 0 0 330.5304 67.6619
  L 330.5488 65.5620"
/>
<path stroke="#808080" vector-effect="non-scaling-stroke" d="
  M 397.86 75.42
  A 0.25 0.24 10.3 0 0 398.02 75.65
  C 403.18 77.44 412.91 78.91 413.74 71.43
  C 414.48 64.94 408.66 64.66 403.85 63.52
  A 1.82 1.81 16.0 0 1 402.54 61.17
  C 403.45 58.54 409.49 60.01 411.51 60.82
  A 0.81 0.80 -78.7 0 0 412.62 60.08
  L 412.62 57.90
  A 1.33 1.32 6.2 0 0 411.57 56.60
  C 407.83 55.79 399.74 54.64 398.12 59.92
  Q 396.89 63.91 399.50 66.35
  C 401.74 68.44 407.44 68.16 408.56 70.14
  Q 409.25 71.34 408.15 72.42
  Q 405.84 74.70 398.16 71.45
  A 0.21 0.21 0.0 0 0 397.86 71.64
  L 397.86 75.42"
/>
<path stroke="#808080" vector-effect="non-scaling-stroke" d="
  M 160.76 76.15
  L 160.76 70.15
  A 0.55 0.55 0.0 0 1 161.30 69.60
  C 164.63 69.50 169.24 69.95 171.29 66.75
  C 174.11 62.36 171.84 57.00 166.25 56.46
  Q 164.38 56.27 156.21 56.31
  A 0.65 0.64 -0.5 0 0 155.57 56.95
  L 155.57 76.17
  A 0.53 0.53 0.0 0 0 156.10 76.70
  L 160.21 76.70
  A 0.55 0.55 0.0 0 0 160.76 76.15"
/>
<path stroke="#808080" vector-effect="non-scaling-stroke" d="
  M 194.42 75.95
  C 192.97 72.83 191.38 68.95 189.14 67.60
  A 0.42 0.42 0.0 0 1 189.15 66.87
  C 194.38 64.09 192.74 56.75 186.60 56.39
  Q 183.90 56.24 177.22 56.30
  A 0.92 0.92 0.0 0 0 176.30 57.22
  L 176.30 76.04
  A 0.73 0.73 0.0 0 0 177.03 76.77
  L 180.92 76.77
  A 0.66 0.66 0.0 0 0 181.58 76.11
  L 181.58 69.82
  A 0.91 0.90 -88.8 0 1 182.52 68.91
  Q 185.55 69.03 186.87 71.90
  Q 188.46 75.37 188.65 75.80
  A 1.58 1.58 0.0 0 0 190.04 76.76
  L 193.80 76.89
  A 0.66 0.66 0.0 0 0 194.42 75.95"
/>
<path stroke="#808080" vector-effect="non-scaling-stroke" d="
  M 235.69 60.26
  A 0.75 0.75 0.0 0 0 236.44 59.51
  L 236.44 57.04
  A 0.75 0.75 0.0 0 0 235.69 56.29
  L 222.71 56.29
  A 0.75 0.75 0.0 0 0 221.96 57.04
  L 221.96 76.01
  A 0.75 0.75 0.0 0 0 222.71 76.76
  L 226.62 76.76
  A 0.75 0.75 0.0 0 0 227.37 76.01
  L 227.37 68.85
  A 0.75 0.75 0.0 0 1 228.12 68.10
  L 235.13 68.10
  A 0.75 0.75 0.0 0 0 235.88 67.35
  L 235.88 64.82
  A 0.75 0.75 0.0 0 0 235.13 64.07
  L 228.10 64.07
  A 0.75 0.75 0.0 0 1 227.35 63.32
  L 227.35 61.01
  A 0.75 0.75 0.0 0 1 228.10 60.26
  L 235.69 60.26"
/>
<path stroke="#808080" vector-effect="non-scaling-stroke" d="
  M 255.38 76.71
  A 0.71 0.71 0.0 0 0 256.09 76.00
  L 256.09 73.40
  A 0.71 0.71 0.0 0 0 255.38 72.69
  L 247.33 72.69
  A 0.71 0.71 0.0 0 1 246.62 71.98
  L 246.62 68.80
  A 0.71 0.71 0.0 0 1 247.33 68.09
  L 254.46 68.09
  A 0.71 0.71 0.0 0 0 255.17 67.38
  L 255.17 64.81
  A 0.71 0.71 0.0 0 0 254.46 64.10
  L 247.30 64.10
  A 0.71 0.71 0.0 0 1 246.59 63.39
  L 246.59 60.90
  A 0.71 0.71 0.0 0 1 247.30 60.19
  L 254.99 60.19
  A 0.71 0.71 0.0 0 0 255.70 59.48
  L 255.70 56.95
  A 0.71 0.71 0.0 0 0 254.99 56.24
  L 242.09 56.24
  A 0.71 0.71 0.0 0 0 241.38 56.95
  L 241.38 76.00
  A 0.71 0.71 0.0 0 0 242.09 76.71
  L 255.38 76.71"
/>
<path stroke="#808080" vector-effect="non-scaling-stroke" d="
  M 305.48 56.76
  A 0.51 0.51 0.0 0 0 304.97 56.25
  L 300.65 56.25
  A 0.51 0.51 0.0 0 0 300.14 56.76
  L 300.14 76.26
  A 0.51 0.51 0.0 0 0 300.65 76.77
  L 304.97 76.77
  A 0.51 0.51 0.0 0 0 305.48 76.26
  L 305.48 56.76"
/>
<path stroke="#808080" vector-effect="non-scaling-stroke" d="
  M 342.20 67.38
  Q 345.97 74.74 346.91 76.13
  A 1.44 1.43 72.5 0 0 348.09 76.75
  L 352.45 76.75
  A 0.69 0.69 0.0 0 0 353.14 76.06
  L 353.14 56.88
  A 0.57 0.57 0.0 0 0 352.57 56.31
  L 348.73 56.31
  A 0.56 0.55 0.0 0 0 348.17 56.86
  L 348.17 69.03
  A 0.35 0.34 15.4 0 1 347.65 69.32
  C 347.06 68.97 346.57 67.51 345.62 65.65
  Q 341.85 58.29 340.90 56.90
  A 1.44 1.43 72.5 0 0 339.72 56.28
  L 335.36 56.28
  A 0.69 0.69 0.0 0 0 334.67 56.97
  L 334.67 76.15
  A 0.57 0.57 0.0 0 0 335.24 76.72
  L 339.08 76.72
  A 0.56 0.55 0.0 0 0 339.64 76.17
  L 339.64 64.00
  A 0.35 0.34 15.4 0 1 340.17 63.71
  C 340.76 64.06 341.25 65.52 342.20 67.38"
/>
<path stroke="#808080" vector-effect="non-scaling-stroke" d="
  M 366.66 72.93
  Q 369.92 72.93 370.02 72.95
  A 1.49 1.45 -12.4 0 1 370.93 73.52
  Q 371.40 74.15 371.66 75.70
  A 1.23 1.23 0.0 0 0 372.87 76.72
  L 376.41 76.72
  A 0.72 0.72 0.0 0 0 377.08 75.75
  L 370.06 56.95
  A 0.91 0.91 0.0 0 0 369.24 56.35
  Q 368.99 56.34 366.65 56.34
  Q 364.31 56.34 364.06 56.36
  A 0.91 0.91 0.0 0 0 363.24 56.95
  L 356.25 75.76
  A 0.72 0.72 0.0 0 0 356.92 76.73
  L 360.46 76.73
  A 1.23 1.23 0.0 0 0 361.67 75.71
  Q 361.93 74.16 362.40 73.53
  A 1.49 1.45 12.3 0 1 363.31 72.96
  Q 363.41 72.94 366.66 72.93"
/>
<path stroke="#808080" vector-effect="non-scaling-stroke" d="
  M 385.50 56.95
  A 0.70 0.70 0.0 0 0 384.80 56.25
  L 380.97 56.25
  A 0.70 0.70 0.0 0 0 380.27 56.95
  L 380.27 75.97
  A 0.70 0.70 0.0 0 0 380.97 76.67
  L 394.15 76.67
  A 0.70 0.70 0.0 0 0 394.85 75.97
  L 394.85 73.49
  A 0.70 0.70 0.0 0 0 394.15 72.79
  L 386.20 72.79
  A 0.70 0.70 0.0 0 1 385.50 72.09
  L 385.50 56.95"
/>
<path stroke="#808080" vector-effect="non-scaling-stroke" d="
  M 39.48 44.86
  Q 45.27 44.86 46.72 44.88
  A 0.56 0.55 0.6 0 1 47.27 45.43
  L 47.27 61.71
  A 0.54 0.53 90.0 0 0 47.80 62.25
  L 57.28 62.25
  A 0.58 0.57 90.0 0 0 57.85 61.67
  L 57.85 21.78
  A 0.51 0.51 0.0 0 0 57.34 21.27
  L 47.82 21.27
  A 0.53 0.53 0.0 0 0 47.29 21.80
  L 47.29 36.06
  A 0.71 0.70 88.5 0 1 46.63 36.77
  Q 46.09 36.80 39.48 36.80
  Q 32.86 36.79 32.33 36.76
  A 0.71 0.70 -88.4 0 1 31.67 36.05
  L 31.68 21.79
  A 0.53 0.53 0.0 0 0 31.15 21.26
  L 21.63 21.26
  A 0.51 0.51 0.0 0 0 21.12 21.77
  L 21.09 61.66
  A 0.58 0.57 -90.0 0 0 21.66 62.24
  L 31.14 62.24
  A 0.54 0.53 -90.0 0 0 31.67 61.70
  L 31.68 45.42
  A 0.56 0.55 -0.5 0 1 32.23 44.87
  Q 33.68 44.85 39.48 44.86"
/>
<path stroke="#808080" vector-effect="non-scaling-stroke" d="
  M 78.73 21.70
  A 0.43 0.43 0.0 0 0 78.30 21.27
  L 68.58 21.27
  A 0.43 0.43 0.0 0 0 68.15 21.70
  L 68.15 61.78
  A 0.43 0.43 0.0 0 0 68.58 62.21
  L 78.30 62.21
  A 0.43 0.43 0.0 0 0 78.73 61.78
  L 78.73 21.70"
/>
<path stroke="#808080" vector-effect="non-scaling-stroke" d="
  M 100.18 47.95
  Q 105.54 48.41 110.83 47.67
  Q 121.27 46.22 122.59 36.82
  C 123.57 29.79 120.39 24.28 113.70 22.29
  Q 110.74 21.41 109.25 21.37
  Q 100.84 21.16 89.32 21.31
  A 0.33 0.33 0.0 0 0 89.00 21.64
  L 89.00 61.71
  A 0.53 0.53 0.0 0 0 89.53 62.24
  L 99.15 62.24
  A 0.50 0.49 -0.0 0 0 99.65 61.75
  L 99.65 48.44
  A 0.49 0.49 0.0 0 1 100.18 47.95"
/>
<path stroke="#808080" vector-effect="non-scaling-stroke" d="
  M 325.43 17.64
  L 325.41 23.68
  A 0.70 0.70 0.0 0 0 326.11 24.38
  L 329.09 24.39
  A 4.18 3.55 0.1 0 0 333.28 20.85
  L 333.28 20.51
  A 4.18 3.55 0.1 0 0 329.11 16.95
  L 326.13 16.94
  A 0.70 0.70 0.0 0 0 325.43 17.64"
/>
<path stroke="#808080" vector-effect="non-scaling-stroke" d="
  M 348.65 28.07
  A 0.45 0.45 0.0 0 0 349.08 28.66
  L 354.93 28.64
  A 0.45 0.45 0.0 0 0 355.35 28.05
  L 352.40 19.35
  A 0.45 0.45 0.0 0 0 351.54 19.35
  L 348.65 28.07"
/>
<path stroke="#808080" vector-effect="non-scaling-stroke" d="
  M 99.64 29.46
  L 99.64 39.88
  A 0.42 0.42 0.0 0 0 100.06 40.30
  L 106.08 40.30
  A 5.66 4.93 -0.0 0 0 111.74 35.37
  L 111.74 33.97
  A 5.66 4.93 -0.0 0 0 106.08 29.04
  L 100.06 29.04
  A 0.42 0.42 0.0 0 0 99.64 29.46"
/>
<path stroke="#808080" vector-effect="non-scaling-stroke" d="
  M 207.4765 59.5101
  A 6.97 5.25 -89.7 0 0 202.1901 66.4525
  A 6.97 5.25 -89.7 0 0 207.4035 73.4499
  A 6.97 5.25 -89.7 0 0 212.6899 66.5075
  A 6.97 5.25 -89.7 0 0 207.4765 59.5101"
/>
<path stroke="#808080" vector-effect="non-scaling-stroke" d="
  M 320.1243 59.5300
  A 6.96 5.24 -89.8 0 0 314.8600 66.4717
  A 6.96 5.24 -89.8 0 0 320.0757 73.4500
  A 6.96 5.24 -89.8 0 0 325.3400 66.5083
  A 6.96 5.24 -89.8 0 0 320.1243 59.5300"
/>
<path stroke="#808080" vector-effect="non-scaling-stroke" d="
  M 160.75 60.78
  L 160.71 65.04
  A 0.78 0.78 0.0 0 0 161.48 65.82
  L 163.99 65.85
  A 3.07 2.81 0.6 0 0 167.09 63.07
  L 167.09 62.87
  A 3.07 2.81 0.6 0 0 164.05 60.03
  L 161.54 60.01
  A 0.78 0.78 0.0 0 0 160.75 60.78"
/>
<path stroke="#808080" vector-effect="non-scaling-stroke" d="
  M 181.52 60.94
  L 181.57 64.54
  A 0.86 0.86 0.0 0 0 182.44 65.39
  L 184.36 65.36
  A 2.66 2.54 -0.8 0 0 186.98 62.78
  L 186.98 62.54
  A 2.66 2.54 -0.8 0 0 184.28 60.04
  L 182.36 60.07
  A 0.86 0.86 0.0 0 0 181.52 60.94"
/>
<path stroke="#808080" vector-effect="non-scaling-stroke" d="
  M 366.72 69.31
  Q 368.61 69.30 368.84 69.28
  A 0.62 0.62 0.0 0 0 369.38 68.44
  Q 368.30 65.51 367.07 61.88
  Q 367.00 61.66 366.66 61.67
  Q 366.32 61.67 366.25 61.89
  Q 365.08 65.54 364.04 68.48
  A 0.62 0.62 0.0 0 0 364.60 69.32
  Q 364.82 69.33 366.72 69.31"
/>
</g>
<path fill="#000000" d="
  M 432.00 0.00
  L 432.00 88.00
  L 0.00 88.00
  L 0.00 0.00
  L 432.00 0.00
  Z
  M 134.79 6.38
  A 0.27 0.27 0.0 0 0 134.52 6.11
  L 6.92 6.11
  A 0.27 0.27 0.0 0 0 6.65 6.38
  L 6.65 82.58
  A 0.27 0.27 0.0 0 0 6.92 82.85
  L 134.52 82.85
  A 0.27 0.27 0.0 0 0 134.79 82.58
  L 134.79 6.38
  Z
  M 221.86 23.80
  L 212.76 23.80
  A 0.80 0.80 0.0 0 0 211.96 24.60
  L 211.96 27.38
  A 0.80 0.80 0.0 0 0 212.76 28.18
  L 215.44 28.18
  A 0.67 0.67 0.0 0 1 216.11 28.85
  L 216.11 32.79
  A 0.71 0.70 88.3 0 1 215.45 33.50
  Q 211.01 33.83 210.00 33.49
  Q 205.02 31.81 204.60 26.71
  C 203.68 15.38 213.61 14.82 221.11 18.98
  A 0.19 0.19 0.0 0 0 221.39 18.82
  L 221.39 13.98
  A 0.40 0.40 0.0 0 0 221.14 13.61
  C 215.38 11.31 207.03 10.74 202.03 14.98
  Q 198.78 17.72 198.11 21.36
  C 195.09 37.64 209.78 41.48 221.89 36.39
  A 0.79 0.79 0.0 0 0 222.38 35.66
  L 222.38 24.32
  A 0.52 0.52 0.0 0 0 221.86 23.80
  Z
  M 367.55 25.12
  C 367.51 37.27 378.77 40.64 388.60 37.07
  A 1.31 1.31 0.0 0 0 389.46 35.84
  L 389.46 32.37
  A 0.60 0.60 0.0 0 0 388.53 31.86
  C 382.25 35.97 374.31 33.60 374.34 25.14
  C 374.37 16.67 382.32 14.35 388.57 18.50
  A 0.60 0.60 0.0 0 0 389.51 18.00
  L 389.53 14.53
  A 1.31 1.31 0.0 0 0 388.67 13.29
  C 378.87 9.66 367.59 12.96 367.55 25.12
  Z
  M 167.81 27.07
  Q 169.04 27.07 172.01 26.97
  A 0.76 0.76 0.0 0 1 172.79 27.73
  L 172.79 37.29
  A 0.84 0.84 0.0 0 0 173.63 38.13
  L 178.48 38.13
  A 0.86 0.86 0.0 0 0 179.34 37.27
  L 179.34 12.98
  A 0.67 0.67 0.0 0 0 178.67 12.31
  L 173.44 12.31
  A 0.68 0.68 0.0 0 0 172.76 12.99
  L 172.76 21.69
  A 0.49 0.48 88.4 0 1 172.31 22.18
  Q 171.52 22.22 167.81 22.22
  Q 164.11 22.22 163.32 22.18
  A 0.49 0.48 -88.4 0 1 162.87 21.69
  L 162.87 12.99
  A 0.68 0.68 0.0 0 0 162.19 12.31
  L 156.96 12.31
  A 0.67 0.67 0.0 0 0 156.29 12.98
  L 156.29 37.27
  A 0.86 0.86 0.0 0 0 157.15 38.13
  L 162.00 38.13
  A 0.84 0.84 0.0 0 0 162.84 37.29
  L 162.84 27.73
  A 0.76 0.76 0.0 0 1 163.62 26.97
  Q 166.59 27.07 167.81 27.07
  Z
  M 192.56 12.83
  A 0.54 0.54 0.0 0 0 192.02 12.29
  L 186.48 12.29
  A 0.54 0.54 0.0 0 0 185.94 12.83
  L 185.94 37.59
  A 0.54 0.54 0.0 0 0 186.48 38.13
  L 192.02 38.13
  A 0.54 0.54 0.0 0 0 192.56 37.59
  L 192.56 12.83
  Z
  M 239.82 27.06
  Q 241.05 27.06 244.02 26.96
  A 0.76 0.76 0.0 0 1 244.80 27.72
  L 244.80 37.28
  A 0.84 0.84 0.0 0 0 245.64 38.12
  L 250.49 38.12
  A 0.86 0.86 0.0 0 0 251.35 37.26
  L 251.35 12.97
  A 0.67 0.67 0.0 0 0 250.68 12.30
  L 245.45 12.30
  A 0.68 0.68 0.0 0 0 244.77 12.98
  L 244.77 21.68
  A 0.49 0.48 88.4 0 1 244.32 22.17
  Q 243.53 22.21 239.82 22.21
  Q 236.12 22.21 235.33 22.17
  A 0.49 0.48 -88.4 0 1 234.88 21.68
  L 234.88 12.98
  A 0.68 0.68 0.0 0 0 234.20 12.30
  L 228.97 12.30
  A 0.67 0.67 0.0 0 0 228.30 12.97
  L 228.30 37.26
  A 0.86 0.86 0.0 0 0 229.16 38.12
  L 234.01 38.12
  A 0.84 0.84 0.0 0 0 234.85 37.28
  L 234.85 27.72
  A 0.76 0.76 0.0 0 1 235.63 26.96
  Q 238.60 27.06 239.82 27.06
  Z
  M 276.8217 12.7456
  A 0.45 0.45 0.0 0 0 276.3725 12.2949
  L 270.8325 12.2852
  A 0.45 0.45 0.0 0 0 270.3817 12.7344
  L 270.3383 37.6344
  A 0.45 0.45 0.0 0 0 270.7875 38.0851
  L 276.3275 38.0948
  A 0.45 0.45 0.0 0 0 276.7783 37.6456
  L 276.8217 12.7456
  Z
  M 297.87 33.12
  Q 298.78 33.12 299.46 33.01
  A 1.04 1.03 -82.2 0 0 300.24 32.41
  Q 302.17 28.09 304.76 21.75
  Q 305.21 20.64 305.62 20.35
  A 0.27 0.27 0.0 0 1 306.05 20.57
  L 306.05 37.31
  A 0.80 0.79 -0.0 0 0 306.85 38.10
  L 311.44 38.10
  A 0.76 0.76 0.0 0 0 312.20 37.34
  L 312.20 12.87
  A 0.57 0.57 0.0 0 0 311.63 12.30
  L 304.46 12.30
  A 1.04 1.03 11.7 0 0 303.51 12.92
  L 298.27 25.17
  A 0.32 0.27 -11.0 0 1 298.17 25.29
  Q 298.05 25.40 297.87 25.40
  Q 297.68 25.40 297.56 25.29
  A 0.32 0.27 10.9 0 1 297.46 25.17
  L 292.21 12.92
  A 1.04 1.03 -11.7 0 0 291.26 12.31
  L 284.09 12.31
  A 0.57 0.57 0.0 0 0 283.52 12.88
  L 283.54 37.35
  A 0.76 0.76 0.0 0 0 284.30 38.11
  L 288.89 38.11
  A 0.80 0.79 -0.0 0 0 289.69 37.32
  L 289.68 20.58
  A 0.27 0.27 0.0 0 1 290.11 20.36
  Q 290.52 20.65 290.97 21.76
  Q 293.56 28.09 295.50 32.41
  A 1.04 1.03 82.2 0 0 296.27 33.01
  Q 296.96 33.12 297.87 33.12
  Z
  M 326.02 28.87
  C 333.05 29.59 341.52 28.23 339.76 18.80
  Q 338.74 13.36 332.66 12.57
  Q 329.77 12.19 319.30 12.34
  A 0.58 0.58 0.0 0 0 318.73 12.92
  L 318.73 37.22
  A 0.86 0.85 0.0 0 0 319.59 38.07
  L 324.55 38.07
  A 0.84 0.83 -0.0 0 0 325.39 37.24
  L 325.39 29.44
  A 0.57 0.57 0.0 0 1 326.02 28.87
  Z
  M 351.98 33.32
  Q 355.60 33.33 356.36 33.34
  A 1.24 1.24 0.0 0 1 357.50 34.16
  L 358.69 37.37
  A 1.16 1.16 0.0 0 0 359.78 38.13
  L 364.59 38.13
  A 0.66 0.65 79.9 0 0 365.20 37.25
  L 356.16 12.84
  A 0.74 0.73 -7.3 0 0 355.54 12.37
  Q 355.07 12.33 352.00 12.32
  Q 348.93 12.32 348.47 12.36
  A 0.74 0.73 7.5 0 0 347.84 12.83
  L 338.74 37.22
  A 0.66 0.65 -79.8 0 0 339.35 38.10
  L 344.16 38.11
  A 1.16 1.16 0.0 0 0 345.25 37.35
  L 346.45 34.15
  A 1.24 1.24 0.0 0 1 347.59 33.33
  Q 348.35 33.32 351.98 33.32
  Z
  M 403.83 38.09
  Q 406.26 38.09 406.63 38.03
  A 0.51 0.50 -4.3 0 0 407.07 37.54
  L 407.07 17.93
  A 0.69 0.69 0.0 0 1 407.76 17.24
  L 415.04 17.24
  A 0.68 0.68 0.0 0 0 415.72 16.56
  L 415.72 12.97
  A 0.68 0.67 -0.6 0 0 415.03 12.30
  Q 412.38 12.37 403.80 12.33
  Q 395.23 12.38 392.57 12.32
  A 0.68 0.67 0.5 0 0 391.88 12.99
  L 391.89 16.58
  A 0.68 0.68 0.0 0 0 392.57 17.26
  L 399.85 17.25
  A 0.69 0.69 0.0 0 1 400.54 17.94
  L 400.58 37.55
  A 0.51 0.50 4.2 0 0 401.02 38.04
  Q 401.39 38.09 403.83 38.09
  Z
  M 217.9682 65.4616
  A 9.53 9.53 0.0 0 0 208.4216 55.9483
  L 206.4016 55.9518
  A 9.53 9.53 0.0 0 0 196.8882 65.4984
  L 196.8918 67.5784
  A 9.53 9.53 0.0 0 0 206.4384 77.0917
  L 208.4584 77.0882
  A 9.53 9.53 0.0 0 0 217.9718 67.5416
  L 217.9682 65.4616
  Z
  M 260.34 75.49
  A 0.25 0.24 9.9 0 0 260.50 75.72
  C 265.68 77.47 275.43 78.88 276.22 71.39
  C 276.91 64.88 271.08 64.64 266.26 63.53
  A 1.82 1.81 15.6 0 1 264.94 61.19
  C 265.83 58.55 271.89 59.98 273.91 60.78
  A 0.81 0.81 0.0 0 0 275.02 60.03
  L 275.01 57.84
  A 1.33 1.33 0.0 0 0 273.95 56.56
  C 270.20 55.76 262.09 54.66 260.50 59.96
  Q 259.29 63.97 261.92 66.39
  C 264.18 68.47 269.88 68.15 271.02 70.13
  Q 271.72 71.33 270.62 72.41
  Q 268.32 74.71 260.61 71.51
  A 0.21 0.21 0.0 0 0 260.31 71.70
  L 260.34 75.49
  Z
  M 279.39 75.47
  A 0.25 0.25 0.0 0 0 279.55 75.70
  C 284.73 77.50 294.50 78.98 295.34 71.47
  C 296.08 64.95 290.24 64.67 285.41 63.52
  A 1.82 1.82 0.0 0 1 284.10 61.16
  C 285.01 58.52 291.08 60.00 293.10 60.82
  A 0.81 0.81 0.0 0 0 294.22 60.07
  L 294.22 57.88
  A 1.34 1.33 6.2 0 0 293.17 56.58
  C 289.41 55.76 281.29 54.60 279.66 59.90
  Q 278.42 63.91 281.04 66.36
  C 283.29 68.46 289.01 68.18 290.14 70.17
  Q 290.83 71.38 289.72 72.46
  Q 287.40 74.75 279.69 71.48
  A 0.21 0.21 0.0 0 0 279.39 71.67
  L 279.39 75.47
  Z
  M 330.5488 65.5620
  A 9.54 9.54 0.0 0 0 321.0924 55.9391
  L 319.0925 55.9217
  A 9.54 9.54 0.0 0 0 309.4696 65.3781
  L 309.4512 67.4780
  A 9.54 9.54 0.0 0 0 318.9076 77.1009
  L 320.9075 77.1183
  A 9.54 9.54 0.0 0 0 330.5304 67.6619
  L 330.5488 65.5620
  Z
  M 397.86 75.42
  A 0.25 0.24 10.3 0 0 398.02 75.65
  C 403.18 77.44 412.91 78.91 413.74 71.43
  C 414.48 64.94 408.66 64.66 403.85 63.52
  A 1.82 1.81 16.0 0 1 402.54 61.17
  C 403.45 58.54 409.49 60.01 411.51 60.82
  A 0.81 0.80 -78.7 0 0 412.62 60.08
  L 412.62 57.90
  A 1.33 1.32 6.2 0 0 411.57 56.60
  C 407.83 55.79 399.74 54.64 398.12 59.92
  Q 396.89 63.91 399.50 66.35
  C 401.74 68.44 407.44 68.16 408.56 70.14
  Q 409.25 71.34 408.15 72.42
  Q 405.84 74.70 398.16 71.45
  A 0.21 0.21 0.0 0 0 397.86 71.64
  L 397.86 75.42
  Z
  M 160.76 76.15
  L 160.76 70.15
  A 0.55 0.55 0.0 0 1 161.30 69.60
  C 164.63 69.50 169.24 69.95 171.29 66.75
  C 174.11 62.36 171.84 57.00 166.25 56.46
  Q 164.38 56.27 156.21 56.31
  A 0.65 0.64 -0.5 0 0 155.57 56.95
  L 155.57 76.17
  A 0.53 0.53 0.0 0 0 156.10 76.70
  L 160.21 76.70
  A 0.55 0.55 0.0 0 0 160.76 76.15
  Z
  M 194.42 75.95
  C 192.97 72.83 191.38 68.95 189.14 67.60
  A 0.42 0.42 0.0 0 1 189.15 66.87
  C 194.38 64.09 192.74 56.75 186.60 56.39
  Q 183.90 56.24 177.22 56.30
  A 0.92 0.92 0.0 0 0 176.30 57.22
  L 176.30 76.04
  A 0.73 0.73 0.0 0 0 177.03 76.77
  L 180.92 76.77
  A 0.66 0.66 0.0 0 0 181.58 76.11
  L 181.58 69.82
  A 0.91 0.90 -88.8 0 1 182.52 68.91
  Q 185.55 69.03 186.87 71.90
  Q 188.46 75.37 188.65 75.80
  A 1.58 1.58 0.0 0 0 190.04 76.76
  L 193.80 76.89
  A 0.66 0.66 0.0 0 0 194.42 75.95
  Z
  M 235.69 60.26
  A 0.75 0.75 0.0 0 0 236.44 59.51
  L 236.44 57.04
  A 0.75 0.75 0.0 0 0 235.69 56.29
  L 222.71 56.29
  A 0.75 0.75 0.0 0 0 221.96 57.04
  L 221.96 76.01
  A 0.75 0.75 0.0 0 0 222.71 76.76
  L 226.62 76.76
  A 0.75 0.75 0.0 0 0 227.37 76.01
  L 227.37 68.85
  A 0.75 0.75 0.0 0 1 228.12 68.10
  L 235.13 68.10
  A 0.75 0.75 0.0 0 0 235.88 67.35
  L 235.88 64.82
  A 0.75 0.75 0.0 0 0 235.13 64.07
  L 228.10 64.07
  A 0.75 0.75 0.0 0 1 227.35 63.32
  L 227.35 61.01
  A 0.75 0.75 0.0 0 1 228.10 60.26
  L 235.69 60.26
  Z
  M 255.38 76.71
  A 0.71 0.71 0.0 0 0 256.09 76.00
  L 256.09 73.40
  A 0.71 0.71 0.0 0 0 255.38 72.69
  L 247.33 72.69
  A 0.71 0.71 0.0 0 1 246.62 71.98
  L 246.62 68.80
  A 0.71 0.71 0.0 0 1 247.33 68.09
  L 254.46 68.09
  A 0.71 0.71 0.0 0 0 255.17 67.38
  L 255.17 64.81
  A 0.71 0.71 0.0 0 0 254.46 64.10
  L 247.30 64.10
  A 0.71 0.71 0.0 0 1 246.59 63.39
  L 246.59 60.90
  A 0.71 0.71 0.0 0 1 247.30 60.19
  L 254.99 60.19
  A 0.71 0.71 0.0 0 0 255.70 59.48
  L 255.70 56.95
  A 0.71 0.71 0.0 0 0 254.99 56.24
  L 242.09 56.24
  A 0.71 0.71 0.0 0 0 241.38 56.95
  L 241.38 76.00
  A 0.71 0.71 0.0 0 0 242.09 76.71
  L 255.38 76.71
  Z
  M 305.48 56.76
  A 0.51 0.51 0.0 0 0 304.97 56.25
  L 300.65 56.25
  A 0.51 0.51 0.0 0 0 300.14 56.76
  L 300.14 76.26
  A 0.51 0.51 0.0 0 0 300.65 76.77
  L 304.97 76.77
  A 0.51 0.51 0.0 0 0 305.48 76.26
  L 305.48 56.76
  Z
  M 342.20 67.38
  Q 345.97 74.74 346.91 76.13
  A 1.44 1.43 72.5 0 0 348.09 76.75
  L 352.45 76.75
  A 0.69 0.69 0.0 0 0 353.14 76.06
  L 353.14 56.88
  A 0.57 0.57 0.0 0 0 352.57 56.31
  L 348.73 56.31
  A 0.56 0.55 0.0 0 0 348.17 56.86
  L 348.17 69.03
  A 0.35 0.34 15.4 0 1 347.65 69.32
  C 347.06 68.97 346.57 67.51 345.62 65.65
  Q 341.85 58.29 340.90 56.90
  A 1.44 1.43 72.5 0 0 339.72 56.28
  L 335.36 56.28
  A 0.69 0.69 0.0 0 0 334.67 56.97
  L 334.67 76.15
  A 0.57 0.57 0.0 0 0 335.24 76.72
  L 339.08 76.72
  A 0.56 0.55 0.0 0 0 339.64 76.17
  L 339.64 64.00
  A 0.35 0.34 15.4 0 1 340.17 63.71
  C 340.76 64.06 341.25 65.52 342.20 67.38
  Z
  M 366.66 72.93
  Q 369.92 72.93 370.02 72.95
  A 1.49 1.45 -12.4 0 1 370.93 73.52
  Q 371.40 74.15 371.66 75.70
  A 1.23 1.23 0.0 0 0 372.87 76.72
  L 376.41 76.72
  A 0.72 0.72 0.0 0 0 377.08 75.75
  L 370.06 56.95
  A 0.91 0.91 0.0 0 0 369.24 56.35
  Q 368.99 56.34 366.65 56.34
  Q 364.31 56.34 364.06 56.36
  A 0.91 0.91 0.0 0 0 363.24 56.95
  L 356.25 75.76
  A 0.72 0.72 0.0 0 0 356.92 76.73
  L 360.46 76.73
  A 1.23 1.23 0.0 0 0 361.67 75.71
  Q 361.93 74.16 362.40 73.53
  A 1.49 1.45 12.3 0 1 363.31 72.96
  Q 363.41 72.94 366.66 72.93
  Z
  M 385.50 56.95
  A 0.70 0.70 0.0 0 0 384.80 56.25
  L 380.97 56.25
  A 0.70 0.70 0.0 0 0 380.27 56.95
  L 380.27 75.97
  A 0.70 0.70 0.0 0 0 380.97 76.67
  L 394.15 76.67
  A 0.70 0.70 0.0 0 0 394.85 75.97
  L 394.85 73.49
  A 0.70 0.70 0.0 0 0 394.15 72.79
  L 386.20 72.79
  A 0.70 0.70 0.0 0 1 385.50 72.09
  L 385.50 56.95
  Z"
/>
<path fill="#ffffff" d="
  M 134.79 82.58
  A 0.27 0.27 0.0 0 1 134.52 82.85
  L 6.92 82.85
  A 0.27 0.27 0.0 0 1 6.65 82.58
  L 6.65 6.38
  A 0.27 0.27 0.0 0 1 6.92 6.11
  L 134.52 6.11
  A 0.27 0.27 0.0 0 1 134.79 6.38
  L 134.79 82.58
  Z
  M 39.48 44.86
  Q 45.27 44.86 46.72 44.88
  A 0.56 0.55 0.6 0 1 47.27 45.43
  L 47.27 61.71
  A 0.54 0.53 90.0 0 0 47.80 62.25
  L 57.28 62.25
  A 0.58 0.57 90.0 0 0 57.85 61.67
  L 57.85 21.78
  A 0.51 0.51 0.0 0 0 57.34 21.27
  L 47.82 21.27
  A 0.53 0.53 0.0 0 0 47.29 21.80
  L 47.29 36.06
  A 0.71 0.70 88.5 0 1 46.63 36.77
  Q 46.09 36.80 39.48 36.80
  Q 32.86 36.79 32.33 36.76
  A 0.71 0.70 -88.4 0 1 31.67 36.05
  L 31.68 21.79
  A 0.53 0.53 0.0 0 0 31.15 21.26
  L 21.63 21.26
  A 0.51 0.51 0.0 0 0 21.12 21.77
  L 21.09 61.66
  A 0.58 0.57 -90.0 0 0 21.66 62.24
  L 31.14 62.24
  A 0.54 0.53 -90.0 0 0 31.67 61.70
  L 31.68 45.42
  A 0.56 0.55 -0.5 0 1 32.23 44.87
  Q 33.68 44.85 39.48 44.86
  Z
  M 78.73 21.70
  A 0.43 0.43 0.0 0 0 78.30 21.27
  L 68.58 21.27
  A 0.43 0.43 0.0 0 0 68.15 21.70
  L 68.15 61.78
  A 0.43 0.43 0.0 0 0 68.58 62.21
  L 78.30 62.21
  A 0.43 0.43 0.0 0 0 78.73 61.78
  L 78.73 21.70
  Z
  M 100.18 47.95
  Q 105.54 48.41 110.83 47.67
  Q 121.27 46.22 122.59 36.82
  C 123.57 29.79 120.39 24.28 113.70 22.29
  Q 110.74 21.41 109.25 21.37
  Q 100.84 21.16 89.32 21.31
  A 0.33 0.33 0.0 0 0 89.00 21.64
  L 89.00 61.71
  A 0.53 0.53 0.0 0 0 89.53 62.24
  L 99.15 62.24
  A 0.50 0.49 -0.0 0 0 99.65 61.75
  L 99.65 48.44
  A 0.49 0.49 0.0 0 1 100.18 47.95
  Z"
/>
<path fill="#ffffff" d="
  M 222.38 24.32
  L 222.38 35.66
  A 0.79 0.79 0.0 0 1 221.89 36.39
  C 209.78 41.48 195.09 37.64 198.11 21.36
  Q 198.78 17.72 202.03 14.98
  C 207.03 10.74 215.38 11.31 221.14 13.61
  A 0.40 0.40 0.0 0 1 221.39 13.98
  L 221.39 18.82
  A 0.19 0.19 0.0 0 1 221.11 18.98
  C 213.61 14.82 203.68 15.38 204.60 26.71
  Q 205.02 31.81 210.00 33.49
  Q 211.01 33.83 215.45 33.50
  A 0.71 0.70 88.3 0 0 216.11 32.79
  L 216.11 28.85
  A 0.67 0.67 0.0 0 0 215.44 28.18
  L 212.76 28.18
  A 0.80 0.80 0.0 0 1 211.96 27.38
  L 211.96 24.60
  A 0.80 0.80 0.0 0 1 212.76 23.80
  L 221.86 23.80
  A 0.52 0.52 0.0 0 1 222.38 24.32
  Z"
/>
<path fill="#ffffff" d="
  M 374.34 25.14
  C 374.31 33.60 382.25 35.97 388.53 31.86
  A 0.60 0.60 0.0 0 1 389.46 32.37
  L 389.46 35.84
  A 1.31 1.31 0.0 0 1 388.60 37.07
  C 378.77 40.64 367.51 37.27 367.55 25.12
  C 367.59 12.96 378.87 9.66 388.67 13.29
  A 1.31 1.31 0.0 0 1 389.53 14.53
  L 389.51 18.00
  A 0.60 0.60 0.0 0 1 388.57 18.50
  C 382.32 14.35 374.37 16.67 374.34 25.14
  Z"
/>
<path fill="#ffffff" d="
  M 167.81 22.22
  Q 171.52 22.22 172.31 22.18
  A 0.49 0.48 88.4 0 0 172.76 21.69
  L 172.76 12.99
  A 0.68 0.68 0.0 0 1 173.44 12.31
  L 178.67 12.31
  A 0.67 0.67 0.0 0 1 179.34 12.98
  L 179.34 37.27
  A 0.86 0.86 0.0 0 1 178.48 38.13
  L 173.63 38.13
  A 0.84 0.84 0.0 0 1 172.79 37.29
  L 172.79 27.73
  A 0.76 0.76 0.0 0 0 172.01 26.97
  Q 169.04 27.07 167.81 27.07
  Q 166.59 27.07 163.62 26.97
  A 0.76 0.76 0.0 0 0 162.84 27.73
  L 162.84 37.29
  A 0.84 0.84 0.0 0 1 162.00 38.13
  L 157.15 38.13
  A 0.86 0.86 0.0 0 1 156.29 37.27
  L 156.29 12.98
  A 0.67 0.67 0.0 0 1 156.96 12.31
  L 162.19 12.31
  A 0.68 0.68 0.0 0 1 162.87 12.99
  L 162.87 21.69
  A 0.49 0.48 -88.4 0 0 163.32 22.18
  Q 164.11 22.22 167.81 22.22
  Z"
/>
<rect fill="#ffffff" x="185.94" y="12.29" width="6.62" height="25.84" rx="0.54"/>
<path fill="#ffffff" d="
  M 239.82 27.06
  Q 238.60 27.06 235.63 26.96
  A 0.76 0.76 0.0 0 0 234.85 27.72
  L 234.85 37.28
  A 0.84 0.84 0.0 0 1 234.01 38.12
  L 229.16 38.12
  A 0.86 0.86 0.0 0 1 228.30 37.26
  L 228.30 12.97
  A 0.67 0.67 0.0 0 1 228.97 12.30
  L 234.20 12.30
  A 0.68 0.68 0.0 0 1 234.88 12.98
  L 234.88 21.68
  A 0.49 0.48 -88.4 0 0 235.33 22.17
  Q 236.12 22.21 239.82 22.21
  Q 243.53 22.21 244.32 22.17
  A 0.49 0.48 88.4 0 0 244.77 21.68
  L 244.77 12.98
  A 0.68 0.68 0.0 0 1 245.45 12.30
  L 250.68 12.30
  A 0.67 0.67 0.0 0 1 251.35 12.97
  L 251.35 37.26
  A 0.86 0.86 0.0 0 1 250.49 38.12
  L 245.64 38.12
  A 0.84 0.84 0.0 0 1 244.80 37.28
  L 244.80 27.72
  A 0.76 0.76 0.0 0 0 244.02 26.96
  Q 241.05 27.06 239.82 27.06
  Z"
/>
<rect fill="#ffffff" x="-3.22" y="-12.90" transform="translate(273.58,25.19) rotate(0.1)" width="6.44" height="25.80" rx="0.45"/>
<path fill="#ffffff" d="
  M 297.87 25.40
  Q 298.05 25.40 298.17 25.29
  A 0.32 0.27 -11.0 0 0 298.27 25.17
  L 303.51 12.92
  A 1.04 1.03 11.7 0 1 304.46 12.30
  L 311.63 12.30
  A 0.57 0.57 0.0 0 1 312.20 12.87
  L 312.20 37.34
  A 0.76 0.76 0.0 0 1 311.44 38.10
  L 306.85 38.10
  A 0.80 0.79 0.0 0 1 306.05 37.31
  L 306.05 20.57
  A 0.27 0.27 0.0 0 0 305.62 20.35
  Q 305.21 20.64 304.76 21.75
  Q 302.17 28.09 300.24 32.41
  A 1.04 1.03 -82.2 0 1 299.46 33.01
  Q 298.78 33.12 297.87 33.12
  Q 296.96 33.12 296.27 33.01
  A 1.04 1.03 82.2 0 1 295.50 32.41
  Q 293.56 28.09 290.97 21.76
  Q 290.52 20.65 290.11 20.36
  A 0.27 0.27 0.0 0 0 289.68 20.58
  L 289.69 37.32
  A 0.80 0.79 -0.0 0 1 288.89 38.11
  L 284.30 38.11
  A 0.76 0.76 0.0 0 1 283.54 37.35
  L 283.52 12.88
  A 0.57 0.57 0.0 0 1 284.09 12.31
  L 291.26 12.31
  A 1.04 1.03 -11.7 0 1 292.21 12.92
  L 297.46 25.17
  A 0.32 0.27 10.9 0 0 297.56 25.29
  Q 297.68 25.40 297.87 25.40
  Z"
/>
<path fill="#ffffff" d="
  M 326.02 28.87
  A 0.57 0.57 0.0 0 0 325.39 29.44
  L 325.39 37.24
  A 0.84 0.83 -0.0 0 1 324.55 38.07
  L 319.59 38.07
  A 0.86 0.85 -0.0 0 1 318.73 37.22
  L 318.73 12.92
  A 0.58 0.58 0.0 0 1 319.30 12.34
  Q 329.77 12.19 332.66 12.57
  Q 338.74 13.36 339.76 18.80
  C 341.52 28.23 333.05 29.59 326.02 28.87
  Z
  M 325.43 17.64
  L 325.41 23.68
  A 0.70 0.70 0.0 0 0 326.11 24.38
  L 329.09 24.39
  A 4.18 3.55 0.1 0 0 333.28 20.85
  L 333.28 20.51
  A 4.18 3.55 0.1 0 0 329.11 16.95
  L 326.13 16.94
  A 0.70 0.70 0.0 0 0 325.43 17.64
  Z"
/>
<path fill="#ffffff" d="
  M 352.00 12.32
  Q 355.07 12.33 355.54 12.37
  A 0.74 0.73 -7.3 0 1 356.16 12.84
  L 365.20 37.25
  A 0.66 0.65 79.9 0 1 364.59 38.13
  L 359.78 38.13
  A 1.16 1.16 0.0 0 1 358.69 37.37
  L 357.50 34.16
  A 1.24 1.24 0.0 0 0 356.36 33.34
  Q 355.60 33.33 351.98 33.32
  Q 348.35 33.32 347.59 33.33
  A 1.24 1.24 0.0 0 0 346.45 34.15
  L 345.25 37.35
  A 1.16 1.16 0.0 0 1 344.16 38.11
  L 339.35 38.10
  A 0.66 0.65 -79.8 0 1 338.74 37.22
  L 347.84 12.83
  A 0.74 0.73 7.5 0 1 348.47 12.36
  Q 348.93 12.32 352.00 12.32
  Z
  M 348.65 28.07
  A 0.45 0.45 0.0 0 0 349.08 28.66
  L 354.93 28.64
  A 0.45 0.45 0.0 0 0 355.35 28.05
  L 352.40 19.35
  A 0.45 0.45 0.0 0 0 351.54 19.35
  L 348.65 28.07
  Z"
/>
<path fill="#ffffff" d="
  M 403.80 12.33
  Q 412.38 12.37 415.03 12.30
  A 0.68 0.67 -0.6 0 1 415.72 12.97
  L 415.72 16.56
  A 0.68 0.68 0.0 0 1 415.04 17.24
  L 407.76 17.24
  A 0.69 0.69 0.0 0 0 407.07 17.93
  L 407.07 37.54
  A 0.51 0.50 -4.3 0 1 406.63 38.03
  Q 406.26 38.09 403.83 38.09
  Q 401.39 38.09 401.02 38.04
  A 0.51 0.50 4.2 0 1 400.58 37.55
  L 400.54 17.94
  A 0.69 0.69 0.0 0 0 399.85 17.25
  L 392.57 17.26
  A 0.68 0.68 0.0 0 1 391.89 16.58
  L 391.88 12.99
  A 0.68 0.67 0.5 0 1 392.57 12.32
  Q 395.23 12.38 403.80 12.33
  Z"
/>
<path fill="#000000" d="
  M 325.43 17.64
  A 0.70 0.70 0.0 0 1 326.13 16.94
  L 329.11 16.95
  A 4.18 3.55 0.1 0 1 333.28 20.51
  L 333.28 20.85
  A 4.18 3.55 0.1 0 1 329.09 24.39
  L 326.11 24.38
  A 0.70 0.70 0.0 0 1 325.41 23.68
  L 325.43 17.64
  Z"
/>
<path fill="#000000" d="
  M 348.65 28.07
  L 351.54 19.35
  A 0.45 0.45 0.0 0 1 352.40 19.35
  L 355.35 28.05
  A 0.45 0.45 0.0 0 1 354.93 28.64
  L 349.08 28.66
  A 0.45 0.45 0.0 0 1 348.65 28.07
  Z"
/>
<path fill="#000000" d="
  M 39.48 36.80
  Q 46.09 36.80 46.63 36.77
  A 0.71 0.70 88.5 0 0 47.29 36.06
  L 47.29 21.80
  A 0.53 0.53 0.0 0 1 47.82 21.27
  L 57.34 21.27
  A 0.51 0.51 0.0 0 1 57.85 21.78
  L 57.85 61.67
  A 0.58 0.57 90.0 0 1 57.28 62.25
  L 47.80 62.25
  A 0.54 0.53 90.0 0 1 47.27 61.71
  L 47.27 45.43
  A 0.56 0.55 0.6 0 0 46.72 44.88
  Q 45.27 44.86 39.48 44.86
  Q 33.68 44.85 32.23 44.87
  A 0.56 0.55 -0.5 0 0 31.68 45.42
  L 31.67 61.70
  A 0.54 0.53 -90.0 0 1 31.14 62.24
  L 21.66 62.24
  A 0.58 0.57 -90.0 0 1 21.09 61.66
  L 21.12 21.77
  A 0.51 0.51 0.0 0 1 21.63 21.26
  L 31.15 21.26
  A 0.53 0.53 0.0 0 1 31.68 21.79
  L 31.67 36.05
  A 0.71 0.70 -88.4 0 0 32.33 36.76
  Q 32.86 36.79 39.48 36.80
  Z"
/>
<rect fill="#000000" x="68.15" y="21.27" width="10.58" height="40.94" rx="0.43"/>
<path fill="#000000" d="
  M 100.18 47.95
  A 0.49 0.49 0.0 0 0 99.65 48.44
  L 99.65 61.75
  A 0.50 0.49 0.0 0 1 99.15 62.24
  L 89.53 62.24
  A 0.53 0.53 0.0 0 1 89.00 61.71
  L 89.00 21.64
  A 0.33 0.33 0.0 0 1 89.32 21.31
  Q 100.84 21.16 109.25 21.37
  Q 110.74 21.41 113.70 22.29
  C 120.39 24.28 123.57 29.79 122.59 36.82
  Q 121.27 46.22 110.83 47.67
  Q 105.54 48.41 100.18 47.95
  Z
  M 99.64 29.46
  L 99.64 39.88
  A 0.42 0.42 0.0 0 0 100.06 40.30
  L 106.08 40.30
  A 5.66 4.93 -0.0 0 0 111.74 35.37
  L 111.74 33.97
  A 5.66 4.93 -0.0 0 0 106.08 29.04
  L 100.06 29.04
  A 0.42 0.42 0.0 0 0 99.64 29.46
  Z"
/>
<path fill="#ffffff" d="
  M 99.64 29.46
  A 0.42 0.42 0.0 0 1 100.06 29.04
  L 106.08 29.04
  A 5.66 4.93 0.0 0 1 111.74 33.97
  L 111.74 35.37
  A 5.66 4.93 0.0 0 1 106.08 40.30
  L 100.06 40.30
  A 0.42 0.42 0.0 0 1 99.64 39.88
  L 99.64 29.46
  Z"
/>
<path fill="#ffffff" d="
  M 217.9718 67.5416
  A 9.53 9.53 0.0 0 1 208.4584 77.0882
  L 206.4384 77.0917
  A 9.53 9.53 0.0 0 1 196.8918 67.5784
  L 196.8882 65.4984
  A 9.53 9.53 0.0 0 1 206.4016 55.9518
  L 208.4216 55.9483
  A 9.53 9.53 0.0 0 1 217.9682 65.4616
  L 217.9718 67.5416
  Z
  M 207.4765 59.5101
  A 6.97 5.25 -89.7 0 0 202.1901 66.4525
  A 6.97 5.25 -89.7 0 0 207.4035 73.4499
  A 6.97 5.25 -89.7 0 0 212.6899 66.5075
  A 6.97 5.25 -89.7 0 0 207.4765 59.5101
  Z"
/>
<path fill="#ffffff" d="
  M 260.34 75.49
  L 260.31 71.70
  A 0.21 0.21 0.0 0 1 260.61 71.51
  Q 268.32 74.71 270.62 72.41
  Q 271.72 71.33 271.02 70.13
  C 269.88 68.15 264.18 68.47 261.92 66.39
  Q 259.29 63.97 260.50 59.96
  C 262.09 54.66 270.20 55.76 273.95 56.56
  A 1.33 1.33 0.0 0 1 275.01 57.84
  L 275.02 60.03
  A 0.81 0.81 0.0 0 1 273.91 60.78
  C 271.89 59.98 265.83 58.55 264.94 61.19
  A 1.82 1.81 15.6 0 0 266.26 63.53
  C 271.08 64.64 276.91 64.88 276.22 71.39
  C 275.43 78.88 265.68 77.47 260.50 75.72
  A 0.25 0.24 9.9 0 1 260.34 75.49
  Z"
/>
<path fill="#ffffff" d="
  M 279.39 75.47
  L 279.39 71.67
  A 0.21 0.21 0.0 0 1 279.69 71.48
  Q 287.40 74.75 289.72 72.46
  Q 290.83 71.38 290.14 70.17
  C 289.01 68.18 283.29 68.46 281.04 66.36
  Q 278.42 63.91 279.66 59.90
  C 281.29 54.60 289.41 55.76 293.17 56.58
  A 1.34 1.33 6.2 0 1 294.22 57.88
  L 294.22 60.07
  A 0.81 0.81 0.0 0 1 293.10 60.82
  C 291.08 60.00 285.01 58.52 284.10 61.16
  A 1.82 1.82 0.0 0 0 285.41 63.52
  C 290.24 64.67 296.08 64.95 295.34 71.47
  C 294.50 78.98 284.73 77.50 279.55 75.70
  A 0.25 0.25 0.0 0 1 279.39 75.47
  Z"
/>
<path fill="#ffffff" d="
  M 330.5304 67.6619
  A 9.54 9.54 0.0 0 1 320.9075 77.1183
  L 318.9076 77.1009
  A 9.54 9.54 0.0 0 1 309.4512 67.4780
  L 309.4696 65.3781
  A 9.54 9.54 0.0 0 1 319.0925 55.9217
  L 321.0924 55.9391
  A 9.54 9.54 0.0 0 1 330.5488 65.5620
  L 330.5304 67.6619
  Z
  M 320.1243 59.5300
  A 6.96 5.24 -89.8 0 0 314.8600 66.4717
  A 6.96 5.24 -89.8 0 0 320.0757 73.4500
  A 6.96 5.24 -89.8 0 0 325.3400 66.5083
  A 6.96 5.24 -89.8 0 0 320.1243 59.5300
  Z"
/>
<path fill="#ffffff" d="
  M 397.86 75.42
  L 397.86 71.64
  A 0.21 0.21 0.0 0 1 398.16 71.45
  Q 405.84 74.70 408.15 72.42
  Q 409.25 71.34 408.56 70.14
  C 407.44 68.16 401.74 68.44 399.50 66.35
  Q 396.89 63.91 398.12 59.92
  C 399.74 54.64 407.83 55.79 411.57 56.60
  A 1.33 1.32 6.2 0 1 412.62 57.90
  L 412.62 60.08
  A 0.81 0.80 -78.7 0 1 411.51 60.82
  C 409.49 60.01 403.45 58.54 402.54 61.17
  A 1.82 1.81 16.0 0 0 403.85 63.52
  C 408.66 64.66 414.48 64.94 413.74 71.43
  C 412.91 78.91 403.18 77.44 398.02 75.65
  A 0.25 0.24 10.3 0 1 397.86 75.42
  Z"
/>
<path fill="#ffffff" d="
  M 160.76 76.15
  A 0.55 0.55 0.0 0 1 160.21 76.70
  L 156.10 76.70
  A 0.53 0.53 0.0 0 1 155.57 76.17
  L 155.57 56.95
  A 0.65 0.64 -0.5 0 1 156.21 56.31
  Q 164.38 56.27 166.25 56.46
  C 171.84 57.00 174.11 62.36 171.29 66.75
  C 169.24 69.95 164.63 69.50 161.30 69.60
  A 0.55 0.55 0.0 0 0 160.76 70.15
  L 160.76 76.15
  Z
  M 160.75 60.78
  L 160.71 65.04
  A 0.78 0.78 0.0 0 0 161.48 65.82
  L 163.99 65.85
  A 3.07 2.81 0.6 0 0 167.09 63.07
  L 167.09 62.87
  A 3.07 2.81 0.6 0 0 164.05 60.03
  L 161.54 60.01
  A 0.78 0.78 0.0 0 0 160.75 60.78
  Z"
/>
<path fill="#ffffff" d="
  M 194.42 75.95
  A 0.66 0.66 0.0 0 1 193.80 76.89
  L 190.04 76.76
  A 1.58 1.58 0.0 0 1 188.65 75.80
  Q 188.46 75.37 186.87 71.90
  Q 185.55 69.03 182.52 68.91
  A 0.91 0.90 -88.8 0 0 181.58 69.82
  L 181.58 76.11
  A 0.66 0.66 0.0 0 1 180.92 76.77
  L 177.03 76.77
  A 0.73 0.73 0.0 0 1 176.30 76.04
  L 176.30 57.22
  A 0.92 0.92 0.0 0 1 177.22 56.30
  Q 183.90 56.24 186.60 56.39
  C 192.74 56.75 194.38 64.09 189.15 66.87
  A 0.42 0.42 0.0 0 0 189.14 67.60
  C 191.38 68.95 192.97 72.83 194.42 75.95
  Z
  M 181.52 60.94
  L 181.57 64.54
  A 0.86 0.86 0.0 0 0 182.44 65.39
  L 184.36 65.36
  A 2.66 2.54 -0.8 0 0 186.98 62.78
  L 186.98 62.54
  A 2.66 2.54 -0.8 0 0 184.28 60.04
  L 182.36 60.07
  A 0.86 0.86 0.0 0 0 181.52 60.94
  Z"
/>
<path fill="#ffffff" d="
  M 235.69 60.26
  L 228.10 60.26
  A 0.75 0.75 0.0 0 0 227.35 61.01
  L 227.35 63.32
  A 0.75 0.75 0.0 0 0 228.10 64.07
  L 235.13 64.07
  A 0.75 0.75 0.0 0 1 235.88 64.82
  L 235.88 67.35
  A 0.75 0.75 0.0 0 1 235.13 68.10
  L 228.12 68.10
  A 0.75 0.75 0.0 0 0 227.37 68.85
  L 227.37 76.01
  A 0.75 0.75 0.0 0 1 226.62 76.76
  L 222.71 76.76
  A 0.75 0.75 0.0 0 1 221.96 76.01
  L 221.96 57.04
  A 0.75 0.75 0.0 0 1 222.71 56.29
  L 235.69 56.29
  A 0.75 0.75 0.0 0 1 236.44 57.04
  L 236.44 59.51
  A 0.75 0.75 0.0 0 1 235.69 60.26
  Z"
/>
<path fill="#ffffff" d="
  M 255.38 76.71
  L 242.09 76.71
  A 0.71 0.71 0.0 0 1 241.38 76.00
  L 241.38 56.95
  A 0.71 0.71 0.0 0 1 242.09 56.24
  L 254.99 56.24
  A 0.71 0.71 0.0 0 1 255.70 56.95
  L 255.70 59.48
  A 0.71 0.71 0.0 0 1 254.99 60.19
  L 247.30 60.19
  A 0.71 0.71 0.0 0 0 246.59 60.90
  L 246.59 63.39
  A 0.71 0.71 0.0 0 0 247.30 64.10
  L 254.46 64.10
  A 0.71 0.71 0.0 0 1 255.17 64.81
  L 255.17 67.38
  A 0.71 0.71 0.0 0 1 254.46 68.09
  L 247.33 68.09
  A 0.71 0.71 0.0 0 0 246.62 68.80
  L 246.62 71.98
  A 0.71 0.71 0.0 0 0 247.33 72.69
  L 255.38 72.69
  A 0.71 0.71 0.0 0 1 256.09 73.40
  L 256.09 76.00
  A 0.71 0.71 0.0 0 1 255.38 76.71
  Z"
/>
<rect fill="#ffffff" x="300.14" y="56.25" width="5.34" height="20.52" rx="0.51"/>
<path fill="#ffffff" d="
  M 345.62 65.65
  C 346.57 67.51 347.06 68.97 347.65 69.32
  A 0.35 0.34 15.4 0 0 348.17 69.03
  L 348.17 56.86
  A 0.56 0.55 0.0 0 1 348.73 56.31
  L 352.57 56.31
  A 0.57 0.57 0.0 0 1 353.14 56.88
  L 353.14 76.06
  A 0.69 0.69 0.0 0 1 352.45 76.75
  L 348.09 76.75
  A 1.44 1.43 72.5 0 1 346.91 76.13
  Q 345.97 74.74 342.20 67.38
  C 341.25 65.52 340.76 64.06 340.17 63.71
  A 0.35 0.34 15.4 0 0 339.64 64.00
  L 339.64 76.17
  A 0.56 0.55 0.0 0 1 339.08 76.72
  L 335.24 76.72
  A 0.57 0.57 0.0 0 1 334.67 76.15
  L 334.67 56.97
  A 0.69 0.69 0.0 0 1 335.36 56.28
  L 339.72 56.28
  A 1.44 1.43 72.5 0 1 340.90 56.90
  Q 341.85 58.29 345.62 65.65
  Z"
/>
<path fill="#ffffff" d="
  M 366.65 56.34
  Q 368.99 56.34 369.24 56.35
  A 0.91 0.91 0.0 0 1 370.06 56.95
  L 377.08 75.75
  A 0.72 0.72 0.0 0 1 376.41 76.72
  L 372.87 76.72
  A 1.23 1.23 0.0 0 1 371.66 75.70
  Q 371.40 74.15 370.93 73.52
  A 1.49 1.45 -12.4 0 0 370.02 72.95
  Q 369.92 72.93 366.66 72.93
  Q 363.41 72.94 363.31 72.96
  A 1.49 1.45 12.3 0 0 362.40 73.53
  Q 361.93 74.16 361.67 75.71
  A 1.23 1.23 0.0 0 1 360.46 76.73
  L 356.92 76.73
  A 0.72 0.72 0.0 0 1 356.25 75.76
  L 363.24 56.95
  A 0.91 0.91 0.0 0 1 364.06 56.36
  Q 364.31 56.34 366.65 56.34
  Z
  M 366.72 69.31
  Q 368.61 69.30 368.84 69.28
  A 0.62 0.62 0.0 0 0 369.38 68.44
  Q 368.30 65.51 367.07 61.88
  Q 367.00 61.66 366.66 61.67
  Q 366.32 61.67 366.25 61.89
  Q 365.08 65.54 364.04 68.48
  A 0.62 0.62 0.0 0 0 364.60 69.32
  Q 364.82 69.33 366.72 69.31
  Z"
/>
<path fill="#ffffff" d="
  M 385.50 56.95
  L 385.50 72.09
  A 0.70 0.70 0.0 0 0 386.20 72.79
  L 394.15 72.79
  A 0.70 0.70 0.0 0 1 394.85 73.49
  L 394.85 75.97
  A 0.70 0.70 0.0 0 1 394.15 76.67
  L 380.97 76.67
  A 0.70 0.70 0.0 0 1 380.27 75.97
  L 380.27 56.95
  A 0.70 0.70 0.0 0 1 380.97 56.25
  L 384.80 56.25
  A 0.70 0.70 0.0 0 1 385.50 56.95
  Z"
/>
<ellipse fill="#000000" cx="0.00" cy="0.00" transform="translate(207.44,66.48) rotate(-89.7)" rx="6.97" ry="5.25"/>
<ellipse fill="#000000" cx="0.00" cy="0.00" transform="translate(320.10,66.49) rotate(-89.8)" rx="6.96" ry="5.24"/>
<path fill="#000000" d="
  M 160.75 60.78
  A 0.78 0.78 0.0 0 1 161.54 60.01
  L 164.05 60.03
  A 3.07 2.81 0.6 0 1 167.09 62.87
  L 167.09 63.07
  A 3.07 2.81 0.6 0 1 163.99 65.85
  L 161.48 65.82
  A 0.78 0.78 0.0 0 1 160.71 65.04
  L 160.75 60.78
  Z"
/>
<path fill="#000000" d="
  M 181.52 60.94
  A 0.86 0.86 0.0 0 1 182.36 60.07
  L 184.28 60.04
  A 2.66 2.54 -0.8 0 1 186.98 62.54
  L 186.98 62.78
  A 2.66 2.54 -0.8 0 1 184.36 65.36
  L 182.44 65.39
  A 0.86 0.86 0.0 0 1 181.57 64.54
  L 181.52 60.94
  Z"
/>
<path fill="#000000" d="
  M 366.66 61.67
  Q 367.00 61.66 367.07 61.88
  Q 368.30 65.51 369.38 68.44
  A 0.62 0.62 0.0 0 1 368.84 69.28
  Q 368.61 69.30 366.72 69.31
  Q 364.82 69.33 364.60 69.32
  A 0.62 0.62 0.0 0 1 364.04 68.48
  Q 365.08 65.54 366.25 61.89
  Q 366.32 61.67 366.66 61.67
  Z"
/>
</svg>
