<svg xmlns="http://www.w3.org/2000/svg" xmlns:xlink="http://www.w3.org/1999/xlink" width="750" zoomAndPan="magnify" viewBox="0 0 562.5 187.499995" height="250" preserveAspectRatio="xMidYMid meet" version="1.2"><defs><clipPath id="be4ae3b636"><path d="M 0.5 0 L 561.503906 0 L 561.503906 187 L 0.5 187 Z M 0.5 0 "/></clipPath><clipPath id="96eb7d5630"><path d="M 11.878906 22.1875 L 90 22.1875 L 90 100 L 11.878906 100 Z M 11.878906 22.1875 "/></clipPath><clipPath id="2427c48509"><path d="M 11.878906 22.1875 L 162 22.1875 L 162 172 L 11.878906 172 Z M 11.878906 22.1875 "/></clipPath><clipPath id="961801a9a6"><path d="M 187 22.1875 L 214 22.1875 L 214 95 L 187 95 Z M 187 22.1875 "/></clipPath><clipPath id="d91fecb4b5"><path d="M 419 22.1875 L 463 22.1875 L 463 95 L 419 95 Z M 419 22.1875 "/></clipPath><clipPath id="8946c38600"><path d="M 499 113 L 550.445312 113 L 550.445312 184.503906 L 499 184.503906 Z M 499 113 "/></clipPath><clipPath id="89097002d3"><path d="M 11.878906 22.1875 L 81 22.1875 L 81 91 L 11.878906 91 Z M 11.878906 22.1875 "/></clipPath><clipPath id="84fb690767"><path d="M 11.878906 22.1875 L 154 22.1875 L 154 164 L 11.878906 164 Z M 11.878906 22.1875 "/></clipPath><clipPath id="cb14b3fb75"><path d="M 11.878906 22.1875 L 550.445312 22.1875 L 550.445312 184.503906 L 11.878906 184.503906 Z M 11.878906 22.1875 "/></clipPath><clipPath id="f04e1124b2"><path d="M 196 22.1875 L 206 22.1875 L 206 86 L 196 86 Z M 196 22.1875 "/></clipPath><clipPath id="17fca65811"><path d="M 507 121 L 550.445312 121 L 550.445312 184.503906 L 507 184.503906 Z M 507 121 "/></clipPath></defs><g id="0a5d0e6aa0"><g clip-rule="nonzero" clip-path="url(#be4ae3b636)"><path style=" stroke:none;fill-rule:nonzero;fill:#ffffff;fill-opacity:1;" d="M 0.5 0 L 561.503906 0 L 561.503906 187 L 0.5 187 Z M 0.5 0 "/><path style=" stroke:none;fill-rule:nonzero;fill:#ffffff;fill-opacity:1;" d="M 0.5 0 L 561.503906 0 L 561.503906 187 L 0.5 187 Z M 0.5 0 "/></g><g clip-rule="nonzero" clip-path="url(#96eb7d5630)"><path style="fill:none;stroke-width:2;stroke-linecap:butt;stroke-linejoin:miter;stroke:#86a6d0;stroke-opacity:1;stroke-miterlimit:4;" d="M 90.678568 0.00132066 C 87.667176 1.659626 87.568014 4.630975 87.766338 8.08883 C 89.201577 33.732406 90.636815 59.339364 92.077273 84.904472 C 92.077273 84.967247 92.051178 85.003866 91.993768 85.01956 C 91.93114 85.035253 91.889387 85.01956 91.858073 84.967247 C 69.656237 40.883522 57.866404 17.463226 56.483356 14.706358 C 55.403013 12.540622 52.391621 9.553579 49.688154 11.117722 C 48.644344 11.719316 47.078629 12.629553 44.980571 13.837971 C 42.219694 15.423039 43.049523 19.309856 44.458666 21.459899 C 68.675056 58.52329 83.079632 80.520687 87.672395 87.457321 C 87.693272 87.483477 87.693272 87.514865 87.672395 87.541021 C 87.656738 87.572409 87.630643 87.582871 87.599329 87.582871 C 87.515824 87.572409 87.411443 87.530559 87.291405 87.446859 C 86.790376 87.101596 64.979969 72.783671 21.854963 44.487852 C 19.793439 43.132959 15.675609 41.940234 14.109894 44.576783 C 12.549398 47.202869 11.55256 48.944875 11.119379 49.8028 C 9.840712 52.350417 12.585932 55.201447 14.683989 56.263391 C 19.506391 58.711615 42.924266 70.539466 84.932394 91.746944 C 85.000242 91.778332 85.021118 91.830644 85.005461 91.903882 C 84.984585 91.977119 84.937614 92.013738 84.864547 92.008507 C 63.221149 90.758239 37.042397 89.25687 6.338729 87.509634 C 3.932748 87.36839 1.020518 88.252471 -0.00241554 90.664076 " transform="matrix(0.74846,0,0,0.746715,11.88462,22.186514)"/></g><g clip-rule="nonzero" clip-path="url(#2427c48509)"><path style="fill:none;stroke-width:2;stroke-linecap:butt;stroke-linejoin:miter;stroke:#86a6d0;stroke-opacity:1;stroke-miterlimit:4;" d="M 98.251409 0.00132066 C 100.965314 0.906327 101.560286 4.327563 101.414153 6.87518 C 98.851599 51.455874 97.358951 77.470869 96.946646 84.925397 C 96.936208 84.993403 96.967522 85.030022 97.024932 85.050947 C 97.087561 85.066641 97.134532 85.045716 97.160627 84.988172 C 99.838 79.657531 111.680023 56.226772 132.676258 14.690664 C 133.730506 12.603397 136.647955 9.80991 139.153099 11.10726 C 139.617594 11.347897 141.193747 12.24244 143.871119 13.785659 C 147.320911 15.778764 145.828263 19.791131 144.137291 22.364905 C 118.443911 61.442326 104.185468 83.157235 101.367181 87.509634 C 101.341086 87.551484 101.346305 87.593334 101.382838 87.624721 C 101.419372 87.66134 101.455905 87.66134 101.497657 87.635184 C 104.409887 85.699622 126.397742 71.31369 167.466442 44.472158 C 169.444462 43.18004 173.322215 42.275034 174.88793 44.639558 C 174.908806 44.670946 175.832578 46.276939 177.664464 49.447075 C 179.449379 52.549205 176.47974 55.374078 173.95372 56.64004 C 134.899573 76.272913 111.575642 88.011833 103.976706 91.856801 C 103.924515 91.888188 103.908858 91.935269 103.924515 91.992813 C 103.940172 92.050357 103.976706 92.081744 104.039334 92.081744 C 107.73964 91.856801 133.965364 90.397282 182.711285 87.692727 C 185.513915 87.53579 189.031554 88.806983 189.031554 91.966657 C 189.031554 94.210862 189.026335 95.916249 189.015897 97.082817 C 188.984582 100.409891 185.4826 101.576459 182.716504 101.435215 C 175.884768 101.069028 149.622512 99.562429 103.929734 96.915417 C 103.872325 96.915417 103.835791 96.936342 103.820134 96.993886 C 103.809696 97.046198 103.825353 97.088048 103.877544 97.114205 C 125.416561 108.000431 148.813559 119.823051 174.073758 132.582065 C 176.385797 133.748633 179.251055 136.688594 177.695779 139.424537 C 176.291854 141.893686 175.321111 143.562454 174.77833 144.42561 C 173.165644 147.02554 169.073909 145.764809 166.98107 144.388991 C 144.669634 129.75196 122.833131 115.413109 101.466343 101.37244 C 101.419372 101.346284 101.377619 101.351515 101.341086 101.388134 C 101.304552 101.424753 101.299333 101.466603 101.325429 101.513684 C 128.104371 142.437735 142.409786 164.29912 144.236453 167.103069 C 145.562091 169.127562 146.866854 173.349179 144.272986 174.876703 C 141.699995 176.388534 140.30129 177.209839 140.071651 177.345852 C 139.116565 177.910827 138.401556 178.203777 137.921403 178.229933 C 135.296221 178.376408 133.266011 175.91249 132.185668 173.751985 C 112.515071 134.606557 100.813962 111.34843 97.082341 103.977602 C 97.045808 103.920058 96.998837 103.904364 96.936208 103.920058 C 96.878799 103.935752 96.847484 103.977602 96.847484 104.045608 C 97.191942 109.815674 98.653275 136.039919 101.241924 182.718343 C 101.3724 185.088099 100.265962 188.896447 97.358951 188.995841 C 96.581313 189.021997 94.864245 189.032459 92.212968 189.021997 C 91.257882 189.021997 90.568968 188.922603 90.151444 188.723816 C 88.048167 187.714185 87.369691 184.570205 87.494948 182.45155 C 88.564853 163.859695 90.067939 137.708687 92.004206 103.993295 C 92.009425 103.93052 91.98333 103.88867 91.920702 103.872977 C 91.858073 103.857283 91.816321 103.878208 91.790225 103.935752 C 89.394682 108.680493 77.568316 132.090327 56.305908 174.165253 C 55.230784 176.294371 52.266364 179.187251 49.693373 177.780045 C 47.67882 176.676252 45.946095 175.671853 44.505638 174.772078 C 42.089218 173.27071 43.01299 169.321118 44.270781 167.40125 C 70.486066 127.455442 84.916737 105.47897 87.557576 101.482296 C 87.583672 101.435215 87.578453 101.393365 87.541919 101.356747 C 87.505386 101.320128 87.463633 101.314897 87.421881 101.341053 C 83.413651 103.946214 61.62412 118.196133 22.053287 144.09081 C 19.762125 145.592178 15.686047 146.967996 13.948104 144.13266 C 13.467951 143.347973 12.528522 141.705361 11.124598 139.199593 C 9.527569 136.364257 12.653779 133.460914 14.981475 132.289115 C 32.126053 123.678481 55.376918 111.97618 84.744509 97.187442 C 84.822794 97.150823 84.854109 97.088048 84.833233 96.999117 C 84.807137 96.915417 84.749728 96.873567 84.661004 96.878798 C 58.247395 98.348779 32.047767 99.808297 6.067339 101.262584 C 3.170766 101.419522 1.145775 100.378503 -0.00241554 98.139529 " transform="matrix(0.74846,0,0,0.746715,11.88462,22.186514)"/></g><g clip-rule="nonzero" clip-path="url(#961801a9a6)"><path style="fill:none;stroke-width:2;stroke-linecap:butt;stroke-linejoin:miter;stroke:#86a6d0;stroke-opacity:1;stroke-miterlimit:4;" d="M 246.378469 0.00132066 L 246.388907 84.590597 C 246.388907 84.68476 246.420221 84.763229 246.488069 84.831235 C 246.550697 84.89401 246.628983 84.925397 246.722926 84.925397 L 257.761216 84.925397 C 257.969978 84.925397 258.079578 84.820772 258.079578 84.60106 L 258.084797 0.00132066 " transform="matrix(0.74846,0,0,0.746715,11.88462,22.186514)"/></g><g clip-rule="nonzero" clip-path="url(#d91fecb4b5)"><path style="fill:none;stroke-width:2;stroke-linecap:butt;stroke-linejoin:miter;stroke:#86a6d0;stroke-opacity:1;stroke-miterlimit:4;" d="M 564.182044 41.223553 C 564.213359 45.607339 564.208139 54.385373 564.176825 67.568117 C 564.161168 74.405358 565.726883 81.195518 572.27679 84.219179 C 577.16182 86.473847 583.951803 85.872253 589.223043 84.062241 C 589.358739 84.01516 589.431805 83.920998 589.431805 83.774523 L 589.431805 74.269345 C 589.431805 74.211802 589.40571 74.159489 589.358739 74.122871 C 589.316986 74.086252 589.264796 74.075789 589.207386 74.091483 C 586.999728 74.614608 584.645937 74.865708 582.135574 74.839551 C 575.752677 74.776777 575.136829 70.215128 575.251648 64.649081 C 575.277743 63.121556 575.282962 55.248529 575.256867 41.035228 C 575.256867 40.920141 575.314277 40.862597 575.434315 40.862597 L 590.590434 40.862597 C 590.710472 40.862597 590.767882 40.805053 590.767882 40.684735 L 590.767882 30.682589 C 590.767882 30.583195 590.736568 30.499495 590.663501 30.431489 C 590.595653 30.358252 590.512148 30.326864 590.412987 30.326864 L 575.62742 30.326864 C 575.523039 30.326864 575.439534 30.290245 575.366467 30.217008 C 575.2934 30.14377 575.256867 30.06007 575.256867 29.955445 L 575.256867 12.582472 C 575.256867 12.373222 575.152486 12.263365 574.938505 12.263365 L 564.385587 12.263365 C 564.26033 12.263365 564.197701 12.32614 564.197701 12.45169 L 564.197701 30.054839 C 564.197701 30.237933 564.108978 30.332095 563.921092 30.332095 L 555.96726 30.332095 C 555.789813 30.332095 555.69587 30.415795 555.69587 30.593658 L 555.69587 40.543491 C 555.69587 40.752741 555.800251 40.852135 556.009013 40.852135 L 563.811492 40.852135 C 563.910654 40.852135 563.999377 40.888753 564.072444 40.961991 C 564.145511 41.035228 564.182044 41.12416 564.182044 41.223553 " transform="matrix(0.74846,0,0,0.746715,11.88462,22.186514)"/></g><path style="fill:none;stroke-width:2;stroke-linecap:butt;stroke-linejoin:miter;stroke:#86a6d0;stroke-opacity:1;stroke-miterlimit:4;" d="M 499.96686 57.837996 C 499.982517 69.372898 506.647244 79.254725 517.137533 83.952385 C 521.558068 85.929797 526.500508 86.65694 531.954414 86.128584 C 540.555408 85.302047 548.096934 80.379443 552.997621 73.275408 C 553.044593 73.202171 553.06025 73.118471 553.044593 73.034771 C 553.023717 72.94584 552.976745 72.877834 552.898459 72.835984 L 544.05739 67.730286 C 543.869504 67.625661 543.707713 67.651817 543.572018 67.824448 C 540.842455 71.229991 537.382226 74.101946 533.139138 75.179583 C 521.756392 78.088156 511.135626 69.524604 511.11475 57.822302 C 511.099093 46.120001 521.693763 37.51983 533.086948 40.397016 C 537.330035 41.458959 540.800703 44.315221 543.540704 47.720763 C 543.676399 47.888163 543.83819 47.91955 544.026075 47.809694 L 552.856707 42.683071 C 552.929774 42.63599 552.976745 42.567984 552.997621 42.484284 C 553.013279 42.395353 552.997621 42.311653 552.945431 42.238415 C 548.029086 35.144843 540.477122 30.253627 531.86569 29.448014 C 526.411784 28.935352 521.474563 29.678189 517.059247 31.671295 C 506.579396 36.405574 499.945984 46.308326 499.96686 57.837996 " transform="matrix(0.74846,0,0,0.746715,11.88462,22.186514)"/><path style="fill:none;stroke-width:2;stroke-linecap:butt;stroke-linejoin:miter;stroke:#86a6d0;stroke-opacity:1;stroke-miterlimit:4;" d="M 285.062063 36.102162 L 285.062063 30.64597 C 285.062063 30.551808 285.030749 30.473339 284.962901 30.410564 C 284.900272 30.342558 284.821987 30.305939 284.728044 30.305939 L 274.248193 30.305939 C 274.081183 30.305939 274.002897 30.389639 274.002897 30.557039 L 274.002897 84.794616 C 274.002897 84.914935 274.060307 84.97771 274.185564 84.97771 L 284.842863 84.97771 C 285.009872 84.97771 285.088158 84.89401 285.088158 84.72661 C 285.051625 67.714592 285.062063 57.864152 285.124692 55.17006 C 285.328234 46.109539 289.973188 39.036892 299.910259 39.978516 C 305.144965 40.475485 308.30249 43.452065 309.388052 48.913487 C 309.758605 50.754887 309.941271 52.06793 309.941271 52.842155 C 309.967367 71.805428 309.977805 82.393473 309.962148 84.616754 C 309.962148 84.716147 309.998681 84.799847 310.066529 84.867854 C 310.134376 84.941091 310.217881 84.97771 310.317043 84.97771 L 320.791675 84.97771 C 320.922151 84.97771 320.98478 84.909703 320.98478 84.784154 C 320.989999 66.223686 320.995218 56.619115 320.995218 55.970441 C 321.026532 46.522807 325.400096 39.146748 335.890385 39.973285 C 343.93294 40.606266 345.921398 47.731225 345.916179 54.615548 C 345.91096 63.414506 345.91096 73.474196 345.921398 84.794616 C 345.921398 84.909703 345.978808 84.967247 346.093627 84.967247 L 356.625668 84.967247 C 356.829211 84.967247 356.933592 84.862622 356.933592 84.658604 C 356.923154 70.366835 356.928373 60.568708 356.94403 55.264222 C 356.964907 49.776643 356.568259 44.754645 354.485858 40.20346 C 350.613324 31.73407 342.77953 28.543009 333.813203 29.500327 C 327.35202 30.18562 322.085999 33.387144 318.02036 39.104898 C 317.973389 39.167673 317.915979 39.19906 317.837693 39.204292 C 317.764627 39.209523 317.701998 39.183367 317.649807 39.125823 C 317.237503 38.670704 316.971331 37.886017 316.694721 37.457055 C 313.323216 32.23627 308.213766 29.531714 301.361154 29.348621 C 294.706866 29.170758 289.367779 31.451582 285.343892 36.201555 C 285.291701 36.259099 285.234292 36.274793 285.166444 36.248637 C 285.093377 36.22248 285.062063 36.175399 285.062063 36.102162 " transform="matrix(0.74846,0,0,0.746715,11.88462,22.186514)"/><path style="fill:none;stroke-width:2;stroke-linecap:butt;stroke-linejoin:miter;stroke:#86a6d0;stroke-opacity:1;stroke-miterlimit:4;" d="M 380.685486 36.452655 L 380.685486 30.525651 C 380.685486 30.389639 380.617639 30.321633 380.481943 30.321633 L 370.054283 30.321633 C 369.85074 30.321633 369.746359 30.421027 369.746359 30.625045 L 369.746359 113.587404 C 369.746359 113.692029 369.782892 113.78096 369.855959 113.854197 C 369.934244 113.927435 370.022968 113.964054 370.127349 113.964054 L 380.33581 113.958822 C 380.434972 113.958822 380.523696 113.922204 380.596762 113.848966 C 380.66461 113.775729 380.701143 113.692029 380.701143 113.592635 L 380.701143 77.946913 C 380.701143 77.910294 380.7168 77.889369 380.748115 77.873675 C 380.779429 77.863213 380.810743 77.868444 380.836839 77.8946 C 385.784497 83.361254 392.016042 86.044884 399.526255 85.945491 C 418.633194 85.694391 432.077466 66.150449 425.360549 47.872469 C 420.903481 35.746437 409.343286 28.370377 396.483549 29.479402 C 391.290595 29.924058 386.765679 31.765457 382.908801 35.0036 C 381.70842 36.002768 381.066477 36.536355 380.982972 36.604361 C 380.925562 36.651443 380.857715 36.656674 380.789867 36.620055 C 380.72202 36.583436 380.685486 36.531124 380.685486 36.452655 " transform="matrix(0.74846,0,0,0.746715,11.88462,22.186514)"/><path style="fill:none;stroke-width:2;stroke-linecap:butt;stroke-linejoin:miter;stroke:#86a6d0;stroke-opacity:1;stroke-miterlimit:4;" d="M 432.980361 57.64444 C 432.980361 69.242116 439.592897 79.113481 450.208443 83.774523 C 459.712332 87.949058 471.564793 86.243672 479.111539 78.464806 C 479.15851 78.412494 479.221139 78.3968 479.288987 78.422956 C 479.356834 78.454344 479.393368 78.506656 479.388149 78.579894 L 479.388149 84.731841 C 479.388149 84.883547 479.466434 84.962016 479.617787 84.962016 L 490.108076 84.962016 C 490.228114 84.962016 490.295962 84.899241 490.301181 84.773691 C 490.327276 83.962848 490.337714 74.91802 490.332495 57.639209 C 490.332495 40.365629 490.322057 31.320801 490.295962 30.509958 C 490.290743 30.384408 490.222895 30.326864 490.102857 30.326864 L 479.612568 30.326864 C 479.461215 30.326864 479.382929 30.400102 479.382929 30.551808 L 479.382929 36.703755 C 479.388149 36.782224 479.351615 36.829305 479.283768 36.860693 C 479.21592 36.886849 479.153291 36.871155 479.10632 36.818843 C 471.559574 29.039977 459.707113 27.339822 450.203224 31.514357 C 439.592897 36.18063 432.980361 46.046764 432.980361 57.64444 " transform="matrix(0.74846,0,0,0.746715,11.88462,22.186514)"/><path style="fill:none;stroke-width:2;stroke-linecap:butt;stroke-linejoin:miter;stroke:#86a6d0;stroke-opacity:1;stroke-miterlimit:4;" d="M 277.421375 167.620962 C 289.701798 167.626194 296.236048 167.631425 297.013686 167.636656 C 297.076315 167.636656 297.118067 167.668043 297.144162 167.730818 L 305.343289 187.980979 C 305.385041 188.080372 305.452889 188.127454 305.562489 188.127454 L 317.592398 188.127454 C 317.675903 188.127454 317.738531 188.096066 317.780284 188.02806 C 317.827255 187.965285 317.837693 187.892047 317.806379 187.824041 L 283.616386 103.349852 C 283.574634 103.239996 283.496348 103.187683 283.386748 103.187683 C 281.460919 103.151065 279.47768 103.135371 277.431813 103.135371 C 275.380726 103.135371 273.392269 103.151065 271.471658 103.187683 C 271.356839 103.187683 271.283773 103.239996 271.236801 103.349852 L 237.025932 187.808347 C 236.994618 187.881585 236.999837 187.954822 237.046808 188.017597 C 237.09378 188.085604 237.156408 188.116991 237.234694 188.116991 L 249.269822 188.116991 C 249.374203 188.116991 249.44727 188.06991 249.483803 187.970516 L 257.693368 167.725587 C 257.719463 167.662812 257.761216 167.631425 257.823844 167.631425 C 258.601482 167.626194 265.130513 167.620962 277.421375 167.620962 " transform="matrix(0.74846,0,0,0.746715,11.88462,22.186514)"/><path style="fill:none;stroke-width:2;stroke-linecap:butt;stroke-linejoin:miter;stroke:#86a6d0;stroke-opacity:1;stroke-miterlimit:4;" d="M 489.894095 181.876112 L 489.894095 187.881585 C 489.894095 188.043754 489.972381 188.122222 490.134171 188.122222 L 500.514861 188.122222 C 500.723623 188.122222 500.828003 188.017597 500.828003 187.808347 L 500.828003 103.376008 C 500.828003 103.219071 500.749718 103.140602 500.598365 103.140602 L 490.123733 103.140602 C 489.967162 103.140602 489.894095 103.219071 489.894095 103.376008 L 489.894095 140.48648 C 489.894095 140.544024 489.862781 140.585874 489.81059 140.606799 C 489.753181 140.627724 489.706209 140.617261 489.664457 140.57018 C 486.120722 136.6729 481.914168 134.19852 477.044795 133.141808 C 461.982619 129.893203 447.223147 139.989511 444.096936 154.835793 C 442.030193 164.660076 445.062461 174.641297 452.384787 181.541313 C 462.7446 191.318515 479.179387 192.113664 489.580952 181.750563 C 489.638362 181.693019 489.70099 181.677325 489.779276 181.708713 C 489.852343 181.7401 489.894095 181.797644 489.894095 181.876112 " transform="matrix(0.74846,0,0,0.746715,11.88462,22.186514)"/><path style="fill:none;stroke-width:2;stroke-linecap:butt;stroke-linejoin:miter;stroke:#86a6d0;stroke-opacity:1;stroke-miterlimit:4;" d="M 319.61217 161.060978 C 319.633046 172.595879 326.297772 182.472475 336.793281 187.170135 C 341.208596 189.147547 346.145817 189.869459 351.604943 189.341103 C 360.200717 188.509335 367.742244 183.58673 372.632493 176.482696 C 372.684683 176.409459 372.700341 176.325759 372.679464 176.242059 C 372.663807 176.153127 372.611617 176.085121 372.53855 176.043271 L 363.69748 170.942805 C 363.509595 170.83818 363.347804 170.864336 363.212109 171.036967 C 360.487765 174.442509 357.022316 177.314464 352.784448 178.392101 C 341.401701 181.305906 330.780936 172.747585 330.76006 161.045284 C 330.739183 149.342982 341.333854 140.742811 352.727039 143.614766 C 356.964907 144.681941 360.435574 147.538202 363.175575 150.938513 C 363.31649 151.105913 363.47828 151.1373 363.660947 151.027444 L 372.481141 145.89559 C 372.559426 145.848509 372.606398 145.785734 372.627274 145.696803 C 372.64815 145.607872 372.632493 145.529403 372.580302 145.450934 C 367.658739 138.367825 360.101555 133.476608 351.500562 132.676227 C 346.046655 132.163565 341.109435 132.906402 336.699338 134.899507 C 326.224706 139.633787 319.596513 149.536539 319.61217 161.060978 " transform="matrix(0.74846,0,0,0.746715,11.88462,22.186514)"/><path style="fill:none;stroke-width:2;stroke-linecap:butt;stroke-linejoin:miter;stroke:#86a6d0;stroke-opacity:1;stroke-miterlimit:4;" d="M 376.473713 160.867421 C 376.484151 172.465098 383.101906 182.331231 393.717453 186.987042 C 403.226561 191.151115 415.079022 189.440497 422.615329 181.6564 C 422.662301 181.604088 422.724929 181.588394 422.792777 181.61455 C 422.860624 181.645938 422.897158 181.693019 422.891939 181.771488 L 422.897158 187.923435 C 422.897158 188.075141 422.975444 188.148379 423.126796 188.148379 L 433.617085 188.137916 C 433.742342 188.137916 433.804971 188.080372 433.81019 187.954822 C 433.836285 187.143979 433.841504 178.099152 433.825847 160.825571 C 433.815409 143.54676 433.794533 134.501933 433.768438 133.685858 C 433.763219 133.565539 433.695371 133.502764 433.575333 133.502764 L 423.085044 133.513227 C 422.933691 133.513227 422.855405 133.591695 422.855405 133.743402 L 422.860624 139.895349 C 422.865843 139.968586 422.82931 140.020899 422.761462 140.052286 C 422.693615 140.078443 422.630986 140.062749 422.578796 140.010436 C 415.03205 132.242033 403.179589 130.541878 393.6757 134.726876 C 383.065373 139.39838 376.463275 149.274976 376.473713 160.867421 " transform="matrix(0.74846,0,0,0.746715,11.88462,22.186514)"/><path style="fill:none;stroke-width:2;stroke-linecap:butt;stroke-linejoin:miter;stroke:#86a6d0;stroke-opacity:1;stroke-miterlimit:4;" d="M 521.782487 164.529295 L 565.298921 164.529295 C 565.512902 164.529295 565.63294 164.42467 565.653816 164.204957 C 567.574426 146.015909 554.511146 131.007459 535.826949 132.629146 C 528.212356 133.293514 521.959935 136.54735 517.069685 142.395885 C 507.76412 153.517518 508.306901 170.979423 518.713686 181.431456 C 524.553802 187.306148 532.30931 189.686365 540.466684 189.487578 C 549.323411 189.278328 556.656175 185.59553 562.136177 178.449645 C 562.214463 178.350251 562.204025 178.26132 562.104863 178.182852 L 554.965203 172.522641 C 554.792974 172.386629 554.625965 172.397091 554.464174 172.554029 C 550.194992 176.671021 546.400743 179.297107 540.195293 179.506357 C 530.654871 179.80977 523.290792 174.390197 521.464125 164.911176 C 521.443249 164.817013 521.464125 164.728082 521.531972 164.649614 C 521.594601 164.571145 521.678106 164.529295 521.782487 164.529295 " transform="matrix(0.74846,0,0,0.746715,11.88462,22.186514)"/><path style="fill:none;stroke-width:2;stroke-linecap:butt;stroke-linejoin:miter;stroke:#86a6d0;stroke-opacity:1;stroke-miterlimit:4;" d="M 586.044642 139.288524 L 586.049861 133.842795 C 586.049861 133.748633 586.018547 133.670164 585.950699 133.602158 C 585.888071 133.539383 585.809785 133.502764 585.715842 133.502764 L 575.246429 133.497533 C 575.079419 133.497533 574.995915 133.581233 574.995915 133.748633 L 574.980257 187.912972 C 574.980257 188.033291 575.042886 188.096066 575.162924 188.096066 L 585.809785 188.101297 C 585.971575 188.101297 586.05508 188.017597 586.05508 187.855429 C 586.023766 170.864336 586.039423 161.024359 586.096833 158.335497 C 586.310814 149.280208 590.94533 142.223254 600.877181 143.164879 C 606.101449 143.667079 609.253755 146.638427 610.339317 152.094619 C 610.704651 153.936018 610.887317 155.24383 610.887317 156.018055 C 610.908194 174.955172 610.913413 185.532755 610.897755 187.750804 C 610.897755 187.850197 610.934289 187.939129 611.002136 188.007135 C 611.075203 188.075141 611.158708 188.11176 611.252651 188.11176 L 621.711626 188.11176 C 621.842102 188.11176 621.90995 188.048985 621.90995 187.918204 C 621.920388 169.383893 621.925607 159.795016 621.930826 159.146341 C 621.96214 149.70917 626.330485 142.343573 636.805117 143.175341 C 644.842453 143.808322 646.825692 150.922819 646.815253 157.796679 C 646.804815 166.590406 646.804815 176.639633 646.810034 187.939129 C 646.810034 188.054216 646.867444 188.11176 646.982263 188.11176 L 657.503867 188.11176 C 657.702191 188.11176 657.806572 188.012366 657.811791 187.808347 C 657.806572 173.537504 657.811791 163.749839 657.832667 158.450585 C 657.853543 152.973468 657.462114 147.956702 655.384933 143.410747 C 651.522836 134.946589 643.694262 131.760759 634.738373 132.712846 C 628.287628 133.392908 623.026826 136.594432 618.961187 142.301723 C 618.919434 142.364498 618.856806 142.395885 618.783739 142.401117 C 618.705453 142.406348 618.642825 142.380192 618.590634 142.322648 C 618.183548 141.867529 617.917377 141.082842 617.635548 140.65388 C 614.27448 135.433095 609.17025 132.733771 602.328076 132.550677 C 595.679007 132.367583 590.345139 134.648407 586.326471 139.387918 C 586.27428 139.445462 586.216871 139.461155 586.143804 139.434999 C 586.075956 139.408843 586.039423 139.361762 586.044642 139.288524 " transform="matrix(0.74846,0,0,0.746715,11.88462,22.186514)"/><g clip-rule="nonzero" clip-path="url(#8946c38600)"><path style="fill:none;stroke-width:2;stroke-linecap:butt;stroke-linejoin:miter;stroke:#86a6d0;stroke-opacity:1;stroke-miterlimit:4;" d="M 685.253552 188.906909 C 685.274429 188.948759 685.274429 188.990609 685.253552 189.037691 L 673.68292 217.009173 C 673.662044 217.066716 673.667263 217.119029 673.703796 217.171341 C 673.73511 217.223654 673.782082 217.244579 673.84471 217.244579 L 684.585514 217.244579 C 684.6638 217.244579 684.71599 217.20796 684.742085 217.139954 L 719.245221 133.732939 C 719.271316 133.675395 719.266097 133.617852 719.229564 133.57077 C 719.193031 133.518458 719.146059 133.492302 719.083431 133.492302 L 707.429293 133.492302 C 707.351008 133.492302 707.298817 133.52892 707.267503 133.602158 L 691.015383 174.139097 C 690.989288 174.212334 690.931878 174.248953 690.853592 174.248953 C 690.775307 174.248953 690.717897 174.212334 690.691802 174.139097 L 674.28311 133.602158 C 674.251796 133.52892 674.199606 133.492302 674.12132 133.492302 L 662.623754 133.492302 C 662.561126 133.492302 662.514154 133.518458 662.477621 133.57077 C 662.441087 133.617852 662.435868 133.675395 662.461964 133.732939 L 685.253552 188.906909 " transform="matrix(0.74846,0,0,0.746715,11.88462,22.186514)"/></g><path style="fill:none;stroke-width:2;stroke-linecap:butt;stroke-linejoin:miter;stroke:#86a6d0;stroke-opacity:1;stroke-miterlimit:4;" d="M 398.211054 39.732648 C 397.057644 39.737879 395.914672 39.858198 394.782139 40.093604 C 393.649605 40.32901 392.553605 40.674272 391.488918 41.129391 C 390.424232 41.584509 389.416956 42.144253 388.456651 42.80339 C 387.501565 43.462527 386.619545 44.210596 385.805374 45.047595 C 384.996421 45.879364 384.270973 46.789601 383.634249 47.773075 C 382.997525 48.751319 382.465182 49.787106 382.026782 50.880437 C 381.588382 51.968536 381.264801 53.088023 381.045601 54.244129 C 380.826401 55.400235 380.7168 56.566803 380.727239 57.743834 C 380.732458 58.920864 380.847277 60.082201 381.082134 61.238307 C 381.311772 62.389182 381.65101 63.508669 382.099849 64.591537 C 382.543468 65.674405 383.091468 66.704961 383.73863 67.683205 C 384.385792 68.656217 385.121678 69.555991 385.941069 70.38776 C 386.76046 71.214297 387.652917 71.951903 388.613222 72.600577 C 389.578746 73.249252 390.596461 73.793302 391.661147 74.237958 C 392.731052 74.682614 393.832272 75.017414 394.964805 75.242358 C 396.097339 75.467301 397.240311 75.577157 398.39894 75.566695 C 399.55235 75.561464 400.695322 75.441145 401.822636 75.205739 C 402.95517 74.970333 404.05117 74.62507 405.115856 74.169952 C 406.180543 73.714833 407.193038 73.15509 408.148124 72.495952 C 409.10321 71.836815 409.98523 71.093978 410.799401 70.256978 C 411.613573 69.419979 412.333802 68.509742 412.970526 67.526267 C 413.60725 66.548024 414.144812 65.512237 414.577993 64.424137 C 415.016393 63.330806 415.345193 62.211319 415.564393 61.055214 C 415.783593 59.899108 415.887974 58.73254 415.882755 57.56074 C 415.877536 56.383709 415.757498 55.217141 415.52786 54.066267 C 415.293003 52.910161 414.953765 51.790674 414.510145 50.707805 C 414.061307 49.624937 413.513307 48.594381 412.866145 47.621369 C 412.218983 46.643126 411.488316 45.743351 410.668925 44.916814 C 409.844315 44.085046 408.957077 43.34744 407.991553 42.698765 C 407.026029 42.05009 406.013533 41.506041 404.943628 41.061385 C 403.873723 40.616728 402.772503 40.281929 401.63997 40.056985 C 400.507436 39.832041 399.364464 39.727416 398.211054 39.732648 " transform="matrix(0.74846,0,0,0.746715,11.88462,22.186514)"/><path style="fill:none;stroke-width:2;stroke-linecap:butt;stroke-linejoin:miter;stroke:#86a6d0;stroke-opacity:1;stroke-miterlimit:4;" d="M 461.679914 39.737879 C 460.521285 39.74311 459.378313 39.858198 458.245779 40.093604 C 457.113246 40.32901 456.012026 40.669041 454.94734 41.12416 C 453.877435 41.579278 452.864939 42.13379 451.909853 42.787696 C 450.949548 43.446834 450.06231 44.194902 449.248138 45.02667 C 448.433967 45.86367 447.708519 46.768676 447.066576 47.746919 C 446.429852 48.730394 445.892289 49.766181 445.453889 50.85428 C 445.015489 51.94238 444.68147 53.061867 444.46227 54.217973 C 444.237851 55.368847 444.13347 56.535415 444.13347 57.712446 C 444.138689 58.889477 444.258727 60.050814 444.488365 61.20692 C 444.718003 62.357794 445.052023 63.477281 445.500861 64.56015 C 445.94448 65.648249 446.49248 66.678805 447.139642 67.651817 C 447.781585 68.63006 448.517471 69.529835 449.336862 70.361603 C 450.156253 71.188141 451.04871 71.930978 452.014234 72.579652 C 452.974539 73.228327 453.992254 73.777608 455.062159 74.222264 C 456.132064 74.672152 457.233284 75.006951 458.365818 75.231895 C 459.50357 75.456839 460.646542 75.566695 461.805171 75.561464 C 462.958581 75.561464 464.101553 75.441145 465.239306 75.205739 C 466.371839 74.975564 467.46784 74.630302 468.537745 74.175183 C 469.602431 73.720064 470.614926 73.165552 471.575232 72.511646 C 472.535537 71.852509 473.417556 71.109672 474.236947 70.272672 C 475.051118 69.440904 475.776566 68.530667 476.41329 67.552423 C 477.055233 66.568949 477.592796 65.538393 478.031196 64.450293 C 478.469596 63.362194 478.798396 62.237476 479.022815 61.086601 C 479.242015 59.930495 479.351615 58.763927 479.346396 57.586896 C 479.341177 56.415097 479.226358 55.248529 478.99672 54.097654 C 478.767082 52.941548 478.427843 51.822061 477.984224 50.739193 C 477.535386 49.651093 476.992605 48.620538 476.345443 47.647526 C 475.698281 46.669282 474.967614 45.769508 474.148223 44.937739 C 473.323613 44.111202 472.436375 43.373596 471.470851 42.71969 C 470.505326 42.071015 469.492831 41.521734 468.422926 41.077078 C 467.353021 40.632422 466.246582 40.292391 465.114048 40.067447 C 463.981515 39.842504 462.833324 39.732648 461.679914 39.737879 " transform="matrix(0.74846,0,0,0.746715,11.88462,22.186514)"/><path style="fill:none;stroke-width:2;stroke-linecap:butt;stroke-linejoin:miter;stroke:#86a6d0;stroke-opacity:1;stroke-miterlimit:4;" d="M 261.91036 156.452248 C 261.889484 156.504561 261.894703 156.556873 261.926017 156.609186 C 261.96255 156.656267 262.009522 156.682423 262.066931 156.682423 L 292.660999 156.682423 C 292.723628 156.682423 292.770599 156.656267 292.801913 156.609186 C 292.838447 156.556873 292.843666 156.504561 292.81757 156.452248 L 277.520537 118.410614 C 277.494441 118.342608 277.442251 118.305989 277.363965 118.305989 C 277.290898 118.305989 277.238708 118.342608 277.207394 118.410614 L 261.91036 156.452248 " transform="matrix(0.74846,0,0,0.746715,11.88462,22.186514)"/><path style="fill:none;stroke-width:2;stroke-linecap:butt;stroke-linejoin:miter;stroke:#86a6d0;stroke-opacity:1;stroke-miterlimit:4;" d="M 472.003194 142.950398 C 470.849784 142.966091 469.706812 143.096873 468.574278 143.342741 C 467.441744 143.58861 466.345744 143.944335 465.286277 144.409916 C 464.22681 144.875497 463.219533 145.440472 462.264447 146.110071 C 461.31458 146.77444 460.432561 147.52774 459.628827 148.375202 C 458.825094 149.217433 458.104865 150.132901 457.478579 151.116375 C 456.847074 152.105081 456.31995 153.1461 455.891988 154.23943 C 455.469245 155.332761 455.150883 156.457479 454.936902 157.613585 C 454.72814 158.769691 454.634197 159.936259 454.649854 161.11329 C 454.665512 162.290321 454.795988 163.451658 455.036064 164.602532 C 455.27614 165.753407 455.625817 166.872894 456.085093 167.950531 C 456.544369 169.033399 457.097589 170.058724 457.755189 171.026505 C 458.412789 171.994285 459.153894 172.888829 459.983723 173.710135 C 460.813552 174.531441 461.711228 175.263815 462.681971 175.902028 C 463.652715 176.54024 464.675648 177.079058 465.750772 177.513252 C 466.820678 177.952677 467.927116 178.277014 469.064869 178.486264 C 470.202622 178.700745 471.345593 178.800139 472.504222 178.784445 C 473.657632 178.768751 474.800604 178.63797 475.933138 178.392101 C 477.065672 178.146233 478.161672 177.790508 479.221139 177.324927 C 480.285825 176.864577 481.287883 176.294371 482.242969 175.630003 C 483.192836 174.960403 484.074855 174.207103 484.878589 173.364872 C 485.682322 172.522641 486.402551 171.607173 487.028837 170.618467 C 487.660342 169.629761 488.187466 168.588743 488.615428 167.495412 C 489.04339 166.402082 489.356533 165.277363 489.570514 164.121257 C 489.779276 162.965152 489.873219 161.798583 489.857562 160.621553 C 489.841904 159.444522 489.711428 158.283185 489.471352 157.13231 C 489.231276 155.981436 488.881599 154.86718 488.422323 153.784312 C 487.963047 152.701444 487.409827 151.68135 486.752227 150.708338 C 486.094627 149.740557 485.353522 148.846014 484.523693 148.024708 C 483.693864 147.203402 482.796188 146.476259 481.825445 145.832815 C 480.854701 145.194603 479.831768 144.655784 478.761863 144.221591 C 477.686738 143.787397 476.5803 143.46306 475.442547 143.248579 C 474.304794 143.034098 473.161823 142.934704 472.003194 142.950398 " transform="matrix(0.74846,0,0,0.746715,11.88462,22.186514)"/><path style="fill:none;stroke-width:2;stroke-linecap:butt;stroke-linejoin:miter;stroke:#86a6d0;stroke-opacity:1;stroke-miterlimit:4;" d="M 405.079323 142.950398 C 403.920694 142.96086 402.777722 143.08641 401.645189 143.327048 C 400.517874 143.562454 399.416655 143.912947 398.357187 144.373297 C 397.292501 144.833647 396.280006 145.39339 395.32492 146.057759 C 394.369834 146.716896 393.487814 147.470196 392.678862 148.307195 C 391.869909 149.144195 391.14968 150.059663 390.512956 151.043138 C 389.881451 152.026613 389.349108 153.0624 388.915927 154.15573 C 388.482746 155.24383 388.159165 156.368548 387.939965 157.524654 C 387.725984 158.68076 387.626822 159.847328 387.63726 161.024359 C 387.642479 162.196158 387.767736 163.362727 388.002593 164.513601 C 388.237451 165.664476 388.581908 166.783963 389.035965 167.866831 C 389.484803 168.949699 390.038023 169.980255 390.685185 170.948036 C 391.337566 171.921048 392.073452 172.820823 392.898062 173.64736 C 393.722672 174.473897 394.620348 175.206272 395.585872 175.849715 C 396.551396 176.49839 397.57433 177.04244 398.644235 177.481864 C 399.71414 177.921289 400.820579 178.250858 401.953113 178.47057 C 403.090865 178.690283 404.233837 178.794908 405.392466 178.784445 C 406.545876 178.773983 407.688848 178.653664 408.821382 178.413026 C 409.953915 178.172389 411.049916 177.821895 412.114602 177.361546 C 413.179288 176.906427 414.186564 176.341452 415.14165 175.682315 C 416.096736 175.017947 416.978756 174.269878 417.787708 173.427647 C 418.60188 172.590648 419.322109 171.680411 419.953614 170.696936 C 420.590338 169.713461 421.122681 168.672443 421.555862 167.584344 C 421.989043 166.491013 422.312624 165.371526 422.526605 164.21542 C 422.740586 163.059314 422.844967 161.892746 422.834529 160.715715 C 422.824091 159.538684 422.698834 158.372116 422.463977 157.221242 C 422.229119 156.070367 421.884662 154.95088 421.435824 153.868012 C 420.981767 152.785144 420.433766 151.759819 419.781385 150.786807 C 419.129004 149.813795 418.393118 148.91402 417.568508 148.087483 C 416.743899 147.266177 415.851441 146.528571 414.880698 145.885128 C 413.915174 145.241684 412.897459 144.697634 411.827554 144.252978 C 410.75243 143.813554 409.65121 143.483985 408.513458 143.264273 C 407.380924 143.04456 406.232733 142.939935 405.079323 142.950398 " transform="matrix(0.74846,0,0,0.746715,11.88462,22.186514)"/><path style="fill:none;stroke-width:2;stroke-linecap:butt;stroke-linejoin:miter;stroke:#86a6d0;stroke-opacity:1;stroke-miterlimit:4;" d="M 554.678155 155.950048 C 553.436022 147.967164 547.637658 143.123029 539.621198 142.646985 C 530.832319 142.129092 523.656126 147.423115 521.641573 155.991898 C 521.615477 156.091292 521.65723 156.138373 521.761611 156.138373 L 554.516365 156.138373 C 554.646841 156.138373 554.699031 156.075598 554.678155 155.950048 " transform="matrix(0.74846,0,0,0.746715,11.88462,22.186514)"/><g clip-rule="nonzero" clip-path="url(#89097002d3)"><path style=" stroke:none;fill-rule:nonzero;fill:#ffffff;fill-opacity:1;" d="M 79.753906 22.1875 C 77.5 23.425781 77.425781 25.644531 77.574219 28.226562 C 78.648438 47.375 79.722656 66.496094 80.800781 85.585938 C 80.800781 85.632812 80.78125 85.660156 80.738281 85.671875 C 80.691406 85.683594 80.660156 85.671875 80.636719 85.632812 C 64.019531 52.714844 55.195312 35.226562 54.160156 33.167969 C 53.351562 31.550781 51.097656 29.320312 49.074219 30.488281 C 48.292969 30.9375 47.121094 31.617188 45.550781 32.519531 C 43.484375 33.703125 44.105469 36.605469 45.160156 38.210938 C 63.285156 65.886719 74.066406 82.3125 77.503906 87.492188 C 77.519531 87.511719 77.519531 87.535156 77.503906 87.554688 C 77.492188 87.578125 77.472656 87.585938 77.449219 87.585938 C 77.386719 87.578125 77.308594 87.546875 77.21875 87.484375 C 76.84375 87.226562 60.519531 76.535156 28.242188 55.40625 C 26.699219 54.394531 23.617188 53.503906 22.445312 55.472656 C 21.277344 57.433594 20.53125 58.734375 20.207031 59.375 C 19.25 61.277344 21.304688 63.40625 22.875 64.199219 C 26.484375 66.027344 44.011719 74.859375 75.453125 90.695312 C 75.503906 90.71875 75.519531 90.757812 75.507812 90.8125 C 75.492188 90.867188 75.457031 90.894531 75.402344 90.890625 C 59.203125 89.957031 39.609375 88.835938 16.628906 87.53125 C 14.828125 87.425781 12.648438 88.085938 11.882812 89.886719 L 11.882812 22.1875 Z M 79.753906 22.1875 "/></g><g clip-rule="nonzero" clip-path="url(#84fb690767)"><path style=" stroke:none;fill-rule:nonzero;fill:#0d4da0;fill-opacity:1;" d="M 85.421875 22.1875 C 87.453125 22.863281 87.898438 25.417969 87.789062 27.320312 C 85.871094 60.609375 84.753906 80.035156 84.445312 85.601562 C 84.4375 85.652344 84.460938 85.679688 84.503906 85.695312 C 84.550781 85.707031 84.585938 85.691406 84.605469 85.648438 C 86.609375 81.667969 95.472656 64.171875 111.1875 33.15625 C 111.976562 31.597656 114.160156 29.511719 116.035156 30.480469 C 116.382812 30.660156 117.5625 31.328125 119.566406 32.480469 C 122.148438 33.96875 121.03125 36.964844 119.765625 38.886719 C 100.535156 68.066406 89.863281 84.28125 87.753906 87.53125 C 87.734375 87.5625 87.738281 87.59375 87.765625 87.617188 C 87.792969 87.644531 87.820312 87.644531 87.851562 87.625 C 90.03125 86.179688 106.488281 75.4375 137.226562 55.394531 C 138.707031 54.429688 141.609375 53.753906 142.78125 55.519531 C 142.796875 55.542969 143.488281 56.742188 144.859375 59.109375 C 146.195312 61.425781 143.972656 63.535156 142.082031 64.480469 C 112.851562 79.140625 95.394531 87.90625 89.707031 90.777344 C 89.667969 90.800781 89.65625 90.835938 89.667969 90.878906 C 89.679688 90.921875 89.707031 90.945312 89.753906 90.945312 C 92.523438 90.777344 112.152344 89.6875 148.636719 87.667969 C 150.734375 87.550781 153.367188 88.5 153.367188 90.859375 C 153.367188 92.535156 153.363281 93.808594 153.355469 94.679688 C 153.332031 97.164062 150.710938 98.035156 148.640625 97.929688 C 143.527344 97.65625 123.871094 96.53125 89.671875 94.554688 C 89.628906 94.554688 89.601562 94.570312 89.589844 94.613281 C 89.582031 94.652344 89.59375 94.683594 89.632812 94.703125 C 105.753906 102.832031 123.265625 111.660156 142.171875 121.1875 C 143.902344 122.058594 146.046875 124.253906 144.882812 126.296875 C 143.832031 128.140625 143.105469 129.386719 142.699219 130.03125 C 141.492188 131.972656 138.429688 131.03125 136.863281 130.003906 C 120.164062 119.074219 103.820312 108.367188 87.828125 97.882812 C 87.792969 97.863281 87.761719 97.867188 87.734375 97.894531 C 87.707031 97.921875 87.703125 97.953125 87.722656 97.988281 C 107.765625 128.546875 118.472656 144.871094 119.839844 146.964844 C 120.832031 148.476562 121.808594 151.628906 119.867188 152.769531 C 117.941406 153.898438 116.894531 154.511719 116.722656 154.613281 C 116.007812 155.035156 115.472656 155.253906 115.113281 155.273438 C 113.148438 155.382812 111.628906 153.542969 110.820312 151.929688 C 96.097656 122.699219 87.339844 105.332031 84.546875 99.828125 C 84.519531 99.785156 84.484375 99.773438 84.4375 99.785156 C 84.394531 99.796875 84.371094 99.828125 84.371094 99.878906 C 84.628906 104.1875 85.722656 123.769531 87.660156 158.625 C 87.757812 160.394531 86.929688 163.238281 84.753906 163.3125 C 84.171875 163.332031 82.886719 163.339844 80.902344 163.332031 C 80.1875 163.332031 79.671875 163.257812 79.359375 163.109375 C 77.785156 162.355469 77.277344 160.007812 77.371094 158.425781 C 78.171875 144.542969 79.296875 125.015625 80.746094 99.839844 C 80.75 99.792969 80.730469 99.761719 80.683594 99.75 C 80.636719 99.738281 80.605469 99.753906 80.585938 99.796875 C 78.792969 103.339844 69.941406 120.820312 54.027344 152.238281 C 53.222656 153.828125 51.003906 155.988281 49.078125 154.9375 C 47.570312 154.113281 46.273438 153.363281 45.195312 152.691406 C 43.386719 151.570312 44.078125 148.621094 45.019531 147.1875 C 64.640625 117.359375 75.441406 100.949219 77.417969 97.964844 C 77.4375 97.929688 77.433594 97.898438 77.40625 97.871094 C 77.378906 97.84375 77.347656 97.839844 77.316406 97.859375 C 74.316406 99.804688 58.007812 110.445312 28.390625 129.78125 C 26.675781 130.902344 23.625 131.929688 22.324219 129.8125 C 21.964844 129.226562 21.261719 128 20.210938 126.128906 C 19.015625 124.011719 21.355469 121.84375 23.097656 120.96875 C 35.929688 114.539062 53.332031 105.800781 75.3125 94.757812 C 75.371094 94.730469 75.394531 94.683594 75.378906 94.617188 C 75.359375 94.554688 75.316406 94.523438 75.25 94.527344 C 55.480469 95.625 35.871094 96.714844 16.425781 97.800781 C 14.257812 97.917969 12.742188 97.140625 11.882812 95.46875 L 11.882812 89.886719 C 12.648438 88.085938 14.828125 87.425781 16.628906 87.53125 C 39.609375 88.835938 59.203125 89.957031 75.402344 90.890625 C 75.457031 90.894531 75.492188 90.867188 75.507812 90.8125 C 75.519531 90.757812 75.503906 90.71875 75.453125 90.695312 C 44.011719 74.859375 26.484375 66.027344 22.875 64.199219 C 21.304688 63.40625 19.25 61.277344 20.207031 59.375 C 20.53125 58.734375 21.277344 57.433594 22.445312 55.472656 C 23.617188 53.503906 26.699219 54.394531 28.242188 55.40625 C 60.519531 76.535156 76.84375 87.226562 77.21875 87.484375 C 77.308594 87.546875 77.386719 87.578125 77.449219 87.585938 C 77.472656 87.585938 77.492188 87.578125 77.503906 87.554688 C 77.519531 87.535156 77.519531 87.511719 77.503906 87.492188 C 74.066406 82.3125 63.285156 65.886719 45.160156 38.210938 C 44.105469 36.605469 43.484375 33.703125 45.550781 32.519531 C 47.121094 31.617188 48.292969 30.9375 49.074219 30.488281 C 51.097656 29.320312 53.351562 31.550781 54.160156 33.167969 C 55.195312 35.226562 64.019531 52.714844 80.636719 85.632812 C 80.660156 85.671875 80.691406 85.683594 80.738281 85.671875 C 80.78125 85.660156 80.800781 85.632812 80.800781 85.585938 C 79.722656 66.496094 78.648438 47.375 77.574219 28.226562 C 77.425781 25.644531 77.5 23.425781 79.753906 22.1875 Z M 85.421875 22.1875 "/></g><g clip-rule="nonzero" clip-path="url(#cb14b3fb75)"><path style=" stroke:none;fill-rule:nonzero;fill:#ffffff;fill-opacity:1;" d="M 196.289062 22.1875 L 196.296875 85.351562 C 196.296875 85.421875 196.320312 85.480469 196.371094 85.53125 C 196.417969 85.578125 196.476562 85.601562 196.546875 85.601562 L 204.808594 85.601562 C 204.964844 85.601562 205.046875 85.523438 205.046875 85.359375 L 205.050781 22.1875 L 550.4375 22.1875 L 550.4375 184.503906 L 11.882812 184.503906 L 11.882812 95.46875 C 12.742188 97.140625 14.257812 97.917969 16.425781 97.800781 C 35.871094 96.714844 55.480469 95.625 75.25 94.527344 C 75.316406 94.523438 75.359375 94.554688 75.378906 94.617188 C 75.394531 94.683594 75.371094 94.730469 75.3125 94.757812 C 53.332031 105.800781 35.929688 114.539062 23.097656 120.96875 C 21.355469 121.84375 19.015625 124.011719 20.210938 126.128906 C 21.261719 128 21.964844 129.226562 22.324219 129.8125 C 23.625 131.929688 26.675781 130.902344 28.390625 129.78125 C 58.007812 110.445312 74.316406 99.804688 77.316406 97.859375 C 77.347656 97.839844 77.378906 97.84375 77.40625 97.871094 C 77.433594 97.898438 77.4375 97.929688 77.417969 97.964844 C 75.441406 100.949219 64.640625 117.359375 45.019531 147.1875 C 44.078125 148.621094 43.386719 151.570312 45.195312 152.691406 C 46.273438 153.363281 47.570312 154.113281 49.078125 154.9375 C 51.003906 155.988281 53.222656 153.828125 54.027344 152.238281 C 69.941406 120.820312 78.792969 103.339844 80.585938 99.796875 C 80.605469 99.753906 80.636719 99.738281 80.683594 99.75 C 80.730469 99.761719 80.75 99.792969 80.746094 99.839844 C 79.296875 125.015625 78.171875 144.542969 77.371094 158.425781 C 77.277344 160.007812 77.785156 162.355469 79.359375 163.109375 C 79.671875 163.257812 80.1875 163.332031 80.902344 163.332031 C 82.886719 163.339844 84.171875 163.332031 84.753906 163.3125 C 86.929688 163.238281 87.757812 160.394531 87.660156 158.625 C 85.722656 123.769531 84.628906 104.1875 84.371094 99.878906 C 84.371094 99.828125 84.394531 99.796875 84.4375 99.785156 C 84.484375 99.773438 84.519531 99.785156 84.546875 99.828125 C 87.339844 105.332031 96.097656 122.699219 110.820312 151.929688 C 111.628906 153.542969 113.148438 155.382812 115.113281 155.273438 C 115.472656 155.253906 116.007812 155.035156 116.722656 154.613281 C 116.894531 154.511719 117.941406 153.898438 119.867188 152.769531 C 121.808594 151.628906 120.832031 148.476562 119.839844 146.964844 C 118.472656 144.871094 107.765625 128.546875 87.722656 97.988281 C 87.703125 97.953125 87.707031 97.921875 87.734375 97.894531 C 87.761719 97.867188 87.792969 97.863281 87.828125 97.882812 C 103.820312 108.367188 120.164062 119.074219 136.863281 130.003906 C 138.429688 131.03125 141.492188 131.972656 142.699219 130.03125 C 143.105469 129.386719 143.832031 128.140625 144.882812 126.296875 C 146.046875 124.253906 143.902344 122.058594 142.171875 121.1875 C 123.265625 111.660156 105.753906 102.832031 89.632812 94.703125 C 89.59375 94.683594 89.582031 94.652344 89.589844 94.613281 C 89.601562 94.570312 89.628906 94.554688 89.671875 94.554688 C 123.871094 96.53125 143.527344 97.65625 148.640625 97.929688 C 150.710938 98.035156 153.332031 97.164062 153.355469 94.679688 C 153.363281 93.808594 153.367188 92.535156 153.367188 90.859375 C 153.367188 88.5 150.734375 87.550781 148.636719 87.667969 C 112.152344 89.6875 92.523438 90.777344 89.753906 90.945312 C 89.707031 90.945312 89.679688 90.921875 89.667969 90.878906 C 89.65625 90.835938 89.667969 90.800781 89.707031 90.777344 C 95.394531 87.90625 112.851562 79.140625 142.082031 64.480469 C 143.972656 63.535156 146.195312 61.425781 144.859375 59.109375 C 143.488281 56.742188 142.796875 55.542969 142.78125 55.519531 C 141.609375 53.753906 138.707031 54.429688 137.226562 55.394531 C 106.488281 75.4375 90.03125 86.179688 87.851562 87.625 C 87.820312 87.644531 87.792969 87.644531 87.765625 87.617188 C 87.738281 87.59375 87.734375 87.5625 87.753906 87.53125 C 89.863281 84.28125 100.535156 68.066406 119.765625 38.886719 C 121.03125 36.964844 122.148438 33.96875 119.566406 32.480469 C 117.5625 31.328125 116.382812 30.660156 116.035156 30.480469 C 114.160156 29.511719 111.976562 31.597656 111.1875 33.15625 C 95.472656 64.171875 86.609375 81.667969 84.605469 85.648438 C 84.585938 85.691406 84.550781 85.707031 84.503906 85.695312 C 84.460938 85.679688 84.4375 85.652344 84.445312 85.601562 C 84.753906 80.035156 85.871094 60.609375 87.789062 27.320312 C 87.898438 25.417969 87.453125 22.863281 85.421875 22.1875 Z M 434.152344 52.96875 C 434.175781 56.242188 434.171875 62.796875 434.148438 72.640625 C 434.136719 77.746094 435.308594 82.816406 440.210938 85.074219 C 443.867188 86.757812 448.949219 86.308594 452.894531 84.957031 C 452.996094 84.921875 453.050781 84.851562 453.050781 84.742188 L 453.050781 77.644531 C 453.050781 77.601562 453.03125 77.5625 452.996094 77.535156 C 452.964844 77.507812 452.925781 77.5 452.882812 77.511719 C 451.230469 77.902344 449.46875 78.089844 447.589844 78.070312 C 442.8125 78.023438 442.351562 74.617188 442.4375 70.460938 C 442.457031 69.320312 442.460938 63.441406 442.441406 52.828125 C 442.441406 52.742188 442.484375 52.699219 442.574219 52.699219 L 453.917969 52.699219 C 454.007812 52.699219 454.050781 52.65625 454.050781 52.566406 L 454.050781 45.097656 C 454.050781 45.023438 454.027344 44.960938 453.972656 44.910156 C 453.921875 44.855469 453.859375 44.832031 453.785156 44.832031 L 442.71875 44.832031 C 442.644531 44.832031 442.578125 44.804688 442.523438 44.75 C 442.46875 44.695312 442.441406 44.632812 442.441406 44.554688 L 442.441406 31.582031 C 442.441406 31.425781 442.363281 31.34375 442.203125 31.34375 L 434.304688 31.34375 C 434.210938 31.34375 434.164062 31.390625 434.164062 31.484375 L 434.164062 44.628906 C 434.164062 44.765625 434.097656 44.835938 433.957031 44.835938 L 428.003906 44.835938 C 427.871094 44.835938 427.800781 44.898438 427.800781 45.03125 L 427.800781 52.460938 C 427.800781 52.617188 427.878906 52.691406 428.035156 52.691406 L 433.875 52.691406 C 433.949219 52.691406 434.015625 52.71875 434.070312 52.773438 C 434.125 52.828125 434.152344 52.894531 434.152344 52.96875 Z M 386.089844 65.375 C 386.101562 73.988281 391.089844 81.367188 398.941406 84.875 C 402.25 86.351562 405.949219 86.894531 410.03125 86.5 C 416.46875 85.882812 422.113281 82.207031 425.78125 76.902344 C 425.816406 76.847656 425.828125 76.785156 425.816406 76.722656 C 425.800781 76.65625 425.765625 76.605469 425.707031 76.574219 L 419.089844 72.761719 C 418.949219 72.683594 418.828125 72.703125 418.726562 72.832031 C 416.683594 75.375 414.09375 77.519531 410.917969 78.324219 C 402.398438 80.496094 394.449219 74.101562 394.433594 65.363281 C 394.421875 56.625 402.351562 50.203125 410.878906 52.351562 C 414.054688 53.144531 416.652344 55.277344 418.703125 57.820312 C 418.804688 57.945312 418.925781 57.96875 419.066406 57.886719 L 425.675781 54.058594 C 425.730469 54.023438 425.765625 53.972656 425.78125 53.910156 C 425.792969 53.84375 425.78125 53.78125 425.742188 53.726562 C 422.0625 48.429688 416.410156 44.777344 409.964844 44.175781 C 405.882812 43.792969 402.1875 44.347656 398.882812 45.835938 C 391.039062 49.371094 386.074219 56.765625 386.089844 65.375 Z M 225.242188 49.144531 L 225.242188 45.070312 C 225.242188 45 225.21875 44.941406 225.167969 44.894531 C 225.121094 44.84375 225.0625 44.816406 224.992188 44.816406 L 217.148438 44.816406 C 217.023438 44.816406 216.964844 44.878906 216.964844 45.003906 L 216.964844 85.503906 C 216.964844 85.59375 217.007812 85.640625 217.101562 85.640625 L 225.078125 85.640625 C 225.203125 85.640625 225.261719 85.578125 225.261719 85.453125 C 225.234375 72.75 225.242188 65.394531 225.289062 63.382812 C 225.441406 56.617188 228.917969 51.335938 236.355469 52.039062 C 240.273438 52.410156 242.636719 54.632812 243.449219 58.710938 C 243.726562 60.085938 243.863281 61.066406 243.863281 61.644531 C 243.882812 75.804688 243.890625 83.710938 243.878906 85.371094 C 243.878906 85.445312 243.90625 85.507812 243.957031 85.558594 C 244.007812 85.613281 244.070312 85.640625 244.144531 85.640625 L 251.984375 85.640625 C 252.082031 85.640625 252.128906 85.589844 252.128906 85.496094 C 252.132812 71.636719 252.136719 64.464844 252.136719 63.980469 C 252.160156 56.925781 255.433594 51.417969 263.285156 52.035156 C 269.304688 52.507812 270.792969 57.828125 270.789062 62.96875 C 270.785156 69.539062 270.785156 77.050781 270.792969 85.503906 C 270.792969 85.589844 270.835938 85.632812 270.921875 85.632812 L 278.804688 85.632812 C 278.957031 85.632812 279.035156 85.554688 279.035156 85.402344 C 279.027344 74.730469 279.03125 67.414062 279.042969 63.453125 C 279.058594 59.355469 278.761719 55.605469 277.203125 52.207031 C 274.304688 45.882812 268.441406 43.5 261.730469 44.214844 C 256.894531 44.726562 252.953125 47.117188 249.910156 51.386719 C 249.875 51.433594 249.832031 51.457031 249.773438 51.460938 C 249.71875 51.464844 249.671875 51.445312 249.632812 51.402344 C 249.324219 51.0625 249.125 50.476562 248.917969 50.15625 C 246.394531 46.257812 242.570312 44.238281 237.441406 44.101562 C 232.460938 43.96875 228.464844 45.671875 225.453125 49.21875 C 225.414062 49.261719 225.371094 49.273438 225.320312 49.253906 C 225.265625 49.234375 225.242188 49.199219 225.242188 49.144531 Z M 296.8125 49.40625 L 296.8125 44.980469 C 296.8125 44.878906 296.761719 44.828125 296.660156 44.828125 L 288.855469 44.828125 C 288.703125 44.828125 288.625 44.902344 288.625 45.054688 L 288.625 107.003906 C 288.625 107.082031 288.652344 107.148438 288.707031 107.203125 C 288.765625 107.257812 288.832031 107.285156 288.910156 107.285156 L 296.550781 107.28125 C 296.625 107.28125 296.691406 107.253906 296.746094 107.199219 C 296.796875 107.144531 296.824219 107.082031 296.824219 107.007812 L 296.824219 80.390625 C 296.824219 80.363281 296.835938 80.347656 296.859375 80.335938 C 296.882812 80.328125 296.90625 80.332031 296.925781 80.351562 C 300.628906 84.433594 305.292969 86.4375 310.914062 86.363281 C 325.214844 86.175781 335.277344 71.582031 330.25 57.933594 C 326.914062 48.878906 318.261719 43.371094 308.636719 44.199219 C 304.75 44.53125 301.363281 45.90625 298.476562 48.324219 C 297.578125 49.070312 297.097656 49.46875 297.035156 49.519531 C 296.992188 49.554688 296.941406 49.558594 296.890625 49.53125 C 296.839844 49.503906 296.8125 49.464844 296.8125 49.40625 Z M 335.953125 65.230469 C 335.953125 73.890625 340.902344 81.261719 348.847656 84.742188 C 355.960938 87.859375 364.832031 86.585938 370.480469 80.777344 C 370.515625 80.738281 370.5625 80.726562 370.613281 80.746094 C 370.664062 80.769531 370.691406 80.808594 370.6875 80.863281 L 370.6875 85.457031 C 370.6875 85.570312 370.746094 85.628906 370.859375 85.628906 L 378.710938 85.628906 C 378.800781 85.628906 378.851562 85.582031 378.855469 85.488281 C 378.875 84.882812 378.882812 78.128906 378.878906 65.226562 C 378.878906 52.328125 378.871094 45.574219 378.851562 44.96875 C 378.847656 44.875 378.796875 44.832031 378.707031 44.832031 L 370.855469 44.832031 C 370.742188 44.832031 370.683594 44.886719 370.683594 45 L 370.683594 49.59375 C 370.6875 49.652344 370.660156 49.6875 370.609375 49.710938 C 370.558594 49.730469 370.511719 49.71875 370.476562 49.679688 C 364.828125 43.871094 355.957031 42.601562 348.84375 45.71875 C 340.902344 49.203125 335.953125 56.570312 335.953125 65.230469 Z M 219.523438 147.351562 C 228.714844 147.355469 233.605469 147.359375 234.1875 147.363281 C 234.234375 147.363281 234.265625 147.386719 234.285156 147.433594 L 240.421875 162.554688 C 240.453125 162.628906 240.503906 162.664062 240.585938 162.664062 L 249.589844 162.664062 C 249.652344 162.664062 249.699219 162.640625 249.730469 162.589844 C 249.765625 162.542969 249.773438 162.488281 249.75 162.4375 L 224.160156 99.359375 C 224.128906 99.277344 224.070312 99.238281 223.988281 99.238281 C 222.546875 99.210938 221.0625 99.199219 219.53125 99.199219 C 217.996094 99.199219 216.507812 99.210938 215.070312 99.238281 C 214.984375 99.238281 214.929688 99.277344 214.894531 99.359375 L 189.289062 162.425781 C 189.265625 162.480469 189.269531 162.535156 189.304688 162.582031 C 189.339844 162.632812 189.386719 162.65625 189.445312 162.65625 L 198.453125 162.65625 C 198.53125 162.65625 198.585938 162.621094 198.613281 162.546875 L 204.757812 147.429688 C 204.777344 147.382812 204.808594 147.359375 204.855469 147.359375 C 205.4375 147.355469 210.324219 147.351562 219.523438 147.351562 Z M 378.550781 157.996094 L 378.550781 162.480469 C 378.550781 162.601562 378.609375 162.660156 378.730469 162.660156 L 386.5 162.660156 C 386.65625 162.660156 386.734375 162.582031 386.734375 162.425781 L 386.734375 99.378906 C 386.734375 99.261719 386.675781 99.203125 386.5625 99.203125 L 378.722656 99.203125 C 378.605469 99.203125 378.550781 99.261719 378.550781 99.378906 L 378.550781 127.089844 C 378.550781 127.132812 378.527344 127.164062 378.488281 127.179688 C 378.445312 127.195312 378.410156 127.1875 378.378906 127.152344 C 375.726562 124.242188 372.578125 122.394531 368.933594 121.605469 C 357.660156 119.179688 346.613281 126.71875 344.273438 137.804688 C 342.726562 145.140625 344.996094 152.59375 350.476562 157.746094 C 358.230469 165.046875 370.53125 165.640625 378.316406 157.902344 C 378.359375 157.859375 378.40625 157.847656 378.464844 157.871094 C 378.519531 157.894531 378.550781 157.9375 378.550781 157.996094 Z M 251.101562 142.453125 C 251.117188 151.066406 256.105469 158.441406 263.960938 161.949219 C 267.265625 163.425781 270.960938 163.964844 275.046875 163.570312 C 281.480469 162.949219 287.125 159.273438 290.785156 153.96875 C 290.824219 153.914062 290.835938 153.851562 290.820312 153.789062 C 290.808594 153.722656 290.769531 153.671875 290.714844 153.640625 L 284.097656 149.832031 C 283.957031 149.753906 283.835938 149.773438 283.734375 149.902344 C 281.695312 152.445312 279.101562 154.589844 275.929688 155.394531 C 267.410156 157.570312 259.460938 151.179688 259.445312 142.441406 C 259.429688 133.703125 267.359375 127.28125 275.886719 129.425781 C 279.058594 130.222656 281.65625 132.355469 283.707031 134.894531 C 283.8125 135.019531 283.933594 135.042969 284.070312 134.960938 L 290.671875 131.128906 C 290.730469 131.09375 290.765625 131.046875 290.78125 130.980469 C 290.796875 130.914062 290.785156 130.855469 290.746094 130.796875 C 287.0625 125.507812 281.40625 121.855469 274.96875 121.257812 C 270.886719 120.875 267.191406 121.429688 263.890625 122.917969 C 256.050781 126.453125 251.089844 133.847656 251.101562 142.453125 Z M 293.660156 142.308594 C 293.667969 150.96875 298.621094 158.335938 306.566406 161.8125 C 313.683594 164.921875 322.554688 163.644531 328.195312 157.832031 C 328.230469 157.792969 328.277344 157.78125 328.328125 157.800781 C 328.378906 157.824219 328.40625 157.859375 328.402344 157.917969 L 328.40625 162.511719 C 328.40625 162.625 328.464844 162.679688 328.578125 162.679688 L 336.429688 162.671875 C 336.523438 162.671875 336.570312 162.628906 336.574219 162.535156 C 336.59375 161.929688 336.597656 155.175781 336.585938 142.277344 C 336.578125 129.375 336.5625 122.621094 336.542969 122.011719 C 336.539062 121.921875 336.488281 121.875 336.398438 121.875 L 328.546875 121.882812 C 328.433594 121.882812 328.375 121.941406 328.375 122.054688 L 328.378906 126.648438 C 328.382812 126.703125 328.355469 126.742188 328.304688 126.765625 C 328.253906 126.785156 328.207031 126.773438 328.167969 126.734375 C 322.519531 120.933594 313.648438 119.664062 306.535156 122.789062 C 298.59375 126.277344 293.652344 133.652344 293.660156 142.308594 Z M 402.417969 145.042969 L 434.988281 145.042969 C 435.148438 145.042969 435.238281 144.964844 435.253906 144.800781 C 436.691406 131.21875 426.914062 120.011719 412.929688 121.222656 C 407.230469 121.71875 402.550781 124.148438 398.890625 128.515625 C 391.925781 136.820312 392.332031 149.859375 400.121094 157.664062 C 404.492188 162.050781 410.296875 163.828125 416.402344 163.679688 C 423.03125 163.523438 428.519531 160.773438 432.621094 155.4375 C 432.679688 155.363281 432.671875 155.296875 432.597656 155.238281 L 427.253906 151.011719 C 427.125 150.910156 427 150.917969 426.878906 151.035156 C 423.683594 154.109375 420.84375 156.070312 416.199219 156.226562 C 409.058594 156.453125 403.546875 152.40625 402.179688 145.328125 C 402.164062 145.257812 402.179688 145.191406 402.230469 145.132812 C 402.277344 145.074219 402.339844 145.042969 402.417969 145.042969 Z M 450.515625 126.195312 L 450.519531 122.128906 C 450.519531 122.058594 450.496094 122 450.445312 121.949219 C 450.398438 121.902344 450.339844 121.875 450.269531 121.875 L 442.433594 121.871094 C 442.308594 121.871094 442.246094 121.933594 442.246094 122.058594 L 442.234375 162.503906 C 442.234375 162.59375 442.28125 162.640625 442.371094 162.640625 L 450.339844 162.644531 C 450.460938 162.644531 450.523438 162.582031 450.523438 162.460938 C 450.5 149.773438 450.511719 142.425781 450.554688 140.417969 C 450.714844 133.65625 454.183594 128.386719 461.617188 129.089844 C 465.527344 129.464844 467.886719 131.683594 468.699219 135.757812 C 468.972656 137.132812 469.109375 138.109375 469.109375 138.6875 C 469.125 152.828125 469.128906 160.726562 469.117188 162.382812 C 469.117188 162.457031 469.144531 162.523438 469.195312 162.574219 C 469.25 162.625 469.3125 162.652344 469.382812 162.652344 L 477.210938 162.652344 C 477.308594 162.652344 477.359375 162.605469 477.359375 162.507812 C 477.367188 148.667969 477.371094 141.507812 477.375 141.023438 C 477.398438 133.976562 480.667969 128.476562 488.507812 129.097656 C 494.523438 129.570312 496.007812 134.882812 496 140.015625 C 495.992188 146.582031 495.992188 154.085938 495.996094 162.523438 C 495.996094 162.609375 496.039062 162.652344 496.125 162.652344 L 504 162.652344 C 504.148438 162.652344 504.226562 162.578125 504.230469 162.425781 C 504.226562 151.769531 504.230469 144.460938 504.246094 140.503906 C 504.261719 136.414062 503.96875 132.667969 502.414062 129.273438 C 499.523438 122.953125 493.664062 120.574219 486.960938 121.285156 C 482.132812 121.792969 478.195312 124.183594 475.152344 128.445312 C 475.121094 128.492188 475.074219 128.515625 475.019531 128.519531 C 474.960938 128.523438 474.914062 128.503906 474.875 128.460938 C 474.570312 128.121094 474.371094 127.535156 474.160156 127.214844 C 471.644531 123.316406 467.824219 121.300781 462.703125 121.164062 C 457.726562 121.027344 453.734375 122.730469 450.726562 126.269531 C 450.6875 126.3125 450.644531 126.324219 450.589844 126.304688 C 450.539062 126.285156 450.511719 126.25 450.515625 126.195312 Z M 524.769531 163.246094 C 524.785156 163.277344 524.785156 163.308594 524.769531 163.34375 L 516.109375 184.230469 C 516.09375 184.273438 516.097656 184.3125 516.125 184.351562 C 516.148438 184.390625 516.183594 184.40625 516.230469 184.40625 L 524.269531 184.40625 C 524.328125 184.40625 524.367188 184.378906 524.386719 184.328125 L 550.210938 122.046875 C 550.230469 122.003906 550.226562 121.960938 550.199219 121.925781 C 550.171875 121.886719 550.136719 121.867188 550.089844 121.867188 L 541.367188 121.867188 C 541.308594 121.867188 541.269531 121.894531 541.246094 121.949219 L 529.082031 152.21875 C 529.0625 152.273438 529.019531 152.300781 528.960938 152.300781 C 528.902344 152.300781 528.859375 152.273438 528.839844 152.21875 L 516.558594 121.949219 C 516.535156 121.894531 516.496094 121.867188 516.4375 121.867188 L 507.832031 121.867188 C 507.785156 121.867188 507.75 121.886719 507.722656 121.925781 C 507.695312 121.960938 507.691406 122.003906 507.710938 122.046875 Z M 524.769531 163.246094 "/></g><g clip-rule="nonzero" clip-path="url(#f04e1124b2)"><path style=" stroke:none;fill-rule:nonzero;fill:#0d4da0;fill-opacity:1;" d="M 205.050781 22.1875 L 205.046875 85.359375 C 205.046875 85.523438 204.964844 85.601562 204.808594 85.601562 L 196.546875 85.601562 C 196.476562 85.601562 196.417969 85.578125 196.371094 85.53125 C 196.320312 85.480469 196.296875 85.421875 196.296875 85.351562 L 196.289062 22.1875 Z M 205.050781 22.1875 "/></g><path style=" stroke:none;fill-rule:nonzero;fill:#0d4da0;fill-opacity:1;" d="M 433.875 52.691406 L 428.035156 52.691406 C 427.878906 52.691406 427.800781 52.617188 427.800781 52.460938 L 427.800781 45.03125 C 427.800781 44.898438 427.871094 44.835938 428.003906 44.835938 L 433.957031 44.835938 C 434.097656 44.835938 434.164062 44.765625 434.164062 44.628906 L 434.164062 31.484375 C 434.164062 31.390625 434.210938 31.34375 434.304688 31.34375 L 442.203125 31.34375 C 442.363281 31.34375 442.441406 31.425781 442.441406 31.582031 L 442.441406 44.554688 C 442.441406 44.632812 442.46875 44.695312 442.523438 44.75 C 442.578125 44.804688 442.644531 44.832031 442.71875 44.832031 L 453.785156 44.832031 C 453.859375 44.832031 453.921875 44.855469 453.972656 44.910156 C 454.027344 44.960938 454.050781 45.023438 454.050781 45.097656 L 454.050781 52.566406 C 454.050781 52.65625 454.007812 52.699219 453.917969 52.699219 L 442.574219 52.699219 C 442.484375 52.699219 442.441406 52.742188 442.441406 52.828125 C 442.460938 63.441406 442.457031 69.320312 442.4375 70.460938 C 442.351562 74.617188 442.8125 78.023438 447.589844 78.070312 C 449.46875 78.089844 451.230469 77.902344 452.882812 77.511719 C 452.925781 77.5 452.964844 77.507812 452.996094 77.535156 C 453.03125 77.5625 453.050781 77.601562 453.050781 77.644531 L 453.050781 84.742188 C 453.050781 84.851562 452.996094 84.921875 452.894531 84.957031 C 448.949219 86.308594 443.867188 86.757812 440.210938 85.074219 C 435.308594 82.816406 434.136719 77.746094 434.148438 72.640625 C 434.171875 62.796875 434.175781 56.242188 434.152344 52.96875 C 434.152344 52.894531 434.125 52.828125 434.070312 52.773438 C 434.015625 52.71875 433.949219 52.691406 433.875 52.691406 Z M 433.875 52.691406 "/><path style=" stroke:none;fill-rule:nonzero;fill:#0d4da0;fill-opacity:1;" d="M 394.433594 65.363281 C 394.449219 74.101562 402.398438 80.496094 410.917969 78.324219 C 414.09375 77.519531 416.683594 75.375 418.726562 72.832031 C 418.828125 72.703125 418.949219 72.683594 419.089844 72.761719 L 425.707031 76.574219 C 425.765625 76.605469 425.800781 76.65625 425.816406 76.722656 C 425.828125 76.785156 425.816406 76.847656 425.78125 76.902344 C 422.113281 82.207031 416.46875 85.882812 410.03125 86.5 C 405.949219 86.894531 402.25 86.351562 398.941406 84.875 C 391.089844 81.367188 386.101562 73.988281 386.089844 65.375 C 386.074219 56.765625 391.039062 49.371094 398.882812 45.835938 C 402.1875 44.347656 405.882812 43.792969 409.964844 44.175781 C 416.410156 44.777344 422.0625 48.429688 425.742188 53.726562 C 425.78125 53.78125 425.792969 53.84375 425.78125 53.910156 C 425.765625 53.972656 425.730469 54.023438 425.675781 54.058594 L 419.066406 57.886719 C 418.925781 57.96875 418.804688 57.945312 418.703125 57.820312 C 416.652344 55.277344 414.054688 53.144531 410.878906 52.351562 C 402.351562 50.203125 394.421875 56.625 394.433594 65.363281 Z M 394.433594 65.363281 "/><path style=" stroke:none;fill-rule:nonzero;fill:#0d4da0;fill-opacity:1;" d="M 225.453125 49.21875 C 228.464844 45.671875 232.460938 43.96875 237.441406 44.101562 C 242.570312 44.238281 246.394531 46.257812 248.917969 50.15625 C 249.125 50.476562 249.324219 51.0625 249.632812 51.402344 C 249.671875 51.445312 249.71875 51.464844 249.773438 51.460938 C 249.832031 51.457031 249.875 51.433594 249.910156 51.386719 C 252.953125 47.117188 256.894531 44.726562 261.730469 44.214844 C 268.441406 43.5 274.304688 45.882812 277.203125 52.207031 C 278.761719 55.605469 279.058594 59.355469 279.042969 63.453125 C 279.03125 67.414062 279.027344 74.730469 279.035156 85.402344 C 279.035156 85.554688 278.957031 85.632812 278.804688 85.632812 L 270.921875 85.632812 C 270.835938 85.632812 270.792969 85.589844 270.792969 85.503906 C 270.785156 77.050781 270.785156 69.539062 270.789062 62.96875 C 270.792969 57.828125 269.304688 52.507812 263.285156 52.035156 C 255.433594 51.417969 252.160156 56.925781 252.136719 63.980469 C 252.136719 64.464844 252.132812 71.636719 252.128906 85.496094 C 252.128906 85.589844 252.082031 85.640625 251.984375 85.640625 L 244.144531 85.640625 C 244.070312 85.640625 244.007812 85.613281 243.957031 85.558594 C 243.90625 85.507812 243.878906 85.445312 243.878906 85.371094 C 243.890625 83.710938 243.882812 75.804688 243.863281 61.644531 C 243.863281 61.066406 243.726562 60.085938 243.449219 58.710938 C 242.636719 54.632812 240.273438 52.410156 236.355469 52.039062 C 228.917969 51.335938 225.441406 56.617188 225.289062 63.382812 C 225.242188 65.394531 225.234375 72.75 225.261719 85.453125 C 225.261719 85.578125 225.203125 85.640625 225.078125 85.640625 L 217.101562 85.640625 C 217.007812 85.640625 216.964844 85.59375 216.964844 85.503906 L 216.964844 45.003906 C 216.964844 44.878906 217.023438 44.816406 217.148438 44.816406 L 224.992188 44.816406 C 225.0625 44.816406 225.121094 44.84375 225.167969 44.894531 C 225.21875 44.941406 225.242188 45 225.242188 45.070312 L 225.242188 49.144531 C 225.242188 49.199219 225.265625 49.234375 225.320312 49.253906 C 225.371094 49.273438 225.414062 49.261719 225.453125 49.21875 Z M 225.453125 49.21875 "/><path style=" stroke:none;fill-rule:nonzero;fill:#0d4da0;fill-opacity:1;" d="M 297.035156 49.519531 C 297.097656 49.46875 297.578125 49.070312 298.476562 48.324219 C 301.363281 45.90625 304.75 44.53125 308.636719 44.199219 C 318.261719 43.371094 326.914062 48.878906 330.25 57.933594 C 335.277344 71.582031 325.214844 86.175781 310.914062 86.363281 C 305.292969 86.4375 300.628906 84.433594 296.925781 80.351562 C 296.90625 80.332031 296.882812 80.328125 296.859375 80.335938 C 296.835938 80.347656 296.824219 80.363281 296.824219 80.390625 L 296.824219 107.007812 C 296.824219 107.082031 296.796875 107.144531 296.746094 107.199219 C 296.691406 107.253906 296.625 107.28125 296.550781 107.28125 L 288.910156 107.285156 C 288.832031 107.285156 288.765625 107.257812 288.707031 107.203125 C 288.652344 107.148438 288.625 107.082031 288.625 107.003906 L 288.625 45.054688 C 288.625 44.902344 288.703125 44.828125 288.855469 44.828125 L 296.660156 44.828125 C 296.761719 44.828125 296.8125 44.878906 296.8125 44.980469 L 296.8125 49.40625 C 296.8125 49.464844 296.839844 49.503906 296.890625 49.53125 C 296.941406 49.558594 296.992188 49.554688 297.035156 49.519531 Z M 309.929688 51.855469 C 309.066406 51.859375 308.210938 51.949219 307.363281 52.125 C 306.515625 52.300781 305.695312 52.558594 304.898438 52.898438 C 304.101562 53.238281 303.347656 53.65625 302.628906 54.148438 C 301.914062 54.640625 301.253906 55.199219 300.644531 55.824219 C 300.039062 56.445312 299.496094 57.125 299.019531 57.859375 C 298.542969 58.589844 298.144531 59.363281 297.816406 60.179688 C 297.488281 60.992188 297.246094 61.828125 297.082031 62.691406 C 296.917969 63.554688 296.835938 64.425781 296.84375 65.304688 C 296.847656 66.183594 296.933594 67.050781 297.109375 67.914062 C 297.28125 68.773438 297.535156 69.609375 297.871094 70.417969 C 298.207031 71.226562 298.613281 71.996094 299.097656 72.726562 C 299.582031 73.453125 300.132812 74.125 300.746094 74.746094 C 301.359375 75.363281 302.027344 75.914062 302.746094 76.398438 C 303.46875 76.882812 304.230469 77.289062 305.027344 77.621094 C 305.828125 77.953125 306.652344 78.203125 307.5 78.371094 C 308.347656 78.539062 309.203125 78.621094 310.070312 78.613281 C 310.933594 78.609375 311.789062 78.519531 312.632812 78.34375 C 313.480469 78.167969 314.300781 77.910156 315.097656 77.570312 C 315.894531 77.230469 316.652344 76.8125 317.367188 76.320312 C 318.082031 75.828125 318.742188 75.273438 319.351562 74.648438 C 319.960938 74.023438 320.5 73.34375 320.976562 72.609375 C 321.453125 71.878906 321.855469 71.105469 322.179688 70.292969 C 322.507812 69.476562 322.753906 68.640625 322.917969 67.777344 C 323.082031 66.914062 323.160156 66.042969 323.15625 65.167969 C 323.152344 64.289062 323.0625 63.417969 322.890625 62.558594 C 322.714844 61.695312 322.460938 60.859375 322.128906 60.050781 C 321.792969 59.242188 321.382812 58.472656 320.898438 57.746094 C 320.414062 57.015625 319.867188 56.34375 319.253906 55.726562 C 318.636719 55.105469 317.972656 54.554688 317.25 54.070312 C 316.527344 53.585938 315.769531 53.179688 314.96875 52.847656 C 314.167969 52.515625 313.34375 52.265625 312.496094 52.097656 C 311.648438 51.929688 310.792969 51.851562 309.929688 51.855469 Z M 309.929688 51.855469 "/><path style=" stroke:none;fill-rule:nonzero;fill:#0d4da0;fill-opacity:1;" d="M 378.878906 65.226562 C 378.882812 78.128906 378.875 84.882812 378.855469 85.488281 C 378.851562 85.582031 378.800781 85.628906 378.710938 85.628906 L 370.859375 85.628906 C 370.746094 85.628906 370.6875 85.570312 370.6875 85.457031 L 370.6875 80.863281 C 370.691406 80.808594 370.664062 80.769531 370.613281 80.746094 C 370.5625 80.726562 370.515625 80.738281 370.480469 80.777344 C 364.832031 86.585938 355.960938 87.859375 348.847656 84.742188 C 340.902344 81.261719 335.953125 73.890625 335.953125 65.230469 C 335.953125 56.570312 340.902344 49.203125 348.84375 45.71875 C 355.957031 42.601562 364.828125 43.871094 370.476562 49.679688 C 370.511719 49.71875 370.558594 49.730469 370.609375 49.710938 C 370.660156 49.6875 370.6875 49.652344 370.683594 49.59375 L 370.683594 45 C 370.683594 44.886719 370.742188 44.832031 370.855469 44.832031 L 378.707031 44.832031 C 378.796875 44.832031 378.847656 44.875 378.851562 44.96875 C 378.871094 45.574219 378.878906 52.328125 378.878906 65.226562 Z M 357.433594 51.859375 C 356.566406 51.863281 355.710938 51.949219 354.863281 52.125 C 354.015625 52.300781 353.191406 52.554688 352.394531 52.894531 C 351.59375 53.234375 350.835938 53.648438 350.121094 54.136719 C 349.402344 54.628906 348.738281 55.1875 348.128906 55.808594 C 347.519531 56.433594 346.976562 57.109375 346.496094 57.839844 C 346.019531 58.574219 345.617188 59.347656 345.289062 60.160156 C 344.960938 60.972656 344.710938 61.808594 344.546875 62.671875 C 344.378906 63.53125 344.300781 64.402344 344.300781 65.28125 C 344.304688 66.160156 344.394531 67.027344 344.566406 67.890625 C 344.738281 68.75 344.988281 69.585938 345.324219 70.394531 C 345.65625 71.207031 346.066406 71.976562 346.550781 72.703125 C 347.03125 73.433594 347.582031 74.105469 348.195312 74.726562 C 348.808594 75.34375 349.476562 75.898438 350.199219 76.382812 C 350.917969 76.867188 351.679688 77.277344 352.480469 77.609375 C 353.28125 77.945312 354.105469 78.195312 354.953125 78.363281 C 355.804688 78.53125 356.660156 78.613281 357.527344 78.609375 C 358.390625 78.609375 359.25 78.519531 360.097656 78.34375 C 360.945312 78.171875 361.765625 77.914062 362.566406 77.574219 C 363.363281 77.234375 364.121094 76.820312 364.839844 76.332031 C 365.558594 75.839844 366.21875 75.285156 366.832031 74.660156 C 367.441406 74.039062 367.984375 73.359375 368.460938 72.628906 C 368.941406 71.894531 369.34375 71.125 369.671875 70.3125 C 370 69.5 370.246094 68.660156 370.414062 67.800781 C 370.578125 66.9375 370.660156 66.066406 370.65625 65.1875 C 370.652344 64.3125 370.566406 63.441406 370.394531 62.582031 C 370.222656 61.71875 369.96875 60.882812 369.636719 60.074219 C 369.300781 59.261719 368.894531 58.492188 368.410156 57.765625 C 367.925781 57.035156 367.378906 56.363281 366.765625 55.742188 C 366.148438 55.125 365.484375 54.574219 364.761719 54.085938 C 364.039062 53.601562 363.28125 53.191406 362.480469 52.859375 C 361.679688 52.527344 360.851562 52.273438 360.003906 52.105469 C 359.15625 51.9375 358.296875 51.855469 357.433594 51.859375 Z M 357.433594 51.859375 "/><path style=" stroke:none;fill-rule:nonzero;fill:#ffffff;fill-opacity:1;" d="M 309.929688 51.855469 C 310.792969 51.851562 311.648438 51.929688 312.496094 52.097656 C 313.34375 52.265625 314.167969 52.515625 314.96875 52.847656 C 315.769531 53.179688 316.527344 53.585938 317.25 54.070312 C 317.972656 54.554688 318.636719 55.105469 319.253906 55.726562 C 319.867188 56.34375 320.414062 57.015625 320.898438 57.746094 C 321.382812 58.472656 321.792969 59.242188 322.128906 60.050781 C 322.460938 60.859375 322.714844 61.695312 322.890625 62.558594 C 323.0625 63.417969 323.152344 64.289062 323.15625 65.167969 C 323.160156 66.042969 323.082031 66.914062 322.917969 67.777344 C 322.753906 68.640625 322.507812 69.476562 322.179688 70.292969 C 321.855469 71.105469 321.453125 71.878906 320.976562 72.609375 C 320.5 73.34375 319.960938 74.023438 319.351562 74.648438 C 318.742188 75.273438 318.082031 75.828125 317.367188 76.320312 C 316.652344 76.8125 315.894531 77.230469 315.097656 77.570312 C 314.300781 77.910156 313.480469 78.167969 312.632812 78.34375 C 311.789062 78.519531 310.933594 78.609375 310.070312 78.613281 C 309.203125 78.621094 308.347656 78.539062 307.5 78.371094 C 306.652344 78.203125 305.828125 77.953125 305.027344 77.621094 C 304.230469 77.289062 303.46875 76.882812 302.746094 76.398438 C 302.027344 75.914062 301.359375 75.363281 300.746094 74.746094 C 300.132812 74.125 299.582031 73.453125 299.097656 72.726562 C 298.613281 71.996094 298.207031 71.226562 297.871094 70.417969 C 297.535156 69.609375 297.28125 68.773438 297.109375 67.914062 C 296.933594 67.050781 296.847656 66.183594 296.84375 65.304688 C 296.835938 64.425781 296.917969 63.554688 297.082031 62.691406 C 297.246094 61.828125 297.488281 60.992188 297.816406 60.179688 C 298.144531 59.363281 298.542969 58.589844 299.019531 57.859375 C 299.496094 57.125 300.039062 56.445312 300.644531 55.824219 C 301.253906 55.199219 301.914062 54.640625 302.628906 54.148438 C 303.347656 53.65625 304.101562 53.238281 304.898438 52.898438 C 305.695312 52.558594 306.515625 52.300781 307.363281 52.125 C 308.210938 51.949219 309.066406 51.859375 309.929688 51.855469 Z M 309.929688 51.855469 "/><path style=" stroke:none;fill-rule:nonzero;fill:#ffffff;fill-opacity:1;" d="M 357.433594 51.859375 C 358.296875 51.855469 359.15625 51.9375 360.003906 52.105469 C 360.851562 52.273438 361.679688 52.527344 362.480469 52.859375 C 363.28125 53.191406 364.039062 53.601562 364.761719 54.085938 C 365.484375 54.574219 366.148438 55.125 366.765625 55.742188 C 367.378906 56.363281 367.925781 57.035156 368.410156 57.765625 C 368.894531 58.492188 369.300781 59.261719 369.636719 60.074219 C 369.96875 60.882812 370.222656 61.71875 370.394531 62.582031 C 370.566406 63.441406 370.652344 64.3125 370.65625 65.1875 C 370.660156 66.066406 370.578125 66.9375 370.414062 67.800781 C 370.246094 68.660156 370 69.5 369.671875 70.3125 C 369.34375 71.125 368.941406 71.894531 368.460938 72.628906 C 367.984375 73.359375 367.441406 74.039062 366.832031 74.660156 C 366.21875 75.285156 365.558594 75.839844 364.839844 76.332031 C 364.121094 76.820312 363.363281 77.234375 362.566406 77.574219 C 361.765625 77.914062 360.945312 78.171875 360.097656 78.34375 C 359.25 78.519531 358.390625 78.609375 357.527344 78.609375 C 356.660156 78.613281 355.804688 78.53125 354.953125 78.363281 C 354.105469 78.195312 353.28125 77.945312 352.480469 77.609375 C 351.679688 77.277344 350.917969 76.867188 350.199219 76.382812 C 349.476562 75.898438 348.808594 75.34375 348.195312 74.726562 C 347.582031 74.105469 347.03125 73.433594 346.550781 72.703125 C 346.066406 71.976562 345.65625 71.207031 345.324219 70.394531 C 344.988281 69.585938 344.738281 68.75 344.566406 67.890625 C 344.394531 67.027344 344.304688 66.160156 344.300781 65.28125 C 344.300781 64.402344 344.378906 63.53125 344.546875 62.671875 C 344.710938 61.808594 344.960938 60.972656 345.289062 60.160156 C 345.617188 59.347656 346.019531 58.574219 346.496094 57.839844 C 346.976562 57.109375 347.519531 56.433594 348.128906 55.808594 C 348.738281 55.1875 349.402344 54.628906 350.121094 54.136719 C 350.835938 53.648438 351.59375 53.234375 352.394531 52.894531 C 353.191406 52.554688 354.015625 52.300781 354.863281 52.125 C 355.710938 51.949219 356.566406 51.863281 357.433594 51.859375 Z M 357.433594 51.859375 "/><path style=" stroke:none;fill-rule:nonzero;fill:#0d4da0;fill-opacity:1;" d="M 219.53125 99.199219 C 221.0625 99.199219 222.546875 99.210938 223.988281 99.238281 C 224.070312 99.238281 224.128906 99.277344 224.160156 99.359375 L 249.75 162.4375 C 249.773438 162.488281 249.765625 162.542969 249.730469 162.589844 C 249.699219 162.640625 249.652344 162.664062 249.589844 162.664062 L 240.585938 162.664062 C 240.503906 162.664062 240.453125 162.628906 240.421875 162.554688 L 234.285156 147.433594 C 234.265625 147.386719 234.234375 147.363281 234.1875 147.363281 C 233.605469 147.359375 228.714844 147.355469 219.523438 147.351562 C 210.324219 147.351562 205.4375 147.355469 204.855469 147.359375 C 204.808594 147.359375 204.777344 147.382812 204.757812 147.429688 L 198.613281 162.546875 C 198.585938 162.621094 198.53125 162.65625 198.453125 162.65625 L 189.445312 162.65625 C 189.386719 162.65625 189.339844 162.632812 189.304688 162.582031 C 189.269531 162.535156 189.265625 162.480469 189.289062 162.425781 L 214.894531 99.359375 C 214.929688 99.277344 214.984375 99.238281 215.070312 99.238281 C 216.507812 99.210938 217.996094 99.199219 219.53125 99.199219 Z M 207.914062 139.011719 C 207.898438 139.050781 207.902344 139.089844 207.925781 139.128906 C 207.953125 139.164062 207.988281 139.183594 208.03125 139.183594 L 230.929688 139.183594 C 230.976562 139.183594 231.011719 139.164062 231.035156 139.128906 C 231.0625 139.089844 231.066406 139.050781 231.046875 139.011719 L 219.597656 110.605469 C 219.578125 110.554688 219.539062 110.527344 219.480469 110.527344 C 219.425781 110.527344 219.386719 110.554688 219.363281 110.605469 Z M 207.914062 139.011719 "/><path style=" stroke:none;fill-rule:nonzero;fill:#0d4da0;fill-opacity:1;" d="M 378.550781 157.996094 C 378.550781 157.9375 378.519531 157.894531 378.464844 157.871094 C 378.40625 157.847656 378.359375 157.859375 378.316406 157.902344 C 370.53125 165.640625 358.230469 165.046875 350.476562 157.746094 C 344.996094 152.59375 342.726562 145.140625 344.273438 137.804688 C 346.613281 126.71875 357.660156 119.179688 368.933594 121.605469 C 372.578125 122.394531 375.726562 124.242188 378.378906 127.152344 C 378.410156 127.1875 378.445312 127.195312 378.488281 127.179688 C 378.527344 127.164062 378.550781 127.132812 378.550781 127.089844 L 378.550781 99.378906 C 378.550781 99.261719 378.605469 99.203125 378.722656 99.203125 L 386.5625 99.203125 C 386.675781 99.203125 386.734375 99.261719 386.734375 99.378906 L 386.734375 162.425781 C 386.734375 162.582031 386.65625 162.660156 386.5 162.660156 L 378.730469 162.660156 C 378.609375 162.660156 378.550781 162.601562 378.550781 162.480469 Z M 365.160156 128.929688 C 364.296875 128.941406 363.441406 129.039062 362.59375 129.222656 C 361.746094 129.40625 360.925781 129.671875 360.132812 130.019531 C 359.339844 130.367188 358.585938 130.789062 357.871094 131.289062 C 357.160156 131.785156 356.5 132.347656 355.898438 132.980469 C 355.296875 133.609375 354.757812 134.292969 354.289062 135.027344 C 353.816406 135.765625 353.421875 136.542969 353.101562 137.359375 C 352.785156 138.175781 352.546875 139.015625 352.386719 139.878906 C 352.230469 140.742188 352.160156 141.613281 352.171875 142.492188 C 352.183594 143.371094 352.28125 144.238281 352.460938 145.097656 C 352.640625 145.957031 352.902344 146.792969 353.246094 147.597656 C 353.589844 148.40625 354.003906 149.171875 354.496094 149.894531 C 354.988281 150.617188 355.542969 151.285156 356.164062 151.898438 C 356.785156 152.511719 357.457031 153.058594 358.183594 153.535156 C 358.910156 154.011719 359.675781 154.414062 360.480469 154.738281 C 361.28125 155.066406 362.109375 155.308594 362.960938 155.464844 C 363.8125 155.625 364.667969 155.699219 365.535156 155.6875 C 366.398438 155.675781 367.253906 155.578125 368.101562 155.394531 C 368.949219 155.210938 369.769531 154.945312 370.5625 154.597656 C 371.359375 154.253906 372.109375 153.828125 372.824219 153.332031 C 373.535156 152.832031 374.195312 152.269531 374.796875 151.640625 C 375.398438 151.011719 375.9375 150.328125 376.40625 149.589844 C 376.878906 148.851562 377.273438 148.074219 377.59375 147.257812 C 377.910156 146.441406 378.148438 145.601562 378.308594 144.738281 C 378.464844 143.875 378.535156 143.003906 378.523438 142.125 C 378.511719 141.246094 378.414062 140.378906 378.234375 139.519531 C 378.054688 138.660156 377.792969 137.828125 377.449219 137.019531 C 377.105469 136.210938 376.691406 135.449219 376.199219 134.722656 C 375.707031 134 375.152344 133.332031 374.53125 132.71875 C 373.910156 132.105469 373.238281 131.5625 372.511719 131.082031 C 371.785156 130.605469 371.019531 130.203125 370.21875 129.878906 C 369.414062 129.554688 368.585938 129.3125 367.734375 129.152344 C 366.882812 128.992188 366.027344 128.917969 365.160156 128.929688 Z M 365.160156 128.929688 "/><path style=" stroke:none;fill-rule:nonzero;fill:#ffffff;fill-opacity:1;" d="M 207.914062 139.011719 L 219.363281 110.605469 C 219.386719 110.554688 219.425781 110.527344 219.480469 110.527344 C 219.539062 110.527344 219.578125 110.554688 219.597656 110.605469 L 231.046875 139.011719 C 231.066406 139.050781 231.0625 139.089844 231.035156 139.128906 C 231.011719 139.164062 230.976562 139.183594 230.929688 139.183594 L 208.03125 139.183594 C 207.988281 139.183594 207.953125 139.164062 207.925781 139.128906 C 207.902344 139.089844 207.898438 139.050781 207.914062 139.011719 Z M 207.914062 139.011719 "/><path style=" stroke:none;fill-rule:nonzero;fill:#0d4da0;fill-opacity:1;" d="M 251.101562 142.453125 C 251.089844 133.847656 256.050781 126.453125 263.890625 122.917969 C 267.191406 121.429688 270.886719 120.875 274.96875 121.257812 C 281.40625 121.855469 287.0625 125.507812 290.746094 130.796875 C 290.785156 130.855469 290.796875 130.914062 290.78125 130.980469 C 290.765625 131.046875 290.730469 131.09375 290.671875 131.128906 L 284.070312 134.960938 C 283.933594 135.042969 283.8125 135.019531 283.707031 134.894531 C 281.65625 132.355469 279.058594 130.222656 275.886719 129.425781 C 267.359375 127.28125 259.429688 133.703125 259.445312 142.441406 C 259.460938 151.179688 267.410156 157.570312 275.929688 155.394531 C 279.101562 154.589844 281.695312 152.445312 283.734375 149.902344 C 283.835938 149.773438 283.957031 149.753906 284.097656 149.832031 L 290.714844 153.640625 C 290.769531 153.671875 290.808594 153.722656 290.820312 153.789062 C 290.835938 153.851562 290.824219 153.914062 290.785156 153.96875 C 287.125 159.273438 281.480469 162.949219 275.046875 163.570312 C 270.960938 163.964844 267.265625 163.425781 263.960938 161.949219 C 256.105469 158.441406 251.117188 151.066406 251.101562 142.453125 Z M 251.101562 142.453125 "/><path style=" stroke:none;fill-rule:nonzero;fill:#0d4da0;fill-opacity:1;" d="M 293.660156 142.308594 C 293.652344 133.652344 298.59375 126.277344 306.535156 122.789062 C 313.648438 119.664062 322.519531 120.933594 328.167969 126.734375 C 328.207031 126.773438 328.253906 126.785156 328.304688 126.765625 C 328.355469 126.742188 328.382812 126.703125 328.378906 126.648438 L 328.375 122.054688 C 328.375 121.941406 328.433594 121.882812 328.546875 121.882812 L 336.398438 121.875 C 336.488281 121.875 336.539062 121.921875 336.542969 122.011719 C 336.5625 122.621094 336.578125 129.375 336.585938 142.277344 C 336.597656 155.175781 336.59375 161.929688 336.574219 162.535156 C 336.570312 162.628906 336.523438 162.671875 336.429688 162.671875 L 328.578125 162.679688 C 328.464844 162.679688 328.40625 162.625 328.40625 162.511719 L 328.402344 157.917969 C 328.40625 157.859375 328.378906 157.824219 328.328125 157.800781 C 328.277344 157.78125 328.230469 157.792969 328.195312 157.832031 C 322.554688 163.644531 313.683594 164.921875 306.566406 161.8125 C 298.621094 158.335938 293.667969 150.96875 293.660156 142.308594 Z M 315.070312 128.929688 C 314.203125 128.9375 313.347656 129.03125 312.5 129.210938 C 311.65625 129.386719 310.832031 129.648438 310.039062 129.992188 C 309.242188 130.335938 308.484375 130.753906 307.769531 131.25 C 307.054688 131.742188 306.394531 132.304688 305.789062 132.929688 C 305.183594 133.554688 304.644531 134.238281 304.167969 134.972656 C 303.695312 135.707031 303.296875 136.480469 302.972656 137.296875 C 302.648438 138.109375 302.40625 138.949219 302.242188 139.8125 C 302.082031 140.675781 302.007812 141.546875 302.015625 142.425781 C 302.019531 143.300781 302.113281 144.171875 302.289062 145.03125 C 302.464844 145.890625 302.722656 146.726562 303.0625 147.535156 C 303.398438 148.34375 303.8125 149.113281 304.296875 149.835938 C 304.785156 150.5625 305.335938 151.234375 305.953125 151.851562 C 306.570312 152.46875 307.242188 153.015625 307.964844 153.496094 C 308.6875 153.980469 309.453125 154.386719 310.253906 154.714844 C 311.054688 155.042969 311.882812 155.289062 312.730469 155.453125 C 313.582031 155.617188 314.4375 155.695312 315.304688 155.6875 C 316.167969 155.679688 317.023438 155.589844 317.871094 155.410156 C 318.71875 155.230469 319.539062 154.96875 320.335938 154.625 C 321.132812 154.285156 321.886719 153.863281 322.601562 153.371094 C 323.316406 152.875 323.976562 152.316406 324.582031 151.6875 C 325.191406 151.0625 325.730469 150.382812 326.203125 149.648438 C 326.679688 148.914062 327.078125 148.136719 327.402344 147.324219 C 327.726562 146.507812 327.96875 145.671875 328.128906 144.808594 C 328.289062 143.945312 328.367188 143.074219 328.359375 142.195312 C 328.351562 141.316406 328.257812 140.445312 328.082031 139.585938 C 327.90625 138.726562 327.648438 137.890625 327.3125 137.082031 C 326.972656 136.273438 326.5625 135.507812 326.074219 134.78125 C 325.585938 134.054688 325.035156 133.382812 324.417969 132.765625 C 323.800781 132.152344 323.132812 131.601562 322.40625 131.121094 C 321.683594 130.640625 320.921875 130.234375 320.121094 129.902344 C 319.316406 129.574219 318.492188 129.328125 317.640625 129.164062 C 316.792969 129 315.933594 128.921875 315.070312 128.929688 Z M 315.070312 128.929688 "/><path style=" stroke:none;fill-rule:nonzero;fill:#0d4da0;fill-opacity:1;" d="M 402.417969 145.042969 C 402.339844 145.042969 402.277344 145.074219 402.230469 145.132812 C 402.179688 145.191406 402.164062 145.257812 402.179688 145.328125 C 403.546875 152.40625 409.058594 156.453125 416.199219 156.226562 C 420.84375 156.070312 423.683594 154.109375 426.878906 151.035156 C 427 150.917969 427.125 150.910156 427.253906 151.011719 L 432.597656 155.238281 C 432.671875 155.296875 432.679688 155.363281 432.621094 155.4375 C 428.519531 160.773438 423.03125 163.523438 416.402344 163.679688 C 410.296875 163.828125 404.492188 162.050781 400.121094 157.664062 C 392.332031 149.859375 391.925781 136.820312 398.890625 128.515625 C 402.550781 124.148438 407.230469 121.71875 412.929688 121.222656 C 426.914062 120.011719 436.691406 131.21875 435.253906 144.800781 C 435.238281 144.964844 435.148438 145.042969 434.988281 145.042969 Z M 427.039062 138.636719 C 426.109375 132.675781 421.769531 129.058594 415.765625 128.703125 C 409.191406 128.316406 403.820312 132.269531 402.3125 138.667969 C 402.292969 138.742188 402.324219 138.777344 402.402344 138.777344 L 426.917969 138.777344 C 427.015625 138.777344 427.054688 138.730469 427.039062 138.636719 Z M 427.039062 138.636719 "/><path style=" stroke:none;fill-rule:nonzero;fill:#0d4da0;fill-opacity:1;" d="M 450.515625 126.195312 C 450.511719 126.25 450.539062 126.285156 450.589844 126.304688 C 450.644531 126.324219 450.6875 126.3125 450.726562 126.269531 C 453.734375 122.730469 457.726562 121.027344 462.703125 121.164062 C 467.824219 121.300781 471.644531 123.316406 474.160156 127.214844 C 474.371094 127.535156 474.570312 128.121094 474.875 128.460938 C 474.914062 128.503906 474.960938 128.523438 475.019531 128.519531 C 475.074219 128.515625 475.121094 128.492188 475.152344 128.445312 C 478.195312 124.183594 482.132812 121.792969 486.960938 121.285156 C 493.664062 120.574219 499.523438 122.953125 502.414062 129.273438 C 503.96875 132.667969 504.261719 136.414062 504.246094 140.503906 C 504.230469 144.460938 504.226562 151.769531 504.230469 162.425781 C 504.226562 162.578125 504.148438 162.652344 504 162.652344 L 496.125 162.652344 C 496.039062 162.652344 495.996094 162.609375 495.996094 162.523438 C 495.992188 154.085938 495.992188 146.582031 496 140.015625 C 496.007812 134.882812 494.523438 129.570312 488.507812 129.097656 C 480.667969 128.476562 477.398438 133.976562 477.375 141.023438 C 477.371094 141.507812 477.367188 148.667969 477.359375 162.507812 C 477.359375 162.605469 477.308594 162.652344 477.210938 162.652344 L 469.382812 162.652344 C 469.3125 162.652344 469.25 162.625 469.195312 162.574219 C 469.144531 162.523438 469.117188 162.457031 469.117188 162.382812 C 469.128906 160.726562 469.125 152.828125 469.109375 138.6875 C 469.109375 138.109375 468.972656 137.132812 468.699219 135.757812 C 467.886719 131.683594 465.527344 129.464844 461.617188 129.089844 C 454.183594 128.386719 450.714844 133.65625 450.554688 140.417969 C 450.511719 142.425781 450.5 149.773438 450.523438 162.460938 C 450.523438 162.582031 450.460938 162.644531 450.339844 162.644531 L 442.371094 162.640625 C 442.28125 162.640625 442.234375 162.59375 442.234375 162.503906 L 442.246094 122.058594 C 442.246094 121.933594 442.308594 121.871094 442.433594 121.871094 L 450.269531 121.875 C 450.339844 121.875 450.398438 121.902344 450.445312 121.949219 C 450.496094 122 450.519531 122.058594 450.519531 122.128906 Z M 450.515625 126.195312 "/><g clip-rule="nonzero" clip-path="url(#17fca65811)"><path style=" stroke:none;fill-rule:nonzero;fill:#0d4da0;fill-opacity:1;" d="M 524.769531 163.246094 L 507.710938 122.046875 C 507.691406 122.003906 507.695312 121.960938 507.722656 121.925781 C 507.75 121.886719 507.785156 121.867188 507.832031 121.867188 L 516.4375 121.867188 C 516.496094 121.867188 516.535156 121.894531 516.558594 121.949219 L 528.839844 152.21875 C 528.859375 152.273438 528.902344 152.300781 528.960938 152.300781 C 529.019531 152.300781 529.0625 152.273438 529.082031 152.21875 L 541.246094 121.949219 C 541.269531 121.894531 541.308594 121.867188 541.367188 121.867188 L 550.089844 121.867188 C 550.136719 121.867188 550.171875 121.886719 550.199219 121.925781 C 550.226562 121.960938 550.230469 122.003906 550.210938 122.046875 L 524.386719 184.328125 C 524.367188 184.378906 524.328125 184.40625 524.269531 184.40625 L 516.230469 184.40625 C 516.183594 184.40625 516.148438 184.390625 516.125 184.351562 C 516.097656 184.3125 516.09375 184.273438 516.109375 184.230469 L 524.769531 163.34375 C 524.785156 163.308594 524.785156 163.277344 524.769531 163.246094 Z M 524.769531 163.246094 "/></g><path style=" stroke:none;fill-rule:nonzero;fill:#ffffff;fill-opacity:1;" d="M 427.039062 138.636719 C 427.054688 138.730469 427.015625 138.777344 426.917969 138.777344 L 402.402344 138.777344 C 402.324219 138.777344 402.292969 138.742188 402.3125 138.667969 C 403.820312 132.269531 409.191406 128.316406 415.765625 128.703125 C 421.769531 129.058594 426.109375 132.675781 427.039062 138.636719 Z M 427.039062 138.636719 "/><path style=" stroke:none;fill-rule:nonzero;fill:#ffffff;fill-opacity:1;" d="M 315.070312 128.929688 C 315.933594 128.921875 316.792969 129 317.640625 129.164062 C 318.492188 129.328125 319.316406 129.574219 320.121094 129.902344 C 320.921875 130.234375 321.683594 130.640625 322.40625 131.121094 C 323.132812 131.601562 323.800781 132.152344 324.417969 132.765625 C 325.035156 133.382812 325.585938 134.054688 326.074219 134.78125 C 326.5625 135.507812 326.972656 136.273438 327.3125 137.082031 C 327.648438 137.890625 327.90625 138.726562 328.082031 139.585938 C 328.257812 140.445312 328.351562 141.316406 328.359375 142.195312 C 328.367188 143.074219 328.289062 143.945312 328.128906 144.808594 C 327.96875 145.671875 327.726562 146.507812 327.402344 147.324219 C 327.078125 148.136719 326.679688 148.914062 326.203125 149.648438 C 325.730469 150.382812 325.191406 151.0625 324.582031 151.6875 C 323.976562 152.316406 323.316406 152.875 322.601562 153.371094 C 321.886719 153.863281 321.132812 154.285156 320.335938 154.625 C 319.539062 154.96875 318.71875 155.230469 317.871094 155.410156 C 317.023438 155.589844 316.167969 155.679688 315.304688 155.6875 C 314.4375 155.695312 313.582031 155.617188 312.730469 155.453125 C 311.882812 155.289062 311.054688 155.042969 310.253906 154.714844 C 309.453125 154.386719 308.6875 153.980469 307.964844 153.496094 C 307.242188 153.015625 306.570312 152.46875 305.953125 151.851562 C 305.335938 151.234375 304.785156 150.5625 304.296875 149.839844 C 303.8125 149.113281 303.398438 148.34375 303.0625 147.535156 C 302.722656 146.726562 302.464844 145.890625 302.289062 145.03125 C 302.113281 144.171875 302.019531 143.300781 302.015625 142.425781 C 302.007812 141.546875 302.082031 140.675781 302.242188 139.8125 C 302.40625 138.949219 302.648438 138.109375 302.972656 137.296875 C 303.296875 136.480469 303.695312 135.707031 304.167969 134.972656 C 304.644531 134.238281 305.183594 133.554688 305.789062 132.929688 C 306.394531 132.304688 307.054688 131.742188 307.769531 131.25 C 308.484375 130.753906 309.242188 130.335938 310.039062 129.992188 C 310.832031 129.648438 311.65625 129.386719 312.5 129.210938 C 313.347656 129.03125 314.203125 128.9375 315.070312 128.929688 Z M 315.070312 128.929688 "/><path style=" stroke:none;fill-rule:nonzero;fill:#ffffff;fill-opacity:1;" d="M 365.160156 128.929688 C 366.027344 128.917969 366.882812 128.992188 367.734375 129.152344 C 368.585938 129.3125 369.414062 129.554688 370.21875 129.878906 C 371.019531 130.203125 371.785156 130.605469 372.511719 131.082031 C 373.238281 131.5625 373.910156 132.105469 374.53125 132.71875 C 375.152344 133.332031 375.707031 134 376.199219 134.722656 C 376.691406 135.449219 377.105469 136.210938 377.449219 137.019531 C 377.792969 137.828125 378.054688 138.660156 378.234375 139.519531 C 378.414062 140.378906 378.511719 141.246094 378.523438 142.125 C 378.535156 143.003906 378.464844 143.875 378.308594 144.738281 C 378.148438 145.601562 377.914062 146.441406 377.59375 147.257812 C 377.273438 148.074219 376.878906 148.851562 376.40625 149.589844 C 375.9375 150.328125 375.398438 151.011719 374.796875 151.640625 C 374.195312 152.269531 373.535156 152.832031 372.824219 153.332031 C 372.109375 153.828125 371.359375 154.253906 370.5625 154.597656 C 369.769531 154.945312 368.949219 155.210938 368.101562 155.394531 C 367.253906 155.578125 366.398438 155.675781 365.535156 155.6875 C 364.671875 155.699219 363.8125 155.625 362.960938 155.464844 C 362.109375 155.308594 361.28125 155.066406 360.480469 154.738281 C 359.675781 154.414062 358.910156 154.011719 358.183594 153.535156 C 357.457031 153.058594 356.785156 152.511719 356.164062 151.898438 C 355.542969 151.285156 354.988281 150.617188 354.496094 149.894531 C 354.003906 149.171875 353.589844 148.40625 353.246094 147.597656 C 352.902344 146.792969 352.640625 145.957031 352.460938 145.097656 C 352.28125 144.238281 352.183594 143.371094 352.171875 142.492188 C 352.160156 141.613281 352.230469 140.742188 352.386719 139.878906 C 352.546875 139.015625 352.785156 138.175781 353.101562 137.359375 C 353.421875 136.542969 353.816406 135.765625 354.289062 135.027344 C 354.757812 134.292969 355.296875 133.609375 355.898438 132.980469 C 356.5 132.347656 357.160156 131.785156 357.871094 131.289062 C 358.585938 130.789062 359.339844 130.367188 360.132812 130.019531 C 360.925781 129.671875 361.746094 129.40625 362.59375 129.222656 C 363.441406 129.039062 364.296875 128.941406 365.160156 128.929688 Z M 365.160156 128.929688 "/></g></svg>