<?xml version="1.0" encoding="UTF-8" standalone="no"?>
<!DOCTYPE svg PUBLIC "-//W3C//DTD SVG 1.1//EN" "http://www.w3.org/Graphics/SVG/1.1/DTD/svg11.dtd">
<svg xmlns="http://www.w3.org/2000/svg" version="1.1" viewBox="0.00 0.00 502.00 100.00">
<g stroke-width="2.00" fill="none" stroke-linecap="butt">
<path stroke="#bf878f" vector-effect="non-scaling-stroke" d="
  M 0.00 28.09
  Q 4.03 31.03 7.01 35.34
  C 7.53 36.09 7.73 37.03 8.08 37.84
  Q 8.37 38.52 9.87 38.30
  Q 13.33 37.80 16.48 40.29
  A 1.15 1.14 -48.6 0 0 18.00 40.19
  Q 19.88 38.30 23.45 37.44
  A 1.64 1.60 -43.0 0 1 24.28 37.46
  Q 25.24 37.75 25.95 37.41
  C 26.79 37.01 26.67 35.94 26.89 35.09
  A 2.98 2.93 -19.2 0 1 27.38 34.10
  L 30.60 29.96
  A 1.45 1.44 10.8 0 1 31.31 29.48
  L 32.42 29.15
  A 0.95 0.95 0.0 0 0 33.05 28.57
  C 33.61 27.13 32.22 26.39 32.33 25.16
  Q 32.67 21.51 34.05 19.89
  A 1.82 1.72 17.2 0 0 32.45 17.06
  Q 31.31 17.12 30.73 18.44
  A 1.01 0.98 -45.8 0 0 30.73 19.25
  L 31.49 20.95
  A 1.54 1.51 -51.5 0 1 31.59 21.91
  L 30.78 25.66
  A 0.11 0.11 0.0 0 1 30.57 25.68
  L 29.70 23.75
  A 0.52 0.51 -44.3 0 1 29.71 23.35
  Q 30.81 20.92 28.65 20.44
  A 0.94 0.93 -86.2 0 1 27.93 19.61
  L 27.63 16.41
  A 0.66 0.65 62.7 0 1 27.77 15.95
  Q 28.70 14.84 28.04 13.66
  A 1.29 1.28 -4.9 0 0 27.33 13.07
  L 25.25 12.35
  A 0.73 0.72 15.4 0 1 24.78 11.53
  Q 25.42 8.43 24.14 8.01
  Q 22.58 7.51 21.75 8.34
  A 1.81 1.78 33.0 0 0 22.40 11.28
  C 24.66 12.17 25.62 15.26 23.43 16.74
  A 2.01 1.98 -66.0 0 1 22.67 17.04
  Q 18.06 17.79 17.59 13.61
  A 1.40 1.39 11.5 0 0 16.88 12.55
  Q 14.70 11.33 15.21 8.49
  Q 15.87 4.77 19.09 3.72
  A 1.70 1.59 70.9 0 0 20.05 1.56
  Q 19.67 0.51 18.60 0.29
  A 1.84 1.74 -1.0 0 0 16.43 2.41
  Q 16.83 3.92 14.88 5.16
  Q 14.44 5.43 13.80 5.34
  C 12.11 5.09 11.43 6.82 12.15 8.16
  A 0.94 0.94 0.0 0 1 12.13 9.05
  L 10.10 12.57
  A 1.37 1.35 -80.9 0 1 9.23 13.21
  Q 8.82 13.31 8.75 13.32
  A 1.85 1.83 -75.1 0 0 7.83 13.86
  Q 6.68 15.13 7.82 16.48
  A 0.68 0.66 -66.5 0 1 7.99 16.93
  L 7.99 21.54
  A 0.62 0.62 0.0 0 1 7.10 22.10
  Q 2.84 20.04 4.47 16.05
  A 1.63 1.60 86.3 0 1 5.17 15.24
  Q 6.23 14.63 6.52 14.29
  A 1.87 1.76 27.6 0 0 5.52 11.39
  Q 4.46 11.10 3.52 11.87
  A 1.28 1.24 76.7 0 0 3.09 12.59
  Q 2.91 13.46 3.17 13.81
  A 2.03 1.92 -23.6 0 1 1.88 16.85
  Q 0.46 17.16 0.49 19.01
  A 1.10 1.09 -72.0 0 0 0.92 19.86
  L 1.18 20.06
  A 1.18 1.16 -71.1 0 1 1.62 20.98
  L 1.62 24.78
  A 1.61 1.57 63.3 0 1 1.33 25.70
  L 0.00 27.60"
/>
<path stroke="#bf878f" vector-effect="non-scaling-stroke" d="
  M 167.01 48.52
  A 0.56 0.56 0.0 0 0 166.48 47.96
  C 160.13 47.59 163.98 40.22 165.64 36.40
  A 0.99 0.98 -78.0 0 1 166.54 35.81
  L 179.17 35.81
  A 0.95 0.95 0.0 0 1 180.02 36.34
  Q 181.10 38.61 183.36 44.17
  C 184.85 47.82 182.78 47.85 179.79 48.03
  A 0.41 0.41 0.0 0 0 179.41 48.44
  L 179.41 48.73
  A 0.37 0.37 0.0 0 0 179.78 49.10
  Q 186.11 49.08 193.07 49.10
  Q 193.36 49.10 193.47 49.01
  Q 193.71 48.79 193.63 48.42
  A 0.43 0.42 -87.9 0 0 193.33 48.09
  Q 190.15 47.20 189.50 45.69
  Q 180.86 25.52 175.59 12.93
  A 0.71 0.71 0.0 0 0 174.28 12.93
  Q 169.85 23.33 161.29 43.79
  Q 159.79 47.37 156.48 47.94
  A 0.58 0.58 0.0 0 0 156.58 49.09
  L 166.48 49.10
  A 0.53 0.53 0.0 0 0 167.01 48.55
  L 167.01 48.52"
/>
<path stroke="#bf878f" vector-effect="non-scaling-stroke" d="
  M 286.62 33.91
  L 271.54 33.91
  A 0.29 0.29 0.0 0 0 271.25 34.20
  L 271.25 34.54
  A 0.51 0.51 0.0 0 0 271.76 35.05
  L 274.37 35.05
  A 2.15 2.14 -4.7 0 1 276.49 36.84
  C 277.11 40.49 277.14 44.91 273.88 46.86
  C 267.18 50.87 258.50 47.86 256.11 40.37
  C 254.42 35.09 253.77 24.54 257.27 19.19
  C 260.38 14.42 266.26 12.46 271.68 14.28
  Q 278.78 16.67 280.27 25.27
  A 0.54 0.54 0.0 0 0 280.80 25.71
  L 281.13 25.71
  A 0.30 0.29 0.0 0 0 281.43 25.42
  L 281.43 14.11
  A 0.33 0.32 -0.0 0 0 281.10 13.79
  L 280.68 13.79
  A 0.59 0.59 0.0 0 0 280.09 14.38
  Q 280.06 16.11 279.48 17.25
  A 0.52 0.52 0.0 0 1 278.64 17.37
  Q 273.02 11.37 263.93 12.71
  C 247.04 15.19 242.85 40.54 258.40 47.85
  Q 265.68 51.28 273.10 48.75
  Q 278.43 46.94 281.31 46.69
  A 0.56 0.56 0.0 0 0 281.83 46.12
  Q 281.79 43.88 281.85 42.06
  C 281.98 38.14 281.39 34.51 286.55 35.09
  A 0.43 0.43 0.0 0 0 287.03 34.66
  L 287.03 34.31
  A 0.41 0.40 -0.0 0 0 286.62 33.91"
/>
<path stroke="#bf878f" vector-effect="non-scaling-stroke" d="
  M 96.69 17.44
  Q 96.86 34.27 96.57 44.74
  Q 96.51 46.85 94.74 47.76
  A 0.88 0.86 -59.8 0 1 94.38 47.86
  L 91.04 48.05
  A 0.33 0.33 0.0 0 0 90.73 48.38
  L 90.73 48.63
  A 0.47 0.47 0.0 0 0 91.20 49.10
  L 107.69 49.10
  A 0.33 0.33 0.0 0 0 108.03 48.77
  L 108.03 48.46
  A 0.42 0.41 -86.0 0 0 107.67 48.04
  C 104.85 47.68 101.91 48.62 101.82 44.48
  Q 101.55 31.09 101.88 16.94
  A 2.77 2.76 -8.4 0 1 103.78 14.39
  Q 104.98 14.00 107.59 14.22
  A 0.44 0.44 0.0 0 0 108.07 13.78
  L 108.07 13.44
  A 0.44 0.44 0.0 0 0 107.63 13.00
  L 97.75 13.01
  A 1.17 1.15 -77.6 0 0 96.69 13.69
  L 83.85 42.56
  A 0.24 0.23 44.7 0 1 83.42 42.56
  L 70.40 13.49
  A 0.83 0.82 77.7 0 0 69.65 13.00
  L 59.50 13.00
  A 0.31 0.31 0.0 0 0 59.19 13.28
  L 59.15 13.59
  A 0.55 0.55 0.0 0 0 59.69 14.21
  L 62.44 14.21
  A 2.57 2.56 -0.9 0 1 65.01 16.69
  Q 65.35 26.61 65.09 40.89
  C 65.02 45.15 63.87 47.50 59.66 48.03
  A 0.51 0.50 86.8 0 0 59.22 48.53
  L 59.22 48.81
  A 0.29 0.29 0.0 0 0 59.51 49.11
  L 71.81 49.10
  A 0.31 0.30 90.0 0 0 72.11 48.79
  L 72.11 48.51
  A 0.52 0.52 0.0 0 0 71.63 47.99
  C 66.69 47.65 66.24 43.69 66.24 39.74
  Q 66.24 23.39 66.19 17.57
  A 0.28 0.28 0.0 0 1 66.72 17.45
  L 80.70 48.66
  A 0.89 0.88 -45.3 0 0 82.32 48.65
  L 96.24 17.35
  A 0.24 0.23 -33.4 0 1 96.69 17.44"
/>
<path stroke="#bf878f" vector-effect="non-scaling-stroke" d="
  M 141.69 48.47
  L 141.69 39.14
  A 0.57 0.57 0.0 0 0 140.56 39.00
  C 139.70 42.44 137.76 46.86 134.21 47.72
  Q 132.60 48.11 124.79 47.91
  Q 121.70 47.84 121.64 44.97
  Q 121.32 27.40 121.74 16.75
  A 2.60 2.60 0.0 0 1 124.34 14.24
  L 127.82 14.24
  A 0.34 0.34 0.0 0 0 128.16 13.90
  L 128.16 13.62
  A 0.58 0.57 90.0 0 0 127.59 13.04
  L 111.07 13.04
  A 0.31 0.31 0.0 0 0 110.76 13.35
  L 110.76 13.77
  A 0.46 0.45 -2.3 0 0 111.26 14.22
  C 114.50 13.94 116.40 14.63 116.46 18.24
  Q 116.61 28.01 116.51 42.75
  C 116.48 47.05 115.41 48.20 111.18 48.00
  A 0.37 0.36 -88.5 0 0 110.80 48.37
  L 110.80 48.71
  A 0.39 0.38 -0.0 0 0 111.19 49.09
  L 141.07 49.09
  A 0.62 0.62 0.0 0 0 141.69 48.47"
/>
<path stroke="#bf878f" vector-effect="non-scaling-stroke" d="
  M 225.84 48.48
  L 225.84 39.14
  A 0.57 0.57 0.0 0 0 224.71 39.00
  C 223.85 42.44 221.90 46.87 218.35 47.73
  Q 216.74 48.12 208.93 47.91
  Q 205.84 47.84 205.78 44.97
  Q 205.46 27.39 205.88 16.74
  A 2.60 2.60 0.0 0 1 208.49 14.23
  L 211.97 14.23
  A 0.34 0.34 0.0 0 0 212.31 13.89
  L 212.31 13.61
  A 0.58 0.57 -90.0 0 0 211.74 13.03
  L 195.21 13.02
  A 0.31 0.31 0.0 0 0 194.90 13.33
  L 194.90 13.75
  A 0.46 0.45 -2.3 0 0 195.40 14.20
  C 198.64 13.93 200.54 14.62 200.60 18.23
  Q 200.75 28.00 200.64 42.75
  C 200.61 47.05 199.54 48.20 195.31 48.00
  A 0.37 0.36 -88.5 0 0 194.93 48.37
  L 194.93 48.71
  A 0.39 0.38 0.0 0 0 195.32 49.09
  L 225.22 49.10
  A 0.62 0.62 0.0 0 0 225.84 48.48"
/>
<path stroke="#bf878f" vector-effect="non-scaling-stroke" d="
  M 233.72 31.08
  Q 233.72 41.66 233.63 44.00
  C 233.49 47.88 231.73 48.08 228.36 47.98
  A 0.38 0.37 0.8 0 0 227.97 48.35
  L 227.97 48.63
  A 0.44 0.44 0.0 0 0 228.40 49.07
  Q 232.37 49.16 236.28 49.11
  Q 240.18 49.16 244.15 49.07
  A 0.44 0.44 0.0 0 0 244.58 48.63
  L 244.58 48.35
  A 0.38 0.37 -0.7 0 0 244.19 47.98
  C 240.82 48.08 239.06 47.88 238.92 44.00
  Q 238.83 41.66 238.83 31.08
  Q 238.83 20.50 238.92 18.17
  C 239.07 14.28 240.83 14.08 244.20 14.18
  A 0.38 0.37 0.8 0 0 244.59 13.81
  L 244.59 13.53
  A 0.44 0.44 0.0 0 0 244.15 13.09
  Q 240.19 13.01 236.28 13.05
  Q 232.37 13.01 228.41 13.09
  A 0.44 0.44 0.0 0 0 227.97 13.53
  L 227.97 13.81
  A 0.38 0.37 -0.7 0 0 228.36 14.18
  C 231.73 14.08 233.49 14.28 233.64 18.17
  Q 233.72 20.50 233.72 31.08"
/>
<path stroke="#bf878f" vector-effect="non-scaling-stroke" d="
  M 296.35 16.68
  A 0.23 0.23 0.0 0 1 296.77 16.54
  L 322.05 49.79
  A 0.65 0.64 26.7 0 0 323.21 49.41
  Q 323.30 28.82 323.21 19.22
  Q 323.17 15.68 326.44 14.67
  Q 328.24 14.12 328.77 14.16
  A 0.33 0.32 -87.6 0 0 329.12 13.83
  L 329.12 13.52
  A 0.48 0.48 0.0 0 0 328.64 13.04
  L 316.29 13.04
  A 0.33 0.32 5.3 0 0 315.97 13.30
  L 315.87 13.72
  A 0.31 0.30 -81.6 0 0 316.14 14.09
  C 321.82 14.71 322.03 15.90 322.03 21.54
  Q 322.04 37.72 322.01 40.65
  A 0.26 0.26 0.0 0 1 321.55 40.80
  L 300.97 13.75
  A 1.80 1.79 71.3 0 0 299.54 13.04
  L 290.09 13.04
  A 0.34 0.33 -0.0 0 0 289.75 13.37
  L 289.75 13.79
  A 0.44 0.44 0.0 0 0 290.19 14.23
  L 292.34 14.23
  A 2.40 2.40 0.0 0 1 294.69 16.15
  Q 295.24 18.87 295.16 23.00
  Q 295.11 25.56 295.17 43.55
  C 295.18 47.01 292.54 47.72 289.73 48.01
  A 0.49 0.49 0.0 0 0 289.30 48.50
  L 289.30 48.75
  A 0.34 0.33 -90.0 0 0 289.63 49.09
  L 302.44 49.09
  A 0.33 0.33 0.0 0 0 302.77 48.76
  L 302.77 48.50
  A 0.49 0.49 0.0 0 0 302.31 48.01
  C 299.07 47.83 296.37 47.23 296.37 43.29
  Q 296.37 21.04 296.35 16.68"
/>
<path stroke="#bf878f" vector-effect="non-scaling-stroke" d="
  M 368.08 17.50
  Q 368.24 34.30 367.95 44.74
  Q 367.89 46.85 366.13 47.75
  A 0.88 0.86 -59.8 0 1 365.77 47.85
  L 362.43 48.04
  A 0.33 0.33 0.0 0 0 362.12 48.37
  L 362.12 48.62
  A 0.47 0.47 0.0 0 0 362.59 49.09
  L 379.05 49.09
  A 0.33 0.33 0.0 0 0 379.38 48.76
  L 379.38 48.45
  A 0.42 0.41 -86.0 0 0 379.03 48.04
  C 376.21 47.68 373.28 48.61 373.19 44.48
  Q 372.92 31.12 373.25 17.01
  A 2.77 2.76 -8.4 0 1 375.15 14.46
  Q 376.35 14.07 378.95 14.29
  A 0.44 0.44 0.0 0 0 379.43 13.85
  L 379.43 13.52
  A 0.44 0.44 0.0 0 0 378.99 13.08
  L 369.13 13.08
  A 1.16 1.15 -77.6 0 0 368.08 13.76
  L 355.26 42.56
  A 0.24 0.23 44.7 0 1 354.83 42.56
  L 341.85 13.56
  A 0.83 0.82 77.7 0 0 341.10 13.07
  L 330.97 13.07
  A 0.31 0.31 0.0 0 0 330.66 13.35
  L 330.62 13.66
  A 0.55 0.55 0.0 0 0 331.16 14.28
  L 333.91 14.28
  A 2.56 2.55 -0.9 0 1 336.47 16.75
  Q 336.81 26.65 336.55 40.89
  C 336.48 45.14 335.33 47.49 331.13 48.02
  A 0.50 0.50 0.0 0 0 330.69 48.52
  L 330.69 48.80
  A 0.29 0.29 0.0 0 0 330.98 49.09
  L 343.25 49.09
  A 0.31 0.30 90.0 0 0 343.55 48.78
  L 343.55 48.50
  A 0.52 0.52 0.0 0 0 343.07 47.98
  C 338.14 47.64 337.69 43.69 337.69 39.75
  Q 337.70 23.44 337.65 17.63
  A 0.28 0.28 0.0 0 1 338.18 17.51
  L 352.12 48.65
  A 0.88 0.88 0.0 0 0 353.73 48.64
  L 367.63 17.41
  A 0.24 0.23 -33.4 0 1 368.08 17.50"
/>
<path stroke="#bf878f" vector-effect="non-scaling-stroke" d="
  M 412.36 48.44
  L 413.20 38.38
  A 0.40 0.40 0.0 0 0 412.83 37.95
  L 412.53 37.92
  A 0.62 0.61 -81.2 0 0 411.89 38.40
  C 411.09 42.12 408.58 46.93 404.69 47.67
  Q 401.69 48.24 395.81 47.86
  Q 393.23 47.69 393.13 44.58
  Q 392.94 38.71 392.99 30.98
  A 0.35 0.34 0.8 0 1 393.35 30.64
  C 397.09 30.75 403.13 29.16 402.30 35.82
  A 0.44 0.44 0.0 0 0 402.70 36.32
  L 403.09 36.35
  A 0.36 0.36 0.0 0 0 403.48 35.99
  L 403.48 24.46
  A 0.39 0.39 0.0 0 0 403.05 24.07
  L 402.77 24.09
  A 0.50 0.50 0.0 0 0 402.32 24.65
  Q 402.84 29.29 398.81 29.48
  C 396.94 29.56 394.63 29.77 393.46 29.59
  A 0.55 0.55 0.0 0 1 392.99 29.05
  L 392.99 14.94
  A 0.71 0.71 0.0 0 1 393.68 14.23
  Q 401.45 14.02 403.44 14.56
  C 406.85 15.49 407.83 18.40 408.73 21.72
  A 0.49 0.48 -10.6 0 0 409.25 22.07
  L 409.53 22.05
  A 0.29 0.29 0.0 0 0 409.79 21.74
  L 409.03 13.62
  A 0.65 0.64 87.0 0 0 408.39 13.04
  L 383.44 13.04
  A 0.41 0.41 0.0 0 0 383.03 13.49
  L 383.05 13.79
  A 0.47 0.46 84.3 0 0 383.55 14.21
  C 386.36 13.96 387.74 15.05 387.80 18.07
  Q 388.10 33.96 387.71 45.27
  A 2.64 2.64 0.0 0 1 385.31 47.82
  L 382.65 48.07
  A 0.32 0.32 0.0 0 0 382.36 48.42
  L 382.39 48.73
  A 0.40 0.40 0.0 0 0 382.79 49.10
  L 411.65 49.10
  A 0.71 0.71 0.0 0 0 412.36 48.44"
/>
<path stroke="#bf878f" vector-effect="non-scaling-stroke" d="
  M 422.98 16.70
  A 0.23 0.23 0.0 0 1 423.40 16.56
  L 448.66 49.81
  A 0.65 0.64 26.7 0 0 449.82 49.43
  Q 449.92 28.84 449.83 19.25
  Q 449.79 15.71 453.06 14.70
  Q 454.86 14.15 455.39 14.19
  A 0.33 0.32 -87.6 0 0 455.74 13.86
  L 455.74 13.55
  A 0.48 0.48 0.0 0 0 455.26 13.07
  L 442.92 13.07
  A 0.33 0.32 5.4 0 0 442.60 13.33
  L 442.50 13.75
  A 0.31 0.30 -81.6 0 0 442.77 14.12
  C 448.44 14.74 448.65 15.93 448.65 21.57
  Q 448.66 37.74 448.63 40.67
  A 0.26 0.26 0.0 0 1 448.17 40.82
  L 427.60 13.77
  A 1.80 1.79 71.3 0 0 426.17 13.06
  L 416.73 13.06
  A 0.34 0.33 0.0 0 0 416.39 13.39
  L 416.39 13.81
  A 0.44 0.44 0.0 0 0 416.83 14.25
  L 418.98 14.25
  A 2.40 2.40 0.0 0 1 421.32 16.17
  Q 421.87 18.89 421.79 23.02
  Q 421.74 25.58 421.80 43.56
  C 421.80 47.02 419.16 47.73 416.36 48.02
  A 0.49 0.49 0.0 0 0 415.93 48.51
  L 415.93 48.76
  A 0.34 0.33 -90.0 0 0 416.26 49.10
  L 429.06 49.10
  A 0.33 0.33 0.0 0 0 429.39 48.77
  L 429.39 48.51
  A 0.49 0.49 0.0 0 0 428.93 48.02
  C 425.69 47.84 422.99 47.24 422.99 43.30
  Q 423.00 21.06 422.98 16.70"
/>
<path stroke="#bf878f" vector-effect="non-scaling-stroke" d="
  M 475.35 49.10
  C 479.70 49.10 484.37 49.23 484.44 48.87
  Q 484.51 48.48 484.25 48.18
  A 0.40 0.40 0.0 0 0 483.97 48.04
  C 481.37 47.93 478.22 48.44 478.04 44.96
  Q 477.80 40.43 477.94 14.92
  A 0.69 0.69 0.0 0 1 478.61 14.24
  Q 485.86 14.06 487.64 14.47
  C 490.64 15.16 491.46 18.48 492.06 21.28
  A 0.55 0.54 38.5 0 0 493.14 21.16
  L 493.00 13.75
  A 0.67 0.67 0.0 0 0 492.35 13.10
  Q 491.64 13.07 475.38 13.06
  Q 459.11 13.04 458.41 13.07
  A 0.67 0.67 0.0 0 0 457.76 13.73
  L 457.61 21.14
  A 0.55 0.54 -38.4 0 0 458.69 21.26
  C 459.29 18.46 460.11 15.14 463.12 14.45
  Q 464.90 14.05 472.15 14.24
  A 0.69 0.69 0.0 0 1 472.81 14.92
  Q 472.92 40.43 472.67 44.96
  C 472.49 48.44 469.34 47.92 466.74 48.03
  A 0.40 0.40 0.0 0 0 466.46 48.17
  Q 466.20 48.47 466.27 48.85
  C 466.34 49.22 471.00 49.10 475.35 49.10"
/>
<path stroke="#bf878f" vector-effect="non-scaling-stroke" d="
  M 17.04 45.73
  Q 22.35 45.72 29.22 45.30
  A 0.88 0.86 -79.1 0 0 29.96 44.79
  L 31.03 42.39
  A 0.37 0.36 -81.6 0 0 30.66 41.88
  Q 25.46 42.47 17.04 42.48
  Q 8.62 42.49 3.42 41.92
  A 0.37 0.36 81.4 0 0 3.05 42.43
  L 4.13 44.82
  A 0.88 0.86 79.0 0 0 4.87 45.33
  Q 11.74 45.74 17.04 45.73"
/>
<path stroke="#bf878f" vector-effect="non-scaling-stroke" d="
  M 26.08 48.88
  L 7.92 48.92
  A 0.25 0.25 0.0 0 0 7.67 49.17
  L 7.67 49.33
  A 2.73 2.17 89.9 0 0 9.84 52.05
  L 24.16 52.03
  A 2.73 2.17 89.9 0 0 26.33 49.29
  L 26.33 49.13
  A 0.25 0.25 0.0 0 0 26.08 48.88"
/>
<path stroke="#bf878f" vector-effect="non-scaling-stroke" d="
  M 14.94 93.74
  Q 15.34 93.72 15.56 93.58
  Q 15.79 93.43 15.78 93.04
  Q 15.39 56.03 15.34 55.38
  A 0.63 0.62 88.8 0 0 14.74 54.80
  Q 14.07 54.78 13.48 54.80
  Q 12.91 54.82 12.24 54.89
  A 0.63 0.62 86.9 0 0 11.68 55.52
  Q 11.68 56.17 14.06 93.11
  Q 14.08 93.49 14.33 93.63
  Q 14.55 93.75 14.94 93.74"
/>
<path stroke="#bf878f" vector-effect="non-scaling-stroke" d="
  M 19.06 93.67
  Q 19.46 93.69 19.69 93.56
  Q 19.93 93.43 19.95 93.05
  Q 22.33 56.24 22.33 55.59
  A 0.62 0.62 0.0 0 0 21.78 54.97
  Q 21.11 54.90 20.53 54.88
  Q 19.95 54.86 19.28 54.88
  A 0.62 0.62 0.0 0 0 18.68 55.45
  Q 18.64 56.10 18.24 92.99
  Q 18.23 93.37 18.46 93.52
  Q 18.68 93.66 19.06 93.67"
/>
<path stroke="#bf878f" vector-effect="non-scaling-stroke" d="
  M 212.3241 71.6697
  A 12.33 12.33 0.0 0 0 200.0372 59.2967
  L 196.2372 59.2835
  A 12.33 12.33 0.0 0 0 183.8643 71.5703
  L 183.8559 73.9703
  A 12.33 12.33 0.0 0 0 196.1428 86.3433
  L 199.9428 86.3565
  A 12.33 12.33 0.0 0 0 212.3157 74.0697
  L 212.3241 71.6697"
/>
<path stroke="#bf878f" vector-effect="non-scaling-stroke" d="
  M 243.74 85.91
  A 0.34 0.33 -45.3 0 0 243.74 85.25
  Q 239.70 84.69 237.11 81.20
  Q 233.70 76.62 230.46 73.40
  A 0.58 0.58 0.0 0 1 230.79 72.42
  Q 236.84 71.55 237.27 66.44
  C 238.09 56.83 221.01 59.62 216.16 59.61
  A 0.21 0.21 0.0 0 0 215.95 59.82
  L 215.95 60.12
  A 0.35 0.35 0.0 0 0 216.38 60.46
  Q 218.45 60.02 219.50 61.19
  A 1.52 1.45 24.4 0 1 219.89 62.16
  Q 220.13 72.90 220.00 81.94
  Q 219.96 84.33 219.27 84.71
  Q 218.35 85.21 216.06 85.10
  A 0.14 0.14 0.0 0 0 215.92 85.24
  L 215.92 85.65
  A 0.35 0.34 -0.0 0 0 216.27 85.99
  L 228.09 85.99
  A 0.28 0.28 0.0 0 0 228.37 85.71
  L 228.37 85.43
  A 0.13 0.13 0.0 0 0 228.25 85.30
  L 225.34 85.01
  A 1.84 1.84 0.0 0 1 223.69 83.18
  L 223.69 73.84
  A 0.67 0.67 0.0 0 1 224.31 73.17
  Q 226.43 72.99 227.55 74.47
  Q 232.15 80.53 234.89 84.15
  C 236.89 86.78 241.06 86.33 243.74 85.91"
/>
<path stroke="#bf878f" vector-effect="non-scaling-stroke" d="
  M 278.80 77.74
  L 278.80 85.25
  A 0.50 0.50 0.0 0 0 279.77 85.42
  Q 280.03 84.66 280.07 83.67
  A 0.36 0.36 0.0 0 1 280.68 83.42
  Q 285.31 87.67 290.82 86.15
  C 295.45 84.88 297.17 80.77 295.88 76.29
  C 294.48 71.42 288.38 71.45 283.78 67.90
  C 281.22 65.93 280.20 62.50 283.29 60.73
  C 287.63 58.25 292.08 61.66 293.20 66.12
  A 0.43 0.43 0.0 0 0 294.05 66.02
  L 294.05 59.93
  A 0.26 0.26 0.0 0 0 293.79 59.67
  L 293.43 59.67
  A 0.21 0.20 -82.8 0 0 293.23 59.83
  L 292.87 61.34
  A 0.56 0.55 20.5 0 1 292.07 61.70
  C 291.40 61.38 290.45 60.27 289.35 59.80
  C 279.88 55.77 274.35 68.42 284.22 72.79
  C 285.87 73.52 292.24 75.88 293.28 78.48
  C 294.80 82.25 291.87 85.56 288.26 85.77
  C 283.43 86.04 280.51 82.39 279.83 77.80
  A 0.45 0.43 85.3 0 0 279.40 77.42
  L 279.11 77.42
  A 0.32 0.31 90.0 0 0 278.80 77.74"
/>
<path stroke="#bf878f" vector-effect="non-scaling-stroke" d="
  M 324.56 69.46
  L 324.34 59.86
  A 0.34 0.34 0.0 0 0 323.66 59.80
  L 323.10 62.37
  A 0.51 0.51 0.0 0 1 322.27 62.65
  C 313.92 55.33 302.18 59.79 300.75 70.73
  Q 299.68 78.87 304.41 83.19
  C 309.17 87.54 317.30 87.83 322.06 83.10
  A 0.64 0.64 0.0 0 1 323.03 83.17
  Q 323.44 83.72 323.78 85.14
  A 0.30 0.29 82.1 0 0 324.06 85.36
  L 324.40 85.36
  A 0.17 0.17 0.0 0 0 324.57 85.19
  L 324.57 76.39
  A 0.28 0.28 0.0 0 0 324.02 76.31
  Q 323.42 78.18 323.25 78.78
  C 321.18 86.48 311.17 88.05 306.80 81.40
  C 303.67 76.65 304.16 67.83 307.43 63.25
  C 310.56 58.87 317.07 59.19 320.74 62.53
  Q 323.11 64.68 323.84 69.38
  A 0.30 0.29 -4.6 0 0 324.13 69.62
  L 324.40 69.62
  A 0.16 0.15 -1.7 0 0 324.56 69.46"
/>
<path stroke="#bf878f" vector-effect="non-scaling-stroke" d="
  M 361.7322 72.5838
  A 14.68 13.88 -179.0 0 0 376.1678 86.7179
  A 14.68 13.88 -179.0 0 0 391.0878 73.0962
  A 14.68 13.88 -179.0 0 0 376.6522 58.9621
  A 14.68 13.88 -179.0 0 0 361.7322 72.5838"
/>
<path stroke="#bf878f" vector-effect="non-scaling-stroke" d="
  M 446.40 60.27
  Q 446.86 60.41 447.91 60.37
  A 2.32 2.31 -1.0 0 1 450.31 62.68
  L 450.31 83.16
  A 1.68 1.67 -9.2 0 1 449.16 84.75
  C 445.99 85.79 442.84 85.87 441.33 82.19
  Q 437.70 73.30 431.73 59.34
  A 0.38 0.38 0.0 0 0 431.03 59.34
  Q 426.20 70.56 421.42 82.14
  Q 420.41 84.57 418.08 85.33
  A 0.34 0.34 0.0 0 0 418.18 85.99
  L 425.16 85.99
  A 0.17 0.17 0.0 0 0 425.33 85.82
  L 425.33 85.47
  A 0.30 0.29 -89.0 0 0 425.05 85.17
  Q 422.99 85.05 422.35 83.42
  A 1.40 1.36 45.8 0 1 422.35 82.43
  L 424.54 76.66
  A 0.73 0.73 0.0 0 1 425.22 76.19
  L 434.52 76.19
  A 0.61 0.60 77.9 0 1 435.07 76.55
  L 438.10 83.32
  A 0.97 0.95 -43.0 0 1 438.06 84.17
  Q 437.38 85.42 435.13 85.05
  A 0.12 0.11 14.6 0 0 435.00 85.12
  L 434.79 85.58
  A 0.30 0.30 0.0 0 0 435.06 86.00
  L 458.37 86.00
  A 0.27 0.26 -90.0 0 0 458.63 85.73
  L 458.63 85.48
  A 0.34 0.34 0.0 0 0 458.25 85.14
  Q 456.09 85.39 454.80 84.67
  A 1.64 1.64 0.0 0 1 453.96 83.24
  L 453.96 73.81
  A 0.64 0.63 -1.9 0 1 454.56 73.18
  Q 456.93 73.06 458.59 75.38
  Q 463.44 82.16 465.81 84.88
  C 467.33 86.63 471.92 86.09 473.82 85.92
  A 0.33 0.33 0.0 0 0 473.83 85.27
  Q 469.99 84.82 467.45 81.41
  Q 463.71 76.38 460.50 73.19
  A 0.40 0.40 0.0 0 1 460.72 72.52
  Q 467.57 71.42 467.44 65.47
  C 467.25 57.15 451.42 59.50 446.47 59.64
  A 0.32 0.32 0.0 0 0 446.40 60.27"
/>
<path stroke="#bf878f" vector-effect="non-scaling-stroke" d="
  M 476.79 77.74
  L 476.79 85.25
  A 0.50 0.50 0.0 0 0 477.76 85.42
  Q 478.02 84.66 478.06 83.67
  A 0.36 0.36 0.0 0 1 478.67 83.42
  Q 483.30 87.67 488.81 86.15
  C 493.43 84.88 495.16 80.77 493.87 76.29
  C 492.47 71.42 486.37 71.45 481.77 67.90
  C 479.21 65.93 478.19 62.50 481.28 60.73
  C 485.62 58.26 490.07 61.67 491.19 66.13
  A 0.43 0.43 0.0 0 0 492.04 66.03
  L 492.04 59.94
  A 0.26 0.26 0.0 0 0 491.78 59.68
  L 491.42 59.68
  A 0.21 0.20 -82.7 0 0 491.22 59.84
  L 490.86 61.35
  A 0.56 0.55 20.5 0 1 490.06 61.71
  C 489.39 61.39 488.44 60.28 487.34 59.81
  C 477.88 55.77 472.34 68.42 482.21 72.79
  C 483.86 73.52 490.23 75.88 491.27 78.48
  C 492.79 82.25 489.86 85.56 486.25 85.77
  C 481.42 86.04 478.50 82.39 477.82 77.80
  A 0.45 0.43 85.4 0 0 477.39 77.42
  L 477.10 77.42
  A 0.32 0.31 -90.0 0 0 476.79 77.74"
/>
<path stroke="#bf878f" vector-effect="non-scaling-stroke" d="
  M 109.60 86.02
  Q 115.59 86.02 115.91 85.93
  A 0.33 0.32 -80.6 0 0 116.11 85.79
  Q 116.26 85.56 116.11 85.26
  A 0.32 0.30 75.0 0 0 115.84 85.09
  L 113.33 85.09
  A 1.93 1.92 -0.0 0 1 111.40 83.17
  L 111.40 60.92
  A 0.52 0.51 -1.2 0 1 111.90 60.41
  Q 115.59 60.26 118.46 60.50
  Q 120.90 60.71 121.92 65.64
  A 0.27 0.26 -5.2 0 0 122.18 65.85
  L 122.47 65.85
  A 0.23 0.23 0.0 0 0 122.70 65.61
  L 122.48 60.37
  A 0.69 0.69 0.0 0 0 121.81 59.71
  Q 120.71 59.68 109.61 59.67
  Q 98.51 59.67 97.41 59.70
  A 0.69 0.69 0.0 0 0 96.75 60.36
  L 96.52 65.60
  A 0.23 0.23 0.0 0 0 96.75 65.84
  L 97.04 65.84
  A 0.27 0.26 5.3 0 0 97.30 65.63
  Q 98.33 60.70 100.77 60.49
  Q 103.64 60.25 107.33 60.41
  A 0.52 0.51 1.2 0 1 107.83 60.92
  L 107.80 83.17
  A 1.93 1.92 0.1 0 1 105.87 85.09
  L 103.36 85.08
  A 0.32 0.30 -75.0 0 0 103.09 85.25
  Q 102.94 85.55 103.09 85.78
  A 0.33 0.32 80.7 0 0 103.28 85.92
  Q 103.61 86.02 109.60 86.02"
/>
<path stroke="#bf878f" vector-effect="non-scaling-stroke" d="
  M 139.91 72.73
  Q 145.44 72.73 146.44 72.83
  A 0.61 0.61 0.0 0 1 146.99 73.44
  Q 147.02 80.22 146.94 82.76
  Q 146.85 85.58 143.22 85.12
  A 0.33 0.32 3.9 0 0 142.85 85.44
  L 142.85 85.76
  A 0.26 0.26 0.0 0 0 143.11 86.02
  L 154.34 86.02
  A 0.33 0.33 0.0 0 0 154.67 85.69
  L 154.67 85.40
  A 0.15 0.14 -88.0 0 0 154.54 85.25
  L 152.44 85.08
  A 1.87 1.87 0.0 0 1 150.73 83.26
  Q 150.49 73.73 150.72 62.95
  C 150.77 60.53 152.19 60.33 154.48 60.38
  A 0.24 0.24 0.0 0 0 154.72 60.14
  L 154.72 59.87
  A 0.22 0.22 0.0 0 0 154.50 59.65
  L 143.08 59.65
  A 0.30 0.30 0.0 0 0 142.99 60.23
  C 144.74 60.76 146.82 59.84 146.91 62.79
  Q 147.05 67.04 147.00 71.14
  A 0.45 0.45 0.0 0 1 146.55 71.59
  Q 142.60 71.59 139.91 71.59
  Q 137.22 71.59 133.26 71.58
  A 0.45 0.45 0.0 0 1 132.81 71.14
  Q 132.76 67.04 132.91 62.79
  C 133.00 59.84 135.08 60.76 136.83 60.23
  A 0.30 0.30 0.0 0 0 136.74 59.65
  L 125.32 59.64
  A 0.22 0.22 0.0 0 0 125.10 59.86
  L 125.10 60.13
  A 0.24 0.24 0.0 0 0 125.34 60.37
  C 127.63 60.32 129.05 60.52 129.10 62.94
  Q 129.32 73.72 129.07 83.25
  A 1.87 1.87 0.0 0 1 127.36 85.07
  L 125.26 85.24
  A 0.15 0.14 88.0 0 0 125.13 85.39
  L 125.13 85.68
  A 0.33 0.33 0.0 0 0 125.46 86.01
  L 136.69 86.02
  A 0.26 0.26 0.0 0 0 136.95 85.76
  L 136.95 85.44
  A 0.33 0.32 -3.8 0 0 136.58 85.12
  Q 132.95 85.58 132.87 82.76
  Q 132.79 80.22 132.82 73.44
  A 0.61 0.61 0.0 0 1 133.37 72.83
  Q 134.37 72.72 139.91 72.73"
/>
<path stroke="#bf878f" vector-effect="non-scaling-stroke" d="
  M 177.50 65.66
  L 176.99 60.21
  A 0.61 0.61 0.0 0 0 176.38 59.65
  L 158.14 59.65
  A 0.14 0.14 0.0 0 0 158.00 59.79
  L 158.00 60.07
  A 0.33 0.33 0.0 0 0 158.35 60.40
  Q 161.36 60.18 161.41 63.04
  Q 161.64 75.78 161.38 83.27
  A 1.83 1.82 88.4 0 1 159.73 85.02
  L 157.49 85.23
  A 0.12 0.12 0.0 0 0 157.38 85.35
  L 157.38 85.65
  A 0.37 0.36 0.0 0 0 157.75 86.01
  L 178.71 86.01
  A 0.70 0.69 2.2 0 0 179.41 85.37
  L 179.99 78.38
  A 0.40 0.40 0.0 0 0 179.22 78.22
  C 177.96 82.03 176.69 85.00 172.03 85.12
  Q 167.79 85.23 166.71 84.96
  A 1.97 1.96 6.7 0 1 165.22 83.08
  L 165.05 73.15
  A 0.64 0.64 0.0 0 1 165.64 72.50
  C 168.79 72.27 172.68 71.62 171.99 76.41
  A 0.26 0.26 0.0 0 0 172.25 76.70
  L 172.56 76.70
  A 0.42 0.42 0.0 0 0 172.98 76.28
  L 172.98 68.05
  A 0.28 0.28 0.0 0 0 172.70 67.77
  L 172.43 67.77
  A 0.34 0.34 0.0 0 0 172.09 68.14
  Q 172.36 71.69 169.30 71.73
  C 168.02 71.75 166.01 71.88 165.53 71.79
  A 0.52 0.52 0.0 0 1 165.11 71.28
  L 165.10 61.03
  A 0.63 0.63 0.0 0 1 165.73 60.40
  L 172.09 60.40
  A 3.70 3.68 77.8 0 1 175.45 62.58
  L 176.90 65.82
  A 0.32 0.31 -59.7 0 0 177.50 65.66"
/>
<path stroke="#bf878f" vector-effect="non-scaling-stroke" d="
  M 257.96 60.29
  C 260.06 60.63 261.68 61.81 260.42 64.01
  Q 258.24 67.83 254.55 73.92
  A 0.58 0.58 0.0 0 1 253.55 73.91
  L 246.95 62.48
  A 1.27 1.27 0.0 0 1 247.61 60.66
  Q 248.24 60.43 249.52 60.35
  A 0.24 0.23 -2.7 0 0 249.74 60.12
  L 249.74 59.82
  A 0.18 0.17 0.0 0 0 249.56 59.65
  L 239.47 59.65
  A 0.33 0.33 0.0 0 0 239.41 60.30
  C 241.71 60.76 242.29 62.17 243.43 64.00
  Q 249.91 74.44 249.94 74.49
  A 4.35 4.31 -67.4 0 1 250.50 75.87
  Q 251.18 79.12 250.56 83.59
  A 1.36 1.32 -12.9 0 1 249.94 84.55
  Q 248.89 85.21 247.28 85.24
  A 0.30 0.30 0.0 0 0 246.98 85.54
  L 246.98 85.86
  A 0.17 0.17 0.0 0 0 247.15 86.03
  L 257.71 86.03
  A 0.39 0.38 -38.6 0 0 257.80 85.27
  L 255.82 84.84
  A 1.75 1.75 0.0 0 1 254.44 83.12
  L 254.45 76.22
  A 1.93 1.91 63.6 0 1 254.83 75.07
  Q 255.23 74.46 261.51 64.02
  Q 263.24 61.13 266.17 60.23
  A 0.29 0.29 0.0 0 0 266.09 59.67
  L 257.88 59.66
  A 0.23 0.23 0.0 0 0 257.65 59.87
  L 257.64 59.89
  A 0.38 0.38 0.0 0 0 257.96 60.29"
/>
<path stroke="#bf878f" vector-effect="non-scaling-stroke" d="
  M 343.61 72.73
  Q 349.15 72.72 350.14 72.83
  A 0.61 0.61 0.0 0 1 350.70 73.44
  Q 350.73 80.21 350.65 82.75
  Q 350.57 85.57 346.94 85.11
  A 0.33 0.32 3.8 0 0 346.57 85.43
  L 346.57 85.75
  A 0.26 0.26 0.0 0 0 346.83 86.01
  L 358.05 86.00
  A 0.33 0.33 0.0 0 0 358.38 85.67
  L 358.38 85.38
  A 0.15 0.14 -88.0 0 0 358.25 85.23
  L 356.15 85.06
  A 1.87 1.87 0.0 0 1 354.44 83.25
  Q 354.19 73.72 354.41 62.95
  C 354.46 60.53 355.88 60.33 358.17 60.38
  A 0.24 0.24 0.0 0 0 358.41 60.14
  L 358.41 59.87
  A 0.22 0.22 0.0 0 0 358.19 59.65
  L 346.77 59.66
  A 0.30 0.30 0.0 0 0 346.69 60.24
  C 348.43 60.76 350.51 59.84 350.61 62.79
  Q 350.75 67.04 350.70 71.14
  A 0.45 0.45 0.0 0 1 350.25 71.59
  Q 346.30 71.59 343.61 71.59
  Q 340.93 71.59 336.97 71.59
  A 0.45 0.45 0.0 0 1 336.52 71.15
  Q 336.47 67.05 336.61 62.80
  C 336.70 59.85 338.78 60.77 340.53 60.24
  A 0.30 0.30 0.0 0 0 340.44 59.66
  L 329.02 59.66
  A 0.22 0.22 0.0 0 0 328.80 59.88
  L 328.80 60.15
  A 0.24 0.24 0.0 0 0 329.04 60.39
  C 331.33 60.34 332.75 60.54 332.80 62.96
  Q 333.04 73.73 332.80 83.26
  A 1.87 1.87 0.0 0 1 331.09 85.08
  L 328.99 85.25
  A 0.15 0.14 87.9 0 0 328.86 85.40
  L 328.86 85.69
  A 0.33 0.33 0.0 0 0 329.19 86.02
  L 340.42 86.02
  A 0.26 0.26 0.0 0 0 340.68 85.76
  L 340.68 85.44
  A 0.33 0.32 -3.9 0 0 340.31 85.12
  Q 336.68 85.58 336.59 82.76
  Q 336.51 80.22 336.53 73.44
  A 0.61 0.61 0.0 0 1 337.08 72.84
  Q 338.08 72.73 343.61 72.73"
/>
<path stroke="#bf878f" vector-effect="non-scaling-stroke" d="
  M 394.30 60.24
  A 0.30 0.30 0.0 0 0 394.65 60.47
  Q 398.34 59.76 398.48 62.81
  Q 398.91 71.99 398.50 83.26
  A 1.82 1.82 0.0 0 1 396.90 85.00
  L 394.34 85.31
  A 0.07 0.07 0.0 0 0 394.28 85.38
  L 394.31 85.66
  A 0.39 0.38 -2.4 0 0 394.70 86.01
  L 416.50 86.01
  A 0.55 0.55 0.0 0 0 417.05 85.46
  L 417.05 78.85
  A 0.40 0.40 0.0 0 0 416.26 78.75
  Q 415.52 81.75 413.84 83.65
  A 4.36 4.35 -69.1 0 1 410.59 85.11
  L 403.93 85.11
  A 1.63 1.63 0.0 0 1 402.30 83.55
  Q 402.01 76.59 402.28 62.56
  C 402.34 59.76 405.15 60.56 406.74 60.36
  A 0.33 0.33 0.0 0 0 407.04 60.01
  L 407.04 59.97
  A 0.37 0.37 0.0 0 0 406.67 59.65
  L 394.74 59.65
  A 0.46 0.45 -4.8 0 0 394.29 60.18
  L 394.30 60.24"
/>
<path stroke="#bf878f" vector-effect="non-scaling-stroke" d="
  M 84.58 83.42
  C 81.53 87.04 77.57 83.78 76.15 80.72
  A 1.24 1.22 47.6 0 1 76.19 79.63
  C 77.95 76.42 78.56 72.65 82.76 70.88
  A 0.42 0.42 0.0 0 0 82.60 70.07
  L 74.83 70.07
  A 0.07 0.04 -58.3 0 0 74.79 70.09
  Q 74.65 70.17 74.60 70.41
  A 0.34 0.34 0.0 0 0 74.84 70.80
  C 79.58 72.21 77.41 75.96 75.78 78.68
  A 0.62 0.61 -48.2 0 1 74.76 78.74
  L 68.84 70.96
  A 0.65 0.65 0.0 0 1 69.07 69.98
  C 72.15 68.44 77.11 64.19 72.06 61.17
  C 65.41 57.19 60.57 64.98 65.13 70.38
  A 0.81 0.81 0.0 0 1 64.89 71.62
  C 59.63 74.41 55.89 81.13 62.20 85.41
  C 66.05 88.02 69.98 86.41 73.48 83.34
  A 0.56 0.55 49.6 0 1 74.28 83.41
  Q 77.07 86.79 80.91 86.66
  Q 83.48 86.56 85.40 83.85
  A 0.19 0.17 45.5 0 0 85.39 83.64
  L 85.24 83.44
  A 0.43 0.42 46.6 0 0 84.58 83.42"
/>
<path stroke="#bf878f" vector-effect="non-scaling-stroke" d="
  M 13.15 9.96
  L 10.82 14.06
  A 0.14 0.14 0.0 0 0 10.87 14.26
  L 10.98 14.32
  A 2.47 2.23 -60.4 0 0 14.14 13.27
  L 14.17 13.22
  A 2.47 2.23 -60.4 0 0 13.45 9.97
  L 13.34 9.91
  A 0.14 0.14 0.0 0 0 13.15 9.96"
/>
<path stroke="#bf878f" vector-effect="non-scaling-stroke" d="
  M 15.08 21.13
  L 14.93 16.30
  A 0.86 0.86 0.0 0 0 13.95 15.48
  L 11.12 15.87
  A 0.41 0.40 -23.1 0 0 10.85 16.52
  L 14.57 21.31
  A 0.29 0.28 25.6 0 0 15.08 21.13"
/>
<path stroke="#bf878f" vector-effect="non-scaling-stroke" d="
  M 16.35 16.44
  L 16.40 21.35
  A 0.42 0.42 0.0 0 0 17.08 21.68
  L 19.33 19.94
  A 0.64 0.64 0.0 0 0 19.44 19.04
  L 17.19 16.15
  A 0.47 0.47 0.0 0 0 16.35 16.44"
/>
<path stroke="#bf878f" vector-effect="non-scaling-stroke" d="
  M 18.85 22.78
  L 25.37 22.17
  A 1.45 1.45 0.0 0 0 26.68 20.60
  L 26.35 17.09
  A 0.55 0.55 0.0 0 0 25.47 16.70
  Q 23.78 17.95 23.42 18.87
  Q 22.67 20.73 21.45 20.78
  Q 20.05 20.82 18.61 22.28
  A 0.30 0.29 19.6 0 0 18.85 22.78"
/>
<path stroke="#bf878f" vector-effect="non-scaling-stroke" d="
  M 9.17 21.56
  A 1.36 1.36 0.0 0 0 9.52 22.59
  Q 10.60 23.78 9.52 25.14
  A 0.70 0.69 61.2 0 0 9.38 25.64
  L 9.66 28.71
  A 0.39 0.39 0.0 0 0 10.36 28.92
  L 13.31 25.12
  A 2.57 2.56 45.2 0 0 13.32 21.99
  L 10.04 17.68
  A 0.31 0.31 0.0 0 0 9.48 17.84
  L 9.17 21.56"
/>
<path stroke="#bf878f" vector-effect="non-scaling-stroke" d="
  M 2.97 21.17
  L 2.97 26.09
  A 0.43 0.42 71.4 0 0 3.65 26.43
  L 5.92 24.71
  A 0.64 0.64 0.0 0 0 6.04 23.81
  L 3.82 20.89
  A 0.47 0.47 0.0 0 0 2.97 21.17"
/>
<path stroke="#bf878f" vector-effect="non-scaling-stroke" d="
  M 26.27 23.39
  L 17.65 24.19
  A 0.28 0.27 -25.5 0 0 17.48 24.66
  L 21.35 28.57
  A 1.69 1.68 37.6 0 0 24.01 28.23
  L 26.55 23.83
  A 0.29 0.29 0.0 0 0 26.27 23.39"
/>
<path stroke="#bf878f" vector-effect="non-scaling-stroke" d="
  M 25.23 29.66
  L 29.31 27.84
  A 0.79 0.79 0.0 0 0 29.67 26.72
  L 28.35 24.44
  A 0.38 0.37 44.7 0 0 27.70 24.44
  L 24.90 29.28
  A 0.27 0.26 -86.5 0 0 25.23 29.66"
/>
<path stroke="#bf878f" vector-effect="non-scaling-stroke" d="
  M 11.93 31.98
  L 15.05 36.08
  A 2.13 2.12 45.2 0 0 18.42 36.10
  L 20.60 33.30
  A 2.38 2.37 -44.9 0 0 20.61 30.40
  L 16.80 25.38
  A 1.22 1.21 45.1 0 0 14.88 25.37
  L 11.95 29.14
  A 2.33 2.33 0.0 0 0 11.93 31.98"
/>
<path stroke="#bf878f" vector-effect="non-scaling-stroke" d="
  M 7.29 25.65
  L 4.37 27.33
  A 0.45 0.45 0.0 0 0 4.42 28.13
  L 7.39 29.46
  A 0.65 0.65 0.0 0 0 8.30 28.80
  L 8.04 26.04
  A 0.50 0.50 0.0 0 0 7.29 25.65"
/>
<path stroke="#bf878f" vector-effect="non-scaling-stroke" d="
  M 4.49 30.23
  L 8.50 34.93
  A 0.11 0.11 0.0 0 0 8.65 34.95
  L 8.69 34.92
  A 3.07 1.71 49.5 0 0 7.99 31.47
  L 7.82 31.28
  A 3.07 1.71 49.5 0 0 4.53 30.05
  L 4.50 30.08
  A 0.11 0.11 0.0 0 0 4.49 30.23"
/>
<path stroke="#bf878f" vector-effect="non-scaling-stroke" d="
  M 28.59 30.37
  A 0.32 0.31 13.5 0 0 28.28 29.87
  Q 23.50 30.84 24.55 33.63
  A 0.78 0.78 0.0 0 0 25.90 33.83
  L 28.59 30.37"
/>
<path stroke="#bf878f" vector-effect="non-scaling-stroke" d="
  M 14.48 37.52
  L 10.96 32.89
  A 0.43 0.42 38.4 0 0 10.23 32.97
  L 9.98 33.54
  A 0.44 0.41 -52.5 0 0 10.02 33.96
  Q 11.18 35.51 11.31 36.21
  A 0.55 0.54 -84.7 0 0 11.62 36.59
  L 14.27 37.78
  A 0.17 0.17 0.0 0 0 14.48 37.52"
/>
<path stroke="#bf878f" vector-effect="non-scaling-stroke" d="
  M 19.56 36.88
  A 0.30 0.30 0.0 0 0 19.88 37.33
  Q 24.36 36.11 23.19 33.53
  A 0.75 0.74 -40.2 0 0 21.90 33.42
  L 19.56 36.88"
/>
<path stroke="#bf878f" vector-effect="non-scaling-stroke" d="
  M 166.52 34.28
  A 0.30 0.30 0.0 0 0 166.80 34.69
  L 179.02 34.67
  A 0.30 0.30 0.0 0 0 179.30 34.26
  L 173.16 19.73
  A 0.30 0.30 0.0 0 0 172.61 19.73
  L 166.52 34.28"
/>
<path stroke="#bf878f" vector-effect="non-scaling-stroke" d="
  M 208.0114 69.2879
  A 9.20 9.20 0.0 0 0 198.7634 60.1362
  L 197.2434 60.1442
  A 9.20 9.20 0.0 0 0 188.0917 69.3922
  L 188.1286 76.4321
  A 9.20 9.20 0.0 0 0 197.3766 85.5838
  L 198.8966 85.5758
  A 9.20 9.20 0.0 0 0 208.0483 76.3278
  L 208.0114 69.2879"
/>
<path stroke="#bf878f" vector-effect="non-scaling-stroke" d="
  M 223.75 60.68
  L 223.73 71.88
  A 0.56 0.56 0.0 0 0 224.29 72.44
  L 227.41 72.45
  A 5.68 5.34 0.1 0 0 233.10 67.12
  L 233.10 65.48
  A 5.68 5.34 0.1 0 0 227.43 60.13
  L 224.31 60.12
  A 0.56 0.56 0.0 0 0 223.75 60.68"
/>
<path stroke="#bf878f" vector-effect="non-scaling-stroke" d="
  M 386.3439 69.3226
  A 9.20 9.20 0.0 0 0 377.1278 60.1387
  L 375.5878 60.1414
  A 9.20 9.20 0.0 0 0 366.4039 69.3574
  L 366.4161 76.3774
  A 9.20 9.20 0.0 0 0 375.6322 85.5613
  L 377.1722 85.5586
  A 9.20 9.20 0.0 0 0 386.3561 76.3426
  L 386.3439 69.3226"
/>
<path stroke="#bf878f" vector-effect="non-scaling-stroke" d="
  M 453.97 60.59
  L 453.99 72.01
  A 0.47 0.47 0.0 0 0 454.46 72.48
  L 457.55 72.47
  A 5.90 5.61 -0.1 0 0 463.44 66.85
  L 463.44 65.71
  A 5.90 5.61 -0.1 0 0 457.53 60.11
  L 454.44 60.12
  A 0.47 0.47 0.0 0 0 453.97 60.59"
/>
<path stroke="#bf878f" vector-effect="non-scaling-stroke" d="
  M 425.22 75.16
  A 0.31 0.31 0.0 0 0 425.50 75.59
  L 434.30 75.60
  A 0.31 0.31 0.0 0 0 434.59 75.17
  L 430.21 64.68
  A 0.31 0.31 0.0 0 0 429.64 64.68
  L 425.22 75.16"
/>
<path stroke="#bf878f" vector-effect="non-scaling-stroke" d="
  M 68.16 69.50
  Q 68.18 69.50 68.23 69.51
  A 0.17 0.05 10.6 0 0 68.36 69.50
  Q 70.73 67.93 71.47 66.45
  C 72.60 64.21 72.04 61.36 69.21 61.01
  C 66.37 60.66 65.15 63.29 65.70 65.74
  Q 66.06 67.35 67.98 69.45
  A 0.17 0.05 3.4 0 0 68.09 69.49
  Q 68.15 69.50 68.16 69.50"
/>
<path stroke="#bf878f" vector-effect="non-scaling-stroke" d="
  M 73.01 81.70
  L 66.64 72.58
  A 0.82 0.82 0.0 0 0 65.50 72.37
  L 64.41 73.13
  A 6.25 6.02 -34.9 0 0 62.73 81.65
  L 63.14 82.24
  A 6.25 6.02 -34.9 0 0 71.71 83.60
  L 72.80 82.84
  A 0.82 0.82 0.0 0 0 73.01 81.70"
/>
</g>
<path fill="#ffffff" d="
  M 502.00 0.00
  L 502.00 100.00
  L 0.00 100.00
  L 0.00 28.09
  Q 4.03 31.03 7.01 35.34
  C 7.53 36.09 7.73 37.03 8.08 37.84
  Q 8.37 38.52 9.87 38.30
  Q 13.33 37.80 16.48 40.29
  A 1.15 1.14 -48.6 0 0 18.00 40.19
  Q 19.88 38.30 23.45 37.44
  A 1.64 1.60 -43.0 0 1 24.28 37.46
  Q 25.24 37.75 25.95 37.41
  C 26.79 37.01 26.67 35.94 26.89 35.09
  A 2.98 2.93 -19.2 0 1 27.38 34.10
  L 30.60 29.96
  A 1.45 1.44 10.8 0 1 31.31 29.48
  L 32.42 29.15
  A 0.95 0.95 0.0 0 0 33.05 28.57
  C 33.61 27.13 32.22 26.39 32.33 25.16
  Q 32.67 21.51 34.05 19.89
  A 1.82 1.72 17.2 0 0 32.45 17.06
  Q 31.31 17.12 30.73 18.44
  A 1.01 0.98 -45.8 0 0 30.73 19.25
  L 31.49 20.95
  A 1.54 1.51 -51.5 0 1 31.59 21.91
  L 30.78 25.66
  A 0.11 0.11 0.0 0 1 30.57 25.68
  L 29.70 23.75
  A 0.52 0.51 -44.3 0 1 29.71 23.35
  Q 30.81 20.92 28.65 20.44
  A 0.94 0.93 -86.2 0 1 27.93 19.61
  L 27.63 16.41
  A 0.66 0.65 62.7 0 1 27.77 15.95
  Q 28.70 14.84 28.04 13.66
  A 1.29 1.28 -4.9 0 0 27.33 13.07
  L 25.25 12.35
  A 0.73 0.72 15.4 0 1 24.78 11.53
  Q 25.42 8.43 24.14 8.01
  Q 22.58 7.51 21.75 8.34
  A 1.81 1.78 33.0 0 0 22.40 11.28
  C 24.66 12.17 25.62 15.26 23.43 16.74
  A 2.01 1.98 -66.0 0 1 22.67 17.04
  Q 18.06 17.79 17.59 13.61
  A 1.40 1.39 11.5 0 0 16.88 12.55
  Q 14.70 11.33 15.21 8.49
  Q 15.87 4.77 19.09 3.72
  A 1.70 1.59 70.9 0 0 20.05 1.56
  Q 19.67 0.51 18.60 0.29
  A 1.84 1.74 -1.0 0 0 16.43 2.41
  Q 16.83 3.92 14.88 5.16
  Q 14.44 5.43 13.80 5.34
  C 12.11 5.09 11.43 6.82 12.15 8.16
  A 0.94 0.94 0.0 0 1 12.13 9.05
  L 10.10 12.57
  A 1.37 1.35 -80.9 0 1 9.23 13.21
  Q 8.82 13.31 8.75 13.32
  A 1.85 1.83 -75.1 0 0 7.83 13.86
  Q 6.68 15.13 7.82 16.48
  A 0.68 0.66 -66.5 0 1 7.99 16.93
  L 7.99 21.54
  A 0.62 0.62 0.0 0 1 7.10 22.10
  Q 2.84 20.04 4.47 16.05
  A 1.63 1.60 86.3 0 1 5.17 15.24
  Q 6.23 14.63 6.52 14.29
  A 1.87 1.76 27.6 0 0 5.52 11.39
  Q 4.46 11.10 3.52 11.87
  A 1.28 1.24 76.7 0 0 3.09 12.59
  Q 2.91 13.46 3.17 13.81
  A 2.03 1.92 -23.6 0 1 1.88 16.85
  Q 0.46 17.16 0.49 19.01
  A 1.10 1.09 -72.0 0 0 0.92 19.86
  L 1.18 20.06
  A 1.18 1.16 -71.1 0 1 1.62 20.98
  L 1.62 24.78
  A 1.61 1.57 63.3 0 1 1.33 25.70
  L 0.00 27.60
  L 0.00 0.00
  L 502.00 0.00
  Z
  M 167.01 48.52
  A 0.56 0.56 0.0 0 0 166.48 47.96
  C 160.13 47.59 163.98 40.22 165.64 36.40
  A 0.99 0.98 -78.0 0 1 166.54 35.81
  L 179.17 35.81
  A 0.95 0.95 0.0 0 1 180.02 36.34
  Q 181.10 38.61 183.36 44.17
  C 184.85 47.82 182.78 47.85 179.79 48.03
  A 0.41 0.41 0.0 0 0 179.41 48.44
  L 179.41 48.73
  A 0.37 0.37 0.0 0 0 179.78 49.10
  Q 186.11 49.08 193.07 49.10
  Q 193.36 49.10 193.47 49.01
  Q 193.71 48.79 193.63 48.42
  A 0.43 0.42 -87.9 0 0 193.33 48.09
  Q 190.15 47.20 189.50 45.69
  Q 180.86 25.52 175.59 12.93
  A 0.71 0.71 0.0 0 0 174.28 12.93
  Q 169.85 23.33 161.29 43.79
  Q 159.79 47.37 156.48 47.94
  A 0.58 0.58 0.0 0 0 156.58 49.09
  L 166.48 49.10
  A 0.53 0.53 0.0 0 0 167.01 48.55
  L 167.01 48.52
  Z
  M 286.62 33.91
  L 271.54 33.91
  A 0.29 0.29 0.0 0 0 271.25 34.20
  L 271.25 34.54
  A 0.51 0.51 0.0 0 0 271.76 35.05
  L 274.37 35.05
  A 2.15 2.14 -4.7 0 1 276.49 36.84
  C 277.11 40.49 277.14 44.91 273.88 46.86
  C 267.18 50.87 258.50 47.86 256.11 40.37
  C 254.42 35.09 253.77 24.54 257.27 19.19
  C 260.38 14.42 266.26 12.46 271.68 14.28
  Q 278.78 16.67 280.27 25.27
  A 0.54 0.54 0.0 0 0 280.80 25.71
  L 281.13 25.71
  A 0.30 0.29 0.0 0 0 281.43 25.42
  L 281.43 14.11
  A 0.33 0.32 -0.0 0 0 281.10 13.79
  L 280.68 13.79
  A 0.59 0.59 0.0 0 0 280.09 14.38
  Q 280.06 16.11 279.48 17.25
  A 0.52 0.52 0.0 0 1 278.64 17.37
  Q 273.02 11.37 263.93 12.71
  C 247.04 15.19 242.85 40.54 258.40 47.85
  Q 265.68 51.28 273.10 48.75
  Q 278.43 46.94 281.31 46.69
  A 0.56 0.56 0.0 0 0 281.83 46.12
  Q 281.79 43.88 281.85 42.06
  C 281.98 38.14 281.39 34.51 286.55 35.09
  A 0.43 0.43 0.0 0 0 287.03 34.66
  L 287.03 34.31
  A 0.41 0.40 -0.0 0 0 286.62 33.91
  Z
  M 96.69 17.44
  Q 96.86 34.27 96.57 44.74
  Q 96.51 46.85 94.74 47.76
  A 0.88 0.86 -59.8 0 1 94.38 47.86
  L 91.04 48.05
  A 0.33 0.33 0.0 0 0 90.73 48.38
  L 90.73 48.63
  A 0.47 0.47 0.0 0 0 91.20 49.10
  L 107.69 49.10
  A 0.33 0.33 0.0 0 0 108.03 48.77
  L 108.03 48.46
  A 0.42 0.41 -86.0 0 0 107.67 48.04
  C 104.85 47.68 101.91 48.62 101.82 44.48
  Q 101.55 31.09 101.88 16.94
  A 2.77 2.76 -8.4 0 1 103.78 14.39
  Q 104.98 14.00 107.59 14.22
  A 0.44 0.44 0.0 0 0 108.07 13.78
  L 108.07 13.44
  A 0.44 0.44 0.0 0 0 107.63 13.00
  L 97.75 13.01
  A 1.17 1.15 -77.6 0 0 96.69 13.69
  L 83.85 42.56
  A 0.24 0.23 44.7 0 1 83.42 42.56
  L 70.40 13.49
  A 0.83 0.82 77.7 0 0 69.65 13.00
  L 59.50 13.00
  A 0.31 0.31 0.0 0 0 59.19 13.28
  L 59.15 13.59
  A 0.55 0.55 0.0 0 0 59.69 14.21
  L 62.44 14.21
  A 2.57 2.56 -0.9 0 1 65.01 16.69
  Q 65.35 26.61 65.09 40.89
  C 65.02 45.15 63.87 47.50 59.66 48.03
  A 0.51 0.50 86.8 0 0 59.22 48.53
  L 59.22 48.81
  A 0.29 0.29 0.0 0 0 59.51 49.11
  L 71.81 49.10
  A 0.31 0.30 90.0 0 0 72.11 48.79
  L 72.11 48.51
  A 0.52 0.52 0.0 0 0 71.63 47.99
  C 66.69 47.65 66.24 43.69 66.24 39.74
  Q 66.24 23.39 66.19 17.57
  A 0.28 0.28 0.0 0 1 66.72 17.45
  L 80.70 48.66
  A 0.89 0.88 -45.3 0 0 82.32 48.65
  L 96.24 17.35
  A 0.24 0.23 -33.4 0 1 96.69 17.44
  Z
  M 141.69 48.47
  L 141.69 39.14
  A 0.57 0.57 0.0 0 0 140.56 39.00
  C 139.70 42.44 137.76 46.86 134.21 47.72
  Q 132.60 48.11 124.79 47.91
  Q 121.70 47.84 121.64 44.97
  Q 121.32 27.40 121.74 16.75
  A 2.60 2.60 0.0 0 1 124.34 14.24
  L 127.82 14.24
  A 0.34 0.34 0.0 0 0 128.16 13.90
  L 128.16 13.62
  A 0.58 0.57 90.0 0 0 127.59 13.04
  L 111.07 13.04
  A 0.31 0.31 0.0 0 0 110.76 13.35
  L 110.76 13.77
  A 0.46 0.45 -2.3 0 0 111.26 14.22
  C 114.50 13.94 116.40 14.63 116.46 18.24
  Q 116.61 28.01 116.51 42.75
  C 116.48 47.05 115.41 48.20 111.18 48.00
  A 0.37 0.36 -88.5 0 0 110.80 48.37
  L 110.80 48.71
  A 0.39 0.38 -0.0 0 0 111.19 49.09
  L 141.07 49.09
  A 0.62 0.62 0.0 0 0 141.69 48.47
  Z
  M 225.84 48.48
  L 225.84 39.14
  A 0.57 0.57 0.0 0 0 224.71 39.00
  C 223.85 42.44 221.90 46.87 218.35 47.73
  Q 216.74 48.12 208.93 47.91
  Q 205.84 47.84 205.78 44.97
  Q 205.46 27.39 205.88 16.74
  A 2.60 2.60 0.0 0 1 208.49 14.23
  L 211.97 14.23
  A 0.34 0.34 0.0 0 0 212.31 13.89
  L 212.31 13.61
  A 0.58 0.57 -90.0 0 0 211.74 13.03
  L 195.21 13.02
  A 0.31 0.31 0.0 0 0 194.90 13.33
  L 194.90 13.75
  A 0.46 0.45 -2.3 0 0 195.40 14.20
  C 198.64 13.93 200.54 14.62 200.60 18.23
  Q 200.75 28.00 200.64 42.75
  C 200.61 47.05 199.54 48.20 195.31 48.00
  A 0.37 0.36 -88.5 0 0 194.93 48.37
  L 194.93 48.71
  A 0.39 0.38 0.0 0 0 195.32 49.09
  L 225.22 49.10
  A 0.62 0.62 0.0 0 0 225.84 48.48
  Z
  M 233.72 31.08
  Q 233.72 41.66 233.63 44.00
  C 233.49 47.88 231.73 48.08 228.36 47.98
  A 0.38 0.37 0.8 0 0 227.97 48.35
  L 227.97 48.63
  A 0.44 0.44 0.0 0 0 228.40 49.07
  Q 232.37 49.16 236.28 49.11
  Q 240.18 49.16 244.15 49.07
  A 0.44 0.44 0.0 0 0 244.58 48.63
  L 244.58 48.35
  A 0.38 0.37 -0.7 0 0 244.19 47.98
  C 240.82 48.08 239.06 47.88 238.92 44.00
  Q 238.83 41.66 238.83 31.08
  Q 238.83 20.50 238.92 18.17
  C 239.07 14.28 240.83 14.08 244.20 14.18
  A 0.38 0.37 0.8 0 0 244.59 13.81
  L 244.59 13.53
  A 0.44 0.44 0.0 0 0 244.15 13.09
  Q 240.19 13.01 236.28 13.05
  Q 232.37 13.01 228.41 13.09
  A 0.44 0.44 0.0 0 0 227.97 13.53
  L 227.97 13.81
  A 0.38 0.37 -0.7 0 0 228.36 14.18
  C 231.73 14.08 233.49 14.28 233.64 18.17
  Q 233.72 20.50 233.72 31.08
  Z
  M 296.35 16.68
  A 0.23 0.23 0.0 0 1 296.77 16.54
  L 322.05 49.79
  A 0.65 0.64 26.7 0 0 323.21 49.41
  Q 323.30 28.82 323.21 19.22
  Q 323.17 15.68 326.44 14.67
  Q 328.24 14.12 328.77 14.16
  A 0.33 0.32 -87.6 0 0 329.12 13.83
  L 329.12 13.52
  A 0.48 0.48 0.0 0 0 328.64 13.04
  L 316.29 13.04
  A 0.33 0.32 5.3 0 0 315.97 13.30
  L 315.87 13.72
  A 0.31 0.30 -81.6 0 0 316.14 14.09
  C 321.82 14.71 322.03 15.90 322.03 21.54
  Q 322.04 37.72 322.01 40.65
  A 0.26 0.26 0.0 0 1 321.55 40.80
  L 300.97 13.75
  A 1.80 1.79 71.3 0 0 299.54 13.04
  L 290.09 13.04
  A 0.34 0.33 -0.0 0 0 289.75 13.37
  L 289.75 13.79
  A 0.44 0.44 0.0 0 0 290.19 14.23
  L 292.34 14.23
  A 2.40 2.40 0.0 0 1 294.69 16.15
  Q 295.24 18.87 295.16 23.00
  Q 295.11 25.56 295.17 43.55
  C 295.18 47.01 292.54 47.72 289.73 48.01
  A 0.49 0.49 0.0 0 0 289.30 48.50
  L 289.30 48.75
  A 0.34 0.33 -90.0 0 0 289.63 49.09
  L 302.44 49.09
  A 0.33 0.33 0.0 0 0 302.77 48.76
  L 302.77 48.50
  A 0.49 0.49 0.0 0 0 302.31 48.01
  C 299.07 47.83 296.37 47.23 296.37 43.29
  Q 296.37 21.04 296.35 16.68
  Z
  M 368.08 17.50
  Q 368.24 34.30 367.95 44.74
  Q 367.89 46.85 366.13 47.75
  A 0.88 0.86 -59.8 0 1 365.77 47.85
  L 362.43 48.04
  A 0.33 0.33 0.0 0 0 362.12 48.37
  L 362.12 48.62
  A 0.47 0.47 0.0 0 0 362.59 49.09
  L 379.05 49.09
  A 0.33 0.33 0.0 0 0 379.38 48.76
  L 379.38 48.45
  A 0.42 0.41 -86.0 0 0 379.03 48.04
  C 376.21 47.68 373.28 48.61 373.19 44.48
  Q 372.92 31.12 373.25 17.01
  A 2.77 2.76 -8.4 0 1 375.15 14.46
  Q 376.35 14.07 378.95 14.29
  A 0.44 0.44 0.0 0 0 379.43 13.85
  L 379.43 13.52
  A 0.44 0.44 0.0 0 0 378.99 13.08
  L 369.13 13.08
  A 1.16 1.15 -77.6 0 0 368.08 13.76
  L 355.26 42.56
  A 0.24 0.23 44.7 0 1 354.83 42.56
  L 341.85 13.56
  A 0.83 0.82 77.7 0 0 341.10 13.07
  L 330.97 13.07
  A 0.31 0.31 0.0 0 0 330.66 13.35
  L 330.62 13.66
  A 0.55 0.55 0.0 0 0 331.16 14.28
  L 333.91 14.28
  A 2.56 2.55 -0.9 0 1 336.47 16.75
  Q 336.81 26.65 336.55 40.89
  C 336.48 45.14 335.33 47.49 331.13 48.02
  A 0.50 0.50 0.0 0 0 330.69 48.52
  L 330.69 48.80
  A 0.29 0.29 0.0 0 0 330.98 49.09
  L 343.25 49.09
  A 0.31 0.30 90.0 0 0 343.55 48.78
  L 343.55 48.50
  A 0.52 0.52 0.0 0 0 343.07 47.98
  C 338.14 47.64 337.69 43.69 337.69 39.75
  Q 337.70 23.44 337.65 17.63
  A 0.28 0.28 0.0 0 1 338.18 17.51
  L 352.12 48.65
  A 0.88 0.88 0.0 0 0 353.73 48.64
  L 367.63 17.41
  A 0.24 0.23 -33.4 0 1 368.08 17.50
  Z
  M 412.36 48.44
  L 413.20 38.38
  A 0.40 0.40 0.0 0 0 412.83 37.95
  L 412.53 37.92
  A 0.62 0.61 -81.2 0 0 411.89 38.40
  C 411.09 42.12 408.58 46.93 404.69 47.67
  Q 401.69 48.24 395.81 47.86
  Q 393.23 47.69 393.13 44.58
  Q 392.94 38.71 392.99 30.98
  A 0.35 0.34 0.8 0 1 393.35 30.64
  C 397.09 30.75 403.13 29.16 402.30 35.82
  A 0.44 0.44 0.0 0 0 402.70 36.32
  L 403.09 36.35
  A 0.36 0.36 0.0 0 0 403.48 35.99
  L 403.48 24.46
  A 0.39 0.39 0.0 0 0 403.05 24.07
  L 402.77 24.09
  A 0.50 0.50 0.0 0 0 402.32 24.65
  Q 402.84 29.29 398.81 29.48
  C 396.94 29.56 394.63 29.77 393.46 29.59
  A 0.55 0.55 0.0 0 1 392.99 29.05
  L 392.99 14.94
  A 0.71 0.71 0.0 0 1 393.68 14.23
  Q 401.45 14.02 403.44 14.56
  C 406.85 15.49 407.83 18.40 408.73 21.72
  A 0.49 0.48 -10.6 0 0 409.25 22.07
  L 409.53 22.05
  A 0.29 0.29 0.0 0 0 409.79 21.74
  L 409.03 13.62
  A 0.65 0.64 87.0 0 0 408.39 13.04
  L 383.44 13.04
  A 0.41 0.41 0.0 0 0 383.03 13.49
  L 383.05 13.79
  A 0.47 0.46 84.3 0 0 383.55 14.21
  C 386.36 13.96 387.74 15.05 387.80 18.07
  Q 388.10 33.96 387.71 45.27
  A 2.64 2.64 0.0 0 1 385.31 47.82
  L 382.65 48.07
  A 0.32 0.32 0.0 0 0 382.36 48.42
  L 382.39 48.73
  A 0.40 0.40 0.0 0 0 382.79 49.10
  L 411.65 49.10
  A 0.71 0.71 0.0 0 0 412.36 48.44
  Z
  M 422.98 16.70
  A 0.23 0.23 0.0 0 1 423.40 16.56
  L 448.66 49.81
  A 0.65 0.64 26.7 0 0 449.82 49.43
  Q 449.92 28.84 449.83 19.25
  Q 449.79 15.71 453.06 14.70
  Q 454.86 14.15 455.39 14.19
  A 0.33 0.32 -87.6 0 0 455.74 13.86
  L 455.74 13.55
  A 0.48 0.48 0.0 0 0 455.26 13.07
  L 442.92 13.07
  A 0.33 0.32 5.4 0 0 442.60 13.33
  L 442.50 13.75
  A 0.31 0.30 -81.6 0 0 442.77 14.12
  C 448.44 14.74 448.65 15.93 448.65 21.57
  Q 448.66 37.74 448.63 40.67
  A 0.26 0.26 0.0 0 1 448.17 40.82
  L 427.60 13.77
  A 1.80 1.79 71.3 0 0 426.17 13.06
  L 416.73 13.06
  A 0.34 0.33 0.0 0 0 416.39 13.39
  L 416.39 13.81
  A 0.44 0.44 0.0 0 0 416.83 14.25
  L 418.98 14.25
  A 2.40 2.40 0.0 0 1 421.32 16.17
  Q 421.87 18.89 421.79 23.02
  Q 421.74 25.58 421.80 43.56
  C 421.80 47.02 419.16 47.73 416.36 48.02
  A 0.49 0.49 0.0 0 0 415.93 48.51
  L 415.93 48.76
  A 0.34 0.33 -90.0 0 0 416.26 49.10
  L 429.06 49.10
  A 0.33 0.33 0.0 0 0 429.39 48.77
  L 429.39 48.51
  A 0.49 0.49 0.0 0 0 428.93 48.02
  C 425.69 47.84 422.99 47.24 422.99 43.30
  Q 423.00 21.06 422.98 16.70
  Z
  M 475.35 49.10
  C 479.70 49.10 484.37 49.23 484.44 48.87
  Q 484.51 48.48 484.25 48.18
  A 0.40 0.40 0.0 0 0 483.97 48.04
  C 481.37 47.93 478.22 48.44 478.04 44.96
  Q 477.80 40.43 477.94 14.92
  A 0.69 0.69 0.0 0 1 478.61 14.24
  Q 485.86 14.06 487.64 14.47
  C 490.64 15.16 491.46 18.48 492.06 21.28
  A 0.55 0.54 38.5 0 0 493.14 21.16
  L 493.00 13.75
  A 0.67 0.67 0.0 0 0 492.35 13.10
  Q 491.64 13.07 475.38 13.06
  Q 459.11 13.04 458.41 13.07
  A 0.67 0.67 0.0 0 0 457.76 13.73
  L 457.61 21.14
  A 0.55 0.54 -38.4 0 0 458.69 21.26
  C 459.29 18.46 460.11 15.14 463.12 14.45
  Q 464.90 14.05 472.15 14.24
  A 0.69 0.69 0.0 0 1 472.81 14.92
  Q 472.92 40.43 472.67 44.96
  C 472.49 48.44 469.34 47.92 466.74 48.03
  A 0.40 0.40 0.0 0 0 466.46 48.17
  Q 466.20 48.47 466.27 48.85
  C 466.34 49.22 471.00 49.10 475.35 49.10
  Z
  M 17.04 45.73
  Q 22.35 45.72 29.22 45.30
  A 0.88 0.86 -79.1 0 0 29.96 44.79
  L 31.03 42.39
  A 0.37 0.36 -81.6 0 0 30.66 41.88
  Q 25.46 42.47 17.04 42.48
  Q 8.62 42.49 3.42 41.92
  A 0.37 0.36 81.4 0 0 3.05 42.43
  L 4.13 44.82
  A 0.88 0.86 79.0 0 0 4.87 45.33
  Q 11.74 45.74 17.04 45.73
  Z
  M 26.08 48.88
  L 7.92 48.92
  A 0.25 0.25 0.0 0 0 7.67 49.17
  L 7.67 49.33
  A 2.73 2.17 89.9 0 0 9.84 52.05
  L 24.16 52.03
  A 2.73 2.17 89.9 0 0 26.33 49.29
  L 26.33 49.13
  A 0.25 0.25 0.0 0 0 26.08 48.88
  Z
  M 14.94 93.74
  Q 15.34 93.72 15.56 93.58
  Q 15.79 93.43 15.78 93.04
  Q 15.39 56.03 15.34 55.38
  A 0.63 0.62 88.8 0 0 14.74 54.80
  Q 14.07 54.78 13.48 54.80
  Q 12.91 54.82 12.24 54.89
  A 0.63 0.62 86.9 0 0 11.68 55.52
  Q 11.68 56.17 14.06 93.11
  Q 14.08 93.49 14.33 93.63
  Q 14.55 93.75 14.94 93.74
  Z
  M 19.06 93.67
  Q 19.46 93.69 19.69 93.56
  Q 19.93 93.43 19.95 93.05
  Q 22.33 56.24 22.33 55.59
  A 0.62 0.62 0.0 0 0 21.78 54.97
  Q 21.11 54.90 20.53 54.88
  Q 19.95 54.86 19.28 54.88
  A 0.62 0.62 0.0 0 0 18.68 55.45
  Q 18.64 56.10 18.24 92.99
  Q 18.23 93.37 18.46 93.52
  Q 18.68 93.66 19.06 93.67
  Z
  M 212.3241 71.6697
  A 12.33 12.33 0.0 0 0 200.0372 59.2967
  L 196.2372 59.2835
  A 12.33 12.33 0.0 0 0 183.8643 71.5703
  L 183.8559 73.9703
  A 12.33 12.33 0.0 0 0 196.1428 86.3433
  L 199.9428 86.3565
  A 12.33 12.33 0.0 0 0 212.3157 74.0697
  L 212.3241 71.6697
  Z
  M 243.74 85.91
  A 0.34 0.33 -45.3 0 0 243.74 85.25
  Q 239.70 84.69 237.11 81.20
  Q 233.70 76.62 230.46 73.40
  A 0.58 0.58 0.0 0 1 230.79 72.42
  Q 236.84 71.55 237.27 66.44
  C 238.09 56.83 221.01 59.62 216.16 59.61
  A 0.21 0.21 0.0 0 0 215.95 59.82
  L 215.95 60.12
  A 0.35 0.35 0.0 0 0 216.38 60.46
  Q 218.45 60.02 219.50 61.19
  A 1.52 1.45 24.4 0 1 219.89 62.16
  Q 220.13 72.90 220.00 81.94
  Q 219.96 84.33 219.27 84.71
  Q 218.35 85.21 216.06 85.10
  A 0.14 0.14 0.0 0 0 215.92 85.24
  L 215.92 85.65
  A 0.35 0.34 -0.0 0 0 216.27 85.99
  L 228.09 85.99
  A 0.28 0.28 0.0 0 0 228.37 85.71
  L 228.37 85.43
  A 0.13 0.13 0.0 0 0 228.25 85.30
  L 225.34 85.01
  A 1.84 1.84 0.0 0 1 223.69 83.18
  L 223.69 73.84
  A 0.67 0.67 0.0 0 1 224.31 73.17
  Q 226.43 72.99 227.55 74.47
  Q 232.15 80.53 234.89 84.15
  C 236.89 86.78 241.06 86.33 243.74 85.91
  Z
  M 278.80 77.74
  L 278.80 85.25
  A 0.50 0.50 0.0 0 0 279.77 85.42
  Q 280.03 84.66 280.07 83.67
  A 0.36 0.36 0.0 0 1 280.68 83.42
  Q 285.31 87.67 290.82 86.15
  C 295.45 84.88 297.17 80.77 295.88 76.29
  C 294.48 71.42 288.38 71.45 283.78 67.90
  C 281.22 65.93 280.20 62.50 283.29 60.73
  C 287.63 58.25 292.08 61.66 293.20 66.12
  A 0.43 0.43 0.0 0 0 294.05 66.02
  L 294.05 59.93
  A 0.26 0.26 0.0 0 0 293.79 59.67
  L 293.43 59.67
  A 0.21 0.20 -82.8 0 0 293.23 59.83
  L 292.87 61.34
  A 0.56 0.55 20.5 0 1 292.07 61.70
  C 291.40 61.38 290.45 60.27 289.35 59.80
  C 279.88 55.77 274.35 68.42 284.22 72.79
  C 285.87 73.52 292.24 75.88 293.28 78.48
  C 294.80 82.25 291.87 85.56 288.26 85.77
  C 283.43 86.04 280.51 82.39 279.83 77.80
  A 0.45 0.43 85.3 0 0 279.40 77.42
  L 279.11 77.42
  A 0.32 0.31 90.0 0 0 278.80 77.74
  Z
  M 324.56 69.46
  L 324.34 59.86
  A 0.34 0.34 0.0 0 0 323.66 59.80
  L 323.10 62.37
  A 0.51 0.51 0.0 0 1 322.27 62.65
  C 313.92 55.33 302.18 59.79 300.75 70.73
  Q 299.68 78.87 304.41 83.19
  C 309.17 87.54 317.30 87.83 322.06 83.10
  A 0.64 0.64 0.0 0 1 323.03 83.17
  Q 323.44 83.72 323.78 85.14
  A 0.30 0.29 82.1 0 0 324.06 85.36
  L 324.40 85.36
  A 0.17 0.17 0.0 0 0 324.57 85.19
  L 324.57 76.39
  A 0.28 0.28 0.0 0 0 324.02 76.31
  Q 323.42 78.18 323.25 78.78
  C 321.18 86.48 311.17 88.05 306.80 81.40
  C 303.67 76.65 304.16 67.83 307.43 63.25
  C 310.56 58.87 317.07 59.19 320.74 62.53
  Q 323.11 64.68 323.84 69.38
  A 0.30 0.29 -4.6 0 0 324.13 69.62
  L 324.40 69.62
  A 0.16 0.15 -1.7 0 0 324.56 69.46
  Z
  M 361.7322 72.5838
  A 14.68 13.88 -179.0 0 0 376.1678 86.7179
  A 14.68 13.88 -179.0 0 0 391.0878 73.0962
  A 14.68 13.88 -179.0 0 0 376.6522 58.9621
  A 14.68 13.88 -179.0 0 0 361.7322 72.5838
  Z
  M 446.40 60.27
  Q 446.86 60.41 447.91 60.37
  A 2.32 2.31 -1.0 0 1 450.31 62.68
  L 450.31 83.16
  A 1.68 1.67 -9.2 0 1 449.16 84.75
  C 445.99 85.79 442.84 85.87 441.33 82.19
  Q 437.70 73.30 431.73 59.34
  A 0.38 0.38 0.0 0 0 431.03 59.34
  Q 426.20 70.56 421.42 82.14
  Q 420.41 84.57 418.08 85.33
  A 0.34 0.34 0.0 0 0 418.18 85.99
  L 425.16 85.99
  A 0.17 0.17 0.0 0 0 425.33 85.82
  L 425.33 85.47
  A 0.30 0.29 -89.0 0 0 425.05 85.17
  Q 422.99 85.05 422.35 83.42
  A 1.40 1.36 45.8 0 1 422.35 82.43
  L 424.54 76.66
  A 0.73 0.73 0.0 0 1 425.22 76.19
  L 434.52 76.19
  A 0.61 0.60 77.9 0 1 435.07 76.55
  L 438.10 83.32
  A 0.97 0.95 -43.0 0 1 438.06 84.17
  Q 437.38 85.42 435.13 85.05
  A 0.12 0.11 14.6 0 0 435.00 85.12
  L 434.79 85.58
  A 0.30 0.30 0.0 0 0 435.06 86.00
  L 458.37 86.00
  A 0.27 0.26 -90.0 0 0 458.63 85.73
  L 458.63 85.48
  A 0.34 0.34 0.0 0 0 458.25 85.14
  Q 456.09 85.39 454.80 84.67
  A 1.64 1.64 0.0 0 1 453.96 83.24
  L 453.96 73.81
  A 0.64 0.63 -1.9 0 1 454.56 73.18
  Q 456.93 73.06 458.59 75.38
  Q 463.44 82.16 465.81 84.88
  C 467.33 86.63 471.92 86.09 473.82 85.92
  A 0.33 0.33 0.0 0 0 473.83 85.27
  Q 469.99 84.82 467.45 81.41
  Q 463.71 76.38 460.50 73.19
  A 0.40 0.40 0.0 0 1 460.72 72.52
  Q 467.57 71.42 467.44 65.47
  C 467.25 57.15 451.42 59.50 446.47 59.64
  A 0.32 0.32 0.0 0 0 446.40 60.27
  Z
  M 476.79 77.74
  L 476.79 85.25
  A 0.50 0.50 0.0 0 0 477.76 85.42
  Q 478.02 84.66 478.06 83.67
  A 0.36 0.36 0.0 0 1 478.67 83.42
  Q 483.30 87.67 488.81 86.15
  C 493.43 84.88 495.16 80.77 493.87 76.29
  C 492.47 71.42 486.37 71.45 481.77 67.90
  C 479.21 65.93 478.19 62.50 481.28 60.73
  C 485.62 58.26 490.07 61.67 491.19 66.13
  A 0.43 0.43 0.0 0 0 492.04 66.03
  L 492.04 59.94
  A 0.26 0.26 0.0 0 0 491.78 59.68
  L 491.42 59.68
  A 0.21 0.20 -82.7 0 0 491.22 59.84
  L 490.86 61.35
  A 0.56 0.55 20.5 0 1 490.06 61.71
  C 489.39 61.39 488.44 60.28 487.34 59.81
  C 477.88 55.77 472.34 68.42 482.21 72.79
  C 483.86 73.52 490.23 75.88 491.27 78.48
  C 492.79 82.25 489.86 85.56 486.25 85.77
  C 481.42 86.04 478.50 82.39 477.82 77.80
  A 0.45 0.43 85.4 0 0 477.39 77.42
  L 477.10 77.42
  A 0.32 0.31 -90.0 0 0 476.79 77.74
  Z
  M 109.60 86.02
  Q 115.59 86.02 115.91 85.93
  A 0.33 0.32 -80.6 0 0 116.11 85.79
  Q 116.26 85.56 116.11 85.26
  A 0.32 0.30 75.0 0 0 115.84 85.09
  L 113.33 85.09
  A 1.93 1.92 -0.0 0 1 111.40 83.17
  L 111.40 60.92
  A 0.52 0.51 -1.2 0 1 111.90 60.41
  Q 115.59 60.26 118.46 60.50
  Q 120.90 60.71 121.92 65.64
  A 0.27 0.26 -5.2 0 0 122.18 65.85
  L 122.47 65.85
  A 0.23 0.23 0.0 0 0 122.70 65.61
  L 122.48 60.37
  A 0.69 0.69 0.0 0 0 121.81 59.71
  Q 120.71 59.68 109.61 59.67
  Q 98.51 59.67 97.41 59.70
  A 0.69 0.69 0.0 0 0 96.75 60.36
  L 96.52 65.60
  A 0.23 0.23 0.0 0 0 96.75 65.84
  L 97.04 65.84
  A 0.27 0.26 5.3 0 0 97.30 65.63
  Q 98.33 60.70 100.77 60.49
  Q 103.64 60.25 107.33 60.41
  A 0.52 0.51 1.2 0 1 107.83 60.92
  L 107.80 83.17
  A 1.93 1.92 0.1 0 1 105.87 85.09
  L 103.36 85.08
  A 0.32 0.30 -75.0 0 0 103.09 85.25
  Q 102.94 85.55 103.09 85.78
  A 0.33 0.32 80.7 0 0 103.28 85.92
  Q 103.61 86.02 109.60 86.02
  Z
  M 139.91 72.73
  Q 145.44 72.73 146.44 72.83
  A 0.61 0.61 0.0 0 1 146.99 73.44
  Q 147.02 80.22 146.94 82.76
  Q 146.85 85.58 143.22 85.12
  A 0.33 0.32 3.9 0 0 142.85 85.44
  L 142.85 85.76
  A 0.26 0.26 0.0 0 0 143.11 86.02
  L 154.34 86.02
  A 0.33 0.33 0.0 0 0 154.67 85.69
  L 154.67 85.40
  A 0.15 0.14 -88.0 0 0 154.54 85.25
  L 152.44 85.08
  A 1.87 1.87 0.0 0 1 150.73 83.26
  Q 150.49 73.73 150.72 62.95
  C 150.77 60.53 152.19 60.33 154.48 60.38
  A 0.24 0.24 0.0 0 0 154.72 60.14
  L 154.72 59.87
  A 0.22 0.22 0.0 0 0 154.50 59.65
  L 143.08 59.65
  A 0.30 0.30 0.0 0 0 142.99 60.23
  C 144.74 60.76 146.82 59.84 146.91 62.79
  Q 147.05 67.04 147.00 71.14
  A 0.45 0.45 0.0 0 1 146.55 71.59
  Q 142.60 71.59 139.91 71.59
  Q 137.22 71.59 133.26 71.58
  A 0.45 0.45 0.0 0 1 132.81 71.14
  Q 132.76 67.04 132.91 62.79
  C 133.00 59.84 135.08 60.76 136.83 60.23
  A 0.30 0.30 0.0 0 0 136.74 59.65
  L 125.32 59.64
  A 0.22 0.22 0.0 0 0 125.10 59.86
  L 125.10 60.13
  A 0.24 0.24 0.0 0 0 125.34 60.37
  C 127.63 60.32 129.05 60.52 129.10 62.94
  Q 129.32 73.72 129.07 83.25
  A 1.87 1.87 0.0 0 1 127.36 85.07
  L 125.26 85.24
  A 0.15 0.14 88.0 0 0 125.13 85.39
  L 125.13 85.68
  A 0.33 0.33 0.0 0 0 125.46 86.01
  L 136.69 86.02
  A 0.26 0.26 0.0 0 0 136.95 85.76
  L 136.95 85.44
  A 0.33 0.32 -3.8 0 0 136.58 85.12
  Q 132.95 85.58 132.87 82.76
  Q 132.79 80.22 132.82 73.44
  A 0.61 0.61 0.0 0 1 133.37 72.83
  Q 134.37 72.72 139.91 72.73
  Z
  M 177.50 65.66
  L 176.99 60.21
  A 0.61 0.61 0.0 0 0 176.38 59.65
  L 158.14 59.65
  A 0.14 0.14 0.0 0 0 158.00 59.79
  L 158.00 60.07
  A 0.33 0.33 0.0 0 0 158.35 60.40
  Q 161.36 60.18 161.41 63.04
  Q 161.64 75.78 161.38 83.27
  A 1.83 1.82 88.4 0 1 159.73 85.02
  L 157.49 85.23
  A 0.12 0.12 0.0 0 0 157.38 85.35
  L 157.38 85.65
  A 0.37 0.36 0.0 0 0 157.75 86.01
  L 178.71 86.01
  A 0.70 0.69 2.2 0 0 179.41 85.37
  L 179.99 78.38
  A 0.40 0.40 0.0 0 0 179.22 78.22
  C 177.96 82.03 176.69 85.00 172.03 85.12
  Q 167.79 85.23 166.71 84.96
  A 1.97 1.96 6.7 0 1 165.22 83.08
  L 165.05 73.15
  A 0.64 0.64 0.0 0 1 165.64 72.50
  C 168.79 72.27 172.68 71.62 171.99 76.41
  A 0.26 0.26 0.0 0 0 172.25 76.70
  L 172.56 76.70
  A 0.42 0.42 0.0 0 0 172.98 76.28
  L 172.98 68.05
  A 0.28 0.28 0.0 0 0 172.70 67.77
  L 172.43 67.77
  A 0.34 0.34 0.0 0 0 172.09 68.14
  Q 172.36 71.69 169.30 71.73
  C 168.02 71.75 166.01 71.88 165.53 71.79
  A 0.52 0.52 0.0 0 1 165.11 71.28
  L 165.10 61.03
  A 0.63 0.63 0.0 0 1 165.73 60.40
  L 172.09 60.40
  A 3.70 3.68 77.8 0 1 175.45 62.58
  L 176.90 65.82
  A 0.32 0.31 -59.7 0 0 177.50 65.66
  Z
  M 257.96 60.29
  C 260.06 60.63 261.68 61.81 260.42 64.01
  Q 258.24 67.83 254.55 73.92
  A 0.58 0.58 0.0 0 1 253.55 73.91
  L 246.95 62.48
  A 1.27 1.27 0.0 0 1 247.61 60.66
  Q 248.24 60.43 249.52 60.35
  A 0.24 0.23 -2.7 0 0 249.74 60.12
  L 249.74 59.82
  A 0.18 0.17 0.0 0 0 249.56 59.65
  L 239.47 59.65
  A 0.33 0.33 0.0 0 0 239.41 60.30
  C 241.71 60.76 242.29 62.17 243.43 64.00
  Q 249.91 74.44 249.94 74.49
  A 4.35 4.31 -67.4 0 1 250.50 75.87
  Q 251.18 79.12 250.56 83.59
  A 1.36 1.32 -12.9 0 1 249.94 84.55
  Q 248.89 85.21 247.28 85.24
  A 0.30 0.30 0.0 0 0 246.98 85.54
  L 246.98 85.86
  A 0.17 0.17 0.0 0 0 247.15 86.03
  L 257.71 86.03
  A 0.39 0.38 -38.6 0 0 257.80 85.27
  L 255.82 84.84
  A 1.75 1.75 0.0 0 1 254.44 83.12
  L 254.45 76.22
  A 1.93 1.91 63.6 0 1 254.83 75.07
  Q 255.23 74.46 261.51 64.02
  Q 263.24 61.13 266.17 60.23
  A 0.29 0.29 0.0 0 0 266.09 59.67
  L 257.88 59.66
  A 0.23 0.23 0.0 0 0 257.65 59.87
  L 257.64 59.89
  A 0.38 0.38 0.0 0 0 257.96 60.29
  Z
  M 343.61 72.73
  Q 349.15 72.72 350.14 72.83
  A 0.61 0.61 0.0 0 1 350.70 73.44
  Q 350.73 80.21 350.65 82.75
  Q 350.57 85.57 346.94 85.11
  A 0.33 0.32 3.8 0 0 346.57 85.43
  L 346.57 85.75
  A 0.26 0.26 0.0 0 0 346.83 86.01
  L 358.05 86.00
  A 0.33 0.33 0.0 0 0 358.38 85.67
  L 358.38 85.38
  A 0.15 0.14 -88.0 0 0 358.25 85.23
  L 356.15 85.06
  A 1.87 1.87 0.0 0 1 354.44 83.25
  Q 354.19 73.72 354.41 62.95
  C 354.46 60.53 355.88 60.33 358.17 60.38
  A 0.24 0.24 0.0 0 0 358.41 60.14
  L 358.41 59.87
  A 0.22 0.22 0.0 0 0 358.19 59.65
  L 346.77 59.66
  A 0.30 0.30 0.0 0 0 346.69 60.24
  C 348.43 60.76 350.51 59.84 350.61 62.79
  Q 350.75 67.04 350.70 71.14
  A 0.45 0.45 0.0 0 1 350.25 71.59
  Q 346.30 71.59 343.61 71.59
  Q 340.93 71.59 336.97 71.59
  A 0.45 0.45 0.0 0 1 336.52 71.15
  Q 336.47 67.05 336.61 62.80
  C 336.70 59.85 338.78 60.77 340.53 60.24
  A 0.30 0.30 0.0 0 0 340.44 59.66
  L 329.02 59.66
  A 0.22 0.22 0.0 0 0 328.80 59.88
  L 328.80 60.15
  A 0.24 0.24 0.0 0 0 329.04 60.39
  C 331.33 60.34 332.75 60.54 332.80 62.96
  Q 333.04 73.73 332.80 83.26
  A 1.87 1.87 0.0 0 1 331.09 85.08
  L 328.99 85.25
  A 0.15 0.14 87.9 0 0 328.86 85.40
  L 328.86 85.69
  A 0.33 0.33 0.0 0 0 329.19 86.02
  L 340.42 86.02
  A 0.26 0.26 0.0 0 0 340.68 85.76
  L 340.68 85.44
  A 0.33 0.32 -3.9 0 0 340.31 85.12
  Q 336.68 85.58 336.59 82.76
  Q 336.51 80.22 336.53 73.44
  A 0.61 0.61 0.0 0 1 337.08 72.84
  Q 338.08 72.73 343.61 72.73
  Z
  M 394.30 60.24
  A 0.30 0.30 0.0 0 0 394.65 60.47
  Q 398.34 59.76 398.48 62.81
  Q 398.91 71.99 398.50 83.26
  A 1.82 1.82 0.0 0 1 396.90 85.00
  L 394.34 85.31
  A 0.07 0.07 0.0 0 0 394.28 85.38
  L 394.31 85.66
  A 0.39 0.38 -2.4 0 0 394.70 86.01
  L 416.50 86.01
  A 0.55 0.55 0.0 0 0 417.05 85.46
  L 417.05 78.85
  A 0.40 0.40 0.0 0 0 416.26 78.75
  Q 415.52 81.75 413.84 83.65
  A 4.36 4.35 -69.1 0 1 410.59 85.11
  L 403.93 85.11
  A 1.63 1.63 0.0 0 1 402.30 83.55
  Q 402.01 76.59 402.28 62.56
  C 402.34 59.76 405.15 60.56 406.74 60.36
  A 0.33 0.33 0.0 0 0 407.04 60.01
  L 407.04 59.97
  A 0.37 0.37 0.0 0 0 406.67 59.65
  L 394.74 59.65
  A 0.46 0.45 -4.8 0 0 394.29 60.18
  L 394.30 60.24
  Z
  M 84.58 83.42
  C 81.53 87.04 77.57 83.78 76.15 80.72
  A 1.24 1.22 47.6 0 1 76.19 79.63
  C 77.95 76.42 78.56 72.65 82.76 70.88
  A 0.42 0.42 0.0 0 0 82.60 70.07
  L 74.83 70.07
  A 0.07 0.04 -58.3 0 0 74.79 70.09
  Q 74.65 70.17 74.60 70.41
  A 0.34 0.34 0.0 0 0 74.84 70.80
  C 79.58 72.21 77.41 75.96 75.78 78.68
  A 0.62 0.61 -48.2 0 1 74.76 78.74
  L 68.84 70.96
  A 0.65 0.65 0.0 0 1 69.07 69.98
  C 72.15 68.44 77.11 64.19 72.06 61.17
  C 65.41 57.19 60.57 64.98 65.13 70.38
  A 0.81 0.81 0.0 0 1 64.89 71.62
  C 59.63 74.41 55.89 81.13 62.20 85.41
  C 66.05 88.02 69.98 86.41 73.48 83.34
  A 0.56 0.55 49.6 0 1 74.28 83.41
  Q 77.07 86.79 80.91 86.66
  Q 83.48 86.56 85.40 83.85
  A 0.19 0.17 45.5 0 0 85.39 83.64
  L 85.24 83.44
  A 0.43 0.42 46.6 0 0 84.58 83.42
  Z"
/>
<path fill="#7f0f1e" d="
  M 0.00 28.09
  L 0.00 27.60
  L 1.33 25.70
  A 1.61 1.57 63.3 0 0 1.62 24.78
  L 1.62 20.98
  A 1.18 1.16 -71.1 0 0 1.18 20.06
  L 0.92 19.86
  A 1.10 1.09 -72.0 0 1 0.49 19.01
  Q 0.46 17.16 1.88 16.85
  A 2.03 1.92 -23.6 0 0 3.17 13.81
  Q 2.91 13.46 3.09 12.59
  A 1.28 1.24 76.7 0 1 3.52 11.87
  Q 4.46 11.10 5.52 11.39
  A 1.87 1.76 27.6 0 1 6.52 14.29
  Q 6.23 14.63 5.17 15.24
  A 1.63 1.60 86.3 0 0 4.47 16.05
  Q 2.84 20.04 7.10 22.10
  A 0.62 0.62 0.0 0 0 7.99 21.54
  L 7.99 16.93
  A 0.68 0.66 -66.5 0 0 7.82 16.48
  Q 6.68 15.13 7.83 13.86
  A 1.85 1.83 -75.1 0 1 8.75 13.32
  Q 8.82 13.31 9.23 13.21
  A 1.37 1.35 -80.9 0 0 10.10 12.57
  L 12.13 9.05
  A 0.94 0.94 0.0 0 0 12.15 8.16
  C 11.43 6.82 12.11 5.09 13.80 5.34
  Q 14.44 5.43 14.88 5.16
  Q 16.83 3.92 16.43 2.41
  A 1.84 1.74 -1.0 0 1 18.60 0.29
  Q 19.67 0.51 20.05 1.56
  A 1.70 1.59 70.9 0 1 19.09 3.72
  Q 15.87 4.77 15.21 8.49
  Q 14.70 11.33 16.88 12.55
  A 1.40 1.39 11.5 0 1 17.59 13.61
  Q 18.06 17.79 22.67 17.04
  A 2.01 1.98 -66.0 0 0 23.43 16.74
  C 25.62 15.26 24.66 12.17 22.40 11.28
  A 1.81 1.78 33.0 0 1 21.75 8.34
  Q 22.58 7.51 24.14 8.01
  Q 25.42 8.43 24.78 11.53
  A 0.73 0.72 15.4 0 0 25.25 12.35
  L 27.33 13.07
  A 1.29 1.28 -4.9 0 1 28.04 13.66
  Q 28.70 14.84 27.77 15.95
  A 0.66 0.65 62.7 0 0 27.63 16.41
  L 27.93 19.61
  A 0.94 0.93 -86.2 0 0 28.65 20.44
  Q 30.81 20.92 29.71 23.35
  A 0.52 0.51 -44.3 0 0 29.70 23.75
  L 30.57 25.68
  A 0.11 0.11 0.0 0 0 30.78 25.66
  L 31.59 21.91
  A 1.54 1.51 -51.5 0 0 31.49 20.95
  L 30.73 19.25
  A 1.01 0.98 -45.8 0 1 30.73 18.44
  Q 31.31 17.12 32.45 17.06
  A 1.82 1.72 17.2 0 1 34.05 19.89
  Q 32.67 21.51 32.33 25.16
  C 32.22 26.39 33.61 27.13 33.05 28.57
  A 0.95 0.95 0.0 0 1 32.42 29.15
  L 31.31 29.48
  A 1.45 1.44 10.8 0 0 30.60 29.96
  L 27.38 34.10
  A 2.98 2.93 -19.2 0 0 26.89 35.09
  C 26.67 35.94 26.79 37.01 25.95 37.41
  Q 25.24 37.75 24.28 37.46
  A 1.64 1.60 -43.0 0 0 23.45 37.44
  Q 19.88 38.30 18.00 40.19
  A 1.15 1.14 -48.6 0 1 16.48 40.29
  Q 13.33 37.80 9.87 38.30
  Q 8.37 38.52 8.08 37.84
  C 7.73 37.03 7.53 36.09 7.01 35.34
  Q 4.03 31.03 0.00 28.09
  Z
  M 13.15 9.96
  L 10.82 14.06
  A 0.14 0.14 0.0 0 0 10.87 14.26
  L 10.98 14.32
  A 2.47 2.23 -60.4 0 0 14.14 13.27
  L 14.17 13.22
  A 2.47 2.23 -60.4 0 0 13.45 9.97
  L 13.34 9.91
  A 0.14 0.14 0.0 0 0 13.15 9.96
  Z
  M 15.08 21.13
  L 14.93 16.30
  A 0.86 0.86 0.0 0 0 13.95 15.48
  L 11.12 15.87
  A 0.41 0.40 -23.1 0 0 10.85 16.52
  L 14.57 21.31
  A 0.29 0.28 25.6 0 0 15.08 21.13
  Z
  M 16.35 16.44
  L 16.40 21.35
  A 0.42 0.42 0.0 0 0 17.08 21.68
  L 19.33 19.94
  A 0.64 0.64 0.0 0 0 19.44 19.04
  L 17.19 16.15
  A 0.47 0.47 0.0 0 0 16.35 16.44
  Z
  M 18.85 22.78
  L 25.37 22.17
  A 1.45 1.45 0.0 0 0 26.68 20.60
  L 26.35 17.09
  A 0.55 0.55 0.0 0 0 25.47 16.70
  Q 23.78 17.95 23.42 18.87
  Q 22.67 20.73 21.45 20.78
  Q 20.05 20.82 18.61 22.28
  A 0.30 0.29 19.6 0 0 18.85 22.78
  Z
  M 9.17 21.56
  A 1.36 1.36 0.0 0 0 9.52 22.59
  Q 10.60 23.78 9.52 25.14
  A 0.70 0.69 61.2 0 0 9.38 25.64
  L 9.66 28.71
  A 0.39 0.39 0.0 0 0 10.36 28.92
  L 13.31 25.12
  A 2.57 2.56 45.2 0 0 13.32 21.99
  L 10.04 17.68
  A 0.31 0.31 0.0 0 0 9.48 17.84
  L 9.17 21.56
  Z
  M 2.97 21.17
  L 2.97 26.09
  A 0.43 0.42 71.4 0 0 3.65 26.43
  L 5.92 24.71
  A 0.64 0.64 0.0 0 0 6.04 23.81
  L 3.82 20.89
  A 0.47 0.47 0.0 0 0 2.97 21.17
  Z
  M 26.27 23.39
  L 17.65 24.19
  A 0.28 0.27 -25.5 0 0 17.48 24.66
  L 21.35 28.57
  A 1.69 1.68 37.6 0 0 24.01 28.23
  L 26.55 23.83
  A 0.29 0.29 0.0 0 0 26.27 23.39
  Z
  M 25.23 29.66
  L 29.31 27.84
  A 0.79 0.79 0.0 0 0 29.67 26.72
  L 28.35 24.44
  A 0.38 0.37 44.7 0 0 27.70 24.44
  L 24.90 29.28
  A 0.27 0.26 -86.5 0 0 25.23 29.66
  Z
  M 11.93 31.98
  L 15.05 36.08
  A 2.13 2.12 45.2 0 0 18.42 36.10
  L 20.60 33.30
  A 2.38 2.37 -44.9 0 0 20.61 30.40
  L 16.80 25.38
  A 1.22 1.21 45.1 0 0 14.88 25.37
  L 11.95 29.14
  A 2.33 2.33 0.0 0 0 11.93 31.98
  Z
  M 7.29 25.65
  L 4.37 27.33
  A 0.45 0.45 0.0 0 0 4.42 28.13
  L 7.39 29.46
  A 0.65 0.65 0.0 0 0 8.30 28.80
  L 8.04 26.04
  A 0.50 0.50 0.0 0 0 7.29 25.65
  Z
  M 4.49 30.23
  L 8.50 34.93
  A 0.11 0.11 0.0 0 0 8.65 34.95
  L 8.69 34.92
  A 3.07 1.71 49.5 0 0 7.99 31.47
  L 7.82 31.28
  A 3.07 1.71 49.5 0 0 4.53 30.05
  L 4.50 30.08
  A 0.11 0.11 0.0 0 0 4.49 30.23
  Z
  M 28.59 30.37
  A 0.32 0.31 13.5 0 0 28.28 29.87
  Q 23.50 30.84 24.55 33.63
  A 0.78 0.78 0.0 0 0 25.90 33.83
  L 28.59 30.37
  Z
  M 14.48 37.52
  L 10.96 32.89
  A 0.43 0.42 38.4 0 0 10.23 32.97
  L 9.98 33.54
  A 0.44 0.41 -52.5 0 0 10.02 33.96
  Q 11.18 35.51 11.31 36.21
  A 0.55 0.54 -84.7 0 0 11.62 36.59
  L 14.27 37.78
  A 0.17 0.17 0.0 0 0 14.48 37.52
  Z
  M 19.56 36.88
  A 0.30 0.30 0.0 0 0 19.88 37.33
  Q 24.36 36.11 23.19 33.53
  A 0.75 0.74 -40.2 0 0 21.90 33.42
  L 19.56 36.88
  Z"
/>
<path fill="#ffffff" d="
  M 13.15 9.96
  A 0.14 0.14 0.0 0 1 13.34 9.91
  L 13.45 9.97
  A 2.47 2.23 -60.4 0 1 14.17 13.22
  L 14.14 13.27
  A 2.47 2.23 -60.4 0 1 10.98 14.32
  L 10.87 14.26
  A 0.14 0.14 0.0 0 1 10.82 14.06
  L 13.15 9.96
  Z"
/>
<path fill="#7f0f1e" d="
  M 166.48 49.10
  L 156.58 49.09
  A 0.58 0.58 0.0 0 1 156.48 47.94
  Q 159.79 47.37 161.29 43.79
  Q 169.85 23.33 174.28 12.93
  A 0.71 0.71 0.0 0 1 175.59 12.93
  Q 180.86 25.52 189.50 45.69
  Q 190.15 47.20 193.33 48.09
  A 0.43 0.42 -87.9 0 1 193.63 48.42
  Q 193.71 48.79 193.47 49.01
  Q 193.36 49.10 193.07 49.10
  Q 186.11 49.08 179.78 49.10
  A 0.37 0.37 0.0 0 1 179.41 48.73
  L 179.41 48.44
  A 0.41 0.41 0.0 0 1 179.79 48.03
  C 182.78 47.85 184.85 47.82 183.36 44.17
  Q 181.10 38.61 180.02 36.34
  A 0.95 0.95 0.0 0 0 179.17 35.81
  L 166.54 35.81
  A 0.99 0.98 -78.0 0 0 165.64 36.40
  C 163.98 40.22 160.13 47.59 166.48 47.96
  A 0.56 0.56 0.0 0 1 167.01 48.52
  L 167.01 48.55
  A 0.53 0.53 0.0 0 1 166.48 49.10
  Z
  M 166.52 34.28
  A 0.30 0.30 0.0 0 0 166.80 34.69
  L 179.02 34.67
  A 0.30 0.30 0.0 0 0 179.30 34.26
  L 173.16 19.73
  A 0.30 0.30 0.0 0 0 172.61 19.73
  L 166.52 34.28
  Z"
/>
<path fill="#7f0f1e" d="
  M 286.62 33.91
  A 0.41 0.40 0.0 0 1 287.03 34.31
  L 287.03 34.66
  A 0.43 0.43 0.0 0 1 286.55 35.09
  C 281.39 34.51 281.98 38.14 281.85 42.06
  Q 281.79 43.88 281.83 46.12
  A 0.56 0.56 0.0 0 1 281.31 46.69
  Q 278.43 46.94 273.10 48.75
  Q 265.68 51.28 258.40 47.85
  C 242.85 40.54 247.04 15.19 263.93 12.71
  Q 273.02 11.37 278.64 17.37
  A 0.52 0.52 0.0 0 0 279.48 17.25
  Q 280.06 16.11 280.09 14.38
  A 0.59 0.59 0.0 0 1 280.68 13.79
  L 281.10 13.79
  A 0.33 0.32 0.0 0 1 281.43 14.11
  L 281.43 25.42
  A 0.30 0.29 0.0 0 1 281.13 25.71
  L 280.80 25.71
  A 0.54 0.54 0.0 0 1 280.27 25.27
  Q 278.78 16.67 271.68 14.28
  C 266.26 12.46 260.38 14.42 257.27 19.19
  C 253.77 24.54 254.42 35.09 256.11 40.37
  C 258.50 47.86 267.18 50.87 273.88 46.86
  C 277.14 44.91 277.11 40.49 276.49 36.84
  A 2.15 2.14 -4.7 0 0 274.37 35.05
  L 271.76 35.05
  A 0.51 0.51 0.0 0 1 271.25 34.54
  L 271.25 34.20
  A 0.29 0.29 0.0 0 1 271.54 33.91
  L 286.62 33.91
  Z"
/>
<path fill="#7f0f1e" d="
  M 96.69 17.44
  A 0.24 0.23 -33.4 0 0 96.24 17.35
  L 82.32 48.65
  A 0.89 0.88 -45.3 0 1 80.70 48.66
  L 66.72 17.45
  A 0.28 0.28 0.0 0 0 66.19 17.57
  Q 66.24 23.39 66.24 39.74
  C 66.24 43.69 66.69 47.65 71.63 47.99
  A 0.52 0.52 0.0 0 1 72.11 48.51
  L 72.11 48.79
  A 0.31 0.30 90.0 0 1 71.81 49.10
  L 59.51 49.11
  A 0.29 0.29 0.0 0 1 59.22 48.81
  L 59.22 48.53
  A 0.51 0.50 86.8 0 1 59.66 48.03
  C 63.87 47.50 65.02 45.15 65.09 40.89
  Q 65.35 26.61 65.01 16.69
  A 2.57 2.56 -0.9 0 0 62.44 14.21
  L 59.69 14.21
  A 0.55 0.55 0.0 0 1 59.15 13.59
  L 59.19 13.28
  A 0.31 0.31 0.0 0 1 59.50 13.00
  L 69.65 13.00
  A 0.83 0.82 77.7 0 1 70.40 13.49
  L 83.42 42.56
  A 0.24 0.23 44.7 0 0 83.85 42.56
  L 96.69 13.69
  A 1.17 1.15 -77.6 0 1 97.75 13.01
  L 107.63 13.00
  A 0.44 0.44 0.0 0 1 108.07 13.44
  L 108.07 13.78
  A 0.44 0.44 0.0 0 1 107.59 14.22
  Q 104.98 14.00 103.78 14.39
  A 2.77 2.76 -8.4 0 0 101.88 16.94
  Q 101.55 31.09 101.82 44.48
  C 101.91 48.62 104.85 47.68 107.67 48.04
  A 0.42 0.41 -86.0 0 1 108.03 48.46
  L 108.03 48.77
  A 0.33 0.33 0.0 0 1 107.69 49.10
  L 91.20 49.10
  A 0.47 0.47 0.0 0 1 90.73 48.63
  L 90.73 48.38
  A 0.33 0.33 0.0 0 1 91.04 48.05
  L 94.38 47.86
  A 0.88 0.86 -59.8 0 0 94.74 47.76
  Q 96.51 46.85 96.57 44.74
  Q 96.86 34.27 96.69 17.44
  Z"
/>
<path fill="#7f0f1e" d="
  M 141.07 49.09
  L 111.19 49.09
  A 0.39 0.38 0.0 0 1 110.80 48.71
  L 110.80 48.37
  A 0.37 0.36 -88.5 0 1 111.18 48.00
  C 115.41 48.20 116.48 47.05 116.51 42.75
  Q 116.61 28.01 116.46 18.24
  C 116.40 14.63 114.50 13.94 111.26 14.22
  A 0.46 0.45 -2.3 0 1 110.76 13.77
  L 110.76 13.35
  A 0.31 0.31 0.0 0 1 111.07 13.04
  L 127.59 13.04
  A 0.58 0.57 90.0 0 1 128.16 13.62
  L 128.16 13.90
  A 0.34 0.34 0.0 0 1 127.82 14.24
  L 124.34 14.24
  A 2.60 2.60 0.0 0 0 121.74 16.75
  Q 121.32 27.40 121.64 44.97
  Q 121.70 47.84 124.79 47.91
  Q 132.60 48.11 134.21 47.72
  C 137.76 46.86 139.70 42.44 140.56 39.00
  A 0.57 0.57 0.0 0 1 141.69 39.14
  L 141.69 48.47
  A 0.62 0.62 0.0 0 1 141.07 49.09
  Z"
/>
<path fill="#7f0f1e" d="
  M 225.84 48.48
  A 0.62 0.62 0.0 0 1 225.22 49.10
  L 195.32 49.09
  A 0.39 0.38 0.0 0 1 194.93 48.71
  L 194.93 48.37
  A 0.37 0.36 -88.5 0 1 195.31 48.00
  C 199.54 48.20 200.61 47.05 200.64 42.75
  Q 200.75 28.00 200.60 18.23
  C 200.54 14.62 198.64 13.93 195.40 14.20
  A 0.46 0.45 -2.3 0 1 194.90 13.75
  L 194.90 13.33
  A 0.31 0.31 0.0 0 1 195.21 13.02
  L 211.74 13.03
  A 0.58 0.57 -90.0 0 1 212.31 13.61
  L 212.31 13.89
  A 0.34 0.34 0.0 0 1 211.97 14.23
  L 208.49 14.23
  A 2.60 2.60 0.0 0 0 205.88 16.74
  Q 205.46 27.39 205.78 44.97
  Q 205.84 47.84 208.93 47.91
  Q 216.74 48.12 218.35 47.73
  C 221.90 46.87 223.85 42.44 224.71 39.00
  A 0.57 0.57 0.0 0 1 225.84 39.14
  L 225.84 48.48
  Z"
/>
<path fill="#7f0f1e" d="
  M 236.28 13.05
  Q 240.19 13.01 244.15 13.09
  A 0.44 0.44 0.0 0 1 244.59 13.53
  L 244.59 13.81
  A 0.38 0.37 0.8 0 1 244.20 14.18
  C 240.83 14.08 239.07 14.28 238.92 18.17
  Q 238.83 20.50 238.83 31.08
  Q 238.83 41.66 238.92 44.00
  C 239.06 47.88 240.82 48.08 244.19 47.98
  A 0.38 0.37 -0.7 0 1 244.58 48.35
  L 244.58 48.63
  A 0.44 0.44 0.0 0 1 244.15 49.07
  Q 240.18 49.16 236.28 49.11
  Q 232.37 49.16 228.40 49.07
  A 0.44 0.44 0.0 0 1 227.97 48.63
  L 227.97 48.35
  A 0.38 0.37 0.8 0 1 228.36 47.98
  C 231.73 48.08 233.49 47.88 233.63 44.00
  Q 233.72 41.66 233.72 31.08
  Q 233.72 20.50 233.64 18.17
  C 233.49 14.28 231.73 14.08 228.36 14.18
  A 0.38 0.37 -0.7 0 1 227.97 13.81
  L 227.97 13.53
  A 0.44 0.44 0.0 0 1 228.41 13.09
  Q 232.37 13.01 236.28 13.05
  Z"
/>
<path fill="#7f0f1e" d="
  M 296.35 16.68
  Q 296.37 21.04 296.37 43.29
  C 296.37 47.23 299.07 47.83 302.31 48.01
  A 0.49 0.49 0.0 0 1 302.77 48.50
  L 302.77 48.76
  A 0.33 0.33 0.0 0 1 302.44 49.09
  L 289.63 49.09
  A 0.34 0.33 90.0 0 1 289.30 48.75
  L 289.30 48.50
  A 0.49 0.49 0.0 0 1 289.73 48.01
  C 292.54 47.72 295.18 47.01 295.17 43.55
  Q 295.11 25.56 295.16 23.00
  Q 295.24 18.87 294.69 16.15
  A 2.40 2.40 0.0 0 0 292.34 14.23
  L 290.19 14.23
  A 0.44 0.44 0.0 0 1 289.75 13.79
  L 289.75 13.37
  A 0.34 0.33 -0.0 0 1 290.09 13.04
  L 299.54 13.04
  A 1.80 1.79 71.3 0 1 300.97 13.75
  L 321.55 40.80
  A 0.26 0.26 0.0 0 0 322.01 40.65
  Q 322.04 37.72 322.03 21.54
  C 322.03 15.90 321.82 14.71 316.14 14.09
  A 0.31 0.30 -81.6 0 1 315.87 13.72
  L 315.97 13.30
  A 0.33 0.32 5.3 0 1 316.29 13.04
  L 328.64 13.04
  A 0.48 0.48 0.0 0 1 329.12 13.52
  L 329.12 13.83
  A 0.33 0.32 -87.6 0 1 328.77 14.16
  Q 328.24 14.12 326.44 14.67
  Q 323.17 15.68 323.21 19.22
  Q 323.30 28.82 323.21 49.41
  A 0.65 0.64 26.7 0 1 322.05 49.79
  L 296.77 16.54
  A 0.23 0.23 0.0 0 0 296.35 16.68
  Z"
/>
<path fill="#7f0f1e" d="
  M 368.08 17.50
  A 0.24 0.23 -33.4 0 0 367.63 17.41
  L 353.73 48.64
  A 0.88 0.88 0.0 0 1 352.12 48.65
  L 338.18 17.51
  A 0.28 0.28 0.0 0 0 337.65 17.63
  Q 337.70 23.44 337.69 39.75
  C 337.69 43.69 338.14 47.64 343.07 47.98
  A 0.52 0.52 0.0 0 1 343.55 48.50
  L 343.55 48.78
  A 0.31 0.30 90.0 0 1 343.25 49.09
  L 330.98 49.09
  A 0.29 0.29 0.0 0 1 330.69 48.80
  L 330.69 48.52
  A 0.50 0.50 0.0 0 1 331.13 48.02
  C 335.33 47.49 336.48 45.14 336.55 40.89
  Q 336.81 26.65 336.47 16.75
  A 2.56 2.55 -0.9 0 0 333.91 14.28
  L 331.16 14.28
  A 0.55 0.55 0.0 0 1 330.62 13.66
  L 330.66 13.35
  A 0.31 0.31 0.0 0 1 330.97 13.07
  L 341.10 13.07
  A 0.83 0.82 77.7 0 1 341.85 13.56
  L 354.83 42.56
  A 0.24 0.23 44.7 0 0 355.26 42.56
  L 368.08 13.76
  A 1.16 1.15 -77.6 0 1 369.13 13.08
  L 378.99 13.08
  A 0.44 0.44 0.0 0 1 379.43 13.52
  L 379.43 13.85
  A 0.44 0.44 0.0 0 1 378.95 14.29
  Q 376.35 14.07 375.15 14.46
  A 2.77 2.76 -8.4 0 0 373.25 17.01
  Q 372.92 31.12 373.19 44.48
  C 373.28 48.61 376.21 47.68 379.03 48.04
  A 0.42 0.41 -86.0 0 1 379.38 48.45
  L 379.38 48.76
  A 0.33 0.33 0.0 0 1 379.05 49.09
  L 362.59 49.09
  A 0.47 0.47 0.0 0 1 362.12 48.62
  L 362.12 48.37
  A 0.33 0.33 0.0 0 1 362.43 48.04
  L 365.77 47.85
  A 0.88 0.86 -59.8 0 0 366.13 47.75
  Q 367.89 46.85 367.95 44.74
  Q 368.24 34.30 368.08 17.50
  Z"
/>
<path fill="#7f0f1e" d="
  M 411.65 49.10
  L 382.79 49.10
  A 0.40 0.40 0.0 0 1 382.39 48.73
  L 382.36 48.42
  A 0.32 0.32 0.0 0 1 382.65 48.07
  L 385.31 47.82
  A 2.64 2.64 0.0 0 0 387.71 45.27
  Q 388.10 33.96 387.80 18.07
  C 387.74 15.05 386.36 13.96 383.55 14.21
  A 0.47 0.46 84.3 0 1 383.05 13.79
  L 383.03 13.49
  A 0.41 0.41 0.0 0 1 383.44 13.04
  L 408.39 13.04
  A 0.65 0.64 87.0 0 1 409.03 13.62
  L 409.79 21.74
  A 0.29 0.29 0.0 0 1 409.53 22.05
  L 409.25 22.07
  A 0.49 0.48 -10.6 0 1 408.73 21.72
  C 407.83 18.40 406.85 15.49 403.44 14.56
  Q 401.45 14.02 393.68 14.23
  A 0.71 0.71 0.0 0 0 392.99 14.94
  L 392.99 29.05
  A 0.55 0.55 0.0 0 0 393.46 29.59
  C 394.63 29.77 396.94 29.56 398.81 29.48
  Q 402.84 29.29 402.32 24.65
  A 0.50 0.50 0.0 0 1 402.77 24.09
  L 403.05 24.07
  A 0.39 0.39 0.0 0 1 403.48 24.46
  L 403.48 35.99
  A 0.36 0.36 0.0 0 1 403.09 36.35
  L 402.70 36.32
  A 0.44 0.44 0.0 0 1 402.30 35.82
  C 403.13 29.16 397.09 30.75 393.35 30.64
  A 0.35 0.34 0.8 0 0 392.99 30.98
  Q 392.94 38.71 393.13 44.58
  Q 393.23 47.69 395.81 47.86
  Q 401.69 48.24 404.69 47.67
  C 408.58 46.93 411.09 42.12 411.89 38.40
  A 0.62 0.61 -81.2 0 1 412.53 37.92
  L 412.83 37.95
  A 0.40 0.40 0.0 0 1 413.20 38.38
  L 412.36 48.44
  A 0.71 0.71 0.0 0 1 411.65 49.10
  Z"
/>
<path fill="#7f0f1e" d="
  M 422.98 16.70
  Q 423.00 21.06 422.99 43.30
  C 422.99 47.24 425.69 47.84 428.93 48.02
  A 0.49 0.49 0.0 0 1 429.39 48.51
  L 429.39 48.77
  A 0.33 0.33 0.0 0 1 429.06 49.10
  L 416.26 49.10
  A 0.34 0.33 -90.0 0 1 415.93 48.76
  L 415.93 48.51
  A 0.49 0.49 0.0 0 1 416.36 48.02
  C 419.16 47.73 421.80 47.02 421.80 43.56
  Q 421.74 25.58 421.79 23.02
  Q 421.87 18.89 421.32 16.17
  A 2.40 2.40 0.0 0 0 418.98 14.25
  L 416.83 14.25
  A 0.44 0.44 0.0 0 1 416.39 13.81
  L 416.39 13.39
  A 0.34 0.33 0.0 0 1 416.73 13.06
  L 426.17 13.06
  A 1.80 1.79 71.3 0 1 427.60 13.77
  L 448.17 40.82
  A 0.26 0.26 0.0 0 0 448.63 40.67
  Q 448.66 37.74 448.65 21.57
  C 448.65 15.93 448.44 14.74 442.77 14.12
  A 0.31 0.30 -81.6 0 1 442.50 13.75
  L 442.60 13.33
  A 0.33 0.32 5.4 0 1 442.92 13.07
  L 455.26 13.07
  A 0.48 0.48 0.0 0 1 455.74 13.55
  L 455.74 13.86
  A 0.33 0.32 -87.6 0 1 455.39 14.19
  Q 454.86 14.15 453.06 14.70
  Q 449.79 15.71 449.83 19.25
  Q 449.92 28.84 449.82 49.43
  A 0.65 0.64 26.7 0 1 448.66 49.81
  L 423.40 16.56
  A 0.23 0.23 0.0 0 0 422.98 16.70
  Z"
/>
<path fill="#7f0f1e" d="
  M 475.38 13.06
  Q 491.64 13.07 492.35 13.10
  A 0.67 0.67 0.0 0 1 493.00 13.75
  L 493.14 21.16
  A 0.55 0.54 38.5 0 1 492.06 21.28
  C 491.46 18.48 490.64 15.16 487.64 14.47
  Q 485.86 14.06 478.61 14.24
  A 0.69 0.69 0.0 0 0 477.94 14.92
  Q 477.80 40.43 478.04 44.96
  C 478.22 48.44 481.37 47.93 483.97 48.04
  A 0.40 0.40 0.0 0 1 484.25 48.18
  Q 484.51 48.48 484.44 48.87
  C 484.37 49.23 479.70 49.10 475.35 49.10
  C 471.00 49.10 466.34 49.22 466.27 48.85
  Q 466.20 48.47 466.46 48.17
  A 0.40 0.40 0.0 0 1 466.74 48.03
  C 469.34 47.92 472.49 48.44 472.67 44.96
  Q 472.92 40.43 472.81 14.92
  A 0.69 0.69 0.0 0 0 472.15 14.24
  Q 464.90 14.05 463.12 14.45
  C 460.11 15.14 459.29 18.46 458.69 21.26
  A 0.55 0.54 -38.4 0 1 457.61 21.14
  L 457.76 13.73
  A 0.67 0.67 0.0 0 1 458.41 13.07
  Q 459.11 13.04 475.38 13.06
  Z"
/>
<path fill="#ffffff" d="
  M 15.08 21.13
  A 0.29 0.28 25.6 0 1 14.57 21.31
  L 10.85 16.52
  A 0.41 0.40 -23.1 0 1 11.12 15.87
  L 13.95 15.48
  A 0.86 0.86 0.0 0 1 14.93 16.30
  L 15.08 21.13
  Z"
/>
<path fill="#ffffff" d="
  M 16.35 16.44
  A 0.47 0.47 0.0 0 1 17.19 16.15
  L 19.44 19.04
  A 0.64 0.64 0.0 0 1 19.33 19.94
  L 17.08 21.68
  A 0.42 0.42 0.0 0 1 16.40 21.35
  L 16.35 16.44
  Z"
/>
<path fill="#ffffff" d="
  M 18.61 22.28
  Q 20.05 20.82 21.45 20.78
  Q 22.67 20.73 23.42 18.87
  Q 23.78 17.95 25.47 16.70
  A 0.55 0.55 0.0 0 1 26.35 17.09
  L 26.68 20.60
  A 1.45 1.45 0.0 0 1 25.37 22.17
  L 18.85 22.78
  A 0.30 0.29 19.6 0 1 18.61 22.28
  Z"
/>
<path fill="#ffffff" d="
  M 10.04 17.68
  L 13.32 21.99
  A 2.57 2.56 45.2 0 1 13.31 25.12
  L 10.36 28.92
  A 0.39 0.39 0.0 0 1 9.66 28.71
  L 9.38 25.64
  A 0.70 0.69 61.2 0 1 9.52 25.14
  Q 10.60 23.78 9.52 22.59
  A 1.36 1.36 0.0 0 1 9.17 21.56
  L 9.48 17.84
  A 0.31 0.31 0.0 0 1 10.04 17.68
  Z"
/>
<path fill="#ffffff" d="
  M 166.52 34.28
  L 172.61 19.73
  A 0.30 0.30 0.0 0 1 173.16 19.73
  L 179.30 34.26
  A 0.30 0.30 0.0 0 1 179.02 34.67
  L 166.80 34.69
  A 0.30 0.30 0.0 0 1 166.52 34.28
  Z"
/>
<path fill="#ffffff" d="
  M 3.82 20.89
  L 6.04 23.81
  A 0.64 0.64 0.0 0 1 5.92 24.71
  L 3.65 26.43
  A 0.43 0.42 71.4 0 1 2.97 26.09
  L 2.97 21.17
  A 0.47 0.47 0.0 0 1 3.82 20.89
  Z"
/>
<path fill="#ffffff" d="
  M 26.55 23.83
  L 24.01 28.23
  A 1.69 1.68 37.6 0 1 21.35 28.57
  L 17.48 24.66
  A 0.28 0.27 -25.5 0 1 17.65 24.19
  L 26.27 23.39
  A 0.29 0.29 0.0 0 1 26.55 23.83
  Z"
/>
<path fill="#ffffff" d="
  M 24.90 29.28
  L 27.70 24.44
  A 0.38 0.37 44.7 0 1 28.35 24.44
  L 29.67 26.72
  A 0.79 0.79 0.0 0 1 29.31 27.84
  L 25.23 29.66
  A 0.27 0.26 -86.5 0 1 24.90 29.28
  Z"
/>
<path fill="#ffffff" d="
  M 11.93 31.98
  A 2.33 2.33 0.0 0 1 11.95 29.14
  L 14.88 25.37
  A 1.22 1.21 45.1 0 1 16.80 25.38
  L 20.61 30.40
  A 2.38 2.37 -44.9 0 1 20.60 33.30
  L 18.42 36.10
  A 2.13 2.12 45.2 0 1 15.05 36.08
  L 11.93 31.98
  Z"
/>
<path fill="#ffffff" d="
  M 8.04 26.04
  L 8.30 28.80
  A 0.65 0.65 0.0 0 1 7.39 29.46
  L 4.42 28.13
  A 0.45 0.45 0.0 0 1 4.37 27.33
  L 7.29 25.65
  A 0.50 0.50 0.0 0 1 8.04 26.04
  Z"
/>
<path fill="#ffffff" d="
  M 4.49 30.23
  A 0.11 0.11 0.0 0 1 4.50 30.08
  L 4.53 30.05
  A 3.07 1.71 49.5 0 1 7.82 31.28
  L 7.99 31.47
  A 3.07 1.71 49.5 0 1 8.69 34.92
  L 8.65 34.95
  A 0.11 0.11 0.0 0 1 8.50 34.93
  L 4.49 30.23
  Z"
/>
<path fill="#ffffff" d="
  M 28.59 30.37
  L 25.90 33.83
  A 0.78 0.78 0.0 0 1 24.55 33.63
  Q 23.50 30.84 28.28 29.87
  A 0.32 0.31 13.5 0 1 28.59 30.37
  Z"
/>
<path fill="#ffffff" d="
  M 14.27 37.78
  L 11.62 36.59
  A 0.55 0.54 -84.7 0 1 11.31 36.21
  Q 11.18 35.51 10.02 33.96
  A 0.44 0.41 -52.5 0 1 9.98 33.54
  L 10.23 32.97
  A 0.43 0.42 38.4 0 1 10.96 32.89
  L 14.48 37.52
  A 0.17 0.17 0.0 0 1 14.27 37.78
  Z"
/>
<path fill="#ffffff" d="
  M 19.56 36.88
  L 21.90 33.42
  A 0.75 0.74 -40.2 0 1 23.19 33.53
  Q 24.36 36.11 19.88 37.33
  A 0.30 0.30 0.0 0 1 19.56 36.88
  Z"
/>
<path fill="#7f0f1e" d="
  M 17.04 42.48
  Q 25.46 42.47 30.66 41.88
  A 0.37 0.36 -81.6 0 1 31.03 42.39
  L 29.96 44.79
  A 0.88 0.86 -79.1 0 1 29.22 45.30
  Q 22.35 45.72 17.04 45.73
  Q 11.74 45.74 4.87 45.33
  A 0.88 0.86 79.0 0 1 4.13 44.82
  L 3.05 42.43
  A 0.37 0.36 81.4 0 1 3.42 41.92
  Q 8.62 42.49 17.04 42.48
  Z"
/>
<path fill="#7f0f1e" d="
  M 26.08 48.88
  A 0.25 0.25 0.0 0 1 26.33 49.13
  L 26.33 49.29
  A 2.73 2.17 89.9 0 1 24.16 52.03
  L 9.84 52.05
  A 2.73 2.17 89.9 0 1 7.67 49.33
  L 7.67 49.17
  A 0.25 0.25 0.0 0 1 7.92 48.92
  L 26.08 48.88
  Z"
/>
<path fill="#7f0f1e" d="
  M 14.94 93.74
  Q 14.55 93.75 14.33 93.63
  Q 14.08 93.49 14.06 93.11
  Q 11.68 56.17 11.68 55.52
  A 0.63 0.62 86.9 0 1 12.24 54.89
  Q 12.91 54.82 13.48 54.80
  Q 14.07 54.78 14.74 54.80
  A 0.63 0.62 88.8 0 1 15.34 55.38
  Q 15.39 56.03 15.78 93.04
  Q 15.79 93.43 15.56 93.58
  Q 15.34 93.72 14.94 93.74
  Z"
/>
<path fill="#7f0f1e" d="
  M 20.53 54.88
  Q 21.11 54.90 21.78 54.97
  A 0.62 0.62 0.0 0 1 22.33 55.59
  Q 22.33 56.24 19.95 93.05
  Q 19.93 93.43 19.69 93.56
  Q 19.46 93.69 19.06 93.67
  Q 18.68 93.66 18.46 93.52
  Q 18.23 93.37 18.24 92.99
  Q 18.64 56.10 18.68 55.45
  A 0.62 0.62 0.0 0 1 19.28 54.88
  Q 19.95 54.86 20.53 54.88
  Z"
/>
<path fill="#7f0f1e" d="
  M 212.3157 74.0697
  A 12.33 12.33 0.0 0 1 199.9428 86.3565
  L 196.1428 86.3433
  A 12.33 12.33 0.0 0 1 183.8559 73.9703
  L 183.8643 71.5703
  A 12.33 12.33 0.0 0 1 196.2372 59.2835
  L 200.0372 59.2967
  A 12.33 12.33 0.0 0 1 212.3241 71.6697
  L 212.3157 74.0697
  Z
  M 208.0114 69.2879
  A 9.20 9.20 0.0 0 0 198.7634 60.1362
  L 197.2434 60.1442
  A 9.20 9.20 0.0 0 0 188.0917 69.3922
  L 188.1286 76.4321
  A 9.20 9.20 0.0 0 0 197.3766 85.5838
  L 198.8966 85.5758
  A 9.20 9.20 0.0 0 0 208.0483 76.3278
  L 208.0114 69.2879
  Z"
/>
<path fill="#7f0f1e" d="
  M 243.74 85.91
  C 241.06 86.33 236.89 86.78 234.89 84.15
  Q 232.15 80.53 227.55 74.47
  Q 226.43 72.99 224.31 73.17
  A 0.67 0.67 0.0 0 0 223.69 73.84
  L 223.69 83.18
  A 1.84 1.84 0.0 0 0 225.34 85.01
  L 228.25 85.30
  A 0.13 0.13 0.0 0 1 228.37 85.43
  L 228.37 85.71
  A 0.28 0.28 0.0 0 1 228.09 85.99
  L 216.27 85.99
  A 0.35 0.34 -0.0 0 1 215.92 85.65
  L 215.92 85.24
  A 0.14 0.14 0.0 0 1 216.06 85.10
  Q 218.35 85.21 219.27 84.71
  Q 219.96 84.33 220.00 81.94
  Q 220.13 72.90 219.89 62.16
  A 1.52 1.45 24.4 0 0 219.50 61.19
  Q 218.45 60.02 216.38 60.46
  A 0.35 0.35 0.0 0 1 215.95 60.12
  L 215.95 59.82
  A 0.21 0.21 0.0 0 1 216.16 59.61
  C 221.01 59.62 238.09 56.83 237.27 66.44
  Q 236.84 71.55 230.79 72.42
  A 0.58 0.58 0.0 0 0 230.46 73.40
  Q 233.70 76.62 237.11 81.20
  Q 239.70 84.69 243.74 85.25
  A 0.34 0.33 -45.3 0 1 243.74 85.91
  Z
  M 223.75 60.68
  L 223.73 71.88
  A 0.56 0.56 0.0 0 0 224.29 72.44
  L 227.41 72.45
  A 5.68 5.34 0.1 0 0 233.10 67.12
  L 233.10 65.48
  A 5.68 5.34 0.1 0 0 227.43 60.13
  L 224.31 60.12
  A 0.56 0.56 0.0 0 0 223.75 60.68
  Z"
/>
<path fill="#7f0f1e" d="
  M 278.80 77.74
  A 0.32 0.31 90.0 0 1 279.11 77.42
  L 279.40 77.42
  A 0.45 0.43 85.3 0 1 279.83 77.80
  C 280.51 82.39 283.43 86.04 288.26 85.77
  C 291.87 85.56 294.80 82.25 293.28 78.48
  C 292.24 75.88 285.87 73.52 284.22 72.79
  C 274.35 68.42 279.88 55.77 289.35 59.80
  C 290.45 60.27 291.40 61.38 292.07 61.70
  A 0.56 0.55 20.5 0 0 292.87 61.34
  L 293.23 59.83
  A 0.21 0.20 -82.8 0 1 293.43 59.67
  L 293.79 59.67
  A 0.26 0.26 0.0 0 1 294.05 59.93
  L 294.05 66.02
  A 0.43 0.43 0.0 0 1 293.20 66.12
  C 292.08 61.66 287.63 58.25 283.29 60.73
  C 280.20 62.50 281.22 65.93 283.78 67.90
  C 288.38 71.45 294.48 71.42 295.88 76.29
  C 297.17 80.77 295.45 84.88 290.82 86.15
  Q 285.31 87.67 280.68 83.42
  A 0.36 0.36 0.0 0 0 280.07 83.67
  Q 280.03 84.66 279.77 85.42
  A 0.50 0.50 0.0 0 1 278.80 85.25
  L 278.80 77.74
  Z"
/>
<path fill="#7f0f1e" d="
  M 324.56 69.46
  A 0.16 0.15 -1.7 0 1 324.40 69.62
  L 324.13 69.62
  A 0.30 0.29 -4.6 0 1 323.84 69.38
  Q 323.11 64.68 320.74 62.53
  C 317.07 59.19 310.56 58.87 307.43 63.25
  C 304.16 67.83 303.67 76.65 306.80 81.40
  C 311.17 88.05 321.18 86.48 323.25 78.78
  Q 323.42 78.18 324.02 76.31
  A 0.28 0.28 0.0 0 1 324.57 76.39
  L 324.57 85.19
  A 0.17 0.17 0.0 0 1 324.40 85.36
  L 324.06 85.36
  A 0.30 0.29 82.1 0 1 323.78 85.14
  Q 323.44 83.72 323.03 83.17
  A 0.64 0.64 0.0 0 0 322.06 83.10
  C 317.30 87.83 309.17 87.54 304.41 83.19
  Q 299.68 78.87 300.75 70.73
  C 302.18 59.79 313.92 55.33 322.27 62.65
  A 0.51 0.51 0.0 0 0 323.10 62.37
  L 323.66 59.80
  A 0.34 0.34 0.0 0 1 324.34 59.86
  L 324.56 69.46
  Z"
/>
<path fill="#7f0f1e" d="
  M 361.7322 72.5838
  A 14.68 13.88 -179.0 0 1 376.6522 58.9621
  A 14.68 13.88 -179.0 0 1 391.0878 73.0962
  A 14.68 13.88 -179.0 0 1 376.1678 86.7179
  A 14.68 13.88 -179.0 0 1 361.7322 72.5838
  Z
  M 386.3439 69.3226
  A 9.20 9.20 0.0 0 0 377.1278 60.1387
  L 375.5878 60.1414
  A 9.20 9.20 0.0 0 0 366.4039 69.3574
  L 366.4161 76.3774
  A 9.20 9.20 0.0 0 0 375.6322 85.5613
  L 377.1722 85.5586
  A 9.20 9.20 0.0 0 0 386.3561 76.3426
  L 386.3439 69.3226
  Z"
/>
<path fill="#7f0f1e" d="
  M 446.40 60.27
  A 0.32 0.32 0.0 0 1 446.47 59.64
  C 451.42 59.50 467.25 57.15 467.44 65.47
  Q 467.57 71.42 460.72 72.52
  A 0.40 0.40 0.0 0 0 460.50 73.19
  Q 463.71 76.38 467.45 81.41
  Q 469.99 84.82 473.83 85.27
  A 0.33 0.33 0.0 0 1 473.82 85.92
  C 471.92 86.09 467.33 86.63 465.81 84.88
  Q 463.44 82.16 458.59 75.38
  Q 456.93 73.06 454.56 73.18
  A 0.64 0.63 -1.9 0 0 453.96 73.81
  L 453.96 83.24
  A 1.64 1.64 0.0 0 0 454.80 84.67
  Q 456.09 85.39 458.25 85.14
  A 0.34 0.34 0.0 0 1 458.63 85.48
  L 458.63 85.73
  A 0.27 0.26 90.0 0 1 458.37 86.00
  L 435.06 86.00
  A 0.30 0.30 0.0 0 1 434.79 85.58
  L 435.00 85.12
  A 0.12 0.11 14.6 0 1 435.13 85.05
  Q 437.38 85.42 438.06 84.17
  A 0.97 0.95 -43.0 0 0 438.10 83.32
  L 435.07 76.55
  A 0.61 0.60 77.9 0 0 434.52 76.19
  L 425.22 76.19
  A 0.73 0.73 0.0 0 0 424.54 76.66
  L 422.35 82.43
  A 1.40 1.36 45.8 0 0 422.35 83.42
  Q 422.99 85.05 425.05 85.17
  A 0.30 0.29 -89.0 0 1 425.33 85.47
  L 425.33 85.82
  A 0.17 0.17 0.0 0 1 425.16 85.99
  L 418.18 85.99
  A 0.34 0.34 0.0 0 1 418.08 85.33
  Q 420.41 84.57 421.42 82.14
  Q 426.20 70.56 431.03 59.34
  A 0.38 0.38 0.0 0 1 431.73 59.34
  Q 437.70 73.30 441.33 82.19
  C 442.84 85.87 445.99 85.79 449.16 84.75
  A 1.68 1.67 -9.2 0 0 450.31 83.16
  L 450.31 62.68
  A 2.32 2.31 -1.0 0 0 447.91 60.37
  Q 446.86 60.41 446.40 60.27
  Z
  M 453.97 60.59
  L 453.99 72.01
  A 0.47 0.47 0.0 0 0 454.46 72.48
  L 457.55 72.47
  A 5.90 5.61 -0.1 0 0 463.44 66.85
  L 463.44 65.71
  A 5.90 5.61 -0.1 0 0 457.53 60.11
  L 454.44 60.12
  A 0.47 0.47 0.0 0 0 453.97 60.59
  Z
  M 425.22 75.16
  A 0.31 0.31 0.0 0 0 425.50 75.59
  L 434.30 75.60
  A 0.31 0.31 0.0 0 0 434.59 75.17
  L 430.21 64.68
  A 0.31 0.31 0.0 0 0 429.64 64.68
  L 425.22 75.16
  Z"
/>
<path fill="#7f0f1e" d="
  M 476.79 77.74
  A 0.32 0.31 -90.0 0 1 477.10 77.42
  L 477.39 77.42
  A 0.45 0.43 85.4 0 1 477.82 77.80
  C 478.50 82.39 481.42 86.04 486.25 85.77
  C 489.86 85.56 492.79 82.25 491.27 78.48
  C 490.23 75.88 483.86 73.52 482.21 72.79
  C 472.34 68.42 477.88 55.77 487.34 59.81
  C 488.44 60.28 489.39 61.39 490.06 61.71
  A 0.56 0.55 20.5 0 0 490.86 61.35
  L 491.22 59.84
  A 0.21 0.20 -82.7 0 1 491.42 59.68
  L 491.78 59.68
  A 0.26 0.26 0.0 0 1 492.04 59.94
  L 492.04 66.03
  A 0.43 0.43 0.0 0 1 491.19 66.13
  C 490.07 61.67 485.62 58.26 481.28 60.73
  C 478.19 62.50 479.21 65.93 481.77 67.90
  C 486.37 71.45 492.47 71.42 493.87 76.29
  C 495.16 80.77 493.43 84.88 488.81 86.15
  Q 483.30 87.67 478.67 83.42
  A 0.36 0.36 0.0 0 0 478.06 83.67
  Q 478.02 84.66 477.76 85.42
  A 0.50 0.50 0.0 0 1 476.79 85.25
  L 476.79 77.74
  Z"
/>
<path fill="#7f0f1e" d="
  M 109.61 59.67
  Q 120.71 59.68 121.81 59.71
  A 0.69 0.69 0.0 0 1 122.48 60.37
  L 122.70 65.61
  A 0.23 0.23 0.0 0 1 122.47 65.85
  L 122.18 65.85
  A 0.27 0.26 -5.2 0 1 121.92 65.64
  Q 120.90 60.71 118.46 60.50
  Q 115.59 60.26 111.90 60.41
  A 0.52 0.51 -1.2 0 0 111.40 60.92
  L 111.40 83.17
  A 1.93 1.92 -0.0 0 0 113.33 85.09
  L 115.84 85.09
  A 0.32 0.30 75.0 0 1 116.11 85.26
  Q 116.26 85.56 116.11 85.79
  A 0.33 0.32 -80.6 0 1 115.91 85.93
  Q 115.59 86.02 109.60 86.02
  Q 103.61 86.02 103.28 85.92
  A 0.33 0.32 80.7 0 1 103.09 85.78
  Q 102.94 85.55 103.09 85.25
  A 0.32 0.30 -75.0 0 1 103.36 85.08
  L 105.87 85.09
  A 1.93 1.92 0.1 0 0 107.80 83.17
  L 107.83 60.92
  A 0.52 0.51 1.2 0 0 107.33 60.41
  Q 103.64 60.25 100.77 60.49
  Q 98.33 60.70 97.30 65.63
  A 0.27 0.26 5.3 0 1 97.04 65.84
  L 96.75 65.84
  A 0.23 0.23 0.0 0 1 96.52 65.60
  L 96.75 60.36
  A 0.69 0.69 0.0 0 1 97.41 59.70
  Q 98.51 59.67 109.61 59.67
  Z"
/>
<path fill="#7f0f1e" d="
  M 139.91 71.59
  Q 142.60 71.59 146.55 71.59
  A 0.45 0.45 0.0 0 0 147.00 71.14
  Q 147.05 67.04 146.91 62.79
  C 146.82 59.84 144.74 60.76 142.99 60.23
  A 0.30 0.30 0.0 0 1 143.08 59.65
  L 154.50 59.65
  A 0.22 0.22 0.0 0 1 154.72 59.87
  L 154.72 60.14
  A 0.24 0.24 0.0 0 1 154.48 60.38
  C 152.19 60.33 150.77 60.53 150.72 62.95
  Q 150.49 73.73 150.73 83.26
  A 1.87 1.87 0.0 0 0 152.44 85.08
  L 154.54 85.25
  A 0.15 0.14 -88.0 0 1 154.67 85.40
  L 154.67 85.69
  A 0.33 0.33 0.0 0 1 154.34 86.02
  L 143.11 86.02
  A 0.26 0.26 0.0 0 1 142.85 85.76
  L 142.85 85.44
  A 0.33 0.32 3.9 0 1 143.22 85.12
  Q 146.85 85.58 146.94 82.76
  Q 147.02 80.22 146.99 73.44
  A 0.61 0.61 0.0 0 0 146.44 72.83
  Q 145.44 72.73 139.91 72.73
  Q 134.37 72.72 133.37 72.83
  A 0.61 0.61 0.0 0 0 132.82 73.44
  Q 132.79 80.22 132.87 82.76
  Q 132.95 85.58 136.58 85.12
  A 0.33 0.32 -3.8 0 1 136.95 85.44
  L 136.95 85.76
  A 0.26 0.26 0.0 0 1 136.69 86.02
  L 125.46 86.01
  A 0.33 0.33 0.0 0 1 125.13 85.68
  L 125.13 85.39
  A 0.15 0.14 88.0 0 1 125.26 85.24
  L 127.36 85.07
  A 1.87 1.87 0.0 0 0 129.07 83.25
  Q 129.32 73.72 129.10 62.94
  C 129.05 60.52 127.63 60.32 125.34 60.37
  A 0.24 0.24 0.0 0 1 125.10 60.13
  L 125.10 59.86
  A 0.22 0.22 0.0 0 1 125.32 59.64
  L 136.74 59.65
  A 0.30 0.30 0.0 0 1 136.83 60.23
  C 135.08 60.76 133.00 59.84 132.91 62.79
  Q 132.76 67.04 132.81 71.14
  A 0.45 0.45 0.0 0 0 133.26 71.58
  Q 137.22 71.59 139.91 71.59
  Z"
/>
<path fill="#7f0f1e" d="
  M 177.50 65.66
  A 0.32 0.31 -59.7 0 1 176.90 65.82
  L 175.45 62.58
  A 3.70 3.68 77.8 0 0 172.09 60.40
  L 165.73 60.40
  A 0.63 0.63 0.0 0 0 165.10 61.03
  L 165.11 71.28
  A 0.52 0.52 0.0 0 0 165.53 71.79
  C 166.01 71.88 168.02 71.75 169.30 71.73
  Q 172.36 71.69 172.09 68.14
  A 0.34 0.34 0.0 0 1 172.43 67.77
  L 172.70 67.77
  A 0.28 0.28 0.0 0 1 172.98 68.05
  L 172.98 76.28
  A 0.42 0.42 0.0 0 1 172.56 76.70
  L 172.25 76.70
  A 0.26 0.26 0.0 0 1 171.99 76.41
  C 172.68 71.62 168.79 72.27 165.64 72.50
  A 0.64 0.64 0.0 0 0 165.05 73.15
  L 165.22 83.08
  A 1.97 1.96 6.7 0 0 166.71 84.96
  Q 167.79 85.23 172.03 85.12
  C 176.69 85.00 177.96 82.03 179.22 78.22
  A 0.40 0.40 0.0 0 1 179.99 78.38
  L 179.41 85.37
  A 0.70 0.69 2.2 0 1 178.71 86.01
  L 157.75 86.01
  A 0.37 0.36 0.0 0 1 157.38 85.65
  L 157.38 85.35
  A 0.12 0.12 0.0 0 1 157.49 85.23
  L 159.73 85.02
  A 1.83 1.82 88.4 0 0 161.38 83.27
  Q 161.64 75.78 161.41 63.04
  Q 161.36 60.18 158.35 60.40
  A 0.33 0.33 0.0 0 1 158.00 60.07
  L 158.00 59.79
  A 0.14 0.14 0.0 0 1 158.14 59.65
  L 176.38 59.65
  A 0.61 0.61 0.0 0 1 176.99 60.21
  L 177.50 65.66
  Z"
/>
<path fill="#7f0f1e" d="
  M 257.96 60.29
  A 0.38 0.38 0.0 0 1 257.64 59.89
  L 257.65 59.87
  A 0.23 0.23 0.0 0 1 257.88 59.66
  L 266.09 59.67
  A 0.29 0.29 0.0 0 1 266.17 60.23
  Q 263.24 61.13 261.51 64.02
  Q 255.23 74.46 254.83 75.07
  A 1.93 1.91 63.6 0 0 254.45 76.22
  L 254.44 83.12
  A 1.75 1.75 0.0 0 0 255.82 84.84
  L 257.80 85.27
  A 0.39 0.38 -38.6 0 1 257.71 86.03
  L 247.15 86.03
  A 0.17 0.17 0.0 0 1 246.98 85.86
  L 246.98 85.54
  A 0.30 0.30 0.0 0 1 247.28 85.24
  Q 248.89 85.21 249.94 84.55
  A 1.36 1.32 -12.9 0 0 250.56 83.59
  Q 251.18 79.12 250.50 75.87
  A 4.35 4.31 -67.4 0 0 249.94 74.49
  Q 249.91 74.44 243.43 64.00
  C 242.29 62.17 241.71 60.76 239.41 60.30
  A 0.33 0.33 0.0 0 1 239.47 59.65
  L 249.56 59.65
  A 0.18 0.17 -0.0 0 1 249.74 59.82
  L 249.74 60.12
  A 0.24 0.23 -2.7 0 1 249.52 60.35
  Q 248.24 60.43 247.61 60.66
  A 1.27 1.27 0.0 0 0 246.95 62.48
  L 253.55 73.91
  A 0.58 0.58 0.0 0 0 254.55 73.92
  Q 258.24 67.83 260.42 64.01
  C 261.68 61.81 260.06 60.63 257.96 60.29
  Z"
/>
<path fill="#7f0f1e" d="
  M 343.61 72.73
  Q 338.08 72.73 337.08 72.84
  A 0.61 0.61 0.0 0 0 336.53 73.44
  Q 336.51 80.22 336.59 82.76
  Q 336.68 85.58 340.31 85.12
  A 0.33 0.32 -3.9 0 1 340.68 85.44
  L 340.68 85.76
  A 0.26 0.26 0.0 0 1 340.42 86.02
  L 329.19 86.02
  A 0.33 0.33 0.0 0 1 328.86 85.69
  L 328.86 85.40
  A 0.15 0.14 87.9 0 1 328.99 85.25
  L 331.09 85.08
  A 1.87 1.87 0.0 0 0 332.80 83.26
  Q 333.04 73.73 332.80 62.96
  C 332.75 60.54 331.33 60.34 329.04 60.39
  A 0.24 0.24 0.0 0 1 328.80 60.15
  L 328.80 59.88
  A 0.22 0.22 0.0 0 1 329.02 59.66
  L 340.44 59.66
  A 0.30 0.30 0.0 0 1 340.53 60.24
  C 338.78 60.77 336.70 59.85 336.61 62.80
  Q 336.47 67.05 336.52 71.15
  A 0.45 0.45 0.0 0 0 336.97 71.59
  Q 340.93 71.59 343.61 71.59
  Q 346.30 71.59 350.25 71.59
  A 0.45 0.45 0.0 0 0 350.70 71.14
  Q 350.75 67.04 350.61 62.79
  C 350.51 59.84 348.43 60.76 346.69 60.24
  A 0.30 0.30 0.0 0 1 346.77 59.66
  L 358.19 59.65
  A 0.22 0.22 0.0 0 1 358.41 59.87
  L 358.41 60.14
  A 0.24 0.24 0.0 0 1 358.17 60.38
  C 355.88 60.33 354.46 60.53 354.41 62.95
  Q 354.19 73.72 354.44 83.25
  A 1.87 1.87 0.0 0 0 356.15 85.06
  L 358.25 85.23
  A 0.15 0.14 -88.0 0 1 358.38 85.38
  L 358.38 85.67
  A 0.33 0.33 0.0 0 1 358.05 86.00
  L 346.83 86.01
  A 0.26 0.26 0.0 0 1 346.57 85.75
  L 346.57 85.43
  A 0.33 0.32 3.8 0 1 346.94 85.11
  Q 350.57 85.57 350.65 82.75
  Q 350.73 80.21 350.70 73.44
  A 0.61 0.61 0.0 0 0 350.14 72.83
  Q 349.15 72.72 343.61 72.73
  Z"
/>
<path fill="#7f0f1e" d="
  M 394.74 59.65
  L 406.67 59.65
  A 0.37 0.37 0.0 0 1 407.04 59.97
  L 407.04 60.01
  A 0.33 0.33 0.0 0 1 406.74 60.36
  C 405.15 60.56 402.34 59.76 402.28 62.56
  Q 402.01 76.59 402.30 83.55
  A 1.63 1.63 0.0 0 0 403.93 85.11
  L 410.59 85.11
  A 4.36 4.35 -69.1 0 0 413.84 83.65
  Q 415.52 81.75 416.26 78.75
  A 0.40 0.40 0.0 0 1 417.05 78.85
  L 417.05 85.46
  A 0.55 0.55 0.0 0 1 416.50 86.01
  L 394.70 86.01
  A 0.39 0.38 -2.4 0 1 394.31 85.66
  L 394.28 85.38
  A 0.07 0.07 0.0 0 1 394.34 85.31
  L 396.90 85.00
  A 1.82 1.82 0.0 0 0 398.50 83.26
  Q 398.91 71.99 398.48 62.81
  Q 398.34 59.76 394.65 60.47
  A 0.30 0.30 0.0 0 1 394.30 60.24
  L 394.29 60.18
  A 0.46 0.45 -4.8 0 1 394.74 59.65
  Z"
/>
<path fill="#7f0f1e" d="
  M 84.58 83.42
  A 0.43 0.42 46.6 0 1 85.24 83.44
  L 85.39 83.64
  A 0.19 0.17 45.5 0 1 85.40 83.85
  Q 83.48 86.56 80.91 86.66
  Q 77.07 86.79 74.28 83.41
  A 0.56 0.55 49.6 0 0 73.48 83.34
  C 69.98 86.41 66.05 88.02 62.20 85.41
  C 55.89 81.13 59.63 74.41 64.89 71.62
  A 0.81 0.81 0.0 0 0 65.13 70.38
  C 60.57 64.98 65.41 57.19 72.06 61.17
  C 77.11 64.19 72.15 68.44 69.07 69.98
  A 0.65 0.65 0.0 0 0 68.84 70.96
  L 74.76 78.74
  A 0.62 0.61 -48.2 0 0 75.78 78.68
  C 77.41 75.96 79.58 72.21 74.84 70.80
  A 0.34 0.34 0.0 0 1 74.60 70.41
  Q 74.65 70.17 74.79 70.09
  A 0.07 0.04 -58.3 0 1 74.83 70.07
  L 82.60 70.07
  A 0.42 0.42 0.0 0 1 82.76 70.88
  C 78.56 72.65 77.95 76.42 76.19 79.63
  A 1.24 1.22 47.6 0 0 76.15 80.72
  C 77.57 83.78 81.53 87.04 84.58 83.42
  Z
  M 68.16 69.50
  Q 68.18 69.50 68.23 69.51
  A 0.17 0.05 10.6 0 0 68.36 69.50
  Q 70.73 67.93 71.47 66.45
  C 72.60 64.21 72.04 61.36 69.21 61.01
  C 66.37 60.66 65.15 63.29 65.70 65.74
  Q 66.06 67.35 67.98 69.45
  A 0.17 0.05 3.4 0 0 68.09 69.49
  Q 68.15 69.50 68.16 69.50
  Z
  M 73.01 81.70
  L 66.64 72.58
  A 0.82 0.82 0.0 0 0 65.50 72.37
  L 64.41 73.13
  A 6.25 6.02 -34.9 0 0 62.73 81.65
  L 63.14 82.24
  A 6.25 6.02 -34.9 0 0 71.71 83.60
  L 72.80 82.84
  A 0.82 0.82 0.0 0 0 73.01 81.70
  Z"
/>
<rect fill="#ffffff" x="-9.96" y="-12.72" transform="translate(198.07,72.86) rotate(-0.3)" width="19.92" height="25.44" rx="9.20"/>
<path fill="#ffffff" d="
  M 223.75 60.68
  A 0.56 0.56 0.0 0 1 224.31 60.12
  L 227.43 60.13
  A 5.68 5.34 0.1 0 1 233.10 65.48
  L 233.10 67.12
  A 5.68 5.34 0.1 0 1 227.41 72.45
  L 224.29 72.44
  A 0.56 0.56 0.0 0 1 223.73 71.88
  L 223.75 60.68
  Z"
/>
<rect fill="#ffffff" x="-9.97" y="-12.71" transform="translate(376.38,72.85) rotate(-0.1)" width="19.94" height="25.42" rx="9.20"/>
<path fill="#ffffff" d="
  M 453.97 60.59
  A 0.47 0.47 0.0 0 1 454.44 60.12
  L 457.53 60.11
  A 5.90 5.61 -0.1 0 1 463.44 65.71
  L 463.44 66.85
  A 5.90 5.61 -0.1 0 1 457.55 72.47
  L 454.46 72.48
  A 0.47 0.47 0.0 0 1 453.99 72.01
  L 453.97 60.59
  Z"
/>
<path fill="#ffffff" d="
  M 69.21 61.01
  C 72.04 61.36 72.60 64.21 71.47 66.45
  Q 70.73 67.93 68.36 69.50
  A 0.17 0.05 10.6 0 1 68.23 69.51
  Q 68.18 69.50 68.16 69.50
  Q 68.15 69.50 68.09 69.49
  A 0.17 0.05 3.4 0 1 67.98 69.45
  Q 66.06 67.35 65.70 65.74
  C 65.15 63.29 66.37 60.66 69.21 61.01
  Z"
/>
<path fill="#ffffff" d="
  M 425.22 75.16
  L 429.64 64.68
  A 0.31 0.31 0.0 0 1 430.21 64.68
  L 434.59 75.17
  A 0.31 0.31 0.0 0 1 434.30 75.60
  L 425.50 75.59
  A 0.31 0.31 0.0 0 1 425.22 75.16
  Z"
/>
<path fill="#ffffff" d="
  M 73.01 81.70
  A 0.82 0.82 0.0 0 1 72.80 82.84
  L 71.71 83.60
  A 6.25 6.02 -34.9 0 1 63.14 82.24
  L 62.73 81.65
  A 6.25 6.02 -34.9 0 1 64.41 73.13
  L 65.50 72.37
  A 0.82 0.82 0.0 0 1 66.64 72.58
  L 73.01 81.70
  Z"
/>
</svg>
