<?xml version="1.0" encoding="UTF-8" standalone="no"?>
<!DOCTYPE svg PUBLIC "-//W3C//DTD SVG 1.1//EN" "http://www.w3.org/Graphics/SVG/1.1/DTD/svg11.dtd">
<svg xmlns="http://www.w3.org/2000/svg" version="1.1" viewBox="0.00 0.00 299.00 168.00">
<g stroke-width="2.00" fill="none" stroke-linecap="butt">
<path stroke="#808080" vector-effect="non-scaling-stroke" d="
  M 64.11 93.38
  L 66.87 93.38
  A 1.15 1.15 0.0 0 0 68.02 92.23
  L 68.05 79.25
  A 8.07 2.41 -89.9 0 0 65.65 71.18
  L 65.41 71.18
  A 8.07 2.41 -89.9 0 0 62.99 79.25
  L 62.96 92.23
  A 1.15 1.15 0.0 0 0 64.11 93.38"
/>
<path stroke="#808080" vector-effect="non-scaling-stroke" d="
  M 61.72 92.06
  L 61.72 78.02
  A 1.21 1.20 33.5 0 0 61.62 77.54
  L 60.00 73.85
  A 0.58 0.58 0.0 0 0 58.96 73.80
  L 57.16 76.92
  A 1.26 1.26 0.0 0 0 56.98 77.57
  L 56.98 90.54
  A 0.88 0.87 8.6 0 0 57.60 91.37
  L 61.18 92.46
  A 0.42 0.42 0.0 0 0 61.72 92.06"
/>
<path stroke="#808080" vector-effect="non-scaling-stroke" d="
  M 69.25 92.07
  A 0.42 0.42 0.0 0 0 69.79 92.47
  L 73.38 91.39
  A 0.88 0.87 -8.4 0 0 74.00 90.56
  L 74.06 77.58
  A 1.26 1.26 0.0 0 0 73.88 76.93
  L 72.09 73.80
  A 0.58 0.58 0.0 0 0 71.05 73.85
  L 69.41 77.53
  A 1.21 1.20 -33.2 0 0 69.31 78.01
  L 69.25 92.07"
/>
<path stroke="#808080" vector-effect="non-scaling-stroke" d="
  M 240.00 90.48
  L 240.00 84.82
  A 3.25 3.24 85.7 0 1 242.75 81.61
  L 243.04 81.57
  A 2.47 2.46 84.4 0 1 245.97 83.98
  L 246.00 90.33
  A 0.79 0.78 -88.8 0 0 246.74 91.11
  L 246.79 91.11
  A 0.77 0.77 0.0 0 0 247.55 90.33
  C 247.53 87.62 248.06 82.72 246.52 81.24
  C 244.62 79.39 242.51 79.60 240.65 81.38
  A 0.41 0.41 0.0 0 1 239.95 81.08
  L 240.01 76.52
  A 0.91 0.91 0.0 0 0 239.22 75.61
  L 239.15 75.60
  A 0.74 0.73 2.8 0 0 238.34 76.33
  L 238.36 90.54
  A 0.53 0.53 0.0 0 0 238.89 91.07
  L 239.42 91.07
  A 0.59 0.58 90.0 0 0 240.00 90.48"
/>
<path stroke="#808080" vector-effect="non-scaling-stroke" d="
  M 115.34 76.07
  A 0.41 0.41 0.0 0 0 114.93 75.66
  L 114.23 75.66
  A 0.41 0.41 0.0 0 0 113.82 76.07
  L 113.82 90.61
  A 0.41 0.41 0.0 0 0 114.23 91.02
  L 114.93 91.02
  A 0.41 0.41 0.0 0 0 115.34 90.61
  L 115.34 76.07"
/>
<path stroke="#808080" vector-effect="non-scaling-stroke" d="
  M 117.51 77.51
  Q 117.99 77.98 118.40 78.01
  A 0.74 0.74 0.0 0 0 119.16 77.51
  Q 119.52 76.41 119.03 75.94
  Q 118.55 75.47 117.46 75.86
  A 0.74 0.74 0.0 0 0 116.98 76.63
  Q 117.03 77.05 117.51 77.51"
/>
<path stroke="#808080" vector-effect="non-scaling-stroke" d="
  M 149.70 90.20
  Q 149.65 90.38 149.99 90.84
  A 0.68 0.68 0.0 0 0 151.22 90.44
  L 151.22 76.14
  A 0.53 0.52 -90.0 0 0 150.70 75.61
  L 150.28 75.61
  A 0.56 0.56 0.0 0 0 149.72 76.17
  L 149.72 81.13
  A 0.34 0.34 0.0 0 1 149.17 81.40
  C 143.71 77.03 138.44 83.72 141.33 88.79
  Q 143.24 92.15 148.04 90.84
  Q 148.11 90.82 148.53 90.34
  Q 148.72 90.13 149.23 89.83
  A 0.32 0.32 0.0 0 1 149.70 90.20"
/>
<path stroke="#808080" vector-effect="non-scaling-stroke" d="
  M 95.07 84.67
  C 98.32 84.47 101.91 85.16 102.63 81.19
  C 103.65 75.59 97.24 75.78 93.45 76.10
  A 0.60 0.60 0.0 0 0 92.90 76.70
  L 92.90 90.46
  A 0.60 0.60 0.0 0 0 93.50 91.06
  L 93.85 91.06
  A 0.61 0.60 0.0 0 0 94.46 90.46
  L 94.46 85.32
  A 0.65 0.65 0.0 0 1 95.07 84.67"
/>
<path stroke="#808080" vector-effect="non-scaling-stroke" d="
  M 170.47 90.49
  L 170.47 85.41
  A 0.59 0.59 0.0 0 1 171.06 84.82
  L 172.99 84.82
  A 0.90 0.89 74.7 0 1 173.76 85.26
  L 176.75 90.45
  A 1.28 1.28 0.0 0 0 177.85 91.08
  L 178.18 91.08
  A 0.51 0.50 74.8 0 0 178.61 90.32
  L 175.70 85.28
  A 0.65 0.64 -29.5 0 1 175.95 84.40
  Q 179.92 82.22 177.96 78.13
  C 176.72 75.53 172.33 75.90 169.51 76.06
  A 0.60 0.60 0.0 0 0 168.94 76.66
  L 168.94 90.44
  A 0.65 0.64 90.0 0 0 169.58 91.09
  L 169.88 91.09
  A 0.60 0.59 -90.0 0 0 170.47 90.49"
/>
<path stroke="#808080" vector-effect="non-scaling-stroke" d="
  M 55.56 90.31
  Q 55.54 83.53 55.47 81.03
  Q 55.45 80.20 53.81 77.11
  A 0.47 0.46 51.5 0 0 53.05 77.02
  C 50.06 80.40 50.84 83.34 50.90 88.88
  A 0.69 0.68 -82.2 0 0 51.39 89.54
  L 55.08 90.67
  A 0.38 0.37 -81.4 0 0 55.56 90.31"
/>
<path stroke="#808080" vector-effect="non-scaling-stroke" d="
  M 75.50 90.33
  A 0.37 0.37 0.0 0 0 75.98 90.69
  L 79.66 89.55
  A 0.69 0.67 82.1 0 0 80.15 88.89
  C 80.20 83.36 80.97 80.42 77.98 77.06
  A 0.47 0.46 -51.7 0 0 77.22 77.15
  Q 75.59 80.24 75.57 81.07
  Q 75.51 83.56 75.50 90.33"
/>
<path stroke="#808080" vector-effect="non-scaling-stroke" d="
  M 110.61 90.25
  L 110.97 90.88
  A 0.60 0.60 0.0 0 0 112.09 90.58
  C 112.11 88.26 112.63 82.97 111.12 81.34
  C 108.90 78.97 105.17 79.85 103.48 82.49
  A 0.83 0.83 0.0 0 0 104.61 83.65
  C 105.12 83.34 105.47 82.22 106.51 81.75
  Q 109.21 80.51 110.56 83.71
  A 0.65 0.65 0.0 0 1 109.93 84.62
  Q 107.45 84.51 105.99 84.77
  C 102.92 85.34 101.96 88.75 104.42 90.58
  Q 105.95 91.71 108.73 90.98
  Q 109.16 90.86 109.36 90.58
  Q 109.56 90.30 109.68 90.16
  A 0.58 0.57 -39.4 0 1 110.61 90.25"
/>
<path stroke="#808080" vector-effect="non-scaling-stroke" d="
  M 120.74 88.42
  C 122.24 92.25 129.30 92.58 129.11 87.45
  A 2.67 2.26 7.1 0 0 127.09 85.26
  Q 125.20 84.80 123.78 84.27
  A 1.37 1.23 28.1 0 1 123.06 82.31
  Q 124.77 80.08 127.89 83.46
  A 0.32 0.32 0.0 0 0 128.43 83.34
  L 128.63 82.68
  A 1.15 1.14 28.1 0 0 128.25 81.45
  C 123.35 77.52 118.11 83.30 123.05 85.71
  Q 123.44 85.90 126.26 86.54
  A 1.61 1.41 23.4 0 1 127.35 88.83
  C 125.92 90.74 123.53 89.99 122.39 88.07
  A 0.84 0.83 -15.0 0 0 121.67 87.66
  L 121.25 87.66
  A 0.56 0.55 79.1 0 0 120.74 88.42"
/>
<path stroke="#808080" vector-effect="non-scaling-stroke" d="
  M 137.77 90.23
  L 138.13 90.85
  A 0.60 0.60 0.0 0 0 139.24 90.56
  C 139.27 88.25 139.80 82.99 138.30 81.36
  C 136.10 79.00 132.39 79.86 130.70 82.48
  A 0.83 0.83 0.0 0 0 131.82 83.64
  C 132.33 83.34 132.68 82.22 133.71 81.76
  Q 136.40 80.53 137.74 83.72
  A 0.65 0.65 0.0 0 1 137.11 84.62
  Q 134.64 84.51 133.19 84.76
  C 130.13 85.32 129.17 88.71 131.61 90.54
  Q 133.13 91.67 135.90 90.95
  Q 136.33 90.83 136.53 90.55
  Q 136.73 90.27 136.85 90.13
  A 0.57 0.57 0.0 0 1 137.77 90.23"
/>
<path stroke="#808080" vector-effect="non-scaling-stroke" d="
  M 154.86 86.06
  L 161.39 86.10
  A 1.58 1.57 75.3 0 0 162.77 83.75
  L 161.74 81.94
  A 3.67 3.66 -10.9 0 0 159.04 80.11
  C 153.75 79.40 151.14 84.65 153.53 88.85
  C 155.40 92.16 160.20 92.00 162.20 88.71
  A 0.63 0.62 4.6 0 0 161.43 87.81
  C 160.37 88.25 159.75 89.84 158.37 89.87
  Q 155.05 89.95 154.33 86.72
  A 0.54 0.54 0.0 0 1 154.86 86.06"
/>
<path stroke="#808080" vector-effect="non-scaling-stroke" d="
  M 181.32 86.08
  L 187.87 86.08
  A 1.58 1.57 74.9 0 0 189.23 83.71
  L 188.19 81.90
  A 3.67 3.67 0.0 0 0 185.47 80.09
  C 180.16 79.41 177.58 84.69 180.00 88.89
  C 181.90 92.19 186.71 92.00 188.70 88.69
  A 0.63 0.63 0.0 0 0 187.92 87.79
  C 186.86 88.24 186.25 89.84 184.86 89.88
  Q 181.54 89.98 180.79 86.75
  A 0.54 0.54 0.0 0 1 181.32 86.08"
/>
<path stroke="#808080" vector-effect="non-scaling-stroke" d="
  M 190.04 88.38
  C 191.51 92.22 198.57 92.61 198.42 87.47
  A 2.67 2.26 7.5 0 0 196.41 85.26
  Q 194.53 84.79 193.11 84.25
  A 1.38 1.23 28.5 0 1 192.40 82.28
  Q 194.13 80.06 197.23 83.47
  A 0.32 0.32 0.0 0 0 197.77 83.35
  L 197.98 82.69
  A 1.15 1.14 28.6 0 0 197.60 81.46
  C 192.73 77.49 187.44 83.24 192.37 85.68
  Q 192.76 85.88 195.57 86.54
  A 1.61 1.41 23.8 0 1 196.65 88.84
  C 195.20 90.74 192.82 89.97 191.69 88.04
  A 0.84 0.83 -14.6 0 0 190.97 87.63
  L 190.55 87.62
  A 0.56 0.55 79.6 0 0 190.04 88.38"
/>
<path stroke="#808080" vector-effect="non-scaling-stroke" d="
  M 201.73 86.04
  L 208.27 86.12
  A 1.58 1.57 75.7 0 0 209.66 83.77
  L 208.64 81.95
  A 3.67 3.67 0.0 0 0 205.95 80.11
  C 200.65 79.36 198.01 84.61 200.37 88.83
  C 202.23 92.15 207.04 92.02 209.06 88.74
  A 0.63 0.62 4.9 0 0 208.30 87.83
  C 207.23 88.27 206.60 89.86 205.21 89.88
  Q 201.90 89.94 201.19 86.70
  A 0.54 0.54 0.0 0 1 201.73 86.04"
/>
<path stroke="#808080" vector-effect="non-scaling-stroke" d="
  M 218.03 90.25
  L 218.38 90.88
  A 0.60 0.60 0.0 0 0 219.50 90.59
  C 219.54 88.28 220.10 83.02 218.61 81.39
  C 216.42 79.01 212.70 79.85 211.00 82.47
  A 0.83 0.83 0.0 0 0 212.11 83.63
  C 212.62 83.33 212.98 82.21 214.02 81.76
  Q 216.72 80.54 218.03 83.74
  A 0.65 0.65 0.0 0 1 217.40 84.64
  Q 214.93 84.51 213.48 84.76
  C 210.42 85.30 209.43 88.68 211.86 90.53
  Q 213.38 91.66 216.15 90.96
  Q 216.58 90.84 216.78 90.57
  Q 216.98 90.29 217.10 90.15
  A 0.57 0.57 0.0 0 1 218.03 90.25"
/>
<path stroke="#808080" vector-effect="non-scaling-stroke" d="
  M 222.66 81.30
  L 222.54 80.63
  A 0.63 0.63 0.0 0 0 221.29 80.75
  L 221.29 90.48
  A 0.57 0.57 0.0 0 0 221.86 91.05
  L 222.45 91.05
  A 0.55 0.55 0.0 0 0 223.00 90.47
  C 222.82 87.20 221.86 82.04 226.09 81.93
  A 0.98 0.97 89.4 0 0 227.04 80.95
  L 227.04 80.45
  A 0.56 0.55 82.8 0 0 226.35 79.91
  Q 224.42 80.39 223.40 81.51
  A 0.43 0.43 0.0 0 1 222.66 81.30"
/>
<path stroke="#808080" vector-effect="non-scaling-stroke" d="
  M 226.86 85.62
  C 226.82 89.83 230.37 92.17 234.17 90.86
  Q 236.24 90.15 236.63 88.23
  A 0.62 0.62 0.0 0 0 235.53 87.72
  L 234.75 88.71
  A 2.48 2.34 2.7 0 1 234.07 89.29
  C 231.14 90.97 228.41 88.69 228.44 85.63
  C 228.47 82.58 231.25 80.35 234.15 82.09
  A 2.48 2.34 -1.5 0 1 234.81 82.68
  L 235.57 83.69
  A 0.62 0.62 0.0 0 0 236.68 83.20
  Q 236.33 81.27 234.27 80.52
  C 230.50 79.13 226.90 81.41 226.86 85.62"
/>
<path stroke="#808080" vector-effect="non-scaling-stroke" d="
  M 119.1185 80.8214
  A 0.51 0.51 0.0 0 0 118.6094 80.3105
  L 118.0294 80.3095
  A 0.51 0.51 0.0 0 0 117.5185 80.8186
  L 117.5015 90.5586
  A 0.51 0.51 0.0 0 0 118.0106 91.0695
  L 118.5906 91.0705
  A 0.51 0.51 0.0 0 0 119.1015 90.5614
  L 119.1185 80.8214"
/>
<path stroke="#808080" vector-effect="non-scaling-stroke" d="
  M 145.7281 81.4821
  A 4.20 3.78 -91.8 0 0 142.0819 85.7987
  A 4.20 3.78 -91.8 0 0 145.9919 89.8779
  A 4.20 3.78 -91.8 0 0 149.6381 85.5613
  A 4.20 3.78 -91.8 0 0 145.7281 81.4821"
/>
<path stroke="#808080" vector-effect="non-scaling-stroke" d="
  M 94.45 77.76
  L 94.45 82.90
  A 0.40 0.40 0.0 0 0 94.84 83.30
  L 98.05 83.31
  A 2.95 2.43 0.1 0 0 101.01 80.89
  L 101.01 79.81
  A 2.95 2.43 0.1 0 0 98.07 77.37
  L 94.86 77.36
  A 0.40 0.40 0.0 0 0 94.45 77.76"
/>
<path stroke="#808080" vector-effect="non-scaling-stroke" d="
  M 170.47 77.76
  L 170.47 83.12
  A 0.41 0.41 0.0 0 0 170.89 83.52
  L 173.53 83.52
  A 3.43 2.81 -0.1 0 0 176.95 80.70
  L 176.95 80.14
  A 3.43 2.81 -0.1 0 0 173.51 77.34
  L 170.87 77.34
  A 0.41 0.41 0.0 0 0 170.47 77.76"
/>
<path stroke="#808080" vector-effect="non-scaling-stroke" d="
  M 110.06 86.02
  Q 107.54 85.85 106.06 86.18
  A 1.69 1.61 -22.8 0 0 104.98 88.66
  C 106.78 91.35 110.22 89.26 110.57 86.64
  A 0.55 0.55 0.0 0 0 110.06 86.02"
/>
<path stroke="#808080" vector-effect="non-scaling-stroke" d="
  M 137.19 86.02
  Q 134.67 85.84 133.20 86.17
  A 1.69 1.60 -22.6 0 0 132.10 88.65
  C 133.89 91.33 137.33 89.26 137.69 86.64
  A 0.55 0.55 0.0 0 0 137.19 86.02"
/>
<path stroke="#808080" vector-effect="non-scaling-stroke" d="
  M 154.52 84.71
  L 160.94 84.69
  A 0.13 0.13 0.0 0 0 161.07 84.56
  L 161.07 84.52
  A 3.21 3.07 -0.2 0 0 157.84 81.46
  L 157.58 81.46
  A 3.21 3.07 -0.2 0 0 154.39 84.54
  L 154.39 84.58
  A 0.13 0.13 0.0 0 0 154.52 84.71"
/>
<path stroke="#808080" vector-effect="non-scaling-stroke" d="
  M 181.01 84.70
  L 187.55 84.70
  A 0.12 0.12 0.0 0 0 187.67 84.58
  L 187.67 84.52
  A 3.29 3.04 -0.0 0 0 184.38 81.48
  L 184.18 81.48
  A 3.29 3.04 0.0 0 0 180.89 84.52
  L 180.89 84.58
  A 0.12 0.12 0.0 0 0 181.01 84.70"
/>
<path stroke="#808080" vector-effect="non-scaling-stroke" d="
  M 201.35 84.73
  L 207.87 84.67
  A 0.12 0.12 0.0 0 0 207.99 84.55
  L 207.99 84.49
  A 3.28 3.04 -0.5 0 0 204.69 81.48
  L 204.49 81.48
  A 3.28 3.04 -0.5 0 0 201.23 84.55
  L 201.23 84.61
  A 0.12 0.12 0.0 0 0 201.35 84.73"
/>
<path stroke="#808080" vector-effect="non-scaling-stroke" d="
  M 217.51 86.02
  Q 215.00 85.87 213.54 86.21
  A 1.68 1.60 -23.3 0 0 212.48 88.69
  C 214.29 91.34 217.69 89.24 218.02 86.63
  A 0.55 0.54 5.5 0 0 217.51 86.02"
/>
</g>
<path fill="#ffffff" d="
  M 299.00 0.00
  L 299.00 168.00
  L 0.00 168.00
  L 0.00 0.00
  L 299.00 0.00
  Z
  M 64.11 93.38
  L 66.87 93.38
  A 1.15 1.15 0.0 0 0 68.02 92.23
  L 68.05 79.25
  A 8.07 2.41 -89.9 0 0 65.65 71.18
  L 65.41 71.18
  A 8.07 2.41 -89.9 0 0 62.99 79.25
  L 62.96 92.23
  A 1.15 1.15 0.0 0 0 64.11 93.38
  Z
  M 61.72 92.06
  L 61.72 78.02
  A 1.21 1.20 33.5 0 0 61.62 77.54
  L 60.00 73.85
  A 0.58 0.58 0.0 0 0 58.96 73.80
  L 57.16 76.92
  A 1.26 1.26 0.0 0 0 56.98 77.57
  L 56.98 90.54
  A 0.88 0.87 8.6 0 0 57.60 91.37
  L 61.18 92.46
  A 0.42 0.42 0.0 0 0 61.72 92.06
  Z
  M 69.25 92.07
  A 0.42 0.42 0.0 0 0 69.79 92.47
  L 73.38 91.39
  A 0.88 0.87 -8.4 0 0 74.00 90.56
  L 74.06 77.58
  A 1.26 1.26 0.0 0 0 73.88 76.93
  L 72.09 73.80
  A 0.58 0.58 0.0 0 0 71.05 73.85
  L 69.41 77.53
  A 1.21 1.20 -33.2 0 0 69.31 78.01
  L 69.25 92.07
  Z
  M 240.00 90.48
  L 240.00 84.82
  A 3.25 3.24 85.7 0 1 242.75 81.61
  L 243.04 81.57
  A 2.47 2.46 84.4 0 1 245.97 83.98
  L 246.00 90.33
  A 0.79 0.78 -88.8 0 0 246.74 91.11
  L 246.79 91.11
  A 0.77 0.77 0.0 0 0 247.55 90.33
  C 247.53 87.62 248.06 82.72 246.52 81.24
  C 244.62 79.39 242.51 79.60 240.65 81.38
  A 0.41 0.41 0.0 0 1 239.95 81.08
  L 240.01 76.52
  A 0.91 0.91 0.0 0 0 239.22 75.61
  L 239.15 75.60
  A 0.74 0.73 2.8 0 0 238.34 76.33
  L 238.36 90.54
  A 0.53 0.53 0.0 0 0 238.89 91.07
  L 239.42 91.07
  A 0.59 0.58 90.0 0 0 240.00 90.48
  Z
  M 115.34 76.07
  A 0.41 0.41 0.0 0 0 114.93 75.66
  L 114.23 75.66
  A 0.41 0.41 0.0 0 0 113.82 76.07
  L 113.82 90.61
  A 0.41 0.41 0.0 0 0 114.23 91.02
  L 114.93 91.02
  A 0.41 0.41 0.0 0 0 115.34 90.61
  L 115.34 76.07
  Z
  M 117.51 77.51
  Q 117.99 77.98 118.40 78.01
  A 0.74 0.74 0.0 0 0 119.16 77.51
  Q 119.52 76.41 119.03 75.94
  Q 118.55 75.47 117.46 75.86
  A 0.74 0.74 0.0 0 0 116.98 76.63
  Q 117.03 77.05 117.51 77.51
  Z
  M 149.70 90.20
  Q 149.65 90.38 149.99 90.84
  A 0.68 0.68 0.0 0 0 151.22 90.44
  L 151.22 76.14
  A 0.53 0.52 -90.0 0 0 150.70 75.61
  L 150.28 75.61
  A 0.56 0.56 0.0 0 0 149.72 76.17
  L 149.72 81.13
  A 0.34 0.34 0.0 0 1 149.17 81.40
  C 143.71 77.03 138.44 83.72 141.33 88.79
  Q 143.24 92.15 148.04 90.84
  Q 148.11 90.82 148.53 90.34
  Q 148.72 90.13 149.23 89.83
  A 0.32 0.32 0.0 0 1 149.70 90.20
  Z
  M 95.07 84.67
  C 98.32 84.47 101.91 85.16 102.63 81.19
  C 103.65 75.59 97.24 75.78 93.45 76.10
  A 0.60 0.60 0.0 0 0 92.90 76.70
  L 92.90 90.46
  A 0.60 0.60 0.0 0 0 93.50 91.06
  L 93.85 91.06
  A 0.61 0.60 0.0 0 0 94.46 90.46
  L 94.46 85.32
  A 0.65 0.65 0.0 0 1 95.07 84.67
  Z
  M 170.47 90.49
  L 170.47 85.41
  A 0.59 0.59 0.0 0 1 171.06 84.82
  L 172.99 84.82
  A 0.90 0.89 74.7 0 1 173.76 85.26
  L 176.75 90.45
  A 1.28 1.28 0.0 0 0 177.85 91.08
  L 178.18 91.08
  A 0.51 0.50 74.8 0 0 178.61 90.32
  L 175.70 85.28
  A 0.65 0.64 -29.5 0 1 175.95 84.40
  Q 179.92 82.22 177.96 78.13
  C 176.72 75.53 172.33 75.90 169.51 76.06
  A 0.60 0.60 0.0 0 0 168.94 76.66
  L 168.94 90.44
  A 0.65 0.64 90.0 0 0 169.58 91.09
  L 169.88 91.09
  A 0.60 0.59 -90.0 0 0 170.47 90.49
  Z
  M 55.56 90.31
  Q 55.54 83.53 55.47 81.03
  Q 55.45 80.20 53.81 77.11
  A 0.47 0.46 51.5 0 0 53.05 77.02
  C 50.06 80.40 50.84 83.34 50.90 88.88
  A 0.69 0.68 -82.2 0 0 51.39 89.54
  L 55.08 90.67
  A 0.38 0.37 -81.4 0 0 55.56 90.31
  Z
  M 75.50 90.33
  A 0.37 0.37 0.0 0 0 75.98 90.69
  L 79.66 89.55
  A 0.69 0.67 82.1 0 0 80.15 88.89
  C 80.20 83.36 80.97 80.42 77.98 77.06
  A 0.47 0.46 -51.7 0 0 77.22 77.15
  Q 75.59 80.24 75.57 81.07
  Q 75.51 83.56 75.50 90.33
  Z
  M 110.61 90.25
  L 110.97 90.88
  A 0.60 0.60 0.0 0 0 112.09 90.58
  C 112.11 88.26 112.63 82.97 111.12 81.34
  C 108.90 78.97 105.17 79.85 103.48 82.49
  A 0.83 0.83 0.0 0 0 104.61 83.65
  C 105.12 83.34 105.47 82.22 106.51 81.75
  Q 109.21 80.51 110.56 83.71
  A 0.65 0.65 0.0 0 1 109.93 84.62
  Q 107.45 84.51 105.99 84.77
  C 102.92 85.34 101.96 88.75 104.42 90.58
  Q 105.95 91.71 108.73 90.98
  Q 109.16 90.86 109.36 90.58
  Q 109.56 90.30 109.68 90.16
  A 0.58 0.57 -39.4 0 1 110.61 90.25
  Z
  M 120.74 88.42
  C 122.24 92.25 129.30 92.58 129.11 87.45
  A 2.67 2.26 7.1 0 0 127.09 85.26
  Q 125.20 84.80 123.78 84.27
  A 1.37 1.23 28.1 0 1 123.06 82.31
  Q 124.77 80.08 127.89 83.46
  A 0.32 0.32 0.0 0 0 128.43 83.34
  L 128.63 82.68
  A 1.15 1.14 28.1 0 0 128.25 81.45
  C 123.35 77.52 118.11 83.30 123.05 85.71
  Q 123.44 85.90 126.26 86.54
  A 1.61 1.41 23.4 0 1 127.35 88.83
  C 125.92 90.74 123.53 89.99 122.39 88.07
  A 0.84 0.83 -15.0 0 0 121.67 87.66
  L 121.25 87.66
  A 0.56 0.55 79.1 0 0 120.74 88.42
  Z
  M 137.77 90.23
  L 138.13 90.85
  A 0.60 0.60 0.0 0 0 139.24 90.56
  C 139.27 88.25 139.80 82.99 138.30 81.36
  C 136.10 79.00 132.39 79.86 130.70 82.48
  A 0.83 0.83 0.0 0 0 131.82 83.64
  C 132.33 83.34 132.68 82.22 133.71 81.76
  Q 136.40 80.53 137.74 83.72
  A 0.65 0.65 0.0 0 1 137.11 84.62
  Q 134.64 84.51 133.19 84.76
  C 130.13 85.32 129.17 88.71 131.61 90.54
  Q 133.13 91.67 135.90 90.95
  Q 136.33 90.83 136.53 90.55
  Q 136.73 90.27 136.85 90.13
  A 0.57 0.57 0.0 0 1 137.77 90.23
  Z
  M 154.86 86.06
  L 161.39 86.10
  A 1.58 1.57 75.3 0 0 162.77 83.75
  L 161.74 81.94
  A 3.67 3.66 -10.9 0 0 159.04 80.11
  C 153.75 79.40 151.14 84.65 153.53 88.85
  C 155.40 92.16 160.20 92.00 162.20 88.71
  A 0.63 0.62 4.6 0 0 161.43 87.81
  C 160.37 88.25 159.75 89.84 158.37 89.87
  Q 155.05 89.95 154.33 86.72
  A 0.54 0.54 0.0 0 1 154.86 86.06
  Z
  M 181.32 86.08
  L 187.87 86.08
  A 1.58 1.57 74.9 0 0 189.23 83.71
  L 188.19 81.90
  A 3.67 3.67 0.0 0 0 185.47 80.09
  C 180.16 79.41 177.58 84.69 180.00 88.89
  C 181.90 92.19 186.71 92.00 188.70 88.69
  A 0.63 0.63 0.0 0 0 187.92 87.79
  C 186.86 88.24 186.25 89.84 184.86 89.88
  Q 181.54 89.98 180.79 86.75
  A 0.54 0.54 0.0 0 1 181.32 86.08
  Z
  M 190.04 88.38
  C 191.51 92.22 198.57 92.61 198.42 87.47
  A 2.67 2.26 7.5 0 0 196.41 85.26
  Q 194.53 84.79 193.11 84.25
  A 1.38 1.23 28.5 0 1 192.40 82.28
  Q 194.13 80.06 197.23 83.47
  A 0.32 0.32 0.0 0 0 197.77 83.35
  L 197.98 82.69
  A 1.15 1.14 28.6 0 0 197.60 81.46
  C 192.73 77.49 187.44 83.24 192.37 85.68
  Q 192.76 85.88 195.57 86.54
  A 1.61 1.41 23.8 0 1 196.65 88.84
  C 195.20 90.74 192.82 89.97 191.69 88.04
  A 0.84 0.83 -14.6 0 0 190.97 87.63
  L 190.55 87.62
  A 0.56 0.55 79.6 0 0 190.04 88.38
  Z
  M 201.73 86.04
  L 208.27 86.12
  A 1.58 1.57 75.7 0 0 209.66 83.77
  L 208.64 81.95
  A 3.67 3.67 0.0 0 0 205.95 80.11
  C 200.65 79.36 198.01 84.61 200.37 88.83
  C 202.23 92.15 207.04 92.02 209.06 88.74
  A 0.63 0.62 4.9 0 0 208.30 87.83
  C 207.23 88.27 206.60 89.86 205.21 89.88
  Q 201.90 89.94 201.19 86.70
  A 0.54 0.54 0.0 0 1 201.73 86.04
  Z
  M 218.03 90.25
  L 218.38 90.88
  A 0.60 0.60 0.0 0 0 219.50 90.59
  C 219.54 88.28 220.10 83.02 218.61 81.39
  C 216.42 79.01 212.70 79.85 211.00 82.47
  A 0.83 0.83 0.0 0 0 212.11 83.63
  C 212.62 83.33 212.98 82.21 214.02 81.76
  Q 216.72 80.54 218.03 83.74
  A 0.65 0.65 0.0 0 1 217.40 84.64
  Q 214.93 84.51 213.48 84.76
  C 210.42 85.30 209.43 88.68 211.86 90.53
  Q 213.38 91.66 216.15 90.96
  Q 216.58 90.84 216.78 90.57
  Q 216.98 90.29 217.10 90.15
  A 0.57 0.57 0.0 0 1 218.03 90.25
  Z
  M 222.66 81.30
  L 222.54 80.63
  A 0.63 0.63 0.0 0 0 221.29 80.75
  L 221.29 90.48
  A 0.57 0.57 0.0 0 0 221.86 91.05
  L 222.45 91.05
  A 0.55 0.55 0.0 0 0 223.00 90.47
  C 222.82 87.20 221.86 82.04 226.09 81.93
  A 0.98 0.97 89.4 0 0 227.04 80.95
  L 227.04 80.45
  A 0.56 0.55 82.8 0 0 226.35 79.91
  Q 224.42 80.39 223.40 81.51
  A 0.43 0.43 0.0 0 1 222.66 81.30
  Z
  M 226.86 85.62
  C 226.82 89.83 230.37 92.17 234.17 90.86
  Q 236.24 90.15 236.63 88.23
  A 0.62 0.62 0.0 0 0 235.53 87.72
  L 234.75 88.71
  A 2.48 2.34 2.7 0 1 234.07 89.29
  C 231.14 90.97 228.41 88.69 228.44 85.63
  C 228.47 82.58 231.25 80.35 234.15 82.09
  A 2.48 2.34 -1.5 0 1 234.81 82.68
  L 235.57 83.69
  A 0.62 0.62 0.0 0 0 236.68 83.20
  Q 236.33 81.27 234.27 80.52
  C 230.50 79.13 226.90 81.41 226.86 85.62
  Z
  M 119.1185 80.8214
  A 0.51 0.51 0.0 0 0 118.6094 80.3105
  L 118.0294 80.3095
  A 0.51 0.51 0.0 0 0 117.5185 80.8186
  L 117.5015 90.5586
  A 0.51 0.51 0.0 0 0 118.0106 91.0695
  L 118.5906 91.0705
  A 0.51 0.51 0.0 0 0 119.1015 90.5614
  L 119.1185 80.8214
  Z"
/>
<path fill="#000000" d="
  M 64.11 93.38
  A 1.15 1.15 0.0 0 1 62.96 92.23
  L 62.99 79.25
  A 8.07 2.41 -89.9 0 1 65.41 71.18
  L 65.65 71.18
  A 8.07 2.41 -89.9 0 1 68.05 79.25
  L 68.02 92.23
  A 1.15 1.15 0.0 0 1 66.87 93.38
  L 64.11 93.38
  Z"
/>
<path fill="#000000" d="
  M 61.72 92.06
  A 0.42 0.42 0.0 0 1 61.18 92.46
  L 57.60 91.37
  A 0.88 0.87 8.6 0 1 56.98 90.54
  L 56.98 77.57
  A 1.26 1.26 0.0 0 1 57.16 76.92
  L 58.96 73.80
  A 0.58 0.58 0.0 0 1 60.00 73.85
  L 61.62 77.54
  A 1.21 1.20 33.5 0 1 61.72 78.02
  L 61.72 92.06
  Z"
/>
<path fill="#000000" d="
  M 69.25 92.07
  L 69.31 78.01
  A 1.21 1.20 -33.2 0 1 69.41 77.53
  L 71.05 73.85
  A 0.58 0.58 0.0 0 1 72.09 73.80
  L 73.88 76.93
  A 1.26 1.26 0.0 0 1 74.06 77.58
  L 74.00 90.56
  A 0.88 0.87 -8.4 0 1 73.38 91.39
  L 69.79 92.47
  A 0.42 0.42 0.0 0 1 69.25 92.07
  Z"
/>
<path fill="#000000" d="
  M 240.00 90.48
  A 0.59 0.58 90.0 0 1 239.42 91.07
  L 238.89 91.07
  A 0.53 0.53 0.0 0 1 238.36 90.54
  L 238.34 76.33
  A 0.74 0.73 2.8 0 1 239.15 75.60
  L 239.22 75.61
  A 0.91 0.91 0.0 0 1 240.01 76.52
  L 239.95 81.08
  A 0.41 0.41 0.0 0 0 240.65 81.38
  C 242.51 79.60 244.62 79.39 246.52 81.24
  C 248.06 82.72 247.53 87.62 247.55 90.33
  A 0.77 0.77 0.0 0 1 246.79 91.11
  L 246.74 91.11
  A 0.79 0.78 -88.8 0 1 246.00 90.33
  L 245.97 83.98
  A 2.47 2.46 84.4 0 0 243.04 81.57
  L 242.75 81.61
  A 3.25 3.24 85.7 0 0 240.00 84.82
  L 240.00 90.48
  Z"
/>
<rect fill="#000000" x="113.82" y="75.66" width="1.52" height="15.36" rx="0.41"/>
<path fill="#000000" d="
  M 119.03 75.94
  Q 119.52 76.41 119.16 77.51
  A 0.74 0.74 0.0 0 1 118.40 78.01
  Q 117.99 77.98 117.51 77.51
  Q 117.03 77.05 116.98 76.63
  A 0.74 0.74 0.0 0 1 117.46 75.86
  Q 118.55 75.47 119.03 75.94
  Z"
/>
<path fill="#000000" d="
  M 149.23 89.83
  Q 148.72 90.13 148.53 90.34
  Q 148.11 90.82 148.04 90.84
  Q 143.24 92.15 141.33 88.79
  C 138.44 83.72 143.71 77.03 149.17 81.40
  A 0.34 0.34 0.0 0 0 149.72 81.13
  L 149.72 76.17
  A 0.56 0.56 0.0 0 1 150.28 75.61
  L 150.70 75.61
  A 0.53 0.52 90.0 0 1 151.22 76.14
  L 151.22 90.44
  A 0.68 0.68 0.0 0 1 149.99 90.84
  Q 149.65 90.38 149.70 90.20
  A 0.32 0.32 0.0 0 0 149.23 89.83
  Z
  M 145.7281 81.4821
  A 4.20 3.78 -91.8 0 0 142.0819 85.7987
  A 4.20 3.78 -91.8 0 0 145.9919 89.8779
  A 4.20 3.78 -91.8 0 0 149.6381 85.5613
  A 4.20 3.78 -91.8 0 0 145.7281 81.4821
  Z"
/>
<path fill="#000000" d="
  M 94.46 85.32
  L 94.46 90.46
  A 0.61 0.60 -0.0 0 1 93.85 91.06
  L 93.50 91.06
  A 0.60 0.60 0.0 0 1 92.90 90.46
  L 92.90 76.70
  A 0.60 0.60 0.0 0 1 93.45 76.10
  C 97.24 75.78 103.65 75.59 102.63 81.19
  C 101.91 85.16 98.32 84.47 95.07 84.67
  A 0.65 0.65 0.0 0 0 94.46 85.32
  Z
  M 94.45 77.76
  L 94.45 82.90
  A 0.40 0.40 0.0 0 0 94.84 83.30
  L 98.05 83.31
  A 2.95 2.43 0.1 0 0 101.01 80.89
  L 101.01 79.81
  A 2.95 2.43 0.1 0 0 98.07 77.37
  L 94.86 77.36
  A 0.40 0.40 0.0 0 0 94.45 77.76
  Z"
/>
<path fill="#000000" d="
  M 170.47 90.49
  A 0.60 0.59 -90.0 0 1 169.88 91.09
  L 169.58 91.09
  A 0.65 0.64 -90.0 0 1 168.94 90.44
  L 168.94 76.66
  A 0.60 0.60 0.0 0 1 169.51 76.06
  C 172.33 75.90 176.72 75.53 177.96 78.13
  Q 179.92 82.22 175.95 84.40
  A 0.65 0.64 -29.5 0 0 175.70 85.28
  L 178.61 90.32
  A 0.51 0.50 74.8 0 1 178.18 91.08
  L 177.85 91.08
  A 1.28 1.28 0.0 0 1 176.75 90.45
  L 173.76 85.26
  A 0.90 0.89 74.7 0 0 172.99 84.82
  L 171.06 84.82
  A 0.59 0.59 0.0 0 0 170.47 85.41
  L 170.47 90.49
  Z
  M 170.47 77.76
  L 170.47 83.12
  A 0.41 0.41 0.0 0 0 170.89 83.52
  L 173.53 83.52
  A 3.43 2.81 -0.1 0 0 176.95 80.70
  L 176.95 80.14
  A 3.43 2.81 -0.1 0 0 173.51 77.34
  L 170.87 77.34
  A 0.41 0.41 0.0 0 0 170.47 77.76
  Z"
/>
<path fill="#000000" d="
  M 55.56 90.31
  A 0.38 0.37 -81.4 0 1 55.08 90.67
  L 51.39 89.54
  A 0.69 0.68 -82.2 0 1 50.90 88.88
  C 50.84 83.34 50.06 80.40 53.05 77.02
  A 0.47 0.46 51.5 0 1 53.81 77.11
  Q 55.45 80.20 55.47 81.03
  Q 55.54 83.53 55.56 90.31
  Z"
/>
<path fill="#000000" d="
  M 75.50 90.33
  Q 75.51 83.56 75.57 81.07
  Q 75.59 80.24 77.22 77.15
  A 0.47 0.46 -51.7 0 1 77.98 77.06
  C 80.97 80.42 80.20 83.36 80.15 88.89
  A 0.69 0.67 82.1 0 1 79.66 89.55
  L 75.98 90.69
  A 0.37 0.37 0.0 0 1 75.50 90.33
  Z"
/>
<path fill="#ffffff" d="
  M 94.45 77.76
  A 0.40 0.40 0.0 0 1 94.86 77.36
  L 98.07 77.37
  A 2.95 2.43 0.1 0 1 101.01 79.81
  L 101.01 80.89
  A 2.95 2.43 0.1 0 1 98.05 83.31
  L 94.84 83.30
  A 0.40 0.40 0.0 0 1 94.45 82.90
  L 94.45 77.76
  Z"
/>
<path fill="#ffffff" d="
  M 170.47 77.76
  A 0.41 0.41 0.0 0 1 170.87 77.34
  L 173.51 77.34
  A 3.43 2.81 -0.1 0 1 176.95 80.14
  L 176.95 80.70
  A 3.43 2.81 -0.1 0 1 173.53 83.52
  L 170.89 83.52
  A 0.41 0.41 0.0 0 1 170.47 83.12
  L 170.47 77.76
  Z"
/>
<path fill="#000000" d="
  M 109.68 90.16
  Q 109.56 90.30 109.36 90.58
  Q 109.16 90.86 108.73 90.98
  Q 105.95 91.71 104.42 90.58
  C 101.96 88.75 102.92 85.34 105.99 84.77
  Q 107.45 84.51 109.93 84.62
  A 0.65 0.65 0.0 0 0 110.56 83.71
  Q 109.21 80.51 106.51 81.75
  C 105.47 82.22 105.12 83.34 104.61 83.65
  A 0.83 0.83 0.0 0 1 103.48 82.49
  C 105.17 79.85 108.90 78.97 111.12 81.34
  C 112.63 82.97 112.11 88.26 112.09 90.58
  A 0.60 0.60 0.0 0 1 110.97 90.88
  L 110.61 90.25
  A 0.58 0.57 -39.4 0 0 109.68 90.16
  Z
  M 110.06 86.02
  Q 107.54 85.85 106.06 86.18
  A 1.69 1.61 -22.8 0 0 104.98 88.66
  C 106.78 91.35 110.22 89.26 110.57 86.64
  A 0.55 0.55 0.0 0 0 110.06 86.02
  Z"
/>
<path fill="#000000" d="
  M 120.74 88.42
  A 0.56 0.55 79.1 0 1 121.25 87.66
  L 121.67 87.66
  A 0.84 0.83 -15.0 0 1 122.39 88.07
  C 123.53 89.99 125.92 90.74 127.35 88.83
  A 1.61 1.41 23.4 0 0 126.26 86.54
  Q 123.44 85.90 123.05 85.71
  C 118.11 83.30 123.35 77.52 128.25 81.45
  A 1.15 1.14 28.1 0 1 128.63 82.68
  L 128.43 83.34
  A 0.32 0.32 0.0 0 1 127.89 83.46
  Q 124.77 80.08 123.06 82.31
  A 1.37 1.23 28.1 0 0 123.78 84.27
  Q 125.20 84.80 127.09 85.26
  A 2.67 2.26 7.1 0 1 129.11 87.45
  C 129.30 92.58 122.24 92.25 120.74 88.42
  Z"
/>
<path fill="#000000" d="
  M 137.77 90.23
  A 0.57 0.57 0.0 0 0 136.85 90.13
  Q 136.73 90.27 136.53 90.55
  Q 136.33 90.83 135.90 90.95
  Q 133.13 91.67 131.61 90.54
  C 129.17 88.71 130.13 85.32 133.19 84.76
  Q 134.64 84.51 137.11 84.62
  A 0.65 0.65 0.0 0 0 137.74 83.72
  Q 136.40 80.53 133.71 81.76
  C 132.68 82.22 132.33 83.34 131.82 83.64
  A 0.83 0.83 0.0 0 1 130.70 82.48
  C 132.39 79.86 136.10 79.00 138.30 81.36
  C 139.80 82.99 139.27 88.25 139.24 90.56
  A 0.60 0.60 0.0 0 1 138.13 90.85
  L 137.77 90.23
  Z
  M 137.19 86.02
  Q 134.67 85.84 133.20 86.17
  A 1.69 1.60 -22.6 0 0 132.10 88.65
  C 133.89 91.33 137.33 89.26 137.69 86.64
  A 0.55 0.55 0.0 0 0 137.19 86.02
  Z"
/>
<path fill="#000000" d="
  M 154.86 86.06
  A 0.54 0.54 0.0 0 0 154.33 86.72
  Q 155.05 89.95 158.37 89.87
  C 159.75 89.84 160.37 88.25 161.43 87.81
  A 0.63 0.62 4.6 0 1 162.20 88.71
  C 160.20 92.00 155.40 92.16 153.53 88.85
  C 151.14 84.65 153.75 79.40 159.04 80.11
  A 3.67 3.66 -10.9 0 1 161.74 81.94
  L 162.77 83.75
  A 1.58 1.57 75.3 0 1 161.39 86.10
  L 154.86 86.06
  Z
  M 154.52 84.71
  L 160.94 84.69
  A 0.13 0.13 0.0 0 0 161.07 84.56
  L 161.07 84.52
  A 3.21 3.07 -0.2 0 0 157.84 81.46
  L 157.58 81.46
  A 3.21 3.07 -0.2 0 0 154.39 84.54
  L 154.39 84.58
  A 0.13 0.13 0.0 0 0 154.52 84.71
  Z"
/>
<path fill="#000000" d="
  M 180.79 86.75
  Q 181.54 89.98 184.86 89.88
  C 186.25 89.84 186.86 88.24 187.92 87.79
  A 0.63 0.63 0.0 0 1 188.70 88.69
  C 186.71 92.00 181.90 92.19 180.00 88.89
  C 177.58 84.69 180.16 79.41 185.47 80.09
  A 3.67 3.67 0.0 0 1 188.19 81.90
  L 189.23 83.71
  A 1.58 1.57 74.9 0 1 187.87 86.08
  L 181.32 86.08
  A 0.54 0.54 0.0 0 0 180.79 86.75
  Z
  M 181.01 84.70
  L 187.55 84.70
  A 0.12 0.12 0.0 0 0 187.67 84.58
  L 187.67 84.52
  A 3.29 3.04 -0.0 0 0 184.38 81.48
  L 184.18 81.48
  A 3.29 3.04 0.0 0 0 180.89 84.52
  L 180.89 84.58
  A 0.12 0.12 0.0 0 0 181.01 84.70
  Z"
/>
<path fill="#000000" d="
  M 190.04 88.38
  A 0.56 0.55 79.6 0 1 190.55 87.62
  L 190.97 87.63
  A 0.84 0.83 -14.6 0 1 191.69 88.04
  C 192.82 89.97 195.20 90.74 196.65 88.84
  A 1.61 1.41 23.8 0 0 195.57 86.54
  Q 192.76 85.88 192.37 85.68
  C 187.44 83.24 192.73 77.49 197.60 81.46
  A 1.15 1.14 28.6 0 1 197.98 82.69
  L 197.77 83.35
  A 0.32 0.32 0.0 0 1 197.23 83.47
  Q 194.13 80.06 192.40 82.28
  A 1.38 1.23 28.5 0 0 193.11 84.25
  Q 194.53 84.79 196.41 85.26
  A 2.67 2.26 7.5 0 1 198.42 87.47
  C 198.57 92.61 191.51 92.22 190.04 88.38
  Z"
/>
<path fill="#000000" d="
  M 201.73 86.04
  A 0.54 0.54 0.0 0 0 201.19 86.70
  Q 201.90 89.94 205.21 89.88
  C 206.60 89.86 207.23 88.27 208.30 87.83
  A 0.63 0.62 4.9 0 1 209.06 88.74
  C 207.04 92.02 202.23 92.15 200.37 88.83
  C 198.01 84.61 200.65 79.36 205.95 80.11
  A 3.67 3.67 0.0 0 1 208.64 81.95
  L 209.66 83.77
  A 1.58 1.57 75.7 0 1 208.27 86.12
  L 201.73 86.04
  Z
  M 201.35 84.73
  L 207.87 84.67
  A 0.12 0.12 0.0 0 0 207.99 84.55
  L 207.99 84.49
  A 3.28 3.04 -0.5 0 0 204.69 81.48
  L 204.49 81.48
  A 3.28 3.04 -0.5 0 0 201.23 84.55
  L 201.23 84.61
  A 0.12 0.12 0.0 0 0 201.35 84.73
  Z"
/>
<path fill="#000000" d="
  M 218.03 90.25
  A 0.57 0.57 0.0 0 0 217.10 90.15
  Q 216.98 90.29 216.78 90.57
  Q 216.58 90.84 216.15 90.96
  Q 213.38 91.66 211.86 90.53
  C 209.43 88.68 210.42 85.30 213.48 84.76
  Q 214.93 84.51 217.40 84.64
  A 0.65 0.65 0.0 0 0 218.03 83.74
  Q 216.72 80.54 214.02 81.76
  C 212.98 82.21 212.62 83.33 212.11 83.63
  A 0.83 0.83 0.0 0 1 211.00 82.47
  C 212.70 79.85 216.42 79.01 218.61 81.39
  C 220.10 83.02 219.54 88.28 219.50 90.59
  A 0.60 0.60 0.0 0 1 218.38 90.88
  L 218.03 90.25
  Z
  M 217.51 86.02
  Q 215.00 85.87 213.54 86.21
  A 1.68 1.60 -23.3 0 0 212.48 88.69
  C 214.29 91.34 217.69 89.24 218.02 86.63
  A 0.55 0.54 5.5 0 0 217.51 86.02
  Z"
/>
<path fill="#000000" d="
  M 223.40 81.51
  Q 224.42 80.39 226.35 79.91
  A 0.56 0.55 82.8 0 1 227.04 80.45
  L 227.04 80.95
  A 0.98 0.97 89.4 0 1 226.09 81.93
  C 221.86 82.04 222.82 87.20 223.00 90.47
  A 0.55 0.55 0.0 0 1 222.45 91.05
  L 221.86 91.05
  A 0.57 0.57 0.0 0 1 221.29 90.48
  L 221.29 80.75
  A 0.63 0.63 0.0 0 1 222.54 80.63
  L 222.66 81.30
  A 0.43 0.43 0.0 0 0 223.40 81.51
  Z"
/>
<path fill="#000000" d="
  M 228.44 85.63
  C 228.41 88.69 231.14 90.97 234.07 89.29
  A 2.48 2.34 2.7 0 0 234.75 88.71
  L 235.53 87.72
  A 0.62 0.62 0.0 0 1 236.63 88.23
  Q 236.24 90.15 234.17 90.86
  C 230.37 92.17 226.82 89.83 226.86 85.62
  C 226.90 81.41 230.50 79.13 234.27 80.52
  Q 236.33 81.27 236.68 83.20
  A 0.62 0.62 0.0 0 1 235.57 83.69
  L 234.81 82.68
  A 2.48 2.34 -1.5 0 0 234.15 82.09
  C 231.25 80.35 228.47 82.58 228.44 85.63
  Z"
/>
<rect fill="#000000" x="-0.80" y="-5.38" transform="translate(118.31,85.69) rotate(0.1)" width="1.60" height="10.76" rx="0.51"/>
<path fill="#ffffff" d="
  M 154.52 84.71
  A 0.13 0.13 0.0 0 1 154.39 84.58
  L 154.39 84.54
  A 3.21 3.07 -0.2 0 1 157.58 81.46
  L 157.84 81.46
  A 3.21 3.07 -0.2 0 1 161.07 84.52
  L 161.07 84.56
  A 0.13 0.13 0.0 0 1 160.94 84.69
  L 154.52 84.71
  Z"
/>
<ellipse fill="#ffffff" cx="0.00" cy="0.00" transform="translate(145.86,85.68) rotate(-91.8)" rx="4.20" ry="3.78"/>
<path fill="#ffffff" d="
  M 181.01 84.70
  A 0.12 0.12 0.0 0 1 180.89 84.58
  L 180.89 84.52
  A 3.29 3.04 0.0 0 1 184.18 81.48
  L 184.38 81.48
  A 3.29 3.04 0.0 0 1 187.67 84.52
  L 187.67 84.58
  A 0.12 0.12 0.0 0 1 187.55 84.70
  L 181.01 84.70
  Z"
/>
<path fill="#ffffff" d="
  M 201.35 84.73
  A 0.12 0.12 0.0 0 1 201.23 84.61
  L 201.23 84.55
  A 3.28 3.04 -0.5 0 1 204.49 81.48
  L 204.69 81.48
  A 3.28 3.04 -0.5 0 1 207.99 84.49
  L 207.99 84.55
  A 0.12 0.12 0.0 0 1 207.87 84.67
  L 201.35 84.73
  Z"
/>
<path fill="#ffffff" d="
  M 110.06 86.02
  A 0.55 0.55 0.0 0 1 110.57 86.64
  C 110.22 89.26 106.78 91.35 104.98 88.66
  A 1.69 1.61 -22.8 0 1 106.06 86.18
  Q 107.54 85.85 110.06 86.02
  Z"
/>
<path fill="#ffffff" d="
  M 137.19 86.02
  A 0.55 0.55 0.0 0 1 137.69 86.64
  C 137.33 89.26 133.89 91.33 132.10 88.65
  A 1.69 1.60 -22.6 0 1 133.20 86.17
  Q 134.67 85.84 137.19 86.02
  Z"
/>
<path fill="#ffffff" d="
  M 218.02 86.63
  C 217.69 89.24 214.29 91.34 212.48 88.69
  A 1.68 1.60 -23.3 0 1 213.54 86.21
  Q 215.00 85.87 217.51 86.02
  A 0.55 0.54 5.5 0 1 218.02 86.63
  Z"
/>
</svg>
