<svg xmlns="http://www.w3.org/2000/svg" xmlns:xlink="http://www.w3.org/1999/xlink" width="550" zoomAndPan="magnify" viewBox="0 0 412.5 187.499995" height="250" preserveAspectRatio="xMidYMid meet" version="1.2"><defs><clipPath id="dc60f976ef"><path d="M 0.300781 0 L 411.703125 0 L 411.703125 187 L 0.300781 187 Z M 0.300781 0 "/></clipPath><clipPath id="a11cf7a79f"><path d="M 46.019531 0 L 366.164062 0 L 366.164062 187 L 46.019531 187 Z M 46.019531 0 "/></clipPath></defs><g id="566a3caa49"><g clip-rule="nonzero" clip-path="url(#dc60f976ef)"><path style=" stroke:none;fill-rule:nonzero;fill:#ffffff;fill-opacity:1;" d="M 0.300781 0 L 411.703125 0 L 411.703125 187 L 0.300781 187 Z M 0.300781 0 "/><path style=" stroke:none;fill-rule:nonzero;fill:#ffffff;fill-opacity:1;" d="M 0.300781 0 L 411.703125 0 L 411.703125 187 L 0.300781 187 Z M 0.300781 0 "/></g><path style="fill:none;stroke-width:2;stroke-linecap:butt;stroke-linejoin:miter;stroke:#83c1ca;stroke-opacity:1;stroke-miterlimit:4;" d="M 232.853136 124.171772 C 232.853136 123.30539 232.769629 122.454664 232.602615 121.609158 C 232.435602 120.763653 232.185082 119.939023 231.856274 119.145709 C 231.522247 118.347176 231.12037 117.590396 230.640207 116.875369 C 230.160043 116.155123 229.617249 115.492288 229.006606 114.881645 C 228.395962 114.276221 227.733128 113.728208 227.018101 113.248044 C 226.297855 112.7731 225.541075 112.366004 224.747761 112.037196 C 223.949228 111.708388 223.129818 111.457868 222.284312 111.290855 C 221.438806 111.118622 220.582861 111.035115 219.721698 111.035115 C 218.860534 111.035115 218.00459 111.118622 217.159084 111.290855 C 216.313578 111.457868 215.494168 111.708388 214.695635 112.037196 C 213.897102 112.366004 213.140322 112.7731 212.425295 113.248044 C 211.705049 113.728208 211.042214 114.276221 210.431571 114.881645 C 209.826147 115.492288 209.278134 116.155123 208.803189 116.875369 C 208.323025 117.590396 207.91593 118.347176 207.587122 119.145709 C 207.258314 119.939023 207.007794 120.763653 206.84078 121.609158 C 206.673767 122.454664 206.585041 123.30539 206.585041 124.171772 C 206.585041 125.032936 206.673767 125.88888 206.84078 126.734386 C 207.007794 127.579892 207.258314 128.399302 207.587122 129.197835 C 207.91593 129.991149 208.323025 130.747929 208.803189 131.468175 C 209.278134 132.183202 209.826147 132.846037 210.431571 133.45668 C 211.042214 134.067323 211.705049 134.610117 212.425295 135.090281 C 213.140322 135.570445 213.897102 135.972321 214.695635 136.306348 C 215.494168 136.635156 216.313578 136.885676 217.159084 137.05269 C 218.00459 137.219703 218.860534 137.30321 219.721698 137.30321 C 220.582861 137.30321 221.438806 137.219703 222.284312 137.05269 C 223.129818 136.885676 223.949228 136.635156 224.747761 136.306348 C 225.541075 135.972321 226.297855 135.570445 227.018101 135.090281 C 227.733128 134.610117 228.395962 134.067323 229.006606 133.45668 C 229.617249 132.846037 230.160043 132.183202 230.640207 131.468175 C 231.12037 130.747929 231.522247 129.991149 231.856274 129.197835 C 232.185082 128.399302 232.435602 127.579892 232.602615 126.734386 C 232.769629 125.88888 232.853136 125.032936 232.853136 124.171772 " transform="matrix(0.748442,0,0,0.748442,46.019712,-62.095577)"/><path style="fill:none;stroke-width:2;stroke-linecap:butt;stroke-linejoin:miter;stroke:#8095a5;stroke-opacity:1;stroke-miterlimit:4;" d="M 312.299378 210.220268 L 272.644106 170.998187 C 272.565819 170.9199 272.477093 170.883365 272.372709 170.883365 C 272.263107 170.878146 272.169162 170.91468 272.090874 170.987749 L 257.785122 183.97305 C 257.722492 184.030461 257.644205 184.056556 257.560698 184.046118 C 257.477191 184.040899 257.409342 184.004365 257.35715 183.941735 C 250.212103 175.152648 242.273742 165.476303 233.542066 154.912698 C 232.279027 153.388699 231.323918 152.344865 230.666302 151.786413 C 230.577577 151.718564 230.483631 151.68203 230.374029 151.692468 C 230.259207 151.697687 230.170481 151.74466 230.097413 151.828167 L 216.188318 167.605725 C 216.110031 167.694451 216.031743 167.694451 215.948236 167.605725 L 184.158257 131.530805 C 184.100846 131.468175 184.022559 131.43686 183.933833 131.43686 C 183.845107 131.442079 183.772038 131.478614 183.725066 131.551682 L 127.076168 210.084569 C 127.034415 210.147199 127.029196 210.215049 127.06573 210.282898 C 127.102264 210.355966 127.159675 210.387281 127.237963 210.387281 L 141.997782 210.387281 C 142.352686 210.387281 142.629302 210.246364 142.83285 209.959309 L 184.982886 151.525455 C 185.029859 151.462825 185.092489 151.426291 185.170777 151.426291 C 185.249064 151.421071 185.316913 151.452386 185.369105 151.509797 C 192.78033 160.121432 200.342911 168.623464 208.067286 177.010674 C 208.135135 177.088961 208.135135 177.167249 208.067286 177.250756 L 179.111317 210.095008 C 179.064345 210.152419 179.053906 210.215049 179.085221 210.288117 C 179.116536 210.355966 179.173947 210.387281 179.247016 210.387281 L 194.815807 210.387281 C 195.170711 210.387281 195.462985 210.256802 195.692628 209.985405 L 229.752947 170.330133 C 229.852112 170.22053 229.946057 170.22053 230.040002 170.335352 C 236.516995 178.117138 244.121329 187.224594 252.863443 197.65772 C 256.073234 201.488592 259.789285 206.065807 263.416609 210.011501 C 263.661911 210.27246 263.959403 210.402939 264.319526 210.402939 L 278.625278 210.402939 C 278.656593 210.402939 278.67225 210.392501 278.682689 210.366405 C 278.698346 210.345528 278.693127 210.324651 278.67747 210.303775 L 265.49384 194.113902 C 265.410333 194.009518 265.373799 193.894697 265.384237 193.764217 C 265.394676 193.638957 265.446867 193.529354 265.546032 193.440629 L 271.595053 187.950059 C 271.788162 187.772607 271.986491 187.772607 272.1796 187.950059 C 279.230702 194.181751 286.600173 200.413443 294.282795 206.645135 C 296.041656 208.075188 297.52912 209.239063 298.755626 210.147199 C 298.985269 210.319432 299.241009 210.402939 299.528063 210.402939 L 312.22631 210.402939 C 312.273282 210.402939 312.304597 210.376843 312.325474 210.33509 C 312.341132 210.293336 312.335913 210.251583 312.299378 210.220268 " transform="matrix(0.748442,0,0,0.748442,46.019712,-62.095577)"/><path style="fill:none;stroke-width:2;stroke-linecap:butt;stroke-linejoin:miter;stroke:#8095a5;stroke-opacity:1;stroke-miterlimit:4;" d="M 372.982696 228.899686 C 369.861631 225.778621 366.667497 223.643979 363.395076 222.500981 C 356.135207 219.959244 348.337764 219.458203 340.007965 220.997859 C 336.083147 221.718105 332.053946 223.398678 329.152086 225.768182 C 325.201173 228.99885 322.925613 233.158531 322.31497 238.247224 C 321.072807 248.54987 326.031021 256.587396 335.676052 260.209501 C 337.461009 260.877555 338.635322 261.357719 340.180197 261.686527 C 342.654085 262.213663 346.317944 263.05395 351.182213 264.207387 C 352.941074 264.624921 354.652962 265.214688 356.317878 265.981906 C 359.569423 267.485028 361.171709 270.026765 361.129955 273.607117 C 361.093421 276.86388 359.939984 279.296015 357.664425 280.90352 C 355.99429 282.077834 353.645662 282.740669 350.613323 282.881586 C 341.792922 283.293901 334.689628 279.812713 329.308661 272.443241 C 329.183401 272.271009 329.011168 272.182283 328.791963 272.182283 L 328.150005 272.182283 C 327.972553 272.182283 327.826416 272.255351 327.706375 272.39105 L 320.023753 281.78556 C 319.955904 281.863848 319.950685 281.952574 320.008096 282.03608 C 323.682393 287.996375 329.773168 291.842905 336.411955 293.711369 C 342.095634 295.308436 348.014175 295.814696 354.183237 295.235367 C 364.470226 294.26982 373.452422 288.805347 375.440926 278.012098 C 376.703966 271.164544 375.7332 263.68547 370.895027 258.492394 C 367.747866 255.115589 362.794871 252.866126 358.384671 251.749223 C 356.777166 251.336908 353.123745 250.559251 347.41919 249.416253 C 346.276191 249.186609 345.164507 248.909993 344.089358 248.586404 C 340.743868 247.573885 337.335748 246.15427 336.531996 242.318178 C 335.175011 235.835966 340.446375 233.054147 345.952602 232.600079 C 352.199951 232.0886 358.614314 233.35164 363.275035 237.589608 C 363.885678 238.148059 364.324089 238.529059 364.595486 238.737826 C 364.731184 238.847429 364.88254 238.920497 365.049554 238.96747 C 365.211348 239.009223 365.383581 239.019661 365.555814 238.998785 C 365.722827 238.972689 365.884622 238.915278 366.030758 238.826552 C 366.176895 238.737826 366.302155 238.623004 366.40132 238.482086 L 373.014011 229.312001 C 373.123614 229.165864 373.113175 229.024946 372.982696 228.899686 " transform="matrix(0.748442,0,0,0.748442,46.019712,-62.095577)"/><path style="fill:none;stroke-width:2;stroke-linecap:butt;stroke-linejoin:miter;stroke:#8095a5;stroke-opacity:1;stroke-miterlimit:4;" d="M 72.139159 267.046617 C 77.071277 267.057055 81.444944 267.051836 85.25494 267.041398 C 94.278889 267.010083 103.193235 264.217826 107.7026 255.86715 C 110.682748 250.350485 111.11072 243.132369 109.513653 237.046814 C 108.156668 231.874614 105.296562 227.86629 100.943772 225.032279 C 98.871761 223.675294 95.604559 222.370501 93.203739 221.879899 C 90.881208 221.404954 88.297717 221.154434 85.453268 221.112681 C 83.626558 221.091804 74.299897 221.086585 57.462847 221.102242 C 57.394997 221.102242 57.358463 221.138777 57.358463 221.211845 L 57.358463 294.26982 C 57.358463 294.33767 57.394997 294.374204 57.468066 294.374204 L 71.664215 294.374204 C 71.784256 294.374204 71.841667 294.316793 71.841667 294.196752 L 71.841667 267.338891 C 71.841667 267.145781 71.940831 267.046617 72.139159 267.046617 " transform="matrix(0.748442,0,0,0.748442,46.019712,-62.095577)"/><path style="fill:none;stroke-width:2;stroke-linecap:butt;stroke-linejoin:miter;stroke:#8095a5;stroke-opacity:1;stroke-miterlimit:4;" d="M 124.325664 294.201971 C 124.325664 294.316793 124.383075 294.374204 124.497897 294.374204 L 173.631186 294.374204 C 173.746008 294.374204 173.803419 294.316793 173.803419 294.201971 L 173.803419 282.469272 C 173.803419 282.35445 173.746008 282.297039 173.631186 282.297039 L 138.981101 282.297039 C 138.866279 282.297039 138.808868 282.239628 138.808868 282.119587 L 138.808868 262.365019 C 138.808868 262.250198 138.866279 262.192787 138.981101 262.192787 L 168.511178 262.192787 C 168.626 262.192787 168.683411 262.135376 168.683411 262.015335 L 168.683411 250.580128 C 168.683411 250.465306 168.626 250.407895 168.511178 250.407895 L 138.981101 250.407895 C 138.866279 250.407895 138.808868 250.350485 138.808868 250.235663 L 138.808868 233.450804 C 138.808868 233.330763 138.866279 233.273352 138.981101 233.273352 L 172.832653 233.273352 C 172.947475 233.273352 173.004886 233.215942 173.004886 233.10112 L 173.004886 221.274475 C 173.004886 221.159653 172.947475 221.097023 172.832653 221.097023 L 124.497897 221.097023 C 124.383075 221.097023 124.325664 221.159653 124.325664 221.274475 L 124.325664 294.201971 " transform="matrix(0.748442,0,0,0.748442,46.019712,-62.095577)"/><path style="fill:none;stroke-width:2;stroke-linecap:butt;stroke-linejoin:miter;stroke:#8095a5;stroke-opacity:1;stroke-miterlimit:4;" d="M 232.874012 294.285478 C 232.894889 294.342889 232.931423 294.374204 232.994053 294.374204 L 247.952202 294.374204 C 248.067023 294.374204 248.108777 294.316793 248.072243 294.20719 L 222.847982 221.185749 C 222.832325 221.128338 222.790571 221.102242 222.73316 221.097023 L 204.31992 221.097023 C 204.25729 221.102242 204.215537 221.128338 204.199879 221.185749 L 178.9704 294.20719 C 178.933865 294.316793 178.975619 294.374204 179.090441 294.374204 L 193.709343 294.374204 C 193.766753 294.374204 193.808507 294.342889 193.824164 294.285478 L 199.283419 277.631099 C 199.304295 277.573688 199.34083 277.547592 199.40346 277.547592 L 227.294717 277.547592 C 227.352128 277.547592 227.393881 277.573688 227.414758 277.631099 L 232.874012 294.285478 " transform="matrix(0.748442,0,0,0.748442,46.019712,-62.095577)"/><path style="fill:none;stroke-width:2;stroke-linecap:butt;stroke-linejoin:miter;stroke:#8095a5;stroke-opacity:1;stroke-miterlimit:4;" d="M 316.965318 294.139341 L 316.965318 293.434753 C 316.965318 293.278178 316.918346 293.13726 316.819182 293.012 L 287.336077 255.950657 C 287.231693 255.820177 287.236912 255.694917 287.341296 255.564438 C 296.714929 243.962218 305.613618 232.954983 314.032144 222.537515 C 314.131308 222.412255 314.162623 221.994721 314.131308 221.290133 C 314.126089 221.164872 314.058239 221.097023 313.92776 221.097023 L 299.475872 221.097023 C 299.371488 221.097023 299.287981 221.138777 299.225351 221.217064 L 275.039706 250.783676 C 274.914446 250.935032 274.752652 251.0081 274.559543 251.0081 L 273.500051 251.0081 C 273.333037 251.0081 273.24953 250.924594 273.24953 250.75758 L 273.24953 221.284913 C 273.24953 221.159653 273.1869 221.097023 273.06164 221.097023 L 258.902025 221.097023 C 258.813299 221.097023 258.766327 221.143996 258.766327 221.237941 L 258.766327 294.134122 C 258.766327 294.295916 258.844614 294.374204 259.006409 294.374204 L 273.009448 294.374204 C 273.171243 294.374204 273.24953 294.295916 273.24953 294.139341 L 273.24953 263.048731 C 273.24953 262.871279 273.338256 262.782553 273.520927 262.782553 L 274.622173 262.782553 C 274.773529 262.782553 274.89357 262.839964 274.987515 262.954786 L 300.451857 294.238505 C 300.524925 294.327231 300.62409 294.374204 300.744131 294.374204 L 316.730456 294.374204 C 316.887031 294.374204 316.965318 294.295916 316.965318 294.139341 " transform="matrix(0.748442,0,0,0.748442,46.019712,-62.095577)"/><path style="fill:none;stroke-width:2;stroke-linecap:butt;stroke-linejoin:miter;stroke:#8095a5;stroke-opacity:1;stroke-miterlimit:4;" d="M 71.88342 232.746216 L 71.805132 255.428739 C 71.799913 255.538342 71.852105 255.590534 71.966927 255.590534 L 85.322789 255.637506 C 86.006501 255.637506 86.684993 255.574876 87.358266 255.449616 C 88.02632 255.324356 88.678717 255.136466 89.310237 254.891165 C 89.946976 254.640644 90.547181 254.337932 91.11607 253.97259 C 91.68496 253.612467 92.212097 253.200153 92.69748 252.740866 C 93.182863 252.276359 93.616054 251.775319 94.002273 251.232525 C 94.383272 250.684512 94.706861 250.110403 94.96782 249.510198 C 95.233997 248.904774 95.432326 248.278473 95.568024 247.636515 C 95.703723 246.994557 95.771572 246.347379 95.776791 245.689764 L 95.78201 242.657424 C 95.78723 241.999809 95.7246 241.352631 95.59412 240.705454 C 95.458422 240.063496 95.265312 239.437195 95.004354 238.831771 C 94.748614 238.226347 94.425026 237.647019 94.049245 237.104225 C 93.673465 236.556212 93.240274 236.049952 92.76011 235.585446 C 92.279946 235.120939 91.752809 234.703406 91.18392 234.338064 C 90.620249 233.972722 90.020044 233.659571 89.388524 233.409051 C 88.757004 233.153311 88.104608 232.960202 87.436554 232.829723 C 86.763281 232.699243 86.090007 232.636613 85.401077 232.631394 L 72.045214 232.589641 C 71.940831 232.589641 71.88342 232.641833 71.88342 232.746216 " transform="matrix(0.748442,0,0,0.748442,46.019712,-62.095577)"/><path style="fill:none;stroke-width:2;stroke-linecap:butt;stroke-linejoin:miter;stroke:#8095a5;stroke-opacity:1;stroke-miterlimit:4;" d="M 213.296897 265.360824 C 219.601657 265.355605 222.905393 265.350386 223.218543 265.334729 C 223.317708 265.329509 223.349023 265.282537 223.317708 265.188592 L 213.975389 236.69191 C 213.938855 236.561431 213.850129 236.483143 213.71443 236.467486 C 213.568294 236.446609 213.422157 236.44139 213.270801 236.44139 C 213.124664 236.44139 212.978527 236.446609 212.83761 236.467486 C 212.701911 236.483143 212.607966 236.561431 212.566213 236.69191 L 203.276086 265.204249 C 203.244771 265.298194 203.276086 265.345167 203.37525 265.350386 C 203.6884 265.366044 206.992136 265.371263 213.296897 265.360824 " transform="matrix(0.748442,0,0,0.748442,46.019712,-62.095577)"/><g clip-rule="nonzero" clip-path="url(#a11cf7a79f)"><path style=" stroke:none;fill-rule:nonzero;fill:#ffffff;fill-opacity:1;" d="M 366.164062 -62.09375 L 366.164062 258.050781 L 46.019531 258.050781 L 46.019531 -62.09375 Z M 220.296875 30.839844 C 220.296875 30.191406 220.234375 29.554688 220.109375 28.921875 C 219.984375 28.289062 219.796875 27.671875 219.550781 27.078125 C 219.300781 26.480469 219 25.914062 218.640625 25.378906 C 218.28125 24.839844 217.875 24.34375 217.417969 23.886719 C 216.960938 23.433594 216.464844 23.023438 215.929688 22.664062 C 215.394531 22.308594 214.824219 22.003906 214.230469 21.757812 C 213.632812 21.511719 213.019531 21.324219 212.386719 21.199219 C 211.753906 21.070312 211.113281 21.007812 210.46875 21.007812 C 209.824219 21.007812 209.183594 21.070312 208.550781 21.199219 C 207.917969 21.324219 207.304688 21.511719 206.707031 21.757812 C 206.109375 22.003906 205.542969 22.308594 205.007812 22.664062 C 204.46875 23.023438 203.972656 23.433594 203.515625 23.886719 C 203.0625 24.34375 202.652344 24.839844 202.296875 25.378906 C 201.9375 25.914062 201.632812 26.480469 201.386719 27.078125 C 201.140625 27.671875 200.953125 28.289062 200.828125 28.921875 C 200.703125 29.554688 200.636719 30.191406 200.636719 30.839844 C 200.636719 31.484375 200.703125 32.125 200.828125 32.757812 C 200.953125 33.390625 201.140625 34.003906 201.386719 34.601562 C 201.632812 35.195312 201.9375 35.761719 202.296875 36.300781 C 202.652344 36.835938 203.0625 37.332031 203.515625 37.789062 C 203.972656 38.246094 204.46875 38.652344 205.007812 39.011719 C 205.542969 39.371094 206.109375 39.671875 206.707031 39.921875 C 207.304688 40.167969 207.917969 40.355469 208.550781 40.480469 C 209.183594 40.605469 209.824219 40.667969 210.46875 40.667969 C 211.113281 40.667969 211.753906 40.605469 212.386719 40.480469 C 213.019531 40.355469 213.632812 40.167969 214.230469 39.921875 C 214.824219 39.671875 215.394531 39.371094 215.929688 39.011719 C 216.464844 38.652344 216.960938 38.246094 217.417969 37.789062 C 217.875 37.332031 218.28125 36.835938 218.640625 36.300781 C 219 35.761719 219.300781 35.195312 219.550781 34.601562 C 219.796875 34.003906 219.984375 33.390625 220.109375 32.757812 C 220.234375 32.125 220.296875 31.484375 220.296875 30.839844 Z M 279.757812 95.242188 L 250.078125 65.886719 C 250.019531 65.828125 249.953125 65.800781 249.875 65.800781 C 249.792969 65.796875 249.722656 65.824219 249.664062 65.878906 L 238.957031 75.597656 C 238.910156 75.640625 238.851562 75.660156 238.789062 75.652344 C 238.726562 75.648438 238.675781 75.621094 238.636719 75.574219 C 233.289062 68.996094 227.347656 61.753906 220.8125 53.847656 C 219.867188 52.707031 219.152344 51.925781 218.660156 51.507812 C 218.59375 51.457031 218.523438 51.429688 218.441406 51.4375 C 218.355469 51.441406 218.289062 51.476562 218.234375 51.539062 L 207.824219 63.347656 C 207.765625 63.414062 207.707031 63.414062 207.644531 63.347656 L 183.851562 36.347656 C 183.808594 36.300781 183.75 36.277344 183.683594 36.277344 C 183.617188 36.28125 183.5625 36.308594 183.527344 36.363281 L 141.128906 95.140625 C 141.097656 95.1875 141.09375 95.238281 141.121094 95.289062 C 141.148438 95.34375 141.191406 95.367188 141.25 95.367188 L 152.296875 95.367188 C 152.5625 95.371094 152.769531 95.261719 152.921875 95.046875 L 184.46875 51.3125 C 184.503906 51.265625 184.550781 51.238281 184.609375 51.238281 C 184.667969 51.234375 184.71875 51.257812 184.757812 51.300781 C 190.304688 57.746094 195.964844 64.109375 201.746094 70.386719 C 201.796875 70.445312 201.796875 70.503906 201.746094 70.566406 L 180.074219 95.148438 C 180.039062 95.191406 180.03125 95.238281 180.054688 95.292969 C 180.078125 95.34375 180.121094 95.367188 180.175781 95.367188 L 191.828125 95.367188 C 192.09375 95.367188 192.3125 95.269531 192.484375 95.066406 L 217.976562 65.386719 C 218.050781 65.304688 218.121094 65.304688 218.191406 65.390625 C 223.039062 71.214844 228.730469 78.03125 235.273438 85.839844 C 237.675781 88.707031 240.457031 92.132812 243.171875 95.085938 C 243.355469 95.28125 243.578125 95.378906 243.847656 95.378906 L 254.554688 95.378906 C 254.578125 95.378906 254.589844 95.371094 254.597656 95.351562 C 254.609375 95.335938 254.605469 95.320312 254.59375 95.304688 L 244.726562 83.1875 C 244.664062 83.109375 244.636719 83.023438 244.644531 82.925781 C 244.652344 82.832031 244.691406 82.75 244.765625 82.683594 L 249.292969 78.574219 C 249.4375 78.441406 249.585938 78.441406 249.730469 78.574219 C 255.007812 83.238281 260.523438 87.902344 266.273438 92.566406 C 267.589844 93.636719 268.703125 94.507812 269.621094 95.1875 C 269.792969 95.316406 269.984375 95.378906 270.199219 95.378906 L 279.703125 95.378906 C 279.738281 95.378906 279.761719 95.359375 279.777344 95.328125 C 279.789062 95.296875 279.785156 95.265625 279.757812 95.242188 Z M 325.175781 109.222656 C 322.839844 106.886719 320.449219 105.289062 318 104.433594 C 312.566406 102.53125 306.730469 102.15625 300.496094 103.308594 C 297.558594 103.847656 294.542969 105.105469 292.371094 106.878906 C 289.414062 109.296875 287.710938 112.410156 287.253906 116.21875 C 286.324219 123.929688 290.035156 129.945312 297.253906 132.65625 C 298.589844 133.15625 299.46875 133.515625 300.625 133.761719 C 302.476562 134.15625 305.21875 134.785156 308.859375 135.648438 C 310.175781 135.960938 311.457031 136.402344 312.703125 136.976562 C 315.136719 138.101562 316.335938 140.003906 316.304688 142.683594 C 316.277344 145.121094 315.414062 146.941406 313.710938 148.144531 C 312.460938 149.023438 310.703125 149.519531 308.433594 149.625 C 301.832031 149.933594 296.515625 147.328125 292.488281 141.8125 C 292.394531 141.683594 292.265625 141.617188 292.101562 141.617188 L 291.621094 141.617188 C 291.488281 141.617188 291.378906 141.671875 291.289062 141.773438 L 285.539062 148.804688 C 285.488281 148.863281 285.484375 148.929688 285.527344 148.992188 C 288.277344 153.453125 292.835938 156.332031 297.804688 157.730469 C 302.058594 158.925781 306.488281 159.304688 311.105469 158.871094 C 318.804688 158.148438 325.527344 154.058594 327.015625 145.980469 C 327.960938 140.855469 327.234375 135.257812 323.613281 131.371094 C 321.257812 128.84375 317.550781 127.160156 314.25 126.324219 C 313.046875 126.015625 310.3125 125.433594 306.042969 124.578125 C 305.1875 124.40625 304.355469 124.199219 303.550781 123.957031 C 301.046875 123.199219 298.496094 122.136719 297.894531 119.265625 C 296.878906 114.414062 300.824219 112.332031 304.945312 111.992188 C 309.621094 111.609375 314.421875 112.554688 317.910156 115.726562 C 318.367188 116.144531 318.695312 116.429688 318.898438 116.585938 C 319 116.667969 319.113281 116.722656 319.238281 116.757812 C 319.359375 116.789062 319.488281 116.796875 319.617188 116.78125 C 319.742188 116.761719 319.863281 116.71875 319.972656 116.652344 C 320.082031 116.585938 320.175781 116.5 320.25 116.394531 L 325.199219 109.53125 C 325.28125 109.421875 325.273438 109.316406 325.175781 109.222656 Z M 100.011719 137.773438 C 103.703125 137.78125 106.976562 137.777344 109.828125 137.769531 C 116.582031 137.746094 123.253906 135.65625 126.628906 129.40625 C 128.859375 125.277344 129.179688 119.875 127.984375 115.320312 C 126.96875 111.449219 124.828125 108.449219 121.570312 106.328125 C 120.019531 105.3125 117.574219 104.335938 115.777344 103.96875 C 114.039062 103.613281 112.105469 103.425781 109.976562 103.394531 C 108.609375 103.378906 101.628906 103.375 89.027344 103.386719 C 88.976562 103.386719 88.949219 103.414062 88.949219 103.46875 L 88.949219 158.148438 C 88.949219 158.199219 88.976562 158.226562 89.03125 158.226562 L 99.65625 158.226562 C 99.746094 158.226562 99.789062 158.183594 99.789062 158.09375 L 99.789062 137.992188 C 99.789062 137.847656 99.863281 137.773438 100.011719 137.773438 Z M 139.070312 158.097656 C 139.070312 158.183594 139.113281 158.226562 139.199219 158.226562 L 175.972656 158.226562 C 176.058594 158.226562 176.101562 158.183594 176.101562 158.097656 L 176.101562 149.316406 C 176.101562 149.230469 176.058594 149.1875 175.972656 149.1875 L 150.039062 149.1875 C 149.953125 149.1875 149.910156 149.144531 149.910156 149.054688 L 149.910156 134.269531 C 149.910156 134.183594 149.953125 134.140625 150.039062 134.140625 L 172.140625 134.140625 C 172.226562 134.140625 172.269531 134.097656 172.269531 134.007812 L 172.269531 125.449219 C 172.269531 125.363281 172.226562 125.320312 172.140625 125.320312 L 150.039062 125.320312 C 149.953125 125.320312 149.910156 125.277344 149.910156 125.191406 L 149.910156 112.628906 C 149.910156 112.539062 149.953125 112.496094 150.039062 112.496094 L 175.375 112.496094 C 175.460938 112.496094 175.503906 112.453125 175.503906 112.367188 L 175.503906 103.515625 C 175.503906 103.429688 175.460938 103.382812 175.375 103.382812 L 139.199219 103.382812 C 139.113281 103.382812 139.070312 103.429688 139.070312 103.515625 Z M 220.3125 158.160156 C 220.328125 158.203125 220.355469 158.226562 220.402344 158.226562 L 231.597656 158.226562 C 231.683594 158.226562 231.714844 158.183594 231.6875 158.101562 L 212.808594 103.449219 C 212.796875 103.40625 212.765625 103.386719 212.722656 103.382812 L 198.941406 103.382812 C 198.894531 103.386719 198.863281 103.40625 198.851562 103.449219 L 179.96875 158.101562 C 179.941406 158.183594 179.972656 158.226562 180.058594 158.226562 L 191 158.226562 C 191.042969 158.226562 191.074219 158.203125 191.085938 158.160156 L 195.171875 145.695312 C 195.1875 145.652344 195.214844 145.632812 195.261719 145.632812 L 216.136719 145.632812 C 216.179688 145.632812 216.210938 145.652344 216.226562 145.695312 Z M 283.25 158.050781 L 283.25 157.523438 C 283.25 157.40625 283.214844 157.300781 283.140625 157.207031 L 261.074219 129.46875 C 260.996094 129.371094 261 129.277344 261.078125 129.179688 C 268.09375 120.496094 274.753906 112.257812 281.054688 104.460938 C 281.128906 104.367188 281.15625 104.054688 281.128906 103.527344 C 281.125 103.433594 281.074219 103.382812 280.976562 103.382812 L 270.160156 103.382812 C 270.082031 103.382812 270.019531 103.414062 269.972656 103.472656 L 251.871094 125.601562 C 251.777344 125.714844 251.65625 125.769531 251.511719 125.769531 L 250.71875 125.769531 C 250.59375 125.769531 250.53125 125.707031 250.53125 125.582031 L 250.53125 103.523438 C 250.53125 103.429688 250.484375 103.382812 250.390625 103.382812 L 239.792969 103.382812 C 239.726562 103.382812 239.691406 103.417969 239.691406 103.488281 L 239.691406 158.046875 C 239.691406 158.167969 239.75 158.226562 239.871094 158.226562 L 250.351562 158.226562 C 250.472656 158.226562 250.53125 158.167969 250.53125 158.050781 L 250.53125 134.78125 C 250.53125 134.648438 250.597656 134.582031 250.734375 134.582031 L 251.558594 134.582031 C 251.671875 134.582031 251.761719 134.625 251.832031 134.710938 L 270.890625 158.125 C 270.945312 158.191406 271.019531 158.226562 271.109375 158.226562 L 283.074219 158.226562 C 283.191406 158.226562 283.25 158.167969 283.25 158.050781 Z M 283.25 158.050781 "/></g><path style=" stroke:none;fill-rule:nonzero;fill:#068294;fill-opacity:1;" d="M 220.296875 30.839844 C 220.296875 31.484375 220.234375 32.125 220.109375 32.757812 C 219.984375 33.390625 219.796875 34.003906 219.550781 34.601562 C 219.300781 35.195312 219 35.761719 218.640625 36.300781 C 218.28125 36.835938 217.875 37.332031 217.417969 37.789062 C 216.960938 38.246094 216.464844 38.652344 215.929688 39.011719 C 215.394531 39.371094 214.824219 39.671875 214.230469 39.921875 C 213.632812 40.167969 213.019531 40.355469 212.386719 40.480469 C 211.753906 40.605469 211.113281 40.667969 210.46875 40.667969 C 209.824219 40.667969 209.183594 40.605469 208.550781 40.480469 C 207.917969 40.355469 207.304688 40.167969 206.707031 39.921875 C 206.109375 39.671875 205.542969 39.371094 205.007812 39.011719 C 204.46875 38.652344 203.972656 38.246094 203.515625 37.789062 C 203.0625 37.332031 202.652344 36.835938 202.296875 36.300781 C 201.9375 35.761719 201.632812 35.195312 201.386719 34.601562 C 201.140625 34.003906 200.953125 33.390625 200.828125 32.757812 C 200.703125 32.125 200.636719 31.484375 200.636719 30.839844 C 200.636719 30.191406 200.703125 29.554688 200.828125 28.921875 C 200.953125 28.289062 201.140625 27.671875 201.386719 27.078125 C 201.632812 26.480469 201.9375 25.914062 202.296875 25.378906 C 202.652344 24.839844 203.0625 24.34375 203.515625 23.886719 C 203.972656 23.433594 204.46875 23.023438 205.007812 22.664062 C 205.542969 22.308594 206.109375 22.003906 206.707031 21.757812 C 207.304688 21.511719 207.917969 21.324219 208.550781 21.199219 C 209.183594 21.070312 209.824219 21.007812 210.46875 21.007812 C 211.113281 21.007812 211.753906 21.070312 212.386719 21.199219 C 213.019531 21.324219 213.632812 21.511719 214.230469 21.757812 C 214.824219 22.003906 215.394531 22.308594 215.929688 22.664062 C 216.464844 23.023438 216.960938 23.433594 217.417969 23.886719 C 217.875 24.34375 218.28125 24.839844 218.640625 25.378906 C 219 25.914062 219.300781 26.480469 219.550781 27.078125 C 219.796875 27.671875 219.984375 28.289062 220.109375 28.921875 C 220.234375 29.554688 220.296875 30.191406 220.296875 30.839844 Z M 220.296875 30.839844 "/><path style=" stroke:none;fill-rule:nonzero;fill:#002a4b;fill-opacity:1;" d="M 279.757812 95.242188 C 279.785156 95.265625 279.789062 95.296875 279.777344 95.328125 C 279.761719 95.359375 279.738281 95.378906 279.703125 95.378906 L 270.199219 95.378906 C 269.984375 95.378906 269.792969 95.316406 269.621094 95.1875 C 268.703125 94.507812 267.589844 93.636719 266.273438 92.566406 C 260.523438 87.902344 255.007812 83.238281 249.730469 78.574219 C 249.585938 78.441406 249.4375 78.441406 249.292969 78.574219 L 244.765625 82.683594 C 244.691406 82.75 244.652344 82.832031 244.644531 82.925781 C 244.636719 83.023438 244.664062 83.109375 244.726562 83.1875 L 254.59375 95.304688 C 254.605469 95.320312 254.609375 95.335938 254.597656 95.351562 C 254.589844 95.371094 254.578125 95.378906 254.554688 95.378906 L 243.847656 95.378906 C 243.578125 95.378906 243.355469 95.28125 243.171875 95.085938 C 240.457031 92.132812 237.675781 88.707031 235.273438 85.839844 C 228.730469 78.03125 223.039062 71.214844 218.191406 65.390625 C 218.121094 65.304688 218.050781 65.304688 217.976562 65.386719 L 192.484375 95.066406 C 192.3125 95.269531 192.09375 95.367188 191.828125 95.367188 L 180.175781 95.367188 C 180.121094 95.367188 180.078125 95.34375 180.054688 95.292969 C 180.03125 95.238281 180.039062 95.191406 180.074219 95.148438 L 201.746094 70.566406 C 201.796875 70.503906 201.796875 70.445312 201.746094 70.386719 C 195.964844 64.109375 190.304688 57.746094 184.757812 51.300781 C 184.71875 51.257812 184.667969 51.234375 184.609375 51.238281 C 184.550781 51.238281 184.503906 51.265625 184.46875 51.3125 L 152.921875 95.046875 C 152.769531 95.261719 152.5625 95.371094 152.296875 95.367188 L 141.25 95.367188 C 141.191406 95.367188 141.148438 95.34375 141.121094 95.289062 C 141.09375 95.238281 141.097656 95.1875 141.128906 95.140625 L 183.527344 36.363281 C 183.5625 36.308594 183.617188 36.28125 183.683594 36.277344 C 183.75 36.277344 183.808594 36.300781 183.851562 36.347656 L 207.644531 63.347656 C 207.707031 63.414062 207.765625 63.414062 207.824219 63.347656 L 218.234375 51.539062 C 218.289062 51.476562 218.355469 51.441406 218.441406 51.4375 C 218.523438 51.429688 218.59375 51.457031 218.660156 51.507812 C 219.152344 51.925781 219.867188 52.707031 220.8125 53.847656 C 227.347656 61.753906 233.289062 68.996094 238.636719 75.574219 C 238.675781 75.621094 238.726562 75.648438 238.789062 75.652344 C 238.851562 75.660156 238.910156 75.640625 238.957031 75.597656 L 249.664062 65.878906 C 249.722656 65.824219 249.792969 65.796875 249.875 65.800781 C 249.953125 65.800781 250.019531 65.828125 250.078125 65.886719 Z M 279.757812 95.242188 "/><path style=" stroke:none;fill-rule:nonzero;fill:#002a4b;fill-opacity:1;" d="M 325.199219 109.53125 L 320.25 116.394531 C 320.175781 116.5 320.082031 116.585938 319.972656 116.652344 C 319.863281 116.71875 319.742188 116.761719 319.617188 116.78125 C 319.488281 116.796875 319.359375 116.789062 319.238281 116.757812 C 319.113281 116.722656 319 116.667969 318.898438 116.585938 C 318.695312 116.429688 318.367188 116.144531 317.910156 115.726562 C 314.421875 112.554688 309.621094 111.609375 304.945312 111.992188 C 300.824219 112.332031 296.878906 114.414062 297.894531 119.265625 C 298.496094 122.136719 301.046875 123.199219 303.550781 123.957031 C 304.355469 124.199219 305.1875 124.40625 306.042969 124.578125 C 310.3125 125.433594 313.046875 126.015625 314.25 126.324219 C 317.550781 127.160156 321.257812 128.84375 323.613281 131.371094 C 327.234375 135.257812 327.960938 140.855469 327.015625 145.980469 C 325.527344 154.058594 318.804688 158.148438 311.105469 158.871094 C 306.488281 159.304688 302.058594 158.925781 297.804688 157.730469 C 292.835938 156.332031 288.277344 153.453125 285.527344 148.992188 C 285.484375 148.929688 285.488281 148.863281 285.539062 148.804688 L 291.289062 141.773438 C 291.378906 141.671875 291.488281 141.617188 291.621094 141.617188 L 292.101562 141.617188 C 292.265625 141.617188 292.394531 141.683594 292.488281 141.8125 C 296.515625 147.328125 301.832031 149.933594 308.433594 149.625 C 310.703125 149.519531 312.460938 149.023438 313.710938 148.144531 C 315.414062 146.941406 316.277344 145.121094 316.304688 142.683594 C 316.335938 140.003906 315.136719 138.101562 312.703125 136.976562 C 311.457031 136.402344 310.175781 135.960938 308.859375 135.648438 C 305.21875 134.785156 302.476562 134.15625 300.625 133.761719 C 299.46875 133.515625 298.589844 133.15625 297.253906 132.65625 C 290.035156 129.945312 286.324219 123.929688 287.253906 116.21875 C 287.710938 112.410156 289.414062 109.296875 292.371094 106.878906 C 294.542969 105.105469 297.558594 103.847656 300.496094 103.308594 C 306.730469 102.15625 312.566406 102.53125 318 104.433594 C 320.449219 105.289062 322.839844 106.886719 325.175781 109.222656 C 325.273438 109.316406 325.28125 109.421875 325.199219 109.53125 Z M 325.199219 109.53125 "/><path style=" stroke:none;fill-rule:nonzero;fill:#002a4b;fill-opacity:1;" d="M 99.789062 137.992188 L 99.789062 158.09375 C 99.789062 158.183594 99.746094 158.226562 99.65625 158.226562 L 89.03125 158.226562 C 88.976562 158.226562 88.949219 158.199219 88.949219 158.148438 L 88.949219 103.46875 C 88.949219 103.414062 88.976562 103.386719 89.027344 103.386719 C 101.628906 103.375 108.609375 103.378906 109.976562 103.394531 C 112.105469 103.425781 114.039062 103.613281 115.777344 103.96875 C 117.574219 104.335938 120.019531 105.3125 121.570312 106.328125 C 124.828125 108.449219 126.96875 111.449219 127.984375 115.320312 C 129.179688 119.875 128.859375 125.277344 126.628906 129.40625 C 123.253906 135.65625 116.582031 137.746094 109.828125 137.769531 C 106.976562 137.777344 103.703125 137.78125 100.011719 137.773438 C 99.863281 137.773438 99.789062 137.847656 99.789062 137.992188 Z M 99.820312 112.101562 L 99.761719 129.078125 C 99.757812 129.160156 99.796875 129.199219 99.882812 129.199219 L 109.878906 129.234375 C 110.390625 129.234375 110.898438 129.1875 111.402344 129.09375 C 111.902344 129 112.390625 128.863281 112.863281 128.675781 C 113.339844 128.488281 113.789062 128.261719 114.214844 127.988281 C 114.640625 127.71875 115.035156 127.410156 115.398438 127.066406 C 115.761719 126.71875 116.085938 126.34375 116.375 125.9375 C 116.660156 125.527344 116.902344 125.097656 117.097656 124.648438 C 117.296875 124.195312 117.445312 123.726562 117.546875 123.246094 C 117.648438 122.765625 117.699219 122.28125 117.703125 121.789062 L 117.707031 119.519531 C 117.710938 119.027344 117.664062 118.542969 117.566406 118.058594 C 117.464844 117.578125 117.320312 117.109375 117.125 116.65625 C 116.933594 116.203125 116.691406 115.769531 116.410156 115.363281 C 116.128906 114.953125 115.804688 114.574219 115.445312 114.226562 C 115.085938 113.878906 114.691406 113.566406 114.265625 113.292969 C 113.84375 113.019531 113.394531 112.785156 112.921875 112.597656 C 112.449219 112.40625 111.960938 112.261719 111.460938 112.164062 C 110.957031 112.066406 110.453125 112.019531 109.9375 112.015625 L 99.941406 111.984375 C 99.863281 111.984375 99.820312 112.023438 99.820312 112.101562 Z M 99.820312 112.101562 "/><path style=" stroke:none;fill-rule:nonzero;fill:#002a4b;fill-opacity:1;" d="M 139.070312 158.097656 L 139.070312 103.515625 C 139.070312 103.429688 139.113281 103.382812 139.199219 103.382812 L 175.375 103.382812 C 175.460938 103.382812 175.503906 103.429688 175.503906 103.515625 L 175.503906 112.367188 C 175.503906 112.453125 175.460938 112.496094 175.375 112.496094 L 150.039062 112.496094 C 149.953125 112.496094 149.910156 112.539062 149.910156 112.628906 L 149.910156 125.191406 C 149.910156 125.277344 149.953125 125.320312 150.039062 125.320312 L 172.140625 125.320312 C 172.226562 125.320312 172.269531 125.363281 172.269531 125.449219 L 172.269531 134.007812 C 172.269531 134.097656 172.226562 134.140625 172.140625 134.140625 L 150.039062 134.140625 C 149.953125 134.140625 149.910156 134.183594 149.910156 134.269531 L 149.910156 149.054688 C 149.910156 149.144531 149.953125 149.1875 150.039062 149.1875 L 175.972656 149.1875 C 176.058594 149.1875 176.101562 149.230469 176.101562 149.316406 L 176.101562 158.097656 C 176.101562 158.183594 176.058594 158.226562 175.972656 158.226562 L 139.199219 158.226562 C 139.113281 158.226562 139.070312 158.183594 139.070312 158.097656 Z M 139.070312 158.097656 "/><path style=" stroke:none;fill-rule:nonzero;fill:#002a4b;fill-opacity:1;" d="M 220.3125 158.160156 L 216.226562 145.695312 C 216.210938 145.652344 216.179688 145.632812 216.136719 145.632812 L 195.261719 145.632812 C 195.214844 145.632812 195.1875 145.652344 195.171875 145.695312 L 191.085938 158.160156 C 191.074219 158.203125 191.042969 158.226562 191 158.226562 L 180.058594 158.226562 C 179.972656 158.226562 179.941406 158.183594 179.96875 158.101562 L 198.851562 103.449219 C 198.863281 103.40625 198.894531 103.386719 198.941406 103.382812 L 212.722656 103.382812 C 212.765625 103.386719 212.796875 103.40625 212.808594 103.449219 L 231.6875 158.101562 C 231.714844 158.183594 231.683594 158.226562 231.597656 158.226562 L 220.402344 158.226562 C 220.355469 158.226562 220.328125 158.203125 220.3125 158.160156 Z M 205.660156 136.515625 C 210.378906 136.507812 212.851562 136.503906 213.085938 136.492188 C 213.160156 136.488281 213.183594 136.453125 213.160156 136.382812 L 206.167969 115.054688 C 206.140625 114.957031 206.074219 114.898438 205.972656 114.886719 C 205.863281 114.871094 205.753906 114.867188 205.640625 114.867188 C 205.53125 114.867188 205.421875 114.871094 205.316406 114.886719 C 205.214844 114.898438 205.144531 114.957031 205.113281 115.054688 L 198.160156 136.394531 C 198.136719 136.464844 198.160156 136.5 198.234375 136.503906 C 198.46875 136.515625 200.941406 136.519531 205.660156 136.515625 Z M 205.660156 136.515625 "/><path style=" stroke:none;fill-rule:nonzero;fill:#002a4b;fill-opacity:1;" d="M 283.074219 158.226562 L 271.109375 158.226562 C 271.019531 158.226562 270.945312 158.191406 270.890625 158.125 L 251.832031 134.710938 C 251.761719 134.625 251.671875 134.582031 251.558594 134.582031 L 250.734375 134.582031 C 250.597656 134.582031 250.53125 134.648438 250.53125 134.78125 L 250.53125 158.050781 C 250.53125 158.167969 250.472656 158.226562 250.351562 158.226562 L 239.871094 158.226562 C 239.75 158.226562 239.691406 158.167969 239.691406 158.046875 L 239.691406 103.488281 C 239.691406 103.417969 239.726562 103.382812 239.792969 103.382812 L 250.390625 103.382812 C 250.484375 103.382812 250.53125 103.429688 250.53125 103.523438 L 250.53125 125.582031 C 250.53125 125.707031 250.59375 125.769531 250.71875 125.769531 L 251.511719 125.769531 C 251.65625 125.769531 251.777344 125.714844 251.871094 125.601562 L 269.972656 103.472656 C 270.019531 103.414062 270.082031 103.382812 270.160156 103.382812 L 280.976562 103.382812 C 281.074219 103.382812 281.125 103.433594 281.128906 103.527344 C 281.15625 104.054688 281.128906 104.367188 281.054688 104.460938 C 274.753906 112.257812 268.09375 120.496094 261.078125 129.179688 C 261 129.277344 260.996094 129.371094 261.074219 129.46875 L 283.140625 157.207031 C 283.214844 157.300781 283.25 157.40625 283.25 157.523438 L 283.25 158.050781 C 283.25 158.167969 283.191406 158.226562 283.074219 158.226562 Z M 283.074219 158.226562 "/><path style=" stroke:none;fill-rule:nonzero;fill:#ffffff;fill-opacity:1;" d="M 99.820312 112.101562 C 99.820312 112.023438 99.863281 111.984375 99.941406 111.984375 L 109.9375 112.015625 C 110.453125 112.019531 110.957031 112.066406 111.460938 112.164062 C 111.960938 112.261719 112.449219 112.40625 112.921875 112.597656 C 113.394531 112.785156 113.84375 113.019531 114.265625 113.292969 C 114.691406 113.566406 115.085938 113.878906 115.445312 114.226562 C 115.804688 114.574219 116.128906 114.953125 116.410156 115.363281 C 116.691406 115.769531 116.933594 116.203125 117.125 116.65625 C 117.320312 117.109375 117.464844 117.578125 117.566406 118.058594 C 117.664062 118.542969 117.710938 119.027344 117.707031 119.519531 L 117.703125 121.789062 C 117.699219 122.28125 117.648438 122.765625 117.546875 123.246094 C 117.445312 123.726562 117.296875 124.195312 117.097656 124.648438 C 116.902344 125.097656 116.660156 125.527344 116.375 125.9375 C 116.085938 126.34375 115.761719 126.71875 115.398438 127.066406 C 115.035156 127.410156 114.640625 127.71875 114.214844 127.988281 C 113.789062 128.261719 113.339844 128.488281 112.863281 128.675781 C 112.390625 128.863281 111.902344 129 111.402344 129.09375 C 110.898438 129.1875 110.390625 129.234375 109.878906 129.234375 L 99.882812 129.199219 C 99.796875 129.199219 99.757812 129.160156 99.761719 129.078125 Z M 99.820312 112.101562 "/><path style=" stroke:none;fill-rule:nonzero;fill:#ffffff;fill-opacity:1;" d="M 205.640625 114.867188 C 205.753906 114.867188 205.863281 114.871094 205.972656 114.886719 C 206.074219 114.898438 206.140625 114.957031 206.167969 115.054688 L 213.160156 136.382812 C 213.183594 136.453125 213.160156 136.488281 213.085938 136.492188 C 212.851562 136.503906 210.378906 136.507812 205.660156 136.515625 C 200.941406 136.519531 198.46875 136.515625 198.234375 136.503906 C 198.160156 136.5 198.136719 136.464844 198.160156 136.394531 L 205.113281 115.054688 C 205.144531 114.957031 205.214844 114.898438 205.316406 114.886719 C 205.421875 114.871094 205.53125 114.867188 205.640625 114.867188 Z M 205.640625 114.867188 "/></g></svg>