<?xml version="1.0" encoding="UTF-8" standalone="no"?>
<!DOCTYPE svg PUBLIC "-//W3C//DTD SVG 1.1//EN" "http://www.w3.org/Graphics/SVG/1.1/DTD/svg11.dtd">
<svg xmlns="http://www.w3.org/2000/svg" version="1.1" viewBox="0.00 0.00 364.00 105.00">
<g stroke-width="2.00" fill="none" stroke-linecap="butt">
<path stroke="#98bbd4" vector-effect="non-scaling-stroke" d="
  M 340.30 19.71
  A 0.57 0.57 0.0 0 0 339.73 19.14
  L 329.83 19.14
  A 0.57 0.57 0.0 0 0 329.26 19.71
  L 329.26 69.15
  A 0.57 0.57 0.0 0 0 329.83 69.72
  L 339.73 69.72
  A 0.57 0.57 0.0 0 0 340.30 69.15
  L 340.30 19.71"
/>
<path stroke="#98bbd4" vector-effect="non-scaling-stroke" d="
  M 181.44 26.37
  A 6.16 6.16 0.0 0 0 175.28 20.21
  A 6.16 6.16 0.0 0 0 169.12 26.37
  A 6.16 6.16 0.0 0 0 175.28 32.53
  A 6.16 6.16 0.0 0 0 181.44 26.37"
/>
<path stroke="#98bbd4" vector-effect="non-scaling-stroke" d="
  M 20.66 49.88
  C 20.66 70.99 43.01 83.29 61.09 73.82
  A 0.51 0.51 0.0 0 0 61.13 72.93
  C 53.32 67.87 48.43 59.34 48.43 49.89
  C 48.43 40.43 53.33 31.91 61.15 26.85
  A 0.51 0.51 0.0 0 0 61.11 25.97
  C 43.03 16.49 20.67 28.77 20.66 49.88"
/>
<path stroke="#98bbd4" vector-effect="non-scaling-stroke" d="
  M 62.16 26.74
  C 78.94 38.11 79.35 61.20 62.56 72.73
  A 0.69 0.69 0.0 0 0 62.64 73.92
  C 74.92 79.93 88.76 77.31 97.12 66.67
  C 105.04 56.58 104.85 40.78 95.67 31.35
  Q 83.82 19.18 66.47 24.15
  Q 64.11 24.83 62.16 26.19
  A 0.34 0.33 -45.4 0 0 62.16 26.74"
/>
<path stroke="#98bbd4" vector-effect="non-scaling-stroke" d="
  M 278.83 38.39
  A 0.63 0.63 0.0 0 1 278.20 37.76
  L 278.20 29.65
  A 0.63 0.63 0.0 0 0 277.57 29.02
  L 267.75 29.02
  A 0.63 0.63 0.0 0 0 267.12 29.65
  L 267.12 37.74
  A 0.63 0.63 0.0 0 1 266.49 38.37
  L 264.21 38.37
  A 0.63 0.63 0.0 0 0 263.58 39.00
  L 263.58 46.81
  A 0.63 0.63 0.0 0 0 264.21 47.44
  L 266.50 47.44
  A 0.63 0.63 0.0 0 1 267.13 48.07
  L 267.13 69.09
  A 0.63 0.63 0.0 0 0 267.76 69.72
  L 277.57 69.72
  A 0.63 0.63 0.0 0 0 278.20 69.09
  L 278.20 48.10
  A 0.63 0.63 0.0 0 1 278.83 47.47
  L 283.81 47.47
  A 0.63 0.63 0.0 0 0 284.44 46.84
  L 284.44 39.02
  A 0.63 0.63 0.0 0 0 283.81 38.39
  L 278.83 38.39"
/>
<path stroke="#98bbd4" vector-effect="non-scaling-stroke" d="
  M 139.09 41.30
  L 139.09 39.14
  A 0.74 0.74 0.0 0 0 138.35 38.40
  L 128.75 38.40
  A 0.67 0.67 0.0 0 0 128.08 39.07
  L 128.08 84.66
  A 0.59 0.58 90.0 0 0 128.66 85.25
  L 138.57 85.25
  A 0.51 0.51 0.0 0 0 139.08 84.74
  L 139.08 67.35
  A 0.26 0.26 0.0 0 1 139.51 67.16
  C 148.16 74.48 160.81 69.67 163.66 58.94
  C 166.66 47.61 158.83 36.04 146.35 37.65
  Q 142.14 38.19 139.55 41.46
  A 0.26 0.26 0.0 0 1 139.09 41.30"
/>
<path stroke="#98bbd4" vector-effect="non-scaling-stroke" d="
  M 223.4400 54.0300
  A 18.92 16.80 -180.0 0 0 242.3600 70.8300
  A 18.92 16.80 -180.0 0 0 261.2800 54.0300
  A 18.92 16.80 -180.0 0 0 242.3600 37.2300
  A 18.92 16.80 -180.0 0 0 223.4400 54.0300"
/>
<path stroke="#98bbd4" vector-effect="non-scaling-stroke" d="
  M 310.99 66.66
  L 310.99 68.97
  A 0.75 0.75 0.0 0 0 311.74 69.72
  L 321.35 69.72
  A 0.54 0.53 -0.0 0 0 321.89 69.19
  L 321.89 38.86
  A 0.47 0.47 0.0 0 0 321.42 38.39
  L 311.73 38.39
  A 0.68 0.68 0.0 0 0 311.08 38.86
  Q 310.88 39.50 310.97 40.40
  A 0.43 0.43 0.0 0 1 310.25 40.77
  C 303.57 34.89 293.61 37.08 288.53 44.31
  Q 284.89 49.47 285.97 57.04
  C 287.15 65.33 294.52 71.43 303.01 70.56
  Q 307.73 70.08 310.45 66.49
  A 0.30 0.30 0.0 0 1 310.99 66.66"
/>
<path stroke="#98bbd4" vector-effect="non-scaling-stroke" d="
  M 180.74 38.86
  A 0.45 0.45 0.0 0 0 180.29 38.41
  L 170.25 38.41
  A 0.45 0.45 0.0 0 0 169.80 38.86
  L 169.80 69.28
  A 0.45 0.45 0.0 0 0 170.25 69.73
  L 180.29 69.73
  A 0.45 0.45 0.0 0 0 180.74 69.28
  L 180.74 38.86"
/>
<path stroke="#98bbd4" vector-effect="non-scaling-stroke" d="
  M 203.39 69.72
  Q 206.08 69.72 206.29 69.67
  A 1.38 1.37 -82.2 0 0 207.22 68.96
  L 222.88 38.92
  A 0.36 0.35 -76.1 0 0 222.57 38.40
  L 211.37 38.40
  A 0.97 0.96 -77.4 0 0 210.50 38.96
  L 203.75 53.72
  A 0.21 0.17 -11.5 0 1 203.68 53.80
  Q 203.55 53.91 203.38 53.91
  Q 203.22 53.91 203.08 53.81
  A 0.21 0.17 11.4 0 1 203.01 53.72
  L 196.25 38.97
  A 0.97 0.96 77.3 0 0 195.38 38.41
  L 184.18 38.42
  A 0.36 0.35 76.1 0 0 183.87 38.94
  L 199.56 68.96
  A 1.38 1.37 82.1 0 0 200.50 69.68
  Q 200.70 69.72 203.39 69.72"
/>
<path stroke="#98bbd4" vector-effect="non-scaling-stroke" d="
  M 152.94 54.01
  A 7.13 7.13 0.0 0 0 145.81 46.88
  A 7.13 7.13 0.0 0 0 138.68 54.01
  A 7.13 7.13 0.0 0 0 145.81 61.14
  A 7.13 7.13 0.0 0 0 152.94 54.01"
/>
<path stroke="#98bbd4" vector-effect="non-scaling-stroke" d="
  M 249.46 53.99
  A 7.13 7.13 0.0 0 0 242.33 46.86
  A 7.13 7.13 0.0 0 0 235.20 53.99
  A 7.13 7.13 0.0 0 0 242.33 61.12
  A 7.13 7.13 0.0 0 0 249.46 53.99"
/>
<path stroke="#98bbd4" vector-effect="non-scaling-stroke" d="
  M 311.38 53.99
  A 7.15 7.15 0.0 0 0 304.23 46.84
  A 7.15 7.15 0.0 0 0 297.08 53.99
  A 7.15 7.15 0.0 0 0 304.23 61.14
  A 7.15 7.15 0.0 0 0 311.38 53.99"
/>
</g>
<path fill="#367bad" d="
  M 364.00 0.00
  L 364.00 105.00
  L 0.00 105.00
  L 0.00 0.00
  L 364.00 0.00
  Z
  M 340.30 19.71
  A 0.57 0.57 0.0 0 0 339.73 19.14
  L 329.83 19.14
  A 0.57 0.57 0.0 0 0 329.26 19.71
  L 329.26 69.15
  A 0.57 0.57 0.0 0 0 329.83 69.72
  L 339.73 69.72
  A 0.57 0.57 0.0 0 0 340.30 69.15
  L 340.30 19.71
  Z
  M 181.44 26.37
  A 6.16 6.16 0.0 0 0 175.28 20.21
  A 6.16 6.16 0.0 0 0 169.12 26.37
  A 6.16 6.16 0.0 0 0 175.28 32.53
  A 6.16 6.16 0.0 0 0 181.44 26.37
  Z
  M 20.66 49.88
  C 20.66 70.99 43.01 83.29 61.09 73.82
  A 0.51 0.51 0.0 0 0 61.13 72.93
  C 53.32 67.87 48.43 59.34 48.43 49.89
  C 48.43 40.43 53.33 31.91 61.15 26.85
  A 0.51 0.51 0.0 0 0 61.11 25.97
  C 43.03 16.49 20.67 28.77 20.66 49.88
  Z
  M 62.16 26.74
  C 78.94 38.11 79.35 61.20 62.56 72.73
  A 0.69 0.69 0.0 0 0 62.64 73.92
  C 74.92 79.93 88.76 77.31 97.12 66.67
  C 105.04 56.58 104.85 40.78 95.67 31.35
  Q 83.82 19.18 66.47 24.15
  Q 64.11 24.83 62.16 26.19
  A 0.34 0.33 -45.4 0 0 62.16 26.74
  Z
  M 278.83 38.39
  A 0.63 0.63 0.0 0 1 278.20 37.76
  L 278.20 29.65
  A 0.63 0.63 0.0 0 0 277.57 29.02
  L 267.75 29.02
  A 0.63 0.63 0.0 0 0 267.12 29.65
  L 267.12 37.74
  A 0.63 0.63 0.0 0 1 266.49 38.37
  L 264.21 38.37
  A 0.63 0.63 0.0 0 0 263.58 39.00
  L 263.58 46.81
  A 0.63 0.63 0.0 0 0 264.21 47.44
  L 266.50 47.44
  A 0.63 0.63 0.0 0 1 267.13 48.07
  L 267.13 69.09
  A 0.63 0.63 0.0 0 0 267.76 69.72
  L 277.57 69.72
  A 0.63 0.63 0.0 0 0 278.20 69.09
  L 278.20 48.10
  A 0.63 0.63 0.0 0 1 278.83 47.47
  L 283.81 47.47
  A 0.63 0.63 0.0 0 0 284.44 46.84
  L 284.44 39.02
  A 0.63 0.63 0.0 0 0 283.81 38.39
  L 278.83 38.39
  Z
  M 139.09 41.30
  L 139.09 39.14
  A 0.74 0.74 0.0 0 0 138.35 38.40
  L 128.75 38.40
  A 0.67 0.67 0.0 0 0 128.08 39.07
  L 128.08 84.66
  A 0.59 0.58 90.0 0 0 128.66 85.25
  L 138.57 85.25
  A 0.51 0.51 0.0 0 0 139.08 84.74
  L 139.08 67.35
  A 0.26 0.26 0.0 0 1 139.51 67.16
  C 148.16 74.48 160.81 69.67 163.66 58.94
  C 166.66 47.61 158.83 36.04 146.35 37.65
  Q 142.14 38.19 139.55 41.46
  A 0.26 0.26 0.0 0 1 139.09 41.30
  Z
  M 223.4400 54.0300
  A 18.92 16.80 -180.0 0 0 242.3600 70.8300
  A 18.92 16.80 -180.0 0 0 261.2800 54.0300
  A 18.92 16.80 -180.0 0 0 242.3600 37.2300
  A 18.92 16.80 -180.0 0 0 223.4400 54.0300
  Z
  M 310.99 66.66
  L 310.99 68.97
  A 0.75 0.75 0.0 0 0 311.74 69.72
  L 321.35 69.72
  A 0.54 0.53 -0.0 0 0 321.89 69.19
  L 321.89 38.86
  A 0.47 0.47 0.0 0 0 321.42 38.39
  L 311.73 38.39
  A 0.68 0.68 0.0 0 0 311.08 38.86
  Q 310.88 39.50 310.97 40.40
  A 0.43 0.43 0.0 0 1 310.25 40.77
  C 303.57 34.89 293.61 37.08 288.53 44.31
  Q 284.89 49.47 285.97 57.04
  C 287.15 65.33 294.52 71.43 303.01 70.56
  Q 307.73 70.08 310.45 66.49
  A 0.30 0.30 0.0 0 1 310.99 66.66
  Z
  M 180.74 38.86
  A 0.45 0.45 0.0 0 0 180.29 38.41
  L 170.25 38.41
  A 0.45 0.45 0.0 0 0 169.80 38.86
  L 169.80 69.28
  A 0.45 0.45 0.0 0 0 170.25 69.73
  L 180.29 69.73
  A 0.45 0.45 0.0 0 0 180.74 69.28
  L 180.74 38.86
  Z
  M 203.39 69.72
  Q 206.08 69.72 206.29 69.67
  A 1.38 1.37 -82.2 0 0 207.22 68.96
  L 222.88 38.92
  A 0.36 0.35 -76.1 0 0 222.57 38.40
  L 211.37 38.40
  A 0.97 0.96 -77.4 0 0 210.50 38.96
  L 203.75 53.72
  A 0.21 0.17 -11.5 0 1 203.68 53.80
  Q 203.55 53.91 203.38 53.91
  Q 203.22 53.91 203.08 53.81
  A 0.21 0.17 11.4 0 1 203.01 53.72
  L 196.25 38.97
  A 0.97 0.96 77.3 0 0 195.38 38.41
  L 184.18 38.42
  A 0.36 0.35 76.1 0 0 183.87 38.94
  L 199.56 68.96
  A 1.38 1.37 82.1 0 0 200.50 69.68
  Q 200.70 69.72 203.39 69.72
  Z"
/>
<rect fill="#fafafa" x="329.26" y="19.14" width="11.04" height="50.58" rx="0.57"/>
<circle fill="#fafafa" cx="175.28" cy="26.37" r="6.16"/>
<path fill="#fafafa" d="
  M 48.43 49.89
  C 48.43 59.34 53.32 67.87 61.13 72.93
  A 0.51 0.51 0.0 0 1 61.09 73.82
  C 43.01 83.29 20.66 70.99 20.66 49.88
  C 20.67 28.77 43.03 16.49 61.11 25.97
  A 0.51 0.51 0.0 0 1 61.15 26.85
  C 53.33 31.91 48.43 40.43 48.43 49.89
  Z"
/>
<path fill="#fafafa" d="
  M 62.16 26.19
  Q 64.11 24.83 66.47 24.15
  Q 83.82 19.18 95.67 31.35
  C 104.85 40.78 105.04 56.58 97.12 66.67
  C 88.76 77.31 74.92 79.93 62.64 73.92
  A 0.69 0.69 0.0 0 1 62.56 72.73
  C 79.35 61.20 78.94 38.11 62.16 26.74
  A 0.34 0.33 -45.4 0 1 62.16 26.19
  Z"
/>
<path fill="#fafafa" d="
  M 278.83 38.39
  L 283.81 38.39
  A 0.63 0.63 0.0 0 1 284.44 39.02
  L 284.44 46.84
  A 0.63 0.63 0.0 0 1 283.81 47.47
  L 278.83 47.47
  A 0.63 0.63 0.0 0 0 278.20 48.10
  L 278.20 69.09
  A 0.63 0.63 0.0 0 1 277.57 69.72
  L 267.76 69.72
  A 0.63 0.63 0.0 0 1 267.13 69.09
  L 267.13 48.07
  A 0.63 0.63 0.0 0 0 266.50 47.44
  L 264.21 47.44
  A 0.63 0.63 0.0 0 1 263.58 46.81
  L 263.58 39.00
  A 0.63 0.63 0.0 0 1 264.21 38.37
  L 266.49 38.37
  A 0.63 0.63 0.0 0 0 267.12 37.74
  L 267.12 29.65
  A 0.63 0.63 0.0 0 1 267.75 29.02
  L 277.57 29.02
  A 0.63 0.63 0.0 0 1 278.20 29.65
  L 278.20 37.76
  A 0.63 0.63 0.0 0 0 278.83 38.39
  Z"
/>
<path fill="#fafafa" d="
  M 139.09 41.30
  A 0.26 0.26 0.0 0 0 139.55 41.46
  Q 142.14 38.19 146.35 37.65
  C 158.83 36.04 166.66 47.61 163.66 58.94
  C 160.81 69.67 148.16 74.48 139.51 67.16
  A 0.26 0.26 0.0 0 0 139.08 67.35
  L 139.08 84.74
  A 0.51 0.51 0.0 0 1 138.57 85.25
  L 128.66 85.25
  A 0.59 0.58 90.0 0 1 128.08 84.66
  L 128.08 39.07
  A 0.67 0.67 0.0 0 1 128.75 38.40
  L 138.35 38.40
  A 0.74 0.74 0.0 0 1 139.09 39.14
  L 139.09 41.30
  Z
  M 152.94 54.01
  A 7.13 7.13 0.0 0 0 145.81 46.88
  A 7.13 7.13 0.0 0 0 138.68 54.01
  A 7.13 7.13 0.0 0 0 145.81 61.14
  A 7.13 7.13 0.0 0 0 152.94 54.01
  Z"
/>
<path fill="#fafafa" d="
  M 223.4400 54.0300
  A 18.92 16.80 -180.0 0 1 242.3600 37.2300
  A 18.92 16.80 -180.0 0 1 261.2800 54.0300
  A 18.92 16.80 -180.0 0 1 242.3600 70.8300
  A 18.92 16.80 -180.0 0 1 223.4400 54.0300
  Z
  M 249.46 53.99
  A 7.13 7.13 0.0 0 0 242.33 46.86
  A 7.13 7.13 0.0 0 0 235.20 53.99
  A 7.13 7.13 0.0 0 0 242.33 61.12
  A 7.13 7.13 0.0 0 0 249.46 53.99
  Z"
/>
<path fill="#fafafa" d="
  M 310.99 66.66
  A 0.30 0.30 0.0 0 0 310.45 66.49
  Q 307.73 70.08 303.01 70.56
  C 294.52 71.43 287.15 65.33 285.97 57.04
  Q 284.89 49.47 288.53 44.31
  C 293.61 37.08 303.57 34.89 310.25 40.77
  A 0.43 0.43 0.0 0 0 310.97 40.40
  Q 310.88 39.50 311.08 38.86
  A 0.68 0.68 0.0 0 1 311.73 38.39
  L 321.42 38.39
  A 0.47 0.47 0.0 0 1 321.89 38.86
  L 321.89 69.19
  A 0.54 0.53 -0.0 0 1 321.35 69.72
  L 311.74 69.72
  A 0.75 0.75 0.0 0 1 310.99 68.97
  L 310.99 66.66
  Z
  M 311.38 53.99
  A 7.15 7.15 0.0 0 0 304.23 46.84
  A 7.15 7.15 0.0 0 0 297.08 53.99
  A 7.15 7.15 0.0 0 0 304.23 61.14
  A 7.15 7.15 0.0 0 0 311.38 53.99
  Z"
/>
<rect fill="#fafafa" x="169.80" y="38.41" width="10.94" height="31.32" rx="0.45"/>
<path fill="#fafafa" d="
  M 203.38 53.91
  Q 203.55 53.91 203.68 53.80
  A 0.21 0.17 -11.5 0 0 203.75 53.72
  L 210.50 38.96
  A 0.97 0.96 -77.4 0 1 211.37 38.40
  L 222.57 38.40
  A 0.36 0.35 -76.1 0 1 222.88 38.92
  L 207.22 68.96
  A 1.38 1.37 -82.2 0 1 206.29 69.67
  Q 206.08 69.72 203.39 69.72
  Q 200.70 69.72 200.50 69.68
  A 1.38 1.37 82.1 0 1 199.56 68.96
  L 183.87 38.94
  A 0.36 0.35 76.1 0 1 184.18 38.42
  L 195.38 38.41
  A 0.97 0.96 77.3 0 1 196.25 38.97
  L 203.01 53.72
  A 0.21 0.17 11.4 0 0 203.08 53.81
  Q 203.22 53.91 203.38 53.91
  Z"
/>
<circle fill="#367bad" cx="145.81" cy="54.01" r="7.13"/>
<circle fill="#367bad" cx="242.33" cy="53.99" r="7.13"/>
<circle fill="#367bad" cx="304.23" cy="53.99" r="7.15"/>
</svg>
